<?xml version="1.0" encoding="UTF-8" standalone="no"?>
<!-- Created with Inkscape (http://www.inkscape.org/) -->

<svg
   xmlns:dc="http://purl.org/dc/elements/1.1/"
   xmlns:cc="http://creativecommons.org/ns#"
   xmlns:rdf="http://www.w3.org/1999/02/22-rdf-syntax-ns#"
   xmlns:svg="http://www.w3.org/2000/svg"
   xmlns="http://www.w3.org/2000/svg"
   xmlns:sodipodi="http://sodipodi.sourceforge.net/DTD/sodipodi-0.dtd"
   xmlns:inkscape="http://www.inkscape.org/namespaces/inkscape"
   version="1.1"
   id="svg2"
   xml:space="preserve"
   width="528"
   height="259.20001"
   viewBox="0 0 528 259.20001"
   sodipodi:docname="Kp_error_interpolated_norcm.svg"
   inkscape:version="0.92.3 (2405546, 2018-03-11)"><metadata
     id="metadata8"><rdf:RDF><cc:Work
         rdf:about=""><dc:format>image/svg+xml</dc:format><dc:type
           rdf:resource="http://purl.org/dc/dcmitype/StillImage" /><dc:title></dc:title></cc:Work></rdf:RDF></metadata><defs
     id="defs6"><clipPath
       clipPathUnits="userSpaceOnUse"
       id="clipPath22"><path
         d="m 42.0075,36.72 h 114.021 V 180.18 H 42.0075 Z"
         id="path20"
         inkscape:connector-curvature="0" /></clipPath><clipPath
       clipPathUnits="userSpaceOnUse"
       id="clipPath32"><path
         d="m 42.0075,36.72 h 114.021 V 180.18 H 42.0075 Z"
         id="path30"
         inkscape:connector-curvature="0" /></clipPath><clipPath
       clipPathUnits="userSpaceOnUse"
       id="clipPath42"><path
         d="m 42.0075,36.72 h 114.021 V 180.18 H 42.0075 Z"
         id="path40"
         inkscape:connector-curvature="0" /></clipPath><clipPath
       clipPathUnits="userSpaceOnUse"
       id="clipPath52"><path
         d="m 42.0075,36.72 h 114.021 V 180.18 H 42.0075 Z"
         id="path50"
         inkscape:connector-curvature="0" /></clipPath><clipPath
       clipPathUnits="userSpaceOnUse"
       id="clipPath84"><path
         d="M -184,-236 H 1288 V 929 H -184 Z"
         id="path82"
         inkscape:connector-curvature="0" /></clipPath><clipPath
       clipPathUnits="userSpaceOnUse"
       id="clipPath106"><path
         d="M -184,-236 H 1288 V 929 H -184 Z"
         id="path104"
         inkscape:connector-curvature="0" /></clipPath><clipPath
       clipPathUnits="userSpaceOnUse"
       id="clipPath202"><path
         d="M 175.6485,36.72 H 346.68 V 180.18 H 175.6485 Z"
         id="path200"
         inkscape:connector-curvature="0" /></clipPath><clipPath
       clipPathUnits="userSpaceOnUse"
       id="clipPath212"><path
         d="M 175.6485,36.72 H 346.68 V 180.18 H 175.6485 Z"
         id="path210"
         inkscape:connector-curvature="0" /></clipPath><clipPath
       clipPathUnits="userSpaceOnUse"
       id="clipPath222"><path
         d="M 175.6485,36.72 H 346.68 V 180.18 H 175.6485 Z"
         id="path220"
         inkscape:connector-curvature="0" /></clipPath><clipPath
       clipPathUnits="userSpaceOnUse"
       id="clipPath232"><path
         d="M 175.6485,36.72 H 346.68 V 180.18 H 175.6485 Z"
         id="path230"
         inkscape:connector-curvature="0" /></clipPath></defs><sodipodi:namedview
     pagecolor="#ffffff"
     bordercolor="#666666"
     borderopacity="1"
     objecttolerance="10"
     gridtolerance="10"
     guidetolerance="10"
     inkscape:pageopacity="0"
     inkscape:pageshadow="2"
     inkscape:window-width="1134"
     inkscape:window-height="546"
     id="namedview4"
     showgrid="false"
     inkscape:zoom="1.4621212"
     inkscape:cx="122.66918"
     inkscape:cy="193.14737"
     inkscape:window-x="177"
     inkscape:window-y="60"
     inkscape:window-maximized="0"
     inkscape:current-layer="g56" /><g
     id="g10"
     inkscape:groupmode="layer"
     inkscape:label="Kp_error_interpolated"
     transform="matrix(1.3333333,0,0,-1.3333333,0,259.2)"><path
       d="M 0,0 H 396 V 194.4 H 0 Z"
       style="fill:#ffffff;fill-opacity:1;fill-rule:nonzero;stroke:none"
       id="path12"
       inkscape:connector-curvature="0" /><path
       d="m 42.0075,36.72 h 114.021 V 180.18 H 42.0075 Z"
       style="fill:#ffffff;fill-opacity:1;fill-rule:nonzero;stroke:none"
       id="path14"
       inkscape:connector-curvature="0" /><g
       id="g16"><g
         id="g18"
         clip-path="url(#clipPath22)"><path
           d="M 107.16236,36.72 V 180.18"
           style="fill:none;stroke:#000000;stroke-width:0.5;stroke-linecap:butt;stroke-linejoin:round;stroke-miterlimit:10;stroke-dasharray:1, 3;stroke-dashoffset:0;stroke-opacity:1"
           id="path24"
           inkscape:connector-curvature="0" /></g></g><g
       id="g26"><g
         id="g28"
         clip-path="url(#clipPath32)"><path
           d="m 42.0075,36.72 20.053945,0.0831 2.291879,0.215623 1.71891,0.35481 1.718909,0.575269 5.156729,2.065167 1.14594,0.117743 1.145939,-0.100769 1.71891,-0.482167 2.291879,-0.788318 1.14594,-0.192262 1.14594,0.101575 1.145939,0.50083 1.14594,0.984509 1.14594,1.520866 1.145939,2.066418 1.14594,2.571073 1.71891,4.608254 2.291879,6.993471 2.291879,7.567591 1.71891,6.252212 1.71891,7.114791 1.718909,8.174078 2.291875,12.264253 6.87564,37.934223 1.71891,8.53384 1.71891,7.42108 1.14594,4.09688 1.14594,3.34027 1.14594,2.60159 1.14594,1.92617 1.14594,1.31408 0.57297,0.43728 0.57297,0.28896 0.57297,0.13455 0.57297,-0.0293 0.57297,-0.20531 0.57297,-0.395 0.57297,-0.59864 0.57297,-0.81496 0.57297,-1.04098 1.14594,-2.77461 1.14594,-3.65766 1.14594,-4.3945 2.29188,-10.05151 4.58376,-21.21925 1.71891,-9.12388 1.7189,-10.3215 4.01079,-25.149077 1.71891,-9.024302 1.14594,-5.09146 1.14594,-4.394525 1.14594,-3.784137 1.14594,-3.257512 1.14594,-2.788887 1.14594,-2.351962 1.14594,-1.935559 1.14594,-1.547482 1.14594,-1.207617 1.14594,-0.935822 1.71891,-1.061817 1.14594,-0.577219 v 0"
           style="fill:none;stroke:#ff0e00;stroke-width:1.5;stroke-linecap:square;stroke-linejoin:round;stroke-miterlimit:10;stroke-dasharray:none;stroke-opacity:1"
           id="path34"
           inkscape:connector-curvature="0" /></g></g><g
       id="g36"><g
         id="g38"
         clip-path="url(#clipPath42)"><path
           d="m 42.0075,36.923564 2.864849,0.321441 7.448608,1.071098 6.875638,0.405531 2.29188,0.516234 4.583759,1.202727 1.718909,0.18144 1.71891,-0.06946 2.291879,-0.407602 3.437819,-0.670497 1.71891,-0.06876 1.718909,0.211623 1.71891,0.513377 1.718909,0.826402 1.71891,1.161224 1.71891,1.526151 1.718909,1.919819 1.71891,2.347959 1.718909,2.843765 1.71891,3.460162 1.718909,4.224377 1.71891,5.085297 1.718909,5.906322 2.29188,8.805549 3.437815,14.205108 2.29188,10.250509 2.29188,11.50409 5.7297,30.48712 1.14594,4.49557 1.14594,3.38083 0.57297,1.23765 0.57297,0.93267 0.57297,0.63533 0.57297,0.35336 0.57297,0.0937 0.57297,-0.13761 0.57297,-0.33606 1.14594,-1.12293 1.71891,-2.27706 2.29188,-3.05279 3.43782,-4.29178 1.14594,-1.87398 1.14594,-2.36688 1.14594,-2.96511 1.14594,-3.60553 1.14594,-4.22545 1.7189,-7.32896 2.29188,-10.99094 6.30267,-30.913515 2.86485,-12.788638 1.71891,-6.89368 1.71891,-6.018662 1.14594,-3.43479 1.14594,-2.947171 1.14594,-2.471321 1.14594,-2.031758 0.57297,-0.866858 v 0"
           style="fill:none;stroke:#ffa300;stroke-width:1.5;stroke-linecap:square;stroke-linejoin:round;stroke-miterlimit:10;stroke-dasharray:none;stroke-opacity:1"
           id="path44"
           inkscape:connector-curvature="0" /></g></g><g
       id="g56"><path
         d="m 42.0075,180.18 h 114.021"
         style="fill:none;stroke:#000000;stroke-width:1;stroke-linecap:square;stroke-linejoin:miter;stroke-miterlimit:10;stroke-dasharray:none;stroke-opacity:1"
         id="path58"
         inkscape:connector-curvature="0" /><path
         d="M 156.0285,36.72 V 180.18"
         style="fill:none;stroke:#000000;stroke-width:1;stroke-linecap:square;stroke-linejoin:miter;stroke-miterlimit:10;stroke-dasharray:none;stroke-opacity:1"
         id="path60"
         inkscape:connector-curvature="0" /><path
         d="m 42.0075,36.72 h 114.021"
         style="fill:none;stroke:#000000;stroke-width:1;stroke-linecap:square;stroke-linejoin:miter;stroke-miterlimit:10;stroke-dasharray:none;stroke-opacity:1"
         id="path62"
         inkscape:connector-curvature="0" /><path
         d="M 42.0075,36.72 V 180.18"
         style="fill:none;stroke:#000000;stroke-width:1;stroke-linecap:square;stroke-linejoin:miter;stroke-miterlimit:10;stroke-dasharray:none;stroke-opacity:1"
         id="path64"
         inkscape:connector-curvature="0" /><path
         d="m 58.296214,36.72 v 4"
         style="fill:#000000;fill-opacity:1;fill-rule:nonzero;stroke:#000000;stroke-width:0.5;stroke-linecap:butt;stroke-linejoin:round;stroke-miterlimit:10;stroke-dasharray:none;stroke-opacity:1"
         id="path66"
         inkscape:connector-curvature="0" /><path
         d="m 58.296214,180.18 v -4"
         style="fill:#000000;fill-opacity:1;fill-rule:nonzero;stroke:#000000;stroke-width:0.5;stroke-linecap:butt;stroke-linejoin:round;stroke-miterlimit:10;stroke-dasharray:none;stroke-opacity:1"
         id="path68"
         inkscape:connector-curvature="0" /><g
         id="g70"
         transform="translate(47.358714,25.87625)"><text
           transform="matrix(1,0,0,-1,7.5410156,0)"
           style="font-variant:normal;font-weight:normal;font-size:9px;font-family:BitstreamVeraSans;-inkscape-font-specification:BitstreamVeraSans-Roman;writing-mode:lr-tb;fill:#000000;fill-opacity:1;fill-rule:nonzero;stroke:none"
           id="text74"><tspan
             x="0 5.724 8.5860004"
             y="0"
             sodipodi:role="line"
             id="tspan72">3.0</tspan></text>
<g
           id="g76"
           transform="scale(0.009)"><g
             id="g78"><g
               id="g80"
               clip-path="url(#clipPath84)"><path
                 d="M 106,355 H 732 V 272 H 106 v 83"
                 style="fill:#000000;fill-opacity:1;fill-rule:nonzero;stroke:none"
                 id="path86"
                 inkscape:connector-curvature="0" /></g></g></g></g><path
         d="m 82.729286,36.72 v 4"
         style="fill:#000000;fill-opacity:1;fill-rule:nonzero;stroke:#000000;stroke-width:0.5;stroke-linecap:butt;stroke-linejoin:round;stroke-miterlimit:10;stroke-dasharray:none;stroke-opacity:1"
         id="path88"
         inkscape:connector-curvature="0" /><path
         d="m 82.729286,180.18 v -4"
         style="fill:#000000;fill-opacity:1;fill-rule:nonzero;stroke:#000000;stroke-width:0.5;stroke-linecap:butt;stroke-linejoin:round;stroke-miterlimit:10;stroke-dasharray:none;stroke-opacity:1"
         id="path90"
         inkscape:connector-curvature="0" /><g
         id="g92"
         transform="translate(71.791786,25.87625)"><text
           transform="matrix(1,0,0,-1,7.5410156,0)"
           style="font-variant:normal;font-weight:normal;font-size:9px;font-family:BitstreamVeraSans;-inkscape-font-specification:BitstreamVeraSans-Roman;writing-mode:lr-tb;fill:#000000;fill-opacity:1;fill-rule:nonzero;stroke:none"
           id="text96"><tspan
             x="0 5.724 8.5860004"
             y="0"
             sodipodi:role="line"
             id="tspan94">1.5</tspan></text>
<g
           id="g98"
           transform="scale(0.009)"><g
             id="g100"><g
               id="g102"
               clip-path="url(#clipPath106)"><path
                 d="M 106,355 H 732 V 272 H 106 v 83"
                 style="fill:#000000;fill-opacity:1;fill-rule:nonzero;stroke:none"
                 id="path108"
                 inkscape:connector-curvature="0" /></g></g></g></g><path
         d="m 107.16236,36.72 v 4"
         style="fill:#000000;fill-opacity:1;fill-rule:nonzero;stroke:#000000;stroke-width:0.5;stroke-linecap:butt;stroke-linejoin:round;stroke-miterlimit:10;stroke-dasharray:none;stroke-opacity:1"
         id="path110"
         inkscape:connector-curvature="0" /><path
         d="m 107.16236,180.18 v -4"
         style="fill:#000000;fill-opacity:1;fill-rule:nonzero;stroke:#000000;stroke-width:0.5;stroke-linecap:butt;stroke-linejoin:round;stroke-miterlimit:10;stroke-dasharray:none;stroke-opacity:1"
         id="path112"
         inkscape:connector-curvature="0" /><text
         transform="matrix(1,0,0,-1,99.998295,25.87625)"
         style="font-variant:normal;font-weight:normal;font-size:9px;font-family:BitstreamVeraSans;-inkscape-font-specification:BitstreamVeraSans-Roman;writing-mode:lr-tb;fill:#000000;fill-opacity:1;fill-rule:nonzero;stroke:none"
         id="text116"><tspan
           x="0 5.724 8.5860004"
           y="0"
           sodipodi:role="line"
           id="tspan114">0.0</tspan></text>
<path
         d="m 131.59543,36.72 v 4"
         style="fill:#000000;fill-opacity:1;fill-rule:nonzero;stroke:#000000;stroke-width:0.5;stroke-linecap:butt;stroke-linejoin:round;stroke-miterlimit:10;stroke-dasharray:none;stroke-opacity:1"
         id="path118"
         inkscape:connector-curvature="0" /><path
         d="m 131.59543,180.18 v -4"
         style="fill:#000000;fill-opacity:1;fill-rule:nonzero;stroke:#000000;stroke-width:0.5;stroke-linecap:butt;stroke-linejoin:round;stroke-miterlimit:10;stroke-dasharray:none;stroke-opacity:1"
         id="path120"
         inkscape:connector-curvature="0" /><text
         transform="matrix(1,0,0,-1,124.43137,25.87625)"
         style="font-variant:normal;font-weight:normal;font-size:9px;font-family:BitstreamVeraSans;-inkscape-font-specification:BitstreamVeraSans-Roman;writing-mode:lr-tb;fill:#000000;fill-opacity:1;fill-rule:nonzero;stroke:none"
         id="text124"><tspan
           x="0 5.724 8.5860004"
           y="0"
           sodipodi:role="line"
           id="tspan122">1.5</tspan></text>
<path
         d="m 156.0285,36.72 v 4"
         style="fill:#000000;fill-opacity:1;fill-rule:nonzero;stroke:#000000;stroke-width:0.5;stroke-linecap:butt;stroke-linejoin:round;stroke-miterlimit:10;stroke-dasharray:none;stroke-opacity:1"
         id="path126"
         inkscape:connector-curvature="0" /><path
         d="m 156.0285,180.18 v -4"
         style="fill:#000000;fill-opacity:1;fill-rule:nonzero;stroke:#000000;stroke-width:0.5;stroke-linecap:butt;stroke-linejoin:round;stroke-miterlimit:10;stroke-dasharray:none;stroke-opacity:1"
         id="path128"
         inkscape:connector-curvature="0" /><text
         transform="matrix(1,0,0,-1,148.86444,25.87625)"
         style="font-variant:normal;font-weight:normal;font-size:9px;font-family:BitstreamVeraSans;-inkscape-font-specification:BitstreamVeraSans-Roman;writing-mode:lr-tb;fill:#000000;fill-opacity:1;fill-rule:nonzero;stroke:none"
         id="text132"><tspan
           x="0 5.724 8.5860004"
           y="0"
           sodipodi:role="line"
           id="tspan130">3.0</tspan></text>
<text
         transform="matrix(1,0,0,-1,80.7055,12.1575)"
         style="font-variant:normal;font-weight:normal;font-size:9px;font-family:BitstreamVeraSans;-inkscape-font-specification:BitstreamVeraSans-Roman;writing-mode:lr-tb;fill:#000000;fill-opacity:1;fill-rule:nonzero;stroke:none"
         id="text136"><tspan
           x="0 5.9039998 11.619 14.481 20.016001 23.715 27.414 32.922001"
           y="0"
           sodipodi:role="line"
           id="tspan134">Kp error</tspan></text>
<path
         d="m 42.0075,36.72 h 4"
         style="fill:#000000;fill-opacity:1;fill-rule:nonzero;stroke:#000000;stroke-width:0.5;stroke-linecap:butt;stroke-linejoin:round;stroke-miterlimit:10;stroke-dasharray:none;stroke-opacity:1"
         id="path138"
         inkscape:connector-curvature="0" /><path
         d="m 156.0285,36.72 h -4"
         style="fill:#000000;fill-opacity:1;fill-rule:nonzero;stroke:#000000;stroke-width:0.5;stroke-linecap:butt;stroke-linejoin:round;stroke-miterlimit:10;stroke-dasharray:none;stroke-opacity:1"
         id="path140"
         inkscape:connector-curvature="0" /><text
         transform="matrix(1,0,0,-1,23.679375,34.235625)"
         style="font-variant:normal;font-weight:normal;font-size:9px;font-family:BitstreamVeraSans;-inkscape-font-specification:BitstreamVeraSans-Roman;writing-mode:lr-tb;fill:#000000;fill-opacity:1;fill-rule:nonzero;stroke:none"
         id="text144"><tspan
           x="0 5.724 8.5860004"
           y="0"
           sodipodi:role="line"
           id="tspan142">0.0</tspan></text>
<path
         d="m 42.0075,65.412 h 4"
         style="fill:#000000;fill-opacity:1;fill-rule:nonzero;stroke:#000000;stroke-width:0.5;stroke-linecap:butt;stroke-linejoin:round;stroke-miterlimit:10;stroke-dasharray:none;stroke-opacity:1"
         id="path146"
         inkscape:connector-curvature="0" /><path
         d="m 156.0285,65.412 h -4"
         style="fill:#000000;fill-opacity:1;fill-rule:nonzero;stroke:#000000;stroke-width:0.5;stroke-linecap:butt;stroke-linejoin:round;stroke-miterlimit:10;stroke-dasharray:none;stroke-opacity:1"
         id="path148"
         inkscape:connector-curvature="0" /><text
         transform="matrix(1,0,0,-1,23.679375,62.927625)"
         style="font-variant:normal;font-weight:normal;font-size:9px;font-family:BitstreamVeraSans;-inkscape-font-specification:BitstreamVeraSans-Roman;writing-mode:lr-tb;fill:#000000;fill-opacity:1;fill-rule:nonzero;stroke:none"
         id="text152"><tspan
           x="0 5.724 8.5860004"
           y="0"
           sodipodi:role="line"
           id="tspan150">0.1</tspan></text>
<path
         d="m 42.0075,94.104 h 4"
         style="fill:#000000;fill-opacity:1;fill-rule:nonzero;stroke:#000000;stroke-width:0.5;stroke-linecap:butt;stroke-linejoin:round;stroke-miterlimit:10;stroke-dasharray:none;stroke-opacity:1"
         id="path154"
         inkscape:connector-curvature="0" /><path
         d="m 156.0285,94.104 h -4"
         style="fill:#000000;fill-opacity:1;fill-rule:nonzero;stroke:#000000;stroke-width:0.5;stroke-linecap:butt;stroke-linejoin:round;stroke-miterlimit:10;stroke-dasharray:none;stroke-opacity:1"
         id="path156"
         inkscape:connector-curvature="0" /><text
         transform="matrix(1,0,0,-1,23.679375,91.619625)"
         style="font-variant:normal;font-weight:normal;font-size:9px;font-family:BitstreamVeraSans;-inkscape-font-specification:BitstreamVeraSans-Roman;writing-mode:lr-tb;fill:#000000;fill-opacity:1;fill-rule:nonzero;stroke:none"
         id="text160"><tspan
           x="0 5.724 8.5860004"
           y="0"
           sodipodi:role="line"
           id="tspan158">0.2</tspan></text>
<path
         d="m 42.0075,122.796 h 4"
         style="fill:#000000;fill-opacity:1;fill-rule:nonzero;stroke:#000000;stroke-width:0.5;stroke-linecap:butt;stroke-linejoin:round;stroke-miterlimit:10;stroke-dasharray:none;stroke-opacity:1"
         id="path162"
         inkscape:connector-curvature="0" /><path
         d="m 156.0285,122.796 h -4"
         style="fill:#000000;fill-opacity:1;fill-rule:nonzero;stroke:#000000;stroke-width:0.5;stroke-linecap:butt;stroke-linejoin:round;stroke-miterlimit:10;stroke-dasharray:none;stroke-opacity:1"
         id="path164"
         inkscape:connector-curvature="0" /><text
         transform="matrix(1,0,0,-1,23.679375,120.31163)"
         style="font-variant:normal;font-weight:normal;font-size:9px;font-family:BitstreamVeraSans;-inkscape-font-specification:BitstreamVeraSans-Roman;writing-mode:lr-tb;fill:#000000;fill-opacity:1;fill-rule:nonzero;stroke:none"
         id="text168"><tspan
           x="0 5.724 8.5860004"
           y="0"
           sodipodi:role="line"
           id="tspan166">0.3</tspan></text>
<path
         d="m 42.0075,151.488 h 4"
         style="fill:#000000;fill-opacity:1;fill-rule:nonzero;stroke:#000000;stroke-width:0.5;stroke-linecap:butt;stroke-linejoin:round;stroke-miterlimit:10;stroke-dasharray:none;stroke-opacity:1"
         id="path170"
         inkscape:connector-curvature="0" /><path
         d="m 156.0285,151.488 h -4"
         style="fill:#000000;fill-opacity:1;fill-rule:nonzero;stroke:#000000;stroke-width:0.5;stroke-linecap:butt;stroke-linejoin:round;stroke-miterlimit:10;stroke-dasharray:none;stroke-opacity:1"
         id="path172"
         inkscape:connector-curvature="0" /><text
         transform="matrix(1,0,0,-1,23.679375,149.00362)"
         style="font-variant:normal;font-weight:normal;font-size:9px;font-family:BitstreamVeraSans;-inkscape-font-specification:BitstreamVeraSans-Roman;writing-mode:lr-tb;fill:#000000;fill-opacity:1;fill-rule:nonzero;stroke:none"
         id="text176"><tspan
           x="0 5.724 8.5860004"
           y="0"
           sodipodi:role="line"
           id="tspan174">0.4</tspan></text>
<path
         d="m 42.0075,180.18 h 4"
         style="fill:#000000;fill-opacity:1;fill-rule:nonzero;stroke:#000000;stroke-width:0.5;stroke-linecap:butt;stroke-linejoin:round;stroke-miterlimit:10;stroke-dasharray:none;stroke-opacity:1"
         id="path178"
         inkscape:connector-curvature="0" /><path
         d="m 156.0285,180.18 h -4"
         style="fill:#000000;fill-opacity:1;fill-rule:nonzero;stroke:#000000;stroke-width:0.5;stroke-linecap:butt;stroke-linejoin:round;stroke-miterlimit:10;stroke-dasharray:none;stroke-opacity:1"
         id="path180"
         inkscape:connector-curvature="0" /><text
         transform="matrix(1,0,0,-1,23.679375,177.69562)"
         style="font-variant:normal;font-weight:normal;font-size:9px;font-family:BitstreamVeraSans;-inkscape-font-specification:BitstreamVeraSans-Roman;writing-mode:lr-tb;fill:#000000;fill-opacity:1;fill-rule:nonzero;stroke:none"
         id="text184"><tspan
           x="0 5.724 8.5860004"
           y="0"
           sodipodi:role="line"
           id="tspan182">0.5</tspan></text>
<text
         transform="matrix(0,1,1,0,16.804375,66.551563)"
         style="font-variant:normal;font-weight:normal;font-size:9px;font-family:BitstreamVeraSans;-inkscape-font-specification:BitstreamVeraSans-Roman;writing-mode:lr-tb;fill:#000000;fill-opacity:1;fill-rule:nonzero;stroke:none"
         id="text188"><tspan
           x="0 5.427 9.1260004 14.634 20.349001 25.865999 31.580999 34.083 36.584999 39.087002 42.615002 47.943001 50.805 56.52 62.055 67.761002 72.449997 74.952003 78.480003"
           y="0"
           sodipodi:role="line"
           id="tspan186">Probability density</tspan></text>
<path
         d="M 175.6485,36.72 H 346.68 V 180.18 H 175.6485 Z"
         style="fill:#ffffff;fill-opacity:1;fill-rule:nonzero;stroke:none"
         id="path194"
         inkscape:connector-curvature="0" /></g><g
       id="g196"><g
         id="g198"
         clip-path="url(#clipPath202)"><path
           d="m 175.6485,58.645198 3.43782,5.41048 2.57836,3.642686 1.71891,2.097503 1.71891,1.771211 1.71891,1.41419 1.71891,1.049657 1.71891,0.702333 1.71891,0.3964 1.71891,0.153338 2.57836,-0.04871 3.43782,-0.108768 1.71891,0.122466 1.71891,0.334533 1.71891,0.594227 1.71891,0.880647 1.71891,1.173767 1.71891,1.456539 1.71891,1.716174 2.57836,2.990995 2.57837,3.380503 4.29727,6.12943 4.29728,6.092498 2.57836,3.241023 1.71891,1.84221 1.71891,1.50836 1.71891,1.11678 1.71891,0.68181 0.85945,0.16896 0.85946,0.0519 0.85945,-0.0655 0.85946,-0.1822 1.71891,-0.707 1.71891,-1.14341 1.71891,-1.54734 1.71891,-1.91325 1.71891,-2.23859 2.57836,-3.876474 2.57836,-4.368097 3.43782,-6.307013 6.01619,-11.092888 2.57836,-4.27098 2.57837,-3.764509 1.71891,-2.192452 1.7189,-1.934675 1.71891,-1.688496 1.71891,-1.464764 2.57837,-1.845152 2.57836,-1.528716 3.43782,-1.747466 15.47019,-7.257098 4.29727,-1.750452 3.43782,-1.16998 3.43782,-0.962244 4.29727,-0.970069 9.45401,-1.783487 16.32964,-3.081575 4.29727,-0.488313 3.43782,-0.248988 v 0"
           style="fill:none;stroke:#b0c4de;stroke-width:5;stroke-linecap:square;stroke-linejoin:round;stroke-miterlimit:10;stroke-dasharray:none;stroke-opacity:1"
           id="path204"
           inkscape:connector-curvature="0" /></g></g><g
       id="g206"><g
         id="g208"
         clip-path="url(#clipPath212)"><path
           d="m 175.6485,38.645733 2.57836,1.086521 1.71891,0.929004 2.57837,1.712641 2.57836,2.075291 2.57837,2.377439 3.43782,3.489739 5.15672,5.575115 4.29728,4.948186 2.57836,3.263943 2.57837,3.627693 2.57836,4.08789 2.57837,4.59488 2.57836,5.084409 3.43782,7.385538 7.73509,17.004788 2.57837,4.86006 1.71891,2.76762 1.71891,2.30581 1.7189,1.79103 1.71892,1.24378 0.85945,0.41227 0.85945,0.27262 0.85946,0.13434 0.85945,-0.002 0.85946,-0.13486 0.85945,-0.26461 1.71891,-0.90322 1.71891,-1.37493 1.71891,-1.81312 1.71891,-2.21594 1.71891,-2.57883 2.57836,-4.44013 3.43782,-6.641314 5.15673,-10.153637 2.57837,-4.571351 2.57836,-4.004795 1.71891,-2.337759 2.57837,-3.056928 2.57836,-2.631491 3.43782,-3.092723 4.29727,-3.534839 5.15673,-3.94751 4.29727,-3.000286 4.29728,-2.728664 5.15673,-3.010146 6.01618,-3.272689 5.15673,-2.576047 4.29727,-1.876085 3.43782,-1.251434 3.43782,-1.005845 3.43782,-0.789284 6.01618,-1.092274 8.59455,-1.590087 8.59455,-1.640231 v 0"
           style="fill:none;stroke:#ff0e00;stroke-width:1.5;stroke-linecap:square;stroke-linejoin:round;stroke-miterlimit:10;stroke-dasharray:none;stroke-opacity:1"
           id="path214"
           inkscape:connector-curvature="0" /></g></g><g
       id="g216"><g
         id="g218"
         clip-path="url(#clipPath222)"><path
           d="m 175.6485,37.776581 2.57836,0.640588 2.57837,0.897062 2.57836,1.192685 2.57837,1.51403 2.57836,1.847789 2.57837,2.184564 2.57836,2.519228 2.57836,2.846705 2.57837,3.155366 3.43782,4.612641 5.15673,7.416608 9.454,13.880863 2.57836,4.19684 2.57837,4.679958 2.57836,5.257662 2.57837,5.79128 6.87564,16.04788 1.7189,3.47984 1.71891,2.9812 1.71891,2.34364 0.85946,0.89297 0.85945,0.6883 0.85946,0.47155 0.85945,0.24463 0.85946,0.01 0.85945,-0.23077 0.85946,-0.47413 0.85945,-0.71754 0.85946,-0.95797 0.85945,-1.19233 1.71891,-3.04793 1.71891,-3.83633 1.71891,-4.47292 2.57836,-7.49512 5.15673,-15.336854 1.71891,-4.563868 1.71891,-4.082016 1.71891,-3.540176 1.71891,-2.982317 1.71891,-2.447531 1.71891,-1.966952 1.71891,-1.561857 1.71891,-1.243041 1.71891,-1.011407 2.57836,-1.253838 12.89182,-5.793613 7.7351,-3.785501 5.15673,-2.766454 13.75127,-7.670114 2.57837,-1.100337 2.57836,-0.902031 3.43782,-0.914438 4.29727,-0.830393 8.59455,-1.570484 6.87564,-1.432622 v 0"
           style="fill:none;stroke:#ffa300;stroke-width:1.5;stroke-linecap:square;stroke-linejoin:round;stroke-miterlimit:10;stroke-dasharray:none;stroke-opacity:1"
           id="path224"
           inkscape:connector-curvature="0" /></g></g><g
       id="g236"><path
         d="M 175.6485,180.18 H 346.68"
         style="fill:none;stroke:#000000;stroke-width:1;stroke-linecap:square;stroke-linejoin:miter;stroke-miterlimit:10;stroke-dasharray:none;stroke-opacity:1"
         id="path238"
         inkscape:connector-curvature="0" /><path
         d="M 346.68,36.72 V 180.18"
         style="fill:none;stroke:#000000;stroke-width:1;stroke-linecap:square;stroke-linejoin:miter;stroke-miterlimit:10;stroke-dasharray:none;stroke-opacity:1"
         id="path240"
         inkscape:connector-curvature="0" /><path
         d="M 175.6485,36.72 H 346.68"
         style="fill:none;stroke:#000000;stroke-width:1;stroke-linecap:square;stroke-linejoin:miter;stroke-miterlimit:10;stroke-dasharray:none;stroke-opacity:1"
         id="path242"
         inkscape:connector-curvature="0" /><path
         d="M 175.6485,36.72 V 180.18"
         style="fill:none;stroke:#000000;stroke-width:1;stroke-linecap:square;stroke-linejoin:miter;stroke-miterlimit:10;stroke-dasharray:none;stroke-opacity:1"
         id="path244"
         inkscape:connector-curvature="0" /><path
         d="m 175.6485,36.72 v 4"
         style="fill:#000000;fill-opacity:1;fill-rule:nonzero;stroke:#000000;stroke-width:0.5;stroke-linecap:butt;stroke-linejoin:round;stroke-miterlimit:10;stroke-dasharray:none;stroke-opacity:1"
         id="path246"
         inkscape:connector-curvature="0" /><path
         d="m 175.6485,180.18 v -4"
         style="fill:#000000;fill-opacity:1;fill-rule:nonzero;stroke:#000000;stroke-width:0.5;stroke-linecap:butt;stroke-linejoin:round;stroke-miterlimit:10;stroke-dasharray:none;stroke-opacity:1"
         id="path248"
         inkscape:connector-curvature="0" /><text
         transform="matrix(1,0,0,-1,172.78131,25.87625)"
         style="font-variant:normal;font-weight:normal;font-size:9px;font-family:BitstreamVeraSans;-inkscape-font-specification:BitstreamVeraSans-Roman;writing-mode:lr-tb;fill:#000000;fill-opacity:1;fill-rule:nonzero;stroke:none"
         id="text252"><tspan
           x="0"
           y="0"
           id="tspan250">0</tspan></text>
<path
         d="m 213.6555,36.72 v 4"
         style="fill:#000000;fill-opacity:1;fill-rule:nonzero;stroke:#000000;stroke-width:0.5;stroke-linecap:butt;stroke-linejoin:round;stroke-miterlimit:10;stroke-dasharray:none;stroke-opacity:1"
         id="path254"
         inkscape:connector-curvature="0" /><path
         d="m 213.6555,180.18 v -4"
         style="fill:#000000;fill-opacity:1;fill-rule:nonzero;stroke:#000000;stroke-width:0.5;stroke-linecap:butt;stroke-linejoin:round;stroke-miterlimit:10;stroke-dasharray:none;stroke-opacity:1"
         id="path256"
         inkscape:connector-curvature="0" /><text
         transform="matrix(1,0,0,-1,210.78831,25.87625)"
         style="font-variant:normal;font-weight:normal;font-size:9px;font-family:BitstreamVeraSans;-inkscape-font-specification:BitstreamVeraSans-Roman;writing-mode:lr-tb;fill:#000000;fill-opacity:1;fill-rule:nonzero;stroke:none"
         id="text260"><tspan
           x="0"
           y="0"
           id="tspan258">2</tspan></text>
<path
         d="m 251.6625,36.72 v 4"
         style="fill:#000000;fill-opacity:1;fill-rule:nonzero;stroke:#000000;stroke-width:0.5;stroke-linecap:butt;stroke-linejoin:round;stroke-miterlimit:10;stroke-dasharray:none;stroke-opacity:1"
         id="path262"
         inkscape:connector-curvature="0" /><path
         d="m 251.6625,180.18 v -4"
         style="fill:#000000;fill-opacity:1;fill-rule:nonzero;stroke:#000000;stroke-width:0.5;stroke-linecap:butt;stroke-linejoin:round;stroke-miterlimit:10;stroke-dasharray:none;stroke-opacity:1"
         id="path264"
         inkscape:connector-curvature="0" /><text
         transform="matrix(1,0,0,-1,248.79531,25.87625)"
         style="font-variant:normal;font-weight:normal;font-size:9px;font-family:BitstreamVeraSans;-inkscape-font-specification:BitstreamVeraSans-Roman;writing-mode:lr-tb;fill:#000000;fill-opacity:1;fill-rule:nonzero;stroke:none"
         id="text268"><tspan
           x="0"
           y="0"
           id="tspan266">4</tspan></text>
<path
         d="m 289.6695,36.72 v 4"
         style="fill:#000000;fill-opacity:1;fill-rule:nonzero;stroke:#000000;stroke-width:0.5;stroke-linecap:butt;stroke-linejoin:round;stroke-miterlimit:10;stroke-dasharray:none;stroke-opacity:1"
         id="path270"
         inkscape:connector-curvature="0" /><path
         d="m 289.6695,180.18 v -4"
         style="fill:#000000;fill-opacity:1;fill-rule:nonzero;stroke:#000000;stroke-width:0.5;stroke-linecap:butt;stroke-linejoin:round;stroke-miterlimit:10;stroke-dasharray:none;stroke-opacity:1"
         id="path272"
         inkscape:connector-curvature="0" /><text
         transform="matrix(1,0,0,-1,286.80231,25.87625)"
         style="font-variant:normal;font-weight:normal;font-size:9px;font-family:BitstreamVeraSans;-inkscape-font-specification:BitstreamVeraSans-Roman;writing-mode:lr-tb;fill:#000000;fill-opacity:1;fill-rule:nonzero;stroke:none"
         id="text276"><tspan
           x="0"
           y="0"
           id="tspan274">6</tspan></text>
<path
         d="m 327.6765,36.72 v 4"
         style="fill:#000000;fill-opacity:1;fill-rule:nonzero;stroke:#000000;stroke-width:0.5;stroke-linecap:butt;stroke-linejoin:round;stroke-miterlimit:10;stroke-dasharray:none;stroke-opacity:1"
         id="path278"
         inkscape:connector-curvature="0" /><path
         d="m 327.6765,180.18 v -4"
         style="fill:#000000;fill-opacity:1;fill-rule:nonzero;stroke:#000000;stroke-width:0.5;stroke-linecap:butt;stroke-linejoin:round;stroke-miterlimit:10;stroke-dasharray:none;stroke-opacity:1"
         id="path280"
         inkscape:connector-curvature="0" /><text
         transform="matrix(1,0,0,-1,324.80931,25.87625)"
         style="font-variant:normal;font-weight:normal;font-size:9px;font-family:BitstreamVeraSans;-inkscape-font-specification:BitstreamVeraSans-Roman;writing-mode:lr-tb;fill:#000000;fill-opacity:1;fill-rule:nonzero;stroke:none"
         id="text284"><tspan
           x="0"
           y="0"
           id="tspan282">8</tspan></text>
<text
         transform="matrix(1,0,0,-1,253.92206,12.1575)"
         style="font-variant:normal;font-weight:normal;font-size:9px;font-family:BitstreamVeraSans;-inkscape-font-specification:BitstreamVeraSans-Roman;writing-mode:lr-tb;fill:#000000;fill-opacity:1;fill-rule:nonzero;stroke:none"
         id="text288"><tspan
           x="0 5.9039998 11.619"
           y="0"
           sodipodi:role="line"
           id="tspan286">Kp </tspan></text>
<path
         d="m 175.6485,36.72 h 4"
         style="fill:#000000;fill-opacity:1;fill-rule:nonzero;stroke:#000000;stroke-width:0.5;stroke-linecap:butt;stroke-linejoin:round;stroke-miterlimit:10;stroke-dasharray:none;stroke-opacity:1"
         id="path290"
         inkscape:connector-curvature="0" /><path
         d="m 346.68,36.72 h -4"
         style="fill:#000000;fill-opacity:1;fill-rule:nonzero;stroke:#000000;stroke-width:0.5;stroke-linecap:butt;stroke-linejoin:round;stroke-miterlimit:10;stroke-dasharray:none;stroke-opacity:1"
         id="path292"
         inkscape:connector-curvature="0" /><path
         d="m 175.6485,65.412 h 4"
         style="fill:#000000;fill-opacity:1;fill-rule:nonzero;stroke:#000000;stroke-width:0.5;stroke-linecap:butt;stroke-linejoin:round;stroke-miterlimit:10;stroke-dasharray:none;stroke-opacity:1"
         id="path294"
         inkscape:connector-curvature="0" /><path
         d="m 346.68,65.412 h -4"
         style="fill:#000000;fill-opacity:1;fill-rule:nonzero;stroke:#000000;stroke-width:0.5;stroke-linecap:butt;stroke-linejoin:round;stroke-miterlimit:10;stroke-dasharray:none;stroke-opacity:1"
         id="path296"
         inkscape:connector-curvature="0" /><path
         d="m 175.6485,94.104 h 4"
         style="fill:#000000;fill-opacity:1;fill-rule:nonzero;stroke:#000000;stroke-width:0.5;stroke-linecap:butt;stroke-linejoin:round;stroke-miterlimit:10;stroke-dasharray:none;stroke-opacity:1"
         id="path298"
         inkscape:connector-curvature="0" /><path
         d="m 346.68,94.104 h -4"
         style="fill:#000000;fill-opacity:1;fill-rule:nonzero;stroke:#000000;stroke-width:0.5;stroke-linecap:butt;stroke-linejoin:round;stroke-miterlimit:10;stroke-dasharray:none;stroke-opacity:1"
         id="path300"
         inkscape:connector-curvature="0" /><path
         d="m 175.6485,122.796 h 4"
         style="fill:#000000;fill-opacity:1;fill-rule:nonzero;stroke:#000000;stroke-width:0.5;stroke-linecap:butt;stroke-linejoin:round;stroke-miterlimit:10;stroke-dasharray:none;stroke-opacity:1"
         id="path302"
         inkscape:connector-curvature="0" /><path
         d="m 346.68,122.796 h -4"
         style="fill:#000000;fill-opacity:1;fill-rule:nonzero;stroke:#000000;stroke-width:0.5;stroke-linecap:butt;stroke-linejoin:round;stroke-miterlimit:10;stroke-dasharray:none;stroke-opacity:1"
         id="path304"
         inkscape:connector-curvature="0" /><path
         d="m 175.6485,151.488 h 4"
         style="fill:#000000;fill-opacity:1;fill-rule:nonzero;stroke:#000000;stroke-width:0.5;stroke-linecap:butt;stroke-linejoin:round;stroke-miterlimit:10;stroke-dasharray:none;stroke-opacity:1"
         id="path306"
         inkscape:connector-curvature="0" /><path
         d="m 346.68,151.488 h -4"
         style="fill:#000000;fill-opacity:1;fill-rule:nonzero;stroke:#000000;stroke-width:0.5;stroke-linecap:butt;stroke-linejoin:round;stroke-miterlimit:10;stroke-dasharray:none;stroke-opacity:1"
         id="path308"
         inkscape:connector-curvature="0" /><path
         d="m 175.6485,180.18 h 4"
         style="fill:#000000;fill-opacity:1;fill-rule:nonzero;stroke:#000000;stroke-width:0.5;stroke-linecap:butt;stroke-linejoin:round;stroke-miterlimit:10;stroke-dasharray:none;stroke-opacity:1"
         id="path310"
         inkscape:connector-curvature="0" /><path
         d="m 346.68,180.18 h -4"
         style="fill:#000000;fill-opacity:1;fill-rule:nonzero;stroke:#000000;stroke-width:0.5;stroke-linecap:butt;stroke-linejoin:round;stroke-miterlimit:10;stroke-dasharray:none;stroke-opacity:1"
         id="path312"
         inkscape:connector-curvature="0" /><path
         d="M 241.43625,120.105 H 342.18 V 175.68 H 241.43625 Z"
         style="fill:#ffffff;fill-opacity:1;fill-rule:nonzero;stroke:#000000;stroke-width:1;stroke-linecap:butt;stroke-linejoin:miter;stroke-miterlimit:10;stroke-dasharray:none;stroke-opacity:1"
         id="path318"
         inkscape:connector-curvature="0" /><path
         d="m 247.73625,168.38625 h 12.6"
         style="fill:none;stroke:#b0c4de;stroke-width:5;stroke-linecap:square;stroke-linejoin:round;stroke-miterlimit:10;stroke-dasharray:none;stroke-opacity:1"
         id="path320"
         inkscape:connector-curvature="0" /><text
         transform="matrix(1,0,0,-1,270.23625,165.23625)"
         style="font-variant:normal;font-weight:normal;font-size:9px;font-family:BitstreamVeraSans;-inkscape-font-specification:BitstreamVeraSans-Roman;writing-mode:lr-tb;fill:#000000;fill-opacity:1;fill-rule:nonzero;stroke:none"
         id="text324"><tspan
           x="0"
           y="0"
           sodipodi:role="line"
           id="tspan322">Observations</tspan></text>
<path
         d="m 247.73625,155.1675 h 12.6"
         style="fill:none;stroke:#ff0e00;stroke-width:1.5;stroke-linecap:square;stroke-linejoin:round;stroke-miterlimit:10;stroke-dasharray:none;stroke-opacity:1"
         id="path326"
         inkscape:connector-curvature="0" /><text
         transform="matrix(1,0,0,-1,270.23625,152.0175)"
         style="font-variant:normal;font-weight:normal;font-size:9px;font-family:BitstreamVeraSans;-inkscape-font-specification:BitstreamVeraSans-Roman;writing-mode:lr-tb;fill:#000000;fill-opacity:1;fill-rule:nonzero;stroke:none"
         id="text330"><tspan
           x="0 5.7150002 14.616 20.042999"
           y="0"
           sodipodi:role="line"
           id="tspan328">SWPC</tspan></text>
<path
         d="m 247.73625,141.94875 h 12.6"
         style="fill:none;stroke:#ffa300;stroke-width:1.5;stroke-linecap:square;stroke-linejoin:round;stroke-miterlimit:10;stroke-dasharray:none;stroke-opacity:1"
         id="path332"
         inkscape:connector-curvature="0" /><text
         transform="matrix(1,0,0,-1,270.23625,138.79875)"
         style="font-variant:normal;font-weight:normal;font-size:9px;font-family:BitstreamVeraSans;-inkscape-font-specification:BitstreamVeraSans-Roman;writing-mode:lr-tb;fill:#000000;fill-opacity:1;fill-rule:nonzero;stroke:none"
         id="text336"><tspan
           x="0 6.7680001 9.2700005 12.519 16.218 21.753 26.441999 29.304001 36.666 39.699001 42.561001 48.816002 55.098"
           y="0"
           sodipodi:role="line"
           id="tspan334">Hi-res w/ RCM</tspan></text>
<path
         d="m 247.73625,128.73 h 12.6"
         style="fill:none;stroke:#0077ff;stroke-width:1.5;stroke-linecap:square;stroke-linejoin:round;stroke-miterlimit:10;stroke-dasharray:none;stroke-opacity:1"
         id="path338"
         inkscape:connector-curvature="0" /><text
         transform="matrix(1,0,0,-1,270.23625,125.58)"
         style="font-variant:normal;font-weight:normal;font-size:9px;font-family:BitstreamVeraSans;-inkscape-font-specification:BitstreamVeraSans-Roman;writing-mode:lr-tb;fill:#000000;fill-opacity:1;fill-rule:nonzero;stroke:none"
         id="text342"><tspan
           x="0 6.7680001 9.2700005 12.519 16.218 21.753 26.441999 29.304001 36.666 39.699001 45.207001 48.069 54.324001 60.605999"
           y="0"
           sodipodi:role="line"
           id="tspan340">Hi-res w/o RCM</tspan></text>
</g></g></svg>