<?xml version="1.0" encoding="UTF-8" standalone="no"?>
<!-- Created with Inkscape (http://www.inkscape.org/) -->

<svg
   xmlns:dc="http://purl.org/dc/elements/1.1/"
   xmlns:cc="http://creativecommons.org/ns#"
   xmlns:rdf="http://www.w3.org/1999/02/22-rdf-syntax-ns#"
   xmlns:svg="http://www.w3.org/2000/svg"
   xmlns="http://www.w3.org/2000/svg"
   xmlns:sodipodi="http://sodipodi.sourceforge.net/DTD/sodipodi-0.dtd"
   xmlns:inkscape="http://www.inkscape.org/namespaces/inkscape"
   version="1.1"
   id="svg4871"
   xml:space="preserve"
   width="528"
   height="259.20001"
   viewBox="0 0 528 259.20001"
   sodipodi:docname="Kp_interpolated_error.svg"
   inkscape:version="0.92.3 (2405546, 2018-03-11)"><metadata
     id="metadata4877"><rdf:RDF><cc:Work
         rdf:about=""><dc:format>image/svg+xml</dc:format><dc:type
           rdf:resource="http://purl.org/dc/dcmitype/StillImage" /><dc:title></dc:title></cc:Work></rdf:RDF></metadata><defs
     id="defs4875"><clipPath
       clipPathUnits="userSpaceOnUse"
       id="clipPath4891"><path
         d="m 42.0075,36.72 h 114.021 V 180.18 H 42.0075 Z"
         id="path4889"
         inkscape:connector-curvature="0" /></clipPath><clipPath
       clipPathUnits="userSpaceOnUse"
       id="clipPath4901"><path
         d="m 42.0075,36.72 h 114.021 V 180.18 H 42.0075 Z"
         id="path4899"
         inkscape:connector-curvature="0" /></clipPath><clipPath
       clipPathUnits="userSpaceOnUse"
       id="clipPath4911"><path
         d="m 42.0075,36.72 h 114.021 V 180.18 H 42.0075 Z"
         id="path4909"
         inkscape:connector-curvature="0" /></clipPath><clipPath
       clipPathUnits="userSpaceOnUse"
       id="clipPath4921"><path
         d="m 42.0075,36.72 h 114.021 V 180.18 H 42.0075 Z"
         id="path4919"
         inkscape:connector-curvature="0" /></clipPath><clipPath
       clipPathUnits="userSpaceOnUse"
       id="clipPath4953"><path
         d="M -184,-236 H 1288 V 929 H -184 Z"
         id="path4951"
         inkscape:connector-curvature="0" /></clipPath><clipPath
       clipPathUnits="userSpaceOnUse"
       id="clipPath4975"><path
         d="M -184,-236 H 1288 V 929 H -184 Z"
         id="path4973"
         inkscape:connector-curvature="0" /></clipPath><clipPath
       clipPathUnits="userSpaceOnUse"
       id="clipPath5071"><path
         d="M 175.6485,36.72 H 346.68 V 180.18 H 175.6485 Z"
         id="path5069"
         inkscape:connector-curvature="0" /></clipPath><clipPath
       clipPathUnits="userSpaceOnUse"
       id="clipPath5081"><path
         d="M 175.6485,36.72 H 346.68 V 180.18 H 175.6485 Z"
         id="path5079"
         inkscape:connector-curvature="0" /></clipPath><clipPath
       clipPathUnits="userSpaceOnUse"
       id="clipPath5091"><path
         d="M 175.6485,36.72 H 346.68 V 180.18 H 175.6485 Z"
         id="path5089"
         inkscape:connector-curvature="0" /></clipPath><clipPath
       clipPathUnits="userSpaceOnUse"
       id="clipPath5101"><path
         d="M 175.6485,36.72 H 346.68 V 180.18 H 175.6485 Z"
         id="path5099"
         inkscape:connector-curvature="0" /></clipPath></defs><sodipodi:namedview
     pagecolor="#ffffff"
     bordercolor="#666666"
     borderopacity="1"
     objecttolerance="10"
     gridtolerance="10"
     guidetolerance="10"
     inkscape:pageopacity="0"
     inkscape:pageshadow="2"
     inkscape:window-width="1366"
     inkscape:window-height="704"
     id="namedview4873"
     showgrid="false"
     inkscape:zoom="1.0338758"
     inkscape:cx="380.0681"
     inkscape:cy="160.08844"
     inkscape:window-x="0"
     inkscape:window-y="27"
     inkscape:window-maximized="1"
     inkscape:current-layer="g4879" /><g
     id="g4879"
     inkscape:groupmode="layer"
     inkscape:label="Kp_error_interpolated"
     transform="matrix(1.3333333,0,0,-1.3333333,0,259.2)"><path
       d="M 0,0 H 396 V 194.4 H 0 Z"
       style="fill:#ffffff;fill-opacity:1;fill-rule:nonzero;stroke:none"
       id="path4881"
       inkscape:connector-curvature="0" /><g
       id="g4925"><text
         transform="matrix(1,0,0,-1,23.679375,34.235625)"
         style="font-variant:normal;font-weight:normal;font-size:9px;font-family:BitstreamVeraSans;-inkscape-font-specification:BitstreamVeraSans-Roman;writing-mode:lr-tb;fill:#000000;fill-opacity:1;fill-rule:nonzero;stroke:none"
         id="text5013"><tspan
           x="0 5.724 8.5860004"
           y="0"
           sodipodi:role="line"
           id="tspan5011">0.0</tspan></text>
<text
         transform="matrix(1,0,0,-1,23.679375,62.927625)"
         style="font-variant:normal;font-weight:normal;font-size:9px;font-family:BitstreamVeraSans;-inkscape-font-specification:BitstreamVeraSans-Roman;writing-mode:lr-tb;fill:#000000;fill-opacity:1;fill-rule:nonzero;stroke:none"
         id="text5021"><tspan
           x="0 5.724 8.5860004"
           y="0"
           sodipodi:role="line"
           id="tspan5019">0.1</tspan></text>
<text
         transform="matrix(1,0,0,-1,23.679375,91.619625)"
         style="font-variant:normal;font-weight:normal;font-size:9px;font-family:BitstreamVeraSans;-inkscape-font-specification:BitstreamVeraSans-Roman;writing-mode:lr-tb;fill:#000000;fill-opacity:1;fill-rule:nonzero;stroke:none"
         id="text5029"><tspan
           x="0 5.724 8.5860004"
           y="0"
           sodipodi:role="line"
           id="tspan5027">0.2</tspan></text>
<text
         transform="matrix(1,0,0,-1,23.679375,120.31163)"
         style="font-variant:normal;font-weight:normal;font-size:9px;font-family:BitstreamVeraSans;-inkscape-font-specification:BitstreamVeraSans-Roman;writing-mode:lr-tb;fill:#000000;fill-opacity:1;fill-rule:nonzero;stroke:none"
         id="text5037"><tspan
           x="0 5.724 8.5860004"
           y="0"
           sodipodi:role="line"
           id="tspan5035">0.3</tspan></text>
<text
         transform="matrix(1,0,0,-1,23.679375,149.00362)"
         style="font-variant:normal;font-weight:normal;font-size:9px;font-family:BitstreamVeraSans;-inkscape-font-specification:BitstreamVeraSans-Roman;writing-mode:lr-tb;fill:#000000;fill-opacity:1;fill-rule:nonzero;stroke:none"
         id="text5045"><tspan
           x="0 5.724 8.5860004"
           y="0"
           sodipodi:role="line"
           id="tspan5043">0.4</tspan></text>
<g
         id="g6003"
         transform="translate(192.23779)"><path
           inkscape:connector-curvature="0"
           id="path4883"
           style="fill:#ffffff;fill-opacity:1;fill-rule:nonzero;stroke:none"
           d="m 42.0075,36.72 h 114.021 V 180.18 H 42.0075 Z" /><g
           id="g4885"><g
             clip-path="url(#clipPath4891)"
             id="g4887"><path
               inkscape:connector-curvature="0"
               id="path4893"
               style="fill:none;stroke:#000000;stroke-width:0.5;stroke-linecap:butt;stroke-linejoin:round;stroke-miterlimit:10;stroke-dasharray:1, 3;stroke-dashoffset:0;stroke-opacity:1"
               d="M 107.16236,36.72 V 180.18" /></g></g><g
           id="g4895"><g
             clip-path="url(#clipPath4901)"
             id="g4897"><path
               inkscape:connector-curvature="0"
               id="path4903"
               style="fill:none;stroke:#ff0e00;stroke-width:1.5;stroke-linecap:square;stroke-linejoin:round;stroke-miterlimit:10;stroke-dasharray:none;stroke-opacity:1"
               d="m 42.0075,36.72 20.053945,0.0831 2.291879,0.215623 1.71891,0.35481 1.718909,0.575269 5.156729,2.065167 1.14594,0.117743 1.145939,-0.100769 1.71891,-0.482167 2.291879,-0.788318 1.14594,-0.192262 1.14594,0.101575 1.145939,0.50083 1.14594,0.984509 1.14594,1.520866 1.145939,2.066418 1.14594,2.571073 1.71891,4.608254 2.291879,6.993471 2.291879,7.567591 1.71891,6.252212 1.71891,7.114791 1.718909,8.174078 2.291875,12.264253 6.87564,37.934223 1.71891,8.53384 1.71891,7.42108 1.14594,4.09688 1.14594,3.34027 1.14594,2.60159 1.14594,1.92617 1.14594,1.31408 0.57297,0.43728 0.57297,0.28896 0.57297,0.13455 0.57297,-0.0293 0.57297,-0.20531 0.57297,-0.395 0.57297,-0.59864 0.57297,-0.81496 0.57297,-1.04098 1.14594,-2.77461 1.14594,-3.65766 1.14594,-4.3945 2.29188,-10.05151 4.58376,-21.21925 1.71891,-9.12388 1.7189,-10.3215 4.01079,-25.149077 1.71891,-9.024302 1.14594,-5.09146 1.14594,-4.394525 1.14594,-3.784137 1.14594,-3.257512 1.14594,-2.788887 1.14594,-2.351962 1.14594,-1.935559 1.14594,-1.547482 1.14594,-1.207617 1.14594,-0.935822 1.71891,-1.061817 1.14594,-0.577219 v 0" /></g></g><g
           id="g4905"><g
             clip-path="url(#clipPath4911)"
             id="g4907"><path
               inkscape:connector-curvature="0"
               id="path4913"
               style="fill:none;stroke:#ffa300;stroke-width:1.5;stroke-linecap:square;stroke-linejoin:round;stroke-miterlimit:10;stroke-dasharray:none;stroke-opacity:1"
               d="m 42.0075,36.923564 2.864849,0.321441 7.448608,1.071098 6.875638,0.405531 2.29188,0.516234 4.583759,1.202727 1.718909,0.18144 1.71891,-0.06946 2.291879,-0.407602 3.437819,-0.670497 1.71891,-0.06876 1.718909,0.211623 1.71891,0.513377 1.718909,0.826402 1.71891,1.161224 1.71891,1.526151 1.718909,1.919819 1.71891,2.347959 1.718909,2.843765 1.71891,3.460162 1.718909,4.224377 1.71891,5.085297 1.718909,5.906322 2.29188,8.805549 3.437815,14.205108 2.29188,10.250509 2.29188,11.50409 5.7297,30.48712 1.14594,4.49557 1.14594,3.38083 0.57297,1.23765 0.57297,0.93267 0.57297,0.63533 0.57297,0.35336 0.57297,0.0937 0.57297,-0.13761 0.57297,-0.33606 1.14594,-1.12293 1.71891,-2.27706 2.29188,-3.05279 3.43782,-4.29178 1.14594,-1.87398 1.14594,-2.36688 1.14594,-2.96511 1.14594,-3.60553 1.14594,-4.22545 1.7189,-7.32896 2.29188,-10.99094 6.30267,-30.913515 2.86485,-12.788638 1.71891,-6.89368 1.71891,-6.018662 1.14594,-3.43479 1.14594,-2.947171 1.14594,-2.471321 1.14594,-2.031758 0.57297,-0.866858 v 0" /></g></g><g
           id="g4915"><g
             clip-path="url(#clipPath4921)"
             id="g4917"><path
               inkscape:connector-curvature="0"
               id="path4923"
               style="fill:none;stroke:#0077ff;stroke-width:1.5;stroke-linecap:square;stroke-linejoin:round;stroke-miterlimit:10;stroke-dasharray:none;stroke-opacity:1"
               d="m 42.0075,39.500184 2.291879,-0.324853 5.729699,-1.149306 1.718909,-0.01355 1.14594,0.16193 1.14594,0.317193 1.14594,0.479089 1.718909,1.012723 1.71891,1.313937 2.864849,2.581982 4.583759,4.153485 4.010789,3.597354 1.718909,1.802825 1.71891,2.115928 1.718909,2.542069 1.71891,3.081029 1.718909,3.715262 1.71891,4.400634 1.718909,5.073064 2.29188,7.670769 2.864849,10.627995 10.313457,39.513427 2.29188,7.45995 1.718905,4.74684 1.14594,2.57707 1.14594,1.96886 0.57297,0.71858 0.57297,0.52274 0.57297,0.31489 0.57297,0.0973 0.57297,-0.12724 0.57297,-0.35547 0.57297,-0.58378 0.57297,-0.80839 1.14594,-2.2565 1.14594,-3.01681 1.14594,-3.62472 1.71891,-6.17584 4.58376,-16.88882 2.29188,-7.44801 6.87564,-21.492513 7.44861,-24.898753 1.7189,-4.869853 1.71891,-4.33869 1.71891,-3.810163 1.71891,-3.291647 1.71891,-2.771412 1.71891,-2.243254 1.14594,-1.203988 1.14594,-0.980784 1.14594,-0.774361 1.71891,-0.826682 1.71891,-0.509824 1.71891,-0.289179 2.29188,-0.180844 v 0" /></g></g><path
           inkscape:connector-curvature="0"
           id="path4927"
           style="fill:none;stroke:#000000;stroke-width:1;stroke-linecap:square;stroke-linejoin:miter;stroke-miterlimit:10;stroke-dasharray:none;stroke-opacity:1"
           d="m 42.0075,180.18 h 114.021" /><path
           inkscape:connector-curvature="0"
           id="path4929"
           style="fill:none;stroke:#000000;stroke-width:1;stroke-linecap:square;stroke-linejoin:miter;stroke-miterlimit:10;stroke-dasharray:none;stroke-opacity:1"
           d="M 156.0285,36.72 V 180.18" /><path
           inkscape:connector-curvature="0"
           id="path4931"
           style="fill:none;stroke:#000000;stroke-width:1;stroke-linecap:square;stroke-linejoin:miter;stroke-miterlimit:10;stroke-dasharray:none;stroke-opacity:1"
           d="m 42.0075,36.72 h 114.021" /><path
           inkscape:connector-curvature="0"
           id="path4933"
           style="fill:none;stroke:#000000;stroke-width:1;stroke-linecap:square;stroke-linejoin:miter;stroke-miterlimit:10;stroke-dasharray:none;stroke-opacity:1"
           d="M 42.0075,36.72 V 180.18" /><path
           inkscape:connector-curvature="0"
           id="path4935"
           style="fill:#000000;fill-opacity:1;fill-rule:nonzero;stroke:#000000;stroke-width:0.5;stroke-linecap:butt;stroke-linejoin:round;stroke-miterlimit:10;stroke-dasharray:none;stroke-opacity:1"
           d="m 58.296214,36.72 v 4" /><path
           inkscape:connector-curvature="0"
           id="path4937"
           style="fill:#000000;fill-opacity:1;fill-rule:nonzero;stroke:#000000;stroke-width:0.5;stroke-linecap:butt;stroke-linejoin:round;stroke-miterlimit:10;stroke-dasharray:none;stroke-opacity:1"
           d="m 58.296214,180.18 v -4" /><g
           transform="translate(47.358714,25.87625)"
           id="g4939"><text
             id="text4943"
             style="font-variant:normal;font-weight:normal;font-size:9px;font-family:BitstreamVeraSans;-inkscape-font-specification:BitstreamVeraSans-Roman;writing-mode:lr-tb;fill:#000000;fill-opacity:1;fill-rule:nonzero;stroke:none"
             transform="matrix(1,0,0,-1,7.5410156,0)"><tspan
               id="tspan4941"
               sodipodi:role="line"
               y="0"
               x="0 5.724 8.5860004">3.0</tspan></text>
<g
             transform="scale(0.009)"
             id="g4945"><g
               id="g4947"><g
                 clip-path="url(#clipPath4953)"
                 id="g4949"><path
                   inkscape:connector-curvature="0"
                   id="path4955"
                   style="fill:#000000;fill-opacity:1;fill-rule:nonzero;stroke:none"
                   d="M 106,355 H 732 V 272 H 106 v 83" /></g></g></g></g><path
           inkscape:connector-curvature="0"
           id="path4957"
           style="fill:#000000;fill-opacity:1;fill-rule:nonzero;stroke:#000000;stroke-width:0.5;stroke-linecap:butt;stroke-linejoin:round;stroke-miterlimit:10;stroke-dasharray:none;stroke-opacity:1"
           d="m 82.729286,36.72 v 4" /><path
           inkscape:connector-curvature="0"
           id="path4959"
           style="fill:#000000;fill-opacity:1;fill-rule:nonzero;stroke:#000000;stroke-width:0.5;stroke-linecap:butt;stroke-linejoin:round;stroke-miterlimit:10;stroke-dasharray:none;stroke-opacity:1"
           d="m 82.729286,180.18 v -4" /><g
           transform="translate(71.791786,25.87625)"
           id="g4961"><text
             id="text4965"
             style="font-variant:normal;font-weight:normal;font-size:9px;font-family:BitstreamVeraSans;-inkscape-font-specification:BitstreamVeraSans-Roman;writing-mode:lr-tb;fill:#000000;fill-opacity:1;fill-rule:nonzero;stroke:none"
             transform="matrix(1,0,0,-1,7.5410156,0)"><tspan
               id="tspan4963"
               sodipodi:role="line"
               y="0"
               x="0 5.724 8.5860004">1.5</tspan></text>
<g
             transform="scale(0.009)"
             id="g4967"><g
               id="g4969"><g
                 clip-path="url(#clipPath4975)"
                 id="g4971"><path
                   inkscape:connector-curvature="0"
                   id="path4977"
                   style="fill:#000000;fill-opacity:1;fill-rule:nonzero;stroke:none"
                   d="M 106,355 H 732 V 272 H 106 v 83" /></g></g></g></g><path
           inkscape:connector-curvature="0"
           id="path4979"
           style="fill:#000000;fill-opacity:1;fill-rule:nonzero;stroke:#000000;stroke-width:0.5;stroke-linecap:butt;stroke-linejoin:round;stroke-miterlimit:10;stroke-dasharray:none;stroke-opacity:1"
           d="m 107.16236,36.72 v 4" /><path
           inkscape:connector-curvature="0"
           id="path4981"
           style="fill:#000000;fill-opacity:1;fill-rule:nonzero;stroke:#000000;stroke-width:0.5;stroke-linecap:butt;stroke-linejoin:round;stroke-miterlimit:10;stroke-dasharray:none;stroke-opacity:1"
           d="m 107.16236,180.18 v -4" /><text
           id="text4985"
           style="font-variant:normal;font-weight:normal;font-size:9px;font-family:BitstreamVeraSans;-inkscape-font-specification:BitstreamVeraSans-Roman;writing-mode:lr-tb;fill:#000000;fill-opacity:1;fill-rule:nonzero;stroke:none"
           transform="matrix(1,0,0,-1,99.998295,25.87625)"><tspan
             id="tspan4983"
             sodipodi:role="line"
             y="0"
             x="0 5.724 8.5860004">0.0</tspan></text>
<path
           inkscape:connector-curvature="0"
           id="path4987"
           style="fill:#000000;fill-opacity:1;fill-rule:nonzero;stroke:#000000;stroke-width:0.5;stroke-linecap:butt;stroke-linejoin:round;stroke-miterlimit:10;stroke-dasharray:none;stroke-opacity:1"
           d="m 131.59543,36.72 v 4" /><path
           inkscape:connector-curvature="0"
           id="path4989"
           style="fill:#000000;fill-opacity:1;fill-rule:nonzero;stroke:#000000;stroke-width:0.5;stroke-linecap:butt;stroke-linejoin:round;stroke-miterlimit:10;stroke-dasharray:none;stroke-opacity:1"
           d="m 131.59543,180.18 v -4" /><text
           id="text4993"
           style="font-variant:normal;font-weight:normal;font-size:9px;font-family:BitstreamVeraSans;-inkscape-font-specification:BitstreamVeraSans-Roman;writing-mode:lr-tb;fill:#000000;fill-opacity:1;fill-rule:nonzero;stroke:none"
           transform="matrix(1,0,0,-1,124.43137,25.87625)"><tspan
             id="tspan4991"
             sodipodi:role="line"
             y="0"
             x="0 5.724 8.5860004">1.5</tspan></text>
<path
           inkscape:connector-curvature="0"
           id="path4995"
           style="fill:#000000;fill-opacity:1;fill-rule:nonzero;stroke:#000000;stroke-width:0.5;stroke-linecap:butt;stroke-linejoin:round;stroke-miterlimit:10;stroke-dasharray:none;stroke-opacity:1"
           d="m 156.0285,36.72 v 4" /><path
           inkscape:connector-curvature="0"
           id="path4997"
           style="fill:#000000;fill-opacity:1;fill-rule:nonzero;stroke:#000000;stroke-width:0.5;stroke-linecap:butt;stroke-linejoin:round;stroke-miterlimit:10;stroke-dasharray:none;stroke-opacity:1"
           d="m 156.0285,180.18 v -4" /><text
           id="text5001"
           style="font-variant:normal;font-weight:normal;font-size:9px;font-family:BitstreamVeraSans;-inkscape-font-specification:BitstreamVeraSans-Roman;writing-mode:lr-tb;fill:#000000;fill-opacity:1;fill-rule:nonzero;stroke:none"
           transform="matrix(1,0,0,-1,148.86444,25.87625)"><tspan
             id="tspan4999"
             sodipodi:role="line"
             y="0"
             x="0 5.724 8.5860004">3.0</tspan></text>
<text
           id="text5005"
           style="font-variant:normal;font-weight:normal;font-size:9px;font-family:BitstreamVeraSans;-inkscape-font-specification:BitstreamVeraSans-Roman;writing-mode:lr-tb;fill:#000000;fill-opacity:1;fill-rule:nonzero;stroke:none"
           transform="matrix(1,0,0,-1,80.7055,12.1575)"><tspan
             id="tspan5003"
             sodipodi:role="line"
             y="0"
             x="0 5.9039998 11.619 14.481 20.016001 23.715 27.414 32.922001">Kp error</tspan></text>
<path
           inkscape:connector-curvature="0"
           id="path5007"
           style="fill:#000000;fill-opacity:1;fill-rule:nonzero;stroke:#000000;stroke-width:0.5;stroke-linecap:butt;stroke-linejoin:round;stroke-miterlimit:10;stroke-dasharray:none;stroke-opacity:1"
           d="m 42.0075,36.72 h 4" /><path
           inkscape:connector-curvature="0"
           id="path5009"
           style="fill:#000000;fill-opacity:1;fill-rule:nonzero;stroke:#000000;stroke-width:0.5;stroke-linecap:butt;stroke-linejoin:round;stroke-miterlimit:10;stroke-dasharray:none;stroke-opacity:1"
           d="m 156.0285,36.72 h -4" /><path
           inkscape:connector-curvature="0"
           id="path5015"
           style="fill:#000000;fill-opacity:1;fill-rule:nonzero;stroke:#000000;stroke-width:0.5;stroke-linecap:butt;stroke-linejoin:round;stroke-miterlimit:10;stroke-dasharray:none;stroke-opacity:1"
           d="m 42.0075,65.412 h 4" /><path
           inkscape:connector-curvature="0"
           id="path5017"
           style="fill:#000000;fill-opacity:1;fill-rule:nonzero;stroke:#000000;stroke-width:0.5;stroke-linecap:butt;stroke-linejoin:round;stroke-miterlimit:10;stroke-dasharray:none;stroke-opacity:1"
           d="m 156.0285,65.412 h -4" /><path
           inkscape:connector-curvature="0"
           id="path5023"
           style="fill:#000000;fill-opacity:1;fill-rule:nonzero;stroke:#000000;stroke-width:0.5;stroke-linecap:butt;stroke-linejoin:round;stroke-miterlimit:10;stroke-dasharray:none;stroke-opacity:1"
           d="m 42.0075,94.104 h 4" /><path
           inkscape:connector-curvature="0"
           id="path5025"
           style="fill:#000000;fill-opacity:1;fill-rule:nonzero;stroke:#000000;stroke-width:0.5;stroke-linecap:butt;stroke-linejoin:round;stroke-miterlimit:10;stroke-dasharray:none;stroke-opacity:1"
           d="m 156.0285,94.104 h -4" /><path
           inkscape:connector-curvature="0"
           id="path5031"
           style="fill:#000000;fill-opacity:1;fill-rule:nonzero;stroke:#000000;stroke-width:0.5;stroke-linecap:butt;stroke-linejoin:round;stroke-miterlimit:10;stroke-dasharray:none;stroke-opacity:1"
           d="m 42.0075,122.796 h 4" /><path
           inkscape:connector-curvature="0"
           id="path5033"
           style="fill:#000000;fill-opacity:1;fill-rule:nonzero;stroke:#000000;stroke-width:0.5;stroke-linecap:butt;stroke-linejoin:round;stroke-miterlimit:10;stroke-dasharray:none;stroke-opacity:1"
           d="m 156.0285,122.796 h -4" /><path
           inkscape:connector-curvature="0"
           id="path5039"
           style="fill:#000000;fill-opacity:1;fill-rule:nonzero;stroke:#000000;stroke-width:0.5;stroke-linecap:butt;stroke-linejoin:round;stroke-miterlimit:10;stroke-dasharray:none;stroke-opacity:1"
           d="m 42.0075,151.488 h 4" /><path
           inkscape:connector-curvature="0"
           id="path5041"
           style="fill:#000000;fill-opacity:1;fill-rule:nonzero;stroke:#000000;stroke-width:0.5;stroke-linecap:butt;stroke-linejoin:round;stroke-miterlimit:10;stroke-dasharray:none;stroke-opacity:1"
           d="m 156.0285,151.488 h -4" /><path
           inkscape:connector-curvature="0"
           id="path5047"
           style="fill:#000000;fill-opacity:1;fill-rule:nonzero;stroke:#000000;stroke-width:0.5;stroke-linecap:butt;stroke-linejoin:round;stroke-miterlimit:10;stroke-dasharray:none;stroke-opacity:1"
           d="m 42.0075,180.18 h 4" /><path
           inkscape:connector-curvature="0"
           id="path5049"
           style="fill:#000000;fill-opacity:1;fill-rule:nonzero;stroke:#000000;stroke-width:0.5;stroke-linecap:butt;stroke-linejoin:round;stroke-miterlimit:10;stroke-dasharray:none;stroke-opacity:1"
           d="m 156.0285,180.18 h -4" /></g><text
         transform="matrix(1,0,0,-1,23.679375,177.69562)"
         style="font-variant:normal;font-weight:normal;font-size:9px;font-family:BitstreamVeraSans;-inkscape-font-specification:BitstreamVeraSans-Roman;writing-mode:lr-tb;fill:#000000;fill-opacity:1;fill-rule:nonzero;stroke:none"
         id="text5053"><tspan
           x="0 5.724 8.5860004"
           y="0"
           sodipodi:role="line"
           id="tspan5051">0.5</tspan></text>
<text
         transform="matrix(0,1,1,0,16.804375,66.551563)"
         style="font-variant:normal;font-weight:normal;font-size:9px;font-family:BitstreamVeraSans;-inkscape-font-specification:BitstreamVeraSans-Roman;writing-mode:lr-tb;fill:#000000;fill-opacity:1;fill-rule:nonzero;stroke:none"
         id="text5057"><tspan
           x="0 5.427 9.1260004 14.634 20.349001 25.865999 31.580999 34.083 36.584999 39.087002 42.615002 47.943001 50.805 56.52 62.055 67.761002 72.449997 74.952003 78.480003"
           y="0"
           sodipodi:role="line"
           id="tspan5055">Probability density</tspan></text>
<path
         d="m 42.89561,36.72 h 171.0315 V 180.18 H 42.89561 Z"
         style="fill:#ffffff;fill-opacity:1;fill-rule:nonzero;stroke:none"
         id="path5063"
         inkscape:connector-curvature="0" /></g><g
       id="g5927"
       transform="translate(-132.75289)"><g
         id="g5065"><g
           clip-path="url(#clipPath5071)"
           id="g5067"><path
             inkscape:connector-curvature="0"
             id="path5073"
             style="fill:none;stroke:#b0c4de;stroke-width:5;stroke-linecap:square;stroke-linejoin:round;stroke-miterlimit:10;stroke-dasharray:none;stroke-opacity:1"
             d="m 175.6485,58.645198 3.43782,5.41048 2.57836,3.642686 1.71891,2.097503 1.71891,1.771211 1.71891,1.41419 1.71891,1.049657 1.71891,0.702333 1.71891,0.3964 1.71891,0.153338 2.57836,-0.04871 3.43782,-0.108768 1.71891,0.122466 1.71891,0.334533 1.71891,0.594227 1.71891,0.880647 1.71891,1.173767 1.71891,1.456539 1.71891,1.716174 2.57836,2.990995 2.57837,3.380503 4.29727,6.12943 4.29728,6.092498 2.57836,3.241023 1.71891,1.84221 1.71891,1.50836 1.71891,1.11678 1.71891,0.68181 0.85945,0.16896 0.85946,0.0519 0.85945,-0.0655 0.85946,-0.1822 1.71891,-0.707 1.71891,-1.14341 1.71891,-1.54734 1.71891,-1.91325 1.71891,-2.23859 2.57836,-3.876474 2.57836,-4.368097 3.43782,-6.307013 6.01619,-11.092888 2.57836,-4.27098 2.57837,-3.764509 1.71891,-2.192452 1.7189,-1.934675 1.71891,-1.688496 1.71891,-1.464764 2.57837,-1.845152 2.57836,-1.528716 3.43782,-1.747466 15.47019,-7.257098 4.29727,-1.750452 3.43782,-1.16998 3.43782,-0.962244 4.29727,-0.970069 9.45401,-1.783487 16.32964,-3.081575 4.29727,-0.488313 3.43782,-0.248988 v 0" /></g></g><g
         id="g5075"><g
           clip-path="url(#clipPath5081)"
           id="g5077"><path
             inkscape:connector-curvature="0"
             id="path5083"
             style="fill:none;stroke:#ff0e00;stroke-width:1.5;stroke-linecap:square;stroke-linejoin:round;stroke-miterlimit:10;stroke-dasharray:none;stroke-opacity:1"
             d="m 175.6485,38.645733 2.57836,1.086521 1.71891,0.929004 2.57837,1.712641 2.57836,2.075291 2.57837,2.377439 3.43782,3.489739 5.15672,5.575115 4.29728,4.948186 2.57836,3.263943 2.57837,3.627693 2.57836,4.08789 2.57837,4.59488 2.57836,5.084409 3.43782,7.385538 7.73509,17.004788 2.57837,4.86006 1.71891,2.76762 1.71891,2.30581 1.7189,1.79103 1.71892,1.24378 0.85945,0.41227 0.85945,0.27262 0.85946,0.13434 0.85945,-0.002 0.85946,-0.13486 0.85945,-0.26461 1.71891,-0.90322 1.71891,-1.37493 1.71891,-1.81312 1.71891,-2.21594 1.71891,-2.57883 2.57836,-4.44013 3.43782,-6.641314 5.15673,-10.153637 2.57837,-4.571351 2.57836,-4.004795 1.71891,-2.337759 2.57837,-3.056928 2.57836,-2.631491 3.43782,-3.092723 4.29727,-3.534839 5.15673,-3.94751 4.29727,-3.000286 4.29728,-2.728664 5.15673,-3.010146 6.01618,-3.272689 5.15673,-2.576047 4.29727,-1.876085 3.43782,-1.251434 3.43782,-1.005845 3.43782,-0.789284 6.01618,-1.092274 8.59455,-1.590087 8.59455,-1.640231 v 0" /></g></g><g
         id="g5085"><g
           clip-path="url(#clipPath5091)"
           id="g5087"><path
             inkscape:connector-curvature="0"
             id="path5093"
             style="fill:none;stroke:#ffa300;stroke-width:1.5;stroke-linecap:square;stroke-linejoin:round;stroke-miterlimit:10;stroke-dasharray:none;stroke-opacity:1"
             d="m 175.6485,37.776581 2.57836,0.640588 2.57837,0.897062 2.57836,1.192685 2.57837,1.51403 2.57836,1.847789 2.57837,2.184564 2.57836,2.519228 2.57836,2.846705 2.57837,3.155366 3.43782,4.612641 5.15673,7.416608 9.454,13.880863 2.57836,4.19684 2.57837,4.679958 2.57836,5.257662 2.57837,5.79128 6.87564,16.04788 1.7189,3.47984 1.71891,2.9812 1.71891,2.34364 0.85946,0.89297 0.85945,0.6883 0.85946,0.47155 0.85945,0.24463 0.85946,0.01 0.85945,-0.23077 0.85946,-0.47413 0.85945,-0.71754 0.85946,-0.95797 0.85945,-1.19233 1.71891,-3.04793 1.71891,-3.83633 1.71891,-4.47292 2.57836,-7.49512 5.15673,-15.336854 1.71891,-4.563868 1.71891,-4.082016 1.71891,-3.540176 1.71891,-2.982317 1.71891,-2.447531 1.71891,-1.966952 1.71891,-1.561857 1.71891,-1.243041 1.71891,-1.011407 2.57836,-1.253838 12.89182,-5.793613 7.7351,-3.785501 5.15673,-2.766454 13.75127,-7.670114 2.57837,-1.100337 2.57836,-0.902031 3.43782,-0.914438 4.29727,-0.830393 8.59455,-1.570484 6.87564,-1.432622 v 0" /></g></g><g
         id="g5095"><g
           clip-path="url(#clipPath5101)"
           id="g5097"><path
             inkscape:connector-curvature="0"
             id="path5103"
             style="fill:none;stroke:#0077ff;stroke-width:1.5;stroke-linecap:square;stroke-linejoin:round;stroke-miterlimit:10;stroke-dasharray:none;stroke-opacity:1"
             d="m 175.6485,41.53447 1.71891,1.516208 1.71891,1.872277 1.71891,2.24525 1.71891,2.599199 2.57836,4.411553 5.15673,9.101232 1.71891,2.631816 1.71891,2.327284 3.43782,4.088115 1.71891,2.148327 1.71891,2.556162 1.71891,3.202966 1.71891,4.011896 1.71891,4.865026 1.71891,5.627364 2.57836,9.378185 3.43782,12.62144 1.71891,5.69126 1.71891,5.00664 1.71891,4.23269 1.71891,3.44376 1.71891,2.67856 0.85945,1.0604 0.85946,0.87562 0.85945,0.68853 0.85946,0.49623 0.85945,0.29599 0.85946,0.0856 0.85945,-0.13635 0.85946,-0.37033 0.85945,-0.61561 0.85946,-0.87028 0.85945,-1.13128 0.85945,-1.39451 0.85946,-1.6551 1.71891,-4.05363 1.71891,-4.92427 2.57836,-8.52696 4.29728,-14.84353 1.71891,-5.353768 1.71891,-4.735057 1.71891,-4.048656 1.7189,-3.39035 1.71891,-2.843036 2.57837,-3.614392 4.29727,-5.803918 2.57837,-4.007117 2.57836,-4.456905 5.15673,-9.170756 2.57836,-4.061658 1.71891,-2.349683 1.71891,-2.021087 1.71891,-1.679443 1.71891,-1.342171 1.71891,-1.023828 1.71891,-0.736152 1.71891,-0.488052 1.71891,-0.28556 2.57836,-0.155644 5.15673,0.08793 3.43782,-0.04628 3.43782,-0.303375 3.43782,-0.554009 5.15673,-1.110756 6.01618,-1.25486 3.43782,-0.463226 3.43782,-0.183532 3.43782,0.07313 9.454,0.403736 3.43782,-0.149994 8.59455,-0.691258 v 0" /></g></g><g
         id="g5105"><path
           inkscape:connector-curvature="0"
           id="path5107"
           style="fill:none;stroke:#000000;stroke-width:1;stroke-linecap:square;stroke-linejoin:miter;stroke-miterlimit:10;stroke-dasharray:none;stroke-opacity:1"
           d="M 175.6485,180.18 H 346.68" /><path
           inkscape:connector-curvature="0"
           id="path5109"
           style="fill:none;stroke:#000000;stroke-width:1;stroke-linecap:square;stroke-linejoin:miter;stroke-miterlimit:10;stroke-dasharray:none;stroke-opacity:1"
           d="M 346.68,36.72 V 180.18" /><path
           inkscape:connector-curvature="0"
           id="path5111"
           style="fill:none;stroke:#000000;stroke-width:1;stroke-linecap:square;stroke-linejoin:miter;stroke-miterlimit:10;stroke-dasharray:none;stroke-opacity:1"
           d="M 175.6485,36.72 H 346.68" /><path
           inkscape:connector-curvature="0"
           id="path5113"
           style="fill:none;stroke:#000000;stroke-width:1;stroke-linecap:square;stroke-linejoin:miter;stroke-miterlimit:10;stroke-dasharray:none;stroke-opacity:1"
           d="M 175.6485,36.72 V 180.18" /><path
           inkscape:connector-curvature="0"
           id="path5115"
           style="fill:#000000;fill-opacity:1;fill-rule:nonzero;stroke:#000000;stroke-width:0.5;stroke-linecap:butt;stroke-linejoin:round;stroke-miterlimit:10;stroke-dasharray:none;stroke-opacity:1"
           d="m 175.6485,36.72 v 4" /><path
           inkscape:connector-curvature="0"
           id="path5117"
           style="fill:#000000;fill-opacity:1;fill-rule:nonzero;stroke:#000000;stroke-width:0.5;stroke-linecap:butt;stroke-linejoin:round;stroke-miterlimit:10;stroke-dasharray:none;stroke-opacity:1"
           d="m 175.6485,180.18 v -4" /><text
           id="text5121"
           style="font-variant:normal;font-weight:normal;font-size:9px;font-family:BitstreamVeraSans;-inkscape-font-specification:BitstreamVeraSans-Roman;writing-mode:lr-tb;fill:#000000;fill-opacity:1;fill-rule:nonzero;stroke:none"
           transform="matrix(1,0,0,-1,172.78131,25.87625)"><tspan
             id="tspan5119"
             y="0"
             x="0">0</tspan></text>
<path
           inkscape:connector-curvature="0"
           id="path5123"
           style="fill:#000000;fill-opacity:1;fill-rule:nonzero;stroke:#000000;stroke-width:0.5;stroke-linecap:butt;stroke-linejoin:round;stroke-miterlimit:10;stroke-dasharray:none;stroke-opacity:1"
           d="m 213.6555,36.72 v 4" /><path
           inkscape:connector-curvature="0"
           id="path5125"
           style="fill:#000000;fill-opacity:1;fill-rule:nonzero;stroke:#000000;stroke-width:0.5;stroke-linecap:butt;stroke-linejoin:round;stroke-miterlimit:10;stroke-dasharray:none;stroke-opacity:1"
           d="m 213.6555,180.18 v -4" /><text
           id="text5129"
           style="font-variant:normal;font-weight:normal;font-size:9px;font-family:BitstreamVeraSans;-inkscape-font-specification:BitstreamVeraSans-Roman;writing-mode:lr-tb;fill:#000000;fill-opacity:1;fill-rule:nonzero;stroke:none"
           transform="matrix(1,0,0,-1,210.78831,25.87625)"><tspan
             id="tspan5127"
             y="0"
             x="0">2</tspan></text>
<path
           inkscape:connector-curvature="0"
           id="path5131"
           style="fill:#000000;fill-opacity:1;fill-rule:nonzero;stroke:#000000;stroke-width:0.5;stroke-linecap:butt;stroke-linejoin:round;stroke-miterlimit:10;stroke-dasharray:none;stroke-opacity:1"
           d="m 251.6625,36.72 v 4" /><path
           inkscape:connector-curvature="0"
           id="path5133"
           style="fill:#000000;fill-opacity:1;fill-rule:nonzero;stroke:#000000;stroke-width:0.5;stroke-linecap:butt;stroke-linejoin:round;stroke-miterlimit:10;stroke-dasharray:none;stroke-opacity:1"
           d="m 251.6625,180.18 v -4" /><text
           id="text5137"
           style="font-variant:normal;font-weight:normal;font-size:9px;font-family:BitstreamVeraSans;-inkscape-font-specification:BitstreamVeraSans-Roman;writing-mode:lr-tb;fill:#000000;fill-opacity:1;fill-rule:nonzero;stroke:none"
           transform="matrix(1,0,0,-1,248.79531,25.87625)"><tspan
             id="tspan5135"
             y="0"
             x="0">4</tspan></text>
<path
           inkscape:connector-curvature="0"
           id="path5139"
           style="fill:#000000;fill-opacity:1;fill-rule:nonzero;stroke:#000000;stroke-width:0.5;stroke-linecap:butt;stroke-linejoin:round;stroke-miterlimit:10;stroke-dasharray:none;stroke-opacity:1"
           d="m 289.6695,36.72 v 4" /><path
           inkscape:connector-curvature="0"
           id="path5141"
           style="fill:#000000;fill-opacity:1;fill-rule:nonzero;stroke:#000000;stroke-width:0.5;stroke-linecap:butt;stroke-linejoin:round;stroke-miterlimit:10;stroke-dasharray:none;stroke-opacity:1"
           d="m 289.6695,180.18 v -4" /><text
           id="text5145"
           style="font-variant:normal;font-weight:normal;font-size:9px;font-family:BitstreamVeraSans;-inkscape-font-specification:BitstreamVeraSans-Roman;writing-mode:lr-tb;fill:#000000;fill-opacity:1;fill-rule:nonzero;stroke:none"
           transform="matrix(1,0,0,-1,286.80231,25.87625)"><tspan
             id="tspan5143"
             y="0"
             x="0">6</tspan></text>
<path
           inkscape:connector-curvature="0"
           id="path5147"
           style="fill:#000000;fill-opacity:1;fill-rule:nonzero;stroke:#000000;stroke-width:0.5;stroke-linecap:butt;stroke-linejoin:round;stroke-miterlimit:10;stroke-dasharray:none;stroke-opacity:1"
           d="m 327.6765,36.72 v 4" /><path
           inkscape:connector-curvature="0"
           id="path5149"
           style="fill:#000000;fill-opacity:1;fill-rule:nonzero;stroke:#000000;stroke-width:0.5;stroke-linecap:butt;stroke-linejoin:round;stroke-miterlimit:10;stroke-dasharray:none;stroke-opacity:1"
           d="m 327.6765,180.18 v -4" /><text
           id="text5153"
           style="font-variant:normal;font-weight:normal;font-size:9px;font-family:BitstreamVeraSans;-inkscape-font-specification:BitstreamVeraSans-Roman;writing-mode:lr-tb;fill:#000000;fill-opacity:1;fill-rule:nonzero;stroke:none"
           transform="matrix(1,0,0,-1,324.80931,25.87625)"><tspan
             id="tspan5151"
             y="0"
             x="0">8</tspan></text>
<text
           id="text5157"
           style="font-variant:normal;font-weight:normal;font-size:9px;font-family:BitstreamVeraSans;-inkscape-font-specification:BitstreamVeraSans-Roman;writing-mode:lr-tb;fill:#000000;fill-opacity:1;fill-rule:nonzero;stroke:none"
           transform="matrix(1,0,0,-1,253.92206,12.1575)"><tspan
             id="tspan5155"
             sodipodi:role="line"
             y="0"
             x="0 5.9039998 11.619">Kp </tspan></text>
<path
           inkscape:connector-curvature="0"
           id="path5159"
           style="fill:#000000;fill-opacity:1;fill-rule:nonzero;stroke:#000000;stroke-width:0.5;stroke-linecap:butt;stroke-linejoin:round;stroke-miterlimit:10;stroke-dasharray:none;stroke-opacity:1"
           d="m 175.6485,36.72 h 4" /><path
           inkscape:connector-curvature="0"
           id="path5161"
           style="fill:#000000;fill-opacity:1;fill-rule:nonzero;stroke:#000000;stroke-width:0.5;stroke-linecap:butt;stroke-linejoin:round;stroke-miterlimit:10;stroke-dasharray:none;stroke-opacity:1"
           d="m 346.68,36.72 h -4" /><path
           inkscape:connector-curvature="0"
           id="path5163"
           style="fill:#000000;fill-opacity:1;fill-rule:nonzero;stroke:#000000;stroke-width:0.5;stroke-linecap:butt;stroke-linejoin:round;stroke-miterlimit:10;stroke-dasharray:none;stroke-opacity:1"
           d="m 175.6485,65.412 h 4" /><path
           inkscape:connector-curvature="0"
           id="path5165"
           style="fill:#000000;fill-opacity:1;fill-rule:nonzero;stroke:#000000;stroke-width:0.5;stroke-linecap:butt;stroke-linejoin:round;stroke-miterlimit:10;stroke-dasharray:none;stroke-opacity:1"
           d="m 346.68,65.412 h -4" /><path
           inkscape:connector-curvature="0"
           id="path5167"
           style="fill:#000000;fill-opacity:1;fill-rule:nonzero;stroke:#000000;stroke-width:0.5;stroke-linecap:butt;stroke-linejoin:round;stroke-miterlimit:10;stroke-dasharray:none;stroke-opacity:1"
           d="m 175.6485,94.104 h 4" /><path
           inkscape:connector-curvature="0"
           id="path5169"
           style="fill:#000000;fill-opacity:1;fill-rule:nonzero;stroke:#000000;stroke-width:0.5;stroke-linecap:butt;stroke-linejoin:round;stroke-miterlimit:10;stroke-dasharray:none;stroke-opacity:1"
           d="m 346.68,94.104 h -4" /><path
           inkscape:connector-curvature="0"
           id="path5171"
           style="fill:#000000;fill-opacity:1;fill-rule:nonzero;stroke:#000000;stroke-width:0.5;stroke-linecap:butt;stroke-linejoin:round;stroke-miterlimit:10;stroke-dasharray:none;stroke-opacity:1"
           d="m 175.6485,122.796 h 4" /><path
           inkscape:connector-curvature="0"
           id="path5173"
           style="fill:#000000;fill-opacity:1;fill-rule:nonzero;stroke:#000000;stroke-width:0.5;stroke-linecap:butt;stroke-linejoin:round;stroke-miterlimit:10;stroke-dasharray:none;stroke-opacity:1"
           d="m 346.68,122.796 h -4" /><path
           inkscape:connector-curvature="0"
           id="path5175"
           style="fill:#000000;fill-opacity:1;fill-rule:nonzero;stroke:#000000;stroke-width:0.5;stroke-linecap:butt;stroke-linejoin:round;stroke-miterlimit:10;stroke-dasharray:none;stroke-opacity:1"
           d="m 175.6485,151.488 h 4" /><path
           inkscape:connector-curvature="0"
           id="path5177"
           style="fill:#000000;fill-opacity:1;fill-rule:nonzero;stroke:#000000;stroke-width:0.5;stroke-linecap:butt;stroke-linejoin:round;stroke-miterlimit:10;stroke-dasharray:none;stroke-opacity:1"
           d="m 346.68,151.488 h -4" /><path
           inkscape:connector-curvature="0"
           id="path5179"
           style="fill:#000000;fill-opacity:1;fill-rule:nonzero;stroke:#000000;stroke-width:0.5;stroke-linecap:butt;stroke-linejoin:round;stroke-miterlimit:10;stroke-dasharray:none;stroke-opacity:1"
           d="m 175.6485,180.18 h 4" /><path
           inkscape:connector-curvature="0"
           id="path5181"
           style="fill:#000000;fill-opacity:1;fill-rule:nonzero;stroke:#000000;stroke-width:0.5;stroke-linecap:butt;stroke-linejoin:round;stroke-miterlimit:10;stroke-dasharray:none;stroke-opacity:1"
           d="m 346.68,180.18 h -4" /></g></g><g
       id="g5820"
       transform="translate(-198.76663,7.2542563)"><path
         inkscape:connector-curvature="0"
         id="path5187"
         style="fill:#ffffff;fill-opacity:1;fill-rule:nonzero;stroke:#000000;stroke-width:0.99999994;stroke-linecap:butt;stroke-linejoin:miter;stroke-miterlimit:10;stroke-dasharray:none;stroke-opacity:1"
         d="m 360.94446,102.06368 h 100.74375 v 55.575 H 360.94446 Z" /><path
         inkscape:connector-curvature="0"
         id="path5189"
         style="fill:none;stroke:#b0c4de;stroke-width:5;stroke-linecap:square;stroke-linejoin:round;stroke-miterlimit:10;stroke-dasharray:none;stroke-opacity:1"
         d="m 367.24446,150.34494 h 12.6" /><text
         transform="scale(1,-1)"
         id="text5193"
         style="font-variant:normal;font-weight:normal;font-size:9px;font-family:BitstreamVeraSans;-inkscape-font-specification:BitstreamVeraSans-Roman;writing-mode:lr-tb;fill:#000000;fill-opacity:1;fill-rule:nonzero;stroke:none;stroke-width:0.99999994"
         x="389.74445"
         y="-147.19493"><tspan
           y="-147.19493"
           x="389.74445"
           id="tspan5191"
           sodipodi:role="line"
           style="stroke-width:0.99999994">Observations</tspan></text>
<path
         inkscape:connector-curvature="0"
         id="path5195"
         style="fill:none;stroke:#ff0e00;stroke-width:1.5;stroke-linecap:square;stroke-linejoin:round;stroke-miterlimit:10;stroke-dasharray:none;stroke-opacity:1"
         d="m 367.24446,137.12618 h 12.6" /><text
         transform="scale(1,-1)"
         id="text5199"
         style="font-variant:normal;font-weight:normal;font-size:9px;font-family:BitstreamVeraSans;-inkscape-font-specification:BitstreamVeraSans-Roman;writing-mode:lr-tb;fill:#000000;fill-opacity:1;fill-rule:nonzero;stroke:none;stroke-width:0.99999994"
         x="389.74445"
         y="-133.97618"><tspan
           id="tspan5197"
           sodipodi:role="line"
           y="-133.97618"
           x="389.74445 395.45944 404.36044 409.78745"
           style="stroke-width:0.99999994">SWPC</tspan></text>
<path
         inkscape:connector-curvature="0"
         id="path5201"
         style="fill:none;stroke:#ffa300;stroke-width:1.5;stroke-linecap:square;stroke-linejoin:round;stroke-miterlimit:10;stroke-dasharray:none;stroke-opacity:1"
         d="m 367.24446,123.90743 h 12.6" /><text
         transform="scale(1,-1)"
         id="text5205"
         style="font-variant:normal;font-weight:normal;font-size:9px;font-family:BitstreamVeraSans;-inkscape-font-specification:BitstreamVeraSans-Roman;writing-mode:lr-tb;fill:#000000;fill-opacity:1;fill-rule:nonzero;stroke:none;stroke-width:0.99999994"
         x="389.74445"
         y="-120.75743"><tspan
           id="tspan5203"
           sodipodi:role="line"
           y="-120.75743"
           x="389.74445 396.51245 399.01447 402.26346 405.96246 411.49747 416.18646 419.04846 426.41046 429.44345 432.30545 438.56046 444.84247"
           style="stroke-width:0.99999994">Hi-res w/ RCM</tspan></text>
<path
         inkscape:connector-curvature="0"
         id="path5207"
         style="fill:none;stroke:#0077ff;stroke-width:1.5;stroke-linecap:square;stroke-linejoin:round;stroke-miterlimit:10;stroke-dasharray:none;stroke-opacity:1"
         d="m 367.24446,110.68868 h 12.6" /><text
         transform="scale(1,-1)"
         id="text5211"
         style="font-variant:normal;font-weight:normal;font-size:9px;font-family:BitstreamVeraSans;-inkscape-font-specification:BitstreamVeraSans-Roman;writing-mode:lr-tb;fill:#000000;fill-opacity:1;fill-rule:nonzero;stroke:none;stroke-width:0.99999994"
         x="389.74445"
         y="-107.53868"><tspan
           id="tspan5209"
           sodipodi:role="line"
           y="-107.53868"
           x="389.74445 396.51245 399.01447 402.26346 405.96246 411.49747 416.18646 419.04846 426.41046 429.44345 434.95145 437.81345 444.06845 450.35046"
           style="stroke-width:0.99999994">Hi-res w/o RCM</tspan></text>
</g></g></svg>