<?xml version="1.0" encoding="utf-8" standalone="no"?>
<!DOCTYPE svg PUBLIC "-//W3C//DTD SVG 1.1//EN"
  "http://www.w3.org/Graphics/SVG/1.1/DTD/svg11.dtd">
<!-- Created with matplotlib (http://matplotlib.org/) -->
<svg height="252pt" version="1.1" viewBox="0 0 324 252" width="324pt" xmlns="http://www.w3.org/2000/svg" xmlns:xlink="http://www.w3.org/1999/xlink">
 <defs>
  <style type="text/css">
*{stroke-linecap:butt;stroke-linejoin:round;}
  </style>
 </defs>
 <g id="figure_1">
  <g id="patch_1">
   <path d="M 0 252 
L 324 252 
L 324 0 
L 0 0 
z
" style="fill:#ffffff;"/>
  </g>
  <g id="axes_1">
   <g id="patch_2">
    <path d="M 32.4 42 
L 307.8 42 
L 307.8 5.04 
L 32.4 5.04 
z
" style="fill:#ffffff;"/>
   </g>
   <g id="matplotlib.axis_1">
    <g id="xtick_1">
     <g id="line2d_1">
      <defs>
       <path d="M 0 1.75 
L 0 -1.75 
" id="m6a2946744b" style="stroke:#000000;stroke-width:0.8;"/>
      </defs>
      <g>
       <use style="stroke:#000000;stroke-width:0.8;" x="32.4" xlink:href="#m6a2946744b" y="42"/>
      </g>
     </g>
     <g id="line2d_2">
      <g>
       <use style="stroke:#000000;stroke-width:0.8;" x="32.4" xlink:href="#m6a2946744b" y="5.04"/>
      </g>
     </g>
    </g>
    <g id="xtick_2">
     <g id="line2d_3">
      <g>
       <use style="stroke:#000000;stroke-width:0.8;" x="66.825" xlink:href="#m6a2946744b" y="42"/>
      </g>
     </g>
     <g id="line2d_4">
      <g>
       <use style="stroke:#000000;stroke-width:0.8;" x="66.825" xlink:href="#m6a2946744b" y="5.04"/>
      </g>
     </g>
    </g>
    <g id="xtick_3">
     <g id="line2d_5">
      <g>
       <use style="stroke:#000000;stroke-width:0.8;" x="101.25" xlink:href="#m6a2946744b" y="42"/>
      </g>
     </g>
     <g id="line2d_6">
      <g>
       <use style="stroke:#000000;stroke-width:0.8;" x="101.25" xlink:href="#m6a2946744b" y="5.04"/>
      </g>
     </g>
    </g>
    <g id="xtick_4">
     <g id="line2d_7">
      <g>
       <use style="stroke:#000000;stroke-width:0.8;" x="135.675" xlink:href="#m6a2946744b" y="42"/>
      </g>
     </g>
     <g id="line2d_8">
      <g>
       <use style="stroke:#000000;stroke-width:0.8;" x="135.675" xlink:href="#m6a2946744b" y="5.04"/>
      </g>
     </g>
    </g>
    <g id="xtick_5">
     <g id="line2d_9">
      <g>
       <use style="stroke:#000000;stroke-width:0.8;" x="170.1" xlink:href="#m6a2946744b" y="42"/>
      </g>
     </g>
     <g id="line2d_10">
      <g>
       <use style="stroke:#000000;stroke-width:0.8;" x="170.1" xlink:href="#m6a2946744b" y="5.04"/>
      </g>
     </g>
    </g>
    <g id="xtick_6">
     <g id="line2d_11">
      <g>
       <use style="stroke:#000000;stroke-width:0.8;" x="204.525" xlink:href="#m6a2946744b" y="42"/>
      </g>
     </g>
     <g id="line2d_12">
      <g>
       <use style="stroke:#000000;stroke-width:0.8;" x="204.525" xlink:href="#m6a2946744b" y="5.04"/>
      </g>
     </g>
    </g>
    <g id="xtick_7">
     <g id="line2d_13">
      <g>
       <use style="stroke:#000000;stroke-width:0.8;" x="238.95" xlink:href="#m6a2946744b" y="42"/>
      </g>
     </g>
     <g id="line2d_14">
      <g>
       <use style="stroke:#000000;stroke-width:0.8;" x="238.95" xlink:href="#m6a2946744b" y="5.04"/>
      </g>
     </g>
    </g>
    <g id="xtick_8">
     <g id="line2d_15">
      <g>
       <use style="stroke:#000000;stroke-width:0.8;" x="273.375" xlink:href="#m6a2946744b" y="42"/>
      </g>
     </g>
     <g id="line2d_16">
      <g>
       <use style="stroke:#000000;stroke-width:0.8;" x="273.375" xlink:href="#m6a2946744b" y="5.04"/>
      </g>
     </g>
    </g>
    <g id="xtick_9">
     <g id="line2d_17">
      <g>
       <use style="stroke:#000000;stroke-width:0.8;" x="307.8" xlink:href="#m6a2946744b" y="42"/>
      </g>
     </g>
     <g id="line2d_18">
      <g>
       <use style="stroke:#000000;stroke-width:0.8;" x="307.8" xlink:href="#m6a2946744b" y="5.04"/>
      </g>
     </g>
    </g>
   </g>
   <g id="matplotlib.axis_2">
    <g id="ytick_1">
     <g id="line2d_19">
      <defs>
       <path d="M 0 0 
L -3.5 0 
" id="m9cc31f6070" style="stroke:#000000;stroke-width:0.8;"/>
      </defs>
      <g>
       <use style="stroke:#000000;stroke-width:0.8;" x="32.4" xlink:href="#m9cc31f6070" y="40.5216"/>
      </g>
     </g>
    </g>
    <g id="ytick_2">
     <g id="line2d_20">
      <g>
       <use style="stroke:#000000;stroke-width:0.8;" x="32.4" xlink:href="#m9cc31f6070" y="10.9536"/>
      </g>
     </g>
     <g id="text_1">
      <!-- 1 -->
      <defs>
       <path d="M 12.40625 8.296875 
L 28.515625 8.296875 
L 28.515625 63.921875 
L 10.984375 60.40625 
L 10.984375 69.390625 
L 28.421875 72.90625 
L 38.28125 72.90625 
L 38.28125 8.296875 
L 54.390625 8.296875 
L 54.390625 0 
L 12.40625 0 
z
" id="DejaVuSans-31"/>
      </defs>
      <g transform="translate(20.31 13.992975)scale(0.08 -0.08)">
       <use xlink:href="#DejaVuSans-31"/>
      </g>
     </g>
    </g>
    <g id="text_2">
     <!-- LANL -->
     <defs>
      <path d="M 9.8125 72.90625 
L 19.671875 72.90625 
L 19.671875 8.296875 
L 55.171875 8.296875 
L 55.171875 0 
L 9.8125 0 
z
" id="DejaVuSans-4c"/>
      <path d="M 34.1875 63.1875 
L 20.796875 26.90625 
L 47.609375 26.90625 
z
M 28.609375 72.90625 
L 39.796875 72.90625 
L 67.578125 0 
L 57.328125 0 
L 50.6875 18.703125 
L 17.828125 18.703125 
L 11.1875 0 
L 0.78125 0 
z
" id="DejaVuSans-41"/>
      <path d="M 9.8125 72.90625 
L 23.09375 72.90625 
L 55.421875 11.921875 
L 55.421875 72.90625 
L 64.984375 72.90625 
L 64.984375 0 
L 51.703125 0 
L 19.390625 60.984375 
L 19.390625 0 
L 9.8125 0 
z
" id="DejaVuSans-4e"/>
     </defs>
     <g transform="translate(14.64625 33.7075)rotate(-90)scale(0.08 -0.08)">
      <use xlink:href="#DejaVuSans-4c"/>
      <use x="55.744141" xlink:href="#DejaVuSans-41"/>
      <use x="124.152344" xlink:href="#DejaVuSans-4e"/>
      <use x="198.957031" xlink:href="#DejaVuSans-4c"/>
     </g>
    </g>
   </g>
   <g id="line2d_21">
    <path clip-path="url(#pf5c2100e86)" d="M 32.4 40.5216 
L 65.86875 40.430273 
L 66.63375 40.193129 
L 67.2075 39.749242 
L 67.59 39.222473 
L 67.9725 38.422114 
L 68.54625 36.520006 
L 69.12 33.55106 
L 69.885 27.820448 
L 71.60625 13.226896 
L 71.98875 11.539086 
L 72.18 11.101071 
L 72.37125 10.9536 
L 72.5625 11.101071 
L 72.945 12.254665 
L 73.3275 14.427927 
L 74.0925 20.80039 
L 75.43125 32.299408 
L 76.005 35.654051 
L 76.57875 37.877642 
L 77.1525 39.177121 
L 77.72625 39.807269 
L 78.10875 39.951006 
L 78.49125 39.903723 
L 78.87375 39.657915 
L 79.25625 39.177121 
L 79.63875 38.400476 
L 80.2125 36.513391 
L 80.78625 33.549211 
L 81.55125 27.820154 
L 83.2725 13.226893 
L 83.655 11.539085 
L 83.84625 11.101071 
L 84.0375 10.9536 
L 84.22875 11.101071 
L 84.61125 12.254666 
L 84.99375 14.427932 
L 85.75875 20.80043 
L 87.0975 32.300593 
L 87.67125 35.658419 
L 88.245 37.892366 
L 88.81875 39.222473 
L 89.3925 39.934938 
L 89.96625 40.279476 
L 90.73125 40.45692 
L 92.4525 40.519751 
L 124.965 40.5216 
L 134.71875 40.430273 
L 135.48375 40.193129 
L 136.0575 39.749242 
L 136.44 39.222473 
L 136.8225 38.422114 
L 137.39625 36.520006 
L 137.97 33.55106 
L 138.735 27.820448 
L 140.45625 13.226896 
L 140.83875 11.539086 
L 141.03 11.101071 
L 141.22125 10.9536 
L 141.4125 11.101071 
L 141.795 12.254666 
L 142.1775 14.427932 
L 142.9425 20.80043 
L 144.28125 32.300593 
L 144.855 35.658419 
L 145.42875 37.892366 
L 146.0025 39.222473 
L 146.57625 39.934938 
L 147.15 40.279476 
L 147.915 40.45692 
L 149.63625 40.519751 
L 179.47125 40.514984 
L 181.00125 40.39393 
L 181.575 40.193129 
L 182.14875 39.749242 
L 182.53125 39.222473 
L 182.91375 38.422114 
L 183.4875 36.520006 
L 184.06125 33.55106 
L 184.82625 27.820448 
L 186.5475 13.226896 
L 186.93 11.539086 
L 187.12125 11.101071 
L 187.3125 10.9536 
L 187.50375 11.101071 
L 187.88625 12.254666 
L 188.26875 14.427932 
L 189.03375 20.80043 
L 190.3725 32.300593 
L 190.94625 35.658419 
L 191.52 37.892366 
L 192.09375 39.222473 
L 192.6675 39.934938 
L 193.24125 40.279476 
L 194.00625 40.45692 
L 195.7275 40.519751 
L 228.24 40.5216 
L 249.66 40.430273 
L 250.425 40.193129 
L 250.99875 39.749242 
L 251.38125 39.222473 
L 251.76375 38.422114 
L 252.3375 36.520006 
L 252.91125 33.55106 
L 253.67625 27.820448 
L 255.3975 13.226896 
L 255.78 11.539086 
L 255.97125 11.101071 
L 256.1625 10.9536 
L 256.35375 11.101071 
L 256.73625 12.254666 
L 257.11875 14.427932 
L 257.88375 20.80043 
L 259.2225 32.300593 
L 259.79625 35.658419 
L 260.37 37.892366 
L 260.94375 39.222473 
L 261.5175 39.934938 
L 262.09125 40.279476 
L 262.85625 40.45692 
L 264.5775 40.519751 
L 297.09 40.5216 
L 307.8 40.5216 
L 307.8 40.5216 
" style="fill:none;stroke:#1f77b4;stroke-linecap:square;stroke-width:1.5;"/>
   </g>
   <g id="patch_3">
    <path d="M 32.4 42 
L 32.4 5.04 
" style="fill:none;stroke:#000000;stroke-linecap:square;stroke-linejoin:miter;stroke-width:0.8;"/>
   </g>
   <g id="patch_4">
    <path d="M 307.8 42 
L 307.8 5.04 
" style="fill:none;stroke:#000000;stroke-linecap:square;stroke-linejoin:miter;stroke-width:0.8;"/>
   </g>
   <g id="patch_5">
    <path d="M 32.4 42 
L 307.8 42 
" style="fill:none;stroke:#000000;stroke-linecap:square;stroke-linejoin:miter;stroke-width:0.8;"/>
   </g>
   <g id="patch_6">
    <path d="M 32.4 5.04 
L 307.8 5.04 
" style="fill:none;stroke:#000000;stroke-linecap:square;stroke-linejoin:miter;stroke-width:0.8;"/>
   </g>
  </g>
  <g id="axes_2">
   <g id="patch_7">
    <path d="M 32.4 78.96 
L 307.8 78.96 
L 307.8 42 
L 32.4 42 
z
" style="fill:#ffffff;"/>
   </g>
   <g id="matplotlib.axis_3">
    <g id="xtick_10">
     <g id="line2d_22">
      <g>
       <use style="stroke:#000000;stroke-width:0.8;" x="32.4" xlink:href="#m6a2946744b" y="78.96"/>
      </g>
     </g>
     <g id="line2d_23">
      <g>
       <use style="stroke:#000000;stroke-width:0.8;" x="32.4" xlink:href="#m6a2946744b" y="42"/>
      </g>
     </g>
    </g>
    <g id="xtick_11">
     <g id="line2d_24">
      <g>
       <use style="stroke:#000000;stroke-width:0.8;" x="66.825" xlink:href="#m6a2946744b" y="78.96"/>
      </g>
     </g>
     <g id="line2d_25">
      <g>
       <use style="stroke:#000000;stroke-width:0.8;" x="66.825" xlink:href="#m6a2946744b" y="42"/>
      </g>
     </g>
    </g>
    <g id="xtick_12">
     <g id="line2d_26">
      <g>
       <use style="stroke:#000000;stroke-width:0.8;" x="101.25" xlink:href="#m6a2946744b" y="78.96"/>
      </g>
     </g>
     <g id="line2d_27">
      <g>
       <use style="stroke:#000000;stroke-width:0.8;" x="101.25" xlink:href="#m6a2946744b" y="42"/>
      </g>
     </g>
    </g>
    <g id="xtick_13">
     <g id="line2d_28">
      <g>
       <use style="stroke:#000000;stroke-width:0.8;" x="135.675" xlink:href="#m6a2946744b" y="78.96"/>
      </g>
     </g>
     <g id="line2d_29">
      <g>
       <use style="stroke:#000000;stroke-width:0.8;" x="135.675" xlink:href="#m6a2946744b" y="42"/>
      </g>
     </g>
    </g>
    <g id="xtick_14">
     <g id="line2d_30">
      <g>
       <use style="stroke:#000000;stroke-width:0.8;" x="170.1" xlink:href="#m6a2946744b" y="78.96"/>
      </g>
     </g>
     <g id="line2d_31">
      <g>
       <use style="stroke:#000000;stroke-width:0.8;" x="170.1" xlink:href="#m6a2946744b" y="42"/>
      </g>
     </g>
    </g>
    <g id="xtick_15">
     <g id="line2d_32">
      <g>
       <use style="stroke:#000000;stroke-width:0.8;" x="204.525" xlink:href="#m6a2946744b" y="78.96"/>
      </g>
     </g>
     <g id="line2d_33">
      <g>
       <use style="stroke:#000000;stroke-width:0.8;" x="204.525" xlink:href="#m6a2946744b" y="42"/>
      </g>
     </g>
    </g>
    <g id="xtick_16">
     <g id="line2d_34">
      <g>
       <use style="stroke:#000000;stroke-width:0.8;" x="238.95" xlink:href="#m6a2946744b" y="78.96"/>
      </g>
     </g>
     <g id="line2d_35">
      <g>
       <use style="stroke:#000000;stroke-width:0.8;" x="238.95" xlink:href="#m6a2946744b" y="42"/>
      </g>
     </g>
    </g>
    <g id="xtick_17">
     <g id="line2d_36">
      <g>
       <use style="stroke:#000000;stroke-width:0.8;" x="273.375" xlink:href="#m6a2946744b" y="78.96"/>
      </g>
     </g>
     <g id="line2d_37">
      <g>
       <use style="stroke:#000000;stroke-width:0.8;" x="273.375" xlink:href="#m6a2946744b" y="42"/>
      </g>
     </g>
    </g>
    <g id="xtick_18">
     <g id="line2d_38">
      <g>
       <use style="stroke:#000000;stroke-width:0.8;" x="307.8" xlink:href="#m6a2946744b" y="78.96"/>
      </g>
     </g>
     <g id="line2d_39">
      <g>
       <use style="stroke:#000000;stroke-width:0.8;" x="307.8" xlink:href="#m6a2946744b" y="42"/>
      </g>
     </g>
    </g>
   </g>
   <g id="matplotlib.axis_4">
    <g id="ytick_3">
     <g id="line2d_40">
      <g>
       <use style="stroke:#000000;stroke-width:0.8;" x="32.4" xlink:href="#m9cc31f6070" y="77.478899"/>
      </g>
     </g>
    </g>
    <g id="ytick_4">
     <g id="line2d_41">
      <g>
       <use style="stroke:#000000;stroke-width:0.8;" x="32.4" xlink:href="#m9cc31f6070" y="47.91315"/>
      </g>
     </g>
     <g id="text_3">
      <!-- 1 -->
      <g transform="translate(20.31 50.952525)scale(0.08 -0.08)">
       <use xlink:href="#DejaVuSans-31"/>
      </g>
     </g>
    </g>
    <g id="text_4">
     <!-- IMAGE/ -->
     <defs>
      <path d="M 9.8125 72.90625 
L 19.671875 72.90625 
L 19.671875 0 
L 9.8125 0 
z
" id="DejaVuSans-49"/>
      <path d="M 9.8125 72.90625 
L 24.515625 72.90625 
L 43.109375 23.296875 
L 61.8125 72.90625 
L 76.515625 72.90625 
L 76.515625 0 
L 66.890625 0 
L 66.890625 64.015625 
L 48.09375 14.015625 
L 38.1875 14.015625 
L 19.390625 64.015625 
L 19.390625 0 
L 9.8125 0 
z
" id="DejaVuSans-4d"/>
      <path d="M 59.515625 10.40625 
L 59.515625 29.984375 
L 43.40625 29.984375 
L 43.40625 38.09375 
L 69.28125 38.09375 
L 69.28125 6.78125 
Q 63.578125 2.734375 56.6875 0.65625 
Q 49.8125 -1.421875 42 -1.421875 
Q 24.90625 -1.421875 15.25 8.5625 
Q 5.609375 18.5625 5.609375 36.375 
Q 5.609375 54.25 15.25 64.234375 
Q 24.90625 74.21875 42 74.21875 
Q 49.125 74.21875 55.546875 72.453125 
Q 61.96875 70.703125 67.390625 67.28125 
L 67.390625 56.78125 
Q 61.921875 61.421875 55.765625 63.765625 
Q 49.609375 66.109375 42.828125 66.109375 
Q 29.4375 66.109375 22.71875 58.640625 
Q 16.015625 51.171875 16.015625 36.375 
Q 16.015625 21.625 22.71875 14.15625 
Q 29.4375 6.6875 42.828125 6.6875 
Q 48.046875 6.6875 52.140625 7.59375 
Q 56.25 8.5 59.515625 10.40625 
z
" id="DejaVuSans-47"/>
      <path d="M 9.8125 72.90625 
L 55.90625 72.90625 
L 55.90625 64.59375 
L 19.671875 64.59375 
L 19.671875 43.015625 
L 54.390625 43.015625 
L 54.390625 34.71875 
L 19.671875 34.71875 
L 19.671875 8.296875 
L 56.78125 8.296875 
L 56.78125 0 
L 9.8125 0 
z
" id="DejaVuSans-45"/>
      <path d="M 25.390625 72.90625 
L 33.6875 72.90625 
L 8.296875 -9.28125 
L 0 -9.28125 
z
" id="DejaVuSans-2f"/>
     </defs>
     <g transform="translate(5.688 74.82125)rotate(-90)scale(0.08 -0.08)">
      <use xlink:href="#DejaVuSans-49"/>
      <use x="29.492188" xlink:href="#DejaVuSans-4d"/>
      <use x="115.771484" xlink:href="#DejaVuSans-41"/>
      <use x="184.164062" xlink:href="#DejaVuSans-47"/>
      <use x="261.654297" xlink:href="#DejaVuSans-45"/>
      <use x="324.837891" xlink:href="#DejaVuSans-2f"/>
     </g>
     <!-- FUV -->
     <defs>
      <path d="M 9.8125 72.90625 
L 51.703125 72.90625 
L 51.703125 64.59375 
L 19.671875 64.59375 
L 19.671875 43.109375 
L 48.578125 43.109375 
L 48.578125 34.8125 
L 19.671875 34.8125 
L 19.671875 0 
L 9.8125 0 
z
" id="DejaVuSans-46"/>
      <path d="M 8.6875 72.90625 
L 18.609375 72.90625 
L 18.609375 28.609375 
Q 18.609375 16.890625 22.84375 11.734375 
Q 27.09375 6.59375 36.625 6.59375 
Q 46.09375 6.59375 50.34375 11.734375 
Q 54.59375 16.890625 54.59375 28.609375 
L 54.59375 72.90625 
L 64.5 72.90625 
L 64.5 27.390625 
Q 64.5 13.140625 57.4375 5.859375 
Q 50.390625 -1.421875 36.625 -1.421875 
Q 22.796875 -1.421875 15.734375 5.859375 
Q 8.6875 13.140625 8.6875 27.390625 
z
" id="DejaVuSans-55"/>
      <path d="M 28.609375 0 
L 0.78125 72.90625 
L 11.078125 72.90625 
L 34.1875 11.53125 
L 57.328125 72.90625 
L 67.578125 72.90625 
L 39.796875 0 
z
" id="DejaVuSans-56"/>
     </defs>
     <g transform="translate(14.64625 68.444375)rotate(-90)scale(0.08 -0.08)">
      <use xlink:href="#DejaVuSans-46"/>
      <use x="57.519531" xlink:href="#DejaVuSans-55"/>
      <use x="130.712891" xlink:href="#DejaVuSans-56"/>
     </g>
    </g>
   </g>
   <g id="line2d_42">
    <path clip-path="url(#p3bcde20407)" d="M 32.4 55.608514 
L 33.165 49.923963 
L 33.5475 48.341181 
L 33.73875 47.956953 
L 33.93 47.859837 
L 34.12125 48.050391 
L 34.50375 49.250533 
L 35.0775 52.711146 
L 36.6075 63.583887 
L 36.99 64.836265 
L 37.18125 65.08726 
L 37.3725 65.0763 
L 37.56375 64.803693 
L 37.94625 63.511439 
L 38.52 60.030942 
L 40.05 49.18026 
L 40.4325 48.023676 
L 40.62375 47.856889 
L 40.815 47.97808 
L 41.00625 48.38592 
L 41.38875 50.011675 
L 41.9625 54.092061 
L 44.06625 71.468402 
L 44.64 74.115322 
L 45.21375 75.75859 
L 45.7875 76.674771 
L 46.36125 77.135375 
L 47.12625 77.382811 
L 48.465 77.471839 
L 51.9075 77.409145 
L 52.6725 77.220035 
L 53.24625 76.855739 
L 53.62875 76.414176 
L 54.01125 75.731058 
L 54.585 74.068321 
L 55.15875 71.396606 
L 55.7325 67.565554 
L 56.68875 59.157889 
L 57.645 51.109211 
L 58.0275 49.036475 
L 58.41 48.00372 
L 58.60125 47.920089 
L 58.7925 48.13117 
L 59.175 49.403833 
L 59.5575 51.674409 
L 60.3225 58.144577 
L 61.47 68.189426 
L 62.235 72.813305 
L 62.80875 74.972831 
L 63.3825 76.248652 
L 63.95625 76.926942 
L 64.53 77.252575 
L 65.295 77.418962 
L 67.01625 77.477219 
L 81.93375 77.433004 
L 82.89 77.234281 
L 83.46375 76.886785 
L 83.84625 76.463504 
L 84.22875 75.805912 
L 84.61125 74.830529 
L 85.185 72.585221 
L 85.75875 69.214605 
L 86.52375 63.030104 
L 87.8625 51.34384 
L 88.245 49.185996 
L 88.6275 48.050965 
L 88.81875 47.913314 
L 89.01 48.070578 
L 89.3925 49.242525 
L 89.775 51.430812 
L 90.54 57.81841 
L 91.87875 69.302289 
L 92.4525 72.646816 
L 93.02625 74.869089 
L 93.6 76.190659 
L 94.17375 76.897735 
L 94.7475 77.239285 
L 95.5125 77.414975 
L 97.23375 77.477078 
L 130.12875 77.478899 
L 204.525 77.399711 
L 205.29 77.189299 
L 205.86375 76.789374 
L 206.24625 76.309393 
L 206.62875 75.573074 
L 207.2025 73.80073 
L 207.77625 70.991153 
L 208.35 67.020398 
L 209.30625 58.501505 
L 210.2625 50.66067 
L 210.645 48.764027 
L 211.0275 47.938803 
L 211.21875 47.96341 
L 211.41 48.281435 
L 211.7925 49.751663 
L 212.36625 53.673434 
L 214.47 71.177583 
L 215.04375 73.923998 
L 215.6175 75.645144 
L 216.19125 76.611203 
L 216.765 77.092886 
L 217.33875 77.288807 
L 218.10375 77.271091 
L 218.6775 77.038679 
L 219.25125 76.494732 
L 219.63375 75.857244 
L 220.01625 74.906627 
L 220.59 72.707713 
L 221.16375 69.389373 
L 221.92875 63.260074 
L 223.2675 51.518648 
L 223.84125 48.55794 
L 224.22375 47.914628 
L 224.415 48.032649 
L 224.60625 48.442024 
L 224.98875 50.078254 
L 225.5625 54.176261 
L 227.66625 71.521902 
L 228.24 74.15025 
L 228.81375 75.779004 
L 229.3875 76.685504 
L 229.96125 77.140468 
L 230.72625 77.384426 
L 232.065 77.472008 
L 241.6275 77.478899 
L 251.5725 77.388095 
L 252.3375 77.152092 
L 252.91125 76.710069 
L 253.29375 76.185274 
L 253.67625 75.387608 
L 254.25 73.490931 
L 254.82375 70.52862 
L 255.58875 64.806219 
L 257.31 50.2045 
L 257.6925 48.50829 
L 257.88375 48.065553 
L 258.075 47.913191 
L 258.26625 48.055747 
L 258.4575 48.48897 
L 258.84 50.16811 
L 259.41375 54.310671 
L 261.32625 70.489123 
L 261.9 73.464256 
L 262.47375 75.371513 
L 263.0475 76.467891 
L 263.62125 77.035619 
L 264.195 77.301269 
L 265.15125 77.447224 
L 267.82875 77.478832 
L 307.8 77.478899 
L 307.8 77.478899 
" style="fill:none;stroke:#1f77b4;stroke-linecap:square;stroke-width:1.5;"/>
   </g>
   <g id="patch_8">
    <path d="M 32.4 78.96 
L 32.4 42 
" style="fill:none;stroke:#000000;stroke-linecap:square;stroke-linejoin:miter;stroke-width:0.8;"/>
   </g>
   <g id="patch_9">
    <path d="M 307.8 78.96 
L 307.8 42 
" style="fill:none;stroke:#000000;stroke-linecap:square;stroke-linejoin:miter;stroke-width:0.8;"/>
   </g>
   <g id="patch_10">
    <path d="M 32.4 78.96 
L 307.8 78.96 
" style="fill:none;stroke:#000000;stroke-linecap:square;stroke-linejoin:miter;stroke-width:0.8;"/>
   </g>
   <g id="patch_11">
    <path d="M 32.4 42 
L 307.8 42 
" style="fill:none;stroke:#000000;stroke-linecap:square;stroke-linejoin:miter;stroke-width:0.8;"/>
   </g>
  </g>
  <g id="axes_3">
   <g id="patch_12">
    <path d="M 32.4 115.92 
L 307.8 115.92 
L 307.8 78.96 
L 32.4 78.96 
z
" style="fill:#ffffff;"/>
   </g>
   <g id="matplotlib.axis_5">
    <g id="xtick_19">
     <g id="line2d_43">
      <g>
       <use style="stroke:#000000;stroke-width:0.8;" x="32.4" xlink:href="#m6a2946744b" y="115.92"/>
      </g>
     </g>
     <g id="line2d_44">
      <g>
       <use style="stroke:#000000;stroke-width:0.8;" x="32.4" xlink:href="#m6a2946744b" y="78.96"/>
      </g>
     </g>
    </g>
    <g id="xtick_20">
     <g id="line2d_45">
      <g>
       <use style="stroke:#000000;stroke-width:0.8;" x="66.825" xlink:href="#m6a2946744b" y="115.92"/>
      </g>
     </g>
     <g id="line2d_46">
      <g>
       <use style="stroke:#000000;stroke-width:0.8;" x="66.825" xlink:href="#m6a2946744b" y="78.96"/>
      </g>
     </g>
    </g>
    <g id="xtick_21">
     <g id="line2d_47">
      <g>
       <use style="stroke:#000000;stroke-width:0.8;" x="101.25" xlink:href="#m6a2946744b" y="115.92"/>
      </g>
     </g>
     <g id="line2d_48">
      <g>
       <use style="stroke:#000000;stroke-width:0.8;" x="101.25" xlink:href="#m6a2946744b" y="78.96"/>
      </g>
     </g>
    </g>
    <g id="xtick_22">
     <g id="line2d_49">
      <g>
       <use style="stroke:#000000;stroke-width:0.8;" x="135.675" xlink:href="#m6a2946744b" y="115.92"/>
      </g>
     </g>
     <g id="line2d_50">
      <g>
       <use style="stroke:#000000;stroke-width:0.8;" x="135.675" xlink:href="#m6a2946744b" y="78.96"/>
      </g>
     </g>
    </g>
    <g id="xtick_23">
     <g id="line2d_51">
      <g>
       <use style="stroke:#000000;stroke-width:0.8;" x="170.1" xlink:href="#m6a2946744b" y="115.92"/>
      </g>
     </g>
     <g id="line2d_52">
      <g>
       <use style="stroke:#000000;stroke-width:0.8;" x="170.1" xlink:href="#m6a2946744b" y="78.96"/>
      </g>
     </g>
    </g>
    <g id="xtick_24">
     <g id="line2d_53">
      <g>
       <use style="stroke:#000000;stroke-width:0.8;" x="204.525" xlink:href="#m6a2946744b" y="115.92"/>
      </g>
     </g>
     <g id="line2d_54">
      <g>
       <use style="stroke:#000000;stroke-width:0.8;" x="204.525" xlink:href="#m6a2946744b" y="78.96"/>
      </g>
     </g>
    </g>
    <g id="xtick_25">
     <g id="line2d_55">
      <g>
       <use style="stroke:#000000;stroke-width:0.8;" x="238.95" xlink:href="#m6a2946744b" y="115.92"/>
      </g>
     </g>
     <g id="line2d_56">
      <g>
       <use style="stroke:#000000;stroke-width:0.8;" x="238.95" xlink:href="#m6a2946744b" y="78.96"/>
      </g>
     </g>
    </g>
    <g id="xtick_26">
     <g id="line2d_57">
      <g>
       <use style="stroke:#000000;stroke-width:0.8;" x="273.375" xlink:href="#m6a2946744b" y="115.92"/>
      </g>
     </g>
     <g id="line2d_58">
      <g>
       <use style="stroke:#000000;stroke-width:0.8;" x="273.375" xlink:href="#m6a2946744b" y="78.96"/>
      </g>
     </g>
    </g>
    <g id="xtick_27">
     <g id="line2d_59">
      <g>
       <use style="stroke:#000000;stroke-width:0.8;" x="307.8" xlink:href="#m6a2946744b" y="115.92"/>
      </g>
     </g>
     <g id="line2d_60">
      <g>
       <use style="stroke:#000000;stroke-width:0.8;" x="307.8" xlink:href="#m6a2946744b" y="78.96"/>
      </g>
     </g>
    </g>
   </g>
   <g id="matplotlib.axis_6">
    <g id="ytick_5">
     <g id="line2d_61">
      <g>
       <use style="stroke:#000000;stroke-width:0.8;" x="32.4" xlink:href="#m9cc31f6070" y="114.4416"/>
      </g>
     </g>
    </g>
    <g id="ytick_6">
     <g id="line2d_62">
      <g>
       <use style="stroke:#000000;stroke-width:0.8;" x="32.4" xlink:href="#m9cc31f6070" y="84.8736"/>
      </g>
     </g>
     <g id="text_5">
      <!-- 1 -->
      <g transform="translate(20.31 87.912975)scale(0.08 -0.08)">
       <use xlink:href="#DejaVuSans-31"/>
      </g>
     </g>
    </g>
    <g id="text_6">
     <!-- MPB -->
     <defs>
      <path d="M 19.671875 64.796875 
L 19.671875 37.40625 
L 32.078125 37.40625 
Q 38.96875 37.40625 42.71875 40.96875 
Q 46.484375 44.53125 46.484375 51.125 
Q 46.484375 57.671875 42.71875 61.234375 
Q 38.96875 64.796875 32.078125 64.796875 
z
M 9.8125 72.90625 
L 32.078125 72.90625 
Q 44.34375 72.90625 50.609375 67.359375 
Q 56.890625 61.8125 56.890625 51.125 
Q 56.890625 40.328125 50.609375 34.8125 
Q 44.34375 29.296875 32.078125 29.296875 
L 19.671875 29.296875 
L 19.671875 0 
L 9.8125 0 
z
" id="DejaVuSans-50"/>
      <path d="M 19.671875 34.8125 
L 19.671875 8.109375 
L 35.5 8.109375 
Q 43.453125 8.109375 47.28125 11.40625 
Q 51.125 14.703125 51.125 21.484375 
Q 51.125 28.328125 47.28125 31.5625 
Q 43.453125 34.8125 35.5 34.8125 
z
M 19.671875 64.796875 
L 19.671875 42.828125 
L 34.28125 42.828125 
Q 41.5 42.828125 45.03125 45.53125 
Q 48.578125 48.25 48.578125 53.8125 
Q 48.578125 59.328125 45.03125 62.0625 
Q 41.5 64.796875 34.28125 64.796875 
z
M 9.8125 72.90625 
L 35.015625 72.90625 
Q 46.296875 72.90625 52.390625 68.21875 
Q 58.5 63.53125 58.5 54.890625 
Q 58.5 48.1875 55.375 44.234375 
Q 52.25 40.28125 46.1875 39.3125 
Q 53.46875 37.75 57.5 32.78125 
Q 61.53125 27.828125 61.53125 20.40625 
Q 61.53125 10.640625 54.890625 5.3125 
Q 48.25 0 35.984375 0 
L 9.8125 0 
z
" id="DejaVuSans-42"/>
     </defs>
     <g transform="translate(14.64625 106.0475)rotate(-90)scale(0.08 -0.08)">
      <use xlink:href="#DejaVuSans-4d"/>
      <use x="86.279297" xlink:href="#DejaVuSans-50"/>
      <use x="146.582031" xlink:href="#DejaVuSans-42"/>
     </g>
    </g>
   </g>
   <g id="line2d_63">
    <path clip-path="url(#pa0c6028113)" d="M 32.4 114.440415 
L 34.50375 114.350273 
L 35.26875 114.113129 
L 35.8425 113.669242 
L 36.225 113.142473 
L 36.6075 112.342114 
L 37.18125 110.440006 
L 37.755 107.47106 
L 38.52 101.740448 
L 40.24125 87.146896 
L 40.62375 85.459086 
L 40.815 85.021071 
L 41.00625 84.8736 
L 41.1975 85.021071 
L 41.58 86.174666 
L 41.9625 88.347932 
L 42.7275 94.72043 
L 44.06625 106.220593 
L 44.64 109.578419 
L 45.21375 111.812366 
L 45.7875 113.142473 
L 46.36125 113.854939 
L 46.935 114.199476 
L 47.7 114.37692 
L 49.42125 114.439751 
L 59.94 114.37692 
L 60.705 114.199476 
L 61.27875 113.854939 
L 61.66125 113.434885 
L 62.04375 112.781807 
L 62.42625 111.812366 
L 63 109.578419 
L 63.57375 106.220593 
L 64.33875 100.049309 
L 65.6775 88.347932 
L 66.06 86.174666 
L 66.4425 85.021071 
L 66.63375 84.8736 
L 66.825 85.021071 
L 67.2075 86.174666 
L 67.59 88.347932 
L 68.355 94.72043 
L 69.69375 106.220593 
L 70.2675 109.578419 
L 70.84125 111.812366 
L 71.415 113.142473 
L 71.98875 113.854939 
L 72.5625 114.199476 
L 73.3275 114.37692 
L 75.04875 114.439751 
L 95.70375 114.410117 
L 96.66 114.264901 
L 97.23375 114.000422 
L 97.8075 113.434885 
L 98.19 112.781807 
L 98.5725 111.812366 
L 99.14625 109.578419 
L 99.72 106.220593 
L 100.485 100.049309 
L 101.82375 88.347932 
L 102.20625 86.174666 
L 102.58875 85.021071 
L 102.78 84.8736 
L 102.97125 85.021071 
L 103.35375 86.174666 
L 103.73625 88.347932 
L 104.50125 94.72043 
L 105.84 106.220593 
L 106.41375 109.578419 
L 106.9875 111.812366 
L 107.56125 113.142473 
L 108.135 113.854939 
L 108.70875 114.199476 
L 109.47375 114.37692 
L 111.195 114.439751 
L 130.89375 114.410117 
L 131.85 114.264901 
L 132.42375 114.000422 
L 132.9975 113.434885 
L 133.38 112.781807 
L 133.7625 111.812366 
L 134.33625 109.578419 
L 134.91 106.220593 
L 135.675 100.049309 
L 137.01375 88.347932 
L 137.39625 86.174666 
L 137.77875 85.021071 
L 137.97 84.8736 
L 138.16125 85.021071 
L 138.54375 86.174666 
L 138.92625 88.347932 
L 139.69125 94.72043 
L 141.03 106.220593 
L 141.60375 109.578419 
L 142.1775 111.812366 
L 142.75125 113.142473 
L 143.325 113.854939 
L 143.89875 114.199476 
L 144.66375 114.37692 
L 146.385 114.439751 
L 178.8975 114.4416 
L 189.79875 114.350273 
L 190.56375 114.113129 
L 191.1375 113.669242 
L 191.52 113.142473 
L 191.9025 112.342114 
L 192.47625 110.440006 
L 193.05 107.47106 
L 193.815 101.740448 
L 195.53625 87.146896 
L 195.91875 85.459086 
L 196.11 85.021071 
L 196.30125 84.8736 
L 196.4925 85.021071 
L 196.875 86.174666 
L 197.2575 88.347932 
L 198.0225 94.72043 
L 199.36125 106.220593 
L 199.935 109.578419 
L 200.50875 111.812366 
L 201.0825 113.142473 
L 201.65625 113.854939 
L 202.23 114.199476 
L 202.995 114.37692 
L 204.71625 114.439751 
L 218.295 114.37692 
L 219.06 114.199476 
L 219.63375 113.854939 
L 220.01625 113.434885 
L 220.39875 112.781807 
L 220.78125 111.812366 
L 221.355 109.578419 
L 221.92875 106.220593 
L 222.69375 100.049309 
L 224.0325 88.347932 
L 224.415 86.174666 
L 224.7975 85.021071 
L 224.98875 84.8736 
L 225.18 85.021071 
L 225.5625 86.174666 
L 225.945 88.347932 
L 226.71 94.72043 
L 228.04875 106.220593 
L 228.6225 109.578419 
L 229.19625 111.812366 
L 229.77 113.142473 
L 230.34375 113.854938 
L 230.9175 114.199472 
L 231.6825 114.376881 
L 233.2125 114.436895 
L 235.125 114.350249 
L 235.89 114.113127 
L 236.46375 113.669242 
L 236.84625 113.142473 
L 237.22875 112.342114 
L 237.8025 110.440006 
L 238.37625 107.47106 
L 239.14125 101.740448 
L 240.8625 87.146896 
L 241.245 85.459086 
L 241.43625 85.021071 
L 241.6275 84.8736 
L 241.81875 85.021071 
L 242.20125 86.174666 
L 242.58375 88.347932 
L 243.34875 94.72043 
L 244.6875 106.220593 
L 245.26125 109.578419 
L 245.835 111.812366 
L 246.40875 113.142472 
L 246.9825 113.854936 
L 247.55625 114.199463 
L 248.32125 114.37681 
L 249.85125 114.434375 
L 251.5725 114.31389 
L 252.14625 114.113121 
L 252.72 113.669241 
L 253.1025 113.142472 
L 253.485 112.342114 
L 254.05875 110.440006 
L 254.6325 107.47106 
L 255.3975 101.740448 
L 257.11875 87.146896 
L 257.50125 85.459086 
L 257.6925 85.021071 
L 257.88375 84.8736 
L 258.075 85.021071 
L 258.4575 86.174666 
L 258.84 88.34793 
L 259.605 94.720416 
L 260.94375 106.220121 
L 261.5175 109.576571 
L 262.09125 111.80575 
L 262.665 113.120835 
L 263.23875 113.790259 
L 263.8125 114.022777 
L 264.195 113.985459 
L 264.5775 113.790259 
L 264.96 113.403402 
L 265.3425 112.767084 
L 265.725 111.80575 
L 266.29875 109.576571 
L 266.8725 106.220121 
L 267.6375 100.049243 
L 268.97625 88.34793 
L 269.35875 86.174666 
L 269.74125 85.021071 
L 269.9325 84.8736 
L 270.12375 85.021071 
L 270.50625 86.174666 
L 270.88875 88.347932 
L 271.65375 94.72043 
L 272.9925 106.220593 
L 273.56625 109.578419 
L 274.14 111.812366 
L 274.71375 113.142473 
L 275.2875 113.854939 
L 275.86125 114.199476 
L 276.62625 114.37692 
L 278.3475 114.439751 
L 283.7025 114.350273 
L 284.4675 114.113129 
L 285.04125 113.669242 
L 285.42375 113.142473 
L 285.80625 112.342114 
L 286.38 110.440006 
L 286.95375 107.47106 
L 287.71875 101.740448 
L 289.44 87.146896 
L 289.8225 85.459086 
L 290.01375 85.021071 
L 290.205 84.8736 
L 290.39625 85.021071 
L 290.77875 86.174666 
L 291.16125 88.347932 
L 291.92625 94.72043 
L 293.265 106.220593 
L 293.83875 109.578419 
L 294.4125 111.812366 
L 294.98625 113.142473 
L 295.56 113.854939 
L 296.13375 114.199476 
L 296.89875 114.37692 
L 298.62 114.439751 
L 307.8 114.4416 
L 307.8 114.4416 
" style="fill:none;stroke:#1f77b4;stroke-linecap:square;stroke-width:1.5;"/>
   </g>
   <g id="patch_13">
    <path d="M 32.4 115.92 
L 32.4 78.96 
" style="fill:none;stroke:#000000;stroke-linecap:square;stroke-linejoin:miter;stroke-width:0.8;"/>
   </g>
   <g id="patch_14">
    <path d="M 307.8 115.92 
L 307.8 78.96 
" style="fill:none;stroke:#000000;stroke-linecap:square;stroke-linejoin:miter;stroke-width:0.8;"/>
   </g>
   <g id="patch_15">
    <path d="M 32.4 115.92 
L 307.8 115.92 
" style="fill:none;stroke:#000000;stroke-linecap:square;stroke-linejoin:miter;stroke-width:0.8;"/>
   </g>
   <g id="patch_16">
    <path d="M 32.4 78.96 
L 307.8 78.96 
" style="fill:none;stroke:#000000;stroke-linecap:square;stroke-linejoin:miter;stroke-width:0.8;"/>
   </g>
  </g>
  <g id="axes_4">
   <g id="patch_17">
    <path d="M 32.4 152.88 
L 307.8 152.88 
L 307.8 115.92 
L 32.4 115.92 
z
" style="fill:#ffffff;"/>
   </g>
   <g id="matplotlib.axis_7">
    <g id="xtick_28">
     <g id="line2d_64">
      <g>
       <use style="stroke:#000000;stroke-width:0.8;" x="32.4" xlink:href="#m6a2946744b" y="152.88"/>
      </g>
     </g>
     <g id="line2d_65">
      <g>
       <use style="stroke:#000000;stroke-width:0.8;" x="32.4" xlink:href="#m6a2946744b" y="115.92"/>
      </g>
     </g>
    </g>
    <g id="xtick_29">
     <g id="line2d_66">
      <g>
       <use style="stroke:#000000;stroke-width:0.8;" x="66.825" xlink:href="#m6a2946744b" y="152.88"/>
      </g>
     </g>
     <g id="line2d_67">
      <g>
       <use style="stroke:#000000;stroke-width:0.8;" x="66.825" xlink:href="#m6a2946744b" y="115.92"/>
      </g>
     </g>
    </g>
    <g id="xtick_30">
     <g id="line2d_68">
      <g>
       <use style="stroke:#000000;stroke-width:0.8;" x="101.25" xlink:href="#m6a2946744b" y="152.88"/>
      </g>
     </g>
     <g id="line2d_69">
      <g>
       <use style="stroke:#000000;stroke-width:0.8;" x="101.25" xlink:href="#m6a2946744b" y="115.92"/>
      </g>
     </g>
    </g>
    <g id="xtick_31">
     <g id="line2d_70">
      <g>
       <use style="stroke:#000000;stroke-width:0.8;" x="135.675" xlink:href="#m6a2946744b" y="152.88"/>
      </g>
     </g>
     <g id="line2d_71">
      <g>
       <use style="stroke:#000000;stroke-width:0.8;" x="135.675" xlink:href="#m6a2946744b" y="115.92"/>
      </g>
     </g>
    </g>
    <g id="xtick_32">
     <g id="line2d_72">
      <g>
       <use style="stroke:#000000;stroke-width:0.8;" x="170.1" xlink:href="#m6a2946744b" y="152.88"/>
      </g>
     </g>
     <g id="line2d_73">
      <g>
       <use style="stroke:#000000;stroke-width:0.8;" x="170.1" xlink:href="#m6a2946744b" y="115.92"/>
      </g>
     </g>
    </g>
    <g id="xtick_33">
     <g id="line2d_74">
      <g>
       <use style="stroke:#000000;stroke-width:0.8;" x="204.525" xlink:href="#m6a2946744b" y="152.88"/>
      </g>
     </g>
     <g id="line2d_75">
      <g>
       <use style="stroke:#000000;stroke-width:0.8;" x="204.525" xlink:href="#m6a2946744b" y="115.92"/>
      </g>
     </g>
    </g>
    <g id="xtick_34">
     <g id="line2d_76">
      <g>
       <use style="stroke:#000000;stroke-width:0.8;" x="238.95" xlink:href="#m6a2946744b" y="152.88"/>
      </g>
     </g>
     <g id="line2d_77">
      <g>
       <use style="stroke:#000000;stroke-width:0.8;" x="238.95" xlink:href="#m6a2946744b" y="115.92"/>
      </g>
     </g>
    </g>
    <g id="xtick_35">
     <g id="line2d_78">
      <g>
       <use style="stroke:#000000;stroke-width:0.8;" x="273.375" xlink:href="#m6a2946744b" y="152.88"/>
      </g>
     </g>
     <g id="line2d_79">
      <g>
       <use style="stroke:#000000;stroke-width:0.8;" x="273.375" xlink:href="#m6a2946744b" y="115.92"/>
      </g>
     </g>
    </g>
    <g id="xtick_36">
     <g id="line2d_80">
      <g>
       <use style="stroke:#000000;stroke-width:0.8;" x="307.8" xlink:href="#m6a2946744b" y="152.88"/>
      </g>
     </g>
     <g id="line2d_81">
      <g>
       <use style="stroke:#000000;stroke-width:0.8;" x="307.8" xlink:href="#m6a2946744b" y="115.92"/>
      </g>
     </g>
    </g>
   </g>
   <g id="matplotlib.axis_8">
    <g id="ytick_7">
     <g id="line2d_82">
      <g>
       <use style="stroke:#000000;stroke-width:0.8;" x="32.4" xlink:href="#m9cc31f6070" y="151.4016"/>
      </g>
     </g>
    </g>
    <g id="ytick_8">
     <g id="line2d_83">
      <g>
       <use style="stroke:#000000;stroke-width:0.8;" x="32.4" xlink:href="#m9cc31f6070" y="121.8336"/>
      </g>
     </g>
     <g id="text_7">
      <!-- 1 -->
      <g transform="translate(20.31 124.872975)scale(0.08 -0.08)">
       <use xlink:href="#DejaVuSans-31"/>
      </g>
     </g>
    </g>
    <g id="text_8">
     <!-- AL -->
     <g transform="translate(14.64625 139.365)rotate(-90)scale(0.08 -0.08)">
      <use xlink:href="#DejaVuSans-41"/>
      <use x="68.408203" xlink:href="#DejaVuSans-4c"/>
     </g>
    </g>
   </g>
   <g id="line2d_84">
    <path clip-path="url(#pa32f74f663)" d="M 32.4 151.40149 
L 35.46 151.310273 
L 36.225 151.073129 
L 36.79875 150.629242 
L 37.18125 150.102473 
L 37.56375 149.302114 
L 38.1375 147.400006 
L 38.71125 144.43106 
L 39.47625 138.700448 
L 41.1975 124.106896 
L 41.58 122.419086 
L 41.77125 121.981071 
L 41.9625 121.8336 
L 42.15375 121.981071 
L 42.53625 123.134666 
L 42.91875 125.307932 
L 43.68375 131.68043 
L 45.0225 143.180593 
L 45.59625 146.538419 
L 46.17 148.772366 
L 46.74375 150.102473 
L 47.3175 150.814939 
L 47.89125 151.159476 
L 48.65625 151.33692 
L 50.3775 151.399685 
L 53.62875 151.310273 
L 54.39375 151.073129 
L 54.9675 150.629242 
L 55.35 150.102473 
L 55.7325 149.302114 
L 56.30625 147.400006 
L 56.88 144.43106 
L 57.645 138.700448 
L 59.36625 124.106896 
L 59.74875 122.419086 
L 59.94 121.981071 
L 60.13125 121.8336 
L 60.3225 121.981071 
L 60.705 123.134666 
L 61.0875 125.307932 
L 61.8525 131.68043 
L 63.19125 143.180593 
L 63.765 146.538419 
L 64.33875 148.772366 
L 64.9125 150.102473 
L 65.48625 150.814939 
L 66.06 151.159476 
L 66.825 151.33692 
L 68.54625 151.399751 
L 81.36 151.33692 
L 82.125 151.159476 
L 82.69875 150.814939 
L 83.08125 150.394885 
L 83.46375 149.741807 
L 83.84625 148.772366 
L 84.42 146.538419 
L 84.99375 143.180593 
L 85.75875 137.009309 
L 87.0975 125.307932 
L 87.48 123.134666 
L 87.8625 121.981071 
L 88.05375 121.8336 
L 88.245 121.981071 
L 88.6275 123.134666 
L 89.01 125.307932 
L 89.775 131.68043 
L 91.11375 143.180593 
L 91.6875 146.538419 
L 92.26125 148.772366 
L 92.835 150.102473 
L 93.40875 150.814939 
L 93.9825 151.159476 
L 94.7475 151.33692 
L 96.46875 151.399751 
L 124.965 151.391681 
L 126.30375 151.27393 
L 126.8775 151.073129 
L 127.45125 150.629242 
L 127.83375 150.102473 
L 128.21625 149.302114 
L 128.79 147.400006 
L 129.36375 144.43106 
L 130.12875 138.700448 
L 131.85 124.106896 
L 132.2325 122.419086 
L 132.42375 121.981071 
L 132.615 121.8336 
L 132.80625 121.981071 
L 133.18875 123.134666 
L 133.57125 125.307932 
L 134.33625 131.68043 
L 135.675 143.180593 
L 136.24875 146.538419 
L 136.8225 148.772366 
L 137.39625 150.102473 
L 137.97 150.814939 
L 138.54375 151.159476 
L 139.30875 151.33692 
L 141.03 151.399751 
L 173.5425 151.401576 
L 177.17625 151.310273 
L 177.94125 151.073129 
L 178.515 150.629242 
L 178.8975 150.102473 
L 179.28 149.302114 
L 179.85375 147.400006 
L 180.4275 144.43106 
L 181.1925 138.700448 
L 182.91375 124.106896 
L 183.29625 122.419086 
L 183.4875 121.981071 
L 183.67875 121.8336 
L 183.87 121.981071 
L 184.2525 123.134666 
L 184.635 125.307932 
L 185.4 131.68043 
L 186.73875 143.180593 
L 187.3125 146.538419 
L 187.88625 148.772366 
L 188.46 150.102473 
L 189.03375 150.814939 
L 189.6075 151.159476 
L 190.3725 151.33692 
L 192.09375 151.399751 
L 216.765 151.379962 
L 217.9125 151.224901 
L 218.48625 150.960422 
L 219.06 150.394885 
L 219.4425 149.741807 
L 219.825 148.772366 
L 220.39875 146.538419 
L 220.9725 143.180593 
L 221.7375 137.009309 
L 223.07625 125.307932 
L 223.45875 123.134666 
L 223.84125 121.981071 
L 224.0325 121.8336 
L 224.22375 121.981071 
L 224.60625 123.134666 
L 224.98875 125.307932 
L 225.75375 131.68043 
L 227.0925 143.180593 
L 227.66625 146.538419 
L 228.24 148.772366 
L 228.81375 150.102473 
L 229.3875 150.814939 
L 229.96125 151.159476 
L 230.72625 151.33692 
L 232.4475 151.399751 
L 248.5125 151.356248 
L 249.46875 151.159476 
L 250.0425 150.814939 
L 250.425 150.394885 
L 250.8075 149.741807 
L 251.19 148.772366 
L 251.76375 146.538419 
L 252.3375 143.180593 
L 253.1025 137.009309 
L 254.44125 125.307932 
L 254.82375 123.134666 
L 255.20625 121.981071 
L 255.3975 121.8336 
L 255.58875 121.981071 
L 255.97125 123.134666 
L 256.35375 125.307932 
L 257.11875 131.68043 
L 258.4575 143.180593 
L 259.03125 146.538419 
L 259.605 148.772366 
L 260.17875 150.102473 
L 260.7525 150.814939 
L 261.32625 151.159476 
L 262.09125 151.33692 
L 263.8125 151.399751 
L 296.325 151.4016 
L 307.8 151.4016 
L 307.8 151.4016 
" style="fill:none;stroke:#1f77b4;stroke-linecap:square;stroke-width:1.5;"/>
   </g>
   <g id="patch_18">
    <path d="M 32.4 152.88 
L 32.4 115.92 
" style="fill:none;stroke:#000000;stroke-linecap:square;stroke-linejoin:miter;stroke-width:0.8;"/>
   </g>
   <g id="patch_19">
    <path d="M 307.8 152.88 
L 307.8 115.92 
" style="fill:none;stroke:#000000;stroke-linecap:square;stroke-linejoin:miter;stroke-width:0.8;"/>
   </g>
   <g id="patch_20">
    <path d="M 32.4 152.88 
L 307.8 152.88 
" style="fill:none;stroke:#000000;stroke-linecap:square;stroke-linejoin:miter;stroke-width:0.8;"/>
   </g>
   <g id="patch_21">
    <path d="M 32.4 115.92 
L 307.8 115.92 
" style="fill:none;stroke:#000000;stroke-linecap:square;stroke-linejoin:miter;stroke-width:0.8;"/>
   </g>
  </g>
  <g id="axes_5">
   <g id="patch_22">
    <path d="M 32.4 189.84 
L 307.8 189.84 
L 307.8 152.88 
L 32.4 152.88 
z
" style="fill:#ffffff;"/>
   </g>
   <g id="matplotlib.axis_9">
    <g id="xtick_37">
     <g id="line2d_85">
      <g>
       <use style="stroke:#000000;stroke-width:0.8;" x="32.4" xlink:href="#m6a2946744b" y="189.84"/>
      </g>
     </g>
     <g id="line2d_86">
      <g>
       <use style="stroke:#000000;stroke-width:0.8;" x="32.4" xlink:href="#m6a2946744b" y="152.88"/>
      </g>
     </g>
     <g id="text_9">
      <!-- 00:00 -->
      <defs>
       <path d="M 31.78125 66.40625 
Q 24.171875 66.40625 20.328125 58.90625 
Q 16.5 51.421875 16.5 36.375 
Q 16.5 21.390625 20.328125 13.890625 
Q 24.171875 6.390625 31.78125 6.390625 
Q 39.453125 6.390625 43.28125 13.890625 
Q 47.125 21.390625 47.125 36.375 
Q 47.125 51.421875 43.28125 58.90625 
Q 39.453125 66.40625 31.78125 66.40625 
z
M 31.78125 74.21875 
Q 44.046875 74.21875 50.515625 64.515625 
Q 56.984375 54.828125 56.984375 36.375 
Q 56.984375 17.96875 50.515625 8.265625 
Q 44.046875 -1.421875 31.78125 -1.421875 
Q 19.53125 -1.421875 13.0625 8.265625 
Q 6.59375 17.96875 6.59375 36.375 
Q 6.59375 54.828125 13.0625 64.515625 
Q 19.53125 74.21875 31.78125 74.21875 
z
" id="DejaVuSans-30"/>
       <path d="M 11.71875 12.40625 
L 22.015625 12.40625 
L 22.015625 0 
L 11.71875 0 
z
M 11.71875 51.703125 
L 22.015625 51.703125 
L 22.015625 39.3125 
L 11.71875 39.3125 
z
" id="DejaVuSans-3a"/>
      </defs>
      <g transform="translate(20.8725 201.16875)scale(0.08 -0.08)">
       <use xlink:href="#DejaVuSans-30"/>
       <use x="63.623047" xlink:href="#DejaVuSans-30"/>
       <use x="127.246094" xlink:href="#DejaVuSans-3a"/>
       <use x="160.9375" xlink:href="#DejaVuSans-30"/>
       <use x="224.560547" xlink:href="#DejaVuSans-30"/>
      </g>
     </g>
    </g>
    <g id="xtick_38">
     <g id="line2d_87">
      <g>
       <use style="stroke:#000000;stroke-width:0.8;" x="66.825" xlink:href="#m6a2946744b" y="189.84"/>
      </g>
     </g>
     <g id="line2d_88">
      <g>
       <use style="stroke:#000000;stroke-width:0.8;" x="66.825" xlink:href="#m6a2946744b" y="152.88"/>
      </g>
     </g>
     <g id="text_10">
      <!-- 03:00 -->
      <defs>
       <path d="M 40.578125 39.3125 
Q 47.65625 37.796875 51.625 33 
Q 55.609375 28.21875 55.609375 21.1875 
Q 55.609375 10.40625 48.1875 4.484375 
Q 40.765625 -1.421875 27.09375 -1.421875 
Q 22.515625 -1.421875 17.65625 -0.515625 
Q 12.796875 0.390625 7.625 2.203125 
L 7.625 11.71875 
Q 11.71875 9.328125 16.59375 8.109375 
Q 21.484375 6.890625 26.8125 6.890625 
Q 36.078125 6.890625 40.9375 10.546875 
Q 45.796875 14.203125 45.796875 21.1875 
Q 45.796875 27.640625 41.28125 31.265625 
Q 36.765625 34.90625 28.71875 34.90625 
L 20.21875 34.90625 
L 20.21875 43.015625 
L 29.109375 43.015625 
Q 36.375 43.015625 40.234375 45.921875 
Q 44.09375 48.828125 44.09375 54.296875 
Q 44.09375 59.90625 40.109375 62.90625 
Q 36.140625 65.921875 28.71875 65.921875 
Q 24.65625 65.921875 20.015625 65.03125 
Q 15.375 64.15625 9.8125 62.3125 
L 9.8125 71.09375 
Q 15.4375 72.65625 20.34375 73.4375 
Q 25.25 74.21875 29.59375 74.21875 
Q 40.828125 74.21875 47.359375 69.109375 
Q 53.90625 64.015625 53.90625 55.328125 
Q 53.90625 49.265625 50.4375 45.09375 
Q 46.96875 40.921875 40.578125 39.3125 
z
" id="DejaVuSans-33"/>
      </defs>
      <g transform="translate(55.2975 201.16875)scale(0.08 -0.08)">
       <use xlink:href="#DejaVuSans-30"/>
       <use x="63.623047" xlink:href="#DejaVuSans-33"/>
       <use x="127.246094" xlink:href="#DejaVuSans-3a"/>
       <use x="160.9375" xlink:href="#DejaVuSans-30"/>
       <use x="224.560547" xlink:href="#DejaVuSans-30"/>
      </g>
     </g>
    </g>
    <g id="xtick_39">
     <g id="line2d_89">
      <g>
       <use style="stroke:#000000;stroke-width:0.8;" x="101.25" xlink:href="#m6a2946744b" y="189.84"/>
      </g>
     </g>
     <g id="line2d_90">
      <g>
       <use style="stroke:#000000;stroke-width:0.8;" x="101.25" xlink:href="#m6a2946744b" y="152.88"/>
      </g>
     </g>
     <g id="text_11">
      <!-- 06:00 -->
      <defs>
       <path d="M 33.015625 40.375 
Q 26.375 40.375 22.484375 35.828125 
Q 18.609375 31.296875 18.609375 23.390625 
Q 18.609375 15.53125 22.484375 10.953125 
Q 26.375 6.390625 33.015625 6.390625 
Q 39.65625 6.390625 43.53125 10.953125 
Q 47.40625 15.53125 47.40625 23.390625 
Q 47.40625 31.296875 43.53125 35.828125 
Q 39.65625 40.375 33.015625 40.375 
z
M 52.59375 71.296875 
L 52.59375 62.3125 
Q 48.875 64.0625 45.09375 64.984375 
Q 41.3125 65.921875 37.59375 65.921875 
Q 27.828125 65.921875 22.671875 59.328125 
Q 17.53125 52.734375 16.796875 39.40625 
Q 19.671875 43.65625 24.015625 45.921875 
Q 28.375 48.1875 33.59375 48.1875 
Q 44.578125 48.1875 50.953125 41.515625 
Q 57.328125 34.859375 57.328125 23.390625 
Q 57.328125 12.15625 50.6875 5.359375 
Q 44.046875 -1.421875 33.015625 -1.421875 
Q 20.359375 -1.421875 13.671875 8.265625 
Q 6.984375 17.96875 6.984375 36.375 
Q 6.984375 53.65625 15.1875 63.9375 
Q 23.390625 74.21875 37.203125 74.21875 
Q 40.921875 74.21875 44.703125 73.484375 
Q 48.484375 72.75 52.59375 71.296875 
z
" id="DejaVuSans-36"/>
      </defs>
      <g transform="translate(89.7225 201.16875)scale(0.08 -0.08)">
       <use xlink:href="#DejaVuSans-30"/>
       <use x="63.623047" xlink:href="#DejaVuSans-36"/>
       <use x="127.246094" xlink:href="#DejaVuSans-3a"/>
       <use x="160.9375" xlink:href="#DejaVuSans-30"/>
       <use x="224.560547" xlink:href="#DejaVuSans-30"/>
      </g>
     </g>
    </g>
    <g id="xtick_40">
     <g id="line2d_91">
      <g>
       <use style="stroke:#000000;stroke-width:0.8;" x="135.675" xlink:href="#m6a2946744b" y="189.84"/>
      </g>
     </g>
     <g id="line2d_92">
      <g>
       <use style="stroke:#000000;stroke-width:0.8;" x="135.675" xlink:href="#m6a2946744b" y="152.88"/>
      </g>
     </g>
     <g id="text_12">
      <!-- 09:00 -->
      <defs>
       <path d="M 10.984375 1.515625 
L 10.984375 10.5 
Q 14.703125 8.734375 18.5 7.8125 
Q 22.3125 6.890625 25.984375 6.890625 
Q 35.75 6.890625 40.890625 13.453125 
Q 46.046875 20.015625 46.78125 33.40625 
Q 43.953125 29.203125 39.59375 26.953125 
Q 35.25 24.703125 29.984375 24.703125 
Q 19.046875 24.703125 12.671875 31.3125 
Q 6.296875 37.9375 6.296875 49.421875 
Q 6.296875 60.640625 12.9375 67.421875 
Q 19.578125 74.21875 30.609375 74.21875 
Q 43.265625 74.21875 49.921875 64.515625 
Q 56.59375 54.828125 56.59375 36.375 
Q 56.59375 19.140625 48.40625 8.859375 
Q 40.234375 -1.421875 26.421875 -1.421875 
Q 22.703125 -1.421875 18.890625 -0.6875 
Q 15.09375 0.046875 10.984375 1.515625 
z
M 30.609375 32.421875 
Q 37.25 32.421875 41.125 36.953125 
Q 45.015625 41.5 45.015625 49.421875 
Q 45.015625 57.28125 41.125 61.84375 
Q 37.25 66.40625 30.609375 66.40625 
Q 23.96875 66.40625 20.09375 61.84375 
Q 16.21875 57.28125 16.21875 49.421875 
Q 16.21875 41.5 20.09375 36.953125 
Q 23.96875 32.421875 30.609375 32.421875 
z
" id="DejaVuSans-39"/>
      </defs>
      <g transform="translate(124.1475 201.16875)scale(0.08 -0.08)">
       <use xlink:href="#DejaVuSans-30"/>
       <use x="63.623047" xlink:href="#DejaVuSans-39"/>
       <use x="127.246094" xlink:href="#DejaVuSans-3a"/>
       <use x="160.9375" xlink:href="#DejaVuSans-30"/>
       <use x="224.560547" xlink:href="#DejaVuSans-30"/>
      </g>
     </g>
    </g>
    <g id="xtick_41">
     <g id="line2d_93">
      <g>
       <use style="stroke:#000000;stroke-width:0.8;" x="170.1" xlink:href="#m6a2946744b" y="189.84"/>
      </g>
     </g>
     <g id="line2d_94">
      <g>
       <use style="stroke:#000000;stroke-width:0.8;" x="170.1" xlink:href="#m6a2946744b" y="152.88"/>
      </g>
     </g>
     <g id="text_13">
      <!-- 12:00 -->
      <defs>
       <path d="M 19.1875 8.296875 
L 53.609375 8.296875 
L 53.609375 0 
L 7.328125 0 
L 7.328125 8.296875 
Q 12.9375 14.109375 22.625 23.890625 
Q 32.328125 33.6875 34.8125 36.53125 
Q 39.546875 41.84375 41.421875 45.53125 
Q 43.3125 49.21875 43.3125 52.78125 
Q 43.3125 58.59375 39.234375 62.25 
Q 35.15625 65.921875 28.609375 65.921875 
Q 23.96875 65.921875 18.8125 64.3125 
Q 13.671875 62.703125 7.8125 59.421875 
L 7.8125 69.390625 
Q 13.765625 71.78125 18.9375 73 
Q 24.125 74.21875 28.421875 74.21875 
Q 39.75 74.21875 46.484375 68.546875 
Q 53.21875 62.890625 53.21875 53.421875 
Q 53.21875 48.921875 51.53125 44.890625 
Q 49.859375 40.875 45.40625 35.40625 
Q 44.1875 33.984375 37.640625 27.21875 
Q 31.109375 20.453125 19.1875 8.296875 
z
" id="DejaVuSans-32"/>
      </defs>
      <g transform="translate(158.5725 201.16875)scale(0.08 -0.08)">
       <use xlink:href="#DejaVuSans-31"/>
       <use x="63.623047" xlink:href="#DejaVuSans-32"/>
       <use x="127.246094" xlink:href="#DejaVuSans-3a"/>
       <use x="160.9375" xlink:href="#DejaVuSans-30"/>
       <use x="224.560547" xlink:href="#DejaVuSans-30"/>
      </g>
     </g>
    </g>
    <g id="xtick_42">
     <g id="line2d_95">
      <g>
       <use style="stroke:#000000;stroke-width:0.8;" x="204.525" xlink:href="#m6a2946744b" y="189.84"/>
      </g>
     </g>
     <g id="line2d_96">
      <g>
       <use style="stroke:#000000;stroke-width:0.8;" x="204.525" xlink:href="#m6a2946744b" y="152.88"/>
      </g>
     </g>
     <g id="text_14">
      <!-- 15:00 -->
      <defs>
       <path d="M 10.796875 72.90625 
L 49.515625 72.90625 
L 49.515625 64.59375 
L 19.828125 64.59375 
L 19.828125 46.734375 
Q 21.96875 47.46875 24.109375 47.828125 
Q 26.265625 48.1875 28.421875 48.1875 
Q 40.625 48.1875 47.75 41.5 
Q 54.890625 34.8125 54.890625 23.390625 
Q 54.890625 11.625 47.5625 5.09375 
Q 40.234375 -1.421875 26.90625 -1.421875 
Q 22.3125 -1.421875 17.546875 -0.640625 
Q 12.796875 0.140625 7.71875 1.703125 
L 7.71875 11.625 
Q 12.109375 9.234375 16.796875 8.0625 
Q 21.484375 6.890625 26.703125 6.890625 
Q 35.15625 6.890625 40.078125 11.328125 
Q 45.015625 15.765625 45.015625 23.390625 
Q 45.015625 31 40.078125 35.4375 
Q 35.15625 39.890625 26.703125 39.890625 
Q 22.75 39.890625 18.8125 39.015625 
Q 14.890625 38.140625 10.796875 36.28125 
z
" id="DejaVuSans-35"/>
      </defs>
      <g transform="translate(192.9975 201.16875)scale(0.08 -0.08)">
       <use xlink:href="#DejaVuSans-31"/>
       <use x="63.623047" xlink:href="#DejaVuSans-35"/>
       <use x="127.246094" xlink:href="#DejaVuSans-3a"/>
       <use x="160.9375" xlink:href="#DejaVuSans-30"/>
       <use x="224.560547" xlink:href="#DejaVuSans-30"/>
      </g>
     </g>
    </g>
    <g id="xtick_43">
     <g id="line2d_97">
      <g>
       <use style="stroke:#000000;stroke-width:0.8;" x="238.95" xlink:href="#m6a2946744b" y="189.84"/>
      </g>
     </g>
     <g id="line2d_98">
      <g>
       <use style="stroke:#000000;stroke-width:0.8;" x="238.95" xlink:href="#m6a2946744b" y="152.88"/>
      </g>
     </g>
     <g id="text_15">
      <!-- 18:00 -->
      <defs>
       <path d="M 31.78125 34.625 
Q 24.75 34.625 20.71875 30.859375 
Q 16.703125 27.09375 16.703125 20.515625 
Q 16.703125 13.921875 20.71875 10.15625 
Q 24.75 6.390625 31.78125 6.390625 
Q 38.8125 6.390625 42.859375 10.171875 
Q 46.921875 13.96875 46.921875 20.515625 
Q 46.921875 27.09375 42.890625 30.859375 
Q 38.875 34.625 31.78125 34.625 
z
M 21.921875 38.8125 
Q 15.578125 40.375 12.03125 44.71875 
Q 8.5 49.078125 8.5 55.328125 
Q 8.5 64.0625 14.71875 69.140625 
Q 20.953125 74.21875 31.78125 74.21875 
Q 42.671875 74.21875 48.875 69.140625 
Q 55.078125 64.0625 55.078125 55.328125 
Q 55.078125 49.078125 51.53125 44.71875 
Q 48 40.375 41.703125 38.8125 
Q 48.828125 37.15625 52.796875 32.3125 
Q 56.78125 27.484375 56.78125 20.515625 
Q 56.78125 9.90625 50.3125 4.234375 
Q 43.84375 -1.421875 31.78125 -1.421875 
Q 19.734375 -1.421875 13.25 4.234375 
Q 6.78125 9.90625 6.78125 20.515625 
Q 6.78125 27.484375 10.78125 32.3125 
Q 14.796875 37.15625 21.921875 38.8125 
z
M 18.3125 54.390625 
Q 18.3125 48.734375 21.84375 45.5625 
Q 25.390625 42.390625 31.78125 42.390625 
Q 38.140625 42.390625 41.71875 45.5625 
Q 45.3125 48.734375 45.3125 54.390625 
Q 45.3125 60.0625 41.71875 63.234375 
Q 38.140625 66.40625 31.78125 66.40625 
Q 25.390625 66.40625 21.84375 63.234375 
Q 18.3125 60.0625 18.3125 54.390625 
z
" id="DejaVuSans-38"/>
      </defs>
      <g transform="translate(227.4225 201.16875)scale(0.08 -0.08)">
       <use xlink:href="#DejaVuSans-31"/>
       <use x="63.623047" xlink:href="#DejaVuSans-38"/>
       <use x="127.246094" xlink:href="#DejaVuSans-3a"/>
       <use x="160.9375" xlink:href="#DejaVuSans-30"/>
       <use x="224.560547" xlink:href="#DejaVuSans-30"/>
      </g>
     </g>
    </g>
    <g id="xtick_44">
     <g id="line2d_99">
      <g>
       <use style="stroke:#000000;stroke-width:0.8;" x="273.375" xlink:href="#m6a2946744b" y="189.84"/>
      </g>
     </g>
     <g id="line2d_100">
      <g>
       <use style="stroke:#000000;stroke-width:0.8;" x="273.375" xlink:href="#m6a2946744b" y="152.88"/>
      </g>
     </g>
     <g id="text_16">
      <!-- 21:00 -->
      <g transform="translate(261.8475 201.16875)scale(0.08 -0.08)">
       <use xlink:href="#DejaVuSans-32"/>
       <use x="63.623047" xlink:href="#DejaVuSans-31"/>
       <use x="127.246094" xlink:href="#DejaVuSans-3a"/>
       <use x="160.9375" xlink:href="#DejaVuSans-30"/>
       <use x="224.560547" xlink:href="#DejaVuSans-30"/>
      </g>
     </g>
    </g>
    <g id="xtick_45">
     <g id="line2d_101">
      <g>
       <use style="stroke:#000000;stroke-width:0.8;" x="307.8" xlink:href="#m6a2946744b" y="189.84"/>
      </g>
     </g>
     <g id="line2d_102">
      <g>
       <use style="stroke:#000000;stroke-width:0.8;" x="307.8" xlink:href="#m6a2946744b" y="152.88"/>
      </g>
     </g>
     <g id="text_17">
      <!-- 00:00 -->
      <g transform="translate(296.2725 201.16875)scale(0.08 -0.08)">
       <use xlink:href="#DejaVuSans-30"/>
       <use x="63.623047" xlink:href="#DejaVuSans-30"/>
       <use x="127.246094" xlink:href="#DejaVuSans-3a"/>
       <use x="160.9375" xlink:href="#DejaVuSans-30"/>
       <use x="224.560547" xlink:href="#DejaVuSans-30"/>
      </g>
     </g>
    </g>
    <g id="text_18">
     <!-- Universal time, 22 Jan 2005 -->
     <defs>
      <path d="M 54.890625 33.015625 
L 54.890625 0 
L 45.90625 0 
L 45.90625 32.71875 
Q 45.90625 40.484375 42.875 44.328125 
Q 39.84375 48.1875 33.796875 48.1875 
Q 26.515625 48.1875 22.3125 43.546875 
Q 18.109375 38.921875 18.109375 30.90625 
L 18.109375 0 
L 9.078125 0 
L 9.078125 54.6875 
L 18.109375 54.6875 
L 18.109375 46.1875 
Q 21.34375 51.125 25.703125 53.5625 
Q 30.078125 56 35.796875 56 
Q 45.21875 56 50.046875 50.171875 
Q 54.890625 44.34375 54.890625 33.015625 
z
" id="DejaVuSans-6e"/>
      <path d="M 9.421875 54.6875 
L 18.40625 54.6875 
L 18.40625 0 
L 9.421875 0 
z
M 9.421875 75.984375 
L 18.40625 75.984375 
L 18.40625 64.59375 
L 9.421875 64.59375 
z
" id="DejaVuSans-69"/>
      <path d="M 2.984375 54.6875 
L 12.5 54.6875 
L 29.59375 8.796875 
L 46.6875 54.6875 
L 56.203125 54.6875 
L 35.6875 0 
L 23.484375 0 
z
" id="DejaVuSans-76"/>
      <path d="M 56.203125 29.59375 
L 56.203125 25.203125 
L 14.890625 25.203125 
Q 15.484375 15.921875 20.484375 11.0625 
Q 25.484375 6.203125 34.421875 6.203125 
Q 39.59375 6.203125 44.453125 7.46875 
Q 49.3125 8.734375 54.109375 11.28125 
L 54.109375 2.78125 
Q 49.265625 0.734375 44.1875 -0.34375 
Q 39.109375 -1.421875 33.890625 -1.421875 
Q 20.796875 -1.421875 13.15625 6.1875 
Q 5.515625 13.8125 5.515625 26.8125 
Q 5.515625 40.234375 12.765625 48.109375 
Q 20.015625 56 32.328125 56 
Q 43.359375 56 49.78125 48.890625 
Q 56.203125 41.796875 56.203125 29.59375 
z
M 47.21875 32.234375 
Q 47.125 39.59375 43.09375 43.984375 
Q 39.0625 48.390625 32.421875 48.390625 
Q 24.90625 48.390625 20.390625 44.140625 
Q 15.875 39.890625 15.1875 32.171875 
z
" id="DejaVuSans-65"/>
      <path d="M 41.109375 46.296875 
Q 39.59375 47.171875 37.8125 47.578125 
Q 36.03125 48 33.890625 48 
Q 26.265625 48 22.1875 43.046875 
Q 18.109375 38.09375 18.109375 28.8125 
L 18.109375 0 
L 9.078125 0 
L 9.078125 54.6875 
L 18.109375 54.6875 
L 18.109375 46.1875 
Q 20.953125 51.171875 25.484375 53.578125 
Q 30.03125 56 36.53125 56 
Q 37.453125 56 38.578125 55.875 
Q 39.703125 55.765625 41.0625 55.515625 
z
" id="DejaVuSans-72"/>
      <path d="M 44.28125 53.078125 
L 44.28125 44.578125 
Q 40.484375 46.53125 36.375 47.5 
Q 32.28125 48.484375 27.875 48.484375 
Q 21.1875 48.484375 17.84375 46.4375 
Q 14.5 44.390625 14.5 40.28125 
Q 14.5 37.15625 16.890625 35.375 
Q 19.28125 33.59375 26.515625 31.984375 
L 29.59375 31.296875 
Q 39.15625 29.25 43.1875 25.515625 
Q 47.21875 21.78125 47.21875 15.09375 
Q 47.21875 7.46875 41.1875 3.015625 
Q 35.15625 -1.421875 24.609375 -1.421875 
Q 20.21875 -1.421875 15.453125 -0.5625 
Q 10.6875 0.296875 5.421875 2 
L 5.421875 11.28125 
Q 10.40625 8.6875 15.234375 7.390625 
Q 20.0625 6.109375 24.8125 6.109375 
Q 31.15625 6.109375 34.5625 8.28125 
Q 37.984375 10.453125 37.984375 14.40625 
Q 37.984375 18.0625 35.515625 20.015625 
Q 33.0625 21.96875 24.703125 23.78125 
L 21.578125 24.515625 
Q 13.234375 26.265625 9.515625 29.90625 
Q 5.8125 33.546875 5.8125 39.890625 
Q 5.8125 47.609375 11.28125 51.796875 
Q 16.75 56 26.8125 56 
Q 31.78125 56 36.171875 55.265625 
Q 40.578125 54.546875 44.28125 53.078125 
z
" id="DejaVuSans-73"/>
      <path d="M 34.28125 27.484375 
Q 23.390625 27.484375 19.1875 25 
Q 14.984375 22.515625 14.984375 16.5 
Q 14.984375 11.71875 18.140625 8.90625 
Q 21.296875 6.109375 26.703125 6.109375 
Q 34.1875 6.109375 38.703125 11.40625 
Q 43.21875 16.703125 43.21875 25.484375 
L 43.21875 27.484375 
z
M 52.203125 31.203125 
L 52.203125 0 
L 43.21875 0 
L 43.21875 8.296875 
Q 40.140625 3.328125 35.546875 0.953125 
Q 30.953125 -1.421875 24.3125 -1.421875 
Q 15.921875 -1.421875 10.953125 3.296875 
Q 6 8.015625 6 15.921875 
Q 6 25.140625 12.171875 29.828125 
Q 18.359375 34.515625 30.609375 34.515625 
L 43.21875 34.515625 
L 43.21875 35.40625 
Q 43.21875 41.609375 39.140625 45 
Q 35.0625 48.390625 27.6875 48.390625 
Q 23 48.390625 18.546875 47.265625 
Q 14.109375 46.140625 10.015625 43.890625 
L 10.015625 52.203125 
Q 14.9375 54.109375 19.578125 55.046875 
Q 24.21875 56 28.609375 56 
Q 40.484375 56 46.34375 49.84375 
Q 52.203125 43.703125 52.203125 31.203125 
z
" id="DejaVuSans-61"/>
      <path d="M 9.421875 75.984375 
L 18.40625 75.984375 
L 18.40625 0 
L 9.421875 0 
z
" id="DejaVuSans-6c"/>
      <path id="DejaVuSans-20"/>
      <path d="M 18.3125 70.21875 
L 18.3125 54.6875 
L 36.8125 54.6875 
L 36.8125 47.703125 
L 18.3125 47.703125 
L 18.3125 18.015625 
Q 18.3125 11.328125 20.140625 9.421875 
Q 21.96875 7.515625 27.59375 7.515625 
L 36.8125 7.515625 
L 36.8125 0 
L 27.59375 0 
Q 17.1875 0 13.234375 3.875 
Q 9.28125 7.765625 9.28125 18.015625 
L 9.28125 47.703125 
L 2.6875 47.703125 
L 2.6875 54.6875 
L 9.28125 54.6875 
L 9.28125 70.21875 
z
" id="DejaVuSans-74"/>
      <path d="M 52 44.1875 
Q 55.375 50.25 60.0625 53.125 
Q 64.75 56 71.09375 56 
Q 79.640625 56 84.28125 50.015625 
Q 88.921875 44.046875 88.921875 33.015625 
L 88.921875 0 
L 79.890625 0 
L 79.890625 32.71875 
Q 79.890625 40.578125 77.09375 44.375 
Q 74.3125 48.1875 68.609375 48.1875 
Q 61.625 48.1875 57.5625 43.546875 
Q 53.515625 38.921875 53.515625 30.90625 
L 53.515625 0 
L 44.484375 0 
L 44.484375 32.71875 
Q 44.484375 40.625 41.703125 44.40625 
Q 38.921875 48.1875 33.109375 48.1875 
Q 26.21875 48.1875 22.15625 43.53125 
Q 18.109375 38.875 18.109375 30.90625 
L 18.109375 0 
L 9.078125 0 
L 9.078125 54.6875 
L 18.109375 54.6875 
L 18.109375 46.1875 
Q 21.1875 51.21875 25.484375 53.609375 
Q 29.78125 56 35.6875 56 
Q 41.65625 56 45.828125 52.96875 
Q 50 49.953125 52 44.1875 
z
" id="DejaVuSans-6d"/>
      <path d="M 11.71875 12.40625 
L 22.015625 12.40625 
L 22.015625 4 
L 14.015625 -11.625 
L 7.71875 -11.625 
L 11.71875 4 
z
" id="DejaVuSans-2c"/>
      <path d="M 9.8125 72.90625 
L 19.671875 72.90625 
L 19.671875 5.078125 
Q 19.671875 -8.109375 14.671875 -14.0625 
Q 9.671875 -20.015625 -1.421875 -20.015625 
L -5.171875 -20.015625 
L -5.171875 -11.71875 
L -2.09375 -11.71875 
Q 4.4375 -11.71875 7.125 -8.046875 
Q 9.8125 -4.390625 9.8125 5.078125 
z
" id="DejaVuSans-4a"/>
     </defs>
     <g transform="translate(114.5775 212.91125)scale(0.08 -0.08)">
      <use xlink:href="#DejaVuSans-55"/>
      <use x="73.193359" xlink:href="#DejaVuSans-6e"/>
      <use x="136.572266" xlink:href="#DejaVuSans-69"/>
      <use x="164.355469" xlink:href="#DejaVuSans-76"/>
      <use x="223.535156" xlink:href="#DejaVuSans-65"/>
      <use x="285.058594" xlink:href="#DejaVuSans-72"/>
      <use x="326.171875" xlink:href="#DejaVuSans-73"/>
      <use x="378.271484" xlink:href="#DejaVuSans-61"/>
      <use x="439.550781" xlink:href="#DejaVuSans-6c"/>
      <use x="467.333984" xlink:href="#DejaVuSans-20"/>
      <use x="499.121094" xlink:href="#DejaVuSans-74"/>
      <use x="538.330078" xlink:href="#DejaVuSans-69"/>
      <use x="566.113281" xlink:href="#DejaVuSans-6d"/>
      <use x="663.525391" xlink:href="#DejaVuSans-65"/>
      <use x="725.048828" xlink:href="#DejaVuSans-2c"/>
      <use x="756.835938" xlink:href="#DejaVuSans-20"/>
      <use x="788.623047" xlink:href="#DejaVuSans-32"/>
      <use x="852.246094" xlink:href="#DejaVuSans-32"/>
      <use x="915.869141" xlink:href="#DejaVuSans-20"/>
      <use x="947.65625" xlink:href="#DejaVuSans-4a"/>
      <use x="977.148438" xlink:href="#DejaVuSans-61"/>
      <use x="1038.427734" xlink:href="#DejaVuSans-6e"/>
      <use x="1101.806641" xlink:href="#DejaVuSans-20"/>
      <use x="1133.59375" xlink:href="#DejaVuSans-32"/>
      <use x="1197.216797" xlink:href="#DejaVuSans-30"/>
      <use x="1260.839844" xlink:href="#DejaVuSans-30"/>
      <use x="1324.462891" xlink:href="#DejaVuSans-35"/>
     </g>
    </g>
   </g>
   <g id="matplotlib.axis_10">
    <g id="ytick_9">
     <g id="line2d_103">
      <g>
       <use style="stroke:#000000;stroke-width:0.8;" x="32.4" xlink:href="#m9cc31f6070" y="188.16"/>
      </g>
     </g>
    </g>
    <g id="ytick_10">
     <g id="line2d_104">
      <g>
       <use style="stroke:#000000;stroke-width:0.8;" x="32.4" xlink:href="#m9cc31f6070" y="173.016475"/>
      </g>
     </g>
     <g id="text_19">
      <!-- 1 -->
      <g transform="translate(20.31 176.05585)scale(0.08 -0.08)">
       <use xlink:href="#DejaVuSans-31"/>
      </g>
     </g>
    </g>
    <g id="ytick_11">
     <g id="line2d_105">
      <g>
       <use style="stroke:#000000;stroke-width:0.8;" x="32.4" xlink:href="#m9cc31f6070" y="157.872949"/>
      </g>
     </g>
     <g id="text_20">
      <!-- 2 -->
      <g transform="translate(20.31 160.912324)scale(0.08 -0.08)">
       <use xlink:href="#DejaVuSans-32"/>
      </g>
     </g>
    </g>
    <g id="text_21">
     <!-- Dipolar- -->
     <defs>
      <path d="M 19.671875 64.796875 
L 19.671875 8.109375 
L 31.59375 8.109375 
Q 46.6875 8.109375 53.6875 14.9375 
Q 60.6875 21.78125 60.6875 36.53125 
Q 60.6875 51.171875 53.6875 57.984375 
Q 46.6875 64.796875 31.59375 64.796875 
z
M 9.8125 72.90625 
L 30.078125 72.90625 
Q 51.265625 72.90625 61.171875 64.09375 
Q 71.09375 55.28125 71.09375 36.53125 
Q 71.09375 17.671875 61.125 8.828125 
Q 51.171875 0 30.078125 0 
L 9.8125 0 
z
" id="DejaVuSans-44"/>
      <path d="M 18.109375 8.203125 
L 18.109375 -20.796875 
L 9.078125 -20.796875 
L 9.078125 54.6875 
L 18.109375 54.6875 
L 18.109375 46.390625 
Q 20.953125 51.265625 25.265625 53.625 
Q 29.59375 56 35.59375 56 
Q 45.5625 56 51.78125 48.09375 
Q 58.015625 40.1875 58.015625 27.296875 
Q 58.015625 14.40625 51.78125 6.484375 
Q 45.5625 -1.421875 35.59375 -1.421875 
Q 29.59375 -1.421875 25.265625 0.953125 
Q 20.953125 3.328125 18.109375 8.203125 
z
M 48.6875 27.296875 
Q 48.6875 37.203125 44.609375 42.84375 
Q 40.53125 48.484375 33.40625 48.484375 
Q 26.265625 48.484375 22.1875 42.84375 
Q 18.109375 37.203125 18.109375 27.296875 
Q 18.109375 17.390625 22.1875 11.75 
Q 26.265625 6.109375 33.40625 6.109375 
Q 40.53125 6.109375 44.609375 11.75 
Q 48.6875 17.390625 48.6875 27.296875 
z
" id="DejaVuSans-70"/>
      <path d="M 30.609375 48.390625 
Q 23.390625 48.390625 19.1875 42.75 
Q 14.984375 37.109375 14.984375 27.296875 
Q 14.984375 17.484375 19.15625 11.84375 
Q 23.34375 6.203125 30.609375 6.203125 
Q 37.796875 6.203125 41.984375 11.859375 
Q 46.1875 17.53125 46.1875 27.296875 
Q 46.1875 37.015625 41.984375 42.703125 
Q 37.796875 48.390625 30.609375 48.390625 
z
M 30.609375 56 
Q 42.328125 56 49.015625 48.375 
Q 55.71875 40.765625 55.71875 27.296875 
Q 55.71875 13.875 49.015625 6.21875 
Q 42.328125 -1.421875 30.609375 -1.421875 
Q 18.84375 -1.421875 12.171875 6.21875 
Q 5.515625 13.875 5.515625 27.296875 
Q 5.515625 40.765625 12.171875 48.375 
Q 18.84375 56 30.609375 56 
z
" id="DejaVuSans-6f"/>
      <path d="M 4.890625 31.390625 
L 31.203125 31.390625 
L 31.203125 23.390625 
L 4.890625 23.390625 
z
" id="DejaVuSans-2d"/>
     </defs>
     <g transform="translate(5.688 187.184375)rotate(-90)scale(0.08 -0.08)">
      <use xlink:href="#DejaVuSans-44"/>
      <use x="77.001953" xlink:href="#DejaVuSans-69"/>
      <use x="104.785156" xlink:href="#DejaVuSans-70"/>
      <use x="168.261719" xlink:href="#DejaVuSans-6f"/>
      <use x="229.443359" xlink:href="#DejaVuSans-6c"/>
      <use x="257.226562" xlink:href="#DejaVuSans-61"/>
      <use x="318.505859" xlink:href="#DejaVuSans-72"/>
      <use x="359.525391" xlink:href="#DejaVuSans-2d"/>
     </g>
     <!-- izations -->
     <defs>
      <path d="M 5.515625 54.6875 
L 48.1875 54.6875 
L 48.1875 46.484375 
L 14.40625 7.171875 
L 48.1875 7.171875 
L 48.1875 0 
L 4.296875 0 
L 4.296875 8.203125 
L 38.09375 47.515625 
L 5.515625 47.515625 
z
" id="DejaVuSans-7a"/>
     </defs>
     <g transform="translate(14.64625 186.7675)rotate(-90)scale(0.08 -0.08)">
      <use xlink:href="#DejaVuSans-69"/>
      <use x="27.783203" xlink:href="#DejaVuSans-7a"/>
      <use x="80.273438" xlink:href="#DejaVuSans-61"/>
      <use x="141.552734" xlink:href="#DejaVuSans-74"/>
      <use x="180.761719" xlink:href="#DejaVuSans-69"/>
      <use x="208.544922" xlink:href="#DejaVuSans-6f"/>
      <use x="269.726562" xlink:href="#DejaVuSans-6e"/>
      <use x="333.105469" xlink:href="#DejaVuSans-73"/>
     </g>
    </g>
   </g>
   <g id="line2d_106">
    <path clip-path="url(#pfd877a88f2)" d="M 32.4 176.443262 
L 33.5475 170.747605 
L 34.3125 168.139927 
L 35.0775 166.452056 
L 36.41625 163.828785 
L 37.18125 161.713461 
L 39.285 155.012492 
L 39.6675 154.565855 
L 39.85875 154.56 
L 40.05 154.721008 
L 40.4325 155.588855 
L 40.815 157.213939 
L 41.38875 160.965753 
L 42.345 169.405564 
L 43.4925 179.09882 
L 44.2575 183.498571 
L 44.83125 185.589867 
L 45.405 186.857312 
L 45.97875 187.553518 
L 46.5525 187.900828 
L 47.3175 188.08706 
L 48.8475 188.156369 
L 53.82 188.094613 
L 54.77625 187.859536 
L 55.35 187.49464 
L 55.92375 186.813413 
L 56.4975 185.669277 
L 57.07125 183.949535 
L 57.83625 180.788855 
L 59.175 174.795886 
L 59.74875 173.316337 
L 60.13125 173.016475 
L 60.3225 173.092003 
L 60.705 173.682828 
L 61.0875 174.795886 
L 61.8525 178.05962 
L 63.19125 183.949535 
L 63.765 185.669277 
L 64.33875 186.813413 
L 64.9125 187.49464 
L 65.48625 187.859536 
L 66.25125 188.069502 
L 67.59 188.152459 
L 76.77 188.16 
L 85.5675 188.069502 
L 86.3325 187.859536 
L 86.90625 187.49464 
L 87.48 186.813413 
L 88.05375 185.669277 
L 88.6275 183.949535 
L 89.3925 180.788855 
L 90.73125 174.795886 
L 91.305 173.316337 
L 91.6875 173.016475 
L 91.87875 173.092003 
L 92.26125 173.682828 
L 92.64375 174.795886 
L 93.40875 178.05962 
L 94.7475 183.949535 
L 95.32125 185.669277 
L 95.895 186.813413 
L 96.46875 187.49464 
L 97.0425 187.859536 
L 97.8075 188.069502 
L 99.14625 188.152459 
L 108.32625 188.16 
L 307.8 188.16 
L 307.8 188.16 
" style="fill:none;stroke:#1f77b4;stroke-linecap:square;stroke-width:1.5;"/>
   </g>
   <g id="patch_23">
    <path d="M 32.4 189.84 
L 32.4 152.88 
" style="fill:none;stroke:#000000;stroke-linecap:square;stroke-linejoin:miter;stroke-width:0.8;"/>
   </g>
   <g id="patch_24">
    <path d="M 307.8 189.84 
L 307.8 152.88 
" style="fill:none;stroke:#000000;stroke-linecap:square;stroke-linejoin:miter;stroke-width:0.8;"/>
   </g>
   <g id="patch_25">
    <path d="M 32.4 189.84 
L 307.8 189.84 
" style="fill:none;stroke:#000000;stroke-linecap:square;stroke-linejoin:miter;stroke-width:0.8;"/>
   </g>
   <g id="patch_26">
    <path d="M 32.4 152.88 
L 307.8 152.88 
" style="fill:none;stroke:#000000;stroke-linecap:square;stroke-linejoin:miter;stroke-width:0.8;"/>
   </g>
  </g>
 </g>
 <defs>
  <clipPath id="pf5c2100e86">
   <rect height="36.96" width="275.4" x="32.4" y="5.04"/>
  </clipPath>
  <clipPath id="p3bcde20407">
   <rect height="36.96" width="275.4" x="32.4" y="42"/>
  </clipPath>
  <clipPath id="pa0c6028113">
   <rect height="36.96" width="275.4" x="32.4" y="78.96"/>
  </clipPath>
  <clipPath id="pa32f74f663">
   <rect height="36.96" width="275.4" x="32.4" y="115.92"/>
  </clipPath>
  <clipPath id="pfd877a88f2">
   <rect height="36.96" width="275.4" x="32.4" y="152.88"/>
  </clipPath>
 </defs>
</svg>
