<?xml version="1.0" encoding="UTF-8" standalone="no"?>
<!-- Created with Inkscape (http://www.inkscape.org/) -->

<svg
   xmlns:dc="http://purl.org/dc/elements/1.1/"
   xmlns:cc="http://creativecommons.org/ns#"
   xmlns:rdf="http://www.w3.org/1999/02/22-rdf-syntax-ns#"
   xmlns:svg="http://www.w3.org/2000/svg"
   xmlns="http://www.w3.org/2000/svg"
   xmlns:sodipodi="http://sodipodi.sourceforge.net/DTD/sodipodi-0.dtd"
   xmlns:inkscape="http://www.inkscape.org/namespaces/inkscape"
   version="1.1"
   id="svg2"
   xml:space="preserve"
   width="528"
   height="240"
   viewBox="0 0 528 240"
   sodipodi:docname="Sym_H_interpolated_error.svg"
   inkscape:version="0.92.3 (2405546, 2018-03-11)"><metadata
     id="metadata8"><rdf:RDF><cc:Work
         rdf:about=""><dc:format>image/svg+xml</dc:format><dc:type
           rdf:resource="http://purl.org/dc/dcmitype/StillImage" /><dc:title></dc:title></cc:Work></rdf:RDF></metadata><defs
     id="defs6"><clipPath
       clipPathUnits="userSpaceOnUse"
       id="clipPath22"><path
         d="M 47.745,36.72 H 186.19312 V 165.78 H 47.745 Z"
         id="path20"
         inkscape:connector-curvature="0" /></clipPath><clipPath
       clipPathUnits="userSpaceOnUse"
       id="clipPath32"><path
         d="M 47.745,36.72 H 186.19312 V 165.78 H 47.745 Z"
         id="path30"
         inkscape:connector-curvature="0" /></clipPath><clipPath
       clipPathUnits="userSpaceOnUse"
       id="clipPath42"><path
         d="M 47.745,36.72 H 186.19312 V 165.78 H 47.745 Z"
         id="path40"
         inkscape:connector-curvature="0" /></clipPath><clipPath
       clipPathUnits="userSpaceOnUse"
       id="clipPath52"><path
         d="M 47.745,36.72 H 186.19312 V 165.78 H 47.745 Z"
         id="path50"
         inkscape:connector-curvature="0" /></clipPath><clipPath
       clipPathUnits="userSpaceOnUse"
       id="clipPath84"><path
         d="M -184,-236 H 1288 V 929 H -184 Z"
         id="path82"
         inkscape:connector-curvature="0" /></clipPath><clipPath
       clipPathUnits="userSpaceOnUse"
       id="clipPath106"><path
         d="M -184,-236 H 1288 V 929 H -184 Z"
         id="path104"
         inkscape:connector-curvature="0" /></clipPath><clipPath
       clipPathUnits="userSpaceOnUse"
       id="clipPath210"><path
         d="M 208.23187,36.72 H 346.68 V 165.78 H 208.23187 Z"
         id="path208"
         inkscape:connector-curvature="0" /></clipPath><clipPath
       clipPathUnits="userSpaceOnUse"
       id="clipPath220"><path
         d="M 208.23187,36.72 H 346.68 V 165.78 H 208.23187 Z"
         id="path218"
         inkscape:connector-curvature="0" /></clipPath><clipPath
       clipPathUnits="userSpaceOnUse"
       id="clipPath230"><path
         d="M 208.23187,36.72 H 346.68 V 165.78 H 208.23187 Z"
         id="path228"
         inkscape:connector-curvature="0" /></clipPath><clipPath
       clipPathUnits="userSpaceOnUse"
       id="clipPath240"><path
         d="M 208.23187,36.72 H 346.68 V 165.78 H 208.23187 Z"
         id="path238"
         inkscape:connector-curvature="0" /></clipPath><clipPath
       clipPathUnits="userSpaceOnUse"
       id="clipPath272"><path
         d="M -184,-236 H 1288 V 929 H -184 Z"
         id="path270"
         inkscape:connector-curvature="0" /></clipPath><clipPath
       clipPathUnits="userSpaceOnUse"
       id="clipPath294"><path
         d="M -184,-236 H 1288 V 929 H -184 Z"
         id="path292"
         inkscape:connector-curvature="0" /></clipPath><clipPath
       clipPathUnits="userSpaceOnUse"
       id="clipPath316"><path
         d="M -184,-236 H 1288 V 929 H -184 Z"
         id="path314"
         inkscape:connector-curvature="0" /></clipPath><clipPath
       clipPathUnits="userSpaceOnUse"
       id="clipPath338"><path
         d="M -184,-236 H 1288 V 929 H -184 Z"
         id="path336"
         inkscape:connector-curvature="0" /></clipPath></defs><sodipodi:namedview
     pagecolor="#ffffff"
     bordercolor="#666666"
     borderopacity="1"
     objecttolerance="10"
     gridtolerance="10"
     guidetolerance="10"
     inkscape:pageopacity="0"
     inkscape:pageshadow="2"
     inkscape:window-width="1366"
     inkscape:window-height="704"
     id="namedview4"
     showgrid="false"
     inkscape:zoom="0.77083333"
     inkscape:cx="264"
     inkscape:cy="120"
     inkscape:window-x="0"
     inkscape:window-y="27"
     inkscape:window-maximized="1"
     inkscape:current-layer="g10" /><g
     id="g10"
     inkscape:groupmode="layer"
     inkscape:label="Sym_H_error_interpolated"
     transform="matrix(1.3333333,0,0,-1.3333333,0,240)"><path
       d="M 0,0 H 396 V 180 H 0 Z"
       style="fill:#ffffff;fill-opacity:1;fill-rule:nonzero;stroke:none"
       id="path12"
       inkscape:connector-curvature="0" /><g
       id="g56"><g
         id="g2126"
         transform="translate(-172.21622)"><g
           transform="translate(323.02704)"
           id="g1307"><path
             d="M 47.745,36.72 H 186.19312 V 165.78 H 47.745 Z"
             style="fill:#ffffff;fill-opacity:1;fill-rule:nonzero;stroke:none"
             id="path14"
             inkscape:connector-curvature="0" /><g
             id="g16"><g
               id="g18"
               clip-path="url(#clipPath22)"><path
                 d="M 109.2775,36.72 V 165.78"
                 style="fill:none;stroke:#000000;stroke-width:0.5;stroke-linecap:butt;stroke-linejoin:round;stroke-miterlimit:10;stroke-dasharray:1, 3;stroke-dashoffset:0;stroke-opacity:1"
                 id="path24"
                 inkscape:connector-curvature="0" /></g></g><g
             id="g26"><g
               id="g28"
               clip-path="url(#clipPath32)"><path
                 d="m 47.745,36.870274 2.782877,0.145731 4.174315,0.43397 3.478596,-0.106014 2.087158,0.0759 4.174315,0.375651 1.391439,-0.03494 2.782877,-0.329158 2.087157,0.160491 2.782877,0.278146 1.391439,0.06923 0.695719,0.120065 1.391438,0.584136 1.391439,0.730081 0.695719,0.195552 1.391438,-0.01016 1.391439,-0.07272 0.695719,0.127082 0.695719,0.288038 1.391439,0.991247 2.087157,1.656588 2.087158,1.408042 2.087158,1.104335 1.391438,0.70049 0.695719,0.620654 0.69572,0.961693 1.391438,2.774365 4.870035,11.368382 0.695718,1.854747 1.39144,4.590827 1.39144,4.661335 0.69572,1.867138 2.78287,5.874269 0.69572,0.81491 0.69572,-0.456031 0.69572,-1.882108 4.87004,-19.833121 0.69572,-2.364993 0.69571,-1.880832 0.69572,-1.40448 1.39144,-2.270962 1.39144,-2.896122 2.78288,-6.250877 0.69572,-1.324839 0.69572,-1.064112 0.69571,-0.785895 1.39144,-0.995652 1.39144,-0.620961 1.39144,-0.308864 2.08716,-0.08669 29.2202,-0.0038 h 27.13305 v 0"
                 style="fill:none;stroke:#ff0e00;stroke-width:1.5;stroke-linecap:square;stroke-linejoin:round;stroke-miterlimit:10;stroke-dasharray:none;stroke-opacity:1"
                 id="path34"
                 inkscape:connector-curvature="0" /></g></g><g
             id="g36"><g
               id="g38"
               clip-path="url(#clipPath42)"><path
                 d="m 47.745,36.739395 6.957192,0.132487 4.870035,0.138387 11.827227,1.071866 7.652911,1.306348 5.565754,0.925886 1.391438,0.568433 0.695719,0.441751 0.69572,0.578524 0.695719,0.742587 1.391438,2.023601 1.391439,2.321059 0.695719,0.946338 0.695719,0.6677 0.695719,0.391212 2.087158,0.731386 0.695719,0.622738 0.695719,0.976452 0.69572,1.31533 2.782877,5.996701 2.087158,3.430886 1.39144,3.298454 2.78287,7.776855 1.39144,3.900184 0.69572,1.199055 0.69572,0.125447 0.69572,-1.160265 0.69572,-2.31683 2.78288,-12.186555 1.39144,-4.545624 3.47859,-10.073559 1.39144,-3.46931 0.69572,-1.324189 0.69572,-0.988353 0.69572,-0.683725 0.69572,-0.445901 0.69572,-0.266676 0.69571,-0.120682 1.39144,0.06719 1.39144,0.102636 1.39144,-0.216957 1.39144,-0.574016 3.47859,-1.737395 1.39144,-0.472561 2.08716,-0.418012 2.78288,-0.301935 4.87003,-0.321473 4.87004,0.138046 6.95719,0.530103 2.08716,0.24819 1.39143,-0.0056 2.78288,-0.332558 2.78288,-0.31101 2.78288,-0.102718 3.47859,-0.01755 4.87004,-0.32834 10.43578,-0.01341 v 0"
                 style="fill:none;stroke:#ffa300;stroke-width:1.5;stroke-linecap:square;stroke-linejoin:round;stroke-miterlimit:10;stroke-dasharray:none;stroke-opacity:1"
                 id="path44"
                 inkscape:connector-curvature="0" /></g></g><g
             id="g46"><g
               id="g48"
               clip-path="url(#clipPath52)"><path
                 d="m 47.745,36.72 44.52603,0.08989 2.782877,0.271913 2.087158,0.328001 1.391438,0.427817 1.391439,0.841529 1.391438,1.335982 1.39144,1.799988 4.17431,6.049296 1.39144,1.577784 2.78288,2.809979 0.69572,1.115833 0.69572,1.480481 1.39144,3.845661 1.39143,3.950318 0.69572,1.646334 0.69572,1.341345 0.69572,0.999803 0.69572,0.605158 0.69572,0.157468 0.69572,-0.294343 0.69572,-0.665363 2.08716,-2.623057 0.69572,-0.661984 1.39143,-0.894558 2.08716,-1.072676 0.69572,-0.547972 0.69572,-0.722867 1.39144,-1.926308 2.08716,-3.551026 1.39143,-2.387935 1.39144,-1.915849 1.39144,-1.285709 2.78288,-2.031489 1.39144,-1.436909 2.08715,-2.347034 1.39144,-1.029935 1.39144,-0.579036 2.78288,-0.757467 2.08716,-0.342718 4.87003,-0.471956 4.87003,-0.168785 2.08716,-0.443652 4.17432,-1.191392 1.39144,-0.09535 8.34863,-0.08744 2.78287,-0.128835 2.78288,-0.04955 5.56575,-0.522797 v 0"
                 style="fill:none;stroke:#0077ff;stroke-width:1.5;stroke-linecap:square;stroke-linejoin:round;stroke-miterlimit:10;stroke-dasharray:none;stroke-opacity:1"
                 id="path54"
                 inkscape:connector-curvature="0" /></g></g><path
             d="M 47.745,165.78 H 186.19312"
             style="fill:none;stroke:#000000;stroke-width:1;stroke-linecap:square;stroke-linejoin:miter;stroke-miterlimit:10;stroke-dasharray:none;stroke-opacity:1"
             id="path58"
             inkscape:connector-curvature="0" /><path
             d="M 186.19312,36.72 V 165.78"
             style="fill:none;stroke:#000000;stroke-width:1;stroke-linecap:square;stroke-linejoin:miter;stroke-miterlimit:10;stroke-dasharray:none;stroke-opacity:1"
             id="path60"
             inkscape:connector-curvature="0" /><path
             d="M 47.745,36.72 H 186.19312"
             style="fill:none;stroke:#000000;stroke-width:1;stroke-linecap:square;stroke-linejoin:miter;stroke-miterlimit:10;stroke-dasharray:none;stroke-opacity:1"
             id="path62"
             inkscape:connector-curvature="0" /><path
             d="M 47.745,36.72 V 165.78"
             style="fill:none;stroke:#000000;stroke-width:1;stroke-linecap:square;stroke-linejoin:miter;stroke-miterlimit:10;stroke-dasharray:none;stroke-opacity:1"
             id="path64"
             inkscape:connector-curvature="0" /><path
             d="m 47.745,36.72 v 4"
             style="fill:#000000;fill-opacity:1;fill-rule:nonzero;stroke:#000000;stroke-width:0.5;stroke-linecap:butt;stroke-linejoin:round;stroke-miterlimit:10;stroke-dasharray:none;stroke-opacity:1"
             id="path66"
             inkscape:connector-curvature="0" /><path
             d="m 47.745,165.78 v -4"
             style="fill:#000000;fill-opacity:1;fill-rule:nonzero;stroke:#000000;stroke-width:0.5;stroke-linecap:butt;stroke-linejoin:round;stroke-miterlimit:10;stroke-dasharray:none;stroke-opacity:1"
             id="path68"
             inkscape:connector-curvature="0" /><g
             id="g70"
             transform="translate(38.237187,25.87625)"><text
               transform="matrix(1,0,0,-1,7.5410156,0)"
               style="font-variant:normal;font-weight:normal;font-size:9px;font-family:BitstreamVeraSans;-inkscape-font-specification:BitstreamVeraSans-Roman;writing-mode:lr-tb;fill:#000000;fill-opacity:1;fill-rule:nonzero;stroke:none"
               id="text74"><tspan
                 x="0 5.724"
                 y="0"
                 sodipodi:role="line"
                 id="tspan72">80</tspan></text>
<g
               id="g76"
               transform="scale(0.009)"><g
                 id="g78"><g
                   id="g80"
                   clip-path="url(#clipPath84)"><path
                     d="M 106,355 H 732 V 272 H 106 v 83"
                     style="fill:#000000;fill-opacity:1;fill-rule:nonzero;stroke:none"
                     id="path86"
                     inkscape:connector-curvature="0" /></g></g></g></g><path
             d="m 78.51125,36.72 v 4"
             style="fill:#000000;fill-opacity:1;fill-rule:nonzero;stroke:#000000;stroke-width:0.5;stroke-linecap:butt;stroke-linejoin:round;stroke-miterlimit:10;stroke-dasharray:none;stroke-opacity:1"
             id="path88"
             inkscape:connector-curvature="0" /><path
             d="m 78.51125,165.78 v -4"
             style="fill:#000000;fill-opacity:1;fill-rule:nonzero;stroke:#000000;stroke-width:0.5;stroke-linecap:butt;stroke-linejoin:round;stroke-miterlimit:10;stroke-dasharray:none;stroke-opacity:1"
             id="path90"
             inkscape:connector-curvature="0" /><g
             id="g92"
             transform="translate(69.003437,25.87625)"><text
               transform="matrix(1,0,0,-1,7.5410156,0)"
               style="font-variant:normal;font-weight:normal;font-size:9px;font-family:BitstreamVeraSans;-inkscape-font-specification:BitstreamVeraSans-Roman;writing-mode:lr-tb;fill:#000000;fill-opacity:1;fill-rule:nonzero;stroke:none"
               id="text96"><tspan
                 x="0 5.724"
                 y="0"
                 sodipodi:role="line"
                 id="tspan94">40</tspan></text>
<g
               id="g98"
               transform="scale(0.009)"><g
                 id="g100"><g
                   id="g102"
                   clip-path="url(#clipPath106)"><path
                     d="M 106,355 H 732 V 272 H 106 v 83"
                     style="fill:#000000;fill-opacity:1;fill-rule:nonzero;stroke:none"
                     id="path108"
                     inkscape:connector-curvature="0" /></g></g></g></g><path
             d="m 109.2775,36.72 v 4"
             style="fill:#000000;fill-opacity:1;fill-rule:nonzero;stroke:#000000;stroke-width:0.5;stroke-linecap:butt;stroke-linejoin:round;stroke-miterlimit:10;stroke-dasharray:none;stroke-opacity:1"
             id="path110"
             inkscape:connector-curvature="0" /><path
             d="m 109.2775,165.78 v -4"
             style="fill:#000000;fill-opacity:1;fill-rule:nonzero;stroke:#000000;stroke-width:0.5;stroke-linecap:butt;stroke-linejoin:round;stroke-miterlimit:10;stroke-dasharray:none;stroke-opacity:1"
             id="path112"
             inkscape:connector-curvature="0" /><text
             transform="matrix(1,0,0,-1,106.41031,25.87625)"
             style="font-variant:normal;font-weight:normal;font-size:9px;font-family:BitstreamVeraSans;-inkscape-font-specification:BitstreamVeraSans-Roman;writing-mode:lr-tb;fill:#000000;fill-opacity:1;fill-rule:nonzero;stroke:none"
             id="text116"><tspan
               x="0"
               y="0"
               id="tspan114">0</tspan></text>
<path
             d="m 140.04375,36.72 v 4"
             style="fill:#000000;fill-opacity:1;fill-rule:nonzero;stroke:#000000;stroke-width:0.5;stroke-linecap:butt;stroke-linejoin:round;stroke-miterlimit:10;stroke-dasharray:none;stroke-opacity:1"
             id="path118"
             inkscape:connector-curvature="0" /><path
             d="m 140.04375,165.78 v -4"
             style="fill:#000000;fill-opacity:1;fill-rule:nonzero;stroke:#000000;stroke-width:0.5;stroke-linecap:butt;stroke-linejoin:round;stroke-miterlimit:10;stroke-dasharray:none;stroke-opacity:1"
             id="path120"
             inkscape:connector-curvature="0" /><text
             transform="matrix(1,0,0,-1,134.30937,25.87625)"
             style="font-variant:normal;font-weight:normal;font-size:9px;font-family:BitstreamVeraSans;-inkscape-font-specification:BitstreamVeraSans-Roman;writing-mode:lr-tb;fill:#000000;fill-opacity:1;fill-rule:nonzero;stroke:none"
             id="text124"><tspan
               x="0 5.724"
               y="0"
               sodipodi:role="line"
               id="tspan122">40</tspan></text>
<path
             d="m 170.81,36.72 v 4"
             style="fill:#000000;fill-opacity:1;fill-rule:nonzero;stroke:#000000;stroke-width:0.5;stroke-linecap:butt;stroke-linejoin:round;stroke-miterlimit:10;stroke-dasharray:none;stroke-opacity:1"
             id="path126"
             inkscape:connector-curvature="0" /><path
             d="m 170.81,165.78 v -4"
             style="fill:#000000;fill-opacity:1;fill-rule:nonzero;stroke:#000000;stroke-width:0.5;stroke-linecap:butt;stroke-linejoin:round;stroke-miterlimit:10;stroke-dasharray:none;stroke-opacity:1"
             id="path128"
             inkscape:connector-curvature="0" /><text
             transform="matrix(1,0,0,-1,165.07562,25.87625)"
             style="font-variant:normal;font-weight:normal;font-size:9px;font-family:BitstreamVeraSans;-inkscape-font-specification:BitstreamVeraSans-Roman;writing-mode:lr-tb;fill:#000000;fill-opacity:1;fill-rule:nonzero;stroke:none"
             id="text132"><tspan
               x="0 5.724"
               y="0"
               sodipodi:role="line"
               id="tspan130">80</tspan></text>
<text
             transform="matrix(1,0,0,-1,79.008125,12.1575)"
             style="font-variant:normal;font-weight:normal;font-size:9px;font-family:BitstreamVeraSans;-inkscape-font-specification:BitstreamVeraSans-Roman;writing-mode:lr-tb;fill:#000000;fill-opacity:1;fill-rule:nonzero;stroke:none"
             id="text136"><tspan
               x="0 5.7150002 11.043 19.809 23.058001 29.826 32.688 38.223 41.922001 45.620998 51.129002 54.827999 57.689999 61.200001 66.905998 72.404999"
               y="0"
               sodipodi:role="line"
               id="tspan134">Sym-H error (nT)</tspan></text>
<path
             d="m 47.745,36.72 h 4"
             style="fill:#000000;fill-opacity:1;fill-rule:nonzero;stroke:#000000;stroke-width:0.5;stroke-linecap:butt;stroke-linejoin:round;stroke-miterlimit:10;stroke-dasharray:none;stroke-opacity:1"
             id="path138"
             inkscape:connector-curvature="0" /><path
             d="m 186.19312,36.72 h -4"
             style="fill:#000000;fill-opacity:1;fill-rule:nonzero;stroke:#000000;stroke-width:0.5;stroke-linecap:butt;stroke-linejoin:round;stroke-miterlimit:10;stroke-dasharray:none;stroke-opacity:1"
             id="path140"
             inkscape:connector-curvature="0" /><path
             d="m 47.745,58.23 h 4"
             style="fill:#000000;fill-opacity:1;fill-rule:nonzero;stroke:#000000;stroke-width:0.5;stroke-linecap:butt;stroke-linejoin:round;stroke-miterlimit:10;stroke-dasharray:none;stroke-opacity:1"
             id="path146"
             inkscape:connector-curvature="0" /><path
             d="m 186.19312,58.23 h -4"
             style="fill:#000000;fill-opacity:1;fill-rule:nonzero;stroke:#000000;stroke-width:0.5;stroke-linecap:butt;stroke-linejoin:round;stroke-miterlimit:10;stroke-dasharray:none;stroke-opacity:1"
             id="path148"
             inkscape:connector-curvature="0" /><path
             d="m 47.745,79.74 h 4"
             style="fill:#000000;fill-opacity:1;fill-rule:nonzero;stroke:#000000;stroke-width:0.5;stroke-linecap:butt;stroke-linejoin:round;stroke-miterlimit:10;stroke-dasharray:none;stroke-opacity:1"
             id="path154"
             inkscape:connector-curvature="0" /><path
             d="m 186.19312,79.74 h -4"
             style="fill:#000000;fill-opacity:1;fill-rule:nonzero;stroke:#000000;stroke-width:0.5;stroke-linecap:butt;stroke-linejoin:round;stroke-miterlimit:10;stroke-dasharray:none;stroke-opacity:1"
             id="path156"
             inkscape:connector-curvature="0" /><path
             d="m 47.745,101.25 h 4"
             style="fill:#000000;fill-opacity:1;fill-rule:nonzero;stroke:#000000;stroke-width:0.5;stroke-linecap:butt;stroke-linejoin:round;stroke-miterlimit:10;stroke-dasharray:none;stroke-opacity:1"
             id="path162"
             inkscape:connector-curvature="0" /><path
             d="m 186.19312,101.25 h -4"
             style="fill:#000000;fill-opacity:1;fill-rule:nonzero;stroke:#000000;stroke-width:0.5;stroke-linecap:butt;stroke-linejoin:round;stroke-miterlimit:10;stroke-dasharray:none;stroke-opacity:1"
             id="path164"
             inkscape:connector-curvature="0" /><path
             d="m 47.745,122.76 h 4"
             style="fill:#000000;fill-opacity:1;fill-rule:nonzero;stroke:#000000;stroke-width:0.5;stroke-linecap:butt;stroke-linejoin:round;stroke-miterlimit:10;stroke-dasharray:none;stroke-opacity:1"
             id="path170"
             inkscape:connector-curvature="0" /><path
             d="m 186.19312,122.76 h -4"
             style="fill:#000000;fill-opacity:1;fill-rule:nonzero;stroke:#000000;stroke-width:0.5;stroke-linecap:butt;stroke-linejoin:round;stroke-miterlimit:10;stroke-dasharray:none;stroke-opacity:1"
             id="path172"
             inkscape:connector-curvature="0" /><path
             d="m 47.745,144.27 h 4"
             style="fill:#000000;fill-opacity:1;fill-rule:nonzero;stroke:#000000;stroke-width:0.5;stroke-linecap:butt;stroke-linejoin:round;stroke-miterlimit:10;stroke-dasharray:none;stroke-opacity:1"
             id="path178"
             inkscape:connector-curvature="0" /><path
             d="m 186.19312,144.27 h -4"
             style="fill:#000000;fill-opacity:1;fill-rule:nonzero;stroke:#000000;stroke-width:0.5;stroke-linecap:butt;stroke-linejoin:round;stroke-miterlimit:10;stroke-dasharray:none;stroke-opacity:1"
             id="path180"
             inkscape:connector-curvature="0" /><path
             d="m 47.745,165.78 h 4"
             style="fill:#000000;fill-opacity:1;fill-rule:nonzero;stroke:#000000;stroke-width:0.5;stroke-linecap:butt;stroke-linejoin:round;stroke-miterlimit:10;stroke-dasharray:none;stroke-opacity:1"
             id="path186"
             inkscape:connector-curvature="0" /><path
             d="m 186.19312,165.78 h -4"
             style="fill:#000000;fill-opacity:1;fill-rule:nonzero;stroke:#000000;stroke-width:0.5;stroke-linecap:butt;stroke-linejoin:round;stroke-miterlimit:10;stroke-dasharray:none;stroke-opacity:1"
             id="path188"
             inkscape:connector-curvature="0" /></g></g><text
         transform="matrix(0,1,1,0,16.8075,59.351562)"
         style="font-variant:normal;font-weight:normal;font-size:9px;font-family:BitstreamVeraSans;-inkscape-font-specification:BitstreamVeraSans-Roman;writing-mode:lr-tb;fill:#000000;fill-opacity:1;fill-rule:nonzero;stroke:none"
         id="text196"><tspan
           x="0 5.427 9.1260004 14.634 20.349001 25.865999 31.580999 34.083 36.584999 39.087002 42.615002 47.943001 50.805 56.52 62.055 67.761002 72.449997 74.952003 78.480003"
           y="0"
           sodipodi:role="line"
           id="tspan194">Probability density</tspan></text>
<path
         d="M 47.69133,36.72 H 186.13946 V 165.78 H 47.69133 Z"
         style="fill:#ffffff;fill-opacity:1;fill-rule:nonzero;stroke:none"
         id="path202"
         inkscape:connector-curvature="0" /><g
         transform="translate(-3.6185597e-7,1.7493827e-6)"
         id="g1915"><text
           transform="matrix(1,0,0,-1,23.6825,34.235625)"
           style="font-variant:normal;font-weight:normal;font-size:9px;font-family:BitstreamVeraSans;-inkscape-font-specification:BitstreamVeraSans-Roman;writing-mode:lr-tb;fill:#000000;fill-opacity:1;fill-rule:nonzero;stroke:none"
           id="text144"><tspan
             x="0 5.724 8.5860004 14.31"
             y="0"
             sodipodi:role="line"
             id="tspan142">0.00</tspan></text>
<text
           transform="matrix(1,0,0,-1,23.6825,55.745625)"
           style="font-variant:normal;font-weight:normal;font-size:9px;font-family:BitstreamVeraSans;-inkscape-font-specification:BitstreamVeraSans-Roman;writing-mode:lr-tb;fill:#000000;fill-opacity:1;fill-rule:nonzero;stroke:none"
           id="text152"><tspan
             x="0 5.724 8.5860004 14.31"
             y="0"
             sodipodi:role="line"
             id="tspan150">0.02</tspan></text>
<text
           transform="matrix(1,0,0,-1,23.6825,77.255625)"
           style="font-variant:normal;font-weight:normal;font-size:9px;font-family:BitstreamVeraSans;-inkscape-font-specification:BitstreamVeraSans-Roman;writing-mode:lr-tb;fill:#000000;fill-opacity:1;fill-rule:nonzero;stroke:none"
           id="text160"><tspan
             x="0 5.724 8.5860004 14.31"
             y="0"
             sodipodi:role="line"
             id="tspan158">0.04</tspan></text>
<text
           transform="matrix(1,0,0,-1,23.6825,98.765625)"
           style="font-variant:normal;font-weight:normal;font-size:9px;font-family:BitstreamVeraSans;-inkscape-font-specification:BitstreamVeraSans-Roman;writing-mode:lr-tb;fill:#000000;fill-opacity:1;fill-rule:nonzero;stroke:none"
           id="text168"><tspan
             x="0 5.724 8.5860004 14.31"
             y="0"
             sodipodi:role="line"
             id="tspan166">0.06</tspan></text>
<text
           transform="matrix(1,0,0,-1,23.6825,120.27563)"
           style="font-variant:normal;font-weight:normal;font-size:9px;font-family:BitstreamVeraSans;-inkscape-font-specification:BitstreamVeraSans-Roman;writing-mode:lr-tb;fill:#000000;fill-opacity:1;fill-rule:nonzero;stroke:none"
           id="text176"><tspan
             x="0 5.724 8.5860004 14.31"
             y="0"
             sodipodi:role="line"
             id="tspan174">0.08</tspan></text>
<text
           transform="matrix(1,0,0,-1,23.6825,141.78562)"
           style="font-variant:normal;font-weight:normal;font-size:9px;font-family:BitstreamVeraSans;-inkscape-font-specification:BitstreamVeraSans-Roman;writing-mode:lr-tb;fill:#000000;fill-opacity:1;fill-rule:nonzero;stroke:none"
           id="text184"><tspan
             x="0 5.724 8.5860004 14.31"
             y="0"
             sodipodi:role="line"
             id="tspan182">0.10</tspan></text>
<text
           transform="matrix(1,0,0,-1,23.6825,163.29562)"
           style="font-variant:normal;font-weight:normal;font-size:9px;font-family:BitstreamVeraSans;-inkscape-font-specification:BitstreamVeraSans-Roman;writing-mode:lr-tb;fill:#000000;fill-opacity:1;fill-rule:nonzero;stroke:none"
           id="text192"><tspan
             x="0 5.724 8.5860004 14.31"
             y="0"
             sodipodi:role="line"
             id="tspan190">0.12</tspan></text>
</g></g><g
       id="g2060"
       transform="translate(-160.54054)"><g
         id="g204"><g
           clip-path="url(#clipPath210)"
           id="g206"><path
             inkscape:connector-curvature="0"
             id="path212"
             style="fill:none;stroke:#b0c4de;stroke-width:5;stroke-linecap:square;stroke-linejoin:round;stroke-miterlimit:10;stroke-dasharray:none;stroke-opacity:1"
             d="m 208.23187,36.720031 13.21867,0.09403 4.17432,0.217175 5.56575,0.316402 5.56575,0.297305 4.17432,0.319015 4.87003,0.187886 5.56576,0.598016 6.26147,0.757036 2.08716,-0.163993 2.08715,-0.257075 1.39144,0.01439 2.08716,0.353844 1.39144,0.234577 1.39144,0.05491 4.17431,-0.157977 2.08716,0.250196 2.78288,0.522353 2.08716,0.577758 2.08715,0.840662 4.87004,2.238622 2.08715,0.55678 2.08716,0.528502 1.39144,0.503922 1.39144,0.676235 1.39144,0.879694 1.39144,1.148177 1.39143,1.477058 1.39144,1.785801 2.78288,4.048271 4.87003,7.184632 0.69572,0.55098 0.69572,0.277513 0.69572,0.02423 1.39144,-0.408705 1.39144,-0.374747 0.69572,-0.01239 1.39144,0.302168 1.39144,0.373237 0.69571,0.04302 0.69572,-0.134174 0.69572,-0.35067 0.69572,-0.576325 1.39144,-1.679303 2.08716,-2.680458 1.39144,-1.326747 1.39144,-1.246695 1.39143,-1.578948 3.4786,-4.459831 1.39144,-1.29753 1.39144,-0.967251 1.39144,-0.658763 2.78287,-1.087592 1.39144,-0.999154 1.39144,-1.388317 2.08716,-2.221011 1.39144,-1.169138 1.39143,-0.812811 1.39144,-0.531457 2.08716,-0.506188 v 0" /></g></g><g
         id="g214"><g
           clip-path="url(#clipPath220)"
           id="g216"><path
             inkscape:connector-curvature="0"
             id="path222"
             style="fill:none;stroke:#ff0e00;stroke-width:1.5;stroke-linecap:square;stroke-linejoin:round;stroke-miterlimit:10;stroke-dasharray:none;stroke-opacity:1"
             d="m 208.23187,36.962009 13.21867,0.223528 6.95719,0.658652 4.17432,0.557956 6.26147,0.948417 2.78288,0.149292 3.47859,-0.04753 14.61011,-0.416978 2.08715,0.319181 5.56576,1.383537 2.08716,0.63836 2.78287,0.882156 1.39144,0.183046 1.39144,-0.04866 3.4786,-0.376313 1.39143,0.08068 1.39144,0.273585 2.78288,0.867002 2.78288,1.060607 1.39143,0.734804 1.39144,0.944749 1.39144,1.149565 2.08716,2.056614 4.17431,4.447478 1.39144,1.129894 2.08716,1.314992 1.39144,0.885027 1.39144,1.160495 1.39144,1.570884 4.17431,5.480517 0.69572,0.61268 0.69572,0.456012 0.69572,0.298157 0.69572,0.146248 0.69572,0.0017 0.69572,-0.139124 0.69572,-0.281893 0.69572,-0.430342 0.69571,-0.582612 1.39144,-1.5883 6.26148,-8.719516 1.39143,-2.416324 2.08716,-4.361232 2.08716,-4.275035 1.39144,-2.260389 1.39144,-1.627615 1.39144,-1.056849 1.39143,-0.669416 2.08716,-0.671577 2.08716,-0.475758 2.08716,-0.264242 2.78287,-0.105396 3.4786,-0.02089 v 0" /></g></g><g
         id="g224"><g
           clip-path="url(#clipPath230)"
           id="g226"><path
             inkscape:connector-curvature="0"
             id="path232"
             style="fill:none;stroke:#ffa300;stroke-width:1.5;stroke-linecap:square;stroke-linejoin:round;stroke-miterlimit:10;stroke-dasharray:none;stroke-opacity:1"
             d="m 208.23187,37.012282 12.52295,0.01183 4.87004,0.131984 3.47859,0.100569 11.82723,0.956291 3.47859,0.835232 3.4786,0.774892 2.78288,0.360438 2.78287,0.09114 2.08716,-0.160618 2.78288,-0.496414 2.78288,-0.458426 2.08715,-0.158214 2.08716,0.07915 2.08716,0.349918 2.78288,0.533023 3.47859,0.351612 3.4786,0.264074 4.17431,0.131727 1.39144,0.31078 1.39144,0.545857 1.39144,0.758699 2.08716,1.401962 2.78287,2.097359 2.78288,2.378742 2.08716,1.736298 2.08715,1.362396 2.78288,1.564962 1.39144,1.138517 0.69572,0.790033 0.69572,0.976368 1.39144,2.504927 2.78287,5.744457 0.69572,1.139594 0.69572,0.902833 0.69572,0.651022 0.69572,0.411588 0.69572,0.206463 1.39144,-0.007 6.95719,-1.15581 0.69572,-0.250685 0.69572,-0.401237 0.69572,-0.616311 0.69572,-0.89411 0.69572,-1.219848 0.69572,-1.56495 1.39143,-4.044759 2.78288,-9.135035 1.39144,-3.5331 0.69572,-1.358945 0.69572,-1.107211 1.39144,-1.599177 1.39144,-1.021903 1.39143,-0.680321 2.08716,-0.713408 2.08716,-0.530496 2.08716,-0.331901 2.78287,-0.172244 3.4786,-0.102885 v 0" /></g></g><g
         id="g234"><g
           clip-path="url(#clipPath240)"
           id="g236"><path
             inkscape:connector-curvature="0"
             id="path242"
             style="fill:none;stroke:#0077ff;stroke-width:1.5;stroke-linecap:square;stroke-linejoin:round;stroke-miterlimit:10;stroke-dasharray:none;stroke-opacity:1"
             d="m 208.23187,36.72 92.53066,0.110338 2.78288,0.04565 1.39144,0.0115 2.08715,0.328867 0.69572,0.252225 0.69572,0.04866 1.39144,-0.265634 0.69572,0.312134 0.69572,0.599533 0.69572,0.396087 1.39144,0.624069 2.08715,1.625999 0.69572,0.657818 2.08716,3.094047 0.69572,1.123349 0.69572,1.650955 1.39144,4.184401 0.69572,3.10461 0.69572,4.612643 0.69572,7.533281 1.39143,24.323773 1.39144,24.460375 1.39144,35.29657 0.69572,9.74 0.69572,2.66412 0.69572,-2.53878 0.69572,-10.26138 0.69572,-16.40034 1.39144,-37.943063 1.39143,-29.340173 0.69572,-9.457292 0.69572,-5.565356 0.69572,-4.003106 0.69572,-2.872925 0.69572,-0.68107 0.69572,-0.334887 0.69572,-0.648992 0.69572,-0.326149 0.69572,-0.481967 2.78288,-3.268301 2.08715,-1.121725 1.39144,-0.316435 0.69572,-0.234481 v 0" /></g></g><g
         id="g244"><path
           inkscape:connector-curvature="0"
           id="path246"
           style="fill:none;stroke:#000000;stroke-width:1;stroke-linecap:square;stroke-linejoin:miter;stroke-miterlimit:10;stroke-dasharray:none;stroke-opacity:1"
           d="M 208.23187,165.78 H 346.68" /><path
           inkscape:connector-curvature="0"
           id="path248"
           style="fill:none;stroke:#000000;stroke-width:1;stroke-linecap:square;stroke-linejoin:miter;stroke-miterlimit:10;stroke-dasharray:none;stroke-opacity:1"
           d="M 346.68,36.72 V 165.78" /><path
           inkscape:connector-curvature="0"
           id="path250"
           style="fill:none;stroke:#000000;stroke-width:1;stroke-linecap:square;stroke-linejoin:miter;stroke-miterlimit:10;stroke-dasharray:none;stroke-opacity:1"
           d="M 208.23187,36.72 H 346.68" /><path
           inkscape:connector-curvature="0"
           id="path252"
           style="fill:none;stroke:#000000;stroke-width:1;stroke-linecap:square;stroke-linejoin:miter;stroke-miterlimit:10;stroke-dasharray:none;stroke-opacity:1"
           d="M 208.23187,36.72 V 165.78" /><path
           inkscape:connector-curvature="0"
           id="path254"
           style="fill:#000000;fill-opacity:1;fill-rule:nonzero;stroke:#000000;stroke-width:0.5;stroke-linecap:butt;stroke-linejoin:round;stroke-miterlimit:10;stroke-dasharray:none;stroke-opacity:1"
           d="m 208.23187,36.72 v 4" /><path
           inkscape:connector-curvature="0"
           id="path256"
           style="fill:#000000;fill-opacity:1;fill-rule:nonzero;stroke:#000000;stroke-width:0.5;stroke-linecap:butt;stroke-linejoin:round;stroke-miterlimit:10;stroke-dasharray:none;stroke-opacity:1"
           d="m 208.23187,165.78 v -4" /><g
           transform="translate(195.85687,25.87625)"
           id="g258"><text
             id="text262"
             style="font-variant:normal;font-weight:normal;font-size:9px;font-family:BitstreamVeraSans;-inkscape-font-specification:BitstreamVeraSans-Roman;writing-mode:lr-tb;fill:#000000;fill-opacity:1;fill-rule:nonzero;stroke:none"
             transform="matrix(1,0,0,-1,7.5410156,0)"><tspan
               id="tspan260"
               sodipodi:role="line"
               y="0"
               x="0 5.724 11.448">120</tspan></text>
<g
             transform="scale(0.009)"
             id="g264"><g
               id="g266"><g
                 clip-path="url(#clipPath272)"
                 id="g268"><path
                   inkscape:connector-curvature="0"
                   id="path274"
                   style="fill:#000000;fill-opacity:1;fill-rule:nonzero;stroke:none"
                   d="M 106,355 H 732 V 272 H 106 v 83" /></g></g></g></g><path
           inkscape:connector-curvature="0"
           id="path276"
           style="fill:#000000;fill-opacity:1;fill-rule:nonzero;stroke:#000000;stroke-width:0.5;stroke-linecap:butt;stroke-linejoin:round;stroke-miterlimit:10;stroke-dasharray:none;stroke-opacity:1"
           d="m 237.89933,36.72 v 4" /><path
           inkscape:connector-curvature="0"
           id="path278"
           style="fill:#000000;fill-opacity:1;fill-rule:nonzero;stroke:#000000;stroke-width:0.5;stroke-linecap:butt;stroke-linejoin:round;stroke-miterlimit:10;stroke-dasharray:none;stroke-opacity:1"
           d="m 237.89933,165.78 v -4" /><g
           transform="translate(228.39152,25.87625)"
           id="g280"><text
             id="text284"
             style="font-variant:normal;font-weight:normal;font-size:9px;font-family:BitstreamVeraSans;-inkscape-font-specification:BitstreamVeraSans-Roman;writing-mode:lr-tb;fill:#000000;fill-opacity:1;fill-rule:nonzero;stroke:none"
             transform="matrix(1,0,0,-1,7.5410156,0)"><tspan
               id="tspan282"
               sodipodi:role="line"
               y="0"
               x="0 5.724">90</tspan></text>
<g
             transform="scale(0.009)"
             id="g286"><g
               id="g288"><g
                 clip-path="url(#clipPath294)"
                 id="g290"><path
                   inkscape:connector-curvature="0"
                   id="path296"
                   style="fill:#000000;fill-opacity:1;fill-rule:nonzero;stroke:none"
                   d="M 106,355 H 732 V 272 H 106 v 83" /></g></g></g></g><path
           inkscape:connector-curvature="0"
           id="path298"
           style="fill:#000000;fill-opacity:1;fill-rule:nonzero;stroke:#000000;stroke-width:0.5;stroke-linecap:butt;stroke-linejoin:round;stroke-miterlimit:10;stroke-dasharray:none;stroke-opacity:1"
           d="m 267.56679,36.72 v 4" /><path
           inkscape:connector-curvature="0"
           id="path300"
           style="fill:#000000;fill-opacity:1;fill-rule:nonzero;stroke:#000000;stroke-width:0.5;stroke-linecap:butt;stroke-linejoin:round;stroke-miterlimit:10;stroke-dasharray:none;stroke-opacity:1"
           d="m 267.56679,165.78 v -4" /><g
           transform="translate(258.05897,25.87625)"
           id="g302"><text
             id="text306"
             style="font-variant:normal;font-weight:normal;font-size:9px;font-family:BitstreamVeraSans;-inkscape-font-specification:BitstreamVeraSans-Roman;writing-mode:lr-tb;fill:#000000;fill-opacity:1;fill-rule:nonzero;stroke:none"
             transform="matrix(1,0,0,-1,7.5410156,0)"><tspan
               id="tspan304"
               sodipodi:role="line"
               y="0"
               x="0 5.724">60</tspan></text>
<g
             transform="scale(0.009)"
             id="g308"><g
               id="g310"><g
                 clip-path="url(#clipPath316)"
                 id="g312"><path
                   inkscape:connector-curvature="0"
                   id="path318"
                   style="fill:#000000;fill-opacity:1;fill-rule:nonzero;stroke:none"
                   d="M 106,355 H 732 V 272 H 106 v 83" /></g></g></g></g><path
           inkscape:connector-curvature="0"
           id="path320"
           style="fill:#000000;fill-opacity:1;fill-rule:nonzero;stroke:#000000;stroke-width:0.5;stroke-linecap:butt;stroke-linejoin:round;stroke-miterlimit:10;stroke-dasharray:none;stroke-opacity:1"
           d="m 297.23424,36.72 v 4" /><path
           inkscape:connector-curvature="0"
           id="path322"
           style="fill:#000000;fill-opacity:1;fill-rule:nonzero;stroke:#000000;stroke-width:0.5;stroke-linecap:butt;stroke-linejoin:round;stroke-miterlimit:10;stroke-dasharray:none;stroke-opacity:1"
           d="m 297.23424,165.78 v -4" /><g
           transform="translate(287.72643,25.87625)"
           id="g324"><text
             id="text328"
             style="font-variant:normal;font-weight:normal;font-size:9px;font-family:BitstreamVeraSans;-inkscape-font-specification:BitstreamVeraSans-Roman;writing-mode:lr-tb;fill:#000000;fill-opacity:1;fill-rule:nonzero;stroke:none"
             transform="matrix(1,0,0,-1,7.5410156,0)"><tspan
               id="tspan326"
               sodipodi:role="line"
               y="0"
               x="0 5.724">30</tspan></text>
<g
             transform="scale(0.009)"
             id="g330"><g
               id="g332"><g
                 clip-path="url(#clipPath338)"
                 id="g334"><path
                   inkscape:connector-curvature="0"
                   id="path340"
                   style="fill:#000000;fill-opacity:1;fill-rule:nonzero;stroke:none"
                   d="M 106,355 H 732 V 272 H 106 v 83" /></g></g></g></g><path
           inkscape:connector-curvature="0"
           id="path342"
           style="fill:#000000;fill-opacity:1;fill-rule:nonzero;stroke:#000000;stroke-width:0.5;stroke-linecap:butt;stroke-linejoin:round;stroke-miterlimit:10;stroke-dasharray:none;stroke-opacity:1"
           d="m 326.9017,36.72 v 4" /><path
           inkscape:connector-curvature="0"
           id="path344"
           style="fill:#000000;fill-opacity:1;fill-rule:nonzero;stroke:#000000;stroke-width:0.5;stroke-linecap:butt;stroke-linejoin:round;stroke-miterlimit:10;stroke-dasharray:none;stroke-opacity:1"
           d="m 326.9017,165.78 v -4" /><text
           id="text348"
           style="font-variant:normal;font-weight:normal;font-size:9px;font-family:BitstreamVeraSans;-inkscape-font-specification:BitstreamVeraSans-Roman;writing-mode:lr-tb;fill:#000000;fill-opacity:1;fill-rule:nonzero;stroke:none"
           transform="matrix(1,0,0,-1,324.03451,25.87625)"><tspan
             id="tspan346"
             y="0"
             x="0">0</tspan></text>
<text
           id="text352"
           style="font-variant:normal;font-weight:normal;font-size:9px;font-family:BitstreamVeraSans;-inkscape-font-specification:BitstreamVeraSans-Roman;writing-mode:lr-tb;fill:#000000;fill-opacity:1;fill-rule:nonzero;stroke:none"
           transform="matrix(1,0,0,-1,250.56531,12.1575)"><tspan
             id="tspan350"
             sodipodi:role="line"
             y="0"
             x="0 5.7150002 11.043 19.809 23.058001 29.826 35.549999 39.060001 44.765999 50.264999">Sym-H (nT)</tspan></text>
<path
           inkscape:connector-curvature="0"
           id="path354"
           style="fill:#000000;fill-opacity:1;fill-rule:nonzero;stroke:#000000;stroke-width:0.5;stroke-linecap:butt;stroke-linejoin:round;stroke-miterlimit:10;stroke-dasharray:none;stroke-opacity:1"
           d="m 208.23187,36.72 h 4" /><path
           inkscape:connector-curvature="0"
           id="path356"
           style="fill:#000000;fill-opacity:1;fill-rule:nonzero;stroke:#000000;stroke-width:0.5;stroke-linecap:butt;stroke-linejoin:round;stroke-miterlimit:10;stroke-dasharray:none;stroke-opacity:1"
           d="m 346.68,36.72 h -4" /><path
           inkscape:connector-curvature="0"
           id="path358"
           style="fill:#000000;fill-opacity:1;fill-rule:nonzero;stroke:#000000;stroke-width:0.5;stroke-linecap:butt;stroke-linejoin:round;stroke-miterlimit:10;stroke-dasharray:none;stroke-opacity:1"
           d="m 208.23187,58.23 h 4" /><path
           inkscape:connector-curvature="0"
           id="path360"
           style="fill:#000000;fill-opacity:1;fill-rule:nonzero;stroke:#000000;stroke-width:0.5;stroke-linecap:butt;stroke-linejoin:round;stroke-miterlimit:10;stroke-dasharray:none;stroke-opacity:1"
           d="m 346.68,58.23 h -4" /><path
           inkscape:connector-curvature="0"
           id="path362"
           style="fill:#000000;fill-opacity:1;fill-rule:nonzero;stroke:#000000;stroke-width:0.5;stroke-linecap:butt;stroke-linejoin:round;stroke-miterlimit:10;stroke-dasharray:none;stroke-opacity:1"
           d="m 208.23187,79.74 h 4" /><path
           inkscape:connector-curvature="0"
           id="path364"
           style="fill:#000000;fill-opacity:1;fill-rule:nonzero;stroke:#000000;stroke-width:0.5;stroke-linecap:butt;stroke-linejoin:round;stroke-miterlimit:10;stroke-dasharray:none;stroke-opacity:1"
           d="m 346.68,79.74 h -4" /><path
           inkscape:connector-curvature="0"
           id="path366"
           style="fill:#000000;fill-opacity:1;fill-rule:nonzero;stroke:#000000;stroke-width:0.5;stroke-linecap:butt;stroke-linejoin:round;stroke-miterlimit:10;stroke-dasharray:none;stroke-opacity:1"
           d="m 208.23187,101.25 h 4" /><path
           inkscape:connector-curvature="0"
           id="path368"
           style="fill:#000000;fill-opacity:1;fill-rule:nonzero;stroke:#000000;stroke-width:0.5;stroke-linecap:butt;stroke-linejoin:round;stroke-miterlimit:10;stroke-dasharray:none;stroke-opacity:1"
           d="m 346.68,101.25 h -4" /><path
           inkscape:connector-curvature="0"
           id="path370"
           style="fill:#000000;fill-opacity:1;fill-rule:nonzero;stroke:#000000;stroke-width:0.5;stroke-linecap:butt;stroke-linejoin:round;stroke-miterlimit:10;stroke-dasharray:none;stroke-opacity:1"
           d="m 208.23187,122.76 h 4" /><path
           inkscape:connector-curvature="0"
           id="path372"
           style="fill:#000000;fill-opacity:1;fill-rule:nonzero;stroke:#000000;stroke-width:0.5;stroke-linecap:butt;stroke-linejoin:round;stroke-miterlimit:10;stroke-dasharray:none;stroke-opacity:1"
           d="m 346.68,122.76 h -4" /><path
           inkscape:connector-curvature="0"
           id="path374"
           style="fill:#000000;fill-opacity:1;fill-rule:nonzero;stroke:#000000;stroke-width:0.5;stroke-linecap:butt;stroke-linejoin:round;stroke-miterlimit:10;stroke-dasharray:none;stroke-opacity:1"
           d="m 208.23187,144.27 h 4" /><path
           inkscape:connector-curvature="0"
           id="path376"
           style="fill:#000000;fill-opacity:1;fill-rule:nonzero;stroke:#000000;stroke-width:0.5;stroke-linecap:butt;stroke-linejoin:round;stroke-miterlimit:10;stroke-dasharray:none;stroke-opacity:1"
           d="m 346.68,144.27 h -4" /><path
           inkscape:connector-curvature="0"
           id="path378"
           style="fill:#000000;fill-opacity:1;fill-rule:nonzero;stroke:#000000;stroke-width:0.5;stroke-linecap:butt;stroke-linejoin:round;stroke-miterlimit:10;stroke-dasharray:none;stroke-opacity:1"
           d="m 208.23187,165.78 h 4" /><path
           inkscape:connector-curvature="0"
           id="path380"
           style="fill:#000000;fill-opacity:1;fill-rule:nonzero;stroke:#000000;stroke-width:0.5;stroke-linecap:butt;stroke-linejoin:round;stroke-miterlimit:10;stroke-dasharray:none;stroke-opacity:1"
           d="m 346.68,165.78 h -4" /><path
           inkscape:connector-curvature="0"
           id="path386"
           style="fill:#ffffff;fill-opacity:1;fill-rule:nonzero;stroke:#000000;stroke-width:1;stroke-linecap:butt;stroke-linejoin:miter;stroke-miterlimit:10;stroke-dasharray:none;stroke-opacity:1"
           d="m 212.73187,73.4625 h 100.74375 v 55.575 H 212.73187 Z" /><path
           inkscape:connector-curvature="0"
           id="path388"
           style="fill:none;stroke:#b0c4de;stroke-width:5;stroke-linecap:square;stroke-linejoin:round;stroke-miterlimit:10;stroke-dasharray:none;stroke-opacity:1"
           d="m 219.03187,121.74375 h 12.6" /><text
           id="text392"
           style="font-variant:normal;font-weight:normal;font-size:9px;font-family:BitstreamVeraSans;-inkscape-font-specification:BitstreamVeraSans-Roman;writing-mode:lr-tb;fill:#000000;fill-opacity:1;fill-rule:nonzero;stroke:none"
           transform="matrix(1,0,0,-1,241.53187,118.59375)"><tspan
             id="tspan390"
             sodipodi:role="line"
             y="0"
             x="0 7.0830002 12.798 17.487 23.021999 26.721001 32.049 37.566002 41.094002 43.596001 49.104 54.810001">Observations</tspan></text>
<path
           inkscape:connector-curvature="0"
           id="path394"
           style="fill:none;stroke:#ff0e00;stroke-width:1.5;stroke-linecap:square;stroke-linejoin:round;stroke-miterlimit:10;stroke-dasharray:none;stroke-opacity:1"
           d="m 219.03187,108.525 h 12.6" /><text
           id="text398"
           style="font-variant:normal;font-weight:normal;font-size:9px;font-family:BitstreamVeraSans;-inkscape-font-specification:BitstreamVeraSans-Roman;writing-mode:lr-tb;fill:#000000;fill-opacity:1;fill-rule:nonzero;stroke:none"
           transform="matrix(1,0,0,-1,241.53187,105.375)"><tspan
             id="tspan396"
             sodipodi:role="line"
             y="0"
             x="0 5.7150002 14.616 20.042999">SWPC</tspan></text>
<path
           inkscape:connector-curvature="0"
           id="path400"
           style="fill:none;stroke:#ffa300;stroke-width:1.5;stroke-linecap:square;stroke-linejoin:round;stroke-miterlimit:10;stroke-dasharray:none;stroke-opacity:1"
           d="m 219.03187,95.30625 h 12.6" /><text
           id="text404"
           style="font-variant:normal;font-weight:normal;font-size:9px;font-family:BitstreamVeraSans;-inkscape-font-specification:BitstreamVeraSans-Roman;writing-mode:lr-tb;fill:#000000;fill-opacity:1;fill-rule:nonzero;stroke:none"
           transform="matrix(1,0,0,-1,241.53187,92.15625)"><tspan
             id="tspan402"
             sodipodi:role="line"
             y="0"
             x="0 6.7680001 9.2700005 12.519 16.218 21.753 26.441999 29.304001 36.666 39.699001 42.561001 48.816002 55.098">Hi-res w/ RCM</tspan></text>
<path
           inkscape:connector-curvature="0"
           id="path406"
           style="fill:none;stroke:#0077ff;stroke-width:1.5;stroke-linecap:square;stroke-linejoin:round;stroke-miterlimit:10;stroke-dasharray:none;stroke-opacity:1"
           d="m 219.03187,82.0875 h 12.6" /><text
           id="text410"
           style="font-variant:normal;font-weight:normal;font-size:9px;font-family:BitstreamVeraSans;-inkscape-font-specification:BitstreamVeraSans-Roman;writing-mode:lr-tb;fill:#000000;fill-opacity:1;fill-rule:nonzero;stroke:none"
           transform="matrix(1,0,0,-1,241.53187,78.9375)"><tspan
             id="tspan408"
             sodipodi:role="line"
             y="0"
             x="0 6.7680001 9.2700005 12.519 16.218 21.753 26.441999 29.304001 36.666 39.699001 45.207001 48.069 54.324001 60.605999">Hi-res w/o RCM</tspan></text>
</g></g></g></svg>