<?xml version="1.0" encoding="UTF-8" standalone="no"?>
<!-- Created with Inkscape (http://www.inkscape.org/) -->

<svg
   xmlns:dc="http://purl.org/dc/elements/1.1/"
   xmlns:cc="http://creativecommons.org/ns#"
   xmlns:rdf="http://www.w3.org/1999/02/22-rdf-syntax-ns#"
   xmlns:svg="http://www.w3.org/2000/svg"
   xmlns="http://www.w3.org/2000/svg"
   xmlns:sodipodi="http://sodipodi.sourceforge.net/DTD/sodipodi-0.dtd"
   xmlns:inkscape="http://www.inkscape.org/namespaces/inkscape"
   version="1.1"
   id="svg3341"
   xml:space="preserve"
   width="457.63779"
   height="218.94196"
   viewBox="0 0 457.63779 218.94195"
   sodipodi:docname="Sym_H_interpolated_error_norcm_build1.svg"
   inkscape:version="0.92.3 (2405546, 2018-03-11)"><sodipodi:namedview
     pagecolor="#ffffff"
     bordercolor="#666666"
     borderopacity="1"
     objecttolerance="10"
     gridtolerance="10"
     guidetolerance="10"
     inkscape:pageopacity="0"
     inkscape:pageshadow="2"
     inkscape:window-width="1366"
     inkscape:window-height="704"
     id="namedview3343"
     showgrid="false"
     inkscape:zoom="1.7383042"
     inkscape:cx="114.66168"
     inkscape:cy="106.96397"
     inkscape:window-x="0"
     inkscape:window-y="27"
     inkscape:window-maximized="1"
     inkscape:current-layer="g3349"
     fit-margin-top="0"
     fit-margin-left="0"
     fit-margin-right="0"
     fit-margin-bottom="0" /><metadata
     id="metadata3347"><rdf:RDF><cc:Work
         rdf:about=""><dc:format>image/svg+xml</dc:format><dc:type
           rdf:resource="http://purl.org/dc/dcmitype/StillImage" /><dc:title></dc:title></cc:Work></rdf:RDF></metadata><defs
     id="defs3345"><clipPath
       id="clipPath3361"
       clipPathUnits="userSpaceOnUse"><path
         inkscape:connector-curvature="0"
         id="path3359"
         d="M 47.745,36.72 H 186.19312 V 273.78 H 47.745 Z" /></clipPath><clipPath
       id="clipPath3371"
       clipPathUnits="userSpaceOnUse"><path
         inkscape:connector-curvature="0"
         id="path3369"
         d="M 47.745,36.72 H 186.19312 V 273.78 H 47.745 Z" /></clipPath><clipPath
       id="clipPath3381"
       clipPathUnits="userSpaceOnUse"><path
         inkscape:connector-curvature="0"
         id="path3379"
         d="M 47.745,36.72 H 186.19312 V 273.78 H 47.745 Z" /></clipPath><clipPath
       id="clipPath3391"
       clipPathUnits="userSpaceOnUse"><path
         inkscape:connector-curvature="0"
         id="path3389"
         d="M 47.745,36.72 H 186.19312 V 273.78 H 47.745 Z" /></clipPath><clipPath
       id="clipPath3423"
       clipPathUnits="userSpaceOnUse"><path
         inkscape:connector-curvature="0"
         id="path3421"
         d="M -184,-236 H 1288 V 929 H -184 Z" /></clipPath><clipPath
       id="clipPath3445"
       clipPathUnits="userSpaceOnUse"><path
         inkscape:connector-curvature="0"
         id="path3443"
         d="M -184,-236 H 1288 V 929 H -184 Z" /></clipPath><clipPath
       id="clipPath3549"
       clipPathUnits="userSpaceOnUse"><path
         inkscape:connector-curvature="0"
         id="path3547"
         d="M 208.23187,36.72 H 346.68 V 273.78 H 208.23187 Z" /></clipPath><clipPath
       id="clipPath3559"
       clipPathUnits="userSpaceOnUse"><path
         inkscape:connector-curvature="0"
         id="path3557"
         d="M 208.23187,36.72 H 346.68 V 273.78 H 208.23187 Z" /></clipPath><clipPath
       id="clipPath3569"
       clipPathUnits="userSpaceOnUse"><path
         inkscape:connector-curvature="0"
         id="path3567"
         d="M 208.23187,36.72 H 346.68 V 273.78 H 208.23187 Z" /></clipPath><clipPath
       id="clipPath3579"
       clipPathUnits="userSpaceOnUse"><path
         inkscape:connector-curvature="0"
         id="path3577"
         d="M 208.23187,36.72 H 346.68 V 273.78 H 208.23187 Z" /></clipPath><clipPath
       id="clipPath3611"
       clipPathUnits="userSpaceOnUse"><path
         inkscape:connector-curvature="0"
         id="path3609"
         d="M -184,-236 H 1288 V 929 H -184 Z" /></clipPath><clipPath
       id="clipPath3633"
       clipPathUnits="userSpaceOnUse"><path
         inkscape:connector-curvature="0"
         id="path3631"
         d="M -184,-236 H 1288 V 929 H -184 Z" /></clipPath><clipPath
       id="clipPath3655"
       clipPathUnits="userSpaceOnUse"><path
         inkscape:connector-curvature="0"
         id="path3653"
         d="M -184,-236 H 1288 V 929 H -184 Z" /></clipPath><clipPath
       id="clipPath3677"
       clipPathUnits="userSpaceOnUse"><path
         inkscape:connector-curvature="0"
         id="path3675"
         d="M -184,-236 H 1288 V 929 H -184 Z" /></clipPath></defs><g
     transform="matrix(1.3333333,0,0,-1.3333333,-4.6021866,219.66101)"
     inkscape:label="Sym_H_error_interpolated_large"
     inkscape:groupmode="layer"
     id="g3349"><path
       inkscape:connector-curvature="0"
       id="path3351"
       style="fill:#ffffff;fill-opacity:1;fill-rule:nonzero;stroke:none;stroke-width:0.68494588"
       d="M 3.45164,7.3347349 H 343.36249 V 164.74576 H 3.45164 Z" /><g
       id="g3395"><text
   id="text3483"
   style="font-variant:normal;font-weight:normal;line-height:0%;font-family:'DejaVu Sans';-inkscape-font-specification:'DejaVu Sans';writing-mode:lr-tb;fill:#000000;fill-opacity:1;fill-rule:nonzero;stroke:none"
   transform="matrix(1,0,0,-1,23.6825,34.235625)"><tspan
     id="tspan3481"
     sodipodi:role="line"
     y="0"
     x="0 5.724 8.5860004 14.31"
     style="font-size:9px;line-height:1.25">0.00</tspan></text>

<text
   id="text3491"
   style="font-variant:normal;font-weight:normal;line-height:0%;font-family:'DejaVu Sans';-inkscape-font-specification:'DejaVu Sans';writing-mode:lr-tb;fill:#000000;fill-opacity:1;fill-rule:nonzero;stroke:none"
   transform="matrix(1,0,0,-1,23.6825,73.745625)"><tspan
     id="tspan3489"
     sodipodi:role="line"
     y="0"
     x="0 5.724 8.5860004 14.31"
     style="font-size:9px;line-height:1.25">0.02</tspan></text>

<text
   id="text3499"
   style="font-variant:normal;font-weight:normal;line-height:0%;font-family:'DejaVu Sans';-inkscape-font-specification:'DejaVu Sans';writing-mode:lr-tb;fill:#000000;fill-opacity:1;fill-rule:nonzero;stroke:none"
   transform="matrix(1,0,0,-1,23.6825,113.25563)"><tspan
     id="tspan3497"
     sodipodi:role="line"
     y="0"
     x="0 5.724 8.5860004 14.31"
     style="font-size:9px;line-height:1.25">0.04</tspan></text>

<text
   id="text3507"
   style="font-variant:normal;font-weight:normal;line-height:0%;font-family:'DejaVu Sans';-inkscape-font-specification:'DejaVu Sans';writing-mode:lr-tb;fill:#000000;fill-opacity:1;fill-rule:nonzero;stroke:none"
   transform="matrix(1,0,0,-1,23.6825,152.76562)"><tspan
     id="tspan3505"
     sodipodi:role="line"
     y="0"
     x="0 5.724 8.5860004 14.31"
     style="font-size:9px;line-height:1.25">0.06</tspan></text>

<text
   y="16.807501"
   x="51.851562"
   id="text3535"
   style="font-variant:normal;font-weight:normal;line-height:0%;font-family:'DejaVu Sans';-inkscape-font-specification:'DejaVu Sans';writing-mode:lr-tb;fill:#000000;fill-opacity:1;fill-rule:nonzero;stroke:none"
   transform="matrix(0,1,1,0,0,0)"><tspan
     id="tspan3533"
     sodipodi:role="line"
     y="16.807501"
     x="51.851562 57.278557 60.977562 66.485558 72.200562 77.71756 83.432564 85.934563 88.436546 90.938568 94.466568 99.794563 102.65656 108.37157 113.90656 119.61256 124.30156 126.80356 130.33156"
     style="font-size:9px;line-height:1.25">Probability density</tspan></text>

<path
   inkscape:connector-curvature="0"
   id="path3541"
   style="fill:#ffffff;fill-opacity:1;fill-rule:nonzero;stroke:none;stroke-width:0.70710677"
   d="M 208.23187,36.72 H 346.68 V 155.25 H 208.23187 Z" /></g><g
       transform="translate(-162)"
       id="g969"><g
         id="g3543"><g
           id="g3545"
           clip-path="url(#clipPath3549)"><path
             d="m 208.23187,36.720056 11.13151,0.09103 4.17432,0.230402 14.6101,1.628891 2.08716,0.288449 6.26147,0.508457 4.87004,0.981208 5.56575,1.352706 1.39144,0.0024 1.39144,-0.265836 2.08715,-0.472201 1.39144,0.02643 1.39144,0.387987 2.08716,0.692837 1.39144,0.100857 3.47859,-0.346815 1.39144,0.169799 2.08716,0.557275 2.08716,0.748598 1.39144,0.658212 1.39143,0.862468 1.39144,1.084702 4.17432,3.651307 1.39144,0.851101 4.17431,2.028892 1.39144,1.078759 1.39144,1.418265 1.39144,1.844572 1.39144,2.403812 1.39143,3.013515 2.08716,5.34413 3.4786,9.729518 2.08716,5.800098 0.69571,1.460122 0.69572,1.012051 0.69572,0.509741 0.69572,0.0445 0.69572,-0.295605 1.39144,-0.883744 0.69572,-0.259713 0.69572,-0.02276 0.69572,0.202532 2.08716,1.038065 0.69571,0.07901 0.69572,-0.246454 0.69572,-0.644117 0.69572,-1.058605 1.39144,-3.084578 1.39144,-3.424942 1.39144,-2.792079 2.08716,-3.433448 1.39143,-2.900243 3.4786,-8.191907 1.39144,-2.38333 1.39144,-1.776665 1.39144,-1.210029 2.08715,-1.372945 0.69572,-0.624766 0.69572,-0.813919 1.39144,-2.229595 3.4786,-6.577538 1.39144,-1.814848 1.39143,-1.209076 1.39144,-0.796137 1.39144,-0.570291 v 0"
             style="fill:none;stroke:#b0c4de;stroke-width:5;stroke-linecap:square;stroke-linejoin:round;stroke-miterlimit:10;stroke-dasharray:none;stroke-opacity:1"
             id="path3551"
             inkscape:connector-curvature="0" /></g></g><g
         id="g3563"
         style="opacity:1;vector-effect:none;fill:none;fill-opacity:1;stroke:#ff0e00;stroke-width:1.5;stroke-linecap:square;stroke-linejoin:round;stroke-miterlimit:10;stroke-dasharray:none;stroke-dashoffset:0;stroke-opacity:1"><g
           id="g3565"
           clip-path="url(#clipPath3569)"
           style="vector-effect:none;fill:none;fill-opacity:1;stroke:#ff0e00;stroke-width:1.5;stroke-linecap:square;stroke-linejoin:round;stroke-miterlimit:10;stroke-dasharray:none;stroke-dashoffset:0;stroke-opacity:1"><path
             d="m 208.23187,37.256869 11.82723,-0.0276 5.56576,0.291755 2.78287,0.107049 3.4786,0.494331 2.78287,0.307262 3.4786,0.324639 2.08716,0.474972 2.08716,0.796268 4.87003,2.156019 2.08716,0.627922 2.08716,0.364029 2.08715,0.07575 1.39144,-0.150646 1.39144,-0.332346 5.56575,-1.700941 1.39144,-0.155573 1.39144,0.0381 1.39144,0.27458 2.08716,0.747089 2.08716,0.707425 2.08715,0.4181 4.87004,0.712804 4.17431,0.241959 1.39144,0.570847 1.39144,1.002642 1.39144,1.393593 2.08716,2.575151 2.78287,3.852473 2.08716,3.239963 2.78288,4.318624 1.39144,1.747604 2.08715,2.138498 1.39144,1.490927 0.69572,0.933852 0.69572,1.1574 0.69572,1.451148 0.69572,1.793413 1.39144,4.6011 2.78287,10.551535 0.69572,2.093229 0.69572,1.658342 0.69572,1.195809 0.69572,0.756014 0.69572,0.379235 0.69572,0.09037 1.39144,-0.313661 2.78287,-0.930498 3.4786,-0.982099 0.69572,-0.460463 0.69572,-0.737001 0.69572,-1.132052 0.69572,-1.642319 0.69572,-2.240642 0.69572,-2.874532 1.39143,-7.429494 2.78288,-16.779416 1.39144,-6.489668 0.69572,-2.496138 0.69572,-2.033747 0.69572,-1.633689 0.69572,-1.303712 0.69572,-1.040676 1.39143,-1.518017 1.39144,-1.055374 2.08716,-1.181748 2.08716,-0.86357 1.39144,-0.361765 2.08716,-0.267966 4.17431,-0.237396 v 0"
             style="vector-effect:none;fill:none;fill-opacity:1;stroke:#ff0e00;stroke-width:1.5;stroke-linecap:square;stroke-linejoin:round;stroke-miterlimit:10;stroke-dasharray:none;stroke-dashoffset:0;stroke-opacity:1"
             id="path3571"
             inkscape:connector-curvature="0" /></g></g><g
         id="g3583"><path
   d="M 208.23187,155.25 H 346.68"
   style="fill:none;stroke:#000000;stroke-width:1;stroke-linecap:square;stroke-linejoin:miter;stroke-miterlimit:10;stroke-dasharray:none;stroke-opacity:1"
   id="path3585"
   inkscape:connector-curvature="0" /><path
   d="M 346.68,36.72 V 155.25"
   style="fill:none;stroke:#000000;stroke-width:0.70710677;stroke-linecap:square;stroke-linejoin:miter;stroke-miterlimit:10;stroke-dasharray:none;stroke-opacity:1"
   id="path3587"
   inkscape:connector-curvature="0" /><path
   d="M 208.23187,36.72 H 346.68"
   style="fill:none;stroke:#000000;stroke-width:1;stroke-linecap:square;stroke-linejoin:miter;stroke-miterlimit:10;stroke-dasharray:none;stroke-opacity:1"
   id="path3589"
   inkscape:connector-curvature="0" /><path
   d="M 208.23187,36.72 V 155.25"
   style="fill:none;stroke:#000000;stroke-width:0.70710677;stroke-linecap:square;stroke-linejoin:miter;stroke-miterlimit:10;stroke-dasharray:none;stroke-opacity:1"
   id="path3591"
   inkscape:connector-curvature="0" /><path
   d="m 208.23187,36.72 v 4"
   style="fill:#000000;fill-opacity:1;fill-rule:nonzero;stroke:#000000;stroke-width:0.5;stroke-linecap:butt;stroke-linejoin:round;stroke-miterlimit:10;stroke-dasharray:none;stroke-opacity:1"
   id="path3593"
   inkscape:connector-curvature="0" /><g
   id="g3597"
   transform="translate(195.85687,25.87625)"><text
   transform="matrix(1,0,0,-1,7.5410156,0)"
   style="font-variant:normal;font-weight:normal;line-height:0%;font-family:'DejaVu Sans';-inkscape-font-specification:'DejaVu Sans';writing-mode:lr-tb;fill:#000000;fill-opacity:1;fill-rule:nonzero;stroke:none"
   id="text3601"><tspan
     x="0 5.724 11.448"
     y="0"
     sodipodi:role="line"
     id="tspan3599"
     style="font-size:9px;line-height:1.25">120</tspan></text>

<g
   id="g3603"
   transform="scale(0.009)"><g
     id="g3605"><g
       id="g3607"
       clip-path="url(#clipPath3611)"><path
         d="M 106,355 H 732 V 272 H 106 v 83"
         style="fill:#000000;fill-opacity:1;fill-rule:nonzero;stroke:none"
         id="path3613"
         inkscape:connector-curvature="0" /></g></g></g></g><path
   d="m 237.89933,36.72 v 4"
   style="fill:#000000;fill-opacity:1;fill-rule:nonzero;stroke:#000000;stroke-width:0.5;stroke-linecap:butt;stroke-linejoin:round;stroke-miterlimit:10;stroke-dasharray:none;stroke-opacity:1"
   id="path3615"
   inkscape:connector-curvature="0" /><path
   d="m 237.89933,155.25 v -4"
   style="fill:#000000;fill-opacity:1;fill-rule:nonzero;stroke:#000000;stroke-width:0.5;stroke-linecap:butt;stroke-linejoin:round;stroke-miterlimit:10;stroke-dasharray:none;stroke-opacity:1"
   id="path3617"
   inkscape:connector-curvature="0" /><g
   id="g3619"
   transform="translate(228.39152,25.87625)"><text
   transform="matrix(1,0,0,-1,7.5410156,0)"
   style="font-variant:normal;font-weight:normal;line-height:0%;font-family:'DejaVu Sans';-inkscape-font-specification:'DejaVu Sans';writing-mode:lr-tb;fill:#000000;fill-opacity:1;fill-rule:nonzero;stroke:none"
   id="text3623"><tspan
     x="0 5.724"
     y="0"
     sodipodi:role="line"
     id="tspan3621"
     style="font-size:9px;line-height:1.25">90</tspan></text>

<g
   id="g3625"
   transform="scale(0.009)"><g
     id="g3627"><g
       id="g3629"
       clip-path="url(#clipPath3633)"><path
         d="M 106,355 H 732 V 272 H 106 v 83"
         style="fill:#000000;fill-opacity:1;fill-rule:nonzero;stroke:none"
         id="path3635"
         inkscape:connector-curvature="0" /></g></g></g></g><path
   d="m 267.56679,36.72 v 4"
   style="fill:#000000;fill-opacity:1;fill-rule:nonzero;stroke:#000000;stroke-width:0.5;stroke-linecap:butt;stroke-linejoin:round;stroke-miterlimit:10;stroke-dasharray:none;stroke-opacity:1"
   id="path3637"
   inkscape:connector-curvature="0" /><path
   d="m 267.56679,155.25 v -4"
   style="fill:#000000;fill-opacity:1;fill-rule:nonzero;stroke:#000000;stroke-width:0.5;stroke-linecap:butt;stroke-linejoin:round;stroke-miterlimit:10;stroke-dasharray:none;stroke-opacity:1"
   id="path3639"
   inkscape:connector-curvature="0" /><g
   id="g3641"
   transform="translate(258.05897,25.87625)"><text
   transform="matrix(1,0,0,-1,7.5410156,0)"
   style="font-variant:normal;font-weight:normal;line-height:0%;font-family:'DejaVu Sans';-inkscape-font-specification:'DejaVu Sans';writing-mode:lr-tb;fill:#000000;fill-opacity:1;fill-rule:nonzero;stroke:none"
   id="text3645"><tspan
     x="0 5.724"
     y="0"
     sodipodi:role="line"
     id="tspan3643"
     style="font-size:9px;line-height:1.25">60</tspan></text>

<g
   id="g3647"
   transform="scale(0.009)"><g
     id="g3649"><g
       id="g3651"
       clip-path="url(#clipPath3655)"><path
         d="M 106,355 H 732 V 272 H 106 v 83"
         style="fill:#000000;fill-opacity:1;fill-rule:nonzero;stroke:none"
         id="path3657"
         inkscape:connector-curvature="0" /></g></g></g></g><path
   d="m 297.23424,36.72 v 4"
   style="fill:#000000;fill-opacity:1;fill-rule:nonzero;stroke:#000000;stroke-width:0.5;stroke-linecap:butt;stroke-linejoin:round;stroke-miterlimit:10;stroke-dasharray:none;stroke-opacity:1"
   id="path3659"
   inkscape:connector-curvature="0" /><path
   d="m 297.23424,155.25 v -4"
   style="fill:#000000;fill-opacity:1;fill-rule:nonzero;stroke:#000000;stroke-width:0.5;stroke-linecap:butt;stroke-linejoin:round;stroke-miterlimit:10;stroke-dasharray:none;stroke-opacity:1"
   id="path3661"
   inkscape:connector-curvature="0" /><g
   id="g3663"
   transform="translate(287.72643,25.87625)"><text
   transform="matrix(1,0,0,-1,7.5410156,0)"
   style="font-variant:normal;font-weight:normal;line-height:0%;font-family:'DejaVu Sans';-inkscape-font-specification:'DejaVu Sans';writing-mode:lr-tb;fill:#000000;fill-opacity:1;fill-rule:nonzero;stroke:none"
   id="text3667"><tspan
     x="0 5.724"
     y="0"
     sodipodi:role="line"
     id="tspan3665"
     style="font-size:9px;line-height:1.25">30</tspan></text>

<g
   id="g3669"
   transform="scale(0.009)"><g
     id="g3671"><g
       id="g3673"
       clip-path="url(#clipPath3677)"><path
         d="M 106,355 H 732 V 272 H 106 v 83"
         style="fill:#000000;fill-opacity:1;fill-rule:nonzero;stroke:none"
         id="path3679"
         inkscape:connector-curvature="0" /></g></g></g></g><path
   d="m 326.9017,36.72 v 4"
   style="fill:#000000;fill-opacity:1;fill-rule:nonzero;stroke:#000000;stroke-width:0.5;stroke-linecap:butt;stroke-linejoin:round;stroke-miterlimit:10;stroke-dasharray:none;stroke-opacity:1"
   id="path3681"
   inkscape:connector-curvature="0" /><path
   d="m 326.9017,155.25 v -4"
   style="fill:#000000;fill-opacity:1;fill-rule:nonzero;stroke:#000000;stroke-width:0.5;stroke-linecap:butt;stroke-linejoin:round;stroke-miterlimit:10;stroke-dasharray:none;stroke-opacity:1"
   id="path3683"
   inkscape:connector-curvature="0" /><text
   transform="matrix(1,0,0,-1,324.03451,25.87625)"
   style="font-variant:normal;font-weight:normal;font-size:9px;line-height:0%;font-family:'DejaVu Sans';-inkscape-font-specification:'DejaVu Sans';writing-mode:lr-tb;fill:#000000;fill-opacity:1;fill-rule:nonzero;stroke:none"
   id="text3687"><tspan
     x="0"
     y="0"
     id="tspan3685">0</tspan></text>

<text
   transform="matrix(1,0,0,-1,250.56531,12.1575)"
   style="font-variant:normal;font-weight:normal;line-height:0%;font-family:'DejaVu Sans';-inkscape-font-specification:'DejaVu Sans';writing-mode:lr-tb;fill:#000000;fill-opacity:1;fill-rule:nonzero;stroke:none"
   id="text3691"><tspan
     x="0 5.7150002 11.043 19.809 23.058001 29.826 35.549999 39.060001 44.765999 50.264999"
     y="0"
     sodipodi:role="line"
     id="tspan3689"
     style="font-size:9px;line-height:1.25">Sym-H (nT)</tspan></text>

<path
   d="m 208.23187,36.72 h 4"
   style="fill:#000000;fill-opacity:1;fill-rule:nonzero;stroke:#000000;stroke-width:0.5;stroke-linecap:butt;stroke-linejoin:round;stroke-miterlimit:10;stroke-dasharray:none;stroke-opacity:1"
   id="path3693"
   inkscape:connector-curvature="0" /><path
   d="m 346.68,36.72 h -4"
   style="fill:#000000;fill-opacity:1;fill-rule:nonzero;stroke:#000000;stroke-width:0.5;stroke-linecap:butt;stroke-linejoin:round;stroke-miterlimit:10;stroke-dasharray:none;stroke-opacity:1"
   id="path3695"
   inkscape:connector-curvature="0" /><path
   d="m 208.23187,76.23 h 4"
   style="fill:#000000;fill-opacity:1;fill-rule:nonzero;stroke:#000000;stroke-width:0.5;stroke-linecap:butt;stroke-linejoin:round;stroke-miterlimit:10;stroke-dasharray:none;stroke-opacity:1"
   id="path3697"
   inkscape:connector-curvature="0" /><path
   d="m 346.68,76.23 h -4"
   style="fill:#000000;fill-opacity:1;fill-rule:nonzero;stroke:#000000;stroke-width:0.5;stroke-linecap:butt;stroke-linejoin:round;stroke-miterlimit:10;stroke-dasharray:none;stroke-opacity:1"
   id="path3699"
   inkscape:connector-curvature="0" /><path
   d="m 208.23187,115.74 h 4"
   style="fill:#000000;fill-opacity:1;fill-rule:nonzero;stroke:#000000;stroke-width:0.5;stroke-linecap:butt;stroke-linejoin:round;stroke-miterlimit:10;stroke-dasharray:none;stroke-opacity:1"
   id="path3701"
   inkscape:connector-curvature="0" /><path
   d="m 346.68,115.74 h -4"
   style="fill:#000000;fill-opacity:1;fill-rule:nonzero;stroke:#000000;stroke-width:0.5;stroke-linecap:butt;stroke-linejoin:round;stroke-miterlimit:10;stroke-dasharray:none;stroke-opacity:1"
   id="path3703"
   inkscape:connector-curvature="0" /><path
   d="m 208.23187,155.25 h 4"
   style="fill:#000000;fill-opacity:1;fill-rule:nonzero;stroke:#000000;stroke-width:0.5;stroke-linecap:butt;stroke-linejoin:round;stroke-miterlimit:10;stroke-dasharray:none;stroke-opacity:1"
   id="path3705"
   inkscape:connector-curvature="0" /><path
   d="m 346.68,155.25 h -4"
   style="fill:#000000;fill-opacity:1;fill-rule:nonzero;stroke:#000000;stroke-width:0.5;stroke-linecap:butt;stroke-linejoin:round;stroke-miterlimit:10;stroke-dasharray:none;stroke-opacity:1"
   id="path3707"
   inkscape:connector-curvature="0" /><g
   id="g213"
   transform="translate(7.9322036,-42.101696)"><path
   inkscape:connector-curvature="0"
   id="path3725"
   style="fill:#ffffff;fill-opacity:1;fill-rule:nonzero;stroke:#000000;stroke-width:0.72747272;stroke-linecap:butt;stroke-linejoin:miter;stroke-miterlimit:10;stroke-dasharray:none;stroke-opacity:1"
   d="M 212.73187,153.62628 H 313.47562 V 183.0375 H 212.73187 Z" /><path
   inkscape:connector-curvature="0"
   id="path3727"
   style="fill:none;stroke:#b0c4de;stroke-width:5;stroke-linecap:square;stroke-linejoin:round;stroke-miterlimit:10;stroke-dasharray:none;stroke-opacity:1"
   d="m 219.03187,175.74375 h 12.6" /><text
   id="text3731"
   style="font-variant:normal;font-weight:normal;line-height:0%;font-family:'DejaVu Sans';-inkscape-font-specification:'DejaVu Sans';writing-mode:lr-tb;fill:#000000;fill-opacity:1;fill-rule:nonzero;stroke:none"
   transform="matrix(1,0,0,-1,241.53187,172.59375)"><tspan
     y="0"
     x="0"
     id="tspan3729"
     sodipodi:role="line"
     style="font-size:9px;line-height:1.25">Observations</tspan></text>

<path
   inkscape:connector-curvature="0"
   id="path3733"
   style="fill:none;stroke:#ff0e00;stroke-width:1.5;stroke-linecap:square;stroke-linejoin:round;stroke-miterlimit:10;stroke-dasharray:none;stroke-opacity:1"
   d="m 219.03187,162.525 h 12.6" /><text
   id="text3737"
   style="font-variant:normal;font-weight:normal;line-height:0%;font-family:'DejaVu Sans';-inkscape-font-specification:'DejaVu Sans';writing-mode:lr-tb;fill:#000000;fill-opacity:1;fill-rule:nonzero;stroke:none"
   transform="matrix(1,0,0,-1,241.53187,159.375)"><tspan
     id="tspan3735"
     sodipodi:role="line"
     y="0"
     x="0 5.7150002"
     style="font-size:9px;line-height:1.25">SWMF</tspan></text>


</g></g></g></g></svg>