<?xml version="1.0" encoding="UTF-8" standalone="no"?>
<!-- Created with Inkscape (http://www.inkscape.org/) -->

<svg
   xmlns:dc="http://purl.org/dc/elements/1.1/"
   xmlns:cc="http://creativecommons.org/ns#"
   xmlns:rdf="http://www.w3.org/1999/02/22-rdf-syntax-ns#"
   xmlns:svg="http://www.w3.org/2000/svg"
   xmlns="http://www.w3.org/2000/svg"
   xmlns:sodipodi="http://sodipodi.sourceforge.net/DTD/sodipodi-0.dtd"
   xmlns:inkscape="http://www.inkscape.org/namespaces/inkscape"
   version="1.1"
   id="svg2"
   xml:space="preserve"
   width="528"
   height="384"
   viewBox="0 0 528 384"
   sodipodi:docname="Sym_H_interpolated_error_large.svg"
   inkscape:version="0.92.3 (2405546, 2018-03-11)"><metadata
     id="metadata8"><rdf:RDF><cc:Work
         rdf:about=""><dc:format>image/svg+xml</dc:format><dc:type
           rdf:resource="http://purl.org/dc/dcmitype/StillImage" /><dc:title></dc:title></cc:Work></rdf:RDF></metadata><defs
     id="defs6"><clipPath
       clipPathUnits="userSpaceOnUse"
       id="clipPath22"><path
         d="M 47.745,36.72 H 186.19312 V 273.78 H 47.745 Z"
         id="path20"
         inkscape:connector-curvature="0" /></clipPath><clipPath
       clipPathUnits="userSpaceOnUse"
       id="clipPath32"><path
         d="M 47.745,36.72 H 186.19312 V 273.78 H 47.745 Z"
         id="path30"
         inkscape:connector-curvature="0" /></clipPath><clipPath
       clipPathUnits="userSpaceOnUse"
       id="clipPath42"><path
         d="M 47.745,36.72 H 186.19312 V 273.78 H 47.745 Z"
         id="path40"
         inkscape:connector-curvature="0" /></clipPath><clipPath
       clipPathUnits="userSpaceOnUse"
       id="clipPath52"><path
         d="M 47.745,36.72 H 186.19312 V 273.78 H 47.745 Z"
         id="path50"
         inkscape:connector-curvature="0" /></clipPath><clipPath
       clipPathUnits="userSpaceOnUse"
       id="clipPath84"><path
         d="M -184,-236 H 1288 V 929 H -184 Z"
         id="path82"
         inkscape:connector-curvature="0" /></clipPath><clipPath
       clipPathUnits="userSpaceOnUse"
       id="clipPath106"><path
         d="M -184,-236 H 1288 V 929 H -184 Z"
         id="path104"
         inkscape:connector-curvature="0" /></clipPath><clipPath
       clipPathUnits="userSpaceOnUse"
       id="clipPath210"><path
         d="M 208.23187,36.72 H 346.68 V 273.78 H 208.23187 Z"
         id="path208"
         inkscape:connector-curvature="0" /></clipPath><clipPath
       clipPathUnits="userSpaceOnUse"
       id="clipPath220"><path
         d="M 208.23187,36.72 H 346.68 V 273.78 H 208.23187 Z"
         id="path218"
         inkscape:connector-curvature="0" /></clipPath><clipPath
       clipPathUnits="userSpaceOnUse"
       id="clipPath230"><path
         d="M 208.23187,36.72 H 346.68 V 273.78 H 208.23187 Z"
         id="path228"
         inkscape:connector-curvature="0" /></clipPath><clipPath
       clipPathUnits="userSpaceOnUse"
       id="clipPath240"><path
         d="M 208.23187,36.72 H 346.68 V 273.78 H 208.23187 Z"
         id="path238"
         inkscape:connector-curvature="0" /></clipPath><clipPath
       clipPathUnits="userSpaceOnUse"
       id="clipPath272"><path
         d="M -184,-236 H 1288 V 929 H -184 Z"
         id="path270"
         inkscape:connector-curvature="0" /></clipPath><clipPath
       clipPathUnits="userSpaceOnUse"
       id="clipPath294"><path
         d="M -184,-236 H 1288 V 929 H -184 Z"
         id="path292"
         inkscape:connector-curvature="0" /></clipPath><clipPath
       clipPathUnits="userSpaceOnUse"
       id="clipPath316"><path
         d="M -184,-236 H 1288 V 929 H -184 Z"
         id="path314"
         inkscape:connector-curvature="0" /></clipPath><clipPath
       clipPathUnits="userSpaceOnUse"
       id="clipPath338"><path
         d="M -184,-236 H 1288 V 929 H -184 Z"
         id="path336"
         inkscape:connector-curvature="0" /></clipPath></defs><sodipodi:namedview
     pagecolor="#ffffff"
     bordercolor="#666666"
     borderopacity="1"
     objecttolerance="10"
     gridtolerance="10"
     guidetolerance="10"
     inkscape:pageopacity="0"
     inkscape:pageshadow="2"
     inkscape:window-width="1366"
     inkscape:window-height="704"
     id="namedview4"
     showgrid="false"
     inkscape:zoom="1.2291667"
     inkscape:cx="264"
     inkscape:cy="192"
     inkscape:window-x="0"
     inkscape:window-y="27"
     inkscape:window-maximized="1"
     inkscape:current-layer="g244" /><g
     id="g10"
     inkscape:groupmode="layer"
     inkscape:label="Sym_H_error_interpolated_large"
     transform="matrix(1.3333333,0,0,-1.3333333,0,384)"><path
       d="M 0,0 H 396 V 288 H 0 Z"
       style="fill:#ffffff;fill-opacity:1;fill-rule:nonzero;stroke:none"
       id="path12"
       inkscape:connector-curvature="0" /><g
       id="g56"><text
         transform="matrix(0,1,1,0,16.8075,113.35156)"
         style="font-variant:normal;font-weight:normal;font-size:9px;font-family:BitstreamVeraSans;-inkscape-font-specification:BitstreamVeraSans-Roman;writing-mode:lr-tb;fill:#000000;fill-opacity:1;fill-rule:nonzero;stroke:none"
         id="text196"><tspan
           x="0 5.427 9.1260004 14.634 20.349001 25.865999 31.580999 34.083 36.584999 39.087002 42.615002 47.943001 50.805 56.52 62.055 67.761002 72.449997 74.952003 78.480003"
           y="0"
           sodipodi:role="line"
           id="tspan194">Probability density</tspan></text>
<g
         id="g1539"
         transform="translate(154.98305)"><path
           inkscape:connector-curvature="0"
           id="path14"
           style="fill:#ffffff;fill-opacity:1;fill-rule:nonzero;stroke:none"
           d="M 47.745,36.72 H 186.19312 V 273.78 H 47.745 Z" /><g
           id="g16"><g
             clip-path="url(#clipPath22)"
             id="g18"><path
               inkscape:connector-curvature="0"
               id="path24"
               style="fill:none;stroke:#000000;stroke-width:0.5;stroke-linecap:butt;stroke-linejoin:round;stroke-miterlimit:10;stroke-dasharray:1, 3;stroke-dashoffset:0;stroke-opacity:1"
               d="M 109.2775,36.72 V 273.78" /></g></g><g
           id="g26"><g
             clip-path="url(#clipPath32)"
             id="g28"><path
               inkscape:connector-curvature="0"
               id="path34"
               style="fill:none;stroke:#ff0e00;stroke-width:1.5;stroke-linecap:square;stroke-linejoin:round;stroke-miterlimit:10;stroke-dasharray:none;stroke-opacity:1"
               d="m 47.745,36.996027 2.087158,0.153833 1.391438,0.269618 2.087158,0.521215 1.391438,0.12014 2.087158,-0.0717 2.087158,-0.13984 1.391438,0.156221 4.174315,0.690003 0.69572,0.02425 1.391438,-0.269359 1.391438,-0.362122 1.391439,-0.02452 2.087158,0.425067 1.391438,0.278601 2.087158,0.192151 0.695719,0.220538 0.695719,0.431878 2.087158,1.982104 0.695719,0.359193 0.695719,0.08183 2.087158,-0.234072 0.695719,0.233426 0.695719,0.529074 0.695719,0.812954 3.478597,4.965509 1.391438,1.671453 1.391438,1.412774 2.087158,1.902365 0.695719,1.14003 0.69572,1.766456 1.391438,5.096009 2.087158,9.187432 1.391438,6.006225 1.391439,5.688017 0.695718,3.406837 1.39144,8.432523 1.39144,8.56203 0.69572,3.4296 2.78287,10.78997 0.69572,1.49685 0.69572,-0.83765 0.69572,-3.4571 4.87004,-36.429867 0.69572,-4.344067 0.69571,-3.45475 0.69572,-2.579777 1.39144,-4.171349 1.39144,-5.319654 2.78288,-11.481738 0.69572,-2.433491 0.69572,-1.954583 0.69571,-1.443546 0.69572,-1.040916 1.39144,-1.423511 0.69572,-0.505001 0.69572,-0.356723 1.39144,-0.312939 2.78288,-0.06343 54.96181,-5.09e-4 v 0" /></g></g><g
           id="g36"><g
             clip-path="url(#clipPath42)"
             id="g38"><path
               inkscape:connector-curvature="0"
               id="path44"
               style="fill:none;stroke:#ffa300;stroke-width:1.5;stroke-linecap:square;stroke-linejoin:round;stroke-miterlimit:10;stroke-dasharray:none;stroke-opacity:1"
               d="m 47.745,36.755625 4.870035,0.118078 3.478596,0.150291 2.782877,0.134467 10.435788,1.465972 2.087158,0.597564 2.087157,0.646444 2.087158,0.58534 4.174315,1.380379 2.782877,0.762457 1.391438,0.408483 0.69572,0.31711 0.695719,0.439879 0.695719,0.60423 0.695719,0.811417 0.69572,1.062644 0.695719,1.363998 0.695719,1.703463 2.782877,8.01515 0.695719,1.226444 0.695719,0.718585 1.391439,0.72633 0.695719,0.617096 0.695719,1.143858 0.695719,1.793566 0.69572,2.416024 2.782877,11.014861 2.087158,6.30192 1.39144,6.058667 2.78287,14.284688 1.39144,7.16393 0.69572,2.20245 0.69572,0.23042 0.69572,-2.13119 0.69572,-4.25561 2.78288,-22.384503 1.39144,-8.349493 3.47859,-18.503317 1.39144,-6.372497 0.69572,-2.432297 0.69572,-1.815427 0.69572,-1.255881 0.69572,-0.819039 0.69572,-0.489836 0.69571,-0.22167 0.69572,-0.004 2.08716,0.315991 0.69572,-0.109383 0.69572,-0.289128 0.69572,-0.460462 1.39144,-1.261189 2.08716,-1.962366 1.39143,-1.042266 1.39144,-0.692019 2.08716,-0.650135 2.08716,-0.367633 4.87003,-0.590487 3.4786,0.115873 3.47859,0.404233 4.17432,0.538436 2.78288,0.624607 1.39143,-0.01032 2.08716,-0.428311 2.78288,-0.643641 2.08716,-0.25917 2.08715,-0.0235 2.08716,0.01637 2.08716,-0.291857 2.08716,-0.29923 2.78287,-0.09761 9.04435,-0.0038 v 0" /></g></g><g
           id="g46"><g
             clip-path="url(#clipPath52)"
             id="g48"><path
               inkscape:connector-curvature="0"
               id="path54"
               style="fill:none;stroke:#0077ff;stroke-width:1.5;stroke-linecap:square;stroke-linejoin:round;stroke-miterlimit:10;stroke-dasharray:none;stroke-opacity:1"
               d="m 47.745,36.72 43.134592,0.08131 2.087157,0.162515 2.087158,0.420753 2.087158,0.602479 0.695719,0.319358 0.695719,0.466465 0.695719,0.661891 0.69572,0.883847 0.695718,1.113422 1.39144,2.897961 1.39144,3.640066 2.78287,7.575512 1.39144,3.160855 1.39144,2.630853 1.39144,2.39411 0.69572,1.518433 0.69572,2.049585 0.69572,2.719376 1.39144,7.063787 1.39143,7.256024 0.69572,3.02402 0.69572,2.463808 0.69572,1.83646 0.69572,1.111565 0.69572,0.289241 0.69572,-0.540655 0.69572,-1.222152 2.08716,-4.818083 0.69572,-1.215946 0.69571,-0.927994 1.39144,-1.320232 1.39144,-1.365229 0.69572,-1.006526 0.69572,-1.327776 1.39144,-3.538282 2.08716,-6.522596 1.39143,-4.386207 1.39144,-3.519071 0.69572,-1.303895 1.39144,-1.965615 1.39144,-1.776349 1.39144,-2.278228 3.47859,-6.795662 0.69572,-0.815573 1.39144,-1.063586 2.08716,-1.090818 1.39144,-0.554239 2.08716,-0.523243 3.47859,-0.643465 1.39144,-0.113982 3.4786,-0.106566 1.39143,-0.387582 1.39144,-0.592782 2.08716,-1.225747 1.39144,-0.731873 1.39144,-0.359398 2.08715,-0.03986 2.08716,-0.129602 1.39144,-0.05303 2.78288,0.09575 3.47859,-0.316991 2.08716,0.0013 1.39144,-0.237814 2.78288,-0.643272 2.08715,-0.171514 v 0" /></g></g><path
           inkscape:connector-curvature="0"
           id="path58"
           style="fill:none;stroke:#000000;stroke-width:1;stroke-linecap:square;stroke-linejoin:miter;stroke-miterlimit:10;stroke-dasharray:none;stroke-opacity:1"
           d="M 47.745,273.78 H 186.19312" /><path
           inkscape:connector-curvature="0"
           id="path60"
           style="fill:none;stroke:#000000;stroke-width:1;stroke-linecap:square;stroke-linejoin:miter;stroke-miterlimit:10;stroke-dasharray:none;stroke-opacity:1"
           d="M 186.19312,36.72 V 273.78" /><path
           inkscape:connector-curvature="0"
           id="path62"
           style="fill:none;stroke:#000000;stroke-width:1;stroke-linecap:square;stroke-linejoin:miter;stroke-miterlimit:10;stroke-dasharray:none;stroke-opacity:1"
           d="M 47.745,36.72 H 186.19312" /><path
           inkscape:connector-curvature="0"
           id="path64"
           style="fill:none;stroke:#000000;stroke-width:1;stroke-linecap:square;stroke-linejoin:miter;stroke-miterlimit:10;stroke-dasharray:none;stroke-opacity:1"
           d="M 47.745,36.72 V 273.78" /><path
           inkscape:connector-curvature="0"
           id="path66"
           style="fill:#000000;fill-opacity:1;fill-rule:nonzero;stroke:#000000;stroke-width:0.5;stroke-linecap:butt;stroke-linejoin:round;stroke-miterlimit:10;stroke-dasharray:none;stroke-opacity:1"
           d="m 47.745,36.72 v 4" /><path
           inkscape:connector-curvature="0"
           id="path68"
           style="fill:#000000;fill-opacity:1;fill-rule:nonzero;stroke:#000000;stroke-width:0.5;stroke-linecap:butt;stroke-linejoin:round;stroke-miterlimit:10;stroke-dasharray:none;stroke-opacity:1"
           d="m 47.745,273.78 v -4" /><g
           transform="translate(38.237187,25.87625)"
           id="g70"><text
             id="text74"
             style="font-variant:normal;font-weight:normal;font-size:9px;font-family:BitstreamVeraSans;-inkscape-font-specification:BitstreamVeraSans-Roman;writing-mode:lr-tb;fill:#000000;fill-opacity:1;fill-rule:nonzero;stroke:none"
             transform="matrix(1,0,0,-1,7.5410156,0)"><tspan
               id="tspan72"
               sodipodi:role="line"
               y="0"
               x="0 5.724">80</tspan></text>
<g
             transform="scale(0.009)"
             id="g76"><g
               id="g78"><g
                 clip-path="url(#clipPath84)"
                 id="g80"><path
                   inkscape:connector-curvature="0"
                   id="path86"
                   style="fill:#000000;fill-opacity:1;fill-rule:nonzero;stroke:none"
                   d="M 106,355 H 732 V 272 H 106 v 83" /></g></g></g></g><path
           inkscape:connector-curvature="0"
           id="path88"
           style="fill:#000000;fill-opacity:1;fill-rule:nonzero;stroke:#000000;stroke-width:0.5;stroke-linecap:butt;stroke-linejoin:round;stroke-miterlimit:10;stroke-dasharray:none;stroke-opacity:1"
           d="m 78.51125,36.72 v 4" /><path
           inkscape:connector-curvature="0"
           id="path90"
           style="fill:#000000;fill-opacity:1;fill-rule:nonzero;stroke:#000000;stroke-width:0.5;stroke-linecap:butt;stroke-linejoin:round;stroke-miterlimit:10;stroke-dasharray:none;stroke-opacity:1"
           d="m 78.51125,273.78 v -4" /><g
           transform="translate(69.003437,25.87625)"
           id="g92"><text
             id="text96"
             style="font-variant:normal;font-weight:normal;font-size:9px;font-family:BitstreamVeraSans;-inkscape-font-specification:BitstreamVeraSans-Roman;writing-mode:lr-tb;fill:#000000;fill-opacity:1;fill-rule:nonzero;stroke:none"
             transform="matrix(1,0,0,-1,7.5410156,0)"><tspan
               id="tspan94"
               sodipodi:role="line"
               y="0"
               x="0 5.724">40</tspan></text>
<g
             transform="scale(0.009)"
             id="g98"><g
               id="g100"><g
                 clip-path="url(#clipPath106)"
                 id="g102"><path
                   inkscape:connector-curvature="0"
                   id="path108"
                   style="fill:#000000;fill-opacity:1;fill-rule:nonzero;stroke:none"
                   d="M 106,355 H 732 V 272 H 106 v 83" /></g></g></g></g><path
           inkscape:connector-curvature="0"
           id="path110"
           style="fill:#000000;fill-opacity:1;fill-rule:nonzero;stroke:#000000;stroke-width:0.5;stroke-linecap:butt;stroke-linejoin:round;stroke-miterlimit:10;stroke-dasharray:none;stroke-opacity:1"
           d="m 109.2775,36.72 v 4" /><path
           inkscape:connector-curvature="0"
           id="path112"
           style="fill:#000000;fill-opacity:1;fill-rule:nonzero;stroke:#000000;stroke-width:0.5;stroke-linecap:butt;stroke-linejoin:round;stroke-miterlimit:10;stroke-dasharray:none;stroke-opacity:1"
           d="m 109.2775,273.78 v -4" /><text
           id="text116"
           style="font-variant:normal;font-weight:normal;font-size:9px;font-family:BitstreamVeraSans;-inkscape-font-specification:BitstreamVeraSans-Roman;writing-mode:lr-tb;fill:#000000;fill-opacity:1;fill-rule:nonzero;stroke:none"
           transform="matrix(1,0,0,-1,106.41031,25.87625)"><tspan
             id="tspan114"
             y="0"
             x="0">0</tspan></text>
<path
           inkscape:connector-curvature="0"
           id="path118"
           style="fill:#000000;fill-opacity:1;fill-rule:nonzero;stroke:#000000;stroke-width:0.5;stroke-linecap:butt;stroke-linejoin:round;stroke-miterlimit:10;stroke-dasharray:none;stroke-opacity:1"
           d="m 140.04375,36.72 v 4" /><path
           inkscape:connector-curvature="0"
           id="path120"
           style="fill:#000000;fill-opacity:1;fill-rule:nonzero;stroke:#000000;stroke-width:0.5;stroke-linecap:butt;stroke-linejoin:round;stroke-miterlimit:10;stroke-dasharray:none;stroke-opacity:1"
           d="m 140.04375,273.78 v -4" /><text
           id="text124"
           style="font-variant:normal;font-weight:normal;font-size:9px;font-family:BitstreamVeraSans;-inkscape-font-specification:BitstreamVeraSans-Roman;writing-mode:lr-tb;fill:#000000;fill-opacity:1;fill-rule:nonzero;stroke:none"
           transform="matrix(1,0,0,-1,134.30937,25.87625)"><tspan
             id="tspan122"
             sodipodi:role="line"
             y="0"
             x="0 5.724">40</tspan></text>
<path
           inkscape:connector-curvature="0"
           id="path126"
           style="fill:#000000;fill-opacity:1;fill-rule:nonzero;stroke:#000000;stroke-width:0.5;stroke-linecap:butt;stroke-linejoin:round;stroke-miterlimit:10;stroke-dasharray:none;stroke-opacity:1"
           d="m 170.81,36.72 v 4" /><path
           inkscape:connector-curvature="0"
           id="path128"
           style="fill:#000000;fill-opacity:1;fill-rule:nonzero;stroke:#000000;stroke-width:0.5;stroke-linecap:butt;stroke-linejoin:round;stroke-miterlimit:10;stroke-dasharray:none;stroke-opacity:1"
           d="m 170.81,273.78 v -4" /><text
           id="text132"
           style="font-variant:normal;font-weight:normal;font-size:9px;font-family:BitstreamVeraSans;-inkscape-font-specification:BitstreamVeraSans-Roman;writing-mode:lr-tb;fill:#000000;fill-opacity:1;fill-rule:nonzero;stroke:none"
           transform="matrix(1,0,0,-1,165.07562,25.87625)"><tspan
             id="tspan130"
             sodipodi:role="line"
             y="0"
             x="0 5.724">80</tspan></text>
<text
           id="text136"
           style="font-variant:normal;font-weight:normal;font-size:9px;font-family:BitstreamVeraSans;-inkscape-font-specification:BitstreamVeraSans-Roman;writing-mode:lr-tb;fill:#000000;fill-opacity:1;fill-rule:nonzero;stroke:none"
           transform="matrix(1,0,0,-1,79.008125,12.1575)"><tspan
             id="tspan134"
             sodipodi:role="line"
             y="0"
             x="0 5.7150002 11.043 19.809 23.058001 29.826 32.688 38.223 41.922001 45.620998 51.129002 54.827999 57.689999 61.200001 66.905998 72.404999">Sym-H error (nT)</tspan></text>
<path
           inkscape:connector-curvature="0"
           id="path138"
           style="fill:#000000;fill-opacity:1;fill-rule:nonzero;stroke:#000000;stroke-width:0.5;stroke-linecap:butt;stroke-linejoin:round;stroke-miterlimit:10;stroke-dasharray:none;stroke-opacity:1"
           d="m 47.745,36.72 h 4" /><path
           inkscape:connector-curvature="0"
           id="path140"
           style="fill:#000000;fill-opacity:1;fill-rule:nonzero;stroke:#000000;stroke-width:0.5;stroke-linecap:butt;stroke-linejoin:round;stroke-miterlimit:10;stroke-dasharray:none;stroke-opacity:1"
           d="m 186.19312,36.72 h -4" /><path
           inkscape:connector-curvature="0"
           id="path146"
           style="fill:#000000;fill-opacity:1;fill-rule:nonzero;stroke:#000000;stroke-width:0.5;stroke-linecap:butt;stroke-linejoin:round;stroke-miterlimit:10;stroke-dasharray:none;stroke-opacity:1"
           d="m 47.745,76.23 h 4" /><path
           inkscape:connector-curvature="0"
           id="path148"
           style="fill:#000000;fill-opacity:1;fill-rule:nonzero;stroke:#000000;stroke-width:0.5;stroke-linecap:butt;stroke-linejoin:round;stroke-miterlimit:10;stroke-dasharray:none;stroke-opacity:1"
           d="m 186.19312,76.23 h -4" /><path
           inkscape:connector-curvature="0"
           id="path154"
           style="fill:#000000;fill-opacity:1;fill-rule:nonzero;stroke:#000000;stroke-width:0.5;stroke-linecap:butt;stroke-linejoin:round;stroke-miterlimit:10;stroke-dasharray:none;stroke-opacity:1"
           d="m 47.745,115.74 h 4" /><path
           inkscape:connector-curvature="0"
           id="path156"
           style="fill:#000000;fill-opacity:1;fill-rule:nonzero;stroke:#000000;stroke-width:0.5;stroke-linecap:butt;stroke-linejoin:round;stroke-miterlimit:10;stroke-dasharray:none;stroke-opacity:1"
           d="m 186.19312,115.74 h -4" /><path
           inkscape:connector-curvature="0"
           id="path162"
           style="fill:#000000;fill-opacity:1;fill-rule:nonzero;stroke:#000000;stroke-width:0.5;stroke-linecap:butt;stroke-linejoin:round;stroke-miterlimit:10;stroke-dasharray:none;stroke-opacity:1"
           d="m 47.745,155.25 h 4" /><path
           inkscape:connector-curvature="0"
           id="path164"
           style="fill:#000000;fill-opacity:1;fill-rule:nonzero;stroke:#000000;stroke-width:0.5;stroke-linecap:butt;stroke-linejoin:round;stroke-miterlimit:10;stroke-dasharray:none;stroke-opacity:1"
           d="m 186.19312,155.25 h -4" /><path
           inkscape:connector-curvature="0"
           id="path170"
           style="fill:#000000;fill-opacity:1;fill-rule:nonzero;stroke:#000000;stroke-width:0.5;stroke-linecap:butt;stroke-linejoin:round;stroke-miterlimit:10;stroke-dasharray:none;stroke-opacity:1"
           d="m 47.745,194.76 h 4" /><path
           inkscape:connector-curvature="0"
           id="path172"
           style="fill:#000000;fill-opacity:1;fill-rule:nonzero;stroke:#000000;stroke-width:0.5;stroke-linecap:butt;stroke-linejoin:round;stroke-miterlimit:10;stroke-dasharray:none;stroke-opacity:1"
           d="m 186.19312,194.76 h -4" /><path
           inkscape:connector-curvature="0"
           id="path178"
           style="fill:#000000;fill-opacity:1;fill-rule:nonzero;stroke:#000000;stroke-width:0.5;stroke-linecap:butt;stroke-linejoin:round;stroke-miterlimit:10;stroke-dasharray:none;stroke-opacity:1"
           d="m 47.745,234.27 h 4" /><path
           inkscape:connector-curvature="0"
           id="path180"
           style="fill:#000000;fill-opacity:1;fill-rule:nonzero;stroke:#000000;stroke-width:0.5;stroke-linecap:butt;stroke-linejoin:round;stroke-miterlimit:10;stroke-dasharray:none;stroke-opacity:1"
           d="m 186.19312,234.27 h -4" /><path
           inkscape:connector-curvature="0"
           id="path186"
           style="fill:#000000;fill-opacity:1;fill-rule:nonzero;stroke:#000000;stroke-width:0.5;stroke-linecap:butt;stroke-linejoin:round;stroke-miterlimit:10;stroke-dasharray:none;stroke-opacity:1"
           d="m 47.745,273.78 h 4" /><path
           inkscape:connector-curvature="0"
           id="path188"
           style="fill:#000000;fill-opacity:1;fill-rule:nonzero;stroke:#000000;stroke-width:0.5;stroke-linecap:butt;stroke-linejoin:round;stroke-miterlimit:10;stroke-dasharray:none;stroke-opacity:1"
           d="m 186.19312,273.78 h -4" /></g><g
         transform="translate(-3.6185597e-7,-3.0506174e-6)"
         id="g2143"><text
           transform="matrix(1,0,0,-1,23.6825,34.235625)"
           style="font-variant:normal;font-weight:normal;font-size:9px;font-family:BitstreamVeraSans;-inkscape-font-specification:BitstreamVeraSans-Roman;writing-mode:lr-tb;fill:#000000;fill-opacity:1;fill-rule:nonzero;stroke:none"
           id="text144"><tspan
             x="0 5.724 8.5860004 14.31"
             y="0"
             sodipodi:role="line"
             id="tspan142">0.00</tspan></text>
<text
           transform="matrix(1,0,0,-1,23.6825,73.745625)"
           style="font-variant:normal;font-weight:normal;font-size:9px;font-family:BitstreamVeraSans;-inkscape-font-specification:BitstreamVeraSans-Roman;writing-mode:lr-tb;fill:#000000;fill-opacity:1;fill-rule:nonzero;stroke:none"
           id="text152"><tspan
             x="0 5.724 8.5860004 14.31"
             y="0"
             sodipodi:role="line"
             id="tspan150">0.02</tspan></text>
<text
           transform="matrix(1,0,0,-1,23.6825,113.25563)"
           style="font-variant:normal;font-weight:normal;font-size:9px;font-family:BitstreamVeraSans;-inkscape-font-specification:BitstreamVeraSans-Roman;writing-mode:lr-tb;fill:#000000;fill-opacity:1;fill-rule:nonzero;stroke:none"
           id="text160"><tspan
             x="0 5.724 8.5860004 14.31"
             y="0"
             sodipodi:role="line"
             id="tspan158">0.04</tspan></text>
<text
           transform="matrix(1,0,0,-1,23.6825,152.76562)"
           style="font-variant:normal;font-weight:normal;font-size:9px;font-family:BitstreamVeraSans;-inkscape-font-specification:BitstreamVeraSans-Roman;writing-mode:lr-tb;fill:#000000;fill-opacity:1;fill-rule:nonzero;stroke:none"
           id="text168"><tspan
             x="0 5.724 8.5860004 14.31"
             y="0"
             sodipodi:role="line"
             id="tspan166">0.06</tspan></text>
<text
           transform="matrix(1,0,0,-1,23.6825,192.27562)"
           style="font-variant:normal;font-weight:normal;font-size:9px;font-family:BitstreamVeraSans;-inkscape-font-specification:BitstreamVeraSans-Roman;writing-mode:lr-tb;fill:#000000;fill-opacity:1;fill-rule:nonzero;stroke:none"
           id="text176"><tspan
             x="0 5.724 8.5860004 14.31"
             y="0"
             sodipodi:role="line"
             id="tspan174">0.08</tspan></text>
<text
           transform="matrix(1,0,0,-1,23.6825,231.78562)"
           style="font-variant:normal;font-weight:normal;font-size:9px;font-family:BitstreamVeraSans;-inkscape-font-specification:BitstreamVeraSans-Roman;writing-mode:lr-tb;fill:#000000;fill-opacity:1;fill-rule:nonzero;stroke:none"
           id="text184"><tspan
             x="0 5.724 8.5860004 14.31"
             y="0"
             sodipodi:role="line"
             id="tspan182">0.10</tspan></text>
<text
           transform="matrix(1,0,0,-1,23.6825,271.29562)"
           style="font-variant:normal;font-weight:normal;font-size:9px;font-family:BitstreamVeraSans;-inkscape-font-specification:BitstreamVeraSans-Roman;writing-mode:lr-tb;fill:#000000;fill-opacity:1;fill-rule:nonzero;stroke:none"
           id="text192"><tspan
             x="0 5.724 8.5860004 14.31"
             y="0"
             sodipodi:role="line"
             id="tspan190">0.12</tspan></text>
</g></g><g
       id="g2291"
       transform="translate(-159.86441)"><g
         id="g204"><g
           clip-path="url(#clipPath210)"
           id="g206"><path
             inkscape:connector-curvature="0"
             id="path212"
             style="fill:none;stroke:#b0c4de;stroke-width:5;stroke-linecap:square;stroke-linejoin:round;stroke-miterlimit:10;stroke-dasharray:none;stroke-opacity:1"
             d="m 208.23187,36.720056 11.13151,0.09103 4.17432,0.230402 14.6101,1.628891 2.08716,0.288449 6.26147,0.508457 4.87004,0.981208 5.56575,1.352706 1.39144,0.0024 1.39144,-0.265836 2.08715,-0.472201 1.39144,0.02643 1.39144,0.387987 2.08716,0.692837 1.39144,0.100857 3.47859,-0.346815 1.39144,0.169799 2.08716,0.557275 2.08716,0.748598 1.39144,0.658212 1.39143,0.862468 1.39144,1.084702 4.17432,3.651307 1.39144,0.851101 4.17431,2.028892 1.39144,1.078759 1.39144,1.418265 1.39144,1.844572 1.39144,2.403812 1.39143,3.013515 2.08716,5.34413 3.4786,9.729518 2.08716,5.800098 0.69571,1.460122 0.69572,1.012051 0.69572,0.509741 0.69572,0.0445 0.69572,-0.295605 1.39144,-0.883744 0.69572,-0.259713 0.69572,-0.02276 0.69572,0.202532 2.08716,1.038065 0.69571,0.07901 0.69572,-0.246454 0.69572,-0.644117 0.69572,-1.058605 1.39144,-3.084578 1.39144,-3.424942 1.39144,-2.792079 2.08716,-3.433448 1.39143,-2.900243 3.4786,-8.191907 1.39144,-2.38333 1.39144,-1.776665 1.39144,-1.210029 2.08715,-1.372945 0.69572,-0.624766 0.69572,-0.813919 1.39144,-2.229595 3.4786,-6.577538 1.39144,-1.814848 1.39143,-1.209076 1.39144,-0.796137 1.39144,-0.570291 v 0" /></g></g><path
         inkscape:connector-curvature="0"
         id="path202"
         style="fill:#ffffff;fill-opacity:1;fill-rule:nonzero;stroke:none;stroke-width:0.99999994"
         d="M 208.23187,36.719998 H 346.68 V 273.78 H 208.23187 Z" /><g
         id="g214"><g
           clip-path="url(#clipPath220)"
           id="g216"><path
             inkscape:connector-curvature="0"
             id="path222"
             style="fill:none;stroke:#ff0e00;stroke-width:1.5;stroke-linecap:square;stroke-linejoin:round;stroke-miterlimit:10;stroke-dasharray:none;stroke-opacity:1"
             d="m 208.23187,37.164528 4.87004,-0.0093 4.87003,0.0512 2.78288,0.274475 4.17432,0.649703 5.56575,1.110628 2.78288,0.781023 4.17431,1.242084 2.08716,0.392956 2.08716,0.16882 2.78287,-0.04754 9.04435,-0.625535 3.4786,-0.310634 2.08716,0.03946 1.39144,0.23297 1.39143,0.444348 2.78288,1.279562 4.17432,2.005669 3.47859,2.048992 1.39144,0.336223 1.39144,-0.08938 3.4786,-0.69122 1.39143,0.148191 1.39144,0.502527 2.08716,1.16304 2.78288,1.82493 1.39144,1.182045 1.39143,1.538809 1.39144,1.928203 1.39144,2.284012 2.08716,3.982177 2.78288,5.56149 1.39143,2.318471 1.39144,1.84458 2.78288,3.172793 1.39144,2.131621 1.39144,2.88543 4.17431,10.066724 0.69572,1.125384 0.69572,0.837612 0.69572,0.547659 0.69572,0.268632 0.69572,0.0031 0.69572,-0.255545 0.69572,-0.517788 0.69572,-0.79046 0.69571,-1.070154 1.39144,-2.917421 6.26148,-16.016182 1.39143,-4.438353 2.08716,-8.010798 2.08716,-7.85247 1.39144,-4.15193 0.69572,-1.640058 0.69572,-1.349577 0.69572,-1.083724 0.69572,-0.857517 1.39143,-1.229597 1.39144,-0.868416 2.08716,-0.987962 1.39144,-0.456992 1.39144,-0.279443 2.08716,-0.172762 4.17431,-0.0592 v 0" /></g></g><g
         id="g224"><g
           clip-path="url(#clipPath230)"
           id="g226"><path
             inkscape:connector-curvature="0"
             id="path232"
             style="fill:none;stroke:#ffa300;stroke-width:1.5;stroke-linecap:square;stroke-linejoin:round;stroke-miterlimit:10;stroke-dasharray:none;stroke-opacity:1"
             d="m 208.23187,37.256869 11.82723,-0.0276 5.56576,0.291755 2.78287,0.107049 3.4786,0.494331 2.78287,0.307262 3.4786,0.324639 2.08716,0.474972 2.08716,0.796268 4.87003,2.156019 2.08716,0.627922 2.08716,0.364029 2.08715,0.07575 1.39144,-0.150646 1.39144,-0.332346 5.56575,-1.700941 1.39144,-0.155573 1.39144,0.0381 1.39144,0.27458 2.08716,0.747089 2.08716,0.707425 2.08715,0.4181 4.87004,0.712804 4.17431,0.241959 1.39144,0.570847 1.39144,1.002642 1.39144,1.393593 2.08716,2.575151 2.78287,3.852473 2.08716,3.239963 2.78288,4.318624 1.39144,1.747604 2.08715,2.138498 1.39144,1.490927 0.69572,0.933852 0.69572,1.1574 0.69572,1.451148 0.69572,1.793413 1.39144,4.6011 2.78287,10.551535 0.69572,2.093229 0.69572,1.658342 0.69572,1.195809 0.69572,0.756014 0.69572,0.379235 0.69572,0.09037 1.39144,-0.313661 2.78287,-0.930498 3.4786,-0.982099 0.69572,-0.460463 0.69572,-0.737001 0.69572,-1.132052 0.69572,-1.642319 0.69572,-2.240642 0.69572,-2.874532 1.39143,-7.429494 2.78288,-16.779416 1.39144,-6.489668 0.69572,-2.496138 0.69572,-2.033747 0.69572,-1.633689 0.69572,-1.303712 0.69572,-1.040676 1.39143,-1.518017 1.39144,-1.055374 2.08716,-1.181748 2.08716,-0.86357 1.39144,-0.361765 2.08716,-0.267966 4.17431,-0.237396 v 0" /></g></g><g
         id="g234"><g
           clip-path="url(#clipPath240)"
           id="g236"><path
             inkscape:connector-curvature="0"
             id="path242"
             style="fill:none;stroke:#0077ff;stroke-width:1.5;stroke-linecap:square;stroke-linejoin:round;stroke-miterlimit:10;stroke-dasharray:none;stroke-opacity:1"
             d="m 208.23187,36.72 91.83494,0.103214 2.08716,0.216093 1.39144,-0.03279 1.39144,0.02112 1.39143,0.329343 0.69572,0.274725 0.69572,0.463292 0.69572,0.08938 0.69572,-0.328867 0.69572,-0.159055 0.69572,0.573335 0.69572,1.101233 0.69572,0.72754 0.69572,0.479171 0.69572,0.667132 2.08715,2.986668 0.69572,1.208294 2.08716,5.683207 0.69572,2.06339 0.69572,3.032508 1.39144,7.685992 0.69572,5.70261 0.69572,8.472595 0.69572,13.837282 1.39143,44.678398 1.39144,44.92932 1.39144,64.83343 0.69572,17.89064 0.69572,4.89351 0.69572,-4.66328 0.69572,-18.84832 0.69572,-30.12446 1.39144,-69.69459 1.39143,-53.892624 0.69572,-17.371344 0.69572,-10.222557 0.69572,-7.352986 0.69572,-5.277047 0.69572,-1.251003 0.69572,-0.615128 0.69572,-1.19208 0.69572,-0.599078 0.69572,-0.885287 0.69572,-1.576129 0.69572,-1.853855 0.69572,-1.430348 0.69572,-1.142948 2.08715,-2.060407 1.39144,-0.581234 0.69572,-0.4307 v 0" /></g></g><g
         id="g244"><path
           inkscape:connector-curvature="0"
           id="path246"
           style="fill:none;stroke:#000000;stroke-width:1;stroke-linecap:square;stroke-linejoin:miter;stroke-miterlimit:10;stroke-dasharray:none;stroke-opacity:1"
           d="M 208.23187,273.78 H 346.68" /><path
           inkscape:connector-curvature="0"
           id="path248"
           style="fill:none;stroke:#000000;stroke-width:1;stroke-linecap:square;stroke-linejoin:miter;stroke-miterlimit:10;stroke-dasharray:none;stroke-opacity:1"
           d="M 346.68,36.72 V 273.78" /><path
           inkscape:connector-curvature="0"
           id="path250"
           style="fill:none;stroke:#000000;stroke-width:1;stroke-linecap:square;stroke-linejoin:miter;stroke-miterlimit:10;stroke-dasharray:none;stroke-opacity:1"
           d="M 208.23187,36.72 H 346.68" /><path
           inkscape:connector-curvature="0"
           id="path252"
           style="fill:none;stroke:#000000;stroke-width:1;stroke-linecap:square;stroke-linejoin:miter;stroke-miterlimit:10;stroke-dasharray:none;stroke-opacity:1"
           d="M 208.23187,36.72 V 273.78" /><path
           inkscape:connector-curvature="0"
           id="path254"
           style="fill:#000000;fill-opacity:1;fill-rule:nonzero;stroke:#000000;stroke-width:0.5;stroke-linecap:butt;stroke-linejoin:round;stroke-miterlimit:10;stroke-dasharray:none;stroke-opacity:1"
           d="m 208.23187,36.72 v 4" /><path
           inkscape:connector-curvature="0"
           id="path256"
           style="fill:#000000;fill-opacity:1;fill-rule:nonzero;stroke:#000000;stroke-width:0.5;stroke-linecap:butt;stroke-linejoin:round;stroke-miterlimit:10;stroke-dasharray:none;stroke-opacity:1"
           d="m 208.23187,273.78 v -4" /><g
           transform="translate(195.85687,25.87625)"
           id="g258"><text
             id="text262"
             style="font-variant:normal;font-weight:normal;font-size:9px;font-family:BitstreamVeraSans;-inkscape-font-specification:BitstreamVeraSans-Roman;writing-mode:lr-tb;fill:#000000;fill-opacity:1;fill-rule:nonzero;stroke:none"
             transform="matrix(1,0,0,-1,7.5410156,0)"><tspan
               id="tspan260"
               sodipodi:role="line"
               y="0"
               x="0 5.724 11.448">120</tspan></text>
<g
             transform="scale(0.009)"
             id="g264"><g
               id="g266"><g
                 clip-path="url(#clipPath272)"
                 id="g268"><path
                   inkscape:connector-curvature="0"
                   id="path274"
                   style="fill:#000000;fill-opacity:1;fill-rule:nonzero;stroke:none"
                   d="M 106,355 H 732 V 272 H 106 v 83" /></g></g></g></g><path
           inkscape:connector-curvature="0"
           id="path276"
           style="fill:#000000;fill-opacity:1;fill-rule:nonzero;stroke:#000000;stroke-width:0.5;stroke-linecap:butt;stroke-linejoin:round;stroke-miterlimit:10;stroke-dasharray:none;stroke-opacity:1"
           d="m 237.89933,36.72 v 4" /><path
           inkscape:connector-curvature="0"
           id="path278"
           style="fill:#000000;fill-opacity:1;fill-rule:nonzero;stroke:#000000;stroke-width:0.5;stroke-linecap:butt;stroke-linejoin:round;stroke-miterlimit:10;stroke-dasharray:none;stroke-opacity:1"
           d="m 237.89933,273.78 v -4" /><g
           transform="translate(228.39152,25.87625)"
           id="g280"><text
             id="text284"
             style="font-variant:normal;font-weight:normal;font-size:9px;font-family:BitstreamVeraSans;-inkscape-font-specification:BitstreamVeraSans-Roman;writing-mode:lr-tb;fill:#000000;fill-opacity:1;fill-rule:nonzero;stroke:none"
             transform="matrix(1,0,0,-1,7.5410156,0)"><tspan
               id="tspan282"
               sodipodi:role="line"
               y="0"
               x="0 5.724">90</tspan></text>
<g
             transform="scale(0.009)"
             id="g286"><g
               id="g288"><g
                 clip-path="url(#clipPath294)"
                 id="g290"><path
                   inkscape:connector-curvature="0"
                   id="path296"
                   style="fill:#000000;fill-opacity:1;fill-rule:nonzero;stroke:none"
                   d="M 106,355 H 732 V 272 H 106 v 83" /></g></g></g></g><path
           inkscape:connector-curvature="0"
           id="path298"
           style="fill:#000000;fill-opacity:1;fill-rule:nonzero;stroke:#000000;stroke-width:0.5;stroke-linecap:butt;stroke-linejoin:round;stroke-miterlimit:10;stroke-dasharray:none;stroke-opacity:1"
           d="m 267.56679,36.72 v 4" /><path
           inkscape:connector-curvature="0"
           id="path300"
           style="fill:#000000;fill-opacity:1;fill-rule:nonzero;stroke:#000000;stroke-width:0.5;stroke-linecap:butt;stroke-linejoin:round;stroke-miterlimit:10;stroke-dasharray:none;stroke-opacity:1"
           d="m 267.56679,273.78 v -4" /><g
           transform="translate(258.05897,25.87625)"
           id="g302"><text
             id="text306"
             style="font-variant:normal;font-weight:normal;font-size:9px;font-family:BitstreamVeraSans;-inkscape-font-specification:BitstreamVeraSans-Roman;writing-mode:lr-tb;fill:#000000;fill-opacity:1;fill-rule:nonzero;stroke:none"
             transform="matrix(1,0,0,-1,7.5410156,0)"><tspan
               id="tspan304"
               sodipodi:role="line"
               y="0"
               x="0 5.724">60</tspan></text>
<g
             transform="scale(0.009)"
             id="g308"><g
               id="g310"><g
                 clip-path="url(#clipPath316)"
                 id="g312"><path
                   inkscape:connector-curvature="0"
                   id="path318"
                   style="fill:#000000;fill-opacity:1;fill-rule:nonzero;stroke:none"
                   d="M 106,355 H 732 V 272 H 106 v 83" /></g></g></g></g><path
           inkscape:connector-curvature="0"
           id="path320"
           style="fill:#000000;fill-opacity:1;fill-rule:nonzero;stroke:#000000;stroke-width:0.5;stroke-linecap:butt;stroke-linejoin:round;stroke-miterlimit:10;stroke-dasharray:none;stroke-opacity:1"
           d="m 297.23424,36.72 v 4" /><path
           inkscape:connector-curvature="0"
           id="path322"
           style="fill:#000000;fill-opacity:1;fill-rule:nonzero;stroke:#000000;stroke-width:0.5;stroke-linecap:butt;stroke-linejoin:round;stroke-miterlimit:10;stroke-dasharray:none;stroke-opacity:1"
           d="m 297.23424,273.78 v -4" /><g
           transform="translate(287.72643,25.87625)"
           id="g324"><text
             id="text328"
             style="font-variant:normal;font-weight:normal;font-size:9px;font-family:BitstreamVeraSans;-inkscape-font-specification:BitstreamVeraSans-Roman;writing-mode:lr-tb;fill:#000000;fill-opacity:1;fill-rule:nonzero;stroke:none"
             transform="matrix(1,0,0,-1,7.5410156,0)"><tspan
               id="tspan326"
               sodipodi:role="line"
               y="0"
               x="0 5.724">30</tspan></text>
<g
             transform="scale(0.009)"
             id="g330"><g
               id="g332"><g
                 clip-path="url(#clipPath338)"
                 id="g334"><path
                   inkscape:connector-curvature="0"
                   id="path340"
                   style="fill:#000000;fill-opacity:1;fill-rule:nonzero;stroke:none"
                   d="M 106,355 H 732 V 272 H 106 v 83" /></g></g></g></g><path
           inkscape:connector-curvature="0"
           id="path342"
           style="fill:#000000;fill-opacity:1;fill-rule:nonzero;stroke:#000000;stroke-width:0.5;stroke-linecap:butt;stroke-linejoin:round;stroke-miterlimit:10;stroke-dasharray:none;stroke-opacity:1"
           d="m 326.9017,36.72 v 4" /><path
           inkscape:connector-curvature="0"
           id="path344"
           style="fill:#000000;fill-opacity:1;fill-rule:nonzero;stroke:#000000;stroke-width:0.5;stroke-linecap:butt;stroke-linejoin:round;stroke-miterlimit:10;stroke-dasharray:none;stroke-opacity:1"
           d="m 326.9017,273.78 v -4" /><text
           id="text348"
           style="font-variant:normal;font-weight:normal;font-size:9px;font-family:BitstreamVeraSans;-inkscape-font-specification:BitstreamVeraSans-Roman;writing-mode:lr-tb;fill:#000000;fill-opacity:1;fill-rule:nonzero;stroke:none"
           transform="matrix(1,0,0,-1,324.03451,25.87625)"><tspan
             id="tspan346"
             y="0"
             x="0">0</tspan></text>
<text
           id="text352"
           style="font-variant:normal;font-weight:normal;font-size:9px;font-family:BitstreamVeraSans;-inkscape-font-specification:BitstreamVeraSans-Roman;writing-mode:lr-tb;fill:#000000;fill-opacity:1;fill-rule:nonzero;stroke:none"
           transform="matrix(1,0,0,-1,250.56531,12.1575)"><tspan
             id="tspan350"
             sodipodi:role="line"
             y="0"
             x="0 5.7150002 11.043 19.809 23.058001 29.826 35.549999 39.060001 44.765999 50.264999">Sym-H (nT)</tspan></text>
<path
           inkscape:connector-curvature="0"
           id="path354"
           style="fill:#000000;fill-opacity:1;fill-rule:nonzero;stroke:#000000;stroke-width:0.5;stroke-linecap:butt;stroke-linejoin:round;stroke-miterlimit:10;stroke-dasharray:none;stroke-opacity:1"
           d="m 208.23187,36.72 h 4" /><path
           inkscape:connector-curvature="0"
           id="path356"
           style="fill:#000000;fill-opacity:1;fill-rule:nonzero;stroke:#000000;stroke-width:0.5;stroke-linecap:butt;stroke-linejoin:round;stroke-miterlimit:10;stroke-dasharray:none;stroke-opacity:1"
           d="m 346.68,36.72 h -4" /><path
           inkscape:connector-curvature="0"
           id="path358"
           style="fill:#000000;fill-opacity:1;fill-rule:nonzero;stroke:#000000;stroke-width:0.5;stroke-linecap:butt;stroke-linejoin:round;stroke-miterlimit:10;stroke-dasharray:none;stroke-opacity:1"
           d="m 208.23187,76.23 h 4" /><path
           inkscape:connector-curvature="0"
           id="path360"
           style="fill:#000000;fill-opacity:1;fill-rule:nonzero;stroke:#000000;stroke-width:0.5;stroke-linecap:butt;stroke-linejoin:round;stroke-miterlimit:10;stroke-dasharray:none;stroke-opacity:1"
           d="m 346.68,76.23 h -4" /><path
           inkscape:connector-curvature="0"
           id="path362"
           style="fill:#000000;fill-opacity:1;fill-rule:nonzero;stroke:#000000;stroke-width:0.5;stroke-linecap:butt;stroke-linejoin:round;stroke-miterlimit:10;stroke-dasharray:none;stroke-opacity:1"
           d="m 208.23187,115.74 h 4" /><path
           inkscape:connector-curvature="0"
           id="path364"
           style="fill:#000000;fill-opacity:1;fill-rule:nonzero;stroke:#000000;stroke-width:0.5;stroke-linecap:butt;stroke-linejoin:round;stroke-miterlimit:10;stroke-dasharray:none;stroke-opacity:1"
           d="m 346.68,115.74 h -4" /><path
           inkscape:connector-curvature="0"
           id="path366"
           style="fill:#000000;fill-opacity:1;fill-rule:nonzero;stroke:#000000;stroke-width:0.5;stroke-linecap:butt;stroke-linejoin:round;stroke-miterlimit:10;stroke-dasharray:none;stroke-opacity:1"
           d="m 208.23187,155.25 h 4" /><path
           inkscape:connector-curvature="0"
           id="path368"
           style="fill:#000000;fill-opacity:1;fill-rule:nonzero;stroke:#000000;stroke-width:0.5;stroke-linecap:butt;stroke-linejoin:round;stroke-miterlimit:10;stroke-dasharray:none;stroke-opacity:1"
           d="m 346.68,155.25 h -4" /><path
           inkscape:connector-curvature="0"
           id="path370"
           style="fill:#000000;fill-opacity:1;fill-rule:nonzero;stroke:#000000;stroke-width:0.5;stroke-linecap:butt;stroke-linejoin:round;stroke-miterlimit:10;stroke-dasharray:none;stroke-opacity:1"
           d="m 208.23187,194.76 h 4" /><path
           inkscape:connector-curvature="0"
           id="path372"
           style="fill:#000000;fill-opacity:1;fill-rule:nonzero;stroke:#000000;stroke-width:0.5;stroke-linecap:butt;stroke-linejoin:round;stroke-miterlimit:10;stroke-dasharray:none;stroke-opacity:1"
           d="m 346.68,194.76 h -4" /><path
           inkscape:connector-curvature="0"
           id="path374"
           style="fill:#000000;fill-opacity:1;fill-rule:nonzero;stroke:#000000;stroke-width:0.5;stroke-linecap:butt;stroke-linejoin:round;stroke-miterlimit:10;stroke-dasharray:none;stroke-opacity:1"
           d="m 208.23187,234.27 h 4" /><path
           inkscape:connector-curvature="0"
           id="path376"
           style="fill:#000000;fill-opacity:1;fill-rule:nonzero;stroke:#000000;stroke-width:0.5;stroke-linecap:butt;stroke-linejoin:round;stroke-miterlimit:10;stroke-dasharray:none;stroke-opacity:1"
           d="m 346.68,234.27 h -4" /><path
           inkscape:connector-curvature="0"
           id="path378"
           style="fill:#000000;fill-opacity:1;fill-rule:nonzero;stroke:#000000;stroke-width:0.5;stroke-linecap:butt;stroke-linejoin:round;stroke-miterlimit:10;stroke-dasharray:none;stroke-opacity:1"
           d="m 208.23187,273.78 h 4" /><path
           inkscape:connector-curvature="0"
           id="path380"
           style="fill:#000000;fill-opacity:1;fill-rule:nonzero;stroke:#000000;stroke-width:0.5;stroke-linecap:butt;stroke-linejoin:round;stroke-miterlimit:10;stroke-dasharray:none;stroke-opacity:1"
           d="m 346.68,273.78 h -4" /><path
           inkscape:connector-curvature="0"
           id="path386"
           style="fill:#ffffff;fill-opacity:1;fill-rule:nonzero;stroke:#000000;stroke-width:1;stroke-linecap:butt;stroke-linejoin:miter;stroke-miterlimit:10;stroke-dasharray:none;stroke-opacity:1"
           d="m 212.73187,127.4625 h 100.74375 v 55.575 H 212.73187 Z" /><path
           inkscape:connector-curvature="0"
           id="path388"
           style="fill:none;stroke:#b0c4de;stroke-width:5;stroke-linecap:square;stroke-linejoin:round;stroke-miterlimit:10;stroke-dasharray:none;stroke-opacity:1"
           d="m 219.03187,175.74375 h 12.6" /><text
           id="text392"
           style="font-variant:normal;font-weight:normal;font-size:9px;font-family:BitstreamVeraSans;-inkscape-font-specification:BitstreamVeraSans-Roman;writing-mode:lr-tb;fill:#000000;fill-opacity:1;fill-rule:nonzero;stroke:none"
           transform="matrix(1,0,0,-1,241.53187,172.59375)"><tspan
             id="tspan390"
             sodipodi:role="line"
             x="0"
             y="0">Observations</tspan></text>
<path
           inkscape:connector-curvature="0"
           id="path394"
           style="fill:none;stroke:#ff0e00;stroke-width:1.5;stroke-linecap:square;stroke-linejoin:round;stroke-miterlimit:10;stroke-dasharray:none;stroke-opacity:1"
           d="m 219.03187,162.525 h 12.6" /><text
           id="text398"
           style="font-variant:normal;font-weight:normal;font-size:9px;font-family:BitstreamVeraSans;-inkscape-font-specification:BitstreamVeraSans-Roman;writing-mode:lr-tb;fill:#000000;fill-opacity:1;fill-rule:nonzero;stroke:none"
           transform="matrix(1,0,0,-1,241.53187,159.375)"><tspan
             id="tspan396"
             sodipodi:role="line"
             y="0"
             x="0 5.7150002 14.616 20.042999">SWPC</tspan></text>
<path
           inkscape:connector-curvature="0"
           id="path400"
           style="fill:none;stroke:#ffa300;stroke-width:1.5;stroke-linecap:square;stroke-linejoin:round;stroke-miterlimit:10;stroke-dasharray:none;stroke-opacity:1"
           d="m 219.03187,149.30625 h 12.6" /><text
           id="text404"
           style="font-variant:normal;font-weight:normal;font-size:9px;font-family:BitstreamVeraSans;-inkscape-font-specification:BitstreamVeraSans-Roman;writing-mode:lr-tb;fill:#000000;fill-opacity:1;fill-rule:nonzero;stroke:none"
           transform="matrix(1,0,0,-1,241.53187,146.15625)"><tspan
             id="tspan402"
             sodipodi:role="line"
             y="0"
             x="0 6.7680001 9.2700005 12.519 16.218 21.753 26.441999 29.304001 36.666 39.699001 42.561001 48.816002 55.098">Hi-res w/ RCM</tspan></text>
<path
           inkscape:connector-curvature="0"
           id="path406"
           style="fill:none;stroke:#0077ff;stroke-width:1.5;stroke-linecap:square;stroke-linejoin:round;stroke-miterlimit:10;stroke-dasharray:none;stroke-opacity:1"
           d="m 219.03187,136.0875 h 12.6" /><text
           id="text410"
           style="font-variant:normal;font-weight:normal;font-size:9px;font-family:BitstreamVeraSans;-inkscape-font-specification:BitstreamVeraSans-Roman;writing-mode:lr-tb;fill:#000000;fill-opacity:1;fill-rule:nonzero;stroke:none"
           transform="matrix(1,0,0,-1,241.53187,132.9375)"><tspan
             id="tspan408"
             sodipodi:role="line"
             y="0"
             x="0 6.7680001 9.2700005 12.519 16.218 21.753 26.441999 29.304001 36.666 39.699001 45.207001 48.069 54.324001 60.605999">Hi-res w/o RCM</tspan></text>
</g></g></g></svg>