<?xml version="1.0" encoding="UTF-8" standalone="no"?>
<!-- Created with Inkscape (http://www.inkscape.org/) -->

<svg
   xmlns:dc="http://purl.org/dc/elements/1.1/"
   xmlns:cc="http://creativecommons.org/ns#"
   xmlns:rdf="http://www.w3.org/1999/02/22-rdf-syntax-ns#"
   xmlns:svg="http://www.w3.org/2000/svg"
   xmlns="http://www.w3.org/2000/svg"
   xmlns:sodipodi="http://sodipodi.sourceforge.net/DTD/sodipodi-0.dtd"
   xmlns:inkscape="http://www.inkscape.org/namespaces/inkscape"
   version="1.1"
   id="svg2096"
   xml:space="preserve"
   width="528"
   height="288"
   viewBox="0 0 528 288"
   sodipodi:docname="symh_storms_timeseries_build2.svg"
   inkscape:version="0.92.3 (2405546, 2018-03-11)"><sodipodi:namedview
     pagecolor="#ffffff"
     bordercolor="#666666"
     borderopacity="1"
     objecttolerance="10"
     gridtolerance="10"
     guidetolerance="10"
     inkscape:pageopacity="0"
     inkscape:pageshadow="2"
     inkscape:window-width="1366"
     inkscape:window-height="704"
     id="namedview2098"
     showgrid="false"
     inkscape:zoom="0.8175614"
     inkscape:cx="426.9263"
     inkscape:cy="-17.481753"
     inkscape:window-x="0"
     inkscape:window-y="27"
     inkscape:window-maximized="1"
     inkscape:current-layer="g527"
     fit-margin-top="0"
     fit-margin-left="0"
     fit-margin-right="0"
     fit-margin-bottom="0" /><metadata
     id="metadata2102"><rdf:RDF><cc:Work
         rdf:about=""><dc:format>image/svg+xml</dc:format><dc:type
           rdf:resource="http://purl.org/dc/dcmitype/StillImage" /><dc:title></dc:title></cc:Work></rdf:RDF></metadata><defs
     id="defs2100"><clipPath
       id="clipPath2112"
       clipPathUnits="userSpaceOnUse"><path
         inkscape:connector-curvature="0"
         id="path2110"
         d="M 0,0 H 396 V 216 H 0 Z" /></clipPath><clipPath
       id="clipPath2116"
       clipPathUnits="userSpaceOnUse"><path
         inkscape:connector-curvature="0"
         id="path2114"
         d="M 52.3575,22.72 H 358.155 V 206.28 H 52.3575 Z" /></clipPath><clipPath
       id="clipPath2120"
       clipPathUnits="userSpaceOnUse"><path
         inkscape:connector-curvature="0"
         id="path2118"
         d="M 52.3575,22.72 H 358.155 V 206.28 H 52.3575 Z" /></clipPath><clipPath
       id="clipPath2124"
       clipPathUnits="userSpaceOnUse"><path
         inkscape:connector-curvature="0"
         id="path2122"
         d="M 52.3575,22.72 H 358.155 V 206.28 H 52.3575 Z" /></clipPath><clipPath
       id="clipPath2128"
       clipPathUnits="userSpaceOnUse"><path
         inkscape:connector-curvature="0"
         id="path2126"
         d="M 52.3575,22.72 H 358.155 V 206.28 H 52.3575 Z" /></clipPath><clipPath
       id="clipPath2132"
       clipPathUnits="userSpaceOnUse"><path
         inkscape:connector-curvature="0"
         id="path2130"
         d="M 52.3575,22.72 H 358.155 V 206.28 H 52.3575 Z" /></clipPath><clipPath
       id="clipPath2136"
       clipPathUnits="userSpaceOnUse"><path
         inkscape:connector-curvature="0"
         id="path2134"
         d="M 52.3575,22.72 H 358.155 V 206.28 H 52.3575 Z" /></clipPath><clipPath
       id="clipPath2140"
       clipPathUnits="userSpaceOnUse"><path
         inkscape:connector-curvature="0"
         id="path2138"
         d="M 52.3575,22.72 H 358.155 V 206.28 H 52.3575 Z" /></clipPath><clipPath
       id="clipPath2144"
       clipPathUnits="userSpaceOnUse"><path
         inkscape:connector-curvature="0"
         id="path2142"
         d="M -184,-236 H 1288 V 929 H -184 Z" /></clipPath><clipPath
       id="clipPath2148"
       clipPathUnits="userSpaceOnUse"><path
         inkscape:connector-curvature="0"
         id="path2146"
         d="M -184,-236 H 1288 V 929 H -184 Z" /></clipPath><clipPath
       id="clipPath2152"
       clipPathUnits="userSpaceOnUse"><path
         inkscape:connector-curvature="0"
         id="path2150"
         d="M -184,-236 H 1288 V 929 H -184 Z" /></clipPath><clipPath
       id="clipPath2156"
       clipPathUnits="userSpaceOnUse"><path
         inkscape:connector-curvature="0"
         id="path2154"
         d="M -184,-236 H 1288 V 929 H -184 Z" /></clipPath><clipPath
       id="clipPath2526"
       clipPathUnits="userSpaceOnUse"><path
         inkscape:connector-curvature="0"
         id="path2524"
         d="M 0,0 H 396 V 216 H 0 Z" /></clipPath><clipPath
       id="clipPath2530"
       clipPathUnits="userSpaceOnUse"><path
         inkscape:connector-curvature="0"
         id="path2528"
         d="M 52.3575,22.72 H 358.155 V 206.28 H 52.3575 Z" /></clipPath><clipPath
       id="clipPath2534"
       clipPathUnits="userSpaceOnUse"><path
         inkscape:connector-curvature="0"
         id="path2532"
         d="M 52.3575,22.72 H 358.155 V 206.28 H 52.3575 Z" /></clipPath><clipPath
       id="clipPath2538"
       clipPathUnits="userSpaceOnUse"><path
         inkscape:connector-curvature="0"
         id="path2536"
         d="M 52.3575,22.72 H 358.155 V 206.28 H 52.3575 Z" /></clipPath><clipPath
       id="clipPath2542"
       clipPathUnits="userSpaceOnUse"><path
         inkscape:connector-curvature="0"
         id="path2540"
         d="M 52.3575,22.72 H 358.155 V 206.28 H 52.3575 Z" /></clipPath><clipPath
       id="clipPath2546"
       clipPathUnits="userSpaceOnUse"><path
         inkscape:connector-curvature="0"
         id="path2544"
         d="M 52.3575,22.72 H 358.155 V 206.28 H 52.3575 Z" /></clipPath><clipPath
       id="clipPath2550"
       clipPathUnits="userSpaceOnUse"><path
         inkscape:connector-curvature="0"
         id="path2548"
         d="M 52.3575,22.72 H 358.155 V 206.28 H 52.3575 Z" /></clipPath><clipPath
       id="clipPath2554"
       clipPathUnits="userSpaceOnUse"><path
         inkscape:connector-curvature="0"
         id="path2552"
         d="M 52.3575,22.72 H 358.155 V 206.28 H 52.3575 Z" /></clipPath><clipPath
       id="clipPath2558"
       clipPathUnits="userSpaceOnUse"><path
         inkscape:connector-curvature="0"
         id="path2556"
         d="M 52.3575,22.72 H 358.155 V 206.28 H 52.3575 Z" /></clipPath><clipPath
       id="clipPath2562"
       clipPathUnits="userSpaceOnUse"><path
         inkscape:connector-curvature="0"
         id="path2560"
         d="M 52.3575,22.72 H 358.155 V 206.28 H 52.3575 Z" /></clipPath><clipPath
       id="clipPath2566"
       clipPathUnits="userSpaceOnUse"><path
         inkscape:connector-curvature="0"
         id="path2564"
         d="M 52.3575,22.72 H 358.155 V 206.28 H 52.3575 Z" /></clipPath><clipPath
       id="clipPath2570"
       clipPathUnits="userSpaceOnUse"><path
         inkscape:connector-curvature="0"
         id="path2568"
         d="M -184,-236 H 1288 V 929 H -184 Z" /></clipPath><clipPath
       id="clipPath2574"
       clipPathUnits="userSpaceOnUse"><path
         inkscape:connector-curvature="0"
         id="path2572"
         d="M -184,-236 H 1288 V 929 H -184 Z" /></clipPath><clipPath
       id="clipPath2578"
       clipPathUnits="userSpaceOnUse"><path
         inkscape:connector-curvature="0"
         id="path2576"
         d="M -184,-236 H 1288 V 929 H -184 Z" /></clipPath></defs><g
     transform="matrix(1.3333333,0,0,-1.3333333,0,577.32799)"
     inkscape:label="symh_storms_timeseries"
     inkscape:groupmode="layer"
     id="g2104"><g
       transform="translate(0,216.996)"
       id="g2106"><g
         id="g2108" /><g
         id="g2518"><g
           id="g2516"
           clip-path="url(#clipPath2112)"><path
             inkscape:connector-curvature="0"
             id="path2158"
             style="fill:#ffffff;fill-opacity:1;fill-rule:nonzero;stroke:none"
             d="M 0,0 H 396 V 216 H 0 Z" /><path
             inkscape:connector-curvature="0"
             id="path2160"
             style="fill:#ffffff;fill-opacity:1;fill-rule:nonzero;stroke:none"
             d="M 52.3575,22.72 H 358.155 V 206.28 H 52.3575 Z" /><g
             id="g2166"><g
               id="g2164"
               clip-path="url(#clipPath2116)"><path
                 inkscape:connector-curvature="0"
                 id="path2162"
                 style="fill:none;stroke:#b0c4de;stroke-width:5;stroke-linecap:square;stroke-linejoin:round;stroke-miterlimit:10;stroke-dasharray:none;stroke-opacity:1"
                 d="m 52.3575,182.57017 h 0.134122 0.134121 l 0.268244,1.52966 0.268243,-1.52966 h 0.268244 l 0.134121,-0.76484 0.134122,0.76484 h 0.134122 l 0.134122,0.76483 h 0.80473 l 0.268243,-1.52967 h 0.402365 l 0.134122,0.76484 h 0.80473 l 0.134122,-0.76484 h 0.536487 l 0.134122,0.76484 h 1.072973 l 0.268244,-1.52967 h 0.268243 l 0.268243,1.52967 h 0.134122 l 0.134122,0.76483 h 0.134122 l 0.134121,-0.76483 h 0.402365 l 0.134122,-0.76484 h 0.134122 l 0.134122,-0.76483 h 0.134121 l 0.134122,-0.76483 h 0.134122 l 0.134121,-0.76484 h 0.402366 l 0.268243,-1.52966 h 0.134122 l 0.134121,0.76483 h 0.804731 l 0.134121,-0.76483 h 0.402366 l 0.134121,-0.76484 0.134122,0.76484 0.134122,-0.76484 h 0.938852 l 0.134121,-0.76483 h 0.536487 l 0.134122,-0.76483 h 0.670608 l 0.134122,0.76483 h 1.072974 l 0.134122,0.76483 h 0.268243 l 0.134122,-0.76483 h 0.268243 l 0.134122,0.76483 h 0.536487 l 0.268243,1.52967 h 0.134122 l 0.134121,-0.76483 0.536487,3.05933 h 0.402365 l 0.134122,1.52967 h 0.134122 l 0.134122,0.76483 h 0.402365 l 0.134121,-0.76483 0.134122,0.76483 h 0.536487 l 0.134122,0.76483 h 0.536487 l 0.134121,-1.52966 h 0.402365 l 0.268244,1.52966 h 0.134122 L 73.54873,183.335 h 0.134122 l 0.134122,-0.76483 0.268243,-3.05934 0.134122,0.76484 0.134122,-0.76484 h 0.134121 l 0.268244,1.52967 h 1.475338 l 0.134122,-0.76483 h 0.134122 l 0.134122,0.76483 0.134121,-0.76483 0.134122,0.76483 h 0.536487 l 0.134122,0.76483 h 0.80473 l 0.134122,-0.76483 h 0.134121 l 0.134122,0.76483 0.134122,-0.76483 h 0.134121 l 0.134122,-0.76483 0.134122,0.76483 0.134121,-0.76483 0.134122,0.76483 h 0.536487 l 0.134122,0.76483 h 1.207095 l 0.134122,0.76484 h 0.268243 l 0.134122,0.76483 h 0.80473 l 0.134122,-0.76483 0.134122,0.76483 h 0.938852 l 0.134121,0.76483 0.134122,-0.76483 0.134122,0.76483 0.134122,-0.76483 h 0.134121 l 0.134122,0.76483 0.134122,-0.76483 h 0.134121 l 0.134122,-0.76483 h 0.134122 l 0.134121,-0.76484 h 0.134122 l 0.402365,2.2945 0.134122,-0.76483 0.134122,0.76483 0.268243,-1.52966 h 0.402365 l 0.134122,-0.76484 h 0.134122 l 0.402365,-5.35383 0.134122,-2.2945 h 0.134121 l 0.134122,-0.76483 0.134122,1.52966 h 0.536487 l 0.134121,-2.2945 h 0.134122 l 0.536487,-3.05933 0.134121,0.76483 h 0.134122 l 0.134122,0.76484 0.134122,-0.76484 0.134121,0.76484 0.134122,-0.76484 0.134122,0.76484 0.268243,-1.52967 0.134122,-1.52967 h 0.134122 l 0.134121,-0.76483 h 0.134122 l 0.268243,-1.52967 h 0.134122 l 0.402365,6.11867 0.134122,-0.76483 0.134122,0.76483 h 0.134121 l 0.134122,2.2945 h 0.134122 l 0.134122,0.76483 0.134121,-0.76483 0.134122,1.52967 0.134122,-6.11867 h 0.134121 l 0.134122,-0.76483 h 0.134122 l 0.134122,-0.76484 h 0.134121 l 0.134122,0.76484 0.134122,-2.2945 0.134121,0.76483 h 0.134122 l 0.134122,-0.76483 h 0.268243 l 0.134122,0.76483 h 0.134122 l 0.134121,-0.76483 h 0.134122 l 0.134122,-0.76484 h 0.268243 l 0.134122,-1.52966 0.134122,0.76483 h 0.134121 l 0.134122,-0.76483 0.268243,1.52966 h 0.134122 L 97.690638,160.39 h 0.134122 l 0.134122,0.76483 0.134121,-0.76483 0.268244,-2.2945 0.268243,-1.52967 0.134122,-3.05933 h 0.134122 l 0.134121,-1.52967 h 0.268244 L 99.43422,151.212 h 0.134122 l 0.134122,-0.76483 0.134121,1.52966 h 0.134122 l 0.268243,-4.589 0.13412,3.05934 0.13412,-0.76484 0.13413,-1.52966 0.13412,0.76483 h 0.13412 l 0.13412,0.76483 0.13412,-0.76483 0.67061,3.82417 h 0.13412 l 0.26825,1.52966 0.13412,-2.2945 h 0.13412 l 0.13412,1.52967 0.13412,-0.76483 0.13413,-1.52967 h 0.26824 l 0.40236,3.82417 0.13413,0.76483 0.13412,1.52967 h 0.53648 l 0.13413,0.76483 0.26824,3.05933 h 0.13412 l 0.13412,0.76484 h 0.13412 l 0.13413,0.76483 0.13412,-0.76483 0.26824,1.52966 0.26824,2.2945 h 0.13413 l 0.40236,2.2945 h 0.13412 l 0.26825,-1.52966 0.13412,2.2945 h 0.13412 l 0.26824,-1.52967 0.13413,0.76483 0.13412,1.52967 h 0.40236 l 0.13412,1.52967 0.13412,-0.76484 h 0.13413 l 0.26824,1.52967 0.13412,-0.76483 0.13412,2.2945 h 0.13413 l 0.13412,1.52966 0.13412,-0.76483 0.13412,-3.05933 0.13412,1.52966 0.13412,-0.76483 h 0.13412 l 0.26825,-1.52967 0.40236,-3.82416 0.26825,4.589 0.13412,-0.76484 h 0.13412 l 0.26824,1.52967 h 0.26825 l 0.13412,-0.76483 0.26824,-3.05934 0.13413,1.52967 0.13412,-0.76483 0.13412,-2.2945 0.13412,1.52966 0.26824,5.35384 0.26825,-6.11867 0.26824,4.589 h 0.13412 l 0.13412,0.76483 0.13413,1.52967 h 0.13412 l 0.13412,0.76483 0.13412,-1.52966 h 0.26824 l 0.13413,-0.76484 h 0.13412 l 0.13412,0.76484 h 0.13412 l 0.13412,-1.52967 h 0.13412 l 0.26825,3.05933 0.13412,3.05934 0.13412,-1.52967 0.13412,-3.05933 0.13412,1.52966 0.26825,-3.05933 0.13412,3.05933 0.40236,-22.18016 h 0.13413 l 0.13412,0.76483 h 0.26824 l 0.13412,2.2945 0.26825,6.8835 h 0.13412 l 0.53649,-6.11867 0.13412,0.76484 0.26824,-4.589 h 0.13412 l 0.13412,-0.76484 0.26825,2.2945 h 0.13412 l 0.13412,0.76484 0.13412,-0.76484 h 0.13412 l 0.13412,0.76484 h 0.40237 l 0.13412,0.76483 0.13412,-0.76483 h 0.13413 l 0.13412,-0.76484 h 0.13412 l 0.26824,1.52967 h 0.13412 l 0.53649,6.11867 h 0.53649 l 0.26824,-1.52967 h 0.26825 l 0.13412,-0.76483 0.13412,0.76483 h 0.26824 l 0.13412,-1.52967 0.26825,1.52967 0.26824,-3.05933 0.13412,3.05933 h 0.13412 l 0.13413,-0.76483 0.13412,0.76483 0.13412,-0.76483 0.13412,-1.52967 h 0.40237 l 0.13412,0.76483 h 0.13412 l 0.40236,-2.2945 0.13413,-1.52966 h 0.13412 l 0.26824,-3.05934 0.40237,2.2945 0.13412,2.2945 h 0.26824 l 0.13412,0.76484 0.13413,-0.76484 h 0.13412 l 0.13412,0.76484 0.13412,-0.76484 h 0.13412 l 0.13412,-1.52966 h 0.40237 l 0.13412,-0.76484 0.26824,1.52967 0.13412,-0.76483 h 0.13413 l 0.13412,0.76483 h 0.13412 l 0.13412,0.76483 h 0.13412 l 0.13412,0.76484 h 0.53649 l 0.13412,-0.76484 h 0.13413 l 0.13412,0.76484 0.13412,1.52966 h 0.13412 l 0.13412,-0.76483 0.13412,0.76483 0.40237,-2.2945 h 0.40236 l 0.13413,0.76484 0.26824,2.2945 h 0.13412 l 0.13412,0.76483 0.26825,-2.2945 h 0.26824 l 0.13412,-0.76483 h 0.13412 l 0.13412,0.76483 h 0.13413 l 0.13412,0.76483 0.13412,-0.76483 0.13412,1.52967 h 0.53649 l 0.26824,1.52966 0.13412,-0.76483 0.13413,0.76483 h 0.13412 l 0.26824,-1.52966 h 0.53649 l 0.26824,-4.589 0.13412,0.76483 0.13412,-0.76483 0.13413,1.52966 0.26824,6.8835 0.13412,-0.76483 0.26824,2.2945 0.13413,-0.76483 0.26824,-2.2945 0.13412,0.76483 0.40237,9.178 0.13412,0.76483 0.13412,1.52967 0.13412,-0.76483 0.13412,-1.52967 0.26825,-6.8835 h 0.13412 l 0.13412,-0.76483 0.13412,2.2945 h 0.13412 l 0.13412,-1.52967 0.13413,1.52967 h 0.13412 l 0.26824,-3.05934 0.13412,-1.52966 h 0.53649 l 0.13412,-0.76484 h 0.40237 l 0.13412,0.76484 0.13412,-0.76484 h 0.26824 l 0.13413,0.76484 0.13412,-0.76484 0.26824,3.05934 0.13412,-0.76484 0.26825,3.05934 0.26824,-1.52967 0.13412,2.2945 0.13412,-0.76483 h 0.13412 l 0.13413,-2.2945 0.13412,1.52966 0.13412,-1.52966 0.13412,-3.05934 0.13412,0.76484 0.13412,-0.76484 h 0.13413 l 0.13412,0.76484 h 0.13412 l 0.26824,1.52966 0.13413,-0.76483 h 0.13412 l 0.13412,0.76483 h 0.26824 l 0.40237,-4.589 h 0.26824 l 0.13412,0.76484 0.13412,-1.52967 0.53649,3.05933 h 0.13412 l 0.13413,-0.76483 0.26824,-3.05933 0.26824,-1.52967 h 0.26824 l 0.13413,2.2945 h 0.40236 l 0.53649,-3.05933 0.26824,-2.2945 0.13412,-0.76484 0.26825,-2.2945 0.26824,3.05934 0.13412,1.52966 0.13412,-0.76483 0.40237,-3.82417 0.13412,-0.76483 h 0.40237 l 0.13412,0.76483 h 0.13412 l 0.53649,-3.05933 h 0.13412 l 0.67061,-3.82417 h 0.13412 l 0.13412,0.76484 h 0.13412 l 0.13412,-0.76484 h 0.13412 l 0.13413,0.76484 0.13412,-0.76484 h 0.13412 l 0.26824,-1.52966 0.40237,-5.35384 1.07297,-22.18016 0.40237,-3.82417 0.26824,4.589 0.13412,-0.76483 0.13412,0.76483 0.26825,-3.82417 0.26824,2.2945 0.26824,-2.2945 h 0.13413 l 0.40236,-3.82416 h 0.13412 l 0.13412,0.76483 h 0.13413 l 0.13412,0.76483 0.13412,-0.76483 h 0.13412 l 0.26824,-1.52967 0.26825,-3.05933 0.13412,0.76483 0.13412,-0.76483 h 0.13412 l 0.13412,0.76483 h 0.13413 l 0.13412,-0.76483 0.13412,0.76483 h 0.13412 l 0.13412,-0.76483 0.13413,1.52967 0.40236,8.41316 0.13412,-0.76483 0.13412,-2.2945 0.26825,7.64833 h 0.13412 l 0.13412,-0.76483 0.40237,-5.35383 h 0.13412 l 0.26824,-1.52967 h 0.26824 l 0.13413,0.76483 0.26824,-1.52966 h 0.13412 l 0.26824,-1.52967 0.13413,0.76483 h 0.13412 l 0.13412,-3.05933 0.40236,-15.296667 0.13413,0.764834 0.26824,3.059333 0.53649,14.53183 0.13412,0.76484 0.26824,2.2945 0.13412,-0.76484 0.26825,1.52967 h 0.13412 l 0.40236,-10.70767 h 0.13413 l 0.13412,0.76484 0.26824,2.2945 0.26824,-1.52967 0.26825,-2.2945 0.40236,2.2945 h 0.13412 l 0.13413,0.76483 h 0.40236 l 0.26824,1.52967 0.13413,-0.76483 h 0.26824 l 0.13412,0.76483 h 0.13412 l 0.13412,0.76483 0.13413,-0.76483 0.13412,0.76483 0.13412,-0.76483 0.40237,2.2945 h 0.13412 l 0.26824,1.52967 h 0.40237 l 0.13412,0.76483 0.26824,12.23733 0.40237,-5.35383 0.13412,-0.76483 0.13412,-2.2945 0.26824,2.2945 0.13412,0.76483 h 0.13413 l 0.13412,0.76483 0.13412,2.2945 0.26824,6.11867 0.13412,-0.76483 0.13413,0.76483 0.13412,-0.76483 h 0.13412 l 0.53649,-15.29667 h 0.13412 l 0.13412,-1.52967 0.26824,-4.589 0.26825,-6.118663 0.26824,3.059333 0.13412,-0.764833 0.13412,0.764833 0.26825,-3.059333 0.13412,-0.764834 h 0.13412 l 0.40237,6.883497 0.13412,0.76484 0.26824,6.8835 0.13412,0.76483 0.80473,-8.41317 h 0.67061 l 0.13412,0.76484 h 0.40237 l 0.26824,-1.52967 h 0.80473 l 0.40237,2.2945 0.53648,-6.118667 h 0.13413 l 0.13412,-0.764833 h 0.67061 l 0.13412,0.764833 h 0.26824 l 0.26824,1.529667 h 0.80473 l 0.13413,0.76483 0.13412,-0.76483 0.13412,0.76483 h 0.13412 l 0.26824,-1.529663 h 0.40237 l 0.13412,0.764833 h 0.26825 l 0.40236,2.2945 h 0.13412 l 0.13412,0.76483 0.40237,-2.2945 h 0.40236 l 0.13413,0.76484 h 0.13412 l 0.13412,0.76483 h 0.13412 l 0.26824,1.52967 0.13413,1.52966 h 0.13412 l 0.26824,1.52967 h 0.13412 l 0.13412,0.76483 h 0.13413 l 0.26824,1.52967 h 0.13412 l 0.67061,3.82417 h 0.67061 l 0.13412,-0.76484 h 0.13412 l 0.13412,-0.76483 h 0.26825 l 0.13412,-0.76483 h 0.13412 l 0.26824,-1.52967 h 0.13413 l 0.26824,-1.52967 h 0.13412 l 0.13412,0.76484 h 0.26825 l 0.26824,-2.2945 0.13412,-0.76484 h 0.53649 l 0.13412,0.76484 0.13412,-0.76484 h 0.13412 l 0.26825,3.05934 h 0.13412 l 0.13412,0.76483 h 0.13412 l 0.40237,2.2945 0.40236,-2.2945 h 0.26825 l 0.13412,-0.76483 h 0.26824 l 0.26824,2.2945 h 0.13413 l 0.13412,0.76483 h 0.13412 l 0.67061,6.8835 0.26824,1.52967 0.13412,-0.76484 0.13412,0.76484 h 0.13413 l 0.13412,0.76483 0.26824,-1.52967 0.26824,-2.2945 0.53649,3.05934 0.26824,6.8835 0.40237,19.88566 0.67061,6.8835 0.13412,-1.52966 0.40237,-13.767 0.26824,-1.52967 0.13412,-1.52967 0.13412,-3.05933 0.26825,-12.23733 0.13412,-2.2945 h 0.13412 l 0.13412,0.76483 0.80473,12.23733 h 0.13412 l 0.13412,0.76484 0.13413,1.52966 0.26824,3.82417 0.13412,-1.52967 0.26824,-6.11866 0.13413,1.52966 0.40236,11.4725 0.13412,1.52967 h 0.26825 l 0.67061,-9.94283 0.40236,2.2945 0.13412,1.52966 h 0.26825 l 0.13412,0.76484 h 0.13412 l 0.13412,0.76483 h 0.26824 l 0.13413,-0.76483 h 0.13412 l 0.53648,-6.11867 0.26825,1.52967 h 0.13412 l 0.13412,0.76483 0.26824,3.82417 h 0.13413 l 0.53648,-8.41317 h 0.26825 l 0.26824,1.52967 0.26824,3.05933 h 0.13413 l 0.40236,-6.8835 h 0.13412 l 0.40237,3.82417 0.26824,1.52966 h 0.13412 l 0.26825,2.2945 0.13412,-0.76483 0.40236,-3.82417 0.26825,-1.52966 h 0.13412 l 0.13412,-0.76484 h 0.26824 l 0.26825,1.52967 0.53648,10.70767 0.26825,6.8835 0.13412,1.52966 h 0.13412 l 0.13412,-0.76483 0.26824,-4.589 0.26825,-1.52967 h 0.13412 l 0.53649,-3.05933 0.26824,-2.2945 0.26824,-1.52967 h 0.13413 l 0.26824,-1.52966 h 0.26824 l 0.13412,-0.76484 h 0.80473 l 0.13413,0.76484 h 0.6706 l 0.13413,0.76483 h 0.13412 l 0.13412,-0.76483 h 0.80473 l 0.26824,1.52966 h 0.40237 l 0.13412,-0.76483 h 0.13412 l 0.13412,-0.76483 h 0.13413 l 0.13412,-0.76484 h 1.20709 l 0.13412,0.76484 h 0.13413 l 0.13412,0.76483 0.13412,-0.76483 0.13412,0.76483 h 0.80473 l 0.13412,-0.76483 h 0.67061 l 0.13412,-0.76484 h 0.26825 l 0.26824,1.52967 h 0.13412 l 0.26825,1.52967 h 0.40236 l 0.13412,-0.76484 h 0.40237 l 0.13412,-0.76483 0.26824,1.52967 0.26825,5.35383 0.26824,6.11867 0.26824,2.2945 0.13412,-0.76484 h 0.13413 l 0.26824,-1.52966 0.26824,-2.2945 h 0.26825 l 0.13412,-0.76484 0.40236,-6.11866 h 0.13412 l 0.13413,-0.76484 h 0.53648 l 0.26825,1.52967 h 0.13412 l 0.13412,0.76483 h 0.13412 l 0.13412,-0.76483 h 0.40237 l 0.13412,-0.76483 h 0.13412 l 0.26825,-1.52967 0.26824,-2.2945 0.13412,-0.76483 0.26824,1.52966 h 0.13413 l 0.26824,-1.52966 h 0.26824 l 0.26825,2.2945 0.26824,-1.52967 0.26824,-2.2945 0.26825,-1.52967 0.13412,0.76484 0.26824,3.82416 0.26824,3.82417 0.13413,0.76483 h 0.40236 l 0.53649,-3.05933 h 0.13412 l 0.13412,0.76483 h 0.40237 l 0.13412,-0.76483 h 0.40236 l 0.67061,3.82417 h 0.13412 l 0.26825,1.52966 h 0.93885 l 0.13412,-0.76483 0.13412,0.76483 h 0.13412 l 0.53649,-3.05933 0.26824,-3.05933 h 0.26825 l 0.40236,-5.35384 h 0.13413 l 0.40236,6.11867 0.13412,0.76483 h 0.53649 l 0.26824,-1.52966 0.13412,0.76483 h 0.26825 l 0.13412,-0.76483 h 0.40236 l 0.13413,0.76483 0.26824,-1.52967 h 0.53649 l 0.53648,-3.05933 h 0.13412 l 0.13413,0.76483 h 0.13412 l 0.13412,0.76484 h 0.13412 l 0.13412,-0.76484 h 0.13413 l 0.13412,-0.76483 h 0.40236 l 0.26825,1.52967 h 0.13412 l 0.26824,-1.52967 h 0.13412 l 0.13412,0.76483 0.13413,1.52967 h 0.13412 l 0.26824,-1.52967 h 0.40237 l 0.13412,0.76484 h 0.13412 l 0.13412,0.76483 H 251.26 l 0.13412,0.76483 0.13412,-0.76483 0.13412,0.76483 h 0.40237 l 0.13412,-0.76483 h 0.13412 l 0.13412,-0.76483 h 0.53649 l 0.13412,0.76483 h 0.67061 l 0.13412,-0.76483 h 0.40237 l 0.40236,2.2945 0.40237,3.82416 0.13412,0.76484 0.13412,-0.76484 0.13412,0.76484 h 0.40237 l 0.13412,0.76483 h 0.67061 l 0.26824,1.52967 0.26824,3.05933 h 0.26825 l 0.26824,-1.52967 h 0.13412 l 0.13412,0.76484 h 0.13413 l 0.26824,1.52966 0.13412,-0.76483 0.53649,-5.35383 h 0.13412 l 0.67061,3.82416 h 0.67061 l 0.13412,-0.76483 0.13412,0.76483 h 0.13412 l 0.26824,2.2945 0.26825,1.52967 h 0.13412 l 0.13412,-1.52967 h 0.26824 l 0.13413,0.76484 h 0.26824 l 0.40236,6.11866 0.26825,1.52967 0.26824,3.05933 0.13412,0.76484 h 0.40237 l 0.80473,-4.589 0.26824,-2.2945 0.40237,-2.2945 0.13412,0.76483 h 0.13412 l 0.13412,0.76483 0.13412,-0.76483 h 0.13413 l 0.6706,-6.8835 0.26825,-1.52967 h 0.13412 l 0.13412,-0.76483 0.13412,0.76483 h 1.2071 l 0.13412,0.76484 h 0.13412 l 0.13412,0.76483 h 1.60947 l 0.13412,0.76483 h 1.34121 l 0.13412,0.76484 h 0.40237 l 0.13412,-0.76484 h 0.13412 l 0.13413,0.76484 0.13412,-0.76484 h 1.34121 l 0.13413,0.76484 h 3.08479 l 0.13413,0.76483 h 0.26824 l 0.13412,-0.76483 h 0.53649 l 0.13412,0.76483 h 0.26824 l 0.13413,-0.76483 h 0.26824 l 0.13412,0.76483 h 1.07297 l 0.13413,0.76483 h 2.14594 l 0.13413,0.76484 h 0.13412 l 0.13412,-0.76484 h 0.26824 l 0.13412,-0.76483 h 0.13413 l 0.13412,0.76483 h 0.80473 l 0.13412,0.76484 0.13412,-0.76484 h 3.0848 l 0.13412,-0.76483 h 0.93885 l 0.13413,0.76483 h 1.07297 l 0.13412,0.76484 0.13412,-0.76484 0.13412,0.76484 h 0.40237 l 0.13412,-0.76484 h 0.40237 l 0.13412,0.76484 h 2.01182 l 0.13413,0.76483 h 0.13412 l 0.13412,0.76483 h 0.26824 l 0.13412,-0.76483 h 0.53649 l 0.13412,-0.76483 h 0.93885 l 0.13413,0.76483 h 0.26824 l 0.26824,1.52967 h 0.67061 l 0.13412,0.76483 0.13412,-0.76483 h 0.13413 l 0.13412,-0.76484 h 0.13412 l 0.13412,0.76484 h 0.26825 l 0.13412,-0.76484 0.13412,0.76484 h 0.13412 l 0.13412,-0.76484 h 0.40237 l 0.13412,0.76484 h 0.53649 l 0.13412,0.76483 h 0.13412 l 0.13412,0.76483 h 0.13412 l 0.13412,1.52967 h 0.26825 l 0.26824,1.52967 h 0.13412 l 0.26825,1.52966 h 0.13412 l 0.26824,1.52967 h 0.13412 l 0.26825,1.52967 h 0.13412 l 0.13412,0.76483 0.13412,-0.76483 h 0.13412 l 0.13413,-0.76484 0.13412,0.76484 h 0.13412 l 0.13412,0.76483 h 0.13412 l 0.13412,-0.76483 h 0.13413 l 0.26824,1.52966 h 0.26824 l 0.13412,-0.76483 h 0.26825 l 0.26824,-1.52967 h 0.13412 l 0.26825,-1.52966 h 1.20709 l 0.26824,-1.52967 h 0.40237 l 0.13412,-0.76483 h 0.13412 l 0.40237,-2.2945 h 0.13412 l 0.13412,-0.76484 h 0.53649 l 0.13412,0.76484 h 0.40237 l 0.26824,-1.52967 0.13412,0.76483 0.13412,-0.76483 h 0.53649 l 0.13412,0.76483 h 0.13412 l 0.13412,0.76484 h 0.13413 l 0.13412,0.76483 h 0.13412 l 0.13412,0.76483 h 0.13412 l 0.13412,0.76484 h 0.13413 l 0.13412,0.76483 h 0.67061 l 0.40236,-2.2945 0.13412,-1.52967 h 0.13413 l 0.13412,-0.76483 h 0.13412 l 0.26824,1.52967 h 0.13412 l 0.13413,-0.76484 h 0.13412 l 0.13412,-0.76483 h 0.26824 l 0.13412,-0.76483 0.13413,0.76483 h 0.26824 l 0.13412,0.76483 h 0.40237 l 0.13412,0.76484 h 0.13412 l 0.13412,-0.76484 h 1.74358 l 0.13412,0.76484 0.13413,-0.76484 h 0.13412 l 0.13412,0.76484 0.13412,-0.76484 0.13412,0.76484 0.13413,-0.76484 h 0.53648 l 0.13412,0.76484 h 0.53649 l 0.26824,-1.52967 0.13413,0.76483 h 0.13412 l 0.13412,-0.76483 h 0.26824 l 0.13413,0.76483 0.13412,-0.76483 0.13412,0.76483 h 0.13412 l 0.13412,-0.76483 0.13412,0.76483 h 0.26825 l 0.13412,0.76484 0.13412,-0.76484 0.13412,0.76484 h 0.40237 l 0.13412,0.76483 0.13412,-0.76483 h 0.40237 l 0.13412,-0.76484 h 0.13412 l 0.13412,-0.76483 h 0.13412 l 0.13412,-0.76483 0.13413,0.76483 h 0.13412 l 0.13412,-0.76483 h 0.13412 l 0.13412,-0.76484 h 0.80473 l 0.13412,-0.76483 0.13413,0.76483 h 0.40236 l 0.13412,0.76484 h 0.53649 l 0.13412,-0.76484 0.13412,0.76484 h 0.26825 l 0.13412,0.76483 h 0.40236 l 0.26825,1.52967 h 0.40236 l 0.13412,0.76483 h 0.40237 l 0.13412,0.76483 h 0.67061 l 0.13412,0.76484 h 0.40237 l 0.13412,-0.76484 0.13412,0.76484 h 0.26824 l 0.13412,-0.76484 0.13413,1.52967 0.13412,-0.76483 h 0.26824 l 0.13412,-0.76484 0.13412,0.76484 h 0.26825 l 0.26824,-1.52967 0.13412,0.76483 h 0.26825 l 0.13412,-0.76483 h 0.13412 l 0.13412,0.76483 h 0.13412 l 0.13413,-0.76483 h 0.13412 l 0.13412,0.76483 h 0.13412 l 0.13412,-0.76483 h 0.13412 l 0.13413,0.76483 0.13412,-0.76483 0.13412,0.76483 h 0.26824 l 0.13412,0.76484 0.13413,-0.76484 0.13412,0.76484 0.13412,-0.76484 0.13412,0.76484 h 0.13412 l 0.13412,0.76483 h 0.26825 l 0.13412,-0.76483 h 0.13412 l 0.40237,2.2945 h 0.26824 l 0.40237,2.2945 0.13412,-0.76484 h 0.26824 l 0.13412,-0.76483 h 0.13412 l 0.13412,1.52967 h 0.13413 l 0.13412,0.76483 0.13412,-0.76483 h 0.80473 l 0.26824,2.2945 0.13413,-0.76484 0.13412,0.76484 h 0.40236 l 0.13412,-0.76484 0.26825,-3.05933 0.13412,-0.76483 h 0.26824 l 0.13412,-0.76484 h 0.26825 l 0.13412,-0.76483 h 0.13412 l 0.13412,0.76483 h 0.40237 l 0.26824,-1.52966 0.13412,0.76483 h 0.13413 l 0.13412,-0.76483 h 0.26824 l 0.13412,-0.76484 h 0.13412 l 0.13413,-0.76483 h 0.80473 l 0.13412,0.76483 h 0.26824 l 0.13412,0.76484 h 0.26825 l 0.13412,0.76483 h 0.26824 l 0.13412,0.76483 0.13413,-0.76483 h 1.47533 l 0.13412,-0.76483 h 0.13413 l 0.13412,-0.76484 h 0.13412 l 0.13412,-0.76483 h 0.93885 l 0.13413,-0.76483 0.13412,0.76483 h 2.41419 l 0.13412,0.76483 h 0.26824 l 0.13412,-0.76483 h 0.67061 l 0.13412,0.76483 h 0.40237 l 0.13412,0.76484 h 0.40237 l 0.13412,-0.76484 h 0.53649 l 0.13412,-0.76483 h 0.13412 l 0.13412,0.76483 h 0.53649 l 0.13412,0.76484 h 1.07297 l 0.13412,0.76483 h 0.40237 v 0" /></g></g><g
             id="g2184"
             style="stroke:#ff0e00;stroke-opacity:1"><g
               id="g2182"
               clip-path="url(#clipPath2128)"
               style="stroke:#ff0e00;stroke-opacity:1"><path
                 inkscape:connector-curvature="0"
                 id="path2180"
                 style="fill:none;stroke:#ff0e00;stroke-width:1.5;stroke-linecap:square;stroke-linejoin:round;stroke-miterlimit:10;stroke-dasharray:none;stroke-opacity:1"
                 d="m 52.346417,179.87345 0.178813,1.33779 0.07821,-0.37833 0.190041,-2.67418 0.234646,-1.90372 0.111829,-0.25782 0.04476,0.0576 0.234633,0.57542 0.06706,-0.0605 0.07822,-0.0708 0.08953,-0.0739 0.03345,0.0498 0.279423,0.97052 0.100515,0.21571 0.04477,-0.0482 0.111833,-0.28156 0.234642,-0.80018 0.201191,0.0681 0.346461,0.19398 0.02247,-0.0482 0.122804,-0.11214 0.02246,0.009 0.03345,-0.0106 0.03361,-0.053 0.06706,-0.26854 0.05591,0.18367 0.379893,2.26036 0.05591,-0.12216 0.156585,-0.31414 0.04459,0.0444 0.190026,0.30091 0.03361,-0.0466 0.167556,-0.54893 0.402318,-1.06014 0.01132,0.0369 0.01115,0.0227 0.08935,-0.0494 0.435895,-0.2434 0.02246,0.0309 0.01115,-0.0254 v 0 l 0.01114,-0.0682 0.01115,0.0156 v 0 l 0.01114,0.0636 0.01115,-0.0147 v 0 l 0.01131,-0.0741 0.100482,0.042 0.234729,-0.0881 0.27946,-1.20742 0.07818,-0.20848 0.05589,0.0323 0.212399,0.15193 0.01114,-0.0297 0.122909,-0.19597 0.04474,0.0833 0.156494,0.22232 0.02245,-0.0324 0.05588,-0.22491 0.357675,-1.48046 0.212322,-0.36627 0.03342,0.0437 0.100585,-0.0244 0.134169,-1.00336 0.223605,-1.31698 0.122851,-0.24747 0.03358,0.0355 0.08943,0.3193 0.502964,2.52922 0.01114,-0.0356 0.357723,-1.54802 0.06698,-0.0237 0.03358,0.0611 0.268263,0.50225 0.05585,-0.0554 0.178841,-0.16726 0.02227,0.0156 0.122992,0.0793 0.111858,0.2258 0.04471,-0.0922 0.167531,-0.82912 0.156558,-1.06235 0.04471,0.087 0.178824,0.41093 0.03357,-0.0638 0.17882,-0.81204 0.07827,0.29245 0.301636,1.69977 0.190128,0.15173 0.614584,0.57968 0.201263,0.64156 0.15639,0.60249 0.04471,-0.0509 0.08941,-0.56814 0.156561,-0.9866 0.04471,0.01 0.111685,-0.16774 0.07828,-0.0212 0.03357,0.0376 0.100553,0.30214 0.301834,0.68269 0.08942,-0.0939 0.07812,-0.0695 0.06715,0.0529 0.06698,-0.14568 0.335421,-1.00263 0.134137,-0.0507 0.122833,-0.10635 0.0113,0.0326 0.480565,1.63609 0.212281,0.17127 0.01114,-0.007 0.40247,-0.27078 0.13416,0.0263 0.01114,-0.0151 0.10058,-0.29406 0.167579,-0.34646 0.02245,0.0144 0.234751,0.0289 0.134001,-0.0278 0.07831,0.2278 0.201178,0.81145 0.04472,-0.10147 0.290535,-0.77423 0.145321,0.009 0.37994,1.05644 0.167779,0.14 0.435838,0.75174 0.04473,-0.0425 0.201211,-0.57616 0.268221,-0.58262 0.01114,0.005 0.458294,0.79578 0.446988,1.5203 0.06718,-0.16369 0.234628,-0.98462 0.08946,0.0665 0.1006,0.15765 0.04473,-0.0884 0.178744,-0.42774 0.03359,0.0269 0.916434,2.17964 0.16775,0.47863 0.04472,-0.0761 0.111719,-0.66994 0.447023,-4.73128 0.01114,-0.0491 0.01131,0.0144 v 0 l 0.08926,0.0949 0.02244,-0.0417 0.167726,-0.42969 0.268114,-0.86746 0.05585,0.0826 0.02244,0.0126 0.01114,-0.0194 v 0 l 0.379964,-1.13966 0.06715,-0.10554 0.05584,0.0893 0.26825,0.65816 0.07828,-0.0947 0.290503,-0.42259 0.0447,0.0407 0.134283,0.39653 0.268232,1.04804 0.234666,0.76784 0.201102,0.9237 0.05601,-0.0333 0.145263,0.0749 0.122833,-0.0592 0.514252,-1.23805 0.03357,0.0221 0.133963,0.31805 0.42485,1.63644 0.06699,-0.075 0.357701,-0.72278 0.05585,0.0257 0.123003,-0.0807 0.22357,-0.0746 0.256979,0.14115 0.335273,-0.0618 0.279425,0.23668 0.413578,0.4289 0.212276,0.0864 0.05602,0.0617 0.03341,-0.0679 0.25716,-0.82794 0.122842,0.0975 0.111876,0.0275 0.02227,-0.0522 0.257158,-1.26116 0.07812,0.3221 0.234713,0.84876 0.34659,1.97114 0.223413,0.85154 0.201308,0.44322 0.26813,0.71749 0.01131,-0.007 0.145285,-0.29114 0.212275,-0.49049 0.02244,-0.0276 0.02227,0.0427 v 0 l 0.167723,0.29479 0.12284,0.085 0.123005,0.13299 0.04471,-0.0456 0.123001,-0.46606 0.279398,-1.0347 0.212239,-0.48707 0.178992,-0.76908 0.23465,-0.73126 0.245939,-0.31628 0.0894,0.0891 0.312886,0.45334 0.03356,-0.0423 0.223471,-0.49345 0.178939,-0.16689 0.167634,-0.0347 0.234746,0.0903 0.324108,-0.2068 0.03339,0.0566 0.145354,0.83739 0.234722,0.86893 0.156478,0.0181 0.514095,-0.14551 0.156462,-0.15366 0.04485,0.0687 0.256937,0.31961 0.02242,-0.0174 0.413526,-0.62078 0.167724,-1.77361 0.245756,-1.96673 0.15658,-0.30144 0.01112,0.004 0.189946,0.0422 0.324261,-0.20305 0.36875,-1.06458 0.368908,-1.44907 0.380014,-0.74702 0.02225,0.018 0.05595,-0.0177 0.02241,-0.044 0.234583,-1.17226 0.279407,-0.83444 0.324233,-0.51481 0.558818,-1.78397 0.290521,-1.61219 0.156549,-0.33202 0.324045,-0.9064 0.06707,-0.0764 0.02241,0.13362 0.4135,3.59349 0.368861,1.20049 0.111773,-0.72874 0.167739,-1.7208 0.357515,-2.29549 0.380058,-0.66808 0.190102,-0.42885 0.245879,-0.57928 0.04466,-0.0567 0.06707,0.0505 0.212342,0.32031 0.06707,0.0637 0.04466,-0.0561 0.491755,-1.15146 0.245874,-0.53584 0.614754,-1.44645 0.167681,-0.007 0.324087,0.21186 0.03354,-0.0887 0.10062,-0.19572 0.04466,0.0542 0.07838,0.0838 0.05579,-0.0755 0.391213,-0.91718 0.122878,-0.3168 0.04484,0.0312 0.323978,0.39404 0.123056,0.0386 0.02225,-0.0252 0.14531,-0.15847 0.02242,0.0287 0.03355,0.11848 0.368727,0.94992 0.07824,0.0328 0.02242,-0.0763 0.145352,-1.01715 0.447028,-4.30211 0.346559,-1.23957 0.111653,0.11213 0.0671,0.53018 0.18994,0.93493 0.17882,0.30593 0.0336,-0.0655 0.13409,-0.86831 0.0671,-0.22899 0.067,0.0994 0.34647,0.57699 0.0112,-0.0366 0.0113,-0.0314 v 0 0 l 0.16764,0.30907 0.0223,0.0632 0.62584,3.25942 0.0225,0.0382 0.0112,-0.0324 v 0 l 0.17882,-0.47114 0.0559,0.0564 0.13409,1.03658 0.3354,2.47722 0.0334,0.005 0.0224,-0.0561 0.067,-0.61646 0.42473,-5.06228 0.0112,0.0165 0.11173,0.0672 0.0112,-0.006 0.0224,-0.0719 0.0112,0.0317 v 0 l 0.25709,1.8512 0.34634,3.40573 0.42471,0.82571 0.0448,-0.072 0.3464,-0.94441 0.0224,0.0118 0.17887,-0.38479 0.0782,0.11449 0.17891,0.6781 0.0335,-0.091 0.31294,-0.85577 0.0447,0.0789 0.0672,-0.0748 0.10055,-0.29737 0.26819,-0.8303 0.1566,0.27388 0.17877,0.32781 0.0893,0.12375 0.0783,0.11748 0.0448,-0.0725 0.13417,-0.43228 0.0893,0.11021 0.23473,0.53011 0.0335,-0.0696 0.13426,-0.33783 0.0223,0.0262 0.1788,0.0897 0.0224,-0.0304 0.0224,0.0484 v 0 l 0.4806,1.65113 0.20122,0.70678 0.0335,-0.0775 0.0111,0.006 v 0 0 l 0.49187,-1.84493 0.0894,0.14891 0.20117,1.03459 0.0671,-0.10654 0.29054,-0.92453 0.12292,-0.34815 0.0336,0.10654 0.54766,2.88242 0.0222,-0.0704 0.42481,-1.57173 0.0111,0.0163 0.19006,0.29813 0.14528,0.53232 0.0895,-0.15526 0.17882,-0.22708 0.36883,-0.76797 0.30179,-1.28943 0.2347,-0.0872 0.21233,0.0649 0.0671,-0.0926 0.0335,0.0854 0.21222,1.73946 0.12303,2.59799 0.22357,12.1533 0.2124,7.31382 0.0111,0.0249 0.0111,-0.008 v 0 l 0.0671,-0.6918 0.11171,-2.82891 0.23468,-5.47215 0.0559,-0.10317 0.2795,-0.99353 0.0446,0.28451 0.246,1.79771 0.13405,0.58807 0.21238,0.86906 0.13413,-0.12987 0.22352,-0.79368 0.24584,-2.3993 0.10068,0.34837 0.18998,1.90943 0.16763,1.49396 0.0112,-0.0253 0.22353,-2.81044 0.15648,-1.80242 0.0448,0.29775 0.17874,1.89569 0.10067,-0.40357 0.0559,-0.1202 0.0557,0.13207 0.2572,0.78411 0.0559,-0.0972 0.0782,-1.2018 0.2012,-7.97061 0.35755,-15.18278 0.23485,-2.31423 0.12286,-0.0274 0.0111,0.0176 0.49186,1.15183 0.24597,0.89096 0.30166,1.3484 0.0447,-0.009 0.0224,-0.0654 0.41346,-1.50818 0.0672,0.0828 0.63708,0.74403 0.1564,0.13308 0.0112,-0.0101 0.12296,0.11526 0.17885,0.0763 0.4806,-0.69898 0.39117,-0.65577 0.12298,-0.0242 0.0111,0.0135 0.27952,0.22111 0.26813,0.79948 0.067,0.10226 0.24589,0.58609 0.81589,1.83186 0.0336,-0.024 0.24586,-0.29675 0.17877,-0.13041 0.0783,-0.0762 0.0671,-0.11885 0.0671,0.0896 0.34649,1.14816 0.17879,0.77195 0.0447,-0.0771 0.3129,-1.19506 0.0672,0.20268 0.1899,0.70633 0.0335,-0.066 0.11175,-0.5711 0.31303,-1.13478 0.13401,-0.008 0.0113,0.0247 0.26817,0.53592 0.0448,-0.0596 0.50285,-1.29517 0.0671,0.0715 0.12288,0.0115 0.0113,-0.0142 0.15635,-0.0309 0.0783,-0.0952 0.2906,-0.47221 0.23477,-0.29974 0.0783,0.0674 0.17883,-0.0517 0.40224,0.0945 0.2684,0.69661 0.0335,-0.0424 0.32414,-0.29537 0.0223,0.06 0.11172,0.15036 0.0448,-0.0622 0.30168,-0.54394 0.22355,-0.15458 0.0224,0.0191 0.16764,0.39687 0.19012,0.29133 0.0446,-0.0308 0.22359,-0.0648 0.15645,0.29767 0.16763,0.16482 0.21239,-0.004 0.22352,0.12857 0.0783,-0.05 0.12294,-0.22203 0.0447,0.0361 0.0336,0.0278 0.0447,-0.0707 0.2236,-0.35986 0.0111,0.005 0.10064,-0.0281 0.0111,-0.0177 0.10061,-0.22677 0.16769,-0.28857 0.16752,0.21874 0.30178,0.70456 0.10055,0.24651 0.0336,-0.0345 0.2124,-0.0894 0.1229,-0.17607 0.0447,0.0391 0.22351,0.8248 0.14534,0.43917 0.0336,-0.0174 0.0559,-0.0874 0.0334,0.12872 0.0559,0.15901 0.056,-0.11335 0.0334,-0.10891 0.0336,0.11013 v 0 l 0.0111,0.0238 0.0224,-0.0382 v 0 l 0.15651,-0.34311 0.0223,0.0993 0.0894,0.29423 0.0671,-0.0607 0.0558,-1.5e-4 0.0336,0.0646 0.31298,0.41851 0.19001,0.48108 0.3464,0.77585 0.0113,-0.0193 0.0782,0.12719 0.25703,0.45324 0.10067,0.44138 0.0446,-0.11442 0.16767,-0.27014 0.27941,-0.11625 0.12306,0.0523 0.35765,0.38984 0.0781,0.0262 0.0335,-0.0233 0.16775,-0.27534 0.21236,-0.41408 0.11179,0.005 0.0111,0.0171 0.15655,0.54134 0.44698,1.46489 0.11173,-0.0896 0.41359,-0.74457 0.26821,0.53523 0.15658,0.34754 0.0447,-0.0696 0.53633,-1.30679 0.10069,-0.20964 0.0558,0.0601 0.27939,0.73959 0.16767,2.40808 0.313,5.20736 0.37993,6.03454 0.0894,-0.76415 0.16763,-4.80575 0.20131,-2.68671 0.29058,-1.54037 0.21237,-0.60024 0.12283,-0.14157 0.22354,-0.9679 0.0671,0.29316 0.25699,0.91497 0.0113,-0.0204 0.1229,-0.56108 0.14526,-0.68078 0.0559,0.1106 0.067,0.15633 0.0446,-0.13805 0.81604,-2.57872 0.31289,-1.85808 0.17885,-0.16582 0.21236,-0.0674 0.92772,-3.3203 0.22342,-1.76561 0.0559,0.0805 0.16766,0.44743 0.0782,-0.23267 0.16764,-1.02985 0.34648,-1.9338 0.0112,0.0159 0.1117,0.59412 0.0895,0.2784 0.067,-0.0971 0.0782,-0.42992 0.0447,0.2472 0.24591,3.29582 0.0895,-0.46288 0.067,-0.31205 0.0559,0.13859 0.44701,1.79192 0.0112,-0.0168 0.10051,-0.43266 0.0895,-0.1561 0.0224,0.0865 0.11175,0.0227 0.2347,-0.26631 0.067,0.0555 0.067,0.0161 0.0225,-0.0464 0.12284,-0.51971 0.27945,-0.68468 0.12299,-0.38387 0.33525,-2.24822 1.11772,-11.00121 2.32484,-20.2196 1.09524,-7.44244 0.51422,-2.83042 0.29057,-1.233825 0.20114,-0.864032 0.61476,-2.305208 0.0558,-0.123138 0.31295,-1.529667 0.74886,-5.528215 1.03954,-6.906445 0.7711,-2.861242 0.23474,-0.928507 0.35767,-1.008815 0.20116,-0.548386 0.16767,-0.535383 0.0111,0.0023 0.16775,-0.312052 0.19,-0.422188 0.58107,-2.008452 0.27941,-0.71359 0.21248,-1.020287 0.35769,-1.250503 0.42464,-1.034819 1.09528,-6.765716 0.0335,0.02065 0.13408,-0.269987 0.10075,-0.1109 0.0446,0.06577 0.12302,0.741889 0.22352,1.119716 0.0335,-0.02677 0.13411,-0.544561 0.31291,-1.391996 0.12305,0.0673 0.324,0.831374 0.21246,-0.211859 0.42474,-1.26121 0.0223,0.03824 0.16768,0.462725 0.0448,-0.09255 0.15645,-0.245512 0.0558,0.149143 0.16769,0.473431 0.0559,-0.03901 0.11184,-0.222567 0.0446,-0.152201 v 0" /></g></g><g
             id="g2190"
             style="stroke:#ff0e00;stroke-opacity:1"><g
               id="g2188"
               clip-path="url(#clipPath2132)"
               style="stroke:#ff0e00;stroke-opacity:1"><path
                 inkscape:connector-curvature="0"
                 id="path2186"
                 style="fill:none;stroke:#ff0e00;stroke-width:1.5;stroke-linecap:square;stroke-linejoin:round;stroke-miterlimit:10;stroke-dasharray:none;stroke-opacity:1"
                 d="m 165.01974,61.95748 0.0782,0.175147 0.056,-0.130022 0.16755,-0.286813 0.0113,0.0069 0.32409,-0.308228 0.0223,-0.07189 0.0113,0.0543 v 0 l 0.0781,0.07113 0.0336,-0.04742 0.0559,-0.0099 0.0336,0.04895 0.15654,0.08949 0.0111,-0.01989 0.51405,-1.649745 0.24596,-1.498309 0.29057,-2.377102 0.10052,0.135375 0.0782,0.394655 0.0782,0.313581 0.056,-0.100193 0.3129,-0.864262 0.23467,-0.656227 0.0335,-0.03671 0.0448,0.0543 v 0 l 0.11167,0.526205 0.30172,1.235206 0.27956,0.559858 0.11167,0.279929 0.43597,2.457409 0.44707,3.741565 0.97227,3.335438 0.57,2.95914 0.34656,0.855849 0.10056,0.316641 0.35771,0.911681 0.30176,0.265397 0.30173,0.01224 0.16762,0.06348 0.0112,-0.0099 0.10067,0.09331 0.16756,0.325055 0.1007,0.06348 0.0334,-0.02524 0.0895,-0.0099 0.0111,0.0413 0.22353,0.360237 0.21247,0.248571 0.14528,0.585097 0.38001,1.648216 0.12286,0.121609 0.39124,2.711334 0.067,0.04742 0.0224,-0.07342 0.42464,-0.796192 0.0783,0.11243 0.46938,1.436357 0.0783,-0.107841 0.32421,-0.493317 0.0447,0.02218 0.0223,0.06272 0.35765,1.325456 0.12285,0.481845 0.0336,-0.146848 0.1788,-1.936558 0.13414,-2.072698 0.0559,0.116254 0.0894,0.935392 0.29066,2.741162 0.24589,0.718944 0.0336,-0.114725 0.11173,-1.549553 0.26826,-2.713628 0.0671,0.07419 0.18997,1.053176 0.1788,2.816116 0.33527,4.207349 0.0895,-0.176677 0.16756,-0.282988 0.13406,-0.198857 0.11189,-0.03977 0.0335,0.05736 0.0893,0.01989 0.0225,-0.04283 0.36875,-0.757185 0.15643,-0.380887 0.0225,0.0092 0.34638,-0.107077 0.056,-0.04206 0.0446,0.05583 0.14529,0.424483 0.19011,0.655462 0.0111,-0.0153 0.0894,-0.61569 0.12295,-0.747243 0.0448,0.04666 0.34641,0.907093 0.0225,-0.01683 0.12292,-0.430601 0.30166,-1.87843 0.0448,0.08413 0.15653,0.100193 0.0335,-0.05583 0.1565,-0.24857 0.0447,0.04512 0.21229,0.509379 0.0558,-0.13767 0.38009,-1.3071 0.26829,-0.796192 0.11169,0.130022 1.00592,1.773648 0.29055,0.46196 0.35769,0.354882 0.31297,0.650873 0.0223,-0.01224 0.35781,-0.291401 0.0111,0.01147 0.15657,0.400773 0.22344,0.461959 0.2235,0.387006 0.20128,0.3893 0.18996,0.282988 0.46952,1.49372 0.0223,-0.01606 0.2682,-0.539207 0.23474,-0.614926 0.0782,-0.169028 0.53649,-1.114363 0.10067,0.09178 1.00588,1.339988 0.58121,1.894493 0.90531,1.024876 1.25181,1.993156 0.14523,-0.05507 0.32412,-0.05736 0.16779,-0.03518 0.35765,-0.312052 1.453,-2.484179 0.89398,0.413775 0.89423,1.847073 0.25704,0.925448 0.0782,-0.0046 0.0224,-0.03595 0.0559,-0.08413 0.0447,0.126198 0.24582,1.503662 0.0894,-0.4589 0.17877,-1.106714 0.0449,0.07725 0.18994,0.354882 0.0224,-0.04054 0.13405,-0.745712 0.25702,-0.975163 0.0335,0.0696 0.19013,1.066942 0.26814,1.496779 0.0335,0.05124 0.0335,-0.07189 v 0 l 0.1565,-0.801546 0.0894,0.22945 0.29066,1.006521 0.0781,0.09637 0.0448,-0.05966 0.45825,-0.913211 0.41347,-1.232911 0.0448,0.08795 0.17878,0.442839 0.0671,-0.127727 0.22363,-0.500966 0.0334,0.05966 0.0559,0.396949 0.33537,3.991665 0.0895,0.410715 0.12291,1.213791 0.067,-0.305169 0.0336,-0.192738 0.0223,0.13614 v 0 l 0.23466,5.591472 0.31294,4.22409 0.10059,0.72904 0.0448,-0.17805 0.48064,-2.89283 0.29051,-1.05646 0.20125,-2.00142 0.2906,-3.441444 0.31288,-3.216124 0.0894,0.445133 0.62601,3.773688 h 0.0335 l 0.0448,-0.07342 0.0111,-0.0099 0.0223,0.03289 v 0 l 0.14536,0.512438 0.0558,-0.132316 0.0336,-0.06654 0.0223,0.0566 v 0 l 0.11173,1.109773 0.22357,1.178222 0.0783,-0.164894 0.067,0.104244 0.056,0.10578 0.0335,-0.11786 0.11175,-0.673055 0.0448,0.270674 0.0669,0.543491 0.0448,-0.384941 0.38001,-4.475498 0.0222,0.05124 0.11183,1.453949 0.19001,1.682633 0.0224,-0.0413 0.42462,-1.857015 0.30182,-1.773649 0.0224,0.01224 0.17872,0.536148 0.19005,0.296755 0.19004,0.03365 0.1788,0.422952 0.20122,0.266927 0.14525,0.107842 0.0447,-0.06119 0.24596,-0.252395 0.16762,-0.09101 0.43591,0.170558 0.21238,-0.396184 0.32406,-1.255856 0.1005,-0.04742 0.0225,0.01989 0.54756,0.709 0.0225,-0.03748 0.14516,-0.471902 0.0671,0.182795 0.16765,0.484905 0.0448,-0.03977 0.12286,-0.20727 0.0225,0.06348 0.15649,1.671925 0.12288,0.962161 0.0448,-0.112431 0.50295,-2.924722 0.0112,0.0099 0.0671,0.152201 0.22345,0.731181 0.067,-0.04512 0.14541,-0.07419 0.0334,0.04895 0.21238,0.129257 0.16759,0.399243 0.23473,0.2088 0.11186,0.18203 0.16765,0.155261 0.40225,-0.221801 0.24591,-0.208035 0.17883,0.02524 0.11187,-0.09025 0.60357,-1.646686 0.12293,0.06578 0.27929,0.59657 0.35772,1.336929 0.16772,0.564447 0.65936,3.268286 0.0335,-0.0132 0.16759,-0.1574 0.12294,-0.15625 0.0336,0.0708 0.10071,0.85218 0.16757,1.14778 0.0223,-0.0489 0.12306,-1.17555 0.26828,-1.718809 0.18998,-0.947781 0.10058,-0.372474 0.0559,0.07648 0.12301,0.287578 0.067,-0.159851 0.067,-0.161379 0.056,0.143023 0.24574,1.414636 0.46951,3.766657 0.067,-0.20146 0.26827,-2.00165 0.11174,0.17041 0.13419,0.56926 0.067,-0.27434 0.14532,-0.60215 0.0447,0.0656 0.62581,1.58718 0.39121,0.0162 0.27947,-0.15128 0.58117,0.48238 0.4023,0.006 0.15659,-0.0197 0.24585,-0.30348 0.067,0.14914 0.17885,1.16423 0.23472,1.04346 0.22359,0.0105 0.23473,-0.19939 0.10058,-0.0758 0.17886,-0.64047 0.21236,-0.42318 0.25695,-0.0709 0.21239,-0.24475 0.0224,0.0154 0.33521,0.56949 0.26825,0.23618 0.58127,0.0861 0.27944,0.55642 0.42474,0.78732 0.13403,0.0373 0.0224,-0.0312 0.21223,-0.13897 0.23487,0.0177 0.18996,-0.0296 0.50295,0.77157 0.63711,0.90028 0.11178,0.21301 0.41355,1.17065 0.23469,1.16523 0.11178,0.47817 0.40222,2.46131 0.20132,-0.0764 0.0223,0.0918 0.0893,1.55353 0.27943,4.55818 0.20117,1.68325 0.0559,-0.1392 0.12293,-0.97379 0.19011,-1.06235 0.0223,0.0311 0.13403,0.97164 0.30185,3.29123 0.2011,0.93884 0.0783,0.14157 0.10057,0.23388 0.0559,-0.045 0.23485,-0.68559 0.14521,-0.19534 0.0671,-0.073 0.14519,-0.76683 0.31295,-4.44429 0.27942,-2.04478 0.19009,-0.29332 0.12283,-0.32589 0.0447,0.0519 0.12295,0.30777 0.0672,-0.10294 1.37474,-4.8788 0.31286,-1.78107 0.17879,-0.89523 0.15649,-0.77386 0.0447,0.18524 0.10057,0.52016 0.0447,-0.18562 0.20121,-0.6817 0.1676,0.008 0.0336,0.0433 0.0335,-0.0576 v 0 l 0.25715,-0.70525 0.0558,0.188 0.24597,0.84904 0.15638,0.86158 0.10061,0.66128 0.0559,-0.0472 0.27935,-0.74961 0.0783,0.214 0.19002,0.36865 0.0558,0.0894 0.12302,1.1598 0.24583,1.54106 0.0113,-0.0148 0.0671,-0.2836 0.0447,0.19672 0.14525,0.47664 0.0111,-0.009 0.20124,-0.0257 0.0111,0.0308 0.13415,0.70373 0.3465,1.5816 0.16767,0.20589 0.0111,0.008 0.0113,-0.0186 v 0 l 0.68185,-1.92723 0.0334,0.006 0.0447,-0.0534 0.26823,-0.43962 0.0113,0.0256 0.0224,0.0446 0.0222,-0.0532 v 0 l 0.30185,-0.75528 0.0335,0.0574 0.23464,0.42647 0.0559,-0.0972 0.34656,-0.80706 0.11177,-0.18898 0.067,0.0858 0.21231,0.34769 0.35767,1.60355 0.0336,0.0561 0.0558,-0.0897 0.0895,-0.10853 0.0447,0.0495 0.13402,0.23267 0.056,-0.0424 0.134,-0.35434 0.0447,0.15128 0.24597,1.41586 0.0895,-0.0612 0.16753,-0.30486 0.0336,0.10746 0.22344,0.48789 0.0113,-0.005 0.16757,0.13951 0.0336,-0.0668 0.15651,-0.31948 0.0558,0.0822 0.17887,0.57461 0.0782,-0.1496 0.17888,-0.14577 0.12289,-0.0819 0.16759,-0.17905 0.0224,0.0373 0.22366,1.10939 0.0894,0.2748 0.0447,-0.13652 0.46943,-2.10092 0.0111,0.007 0.0784,0.19496 0.2458,1.20461 0.0782,0.0576 0.0448,-0.0526 0.84945,-2.30896 0.13413,-0.4579 0.0335,0.0851 0.14522,0.23319 0.0782,0.11366 0.36891,0.98228 0.0448,-0.0316 0.35754,-0.56858 0.19009,-0.6495 0.067,0.10318 0.27943,0.43626 0.27939,-0.17591 0.35778,-0.7516 0.24583,0.004 0.17884,0.27335 0.0111,-0.006 0.43592,-0.47488 0.24594,0.42349 0.1677,0.56016 0.0335,-0.0203 0.39115,-0.0204 0.1676,0.0534 0.19011,0.13905 0.18992,0.90449 0.30189,1.2622 0.0111,-0.009 0.1007,-0.26678 0.1787,-0.27549 0.056,-0.0599 0.0447,0.10027 0.324,0.84124 0.0113,-0.007 0.14523,-0.0943 0.19013,-0.19488 0.0335,0.052 0.21232,0.0876 0.0336,-0.0691 0.48061,-1.44722 0.21225,-0.52108 0.0895,0.0879 0.29067,0.73324 0.30174,1.10825 0.10051,-0.15679 0.45835,-1.02258 0.12282,-0.0775 0.25712,-0.21729 0.0895,0.26807 0.92758,4.51153 0.0113,-0.0107 0.12286,-0.15465 0.1901,-0.21377 0.0111,0.01 0.17875,0.15695 0.21246,0.42945 0.23464,0.51083 0.0335,-0.0576 0.21249,-0.95436 0.18994,-0.74755 0.0335,0.0215 0.15658,-0.038 0.1452,-0.40276 0.0783,0.11106 0.13415,0.47947 0.5364,2.12532 0.11187,-0.0597 0.29057,-0.79046 0.27946,-1.27643 0.33531,-0.23748 0.16751,0.5532 0.1565,0.5152 0.056,-0.1392 0.12291,-1.05058 0.29051,-2.16165 0.12294,0.007 0.0113,0.0131 0.11166,0.14272 0.1454,0.30601 0.23462,0.78472 0.056,-0.0593 0.1341,-0.0454 0.0223,0.0275 0.14525,0.16192 0.0336,-0.0431 0.26826,-0.48138 0.0672,0.1808 0.52528,2.26659 0.42475,0.0199 0.13409,0.0538 0.0111,-0.0112 0.40244,-0.27373 0.21222,0.13484 0.2348,1.5858 0.14522,0.16108 0.0336,-0.0326 0.12294,-0.35687 0.45835,-1.64554 0.0335,0.0273 0.30164,0.50662 0.63712,2.33925 0.11187,0.39633 0.33515,1.45127 0.0224,-0.0171 0.14533,-0.44735 0.42469,-1.41456 0.056,0.17583 0.24583,1.04278 0.0336,-0.0254 0.11177,0.15985 0.12291,0.27198 0.0558,-0.0652 0.12307,-0.32497 0.36877,-0.90709 0.0671,0.0724 0.14538,0.71779 0.0894,0.23221 0.0446,-0.0519 0.33534,-0.56498 0.14531,0.0199 0.26818,0.59955 0.27934,0.66655 0.0672,-0.0851 0.25702,-0.48857 0.17884,0.14684 0.23475,0.69103 0.0335,-0.0261 0.37996,-0.22058 0.0224,0.0386 0.43586,0.74089 0.32412,0.0528 0.1229,0.26264 0.26837,1.03474 0.0558,-0.1239 0.0558,-0.18371 0.0782,0.11564 0.0447,-0.11281 0.20127,-0.44384 0.13412,0.11978 0.40244,1.68577 0.0782,0.18348 0.0558,-0.0801 0.16772,-0.72689 0.20107,-0.46961 0.14539,0.25469 0.23461,0.24077 0.15651,-0.13897 0.056,-0.0735 0.0447,0.0919 0.0783,0.21224 0.0558,-0.0841 0.16762,-0.11258 0.11181,-0.0996 0.27943,-0.19809 0.38005,0.22134 0.27928,0.39825 0.44708,0.50709 0.0784,-0.12069 0.22351,-0.40208 0.0671,0.0715 0.42472,0.52811 0.0558,-0.0608 0.52543,-0.45989 0.18992,0.18409 0.54775,1.27184 0.0446,0.092 0.0447,-0.0844 v 0 l 0.0671,-0.19151 0.0781,0.048 0.10068,-0.22807 0.0894,0.18562 0.12291,0.031 0.0113,-0.01 0.14527,-0.28077 0.0111,-0.0216 0.0113,0.008 v 0 l 0.11165,0.71183 0.19013,0.561 0.14522,-0.007 0.0111,-0.0281 0.0894,-0.11235 0.0448,0.0418 0.16769,0.7321 0.10054,-0.22708 0.22356,-0.29094 0.29052,0.53561 0.0448,-0.0478 0.15638,-0.0638 0.0559,-0.0611 0.0111,-0.0242 0.0448,-0.0694 0.0669,0.0854 0.19005,-0.0664 0.0224,0.0847 0.0558,0.057 0.0671,-0.0373 0.5253,-0.42272 0.0111,0.0177 0.33537,1.06449 0.24587,0.72285 0.11183,0.10363 0.0446,-0.0684 0.0894,-0.23901 0.0671,-0.12964 0.067,0.0479 0.26829,0.82319 0.12286,0.25805 0.0335,-0.0223 0.30176,-0.20651 0.19007,-0.0799 0.0224,0.075 0.10054,0.20642 0.0671,-0.0324 0.0335,0.004 0.0111,0.0447 0.15647,0.42708 0.0336,-0.0411 0.0559,-0.0477 0.0335,0.0833 0.14543,0.24895 0.0447,-0.074 0.11162,0.0379 0.0894,-0.0743 0.32409,-0.55993 0.0784,0.1701 0.0558,0.0606 0.0335,-0.0855 0.19005,-0.35994 0.27945,-0.27189 0.0111,0.0135 0.39126,0.23091 0.0671,0.0792 0.20119,0.34341 0.2012,0.17775 0.0335,-0.0484 0.0559,-0.11848 0.0783,0.0855 0.14524,0.25592 0.22357,0.39978 0.20115,-0.0956 0.0447,-0.0397 0.0448,0.0743 0.32399,0.67627 0.0224,0.002 0.0335,-0.0698 0.32419,-0.96736 0.0335,0.0229 0.21246,-0.0397 0.0446,-0.0376 0.0559,0.0574 0.17895,0.16268 0.0222,-0.0319 0.34657,-0.11098 0.10053,-0.0852 0.0335,0.024 0.50296,0.61538 0.23479,0.36949 0.69305,0.19695 0.2458,-0.39229 0.37998,-1.26105 0.3465,-0.98098 0.49181,0.0193 0.14529,0.75787 0.067,-0.29691 0.20128,-0.78717 0.35768,-1.85686 0.067,0.0738 0.0335,0.009 0.0559,-0.075 0.60363,-1.10816 0.0782,0.0912 0.18992,0.22103 0.0224,-0.0202 0.0335,-0.0558 0.0671,0.0688 0.34661,0.22042 0.16754,0.0213 0.34652,0.48773 0.45831,0.66702 0.19003,-0.004 0.22341,-0.0104 0.20115,-0.20085 0.30184,-0.44093 0.0448,0.0561 0.16764,0.20054 0.0446,-0.0448 0.19005,-0.2319 0.0224,0.0186 0.17875,0.43771 0.91659,2.25335 0.0559,-0.0831 0.24589,-0.48498 0.25704,-0.017 0.12297,-0.0343 0.14518,-0.0676 0.0113,0.0105 0.10059,0.11686 0.1677,0.66717 0.44694,2.5205 0.10058,-0.12237 0.22366,-0.59076 0.0446,0.0639 0.72656,1.39231 0.0335,-0.0568 0.17885,-0.42892 0.0559,0.0622 0.58105,0.95658 0.0448,-0.043 0.38004,-0.2179 0.0783,0.0607 0.18987,0.29132 0.0337,-0.0373 0.44696,-0.60682 0.0224,0.0213 0.24589,1.02862 0.23473,1.09379 0.52537,2.29664 0.24588,0.60039 0.23459,-0.0573 0.0224,-0.0573 0.0111,0.0372 v 0 l 0.26825,2.12349 0.21245,2.22811 0.0223,-0.0297 0.0783,0.31557 0.0671,-0.1766 0.22354,-0.54417 0.0336,0.088 0.20111,0.58961 0.0111,-0.0219 0.0111,-0.0606 0.0113,0.0109 v 0 l 0.20116,0.53194 0.0336,-0.0722 v 0 0 l 0.0559,0.25714 0.067,-0.0924 0.17878,-0.85172 0.15653,-0.37194 0.22343,-0.70097 0.0225,0.10776 0.0448,0.0679 0.0334,-0.075 v 0 l 0.14526,-0.43795 0.29067,-0.70617 0.14521,-0.28956 0.0336,0.22463 0.0111,0.0711 0.0111,-0.0407 v 0 l 0.50298,-2.11584 0.22354,-0.39847 0.0895,0.14623 0.17881,0.0853 0.12296,-0.0648 0.43581,-0.66732 0.0224,0.099 0.0223,0.0893 0.0447,-0.0942 v 0 l 0.21242,-0.28581 0.63701,-1.59759 0.0335,0.0968 0.13422,0.17713 0.0224,-0.0262 0.36876,-0.84331 0.0224,0.009 0.11169,0.18119 0.12296,0.24819 0.056,-0.0429 0.17875,-0.35473 0.29061,-0.41928 0.14533,0.10203 0.0335,-0.0609 0.14534,-0.53324 0.52525,-2.19691 0.0559,0.2062 0.0559,-0.0997 0.3354,-0.81761 0.0781,0.11472 0.067,0.0917 0.12297,0.44085 0.17894,0.38578 0.10045,-0.0554 0.0895,-0.10616 0.14529,-0.12268 0.0224,0.0135 0.3352,0.5415 0.056,0.15588 0.10063,-0.0675 0.16757,-0.16918 0.23471,-0.24934 0.11178,-0.0893 0.26825,-0.54403 0.257,-0.37025 0.0113,0.007 0.55876,0.52108 0.21235,0.20436 0.0224,-0.035 0.0223,0.0533 v 0 l 0.13413,0.2787 0.0447,-0.0312 0.27941,-1.22771 0.14528,-0.79948 0.056,0.0681 0.13405,0.0293 0.0895,0.42157 0.49169,2.45971 0.23474,0.61554 0.17887,0.16252 0.10061,0.33577 0.59234,2.38452 0.21236,-0.0684 0.0111,0.0193 0.1007,0.36299 0.37995,1.11788 0.21228,0.21798 0.16764,0.11916 0.67066,0.90151 0.0559,-0.0564 0.0113,-0.025 0.1788,-0.16903 0.0335,0.0378 0.11178,0.282 0.60356,1.23528 0.51414,0.39266 0.0111,-0.0113 0.24587,0.0613 0.83824,0.68078 0.0559,-0.0872 0.27947,-0.0574 1.17343,0.83153 0.30178,0.55198 0.44708,0.32635 0.4918,0.13974 0.15659,0.0561 0.20112,0.30869 0.0782,-0.0899 0.26825,0.0217 0.25702,0.89769 0.2459,0.46746 0.16763,-0.24031 0.31304,-0.77608 0.0783,0.0738 0.12296,0.53791 0.26815,1.09723 0.0558,-0.054 0.0113,-0.034 0.15634,-0.80613 0.20122,-0.54235 0.0111,0.003 0.0894,0.12635 0.10069,0.37935 0.30169,1.21968 0.38014,0.007 0.39109,-0.90388 0.13424,-0.75275 0.27941,-1.50779 0.13407,-8.4e-4 0.0782,0.11855 0.32412,1.45096 0.17874,1.08377 0.0336,-0.0777 0.22356,-0.92544 0.0447,0.28199 0.27943,5.83293 0.22348,2.18 0.11187,-0.11052 0.93877,-3.65139 0.50296,-2.47729 0.0113,0.0144 0.0781,0.21813 0.16771,0.50158 0.0447,-0.06 0.36878,-0.71091 0.22351,-0.61883 0.15653,0.003 0.3242,0.4628 0.0558,-0.0633 0.2683,-0.34333 0.0335,0.0326 0.25698,0.4342 0.16767,0.22799 0.0113,-0.0129 0.11169,-0.10662 0.22357,-0.41186 0.20111,-0.34104 0.0335,0.0294 0.25714,0.25209 0.2123,0.21316 0.0224,-0.0133 0.12294,0.0106 0.12295,-0.009 0.21234,-0.0854 0.1341,0.20612 0.27933,1.01853 0.0671,-0.11151 0.34648,-0.97065 0.29061,0.0161 0.32418,0.11503 0.34646,-0.007 0.25707,-0.0385 0.32403,-0.0222 0.23482,-0.006 0.23464,-0.007 0.45835,0.0329 0.17881,0.0399 0.50289,0.0713 0.79358,0.45661 0.25711,0.13706 0.30163,0.14241 1.30782,0.4898 0.36876,-0.0123 0.34644,0.0512 0.34659,0.28979 0.5365,1.39147 0.0558,-0.0191 0.0335,0.0661 0.22353,0.45378 0.0447,-0.0558 0.2571,-0.9497 0.0782,0.23695 0.46953,1.42182 0.0447,0.0174 0.0336,-0.0729 0.67049,-1.71667 0.33534,-0.18364 0.24583,-0.28161 0.38001,-1.64814 0.0448,0.0392 0.40238,1.23077 0.1452,0.87328 0.1565,1.19284 0.0447,-0.14157 0.22362,-1.6938 0.067,0.24291 0.17893,0.44987 0.0223,-0.005 0.27941,-0.10394 0.2907,0.21744 0.13406,-0.0216 0.11179,-0.0442 0.0671,-0.0223 0.0111,0.0461 0.30173,1.34741 0.45827,1.34388 0.0224,-0.0141 0.11166,-0.40253 0.31303,-0.98121 0.11179,0.24605 0.29054,1.07191 0.42474,1.14718 0.15648,-0.0912 0.25698,-0.20612 0.20115,0.008 0.19011,0.38677 0.29051,0.61607 0.10068,0.13783 0.12291,0.22448 0.0447,-0.0415 0.19001,-0.30134 0.0447,0.0704 0.43586,0.69646 0.10066,-0.22731 0.26826,-0.62533 0.0224,0.0249 0.10049,0.10723 0.0447,-0.0485 0.12292,-0.15282 0.0336,0.0279 0.19002,0.42792 0.056,0.0467 0.0558,-0.0602 0.27949,-0.49233 0.0222,-0.0361 0.0224,0.0384 v 0 l 0.41358,0.81049 0.54766,0.68889 0.25698,-0.18165 0.22363,-0.43198 0.1452,0.14134 0.19009,0.24697 0.36888,0.94717 0.0223,-0.0195 0.68181,-0.93546 0.36891,-0.843 0.14529,-0.0242 0.14523,-0.005 0.15644,-0.0288 0.14532,-0.084 0.51407,-0.87451 0.0224,0.0145 0.2794,0.45225 0.15652,0.59091 0.54759,2.37901 v 0" /></g></g><g
             id="g2514"><path
   inkscape:connector-curvature="0"
   id="path2204"
   style="fill:none;stroke:#000000;stroke-width:1;stroke-linecap:square;stroke-linejoin:miter;stroke-miterlimit:10;stroke-dasharray:none;stroke-opacity:1"
   d="M 52.3575,206.28 H 358.155" /><path
   inkscape:connector-curvature="0"
   id="path2206"
   style="fill:none;stroke:#000000;stroke-width:1;stroke-linecap:square;stroke-linejoin:miter;stroke-miterlimit:10;stroke-dasharray:none;stroke-opacity:1"
   d="M 358.155,22.72 V 206.28" /><path
   inkscape:connector-curvature="0"
   id="path2208"
   style="fill:none;stroke:#000000;stroke-width:1;stroke-linecap:square;stroke-linejoin:miter;stroke-miterlimit:10;stroke-dasharray:none;stroke-opacity:1"
   d="M 52.3575,22.72 H 358.155" /><path
   inkscape:connector-curvature="0"
   id="path2210"
   style="fill:none;stroke:#000000;stroke-width:1;stroke-linecap:square;stroke-linejoin:miter;stroke-miterlimit:10;stroke-dasharray:none;stroke-opacity:1"
   d="M 52.3575,22.72 V 206.28" /><path
   inkscape:connector-curvature="0"
   id="path2212"
   style="fill:#000000;fill-opacity:1;fill-rule:nonzero;stroke:#000000;stroke-width:0.5;stroke-linecap:butt;stroke-linejoin:round;stroke-miterlimit:10;stroke-dasharray:none;stroke-opacity:1"
   d="m 68.452105,22.72 v 4" /><path
   inkscape:connector-curvature="0"
   id="path2214"
   style="fill:#000000;fill-opacity:1;fill-rule:nonzero;stroke:#000000;stroke-width:0.5;stroke-linecap:butt;stroke-linejoin:round;stroke-miterlimit:10;stroke-dasharray:none;stroke-opacity:1"
   d="m 68.452105,206.28 v -4" /><text
   id="text2218"
   style="font-variant:normal;font-weight:normal;line-height:0%;font-family:'DejaVu Sans';-inkscape-font-specification:'DejaVu Sans';writing-mode:lr-tb;fill:#000000;fill-opacity:1;fill-rule:nonzero;stroke:none"
   transform="matrix(1,0,0,-1,39.93648,11.87625)"><tspan
     id="tspan2216"
     sodipodi:role="line"
     y="0"
     x="0 5.724 11.448 14.31 16.965 22.482 28.188 31.049999 36.773998 42.498001 45.530998 51.255001"
     style="font-size:9px;line-height:1.25">07 Jan 12:00</tspan></text>

<path
   inkscape:connector-curvature="0"
   id="path2220"
   style="fill:#000000;fill-opacity:1;fill-rule:nonzero;stroke:#000000;stroke-width:0.5;stroke-linecap:butt;stroke-linejoin:round;stroke-miterlimit:10;stroke-dasharray:none;stroke-opacity:1"
   d="m 165.01974,22.72 v 4" /><path
   inkscape:connector-curvature="0"
   id="path2222"
   style="fill:#000000;fill-opacity:1;fill-rule:nonzero;stroke:#000000;stroke-width:0.5;stroke-linecap:butt;stroke-linejoin:round;stroke-miterlimit:10;stroke-dasharray:none;stroke-opacity:1"
   d="m 165.01974,206.28 v -4" /><text
   id="text2226"
   style="font-variant:normal;font-weight:normal;line-height:0%;font-family:'DejaVu Sans';-inkscape-font-specification:'DejaVu Sans';writing-mode:lr-tb;fill:#000000;fill-opacity:1;fill-rule:nonzero;stroke:none"
   transform="matrix(1,0,0,-1,136.50411,11.87625)"><tspan
     id="tspan2224"
     sodipodi:role="line"
     y="0"
     x="0 5.724 11.448 14.31 16.965 22.482 28.188 31.049999 36.773998 42.498001 45.530998 51.255001"
     style="font-size:9px;line-height:1.25">08 Jan 00:00</tspan></text>

<path
   inkscape:connector-curvature="0"
   id="path2228"
   style="fill:#000000;fill-opacity:1;fill-rule:nonzero;stroke:#000000;stroke-width:0.5;stroke-linecap:butt;stroke-linejoin:round;stroke-miterlimit:10;stroke-dasharray:none;stroke-opacity:1"
   d="m 261.58737,22.72 v 4" /><path
   inkscape:connector-curvature="0"
   id="path2230"
   style="fill:#000000;fill-opacity:1;fill-rule:nonzero;stroke:#000000;stroke-width:0.5;stroke-linecap:butt;stroke-linejoin:round;stroke-miterlimit:10;stroke-dasharray:none;stroke-opacity:1"
   d="m 261.58737,206.28 v -4" /><text
   id="text2234"
   style="font-variant:normal;font-weight:normal;line-height:0%;font-family:'DejaVu Sans';-inkscape-font-specification:'DejaVu Sans';writing-mode:lr-tb;fill:#000000;fill-opacity:1;fill-rule:nonzero;stroke:none"
   transform="matrix(1,0,0,-1,233.07174,11.87625)"><tspan
     id="tspan2232"
     sodipodi:role="line"
     y="0"
     x="0 5.724 11.448 14.31 16.965 22.482 28.188 31.049999 36.773998 42.498001 45.530998 51.255001"
     style="font-size:9px;line-height:1.25">08 Jan 12:00</tspan></text>

<path
   inkscape:connector-curvature="0"
   id="path2236"
   style="fill:#000000;fill-opacity:1;fill-rule:nonzero;stroke:#000000;stroke-width:0.5;stroke-linecap:butt;stroke-linejoin:round;stroke-miterlimit:10;stroke-dasharray:none;stroke-opacity:1"
   d="m 358.155,22.72 v 4" /><path
   inkscape:connector-curvature="0"
   id="path2238"
   style="fill:#000000;fill-opacity:1;fill-rule:nonzero;stroke:#000000;stroke-width:0.5;stroke-linecap:butt;stroke-linejoin:round;stroke-miterlimit:10;stroke-dasharray:none;stroke-opacity:1"
   d="m 358.155,206.28 v -4" /><text
   id="text2242"
   style="font-variant:normal;font-weight:normal;line-height:0%;font-family:'DejaVu Sans';-inkscape-font-specification:'DejaVu Sans';writing-mode:lr-tb;fill:#000000;fill-opacity:1;fill-rule:nonzero;stroke:none"
   transform="matrix(1,0,0,-1,329.63937,11.87625)"><tspan
     id="tspan2240"
     sodipodi:role="line"
     y="0"
     x="0 5.724 11.448 14.31 16.965 22.482 28.188 31.049999 36.773998 42.498001 45.530998 51.255001"
     style="font-size:9px;line-height:1.25">09 Jan 00:00</tspan></text>

<path
   inkscape:connector-curvature="0"
   id="path2244"
   style="fill:#000000;fill-opacity:1;fill-rule:nonzero;stroke:#000000;stroke-width:0.5;stroke-linecap:butt;stroke-linejoin:round;stroke-miterlimit:10;stroke-dasharray:none;stroke-opacity:1"
   d="m 52.3575,22.72 v 2" /><path
   inkscape:connector-curvature="0"
   id="path2246"
   style="fill:#000000;fill-opacity:1;fill-rule:nonzero;stroke:#000000;stroke-width:0.5;stroke-linecap:butt;stroke-linejoin:round;stroke-miterlimit:10;stroke-dasharray:none;stroke-opacity:1"
   d="m 52.3575,206.28 v -2" /><path
   inkscape:connector-curvature="0"
   id="path2248"
   style="fill:#000000;fill-opacity:1;fill-rule:nonzero;stroke:#000000;stroke-width:0.5;stroke-linecap:butt;stroke-linejoin:round;stroke-miterlimit:10;stroke-dasharray:none;stroke-opacity:1"
   d="m 60.404803,22.72 v 2" /><path
   inkscape:connector-curvature="0"
   id="path2250"
   style="fill:#000000;fill-opacity:1;fill-rule:nonzero;stroke:#000000;stroke-width:0.5;stroke-linecap:butt;stroke-linejoin:round;stroke-miterlimit:10;stroke-dasharray:none;stroke-opacity:1"
   d="m 60.404803,206.28 v -2" /><path
   inkscape:connector-curvature="0"
   id="path2252"
   style="fill:#000000;fill-opacity:1;fill-rule:nonzero;stroke:#000000;stroke-width:0.5;stroke-linecap:butt;stroke-linejoin:round;stroke-miterlimit:10;stroke-dasharray:none;stroke-opacity:1"
   d="m 68.452105,22.72 v 2" /><path
   inkscape:connector-curvature="0"
   id="path2254"
   style="fill:#000000;fill-opacity:1;fill-rule:nonzero;stroke:#000000;stroke-width:0.5;stroke-linecap:butt;stroke-linejoin:round;stroke-miterlimit:10;stroke-dasharray:none;stroke-opacity:1"
   d="m 68.452105,206.28 v -2" /><path
   inkscape:connector-curvature="0"
   id="path2256"
   style="fill:#000000;fill-opacity:1;fill-rule:nonzero;stroke:#000000;stroke-width:0.5;stroke-linecap:butt;stroke-linejoin:round;stroke-miterlimit:10;stroke-dasharray:none;stroke-opacity:1"
   d="m 76.499408,22.72 v 2" /><path
   inkscape:connector-curvature="0"
   id="path2258"
   style="fill:#000000;fill-opacity:1;fill-rule:nonzero;stroke:#000000;stroke-width:0.5;stroke-linecap:butt;stroke-linejoin:round;stroke-miterlimit:10;stroke-dasharray:none;stroke-opacity:1"
   d="m 76.499408,206.28 v -2" /><path
   inkscape:connector-curvature="0"
   id="path2260"
   style="fill:#000000;fill-opacity:1;fill-rule:nonzero;stroke:#000000;stroke-width:0.5;stroke-linecap:butt;stroke-linejoin:round;stroke-miterlimit:10;stroke-dasharray:none;stroke-opacity:1"
   d="m 84.546711,22.72 v 2" /><path
   inkscape:connector-curvature="0"
   id="path2262"
   style="fill:#000000;fill-opacity:1;fill-rule:nonzero;stroke:#000000;stroke-width:0.5;stroke-linecap:butt;stroke-linejoin:round;stroke-miterlimit:10;stroke-dasharray:none;stroke-opacity:1"
   d="m 84.546711,206.28 v -2" /><path
   inkscape:connector-curvature="0"
   id="path2264"
   style="fill:#000000;fill-opacity:1;fill-rule:nonzero;stroke:#000000;stroke-width:0.5;stroke-linecap:butt;stroke-linejoin:round;stroke-miterlimit:10;stroke-dasharray:none;stroke-opacity:1"
   d="m 92.594013,22.72 v 2" /><path
   inkscape:connector-curvature="0"
   id="path2266"
   style="fill:#000000;fill-opacity:1;fill-rule:nonzero;stroke:#000000;stroke-width:0.5;stroke-linecap:butt;stroke-linejoin:round;stroke-miterlimit:10;stroke-dasharray:none;stroke-opacity:1"
   d="m 92.594013,206.28 v -2" /><path
   inkscape:connector-curvature="0"
   id="path2268"
   style="fill:#000000;fill-opacity:1;fill-rule:nonzero;stroke:#000000;stroke-width:0.5;stroke-linecap:butt;stroke-linejoin:round;stroke-miterlimit:10;stroke-dasharray:none;stroke-opacity:1"
   d="m 100.64132,22.72 v 2" /><path
   inkscape:connector-curvature="0"
   id="path2270"
   style="fill:#000000;fill-opacity:1;fill-rule:nonzero;stroke:#000000;stroke-width:0.5;stroke-linecap:butt;stroke-linejoin:round;stroke-miterlimit:10;stroke-dasharray:none;stroke-opacity:1"
   d="m 100.64132,206.28 v -2" /><path
   inkscape:connector-curvature="0"
   id="path2272"
   style="fill:#000000;fill-opacity:1;fill-rule:nonzero;stroke:#000000;stroke-width:0.5;stroke-linecap:butt;stroke-linejoin:round;stroke-miterlimit:10;stroke-dasharray:none;stroke-opacity:1"
   d="m 108.68862,22.72 v 2" /><path
   inkscape:connector-curvature="0"
   id="path2274"
   style="fill:#000000;fill-opacity:1;fill-rule:nonzero;stroke:#000000;stroke-width:0.5;stroke-linecap:butt;stroke-linejoin:round;stroke-miterlimit:10;stroke-dasharray:none;stroke-opacity:1"
   d="m 108.68862,206.28 v -2" /><path
   inkscape:connector-curvature="0"
   id="path2276"
   style="fill:#000000;fill-opacity:1;fill-rule:nonzero;stroke:#000000;stroke-width:0.5;stroke-linecap:butt;stroke-linejoin:round;stroke-miterlimit:10;stroke-dasharray:none;stroke-opacity:1"
   d="m 116.73592,22.72 v 2" /><path
   inkscape:connector-curvature="0"
   id="path2278"
   style="fill:#000000;fill-opacity:1;fill-rule:nonzero;stroke:#000000;stroke-width:0.5;stroke-linecap:butt;stroke-linejoin:round;stroke-miterlimit:10;stroke-dasharray:none;stroke-opacity:1"
   d="m 116.73592,206.28 v -2" /><path
   inkscape:connector-curvature="0"
   id="path2280"
   style="fill:#000000;fill-opacity:1;fill-rule:nonzero;stroke:#000000;stroke-width:0.5;stroke-linecap:butt;stroke-linejoin:round;stroke-miterlimit:10;stroke-dasharray:none;stroke-opacity:1"
   d="m 124.78322,22.72 v 2" /><path
   inkscape:connector-curvature="0"
   id="path2282"
   style="fill:#000000;fill-opacity:1;fill-rule:nonzero;stroke:#000000;stroke-width:0.5;stroke-linecap:butt;stroke-linejoin:round;stroke-miterlimit:10;stroke-dasharray:none;stroke-opacity:1"
   d="m 124.78322,206.28 v -2" /><path
   inkscape:connector-curvature="0"
   id="path2284"
   style="fill:#000000;fill-opacity:1;fill-rule:nonzero;stroke:#000000;stroke-width:0.5;stroke-linecap:butt;stroke-linejoin:round;stroke-miterlimit:10;stroke-dasharray:none;stroke-opacity:1"
   d="m 132.83053,22.72 v 2" /><path
   inkscape:connector-curvature="0"
   id="path2286"
   style="fill:#000000;fill-opacity:1;fill-rule:nonzero;stroke:#000000;stroke-width:0.5;stroke-linecap:butt;stroke-linejoin:round;stroke-miterlimit:10;stroke-dasharray:none;stroke-opacity:1"
   d="m 132.83053,206.28 v -2" /><path
   inkscape:connector-curvature="0"
   id="path2288"
   style="fill:#000000;fill-opacity:1;fill-rule:nonzero;stroke:#000000;stroke-width:0.5;stroke-linecap:butt;stroke-linejoin:round;stroke-miterlimit:10;stroke-dasharray:none;stroke-opacity:1"
   d="m 140.87783,22.72 v 2" /><path
   inkscape:connector-curvature="0"
   id="path2290"
   style="fill:#000000;fill-opacity:1;fill-rule:nonzero;stroke:#000000;stroke-width:0.5;stroke-linecap:butt;stroke-linejoin:round;stroke-miterlimit:10;stroke-dasharray:none;stroke-opacity:1"
   d="m 140.87783,206.28 v -2" /><path
   inkscape:connector-curvature="0"
   id="path2292"
   style="fill:#000000;fill-opacity:1;fill-rule:nonzero;stroke:#000000;stroke-width:0.5;stroke-linecap:butt;stroke-linejoin:round;stroke-miterlimit:10;stroke-dasharray:none;stroke-opacity:1"
   d="m 148.92513,22.72 v 2" /><path
   inkscape:connector-curvature="0"
   id="path2294"
   style="fill:#000000;fill-opacity:1;fill-rule:nonzero;stroke:#000000;stroke-width:0.5;stroke-linecap:butt;stroke-linejoin:round;stroke-miterlimit:10;stroke-dasharray:none;stroke-opacity:1"
   d="m 148.92513,206.28 v -2" /><path
   inkscape:connector-curvature="0"
   id="path2296"
   style="fill:#000000;fill-opacity:1;fill-rule:nonzero;stroke:#000000;stroke-width:0.5;stroke-linecap:butt;stroke-linejoin:round;stroke-miterlimit:10;stroke-dasharray:none;stroke-opacity:1"
   d="m 156.97243,22.72 v 2" /><path
   inkscape:connector-curvature="0"
   id="path2298"
   style="fill:#000000;fill-opacity:1;fill-rule:nonzero;stroke:#000000;stroke-width:0.5;stroke-linecap:butt;stroke-linejoin:round;stroke-miterlimit:10;stroke-dasharray:none;stroke-opacity:1"
   d="m 156.97243,206.28 v -2" /><path
   inkscape:connector-curvature="0"
   id="path2300"
   style="fill:#000000;fill-opacity:1;fill-rule:nonzero;stroke:#000000;stroke-width:0.5;stroke-linecap:butt;stroke-linejoin:round;stroke-miterlimit:10;stroke-dasharray:none;stroke-opacity:1"
   d="m 165.01974,22.72 v 2" /><path
   inkscape:connector-curvature="0"
   id="path2302"
   style="fill:#000000;fill-opacity:1;fill-rule:nonzero;stroke:#000000;stroke-width:0.5;stroke-linecap:butt;stroke-linejoin:round;stroke-miterlimit:10;stroke-dasharray:none;stroke-opacity:1"
   d="m 165.01974,206.28 v -2" /><path
   inkscape:connector-curvature="0"
   id="path2304"
   style="fill:#000000;fill-opacity:1;fill-rule:nonzero;stroke:#000000;stroke-width:0.5;stroke-linecap:butt;stroke-linejoin:round;stroke-miterlimit:10;stroke-dasharray:none;stroke-opacity:1"
   d="m 173.06704,22.72 v 2" /><path
   inkscape:connector-curvature="0"
   id="path2306"
   style="fill:#000000;fill-opacity:1;fill-rule:nonzero;stroke:#000000;stroke-width:0.5;stroke-linecap:butt;stroke-linejoin:round;stroke-miterlimit:10;stroke-dasharray:none;stroke-opacity:1"
   d="m 173.06704,206.28 v -2" /><path
   inkscape:connector-curvature="0"
   id="path2308"
   style="fill:#000000;fill-opacity:1;fill-rule:nonzero;stroke:#000000;stroke-width:0.5;stroke-linecap:butt;stroke-linejoin:round;stroke-miterlimit:10;stroke-dasharray:none;stroke-opacity:1"
   d="m 181.11434,22.72 v 2" /><path
   inkscape:connector-curvature="0"
   id="path2310"
   style="fill:#000000;fill-opacity:1;fill-rule:nonzero;stroke:#000000;stroke-width:0.5;stroke-linecap:butt;stroke-linejoin:round;stroke-miterlimit:10;stroke-dasharray:none;stroke-opacity:1"
   d="m 181.11434,206.28 v -2" /><path
   inkscape:connector-curvature="0"
   id="path2312"
   style="fill:#000000;fill-opacity:1;fill-rule:nonzero;stroke:#000000;stroke-width:0.5;stroke-linecap:butt;stroke-linejoin:round;stroke-miterlimit:10;stroke-dasharray:none;stroke-opacity:1"
   d="m 189.16164,22.72 v 2" /><path
   inkscape:connector-curvature="0"
   id="path2314"
   style="fill:#000000;fill-opacity:1;fill-rule:nonzero;stroke:#000000;stroke-width:0.5;stroke-linecap:butt;stroke-linejoin:round;stroke-miterlimit:10;stroke-dasharray:none;stroke-opacity:1"
   d="m 189.16164,206.28 v -2" /><path
   inkscape:connector-curvature="0"
   id="path2316"
   style="fill:#000000;fill-opacity:1;fill-rule:nonzero;stroke:#000000;stroke-width:0.5;stroke-linecap:butt;stroke-linejoin:round;stroke-miterlimit:10;stroke-dasharray:none;stroke-opacity:1"
   d="m 197.20895,22.72 v 2" /><path
   inkscape:connector-curvature="0"
   id="path2318"
   style="fill:#000000;fill-opacity:1;fill-rule:nonzero;stroke:#000000;stroke-width:0.5;stroke-linecap:butt;stroke-linejoin:round;stroke-miterlimit:10;stroke-dasharray:none;stroke-opacity:1"
   d="m 197.20895,206.28 v -2" /><path
   inkscape:connector-curvature="0"
   id="path2320"
   style="fill:#000000;fill-opacity:1;fill-rule:nonzero;stroke:#000000;stroke-width:0.5;stroke-linecap:butt;stroke-linejoin:round;stroke-miterlimit:10;stroke-dasharray:none;stroke-opacity:1"
   d="m 205.25625,22.72 v 2" /><path
   inkscape:connector-curvature="0"
   id="path2322"
   style="fill:#000000;fill-opacity:1;fill-rule:nonzero;stroke:#000000;stroke-width:0.5;stroke-linecap:butt;stroke-linejoin:round;stroke-miterlimit:10;stroke-dasharray:none;stroke-opacity:1"
   d="m 205.25625,206.28 v -2" /><path
   inkscape:connector-curvature="0"
   id="path2324"
   style="fill:#000000;fill-opacity:1;fill-rule:nonzero;stroke:#000000;stroke-width:0.5;stroke-linecap:butt;stroke-linejoin:round;stroke-miterlimit:10;stroke-dasharray:none;stroke-opacity:1"
   d="m 213.30355,22.72 v 2" /><path
   inkscape:connector-curvature="0"
   id="path2326"
   style="fill:#000000;fill-opacity:1;fill-rule:nonzero;stroke:#000000;stroke-width:0.5;stroke-linecap:butt;stroke-linejoin:round;stroke-miterlimit:10;stroke-dasharray:none;stroke-opacity:1"
   d="m 213.30355,206.28 v -2" /><path
   inkscape:connector-curvature="0"
   id="path2328"
   style="fill:#000000;fill-opacity:1;fill-rule:nonzero;stroke:#000000;stroke-width:0.5;stroke-linecap:butt;stroke-linejoin:round;stroke-miterlimit:10;stroke-dasharray:none;stroke-opacity:1"
   d="m 221.35085,22.72 v 2" /><path
   inkscape:connector-curvature="0"
   id="path2330"
   style="fill:#000000;fill-opacity:1;fill-rule:nonzero;stroke:#000000;stroke-width:0.5;stroke-linecap:butt;stroke-linejoin:round;stroke-miterlimit:10;stroke-dasharray:none;stroke-opacity:1"
   d="m 221.35085,206.28 v -2" /><path
   inkscape:connector-curvature="0"
   id="path2332"
   style="fill:#000000;fill-opacity:1;fill-rule:nonzero;stroke:#000000;stroke-width:0.5;stroke-linecap:butt;stroke-linejoin:round;stroke-miterlimit:10;stroke-dasharray:none;stroke-opacity:1"
   d="m 229.39816,22.72 v 2" /><path
   inkscape:connector-curvature="0"
   id="path2334"
   style="fill:#000000;fill-opacity:1;fill-rule:nonzero;stroke:#000000;stroke-width:0.5;stroke-linecap:butt;stroke-linejoin:round;stroke-miterlimit:10;stroke-dasharray:none;stroke-opacity:1"
   d="m 229.39816,206.28 v -2" /><path
   inkscape:connector-curvature="0"
   id="path2336"
   style="fill:#000000;fill-opacity:1;fill-rule:nonzero;stroke:#000000;stroke-width:0.5;stroke-linecap:butt;stroke-linejoin:round;stroke-miterlimit:10;stroke-dasharray:none;stroke-opacity:1"
   d="m 237.44546,22.72 v 2" /><path
   inkscape:connector-curvature="0"
   id="path2338"
   style="fill:#000000;fill-opacity:1;fill-rule:nonzero;stroke:#000000;stroke-width:0.5;stroke-linecap:butt;stroke-linejoin:round;stroke-miterlimit:10;stroke-dasharray:none;stroke-opacity:1"
   d="m 237.44546,206.28 v -2" /><path
   inkscape:connector-curvature="0"
   id="path2340"
   style="fill:#000000;fill-opacity:1;fill-rule:nonzero;stroke:#000000;stroke-width:0.5;stroke-linecap:butt;stroke-linejoin:round;stroke-miterlimit:10;stroke-dasharray:none;stroke-opacity:1"
   d="m 245.49276,22.72 v 2" /><path
   inkscape:connector-curvature="0"
   id="path2342"
   style="fill:#000000;fill-opacity:1;fill-rule:nonzero;stroke:#000000;stroke-width:0.5;stroke-linecap:butt;stroke-linejoin:round;stroke-miterlimit:10;stroke-dasharray:none;stroke-opacity:1"
   d="m 245.49276,206.28 v -2" /><path
   inkscape:connector-curvature="0"
   id="path2344"
   style="fill:#000000;fill-opacity:1;fill-rule:nonzero;stroke:#000000;stroke-width:0.5;stroke-linecap:butt;stroke-linejoin:round;stroke-miterlimit:10;stroke-dasharray:none;stroke-opacity:1"
   d="m 253.54007,22.72 v 2" /><path
   inkscape:connector-curvature="0"
   id="path2346"
   style="fill:#000000;fill-opacity:1;fill-rule:nonzero;stroke:#000000;stroke-width:0.5;stroke-linecap:butt;stroke-linejoin:round;stroke-miterlimit:10;stroke-dasharray:none;stroke-opacity:1"
   d="m 253.54007,206.28 v -2" /><path
   inkscape:connector-curvature="0"
   id="path2348"
   style="fill:#000000;fill-opacity:1;fill-rule:nonzero;stroke:#000000;stroke-width:0.5;stroke-linecap:butt;stroke-linejoin:round;stroke-miterlimit:10;stroke-dasharray:none;stroke-opacity:1"
   d="m 261.58737,22.72 v 2" /><path
   inkscape:connector-curvature="0"
   id="path2350"
   style="fill:#000000;fill-opacity:1;fill-rule:nonzero;stroke:#000000;stroke-width:0.5;stroke-linecap:butt;stroke-linejoin:round;stroke-miterlimit:10;stroke-dasharray:none;stroke-opacity:1"
   d="m 261.58737,206.28 v -2" /><path
   inkscape:connector-curvature="0"
   id="path2352"
   style="fill:#000000;fill-opacity:1;fill-rule:nonzero;stroke:#000000;stroke-width:0.5;stroke-linecap:butt;stroke-linejoin:round;stroke-miterlimit:10;stroke-dasharray:none;stroke-opacity:1"
   d="m 269.63467,22.72 v 2" /><path
   inkscape:connector-curvature="0"
   id="path2354"
   style="fill:#000000;fill-opacity:1;fill-rule:nonzero;stroke:#000000;stroke-width:0.5;stroke-linecap:butt;stroke-linejoin:round;stroke-miterlimit:10;stroke-dasharray:none;stroke-opacity:1"
   d="m 269.63467,206.28 v -2" /><path
   inkscape:connector-curvature="0"
   id="path2356"
   style="fill:#000000;fill-opacity:1;fill-rule:nonzero;stroke:#000000;stroke-width:0.5;stroke-linecap:butt;stroke-linejoin:round;stroke-miterlimit:10;stroke-dasharray:none;stroke-opacity:1"
   d="m 277.68197,22.72 v 2" /><path
   inkscape:connector-curvature="0"
   id="path2358"
   style="fill:#000000;fill-opacity:1;fill-rule:nonzero;stroke:#000000;stroke-width:0.5;stroke-linecap:butt;stroke-linejoin:round;stroke-miterlimit:10;stroke-dasharray:none;stroke-opacity:1"
   d="m 277.68197,206.28 v -2" /><path
   inkscape:connector-curvature="0"
   id="path2360"
   style="fill:#000000;fill-opacity:1;fill-rule:nonzero;stroke:#000000;stroke-width:0.5;stroke-linecap:butt;stroke-linejoin:round;stroke-miterlimit:10;stroke-dasharray:none;stroke-opacity:1"
   d="m 285.72928,22.72 v 2" /><path
   inkscape:connector-curvature="0"
   id="path2362"
   style="fill:#000000;fill-opacity:1;fill-rule:nonzero;stroke:#000000;stroke-width:0.5;stroke-linecap:butt;stroke-linejoin:round;stroke-miterlimit:10;stroke-dasharray:none;stroke-opacity:1"
   d="m 285.72928,206.28 v -2" /><path
   inkscape:connector-curvature="0"
   id="path2364"
   style="fill:#000000;fill-opacity:1;fill-rule:nonzero;stroke:#000000;stroke-width:0.5;stroke-linecap:butt;stroke-linejoin:round;stroke-miterlimit:10;stroke-dasharray:none;stroke-opacity:1"
   d="m 293.77658,22.72 v 2" /><path
   inkscape:connector-curvature="0"
   id="path2366"
   style="fill:#000000;fill-opacity:1;fill-rule:nonzero;stroke:#000000;stroke-width:0.5;stroke-linecap:butt;stroke-linejoin:round;stroke-miterlimit:10;stroke-dasharray:none;stroke-opacity:1"
   d="m 293.77658,206.28 v -2" /><path
   inkscape:connector-curvature="0"
   id="path2368"
   style="fill:#000000;fill-opacity:1;fill-rule:nonzero;stroke:#000000;stroke-width:0.5;stroke-linecap:butt;stroke-linejoin:round;stroke-miterlimit:10;stroke-dasharray:none;stroke-opacity:1"
   d="m 301.82388,22.72 v 2" /><path
   inkscape:connector-curvature="0"
   id="path2370"
   style="fill:#000000;fill-opacity:1;fill-rule:nonzero;stroke:#000000;stroke-width:0.5;stroke-linecap:butt;stroke-linejoin:round;stroke-miterlimit:10;stroke-dasharray:none;stroke-opacity:1"
   d="m 301.82388,206.28 v -2" /><path
   inkscape:connector-curvature="0"
   id="path2372"
   style="fill:#000000;fill-opacity:1;fill-rule:nonzero;stroke:#000000;stroke-width:0.5;stroke-linecap:butt;stroke-linejoin:round;stroke-miterlimit:10;stroke-dasharray:none;stroke-opacity:1"
   d="m 309.87118,22.72 v 2" /><path
   inkscape:connector-curvature="0"
   id="path2374"
   style="fill:#000000;fill-opacity:1;fill-rule:nonzero;stroke:#000000;stroke-width:0.5;stroke-linecap:butt;stroke-linejoin:round;stroke-miterlimit:10;stroke-dasharray:none;stroke-opacity:1"
   d="m 309.87118,206.28 v -2" /><path
   inkscape:connector-curvature="0"
   id="path2376"
   style="fill:#000000;fill-opacity:1;fill-rule:nonzero;stroke:#000000;stroke-width:0.5;stroke-linecap:butt;stroke-linejoin:round;stroke-miterlimit:10;stroke-dasharray:none;stroke-opacity:1"
   d="m 317.91849,22.72 v 2" /><path
   inkscape:connector-curvature="0"
   id="path2378"
   style="fill:#000000;fill-opacity:1;fill-rule:nonzero;stroke:#000000;stroke-width:0.5;stroke-linecap:butt;stroke-linejoin:round;stroke-miterlimit:10;stroke-dasharray:none;stroke-opacity:1"
   d="m 317.91849,206.28 v -2" /><path
   inkscape:connector-curvature="0"
   id="path2380"
   style="fill:#000000;fill-opacity:1;fill-rule:nonzero;stroke:#000000;stroke-width:0.5;stroke-linecap:butt;stroke-linejoin:round;stroke-miterlimit:10;stroke-dasharray:none;stroke-opacity:1"
   d="m 325.96579,22.72 v 2" /><path
   inkscape:connector-curvature="0"
   id="path2382"
   style="fill:#000000;fill-opacity:1;fill-rule:nonzero;stroke:#000000;stroke-width:0.5;stroke-linecap:butt;stroke-linejoin:round;stroke-miterlimit:10;stroke-dasharray:none;stroke-opacity:1"
   d="m 325.96579,206.28 v -2" /><path
   inkscape:connector-curvature="0"
   id="path2384"
   style="fill:#000000;fill-opacity:1;fill-rule:nonzero;stroke:#000000;stroke-width:0.5;stroke-linecap:butt;stroke-linejoin:round;stroke-miterlimit:10;stroke-dasharray:none;stroke-opacity:1"
   d="m 334.01309,22.72 v 2" /><path
   inkscape:connector-curvature="0"
   id="path2386"
   style="fill:#000000;fill-opacity:1;fill-rule:nonzero;stroke:#000000;stroke-width:0.5;stroke-linecap:butt;stroke-linejoin:round;stroke-miterlimit:10;stroke-dasharray:none;stroke-opacity:1"
   d="m 334.01309,206.28 v -2" /><path
   inkscape:connector-curvature="0"
   id="path2388"
   style="fill:#000000;fill-opacity:1;fill-rule:nonzero;stroke:#000000;stroke-width:0.5;stroke-linecap:butt;stroke-linejoin:round;stroke-miterlimit:10;stroke-dasharray:none;stroke-opacity:1"
   d="m 342.06039,22.72 v 2" /><path
   inkscape:connector-curvature="0"
   id="path2390"
   style="fill:#000000;fill-opacity:1;fill-rule:nonzero;stroke:#000000;stroke-width:0.5;stroke-linecap:butt;stroke-linejoin:round;stroke-miterlimit:10;stroke-dasharray:none;stroke-opacity:1"
   d="m 342.06039,206.28 v -2" /><path
   inkscape:connector-curvature="0"
   id="path2392"
   style="fill:#000000;fill-opacity:1;fill-rule:nonzero;stroke:#000000;stroke-width:0.5;stroke-linecap:butt;stroke-linejoin:round;stroke-miterlimit:10;stroke-dasharray:none;stroke-opacity:1"
   d="m 350.1077,22.72 v 2" /><path
   inkscape:connector-curvature="0"
   id="path2394"
   style="fill:#000000;fill-opacity:1;fill-rule:nonzero;stroke:#000000;stroke-width:0.5;stroke-linecap:butt;stroke-linejoin:round;stroke-miterlimit:10;stroke-dasharray:none;stroke-opacity:1"
   d="m 350.1077,206.28 v -2" /><path
   inkscape:connector-curvature="0"
   id="path2396"
   style="fill:#000000;fill-opacity:1;fill-rule:nonzero;stroke:#000000;stroke-width:0.5;stroke-linecap:butt;stroke-linejoin:round;stroke-miterlimit:10;stroke-dasharray:none;stroke-opacity:1"
   d="m 358.155,22.72 v 2" /><path
   inkscape:connector-curvature="0"
   id="path2398"
   style="fill:#000000;fill-opacity:1;fill-rule:nonzero;stroke:#000000;stroke-width:0.5;stroke-linecap:butt;stroke-linejoin:round;stroke-miterlimit:10;stroke-dasharray:none;stroke-opacity:1"
   d="m 358.155,206.28 v -2" /><path
   inkscape:connector-curvature="0"
   id="path2400"
   style="fill:#000000;fill-opacity:1;fill-rule:nonzero;stroke:#000000;stroke-width:0.5;stroke-linecap:butt;stroke-linejoin:round;stroke-miterlimit:10;stroke-dasharray:none;stroke-opacity:1"
   d="m 52.3575,22.72 h 4" /><path
   inkscape:connector-curvature="0"
   id="path2402"
   style="fill:#000000;fill-opacity:1;fill-rule:nonzero;stroke:#000000;stroke-width:0.5;stroke-linecap:butt;stroke-linejoin:round;stroke-miterlimit:10;stroke-dasharray:none;stroke-opacity:1"
   d="m 358.155,22.72 h -4" /><g
   id="g2416"
   transform="translate(23.6075,20.235625)"><text
   id="text2406"
   style="font-variant:normal;font-weight:normal;line-height:0%;font-family:'DejaVu Sans';-inkscape-font-specification:'DejaVu Sans';writing-mode:lr-tb;fill:#000000;fill-opacity:1;fill-rule:nonzero;stroke:none"
   transform="matrix(1,0,0,-1,7.5410156,0)"><tspan
     id="tspan2404"
     sodipodi:role="line"
     y="0"
     x="0 5.724 11.448"
     style="font-size:9px;line-height:1.25">200</tspan></text>

<g
   id="g2414"
   transform="scale(0.009)"><g
     id="g2412"><g
       id="g2410"
       clip-path="url(#clipPath2144)"><path
         inkscape:connector-curvature="0"
         id="path2408"
         style="fill:#000000;fill-opacity:1;fill-rule:nonzero;stroke:none"
         d="M 106,355 H 732 V 272 H 106 v 83" /></g></g></g></g><path
   inkscape:connector-curvature="0"
   id="path2418"
   style="fill:#000000;fill-opacity:1;fill-rule:nonzero;stroke:#000000;stroke-width:0.5;stroke-linecap:butt;stroke-linejoin:round;stroke-miterlimit:10;stroke-dasharray:none;stroke-opacity:1"
   d="m 52.3575,60.961667 h 4" /><path
   inkscape:connector-curvature="0"
   id="path2420"
   style="fill:#000000;fill-opacity:1;fill-rule:nonzero;stroke:#000000;stroke-width:0.5;stroke-linecap:butt;stroke-linejoin:round;stroke-miterlimit:10;stroke-dasharray:none;stroke-opacity:1"
   d="m 358.155,60.961667 h -4" /><g
   id="g2434"
   transform="translate(23.6075,58.477292)"><text
   id="text2424"
   style="font-variant:normal;font-weight:normal;line-height:0%;font-family:'DejaVu Sans';-inkscape-font-specification:'DejaVu Sans';writing-mode:lr-tb;fill:#000000;fill-opacity:1;fill-rule:nonzero;stroke:none"
   transform="matrix(1,0,0,-1,7.5410156,0)"><tspan
     id="tspan2422"
     sodipodi:role="line"
     y="0"
     x="0 5.724 11.448"
     style="font-size:9px;line-height:1.25">150</tspan></text>

<g
   id="g2432"
   transform="scale(0.009)"><g
     id="g2430"><g
       id="g2428"
       clip-path="url(#clipPath2148)"><path
         inkscape:connector-curvature="0"
         id="path2426"
         style="fill:#000000;fill-opacity:1;fill-rule:nonzero;stroke:none"
         d="M 106,355 H 732 V 272 H 106 v 83" /></g></g></g></g><path
   inkscape:connector-curvature="0"
   id="path2436"
   style="fill:#000000;fill-opacity:1;fill-rule:nonzero;stroke:#000000;stroke-width:0.5;stroke-linecap:butt;stroke-linejoin:round;stroke-miterlimit:10;stroke-dasharray:none;stroke-opacity:1"
   d="m 52.3575,99.203333 h 4" /><path
   inkscape:connector-curvature="0"
   id="path2438"
   style="fill:#000000;fill-opacity:1;fill-rule:nonzero;stroke:#000000;stroke-width:0.5;stroke-linecap:butt;stroke-linejoin:round;stroke-miterlimit:10;stroke-dasharray:none;stroke-opacity:1"
   d="m 358.155,99.203333 h -4" /><g
   id="g2452"
   transform="translate(23.6075,96.718958)"><text
   id="text2442"
   style="font-variant:normal;font-weight:normal;line-height:0%;font-family:'DejaVu Sans';-inkscape-font-specification:'DejaVu Sans';writing-mode:lr-tb;fill:#000000;fill-opacity:1;fill-rule:nonzero;stroke:none"
   transform="matrix(1,0,0,-1,7.5410156,0)"><tspan
     id="tspan2440"
     sodipodi:role="line"
     y="0"
     x="0 5.724 11.448"
     style="font-size:9px;line-height:1.25">100</tspan></text>

<g
   id="g2450"
   transform="scale(0.009)"><g
     id="g2448"><g
       id="g2446"
       clip-path="url(#clipPath2152)"><path
         inkscape:connector-curvature="0"
         id="path2444"
         style="fill:#000000;fill-opacity:1;fill-rule:nonzero;stroke:none"
         d="M 106,355 H 732 V 272 H 106 v 83" /></g></g></g></g><path
   inkscape:connector-curvature="0"
   id="path2454"
   style="fill:#000000;fill-opacity:1;fill-rule:nonzero;stroke:#000000;stroke-width:0.5;stroke-linecap:butt;stroke-linejoin:round;stroke-miterlimit:10;stroke-dasharray:none;stroke-opacity:1"
   d="m 52.3575,137.445 h 4" /><path
   inkscape:connector-curvature="0"
   id="path2456"
   style="fill:#000000;fill-opacity:1;fill-rule:nonzero;stroke:#000000;stroke-width:0.5;stroke-linecap:butt;stroke-linejoin:round;stroke-miterlimit:10;stroke-dasharray:none;stroke-opacity:1"
   d="m 358.155,137.445 h -4" /><g
   id="g2470"
   transform="translate(29.341875,134.96062)"><text
   id="text2460"
   style="font-variant:normal;font-weight:normal;line-height:0%;font-family:'DejaVu Sans';-inkscape-font-specification:'DejaVu Sans';writing-mode:lr-tb;fill:#000000;fill-opacity:1;fill-rule:nonzero;stroke:none"
   transform="matrix(1,0,0,-1,7.5410156,0)"><tspan
     id="tspan2458"
     sodipodi:role="line"
     y="0"
     x="0 5.724"
     style="font-size:9px;line-height:1.25">50</tspan></text>

<g
   id="g2468"
   transform="scale(0.009)"><g
     id="g2466"><g
       id="g2464"
       clip-path="url(#clipPath2156)"><path
         inkscape:connector-curvature="0"
         id="path2462"
         style="fill:#000000;fill-opacity:1;fill-rule:nonzero;stroke:none"
         d="M 106,355 H 732 V 272 H 106 v 83" /></g></g></g></g><path
   inkscape:connector-curvature="0"
   id="path2472"
   style="fill:#000000;fill-opacity:1;fill-rule:nonzero;stroke:#000000;stroke-width:0.5;stroke-linecap:butt;stroke-linejoin:round;stroke-miterlimit:10;stroke-dasharray:none;stroke-opacity:1"
   d="m 52.3575,175.68667 h 4" /><path
   inkscape:connector-curvature="0"
   id="path2474"
   style="fill:#000000;fill-opacity:1;fill-rule:nonzero;stroke:#000000;stroke-width:0.5;stroke-linecap:butt;stroke-linejoin:round;stroke-miterlimit:10;stroke-dasharray:none;stroke-opacity:1"
   d="m 358.155,175.68667 h -4" /><text
   id="text2478"
   style="font-variant:normal;font-weight:normal;font-size:9px;line-height:0%;font-family:'DejaVu Sans';-inkscape-font-specification:'DejaVu Sans';writing-mode:lr-tb;fill:#000000;fill-opacity:1;fill-rule:nonzero;stroke:none"
   transform="matrix(1,0,0,-1,42.623125,173.20229)"><tspan
     id="tspan2476"
     y="0"
     x="0">0</tspan></text>

<text
   id="text2482"
   style="font-variant:normal;font-weight:normal;line-height:0%;font-family:'DejaVu Sans';-inkscape-font-specification:'DejaVu Sans';writing-mode:lr-tb;fill:#000000;fill-opacity:1;fill-rule:nonzero;stroke:none"
   transform="matrix(0,1,1,0,16.7325,89.039062)"><tspan
     id="tspan2480"
     sodipodi:role="line"
     y="0"
     x="0 5.7150002 11.043 19.809 23.058001 29.826 32.688 36.198002 41.903999 47.403"
     style="font-size:9px;line-height:1.25">Sym-H (nT)</tspan></text>

<g
   transform="translate(-1.5,-12)"
   id="g527"><path
   d="M 252.91125,54.831718 H 353.655 V 82.795 H 252.91125 Z"
   style="fill:#ffffff;fill-opacity:1;fill-rule:nonzero;stroke:#000000;stroke-width:0.7093398;stroke-linecap:butt;stroke-linejoin:miter;stroke-miterlimit:10;stroke-dasharray:none;stroke-opacity:1"
   id="path2488"
   inkscape:connector-curvature="0" /><path
   d="m 259.21125,75.50125 h 12.6"
   style="fill:none;stroke:#b0c4de;stroke-width:5;stroke-linecap:square;stroke-linejoin:round;stroke-miterlimit:10;stroke-dasharray:none;stroke-opacity:1"
   id="path2490"
   inkscape:connector-curvature="0" /><text
   transform="matrix(1,0,0,-1,281.71125,72.35125)"
   style="font-variant:normal;font-weight:normal;line-height:0%;font-family:'DejaVu Sans';-inkscape-font-specification:'DejaVu Sans';writing-mode:lr-tb;fill:#000000;fill-opacity:1;fill-rule:nonzero;stroke:none"
   id="text2494"><tspan
     x="0 7.0830002 12.798 17.487 23.021999 26.721001 32.049 37.566002 41.094002 43.596001 49.104 54.810001"
     y="0"
     sodipodi:role="line"
     id="tspan2492"
     style="font-size:9px;line-height:1.25">Observations</tspan></text>


<path
   d="m 259.21125,63.146388 h 12.6"
   style="fill:none;stroke:#ff0e00;stroke-width:1.5;stroke-linecap:square;stroke-linejoin:round;stroke-miterlimit:10;stroke-dasharray:none;stroke-opacity:1"
   id="path2502"
   inkscape:connector-curvature="0" /><text
   transform="scale(1,-1)"
   style="font-variant:normal;font-weight:normal;line-height:0%;font-family:'DejaVu Sans';-inkscape-font-specification:'DejaVu Sans';writing-mode:lr-tb;fill:#000000;fill-opacity:1;fill-rule:nonzero;stroke:none"
   id="text2506"
   x="281.71124"
   y="-59.996384"><tspan
     sodipodi:role="line"
     id="tspan2504"
     style="font-size:9px;line-height:1.25"
     x="281.71124"
     y="-59.996384">SWMF</tspan></text>

</g></g></g></g></g></g></svg>