<?xml version="1.0" encoding="UTF-8" standalone="no"?>
<!-- Created with Inkscape (http://www.inkscape.org/) -->

<svg
   xmlns:dc="http://purl.org/dc/elements/1.1/"
   xmlns:cc="http://creativecommons.org/ns#"
   xmlns:rdf="http://www.w3.org/1999/02/22-rdf-syntax-ns#"
   xmlns:svg="http://www.w3.org/2000/svg"
   xmlns="http://www.w3.org/2000/svg"
   xmlns:sodipodi="http://sodipodi.sourceforge.net/DTD/sodipodi-0.dtd"
   xmlns:inkscape="http://www.inkscape.org/namespaces/inkscape"
   id="svg2"
   version="1.1"
   inkscape:version="0.91 r13725"
   xml:space="preserve"
   width="405"
   height="315"
   viewBox="0 0 405 315"
   sodipodi:docname="kappa_kde.svg"><sodipodi:namedview
     pagecolor="#ffffff"
     bordercolor="#666666"
     borderopacity="1"
     objecttolerance="10"
     gridtolerance="10"
     guidetolerance="10"
     inkscape:pageopacity="0"
     inkscape:pageshadow="2"
     inkscape:window-width="1102"
     inkscape:window-height="671"
     id="namedview4"
     showgrid="false"
     inkscape:zoom="1.4716049"
     inkscape:cx="202.5"
     inkscape:cy="157.5"
     inkscape:window-x="0"
     inkscape:window-y="0"
     inkscape:window-maximized="0"
     inkscape:current-layer="g10" /><metadata
     id="metadata8"><rdf:RDF><cc:Work
         rdf:about=""><dc:format>image/svg+xml</dc:format><dc:type
           rdf:resource="http://purl.org/dc/dcmitype/StillImage" /><dc:title></dc:title></cc:Work></rdf:RDF></metadata><defs
     id="defs6"><clipPath
       id="clipPath20"
       clipPathUnits="userSpaceOnUse"><path
         inkscape:connector-curvature="0"
         id="path22"
         d="m 48.6,190.09846 268.92,0 0,56.86154 -268.92,0 0,-56.86154 z" /></clipPath><clipPath
       id="clipPath30"
       clipPathUnits="userSpaceOnUse"><path
         inkscape:connector-curvature="0"
         id="path32"
         d="m 48.6,190.09846 268.92,0 0,56.86154 -268.92,0 0,-56.86154 z" /></clipPath><clipPath
       id="clipPath40"
       clipPathUnits="userSpaceOnUse"><path
         inkscape:connector-curvature="0"
         id="path42"
         d="m 48.6,190.09846 268.92,0 0,56.86154 -268.92,0 0,-56.86154 z" /></clipPath><clipPath
       id="clipPath160"
       clipPathUnits="userSpaceOnUse"><path
         inkscape:connector-curvature="0"
         id="path162"
         d="m 48.6,107.64923 268.92,0 0,56.86154 -268.92,0 0,-56.86154 z" /></clipPath><clipPath
       id="clipPath170"
       clipPathUnits="userSpaceOnUse"><path
         inkscape:connector-curvature="0"
         id="path172"
         d="m 48.6,107.64923 268.92,0 0,56.86154 -268.92,0 0,-56.86154 z" /></clipPath><clipPath
       id="clipPath294"
       clipPathUnits="userSpaceOnUse"><path
         inkscape:connector-curvature="0"
         id="path296"
         d="m 48.6,25.2 268.92,0 0,56.861538 -268.92,0 L 48.6,25.2 Z" /></clipPath><clipPath
       id="clipPath304"
       clipPathUnits="userSpaceOnUse"><path
         inkscape:connector-curvature="0"
         id="path306"
         d="m 48.6,25.2 268.92,0 0,56.861538 -268.92,0 L 48.6,25.2 Z" /></clipPath></defs><g
     transform="matrix(1.25,0,0,-1.25,0,315)"
     inkscape:label="kappa_kde"
     inkscape:groupmode="layer"
     id="g10"><path
       inkscape:connector-curvature="0"
       id="path12"
       style="fill:#ffffff;fill-opacity:1;fill-rule:nonzero;stroke:none"
       d="M 0,0 324,0 324,252 0,252 0,0 Z" /><path
       inkscape:connector-curvature="0"
       id="path14"
       style="fill:#ffffff;fill-opacity:1;fill-rule:nonzero;stroke:none"
       d="m 48.6,190.09846 268.92,0 0,56.86154 -268.92,0 0,-56.86154 z" /><g
       id="g16"><g
         clip-path="url(#clipPath20)"
         id="g18"><path
           inkscape:connector-curvature="0"
           id="path24"
           style="fill:none;stroke:#000000;stroke-width:1;stroke-linecap:square;stroke-linejoin:round;stroke-miterlimit:10;stroke-dasharray:none;stroke-opacity:0.5"
           d="m 48.6,190.09846 0,56.86154" /></g></g><g
       id="g36"><g
         clip-path="url(#clipPath40)"
         id="g38"><path
           inkscape:connector-curvature="0"
           id="path44"
           style="fill:none;stroke:#ff7f0e;stroke-width:1;stroke-linecap:square;stroke-linejoin:round;stroke-miterlimit:10;stroke-dasharray:none;stroke-opacity:1"
           d="m 48.6,190.09846 51.89684,0.1035 6.73985,0.26634 4.7179,0.38655 4.71789,0.59826 4.7179,0.80983 4.71789,1.0081 4.71789,1.24004 3.36993,1.0851 3.36992,1.30202 3.36993,1.53829 4.04391,2.11167 8.08782,4.36976 2.69594,1.20555 2.69594,0.93892 2.02195,0.48569 2.02196,0.27213 2.02195,0.0437 2.02196,-0.18951 2.02195,-0.4156 2.02196,-0.62172 2.69594,-1.09064 4.04391,-1.95742 4.04391,-1.90088 2.69594,-0.97714 2.02195,-0.4844 2.02196,-0.22695 2.02195,0.0504 2.02196,0.3253 2.02195,0.5741 2.69594,1.06426 7.41384,3.23673 2.02195,0.55483 2.02196,0.27827 2.02195,-0.0366 2.02196,-0.36314 2.02195,-0.67477 2.02196,-0.94767 2.69593,-1.58708 4.7179,-3.1921 3.36992,-2.18812 2.69594,-1.50031 2.69594,-1.1975 2.02196,-0.6839 2.69594,-0.63835 2.69594,-0.36942 3.36992,-0.19024 13.4797,-0.36884 6.06587,-0.6221 7.41383,-0.74441 4.7179,-0.25667 4.71789,-0.0289 4.7179,0.20204 5.39188,0.47301 10.78376,1.04365 4.04391,0.0999 4.0439,-0.14972 4.7179,-0.42188 4.04391,-0.45204 0,0" /></g></g><g
       id="g46"><path
         inkscape:connector-curvature="0"
         id="path48"
         style="fill:none;stroke:#000000;stroke-width:1;stroke-linecap:square;stroke-linejoin:miter;stroke-miterlimit:10;stroke-dasharray:none;stroke-opacity:1"
         d="m 48.6,246.96 268.92,0" /><path
         inkscape:connector-curvature="0"
         id="path50"
         style="fill:none;stroke:#000000;stroke-width:1;stroke-linecap:square;stroke-linejoin:miter;stroke-miterlimit:10;stroke-dasharray:none;stroke-opacity:1"
         d="m 317.52,190.09846 0,56.86154" /><path
         inkscape:connector-curvature="0"
         id="path52"
         style="fill:none;stroke:#000000;stroke-width:1;stroke-linecap:square;stroke-linejoin:miter;stroke-miterlimit:10;stroke-dasharray:none;stroke-opacity:1"
         d="m 48.6,190.09846 268.92,0" /><path
         inkscape:connector-curvature="0"
         id="path54"
         style="fill:none;stroke:#000000;stroke-width:1;stroke-linecap:square;stroke-linejoin:miter;stroke-miterlimit:10;stroke-dasharray:none;stroke-opacity:1"
         d="m 48.6,190.09846 0,56.86154" /><path
         inkscape:connector-curvature="0"
         id="path56"
         style="fill:#000000;fill-opacity:1;fill-rule:nonzero;stroke:#000000;stroke-width:0.5;stroke-linecap:butt;stroke-linejoin:round;stroke-miterlimit:10;stroke-dasharray:none;stroke-opacity:1"
         d="m 48.6,190.09846 0,4" /><path
         inkscape:connector-curvature="0"
         id="path58"
         style="fill:#000000;fill-opacity:1;fill-rule:nonzero;stroke:#000000;stroke-width:0.5;stroke-linecap:butt;stroke-linejoin:round;stroke-miterlimit:10;stroke-dasharray:none;stroke-opacity:1"
         d="m 48.6,246.96 0,-4" /><text
         id="text60"
         style="font-size:9px;-inkscape-font-specification:DejaVu Sans;writing-mode:lr-tb;font-family:DejaVu Sans;fill-opacity:1;fill-rule:nonzero;stroke:none;font-variant:normal;font-weight:normal;fill:#000000"
         transform="matrix(1,0,0,-1,45.732813,179.25471)"><tspan
           id="tspan62"
           y="0"
           x="0">0</tspan></text>
<path
         inkscape:connector-curvature="0"
         id="path64"
         style="fill:#000000;fill-opacity:1;fill-rule:nonzero;stroke:#000000;stroke-width:0.5;stroke-linecap:butt;stroke-linejoin:round;stroke-miterlimit:10;stroke-dasharray:none;stroke-opacity:1"
         d="m 109.71818,190.09846 0,4" /><path
         inkscape:connector-curvature="0"
         id="path66"
         style="fill:#000000;fill-opacity:1;fill-rule:nonzero;stroke:#000000;stroke-width:0.5;stroke-linecap:butt;stroke-linejoin:round;stroke-miterlimit:10;stroke-dasharray:none;stroke-opacity:1"
         d="m 109.71818,246.96 0,-4" /><text
         id="text68"
         style="font-size:9px;-inkscape-font-specification:DejaVu Sans;writing-mode:lr-tb;font-family:DejaVu Sans;fill-opacity:1;fill-rule:nonzero;stroke:none;font-variant:normal;font-weight:normal;fill:#000000"
         transform="matrix(1,0,0,-1,103.98381,179.25471)"><tspan
           id="tspan70"
           sodipodi:role="line"
           y="0"
           x="0 5.724">10</tspan></text>
<path
         inkscape:connector-curvature="0"
         id="path72"
         style="fill:#000000;fill-opacity:1;fill-rule:nonzero;stroke:#000000;stroke-width:0.5;stroke-linecap:butt;stroke-linejoin:round;stroke-miterlimit:10;stroke-dasharray:none;stroke-opacity:1"
         d="m 170.83636,190.09846 0,4" /><path
         inkscape:connector-curvature="0"
         id="path74"
         style="fill:#000000;fill-opacity:1;fill-rule:nonzero;stroke:#000000;stroke-width:0.5;stroke-linecap:butt;stroke-linejoin:round;stroke-miterlimit:10;stroke-dasharray:none;stroke-opacity:1"
         d="m 170.83636,246.96 0,-4" /><text
         id="text76"
         style="font-size:9px;-inkscape-font-specification:DejaVu Sans;writing-mode:lr-tb;font-family:DejaVu Sans;fill-opacity:1;fill-rule:nonzero;stroke:none;font-variant:normal;font-weight:normal;fill:#000000"
         transform="matrix(1,0,0,-1,165.10199,179.25471)"><tspan
           id="tspan78"
           sodipodi:role="line"
           y="0"
           x="0 5.724">20</tspan></text>
<path
         inkscape:connector-curvature="0"
         id="path80"
         style="fill:#000000;fill-opacity:1;fill-rule:nonzero;stroke:#000000;stroke-width:0.5;stroke-linecap:butt;stroke-linejoin:round;stroke-miterlimit:10;stroke-dasharray:none;stroke-opacity:1"
         d="m 231.95454,190.09846 0,4" /><path
         inkscape:connector-curvature="0"
         id="path82"
         style="fill:#000000;fill-opacity:1;fill-rule:nonzero;stroke:#000000;stroke-width:0.5;stroke-linecap:butt;stroke-linejoin:round;stroke-miterlimit:10;stroke-dasharray:none;stroke-opacity:1"
         d="m 231.95454,246.96 0,-4" /><text
         id="text84"
         style="font-size:9px;-inkscape-font-specification:DejaVu Sans;writing-mode:lr-tb;font-family:DejaVu Sans;fill-opacity:1;fill-rule:nonzero;stroke:none;font-variant:normal;font-weight:normal;fill:#000000"
         transform="matrix(1,0,0,-1,226.22017,179.25471)"><tspan
           id="tspan86"
           sodipodi:role="line"
           y="0"
           x="0 5.724">30</tspan></text>
<path
         inkscape:connector-curvature="0"
         id="path88"
         style="fill:#000000;fill-opacity:1;fill-rule:nonzero;stroke:#000000;stroke-width:0.5;stroke-linecap:butt;stroke-linejoin:round;stroke-miterlimit:10;stroke-dasharray:none;stroke-opacity:1"
         d="m 293.07273,190.09846 0,4" /><path
         inkscape:connector-curvature="0"
         id="path90"
         style="fill:#000000;fill-opacity:1;fill-rule:nonzero;stroke:#000000;stroke-width:0.5;stroke-linecap:butt;stroke-linejoin:round;stroke-miterlimit:10;stroke-dasharray:none;stroke-opacity:1"
         d="m 293.07273,246.96 0,-4" /><text
         id="text92"
         style="font-size:9px;-inkscape-font-specification:DejaVu Sans;writing-mode:lr-tb;font-family:DejaVu Sans;fill-opacity:1;fill-rule:nonzero;stroke:none;font-variant:normal;font-weight:normal;fill:#000000"
         transform="matrix(1,0,0,-1,287.33835,179.25471)"><tspan
           id="tspan94"
           sodipodi:role="line"
           y="0"
           x="0 5.724">40</tspan></text>
<g
         transform="translate(180.06,170.53596)"
         id="g96"><text
           id="text98"
           style="font-size:9px;-inkscape-font-specification:DejaVu Sans;writing-mode:lr-tb;font-family:DejaVu Sans;fill-opacity:1;fill-rule:nonzero;stroke:none;font-variant:normal;font-weight:normal;fill:#000000"
           transform="matrix(1,0,0,-1,0,0.4375)"><tspan
             id="tspan100"
             y="0"
             x="0">K</tspan></text>
</g><path
         inkscape:connector-curvature="0"
         id="path102"
         style="fill:#000000;fill-opacity:1;fill-rule:nonzero;stroke:#000000;stroke-width:0.5;stroke-linecap:butt;stroke-linejoin:round;stroke-miterlimit:10;stroke-dasharray:none;stroke-opacity:1"
         d="m 48.6,190.09846 4,0" /><path
         inkscape:connector-curvature="0"
         id="path104"
         style="fill:#000000;fill-opacity:1;fill-rule:nonzero;stroke:#000000;stroke-width:0.5;stroke-linecap:butt;stroke-linejoin:round;stroke-miterlimit:10;stroke-dasharray:none;stroke-opacity:1"
         d="m 317.52,190.09846 -4,0" /><text
         id="text106"
         style="font-size:9px;-inkscape-font-specification:DejaVu Sans;writing-mode:lr-tb;font-family:DejaVu Sans;fill-opacity:1;fill-rule:nonzero;stroke:none;font-variant:normal;font-weight:normal;fill:#000000"
         transform="matrix(1,0,0,-1,24.5375,187.61409)"><tspan
           id="tspan108"
           sodipodi:role="line"
           y="0"
           x="0 5.724 8.5860004 14.31">0.00</tspan></text>
<path
         inkscape:connector-curvature="0"
         id="path110"
         style="fill:#000000;fill-opacity:1;fill-rule:nonzero;stroke:#000000;stroke-width:0.5;stroke-linecap:butt;stroke-linejoin:round;stroke-miterlimit:10;stroke-dasharray:none;stroke-opacity:1"
         d="m 48.6,204.31385 4,0" /><path
         inkscape:connector-curvature="0"
         id="path112"
         style="fill:#000000;fill-opacity:1;fill-rule:nonzero;stroke:#000000;stroke-width:0.5;stroke-linecap:butt;stroke-linejoin:round;stroke-miterlimit:10;stroke-dasharray:none;stroke-opacity:1"
         d="m 317.52,204.31385 -4,0" /><text
         id="text114"
         style="font-size:9px;-inkscape-font-specification:DejaVu Sans;writing-mode:lr-tb;font-family:DejaVu Sans;fill-opacity:1;fill-rule:nonzero;stroke:none;font-variant:normal;font-weight:normal;fill:#000000"
         transform="matrix(1,0,0,-1,24.5375,201.82947)"><tspan
           id="tspan116"
           sodipodi:role="line"
           y="0"
           x="0 5.724 8.5860004 14.31">0.06</tspan></text>
<path
         inkscape:connector-curvature="0"
         id="path118"
         style="fill:#000000;fill-opacity:1;fill-rule:nonzero;stroke:#000000;stroke-width:0.5;stroke-linecap:butt;stroke-linejoin:round;stroke-miterlimit:10;stroke-dasharray:none;stroke-opacity:1"
         d="m 48.6,218.52923 4,0" /><path
         inkscape:connector-curvature="0"
         id="path120"
         style="fill:#000000;fill-opacity:1;fill-rule:nonzero;stroke:#000000;stroke-width:0.5;stroke-linecap:butt;stroke-linejoin:round;stroke-miterlimit:10;stroke-dasharray:none;stroke-opacity:1"
         d="m 317.52,218.52923 -4,0" /><text
         id="text122"
         style="font-size:9px;-inkscape-font-specification:DejaVu Sans;writing-mode:lr-tb;font-family:DejaVu Sans;fill-opacity:1;fill-rule:nonzero;stroke:none;font-variant:normal;font-weight:normal;fill:#000000"
         transform="matrix(1,0,0,-1,24.5375,216.04486)"><tspan
           id="tspan124"
           sodipodi:role="line"
           y="0"
           x="0 5.724 8.5860004 14.31">0.12</tspan></text>
<path
         inkscape:connector-curvature="0"
         id="path126"
         style="fill:#000000;fill-opacity:1;fill-rule:nonzero;stroke:#000000;stroke-width:0.5;stroke-linecap:butt;stroke-linejoin:round;stroke-miterlimit:10;stroke-dasharray:none;stroke-opacity:1"
         d="m 48.6,232.74461 4,0" /><path
         inkscape:connector-curvature="0"
         id="path128"
         style="fill:#000000;fill-opacity:1;fill-rule:nonzero;stroke:#000000;stroke-width:0.5;stroke-linecap:butt;stroke-linejoin:round;stroke-miterlimit:10;stroke-dasharray:none;stroke-opacity:1"
         d="m 317.52,232.74461 -4,0" /><text
         id="text130"
         style="font-size:9px;-inkscape-font-specification:DejaVu Sans;writing-mode:lr-tb;font-family:DejaVu Sans;fill-opacity:1;fill-rule:nonzero;stroke:none;font-variant:normal;font-weight:normal;fill:#000000"
         transform="matrix(1,0,0,-1,24.5375,230.26024)"><tspan
           id="tspan132"
           sodipodi:role="line"
           y="0"
           x="0 5.724 8.5860004 14.31">0.18</tspan></text>
<path
         inkscape:connector-curvature="0"
         id="path134"
         style="fill:#000000;fill-opacity:1;fill-rule:nonzero;stroke:#000000;stroke-width:0.5;stroke-linecap:butt;stroke-linejoin:round;stroke-miterlimit:10;stroke-dasharray:none;stroke-opacity:1"
         d="m 48.6,246.96 4,0" /><path
         inkscape:connector-curvature="0"
         id="path136"
         style="fill:#000000;fill-opacity:1;fill-rule:nonzero;stroke:#000000;stroke-width:0.5;stroke-linecap:butt;stroke-linejoin:round;stroke-miterlimit:10;stroke-dasharray:none;stroke-opacity:1"
         d="m 317.52,246.96 -4,0" /><text
         id="text138"
         style="font-size:9px;-inkscape-font-specification:DejaVu Sans;writing-mode:lr-tb;font-family:DejaVu Sans;fill-opacity:1;fill-rule:nonzero;stroke:none;font-variant:normal;font-weight:normal;fill:#000000"
         transform="matrix(1,0,0,-1,24.5375,244.47562)"><tspan
           id="tspan140"
           sodipodi:role="line"
           y="0"
           x="0 5.724 8.5860004 14.31">0.24</tspan></text>
<text
         id="text142"
         style="font-size:9px;-inkscape-font-specification:DejaVu Sans;writing-mode:lr-tb;font-family:DejaVu Sans;fill-opacity:1;fill-rule:nonzero;stroke:none;font-variant:normal;font-weight:normal;fill:#000000"
         transform="matrix(0,1,1,0,7.575,194.56048)"><tspan
           id="tspan144"
           sodipodi:role="line"
           y="0"
           x="0 5.427 9.1260004 14.634 20.349001 25.865999 31.580999 34.083 36.584999 39.087002 42.615002">Probability</tspan></text>
<text
         id="text146"
         style="font-size:9px;-inkscape-font-specification:DejaVu Sans;writing-mode:lr-tb;font-family:DejaVu Sans;fill-opacity:1;fill-rule:nonzero;stroke:none;font-variant:normal;font-weight:normal;fill:#000000"
         transform="matrix(0,1,1,0,17.6625,202.02923)"><tspan
           id="tspan148"
           sodipodi:role="line"
           y="0"
           x="0 5.7150002 11.25 16.955999 21.645 24.146999 27.674999">density</tspan></text>
<path
         inkscape:connector-curvature="0"
         id="path154"
         style="fill:#ffffff;fill-opacity:1;fill-rule:nonzero;stroke:none"
         d="m 48.6,107.64923 268.92,0 0,56.86154 -268.92,0 0,-56.86154 z" /></g><g
       id="g166"><g
         clip-path="url(#clipPath170)"
         id="g168"><path
           inkscape:connector-curvature="0"
           id="path174"
           style="fill:none;stroke:#ff7f0e;stroke-width:1;stroke-linecap:square;stroke-linejoin:round;stroke-miterlimit:10;stroke-dasharray:none;stroke-opacity:1"
           d="m 48.6,107.64923 55.26677,0.11024 3.36992,0.25055 2.69594,0.44731 2.02196,0.55939 2.02195,0.80292 2.02196,1.07085 2.02195,1.32797 2.69594,2.06904 4.7179,3.6801 2.02195,1.24944 2.02195,0.90676 1.34797,0.40136 2.02196,0.32845 2.02195,0.0863 6.73985,0.0228 3.36993,0.36756 3.36992,0.39522 2.02196,0.0286 1.34797,-0.14357 1.34797,-0.30045 2.02195,-0.74504 2.02196,-1.01716 4.04391,-2.113 2.02195,-0.70269 1.34797,-0.25211 1.34797,-0.0712 1.34797,0.0964 2.02196,0.39618 6.73985,1.70052 1.34797,0.0477 1.34797,-0.13601 1.34797,-0.32857 1.34797,-0.51109 2.02195,-1.04603 3.36993,-2.13672 3.36992,-2.0872 2.69594,-1.37274 2.02196,-0.79445 2.02195,-0.56735 2.02196,-0.32824 2.02195,-0.0978 2.69594,0.15252 6.06587,0.53373 2.02195,-0.0557 2.69594,-0.31938 10.10977,-1.617 4.04391,-0.2128 6.73985,-0.0717 68.07249,-0.004 14.15368,0 0,0" /></g></g><g
       id="g176"><path
         inkscape:connector-curvature="0"
         id="path178"
         style="fill:none;stroke:#000000;stroke-width:1;stroke-linecap:square;stroke-linejoin:miter;stroke-miterlimit:10;stroke-dasharray:none;stroke-opacity:1"
         d="m 48.6,164.51077 268.92,0" /><path
         inkscape:connector-curvature="0"
         id="path180"
         style="fill:none;stroke:#000000;stroke-width:1;stroke-linecap:square;stroke-linejoin:miter;stroke-miterlimit:10;stroke-dasharray:none;stroke-opacity:1"
         d="m 317.52,107.64923 0,56.86154" /><path
         inkscape:connector-curvature="0"
         id="path182"
         style="fill:none;stroke:#000000;stroke-width:1;stroke-linecap:square;stroke-linejoin:miter;stroke-miterlimit:10;stroke-dasharray:none;stroke-opacity:1"
         d="m 48.6,107.64923 268.92,0" /><path
         inkscape:connector-curvature="0"
         id="path184"
         style="fill:none;stroke:#000000;stroke-width:1;stroke-linecap:square;stroke-linejoin:miter;stroke-miterlimit:10;stroke-dasharray:none;stroke-opacity:1"
         d="m 48.6,107.64923 0,56.86154" /><path
         inkscape:connector-curvature="0"
         id="path186"
         style="fill:#000000;fill-opacity:1;fill-rule:nonzero;stroke:#000000;stroke-width:0.5;stroke-linecap:butt;stroke-linejoin:round;stroke-miterlimit:10;stroke-dasharray:none;stroke-opacity:1"
         d="m 48.6,107.64923 0,4" /><path
         inkscape:connector-curvature="0"
         id="path188"
         style="fill:#000000;fill-opacity:1;fill-rule:nonzero;stroke:#000000;stroke-width:0.5;stroke-linecap:butt;stroke-linejoin:round;stroke-miterlimit:10;stroke-dasharray:none;stroke-opacity:1"
         d="m 48.6,164.51077 0,-4" /><text
         id="text190"
         style="font-size:9px;-inkscape-font-specification:DejaVu Sans;writing-mode:lr-tb;font-family:DejaVu Sans;fill-opacity:1;fill-rule:nonzero;stroke:none;font-variant:normal;font-weight:normal;fill:#000000"
         transform="matrix(1,0,0,-1,45.732813,96.805481)"><tspan
           id="tspan192"
           y="0"
           x="0">0</tspan></text>
<path
         inkscape:connector-curvature="0"
         id="path194"
         style="fill:#000000;fill-opacity:1;fill-rule:nonzero;stroke:#000000;stroke-width:0.5;stroke-linecap:butt;stroke-linejoin:round;stroke-miterlimit:10;stroke-dasharray:none;stroke-opacity:1"
         d="m 109.71818,107.64923 0,4" /><path
         inkscape:connector-curvature="0"
         id="path196"
         style="fill:#000000;fill-opacity:1;fill-rule:nonzero;stroke:#000000;stroke-width:0.5;stroke-linecap:butt;stroke-linejoin:round;stroke-miterlimit:10;stroke-dasharray:none;stroke-opacity:1"
         d="m 109.71818,164.51077 0,-4" /><text
         id="text198"
         style="font-size:9px;-inkscape-font-specification:DejaVu Sans;writing-mode:lr-tb;font-family:DejaVu Sans;fill-opacity:1;fill-rule:nonzero;stroke:none;font-variant:normal;font-weight:normal;fill:#000000"
         transform="matrix(1,0,0,-1,103.98381,96.805481)"><tspan
           id="tspan200"
           sodipodi:role="line"
           y="0"
           x="0 5.724">10</tspan></text>
<path
         inkscape:connector-curvature="0"
         id="path202"
         style="fill:#000000;fill-opacity:1;fill-rule:nonzero;stroke:#000000;stroke-width:0.5;stroke-linecap:butt;stroke-linejoin:round;stroke-miterlimit:10;stroke-dasharray:none;stroke-opacity:1"
         d="m 170.83636,107.64923 0,4" /><path
         inkscape:connector-curvature="0"
         id="path204"
         style="fill:#000000;fill-opacity:1;fill-rule:nonzero;stroke:#000000;stroke-width:0.5;stroke-linecap:butt;stroke-linejoin:round;stroke-miterlimit:10;stroke-dasharray:none;stroke-opacity:1"
         d="m 170.83636,164.51077 0,-4" /><text
         id="text206"
         style="font-size:9px;-inkscape-font-specification:DejaVu Sans;writing-mode:lr-tb;font-family:DejaVu Sans;fill-opacity:1;fill-rule:nonzero;stroke:none;font-variant:normal;font-weight:normal;fill:#000000"
         transform="matrix(1,0,0,-1,165.10199,96.805481)"><tspan
           id="tspan208"
           sodipodi:role="line"
           y="0"
           x="0 5.724">20</tspan></text>
<path
         inkscape:connector-curvature="0"
         id="path210"
         style="fill:#000000;fill-opacity:1;fill-rule:nonzero;stroke:#000000;stroke-width:0.5;stroke-linecap:butt;stroke-linejoin:round;stroke-miterlimit:10;stroke-dasharray:none;stroke-opacity:1"
         d="m 231.95454,107.64923 0,4" /><path
         inkscape:connector-curvature="0"
         id="path212"
         style="fill:#000000;fill-opacity:1;fill-rule:nonzero;stroke:#000000;stroke-width:0.5;stroke-linecap:butt;stroke-linejoin:round;stroke-miterlimit:10;stroke-dasharray:none;stroke-opacity:1"
         d="m 231.95454,164.51077 0,-4" /><text
         id="text214"
         style="font-size:9px;-inkscape-font-specification:DejaVu Sans;writing-mode:lr-tb;font-family:DejaVu Sans;fill-opacity:1;fill-rule:nonzero;stroke:none;font-variant:normal;font-weight:normal;fill:#000000"
         transform="matrix(1,0,0,-1,226.22017,96.805481)"><tspan
           id="tspan216"
           sodipodi:role="line"
           y="0"
           x="0 5.724">30</tspan></text>
<path
         inkscape:connector-curvature="0"
         id="path218"
         style="fill:#000000;fill-opacity:1;fill-rule:nonzero;stroke:#000000;stroke-width:0.5;stroke-linecap:butt;stroke-linejoin:round;stroke-miterlimit:10;stroke-dasharray:none;stroke-opacity:1"
         d="m 293.07273,107.64923 0,4" /><path
         inkscape:connector-curvature="0"
         id="path220"
         style="fill:#000000;fill-opacity:1;fill-rule:nonzero;stroke:#000000;stroke-width:0.5;stroke-linecap:butt;stroke-linejoin:round;stroke-miterlimit:10;stroke-dasharray:none;stroke-opacity:1"
         d="m 293.07273,164.51077 0,-4" /><text
         id="text222"
         style="font-size:9px;-inkscape-font-specification:DejaVu Sans;writing-mode:lr-tb;font-family:DejaVu Sans;fill-opacity:1;fill-rule:nonzero;stroke:none;font-variant:normal;font-weight:normal;fill:#000000"
         transform="matrix(1,0,0,-1,287.33835,96.805481)"><tspan
           id="tspan224"
           sodipodi:role="line"
           y="0"
           x="0 5.724">40</tspan></text>
<g
         transform="translate(176.56,87.805481)"
         id="g226"><text
           id="text228"
           style="font-size:9px;-inkscape-font-specification:DejaVu Sans;writing-mode:lr-tb;font-family:DejaVu Sans;fill-opacity:1;fill-rule:nonzero;stroke:none;font-variant:normal;font-weight:normal;fill:#000000"
           transform="matrix(1,0,0,-1,0,0.06625)"><tspan
             id="tspan230"
             y="0"
             x="0">K</tspan></text>
<text
           id="text232"
           style="font-size:6.30000019px;-inkscape-font-specification:DejaVu Sans;writing-mode:lr-tb;font-family:DejaVu Sans;fill-opacity:1;fill-rule:nonzero;stroke:none;font-variant:normal;font-weight:normal;fill:#000000"
           transform="matrix(1,0,0,-1,7.625373,4.31875)"><tspan
             id="tspan234"
             y="0"
             x="0">*</tspan></text>
</g><path
         inkscape:connector-curvature="0"
         id="path236"
         style="fill:#000000;fill-opacity:1;fill-rule:nonzero;stroke:#000000;stroke-width:0.5;stroke-linecap:butt;stroke-linejoin:round;stroke-miterlimit:10;stroke-dasharray:none;stroke-opacity:1"
         d="m 48.6,107.64923 4,0" /><path
         inkscape:connector-curvature="0"
         id="path238"
         style="fill:#000000;fill-opacity:1;fill-rule:nonzero;stroke:#000000;stroke-width:0.5;stroke-linecap:butt;stroke-linejoin:round;stroke-miterlimit:10;stroke-dasharray:none;stroke-opacity:1"
         d="m 317.52,107.64923 -4,0" /><text
         id="text240"
         style="font-size:9px;-inkscape-font-specification:DejaVu Sans;writing-mode:lr-tb;font-family:DejaVu Sans;fill-opacity:1;fill-rule:nonzero;stroke:none;font-variant:normal;font-weight:normal;fill:#000000"
         transform="matrix(1,0,0,-1,30.271875,105.16486)"><tspan
           id="tspan242"
           sodipodi:role="line"
           y="0"
           x="0 5.724 8.5860004">0.0</tspan></text>
<path
         inkscape:connector-curvature="0"
         id="path244"
         style="fill:#000000;fill-opacity:1;fill-rule:nonzero;stroke:#000000;stroke-width:0.5;stroke-linecap:butt;stroke-linejoin:round;stroke-miterlimit:10;stroke-dasharray:none;stroke-opacity:1"
         d="m 48.6,121.86462 4,0" /><path
         inkscape:connector-curvature="0"
         id="path246"
         style="fill:#000000;fill-opacity:1;fill-rule:nonzero;stroke:#000000;stroke-width:0.5;stroke-linecap:butt;stroke-linejoin:round;stroke-miterlimit:10;stroke-dasharray:none;stroke-opacity:1"
         d="m 317.52,121.86462 -4,0" /><text
         id="text248"
         style="font-size:9px;-inkscape-font-specification:DejaVu Sans;writing-mode:lr-tb;font-family:DejaVu Sans;fill-opacity:1;fill-rule:nonzero;stroke:none;font-variant:normal;font-weight:normal;fill:#000000"
         transform="matrix(1,0,0,-1,30.271875,119.38024)"><tspan
           id="tspan250"
           sodipodi:role="line"
           y="0"
           x="0 5.724 8.5860004">0.1</tspan></text>
<path
         inkscape:connector-curvature="0"
         id="path252"
         style="fill:#000000;fill-opacity:1;fill-rule:nonzero;stroke:#000000;stroke-width:0.5;stroke-linecap:butt;stroke-linejoin:round;stroke-miterlimit:10;stroke-dasharray:none;stroke-opacity:1"
         d="m 48.6,136.08 4,0" /><path
         inkscape:connector-curvature="0"
         id="path254"
         style="fill:#000000;fill-opacity:1;fill-rule:nonzero;stroke:#000000;stroke-width:0.5;stroke-linecap:butt;stroke-linejoin:round;stroke-miterlimit:10;stroke-dasharray:none;stroke-opacity:1"
         d="m 317.52,136.08 -4,0" /><text
         id="text256"
         style="font-size:9px;-inkscape-font-specification:DejaVu Sans;writing-mode:lr-tb;font-family:DejaVu Sans;fill-opacity:1;fill-rule:nonzero;stroke:none;font-variant:normal;font-weight:normal;fill:#000000"
         transform="matrix(1,0,0,-1,30.271875,133.59562)"><tspan
           id="tspan258"
           sodipodi:role="line"
           y="0"
           x="0 5.724 8.5860004">0.2</tspan></text>
<path
         inkscape:connector-curvature="0"
         id="path260"
         style="fill:#000000;fill-opacity:1;fill-rule:nonzero;stroke:#000000;stroke-width:0.5;stroke-linecap:butt;stroke-linejoin:round;stroke-miterlimit:10;stroke-dasharray:none;stroke-opacity:1"
         d="m 48.6,150.29538 4,0" /><path
         inkscape:connector-curvature="0"
         id="path262"
         style="fill:#000000;fill-opacity:1;fill-rule:nonzero;stroke:#000000;stroke-width:0.5;stroke-linecap:butt;stroke-linejoin:round;stroke-miterlimit:10;stroke-dasharray:none;stroke-opacity:1"
         d="m 317.52,150.29538 -4,0" /><text
         id="text264"
         style="font-size:9px;-inkscape-font-specification:DejaVu Sans;writing-mode:lr-tb;font-family:DejaVu Sans;fill-opacity:1;fill-rule:nonzero;stroke:none;font-variant:normal;font-weight:normal;fill:#000000"
         transform="matrix(1,0,0,-1,30.271875,147.81101)"><tspan
           id="tspan266"
           sodipodi:role="line"
           y="0"
           x="0 5.724 8.5860004">0.3</tspan></text>
<path
         inkscape:connector-curvature="0"
         id="path268"
         style="fill:#000000;fill-opacity:1;fill-rule:nonzero;stroke:#000000;stroke-width:0.5;stroke-linecap:butt;stroke-linejoin:round;stroke-miterlimit:10;stroke-dasharray:none;stroke-opacity:1"
         d="m 48.6,164.51077 4,0" /><path
         inkscape:connector-curvature="0"
         id="path270"
         style="fill:#000000;fill-opacity:1;fill-rule:nonzero;stroke:#000000;stroke-width:0.5;stroke-linecap:butt;stroke-linejoin:round;stroke-miterlimit:10;stroke-dasharray:none;stroke-opacity:1"
         d="m 317.52,164.51077 -4,0" /><text
         id="text272"
         style="font-size:9px;-inkscape-font-specification:DejaVu Sans;writing-mode:lr-tb;font-family:DejaVu Sans;fill-opacity:1;fill-rule:nonzero;stroke:none;font-variant:normal;font-weight:normal;fill:#000000"
         transform="matrix(1,0,0,-1,30.271875,162.02639)"><tspan
           id="tspan274"
           sodipodi:role="line"
           y="0"
           x="0 5.724 8.5860004">0.4</tspan></text>
<text
         id="text276"
         style="font-size:9px;-inkscape-font-specification:DejaVu Sans;writing-mode:lr-tb;font-family:DejaVu Sans;fill-opacity:1;fill-rule:nonzero;stroke:none;font-variant:normal;font-weight:normal;fill:#000000"
         transform="matrix(0,1,1,0,13.309375,112.11125)"><tspan
           id="tspan278"
           sodipodi:role="line"
           y="0"
           x="0 5.427 9.1260004 14.634 20.349001 25.865999 31.580999 34.083 36.584999 39.087002 42.615002">Probability</tspan></text>
<text
         id="text280"
         style="font-size:9px;-inkscape-font-specification:DejaVu Sans;writing-mode:lr-tb;font-family:DejaVu Sans;fill-opacity:1;fill-rule:nonzero;stroke:none;font-variant:normal;font-weight:normal;fill:#000000"
         transform="matrix(0,1,1,0,23.396875,119.58)"><tspan
           id="tspan282"
           sodipodi:role="line"
           y="0"
           x="0 5.7150002 11.25 16.955999 21.645 24.146999 27.674999">density</tspan></text>
<path
         inkscape:connector-curvature="0"
         id="path288"
         style="fill:#ffffff;fill-opacity:1;fill-rule:nonzero;stroke:none"
         d="m 48.6,25.2 268.92,0 0,56.861538 -268.92,0 L 48.6,25.2 Z" /></g><g
       id="g300"><g
         clip-path="url(#clipPath304)"
         id="g302"><path
           inkscape:connector-curvature="0"
           id="path308"
           style="fill:none;stroke:#ff7f0e;stroke-width:1;stroke-linecap:square;stroke-linejoin:round;stroke-miterlimit:10;stroke-dasharray:none;stroke-opacity:1"
           d="m 48.6,25.2 15.501654,0.08287 2.021955,0.210432 1.34797,0.320135 1.34797,0.568413 1.34797,0.920038 1.34797,1.359067 1.34797,1.836761 1.34797,2.282034 2.021954,4.031947 3.369925,7.413526 2.69594,6.432532 2.021955,5.605925 2.021955,6.494378 2.69594,8.966051 1.34797,3.672014 0.673985,1.432999 0.673985,1.112386 0.673985,0.773789 0.673985,0.435911 0.673984,0.116709 0.673985,-0.168343 0.673985,-0.407456 1.34797,-1.314894 2.69594,-3.097049 1.347968,-1.066674 0.67399,-0.311146 0.67398,-0.146727 0.67399,0.01812 0.67398,0.173617 1.34797,0.728824 3.36993,2.323608 0.67398,0.200636 0.67399,0.01645 0.67398,-0.200584 0.67399,-0.445007 0.67398,-0.711042 0.67399,-0.99242 0.67398,-1.281914 1.34797,-3.419187 1.34797,-4.418784 4.04391,-14.631469 0.67399,-1.824559 0.67398,-1.485033 0.67399,-1.130461 0.67398,-0.789069 0.67399,-0.487887 0.67398,-0.249646 1.34797,-0.106782 1.34797,-0.135941 0.67399,-0.245833 0.67398,-0.413108 0.67399,-0.585929 1.34796,-1.597386 2.69594,-3.524355 1.34797,-1.191526 1.34797,-0.673612 3.36993,-1.071264 1.34797,-0.917034 1.34797,-1.316039 4.04391,-4.481405 1.34797,-1.05137 1.34797,-0.722909 1.34797,-0.44637 2.02195,-0.322834 2.69594,-0.123363 9.43579,-0.02277 154.34256,-2e-6 0,0" /></g></g><g
       id="g310"><path
         inkscape:connector-curvature="0"
         id="path312"
         style="fill:none;stroke:#000000;stroke-width:1;stroke-linecap:square;stroke-linejoin:miter;stroke-miterlimit:10;stroke-dasharray:none;stroke-opacity:1"
         d="m 48.6,82.061538 268.92,0" /><path
         inkscape:connector-curvature="0"
         id="path314"
         style="fill:none;stroke:#000000;stroke-width:1;stroke-linecap:square;stroke-linejoin:miter;stroke-miterlimit:10;stroke-dasharray:none;stroke-opacity:1"
         d="m 317.52,25.2 0,56.861538" /><path
         inkscape:connector-curvature="0"
         id="path316"
         style="fill:none;stroke:#000000;stroke-width:1;stroke-linecap:square;stroke-linejoin:miter;stroke-miterlimit:10;stroke-dasharray:none;stroke-opacity:1"
         d="m 48.6,25.2 268.92,0" /><path
         inkscape:connector-curvature="0"
         id="path318"
         style="fill:none;stroke:#000000;stroke-width:1;stroke-linecap:square;stroke-linejoin:miter;stroke-miterlimit:10;stroke-dasharray:none;stroke-opacity:1"
         d="m 48.6,25.2 0,56.861538" /><path
         inkscape:connector-curvature="0"
         id="path320"
         style="fill:#000000;fill-opacity:1;fill-rule:nonzero;stroke:#000000;stroke-width:0.5;stroke-linecap:butt;stroke-linejoin:round;stroke-miterlimit:10;stroke-dasharray:none;stroke-opacity:1"
         d="m 48.6,25.2 0,4" /><path
         inkscape:connector-curvature="0"
         id="path322"
         style="fill:#000000;fill-opacity:1;fill-rule:nonzero;stroke:#000000;stroke-width:0.5;stroke-linecap:butt;stroke-linejoin:round;stroke-miterlimit:10;stroke-dasharray:none;stroke-opacity:1"
         d="m 48.6,82.061538 0,-4" /><text
         id="text324"
         style="font-size:9px;-inkscape-font-specification:DejaVu Sans;writing-mode:lr-tb;font-family:DejaVu Sans;fill-opacity:1;fill-rule:nonzero;stroke:none;font-variant:normal;font-weight:normal;fill:#000000"
         transform="matrix(1,0,0,-1,45.732813,14.35625)"><tspan
           id="tspan326"
           y="0"
           x="0">0</tspan></text>
<path
         inkscape:connector-curvature="0"
         id="path328"
         style="fill:#000000;fill-opacity:1;fill-rule:nonzero;stroke:#000000;stroke-width:0.5;stroke-linecap:butt;stroke-linejoin:round;stroke-miterlimit:10;stroke-dasharray:none;stroke-opacity:1"
         d="m 109.71818,25.2 0,4" /><path
         inkscape:connector-curvature="0"
         id="path330"
         style="fill:#000000;fill-opacity:1;fill-rule:nonzero;stroke:#000000;stroke-width:0.5;stroke-linecap:butt;stroke-linejoin:round;stroke-miterlimit:10;stroke-dasharray:none;stroke-opacity:1"
         d="m 109.71818,82.061538 0,-4" /><text
         id="text332"
         style="font-size:9px;-inkscape-font-specification:DejaVu Sans;writing-mode:lr-tb;font-family:DejaVu Sans;fill-opacity:1;fill-rule:nonzero;stroke:none;font-variant:normal;font-weight:normal;fill:#000000"
         transform="matrix(1,0,0,-1,103.98381,14.35625)"><tspan
           id="tspan334"
           sodipodi:role="line"
           y="0"
           x="0 5.724">10</tspan></text>
<path
         inkscape:connector-curvature="0"
         id="path336"
         style="fill:#000000;fill-opacity:1;fill-rule:nonzero;stroke:#000000;stroke-width:0.5;stroke-linecap:butt;stroke-linejoin:round;stroke-miterlimit:10;stroke-dasharray:none;stroke-opacity:1"
         d="m 170.83636,25.2 0,4" /><path
         inkscape:connector-curvature="0"
         id="path338"
         style="fill:#000000;fill-opacity:1;fill-rule:nonzero;stroke:#000000;stroke-width:0.5;stroke-linecap:butt;stroke-linejoin:round;stroke-miterlimit:10;stroke-dasharray:none;stroke-opacity:1"
         d="m 170.83636,82.061538 0,-4" /><text
         id="text340"
         style="font-size:9px;-inkscape-font-specification:DejaVu Sans;writing-mode:lr-tb;font-family:DejaVu Sans;fill-opacity:1;fill-rule:nonzero;stroke:none;font-variant:normal;font-weight:normal;fill:#000000"
         transform="matrix(1,0,0,-1,165.10199,14.35625)"><tspan
           id="tspan342"
           sodipodi:role="line"
           y="0"
           x="0 5.724">20</tspan></text>
<path
         inkscape:connector-curvature="0"
         id="path344"
         style="fill:#000000;fill-opacity:1;fill-rule:nonzero;stroke:#000000;stroke-width:0.5;stroke-linecap:butt;stroke-linejoin:round;stroke-miterlimit:10;stroke-dasharray:none;stroke-opacity:1"
         d="m 231.95454,25.2 0,4" /><path
         inkscape:connector-curvature="0"
         id="path346"
         style="fill:#000000;fill-opacity:1;fill-rule:nonzero;stroke:#000000;stroke-width:0.5;stroke-linecap:butt;stroke-linejoin:round;stroke-miterlimit:10;stroke-dasharray:none;stroke-opacity:1"
         d="m 231.95454,82.061538 0,-4" /><text
         id="text348"
         style="font-size:9px;-inkscape-font-specification:DejaVu Sans;writing-mode:lr-tb;font-family:DejaVu Sans;fill-opacity:1;fill-rule:nonzero;stroke:none;font-variant:normal;font-weight:normal;fill:#000000"
         transform="matrix(1,0,0,-1,226.22017,14.35625)"><tspan
           id="tspan350"
           sodipodi:role="line"
           y="0"
           x="0 5.724">30</tspan></text>
<path
         inkscape:connector-curvature="0"
         id="path352"
         style="fill:#000000;fill-opacity:1;fill-rule:nonzero;stroke:#000000;stroke-width:0.5;stroke-linecap:butt;stroke-linejoin:round;stroke-miterlimit:10;stroke-dasharray:none;stroke-opacity:1"
         d="m 293.07273,25.2 0,4" /><path
         inkscape:connector-curvature="0"
         id="path354"
         style="fill:#000000;fill-opacity:1;fill-rule:nonzero;stroke:#000000;stroke-width:0.5;stroke-linecap:butt;stroke-linejoin:round;stroke-miterlimit:10;stroke-dasharray:none;stroke-opacity:1"
         d="m 293.07273,82.061538 0,-4" /><text
         id="text356"
         style="font-size:9px;-inkscape-font-specification:DejaVu Sans;writing-mode:lr-tb;font-family:DejaVu Sans;fill-opacity:1;fill-rule:nonzero;stroke:none;font-variant:normal;font-weight:normal;fill:#000000"
         transform="matrix(1,0,0,-1,287.33835,14.35625)"><tspan
           id="tspan358"
           sodipodi:role="line"
           y="0"
           x="0 5.724">40</tspan></text>
<g
         transform="translate(175.06,5.35625)"
         id="g360"><text
           id="text362"
           style="font-size:9px;-inkscape-font-specification:DejaVu Sans;writing-mode:lr-tb;font-family:DejaVu Sans;fill-opacity:1;fill-rule:nonzero;stroke:none;font-variant:normal;font-weight:normal;fill:#000000"
           transform="matrix(1,0,0,-1,0,0.06625)"><tspan
             id="tspan364"
             y="0"
             x="0">K</tspan></text>
<text
           id="text366"
           style="font-size:6.30000019px;-inkscape-font-specification:DejaVu Sans;writing-mode:lr-tb;font-family:DejaVu Sans;fill-opacity:1;fill-rule:nonzero;stroke:none;font-variant:normal;font-weight:normal;fill:#000000"
           transform="matrix(1,0,0,-1,6.3979805,4.31875)"><tspan
             id="tspan368"
             sodipodi:role="line"
             y="0"
             x="0 4.3773928">**</tspan></text>
</g><path
         inkscape:connector-curvature="0"
         id="path370"
         style="fill:#000000;fill-opacity:1;fill-rule:nonzero;stroke:#000000;stroke-width:0.5;stroke-linecap:butt;stroke-linejoin:round;stroke-miterlimit:10;stroke-dasharray:none;stroke-opacity:1"
         d="m 48.6,25.2 4,0" /><path
         inkscape:connector-curvature="0"
         id="path372"
         style="fill:#000000;fill-opacity:1;fill-rule:nonzero;stroke:#000000;stroke-width:0.5;stroke-linecap:butt;stroke-linejoin:round;stroke-miterlimit:10;stroke-dasharray:none;stroke-opacity:1"
         d="m 317.52,25.2 -4,0" /><text
         id="text374"
         style="font-size:9px;-inkscape-font-specification:DejaVu Sans;writing-mode:lr-tb;font-family:DejaVu Sans;fill-opacity:1;fill-rule:nonzero;stroke:none;font-variant:normal;font-weight:normal;fill:#000000"
         transform="matrix(1,0,0,-1,24.5375,22.715625)"><tspan
           id="tspan376"
           sodipodi:role="line"
           y="0"
           x="0 5.724 8.5860004 14.31">0.00</tspan></text>
<path
         inkscape:connector-curvature="0"
         id="path378"
         style="fill:#000000;fill-opacity:1;fill-rule:nonzero;stroke:#000000;stroke-width:0.5;stroke-linecap:butt;stroke-linejoin:round;stroke-miterlimit:10;stroke-dasharray:none;stroke-opacity:1"
         d="m 48.6,39.415385 4,0" /><path
         inkscape:connector-curvature="0"
         id="path380"
         style="fill:#000000;fill-opacity:1;fill-rule:nonzero;stroke:#000000;stroke-width:0.5;stroke-linecap:butt;stroke-linejoin:round;stroke-miterlimit:10;stroke-dasharray:none;stroke-opacity:1"
         d="m 317.52,39.415385 -4,0" /><text
         id="text382"
         style="font-size:9px;-inkscape-font-specification:DejaVu Sans;writing-mode:lr-tb;font-family:DejaVu Sans;fill-opacity:1;fill-rule:nonzero;stroke:none;font-variant:normal;font-weight:normal;fill:#000000"
         transform="matrix(1,0,0,-1,24.5375,36.93101)"><tspan
           id="tspan384"
           sodipodi:role="line"
           y="0"
           x="0 5.724 8.5860004 14.31">0.04</tspan></text>
<path
         inkscape:connector-curvature="0"
         id="path386"
         style="fill:#000000;fill-opacity:1;fill-rule:nonzero;stroke:#000000;stroke-width:0.5;stroke-linecap:butt;stroke-linejoin:round;stroke-miterlimit:10;stroke-dasharray:none;stroke-opacity:1"
         d="m 48.6,53.630769 4,0" /><path
         inkscape:connector-curvature="0"
         id="path388"
         style="fill:#000000;fill-opacity:1;fill-rule:nonzero;stroke:#000000;stroke-width:0.5;stroke-linecap:butt;stroke-linejoin:round;stroke-miterlimit:10;stroke-dasharray:none;stroke-opacity:1"
         d="m 317.52,53.630769 -4,0" /><text
         id="text390"
         style="font-size:9px;-inkscape-font-specification:DejaVu Sans;writing-mode:lr-tb;font-family:DejaVu Sans;fill-opacity:1;fill-rule:nonzero;stroke:none;font-variant:normal;font-weight:normal;fill:#000000"
         transform="matrix(1,0,0,-1,24.5375,51.146394)"><tspan
           id="tspan392"
           sodipodi:role="line"
           y="0"
           x="0 5.724 8.5860004 14.31">0.08</tspan></text>
<path
         inkscape:connector-curvature="0"
         id="path394"
         style="fill:#000000;fill-opacity:1;fill-rule:nonzero;stroke:#000000;stroke-width:0.5;stroke-linecap:butt;stroke-linejoin:round;stroke-miterlimit:10;stroke-dasharray:none;stroke-opacity:1"
         d="m 48.6,67.846154 4,0" /><path
         inkscape:connector-curvature="0"
         id="path396"
         style="fill:#000000;fill-opacity:1;fill-rule:nonzero;stroke:#000000;stroke-width:0.5;stroke-linecap:butt;stroke-linejoin:round;stroke-miterlimit:10;stroke-dasharray:none;stroke-opacity:1"
         d="m 317.52,67.846154 -4,0" /><text
         id="text398"
         style="font-size:9px;-inkscape-font-specification:DejaVu Sans;writing-mode:lr-tb;font-family:DejaVu Sans;fill-opacity:1;fill-rule:nonzero;stroke:none;font-variant:normal;font-weight:normal;fill:#000000"
         transform="matrix(1,0,0,-1,24.5375,65.361779)"><tspan
           id="tspan400"
           sodipodi:role="line"
           y="0"
           x="0 5.724 8.5860004 14.31">0.12</tspan></text>
<path
         inkscape:connector-curvature="0"
         id="path402"
         style="fill:#000000;fill-opacity:1;fill-rule:nonzero;stroke:#000000;stroke-width:0.5;stroke-linecap:butt;stroke-linejoin:round;stroke-miterlimit:10;stroke-dasharray:none;stroke-opacity:1"
         d="m 48.6,82.061538 4,0" /><path
         inkscape:connector-curvature="0"
         id="path404"
         style="fill:#000000;fill-opacity:1;fill-rule:nonzero;stroke:#000000;stroke-width:0.5;stroke-linecap:butt;stroke-linejoin:round;stroke-miterlimit:10;stroke-dasharray:none;stroke-opacity:1"
         d="m 317.52,82.061538 -4,0" /><text
         id="text406"
         style="font-size:9px;-inkscape-font-specification:DejaVu Sans;writing-mode:lr-tb;font-family:DejaVu Sans;fill-opacity:1;fill-rule:nonzero;stroke:none;font-variant:normal;font-weight:normal;fill:#000000"
         transform="matrix(1,0,0,-1,24.5375,79.577163)"><tspan
           id="tspan408"
           sodipodi:role="line"
           y="0"
           x="0 5.724 8.5860004 14.31">0.16</tspan></text>
<text
         id="text410"
         style="font-size:9px;-inkscape-font-specification:DejaVu Sans;writing-mode:lr-tb;font-family:DejaVu Sans;fill-opacity:1;fill-rule:nonzero;stroke:none;font-variant:normal;font-weight:normal;fill:#000000"
         transform="matrix(0,1,1,0,7.575,29.662019)"><tspan
           id="tspan412"
           sodipodi:role="line"
           y="0"
           x="0 5.427 9.1260004 14.634 20.349001 25.865999 31.580999 34.083 36.584999 39.087002 42.615002">Probability</tspan></text>
<text
         id="text414"
         style="font-size:9px;-inkscape-font-specification:DejaVu Sans;writing-mode:lr-tb;font-family:DejaVu Sans;fill-opacity:1;fill-rule:nonzero;stroke:none;font-variant:normal;font-weight:normal;fill:#000000"
         transform="matrix(0,1,1,0,17.6625,37.130769)"><tspan
           id="tspan416"
           sodipodi:role="line"
           y="0"
           x="0 5.7150002 11.25 16.955999 21.645 24.146999 27.674999">density</tspan></text>
</g></g></svg>