<?xml version="1.0" encoding="UTF-8" standalone="no"?>
<!-- Created with Inkscape (http://www.inkscape.org/) -->

<svg
   xmlns:dc="http://purl.org/dc/elements/1.1/"
   xmlns:cc="http://creativecommons.org/ns#"
   xmlns:rdf="http://www.w3.org/1999/02/22-rdf-syntax-ns#"
   xmlns:svg="http://www.w3.org/2000/svg"
   xmlns="http://www.w3.org/2000/svg"
   xmlns:sodipodi="http://sodipodi.sourceforge.net/DTD/sodipodi-0.dtd"
   xmlns:inkscape="http://www.inkscape.org/namespaces/inkscape"
   id="svg2"
   version="1.1"
   inkscape:version="0.91 r13725"
   xml:space="preserve"
   width="315"
   height="315"
   viewBox="0 0 315 315"
   sodipodi:docname="kappa_dbz_fit.svg"><sodipodi:namedview
     pagecolor="#ffffff"
     bordercolor="#666666"
     borderopacity="1"
     objecttolerance="10"
     gridtolerance="10"
     guidetolerance="10"
     inkscape:pageopacity="0"
     inkscape:pageshadow="2"
     inkscape:window-width="640"
     inkscape:window-height="480"
     id="namedview4"
     showgrid="false"
     inkscape:zoom="0.74920635"
     inkscape:cx="157.5"
     inkscape:cy="157.5"
     inkscape:window-x="0"
     inkscape:window-y="0"
     inkscape:window-maximized="0"
     inkscape:current-layer="g10" /><metadata
     id="metadata8"><rdf:RDF><cc:Work
         rdf:about=""><dc:format>image/svg+xml</dc:format><dc:type
           rdf:resource="http://purl.org/dc/dcmitype/StillImage" /><dc:title /></cc:Work></rdf:RDF></metadata><defs
     id="defs6"><clipPath
       id="clipPath20"
       clipPathUnits="userSpaceOnUse"><path
         inkscape:connector-curvature="0"
         id="path22"
         d="m 37.665,41.116 200.6325,0 0,198.194 -200.6325,0 0,-198.194 z" /></clipPath><clipPath
       id="clipPath30"
       clipPathUnits="userSpaceOnUse"><path
         inkscape:connector-curvature="0"
         id="path32"
         d="m 37.665,41.116 200.6325,0 0,198.194 -200.6325,0 0,-198.194 z" /></clipPath><clipPath
       id="clipPath40"
       clipPathUnits="userSpaceOnUse"><path
         inkscape:connector-curvature="0"
         id="path42"
         d="m -3.5,-3.5 7,0 0,7 -7,0 0,-7 z" /></clipPath><clipPath
       id="clipPath52"
       clipPathUnits="userSpaceOnUse"><path
         inkscape:connector-curvature="0"
         id="path54"
         d="m -3.5,-3.5 7,0 0,7 -7,0 0,-7 z" /></clipPath><clipPath
       id="clipPath64"
       clipPathUnits="userSpaceOnUse"><path
         inkscape:connector-curvature="0"
         id="path66"
         d="m -3.5,-3.5 7,0 0,7 -7,0 0,-7 z" /></clipPath><clipPath
       id="clipPath76"
       clipPathUnits="userSpaceOnUse"><path
         inkscape:connector-curvature="0"
         id="path78"
         d="m -3.5,-3.5 7,0 0,7 -7,0 0,-7 z" /></clipPath><clipPath
       id="clipPath88"
       clipPathUnits="userSpaceOnUse"><path
         inkscape:connector-curvature="0"
         id="path90"
         d="m -3.5,-3.5 7,0 0,7 -7,0 0,-7 z" /></clipPath><clipPath
       id="clipPath100"
       clipPathUnits="userSpaceOnUse"><path
         inkscape:connector-curvature="0"
         id="path102"
         d="m -3.5,-3.5 7,0 0,7 -7,0 0,-7 z" /></clipPath><clipPath
       id="clipPath112"
       clipPathUnits="userSpaceOnUse"><path
         inkscape:connector-curvature="0"
         id="path114"
         d="m -3.5,-3.5 7,0 0,7 -7,0 0,-7 z" /></clipPath><clipPath
       id="clipPath122"
       clipPathUnits="userSpaceOnUse"><path
         inkscape:connector-curvature="0"
         id="path124"
         d="m 37.665,41.116 200.6325,0 0,198.194 -200.6325,0 0,-198.194 z" /></clipPath><clipPath
       id="clipPath132"
       clipPathUnits="userSpaceOnUse"><path
         inkscape:connector-curvature="0"
         id="path134"
         d="m -3.5,-3.5 7,0 0,7 -7,0 0,-7 z" /></clipPath><clipPath
       id="clipPath144"
       clipPathUnits="userSpaceOnUse"><path
         inkscape:connector-curvature="0"
         id="path146"
         d="m -3.5,-3.5 7,0 0,7 -7,0 0,-7 z" /></clipPath><clipPath
       id="clipPath156"
       clipPathUnits="userSpaceOnUse"><path
         inkscape:connector-curvature="0"
         id="path158"
         d="m -3.5,-3.5 7,0 0,7 -7,0 0,-7 z" /></clipPath><clipPath
       id="clipPath168"
       clipPathUnits="userSpaceOnUse"><path
         inkscape:connector-curvature="0"
         id="path170"
         d="m -3.5,-3.5 7,0 0,7 -7,0 0,-7 z" /></clipPath><clipPath
       id="clipPath180"
       clipPathUnits="userSpaceOnUse"><path
         inkscape:connector-curvature="0"
         id="path182"
         d="m -3.5,-3.5 7,0 0,7 -7,0 0,-7 z" /></clipPath><clipPath
       id="clipPath192"
       clipPathUnits="userSpaceOnUse"><path
         inkscape:connector-curvature="0"
         id="path194"
         d="m -3.5,-3.5 7,0 0,7 -7,0 0,-7 z" /></clipPath><clipPath
       id="clipPath204"
       clipPathUnits="userSpaceOnUse"><path
         inkscape:connector-curvature="0"
         id="path206"
         d="m -3.5,-3.5 7,0 0,7 -7,0 0,-7 z" /></clipPath><clipPath
       id="clipPath214"
       clipPathUnits="userSpaceOnUse"><path
         inkscape:connector-curvature="0"
         id="path216"
         d="m 37.665,41.116 200.6325,0 0,198.194 -200.6325,0 0,-198.194 z" /></clipPath><clipPath
       id="clipPath224"
       clipPathUnits="userSpaceOnUse"><path
         inkscape:connector-curvature="0"
         id="path226"
         d="m -3.5,-3.5 7,0 0,7 -7,0 0,-7 z" /></clipPath><clipPath
       id="clipPath236"
       clipPathUnits="userSpaceOnUse"><path
         inkscape:connector-curvature="0"
         id="path238"
         d="m -3.5,-3.5 7,0 0,7 -7,0 0,-7 z" /></clipPath><clipPath
       id="clipPath248"
       clipPathUnits="userSpaceOnUse"><path
         inkscape:connector-curvature="0"
         id="path250"
         d="m -3.5,-3.5 7,0 0,7 -7,0 0,-7 z" /></clipPath><clipPath
       id="clipPath260"
       clipPathUnits="userSpaceOnUse"><path
         inkscape:connector-curvature="0"
         id="path262"
         d="m -3.5,-3.5 7,0 0,7 -7,0 0,-7 z" /></clipPath><clipPath
       id="clipPath272"
       clipPathUnits="userSpaceOnUse"><path
         inkscape:connector-curvature="0"
         id="path274"
         d="m -3.5,-3.5 7,0 0,7 -7,0 0,-7 z" /></clipPath><clipPath
       id="clipPath284"
       clipPathUnits="userSpaceOnUse"><path
         inkscape:connector-curvature="0"
         id="path286"
         d="m -3.5,-3.5 7,0 0,7 -7,0 0,-7 z" /></clipPath><clipPath
       id="clipPath296"
       clipPathUnits="userSpaceOnUse"><path
         inkscape:connector-curvature="0"
         id="path298"
         d="m -3.5,-3.5 7,0 0,7 -7,0 0,-7 z" /></clipPath><clipPath
       id="clipPath308"
       clipPathUnits="userSpaceOnUse"><path
         inkscape:connector-curvature="0"
         id="path310"
         d="m -3.5,-3.5 7,0 0,7 -7,0 0,-7 z" /></clipPath><clipPath
       id="clipPath318"
       clipPathUnits="userSpaceOnUse"><path
         inkscape:connector-curvature="0"
         id="path320"
         d="m 37.665,41.116 200.6325,0 0,198.194 -200.6325,0 0,-198.194 z" /></clipPath><clipPath
       id="clipPath350"
       clipPathUnits="userSpaceOnUse"><path
         inkscape:connector-curvature="0"
         id="path352"
         d="m -184,-236 1472,0 0,1165 -1472,0 0,-1165 z" /></clipPath><clipPath
       id="clipPath450"
       clipPathUnits="userSpaceOnUse"><path
         inkscape:connector-curvature="0"
         id="path452"
         d="m -970,-443 2970,0 0,1466 -2970,0 0,-1466 z" /></clipPath></defs><g
     transform="matrix(1.25,0,0,-1.25,0,315)"
     inkscape:label="kappa_dbz_fit"
     inkscape:groupmode="layer"
     id="g10"><path
       inkscape:connector-curvature="0"
       id="path12"
       style="fill:#ffffff;fill-opacity:1;fill-rule:nonzero;stroke:none"
       d="M 0,0 252,0 252,252 0,252 0,0 Z" /><path
       inkscape:connector-curvature="0"
       id="path14"
       style="fill:#ffffff;fill-opacity:1;fill-rule:nonzero;stroke:none"
       d="m 37.665,41.116 200.6325,0 0,198.194 -200.6325,0 0,-198.194 z" /><g
       id="g16"><g
         clip-path="url(#clipPath20)"
         id="g18"><path
           inkscape:connector-curvature="0"
           id="path24"
           style="fill:none;stroke:#000000;stroke-width:1;stroke-linecap:square;stroke-linejoin:round;stroke-miterlimit:10;stroke-dasharray:none;stroke-opacity:0.5"
           d="m 71.10375,41.116 0,198.194" /></g></g><g
       id="g26"><g
         clip-path="url(#clipPath30)"
         id="g28"><g
           transform="translate(184.17195,159.41525)"
           id="g34"><g
             id="g36"><g
               clip-path="url(#clipPath40)"
               id="g38"><path
                 inkscape:connector-curvature="0"
                 id="path44"
                 style="fill:none;stroke:#1f77b4;stroke-width:1;stroke-linecap:butt;stroke-linejoin:round;stroke-miterlimit:10;stroke-dasharray:none;stroke-opacity:1"
                 d="m 0,-3 c 0.795609,0 1.55874,0.316099 2.12132,0.87868 C 2.683901,-1.55874 3,-0.795609 3,0 3,0.795609 2.683901,1.55874 2.12132,2.12132 1.55874,2.683901 0.795609,3 0,3 -0.795609,3 -1.55874,2.683901 -2.12132,2.12132 -2.683901,1.55874 -3,0.795609 -3,0 -3,-0.795609 -2.683901,-1.55874 -2.12132,-2.12132 -1.55874,-2.683901 -0.795609,-3 0,-3 Z" /></g></g><g
             transform="translate(-67.496069,-5.4912011)"
             id="g46"><g
               id="g48"><g
                 clip-path="url(#clipPath52)"
                 id="g50"><path
                   inkscape:connector-curvature="0"
                   id="path56"
                   style="fill:none;stroke:#1f77b4;stroke-width:1;stroke-linecap:butt;stroke-linejoin:round;stroke-miterlimit:10;stroke-dasharray:none;stroke-opacity:1"
                   d="m 0,-3 c 0.795609,0 1.55874,0.316099 2.12132,0.87868 C 2.683901,-1.55874 3,-0.795609 3,0 3,0.795609 2.683901,1.55874 2.12132,2.12132 1.55874,2.683901 0.795609,3 0,3 -0.795609,3 -1.55874,2.683901 -2.12132,2.12132 -2.683901,1.55874 -3,0.795609 -3,0 -3,-0.795609 -2.683901,-1.55874 -2.12132,-2.12132 -1.55874,-2.683901 -0.795609,-3 0,-3 Z" /></g></g><g
               transform="translate(-16.603564,-47.021482)"
               id="g58"><g
                 id="g60"><g
                   clip-path="url(#clipPath64)"
                   id="g62"><path
                     inkscape:connector-curvature="0"
                     id="path68"
                     style="fill:none;stroke:#1f77b4;stroke-width:1;stroke-linecap:butt;stroke-linejoin:round;stroke-miterlimit:10;stroke-dasharray:none;stroke-opacity:1"
                     d="m 0,-3 c 0.795609,0 1.55874,0.316099 2.12132,0.87868 C 2.683901,-1.55874 3,-0.795609 3,0 3,0.795609 2.683901,1.55874 2.12132,2.12132 1.55874,2.683901 0.795609,3 0,3 -0.795609,3 -1.55874,2.683901 -2.12132,2.12132 -2.683901,1.55874 -3,0.795609 -3,0 -3,-0.795609 -2.683901,-1.55874 -2.12132,-2.12132 -1.55874,-2.683901 -0.795609,-3 0,-3 Z" /></g></g><g
                 transform="translate(-27.089927,-30.593863)"
                 id="g70"><g
                   id="g72"><g
                     clip-path="url(#clipPath76)"
                     id="g74"><path
                       inkscape:connector-curvature="0"
                       id="path80"
                       style="fill:none;stroke:#1f77b4;stroke-width:1;stroke-linecap:butt;stroke-linejoin:round;stroke-miterlimit:10;stroke-dasharray:none;stroke-opacity:1"
                       d="m 0,-3 c 0.795609,0 1.55874,0.316099 2.12132,0.87868 C 2.683901,-1.55874 3,-0.795609 3,0 3,0.795609 2.683901,1.55874 2.12132,2.12132 1.55874,2.683901 0.795609,3 0,3 -0.795609,3 -1.55874,2.683901 -2.12132,2.12132 -2.683901,1.55874 -3,0.795609 -3,0 -3,-0.795609 -2.683901,-1.55874 -2.12132,-2.12132 -1.55874,-2.683901 -0.795609,-3 0,-3 Z" /></g></g><g
                   transform="translate(37.901282,46.648278)"
                   id="g82"><g
                     id="g84"><g
                       clip-path="url(#clipPath88)"
                       id="g86"><path
                         inkscape:connector-curvature="0"
                         id="path92"
                         style="fill:none;stroke:#1f77b4;stroke-width:1;stroke-linecap:butt;stroke-linejoin:round;stroke-miterlimit:10;stroke-dasharray:none;stroke-opacity:1"
                         d="m 0,-3 c 0.795609,0 1.55874,0.316099 2.12132,0.87868 C 2.683901,-1.55874 3,-0.795609 3,0 3,0.795609 2.683901,1.55874 2.12132,2.12132 1.55874,2.683901 0.795609,3 0,3 -0.795609,3 -1.55874,2.683901 -2.12132,2.12132 -2.683901,1.55874 -3,0.795609 -3,0 -3,-0.795609 -2.683901,-1.55874 -2.12132,-2.12132 -1.55874,-2.683901 -0.795609,-3 0,-3 Z" /></g></g><g
                     transform="translate(18.926107,39.351254)"
                     id="g94"><g
                       id="g96"><g
                         clip-path="url(#clipPath100)"
                         id="g98"><path
                           inkscape:connector-curvature="0"
                           id="path104"
                           style="fill:none;stroke:#1f77b4;stroke-width:1;stroke-linecap:butt;stroke-linejoin:round;stroke-miterlimit:10;stroke-dasharray:none;stroke-opacity:1"
                           d="m 0,-3 c 0.795609,0 1.55874,0.316099 2.12132,0.87868 C 2.683901,-1.55874 3,-0.795609 3,0 3,0.795609 2.683901,1.55874 2.12132,2.12132 1.55874,2.683901 0.795609,3 0,3 -0.795609,3 -1.55874,2.683901 -2.12132,2.12132 -2.683901,1.55874 -3,0.795609 -3,0 -3,-0.795609 -2.683901,-1.55874 -2.12132,-2.12132 -1.55874,-2.683901 -0.795609,-3 0,-3 Z" /></g></g><g
                       transform="translate(-6.9487118,-27.573886)"
                       id="g106"><g
                         id="g108"><g
                           clip-path="url(#clipPath112)"
                           id="g110"><path
                             inkscape:connector-curvature="0"
                             id="path116"
                             style="fill:none;stroke:#1f77b4;stroke-width:1;stroke-linecap:butt;stroke-linejoin:round;stroke-miterlimit:10;stroke-dasharray:none;stroke-opacity:1"
                             d="m 0,-3 c 0.795609,0 1.55874,0.316099 2.12132,0.87868 C 2.683901,-1.55874 3,-0.795609 3,0 3,0.795609 2.683901,1.55874 2.12132,2.12132 1.55874,2.683901 0.795609,3 0,3 -0.795609,3 -1.55874,2.683901 -2.12132,2.12132 -2.683901,1.55874 -3,0.795609 -3,0 -3,-0.795609 -2.683901,-1.55874 -2.12132,-2.12132 -1.55874,-2.683901 -0.795609,-3 0,-3 Z" /></g></g></g></g></g></g></g></g></g></g></g><g
       id="g118"><g
         clip-path="url(#clipPath122)"
         id="g120"><g
           transform="translate(126.68989,108.31456)"
           id="g126"><g
             id="g128"><g
               clip-path="url(#clipPath132)"
               id="g130"><path
                 inkscape:connector-curvature="0"
                 id="path136"
                 style="fill:none;stroke:#ff7f0e;stroke-width:1;stroke-linecap:butt;stroke-linejoin:miter;stroke-miterlimit:10;stroke-dasharray:none;stroke-opacity:1"
                 d="m -3,-3 6,0 0,6 -6,0 0,-6 z" /></g></g><g
             transform="translate(10.700448,47.112863)"
             id="g138"><g
               id="g140"><g
                 clip-path="url(#clipPath144)"
                 id="g142"><path
                   inkscape:connector-curvature="0"
                   id="path148"
                   style="fill:none;stroke:#ff7f0e;stroke-width:1;stroke-linecap:butt;stroke-linejoin:miter;stroke-miterlimit:10;stroke-dasharray:none;stroke-opacity:1"
                   d="m -3,-3 6,0 0,6 -6,0 0,-6 z" /></g></g><g
               transform="translate(84.293369,-20.216194)"
               id="g150"><g
                 id="g152"><g
                   clip-path="url(#clipPath156)"
                   id="g154"><path
                     inkscape:connector-curvature="0"
                     id="path160"
                     style="fill:none;stroke:#ff7f0e;stroke-width:1;stroke-linecap:butt;stroke-linejoin:miter;stroke-miterlimit:10;stroke-dasharray:none;stroke-opacity:1"
                     d="m -3,-3 6,0 0,6 -6,0 0,-6 z" /></g></g><g
                 transform="translate(-49.008434,-15.798331)"
                 id="g162"><g
                   id="g164"><g
                     clip-path="url(#clipPath168)"
                     id="g166"><path
                       inkscape:connector-curvature="0"
                       id="path172"
                       style="fill:none;stroke:#ff7f0e;stroke-width:1;stroke-linecap:butt;stroke-linejoin:miter;stroke-miterlimit:10;stroke-dasharray:none;stroke-opacity:1"
                       d="m -3,-3 6,0 0,6 -6,0 0,-6 z" /></g></g><g
                   transform="translate(-2.8908768,4.1422867)"
                   id="g174"><g
                     id="g176"><g
                       clip-path="url(#clipPath180)"
                       id="g178"><path
                         inkscape:connector-curvature="0"
                         id="path184"
                         style="fill:none;stroke:#ff7f0e;stroke-width:1;stroke-linecap:butt;stroke-linejoin:miter;stroke-miterlimit:10;stroke-dasharray:none;stroke-opacity:1"
                         d="m -3,-3 6,0 0,6 -6,0 0,-6 z" /></g></g><g
                     transform="translate(-25.433331,35.014082)"
                     id="g186"><g
                       id="g188"><g
                         clip-path="url(#clipPath192)"
                         id="g190"><path
                           inkscape:connector-curvature="0"
                           id="path196"
                           style="fill:none;stroke:#ff7f0e;stroke-width:1;stroke-linecap:butt;stroke-linejoin:miter;stroke-miterlimit:10;stroke-dasharray:none;stroke-opacity:1"
                           d="m -3,-3 6,0 0,6 -6,0 0,-6 z" /></g></g><g
                       transform="translate(36.676034,30.428989)"
                       id="g198"><g
                         id="g200"><g
                           clip-path="url(#clipPath204)"
                           id="g202"><path
                             inkscape:connector-curvature="0"
                             id="path208"
                             style="fill:none;stroke:#ff7f0e;stroke-width:1;stroke-linecap:butt;stroke-linejoin:miter;stroke-miterlimit:10;stroke-dasharray:none;stroke-opacity:1"
                             d="m -3,-3 6,0 0,6 -6,0 0,-6 z" /></g></g></g></g></g></g></g></g></g></g></g><g
       id="g210"><g
         clip-path="url(#clipPath214)"
         id="g212"><g
           transform="translate(196.42914,168.97409)"
           id="g218"><g
             id="g220"><g
               clip-path="url(#clipPath224)"
               id="g222"><path
                 inkscape:connector-curvature="0"
                 id="path228"
                 style="fill:none;stroke:#2ca02c;stroke-width:1;stroke-linecap:butt;stroke-linejoin:miter;stroke-miterlimit:10;stroke-dasharray:none;stroke-opacity:1"
                 d="M 0,3 -3,-3 3,-3 0,3 Z" /></g></g><g
             transform="translate(-67.139595,-44.237615)"
             id="g230"><g
               id="g232"><g
                 clip-path="url(#clipPath236)"
                 id="g234"><path
                   inkscape:connector-curvature="0"
                   id="path240"
                   style="fill:none;stroke:#2ca02c;stroke-width:1;stroke-linecap:butt;stroke-linejoin:miter;stroke-miterlimit:10;stroke-dasharray:none;stroke-opacity:1"
                   d="M 0,3 -3,-3 3,-3 0,3 Z" /></g></g><g
               transform="translate(-0.87334346,-3.8810499)"
               id="g242"><g
                 id="g244"><g
                   clip-path="url(#clipPath248)"
                   id="g246"><path
                     inkscape:connector-curvature="0"
                     id="path252"
                     style="fill:none;stroke:#2ca02c;stroke-width:1;stroke-linecap:butt;stroke-linejoin:miter;stroke-miterlimit:10;stroke-dasharray:none;stroke-opacity:1"
                     d="M 0,3 -3,-3 3,-3 0,3 Z" /></g></g><g
                 transform="translate(-28.018182,-23.049883)"
                 id="g254"><g
                   id="g256"><g
                     clip-path="url(#clipPath260)"
                     id="g258"><path
                       inkscape:connector-curvature="0"
                       id="path264"
                       style="fill:none;stroke:#2ca02c;stroke-width:1;stroke-linecap:butt;stroke-linejoin:miter;stroke-miterlimit:10;stroke-dasharray:none;stroke-opacity:1"
                       d="M 0,3 -3,-3 3,-3 0,3 Z" /></g></g><g
                   transform="translate(-33.885483,10.409438)"
                   id="g266"><g
                     id="g268"><g
                       clip-path="url(#clipPath272)"
                       id="g270"><path
                         inkscape:connector-curvature="0"
                         id="path276"
                         style="fill:none;stroke:#2ca02c;stroke-width:1;stroke-linecap:butt;stroke-linejoin:miter;stroke-miterlimit:10;stroke-dasharray:none;stroke-opacity:1"
                         d="M 0,3 -3,-3 3,-3 0,3 Z" /></g></g><g
                     transform="translate(46.022356,55.74663)"
                     id="g278"><g
                       id="g280"><g
                         clip-path="url(#clipPath284)"
                         id="g282"><path
                           inkscape:connector-curvature="0"
                           id="path288"
                           style="fill:none;stroke:#2ca02c;stroke-width:1;stroke-linecap:butt;stroke-linejoin:miter;stroke-miterlimit:10;stroke-dasharray:none;stroke-opacity:1"
                           d="M 0,3 -3,-3 3,-3 0,3 Z" /></g></g><g
                       transform="translate(16.499897,-2.1611525)"
                       id="g290"><g
                         id="g292"><g
                           clip-path="url(#clipPath296)"
                           id="g294"><path
                             inkscape:connector-curvature="0"
                             id="path300"
                             style="fill:none;stroke:#2ca02c;stroke-width:1;stroke-linecap:butt;stroke-linejoin:miter;stroke-miterlimit:10;stroke-dasharray:none;stroke-opacity:1"
                             d="M 0,3 -3,-3 3,-3 0,3 Z" /></g></g><g
                         transform="translate(59.623008,55.561208)"
                         id="g302"><g
                           id="g304"><g
                             clip-path="url(#clipPath308)"
                             id="g306"><path
                               inkscape:connector-curvature="0"
                               id="path312"
                               style="fill:none;stroke:#2ca02c;stroke-width:1;stroke-linecap:butt;stroke-linejoin:miter;stroke-miterlimit:10;stroke-dasharray:none;stroke-opacity:1"
                               d="M 0,3 -3,-3 3,-3 0,3 Z" /></g></g></g></g></g></g></g></g></g></g></g></g><g
       id="g314"><g
         clip-path="url(#clipPath318)"
         id="g316"><path
           inkscape:connector-curvature="0"
           id="path322"
           style="fill:none;stroke:#000000;stroke-width:1;stroke-linecap:square;stroke-linejoin:round;stroke-miterlimit:10;stroke-dasharray:none;stroke-opacity:1"
           d="m 66.512532,94.92269 6.469854,4.766264 27.089924,19.956826 0.32571,0.23994 10.48565,7.72466 1.65122,1.21643 4.14099,3.05062 6.18518,4.55655 5.55514,4.0924 0.61858,0.45571 0.25476,0.18768 0.52023,0.38325 54.36218,40.04796 4.48584,3.30467 7.77134,5.72506" /></g></g><g
       id="g324"><path
         inkscape:connector-curvature="0"
         id="path326"
         style="fill:none;stroke:#000000;stroke-width:1;stroke-linecap:square;stroke-linejoin:miter;stroke-miterlimit:10;stroke-dasharray:none;stroke-opacity:1"
         d="m 37.665,239.31 200.6325,0" /><path
         inkscape:connector-curvature="0"
         id="path328"
         style="fill:none;stroke:#000000;stroke-width:1;stroke-linecap:square;stroke-linejoin:miter;stroke-miterlimit:10;stroke-dasharray:none;stroke-opacity:1"
         d="m 238.2975,41.116 0,198.194" /><path
         inkscape:connector-curvature="0"
         id="path330"
         style="fill:none;stroke:#000000;stroke-width:1;stroke-linecap:square;stroke-linejoin:miter;stroke-miterlimit:10;stroke-dasharray:none;stroke-opacity:1"
         d="m 37.665,41.116 200.6325,0" /><path
         inkscape:connector-curvature="0"
         id="path332"
         style="fill:none;stroke:#000000;stroke-width:1;stroke-linecap:square;stroke-linejoin:miter;stroke-miterlimit:10;stroke-dasharray:none;stroke-opacity:1"
         d="m 37.665,41.116 0,198.194" /><path
         inkscape:connector-curvature="0"
         id="path334"
         style="fill:#000000;fill-opacity:1;fill-rule:nonzero;stroke:#000000;stroke-width:0.5;stroke-linecap:butt;stroke-linejoin:round;stroke-miterlimit:10;stroke-dasharray:none;stroke-opacity:1"
         d="m 37.665,41.116 0,4" /><path
         inkscape:connector-curvature="0"
         id="path336"
         style="fill:#000000;fill-opacity:1;fill-rule:nonzero;stroke:#000000;stroke-width:0.5;stroke-linecap:butt;stroke-linejoin:round;stroke-miterlimit:10;stroke-dasharray:none;stroke-opacity:1"
         d="m 37.665,239.31 0,-4" /><g
         transform="translate(31.766562,31.037875)"
         id="g338"><text
           id="text340"
           style="font-size:8px;-inkscape-font-specification:DejaVu Sans;writing-mode:lr-tb;font-family:DejaVu Sans;fill-opacity:1;fill-rule:nonzero;stroke:none;font-variant:normal;font-weight:normal;fill:#000000"
           transform="matrix(1,0,0,-1,6.703125,0)"><tspan
             id="tspan342"
             y="0"
             x="0">2</tspan></text>
<g
           transform="scale(0.008,0.008)"
           id="g344"><g
             id="g346"><g
               clip-path="url(#clipPath350)"
               id="g348"><path
                 inkscape:connector-curvature="0"
                 id="path354"
                 style="fill:#000000;fill-opacity:1;fill-rule:nonzero;stroke:none"
                 d="m 106,355 626,0 0,-83 -626,0 0,83" /></g></g></g></g><path
         inkscape:connector-curvature="0"
         id="path356"
         style="fill:#000000;fill-opacity:1;fill-rule:nonzero;stroke:#000000;stroke-width:0.5;stroke-linecap:butt;stroke-linejoin:round;stroke-miterlimit:10;stroke-dasharray:none;stroke-opacity:1"
         d="m 71.10375,41.116 0,4" /><path
         inkscape:connector-curvature="0"
         id="path358"
         style="fill:#000000;fill-opacity:1;fill-rule:nonzero;stroke:#000000;stroke-width:0.5;stroke-linecap:butt;stroke-linejoin:round;stroke-miterlimit:10;stroke-dasharray:none;stroke-opacity:1"
         d="m 71.10375,239.31 0,-4" /><text
         id="text360"
         style="font-size:8px;-inkscape-font-specification:DejaVu Sans;writing-mode:lr-tb;font-family:DejaVu Sans;fill-opacity:1;fill-rule:nonzero;stroke:none;font-variant:normal;font-weight:normal;fill:#000000"
         transform="matrix(1,0,0,-1,68.556875,31.037875)"><tspan
           id="tspan362"
           y="0"
           x="0">0</tspan></text>
<path
         inkscape:connector-curvature="0"
         id="path364"
         style="fill:#000000;fill-opacity:1;fill-rule:nonzero;stroke:#000000;stroke-width:0.5;stroke-linecap:butt;stroke-linejoin:round;stroke-miterlimit:10;stroke-dasharray:none;stroke-opacity:1"
         d="m 104.5425,41.116 0,4" /><path
         inkscape:connector-curvature="0"
         id="path366"
         style="fill:#000000;fill-opacity:1;fill-rule:nonzero;stroke:#000000;stroke-width:0.5;stroke-linecap:butt;stroke-linejoin:round;stroke-miterlimit:10;stroke-dasharray:none;stroke-opacity:1"
         d="m 104.5425,239.31 0,-4" /><text
         id="text368"
         style="font-size:8px;-inkscape-font-specification:DejaVu Sans;writing-mode:lr-tb;font-family:DejaVu Sans;fill-opacity:1;fill-rule:nonzero;stroke:none;font-variant:normal;font-weight:normal;fill:#000000"
         transform="matrix(1,0,0,-1,101.99563,31.037875)"><tspan
           id="tspan370"
           y="0"
           x="0">2</tspan></text>
<path
         inkscape:connector-curvature="0"
         id="path372"
         style="fill:#000000;fill-opacity:1;fill-rule:nonzero;stroke:#000000;stroke-width:0.5;stroke-linecap:butt;stroke-linejoin:round;stroke-miterlimit:10;stroke-dasharray:none;stroke-opacity:1"
         d="m 137.98125,41.116 0,4" /><path
         inkscape:connector-curvature="0"
         id="path374"
         style="fill:#000000;fill-opacity:1;fill-rule:nonzero;stroke:#000000;stroke-width:0.5;stroke-linecap:butt;stroke-linejoin:round;stroke-miterlimit:10;stroke-dasharray:none;stroke-opacity:1"
         d="m 137.98125,239.31 0,-4" /><text
         id="text376"
         style="font-size:8px;-inkscape-font-specification:DejaVu Sans;writing-mode:lr-tb;font-family:DejaVu Sans;fill-opacity:1;fill-rule:nonzero;stroke:none;font-variant:normal;font-weight:normal;fill:#000000"
         transform="matrix(1,0,0,-1,135.43437,31.037875)"><tspan
           id="tspan378"
           y="0"
           x="0">4</tspan></text>
<path
         inkscape:connector-curvature="0"
         id="path380"
         style="fill:#000000;fill-opacity:1;fill-rule:nonzero;stroke:#000000;stroke-width:0.5;stroke-linecap:butt;stroke-linejoin:round;stroke-miterlimit:10;stroke-dasharray:none;stroke-opacity:1"
         d="m 171.42,41.116 0,4" /><path
         inkscape:connector-curvature="0"
         id="path382"
         style="fill:#000000;fill-opacity:1;fill-rule:nonzero;stroke:#000000;stroke-width:0.5;stroke-linecap:butt;stroke-linejoin:round;stroke-miterlimit:10;stroke-dasharray:none;stroke-opacity:1"
         d="m 171.42,239.31 0,-4" /><text
         id="text384"
         style="font-size:8px;-inkscape-font-specification:DejaVu Sans;writing-mode:lr-tb;font-family:DejaVu Sans;fill-opacity:1;fill-rule:nonzero;stroke:none;font-variant:normal;font-weight:normal;fill:#000000"
         transform="matrix(1,0,0,-1,168.87312,31.037875)"><tspan
           id="tspan386"
           y="0"
           x="0">6</tspan></text>
<path
         inkscape:connector-curvature="0"
         id="path388"
         style="fill:#000000;fill-opacity:1;fill-rule:nonzero;stroke:#000000;stroke-width:0.5;stroke-linecap:butt;stroke-linejoin:round;stroke-miterlimit:10;stroke-dasharray:none;stroke-opacity:1"
         d="m 204.85875,41.116 0,4" /><path
         inkscape:connector-curvature="0"
         id="path390"
         style="fill:#000000;fill-opacity:1;fill-rule:nonzero;stroke:#000000;stroke-width:0.5;stroke-linecap:butt;stroke-linejoin:round;stroke-miterlimit:10;stroke-dasharray:none;stroke-opacity:1"
         d="m 204.85875,239.31 0,-4" /><text
         id="text392"
         style="font-size:8px;-inkscape-font-specification:DejaVu Sans;writing-mode:lr-tb;font-family:DejaVu Sans;fill-opacity:1;fill-rule:nonzero;stroke:none;font-variant:normal;font-weight:normal;fill:#000000"
         transform="matrix(1,0,0,-1,202.31187,31.037875)"><tspan
           id="tspan394"
           y="0"
           x="0">8</tspan></text>
<path
         inkscape:connector-curvature="0"
         id="path396"
         style="fill:#000000;fill-opacity:1;fill-rule:nonzero;stroke:#000000;stroke-width:0.5;stroke-linecap:butt;stroke-linejoin:round;stroke-miterlimit:10;stroke-dasharray:none;stroke-opacity:1"
         d="m 238.2975,41.116 0,4" /><path
         inkscape:connector-curvature="0"
         id="path398"
         style="fill:#000000;fill-opacity:1;fill-rule:nonzero;stroke:#000000;stroke-width:0.5;stroke-linecap:butt;stroke-linejoin:round;stroke-miterlimit:10;stroke-dasharray:none;stroke-opacity:1"
         d="m 238.2975,239.31 0,-4" /><text
         id="text400"
         style="font-size:8px;-inkscape-font-specification:DejaVu Sans;writing-mode:lr-tb;font-family:DejaVu Sans;fill-opacity:1;fill-rule:nonzero;stroke:none;font-variant:normal;font-weight:normal;fill:#000000"
         transform="matrix(1,0,0,-1,233.20375,31.037875)"><tspan
           id="tspan402"
           sodipodi:role="line"
           y="0"
           x="0 5.0879998">10</tspan></text>
<g
         transform="translate(92.98125,16.366)"
         id="g404"><text
           id="text406"
           style="font-size:8px;-inkscape-font-specification:DejaVu Sans;writing-mode:lr-tb;font-family:DejaVu Sans;fill-opacity:1;fill-rule:nonzero;stroke:none;font-variant:normal;font-weight:normal;fill:#000000"
           transform="matrix(1,0,0,-1,5.7759857,0.671875)"><tspan
             id="tspan408"
             y="0"
             x="0">B</tspan></text>
<text
           id="text410"
           style="font-size:5.5999999px;-inkscape-font-specification:DejaVu Sans;writing-mode:lr-tb;font-family:DejaVu Sans;fill-opacity:1;fill-rule:nonzero;stroke:none;font-variant:normal;font-weight:normal;fill:#000000"
           transform="matrix(1,0,0,-1,11.705267,-1.008125)"><tspan
             id="tspan412"
             y="0"
             x="0">z</tspan></text>
<text
           id="text414"
           style="font-size:8px;-inkscape-font-specification:DejaVu Sans;writing-mode:lr-tb;font-family:DejaVu Sans;fill-opacity:1;fill-rule:nonzero;stroke:none;font-variant:normal;font-weight:normal;fill:#000000"
           transform="matrix(1,0,0,-1,16.833314,0.191875)"><tspan
             id="tspan416"
             y="0"
             x="0">=</tspan><tspan
             id="tspan418"
             y="-0.47999999"
             x="8.2617188">B</tspan></text>
<text
           id="text420"
           style="font-size:5.5999999px;-inkscape-font-specification:DejaVu Sans;writing-mode:lr-tb;font-family:DejaVu Sans;fill-opacity:1;fill-rule:nonzero;stroke:none;font-variant:normal;font-weight:normal;fill:#000000"
           transform="matrix(1,0,0,-1,31.024314,-1.008125)"><tspan
             id="tspan422"
             y="0"
             x="0">z</tspan></text>
<text
           id="text424"
           style="font-size:3.92000008px;-inkscape-font-specification:DejaVu Sans;writing-mode:lr-tb;font-family:DejaVu Sans;fill-opacity:1;fill-rule:nonzero;stroke:none;font-variant:normal;font-weight:normal;fill:#000000"
           transform="matrix(1,0,0,-1,34.272467,-2.184125)"><tspan
             id="tspan426"
             sodipodi:role="line"
             y="0"
             x="0 3.8185546 6.2168751 8.7051563 11.116875">model</tspan></text>
<text
           id="text428"
           style="font-size:8px;-inkscape-font-specification:DejaVu Sans;writing-mode:lr-tb;font-family:DejaVu Sans;fill-opacity:1;fill-rule:nonzero;stroke:none;font-variant:normal;font-weight:normal;fill:#000000"
           transform="matrix(1,0,0,-1,49.108037,0.671875)"><tspan
             id="tspan430"
             sodipodi:role="line"
             y="0"
             x="0 4.4453125">-B</tspan></text>
<text
           id="text432"
           style="font-size:5.5999999px;-inkscape-font-specification:DejaVu Sans;writing-mode:lr-tb;font-family:DejaVu Sans;fill-opacity:1;fill-rule:nonzero;stroke:none;font-variant:normal;font-weight:normal;fill:#000000"
           transform="matrix(1,0,0,-1,59.482631,-1.008125)"><tspan
             id="tspan434"
             y="0"
             x="0">z</tspan></text>
<text
           id="text436"
           style="font-size:3.92000008px;-inkscape-font-specification:DejaVu Sans;writing-mode:lr-tb;font-family:DejaVu Sans;fill-opacity:1;fill-rule:nonzero;stroke:none;font-variant:normal;font-weight:normal;fill:#000000"
           transform="matrix(1,0,0,-1,62.730784,-2.184125)"><tspan
             id="tspan438"
             sodipodi:role="line"
             y="0"
             x="0 2.3983202 4.8866014">obs</tspan></text>
<text
           id="text440"
           style="font-size:8px;-inkscape-font-specification:DejaVu Sans;writing-mode:lr-tb;font-family:DejaVu Sans;fill-opacity:1;fill-rule:nonzero;stroke:none;font-variant:normal;font-weight:normal;fill:#000000"
           transform="matrix(1,0,0,-1,73.273659,0.191875)"><tspan
             id="tspan442"
             sodipodi:role="line"
             y="0"
             x="0 3.1210938 8.1914062 13.078125">(nT)</tspan></text>
<g
           transform="matrix(0.008,0,0,0.008,0,0.671875)"
           id="g444"><g
             id="g446"><g
               clip-path="url(#clipPath450)"
               id="g448"><path
                 inkscape:connector-curvature="0"
                 id="path454"
                 style="fill:#000000;fill-opacity:1;fill-rule:nonzero;stroke:none"
                 d="M 675,0 48,0 347,674 367,674 675,0 M 524,92 331,532 136,92 524,92" /></g></g></g><g
           id="g456"><path
             inkscape:connector-curvature="0"
             id="path458"
             style="fill:#000000;fill-opacity:1;fill-rule:nonzero;stroke:none"
             d="m 0,7 15.27472,0 0,0.5 L 0,7.5 0,7 Z" /></g><g
           id="g460"><path
             inkscape:connector-curvature="0"
             id="path462"
             style="fill:#000000;fill-opacity:1;fill-rule:nonzero;stroke:none"
             d="m 25.095033,7 45.635657,0 0,0.5 -45.635657,0 0,-0.5 z" /></g></g><path
         inkscape:connector-curvature="0"
         id="path464"
         style="fill:#000000;fill-opacity:1;fill-rule:nonzero;stroke:#000000;stroke-width:0.5;stroke-linecap:butt;stroke-linejoin:round;stroke-miterlimit:10;stroke-dasharray:none;stroke-opacity:1"
         d="m 37.665,41.116 4,0" /><path
         inkscape:connector-curvature="0"
         id="path466"
         style="fill:#000000;fill-opacity:1;fill-rule:nonzero;stroke:#000000;stroke-width:0.5;stroke-linecap:butt;stroke-linejoin:round;stroke-miterlimit:10;stroke-dasharray:none;stroke-opacity:1"
         d="m 238.2975,41.116 -4,0" /><text
         id="text468"
         style="font-size:8px;-inkscape-font-specification:DejaVu Sans;writing-mode:lr-tb;font-family:DejaVu Sans;fill-opacity:1;fill-rule:nonzero;stroke:none;font-variant:normal;font-weight:normal;fill:#000000"
         transform="matrix(1,0,0,-1,23.4775,38.912875)"><tspan
           id="tspan470"
           sodipodi:role="line"
           y="0"
           x="0 5.0879998">10</tspan></text>
<path
         inkscape:connector-curvature="0"
         id="path472"
         style="fill:#000000;fill-opacity:1;fill-rule:nonzero;stroke:#000000;stroke-width:0.5;stroke-linecap:butt;stroke-linejoin:round;stroke-miterlimit:10;stroke-dasharray:none;stroke-opacity:1"
         d="m 37.665,91.046942 4,0" /><path
         inkscape:connector-curvature="0"
         id="path474"
         style="fill:#000000;fill-opacity:1;fill-rule:nonzero;stroke:#000000;stroke-width:0.5;stroke-linecap:butt;stroke-linejoin:round;stroke-miterlimit:10;stroke-dasharray:none;stroke-opacity:1"
         d="m 238.2975,91.046942 -4,0" /><text
         id="text476"
         style="font-size:8px;-inkscape-font-specification:DejaVu Sans;writing-mode:lr-tb;font-family:DejaVu Sans;fill-opacity:1;fill-rule:nonzero;stroke:none;font-variant:normal;font-weight:normal;fill:#000000"
         transform="matrix(1,0,0,-1,23.4775,88.843817)"><tspan
           id="tspan478"
           sodipodi:role="line"
           y="0"
           x="0 5.0879998">15</tspan></text>
<path
         inkscape:connector-curvature="0"
         id="path480"
         style="fill:#000000;fill-opacity:1;fill-rule:nonzero;stroke:#000000;stroke-width:0.5;stroke-linecap:butt;stroke-linejoin:round;stroke-miterlimit:10;stroke-dasharray:none;stroke-opacity:1"
         d="m 37.665,239.31 4,0" /><path
         inkscape:connector-curvature="0"
         id="path482"
         style="fill:#000000;fill-opacity:1;fill-rule:nonzero;stroke:#000000;stroke-width:0.5;stroke-linecap:butt;stroke-linejoin:round;stroke-miterlimit:10;stroke-dasharray:none;stroke-opacity:1"
         d="m 238.2975,239.31 -4,0" /><text
         id="text484"
         style="font-size:8px;-inkscape-font-specification:DejaVu Sans;writing-mode:lr-tb;font-family:DejaVu Sans;fill-opacity:1;fill-rule:nonzero;stroke:none;font-variant:normal;font-weight:normal;fill:#000000"
         transform="matrix(1,0,0,-1,23.4775,237.10687)"><tspan
           id="tspan486"
           sodipodi:role="line"
           y="0"
           x="0 5.0879998">50</tspan></text>
<path
         inkscape:connector-curvature="0"
         id="path488"
         style="fill:#000000;fill-opacity:1;fill-rule:nonzero;stroke:#000000;stroke-width:0.5;stroke-linecap:butt;stroke-linejoin:round;stroke-miterlimit:10;stroke-dasharray:none;stroke-opacity:1"
         d="m 37.665,126.47351 2,0" /><path
         inkscape:connector-curvature="0"
         id="path490"
         style="fill:#000000;fill-opacity:1;fill-rule:nonzero;stroke:#000000;stroke-width:0.5;stroke-linecap:butt;stroke-linejoin:round;stroke-miterlimit:10;stroke-dasharray:none;stroke-opacity:1"
         d="m 238.2975,126.47351 -2,0" /><text
         id="text492"
         style="font-size:8px;-inkscape-font-specification:DejaVu Sans;writing-mode:lr-tb;font-family:DejaVu Sans;fill-opacity:1;fill-rule:nonzero;stroke:none;font-variant:normal;font-weight:normal;fill:#000000"
         transform="matrix(1,0,0,-1,23.4775,124.27038)"><tspan
           id="tspan494"
           sodipodi:role="line"
           y="0"
           x="0 5.0879998">20</tspan></text>
<path
         inkscape:connector-curvature="0"
         id="path496"
         style="fill:#000000;fill-opacity:1;fill-rule:nonzero;stroke:#000000;stroke-width:0.5;stroke-linecap:butt;stroke-linejoin:round;stroke-miterlimit:10;stroke-dasharray:none;stroke-opacity:1"
         d="m 37.665,176.40445 2,0" /><path
         inkscape:connector-curvature="0"
         id="path498"
         style="fill:#000000;fill-opacity:1;fill-rule:nonzero;stroke:#000000;stroke-width:0.5;stroke-linecap:butt;stroke-linejoin:round;stroke-miterlimit:10;stroke-dasharray:none;stroke-opacity:1"
         d="m 238.2975,176.40445 -2,0" /><text
         id="text500"
         style="font-size:8px;-inkscape-font-specification:DejaVu Sans;writing-mode:lr-tb;font-family:DejaVu Sans;fill-opacity:1;fill-rule:nonzero;stroke:none;font-variant:normal;font-weight:normal;fill:#000000"
         transform="matrix(1,0,0,-1,23.4775,174.20133)"><tspan
           id="tspan502"
           sodipodi:role="line"
           y="0"
           x="0 5.0879998">30</tspan></text>
<path
         inkscape:connector-curvature="0"
         id="path504"
         style="fill:#000000;fill-opacity:1;fill-rule:nonzero;stroke:#000000;stroke-width:0.5;stroke-linecap:butt;stroke-linejoin:round;stroke-miterlimit:10;stroke-dasharray:none;stroke-opacity:1"
         d="m 37.665,211.83102 2,0" /><path
         inkscape:connector-curvature="0"
         id="path506"
         style="fill:#000000;fill-opacity:1;fill-rule:nonzero;stroke:#000000;stroke-width:0.5;stroke-linecap:butt;stroke-linejoin:round;stroke-miterlimit:10;stroke-dasharray:none;stroke-opacity:1"
         d="m 238.2975,211.83102 -2,0" /><text
         id="text508"
         style="font-size:8px;-inkscape-font-specification:DejaVu Sans;writing-mode:lr-tb;font-family:DejaVu Sans;fill-opacity:1;fill-rule:nonzero;stroke:none;font-variant:normal;font-weight:normal;fill:#000000"
         transform="matrix(1,0,0,-1,23.4775,209.62789)"><tspan
           id="tspan510"
           sodipodi:role="line"
           y="0"
           x="0 5.0879998">40</tspan></text>
<path
         inkscape:connector-curvature="0"
         id="path512"
         style="fill:#000000;fill-opacity:1;fill-rule:nonzero;stroke:#000000;stroke-width:0.5;stroke-linecap:butt;stroke-linejoin:round;stroke-miterlimit:10;stroke-dasharray:none;stroke-opacity:1"
         d="m 37.665,239.31 2,0" /><path
         inkscape:connector-curvature="0"
         id="path514"
         style="fill:#000000;fill-opacity:1;fill-rule:nonzero;stroke:#000000;stroke-width:0.5;stroke-linecap:butt;stroke-linejoin:round;stroke-miterlimit:10;stroke-dasharray:none;stroke-opacity:1"
         d="m 238.2975,239.31 -2,0" /><text
         id="text516"
         style="font-size:8px;-inkscape-font-specification:DejaVu Sans;writing-mode:lr-tb;font-family:DejaVu Sans;fill-opacity:1;fill-rule:nonzero;stroke:none;font-variant:normal;font-weight:normal;fill:#000000"
         transform="matrix(1,0,0,-1,23.4775,237.10687)"><tspan
           id="tspan518"
           sodipodi:role="line"
           y="0"
           x="0 5.0879998">50</tspan></text>
<g
         transform="matrix(0,1,-1,0,16.805625,137.213)"
         id="g520"><text
           id="text522"
           style="font-size:8px;-inkscape-font-specification:DejaVu Sans;writing-mode:lr-tb;font-family:DejaVu Sans;fill-opacity:1;fill-rule:nonzero;stroke:none;font-variant:normal;font-weight:normal;fill:#000000"
           transform="matrix(1,0,0,-1,0,0.171875)"><tspan
             id="tspan524"
             y="0"
             x="0">K</tspan></text>
</g><path
         inkscape:connector-curvature="0"
         id="path526"
         style="fill:#ffffff;fill-opacity:1;fill-rule:nonzero;stroke:#000000;stroke-width:1;stroke-linecap:butt;stroke-linejoin:miter;stroke-miterlimit:10;stroke-dasharray:none;stroke-opacity:1"
         d="m 175.91937,45.116 58.37813,0 0,37.65 -58.37813,0 0,-37.65 z" /><path
         inkscape:connector-curvature="0"
         id="path528"
         style="fill:none;stroke:#1f77b4;stroke-width:1;stroke-linecap:butt;stroke-linejoin:round;stroke-miterlimit:10;stroke-dasharray:none;stroke-opacity:1"
         d="m 187.11937,73.287875 c 0.79561,0 1.55874,0.316099 2.12132,0.87868 0.56259,0.56258 0.87868,1.325711 0.87868,2.12132 0,0.795609 -0.31609,1.55874 -0.87868,2.12132 -0.56258,0.562581 -1.32571,0.87868 -2.12132,0.87868 -0.7956,0 -1.55874,-0.316099 -2.12132,-0.87868 -0.56258,-0.56258 -0.87868,-1.325711 -0.87868,-2.12132 0,-0.795609 0.3161,-1.55874 0.87868,-2.12132 0.56258,-0.562581 1.32572,-0.87868 2.12132,-0.87868 l 0,0 z" /><text
         id="text530"
         style="font-size:8px;-inkscape-font-specification:DejaVu Sans;writing-mode:lr-tb;font-family:DejaVu Sans;fill-opacity:1;fill-rule:nonzero;stroke:none;font-variant:normal;font-weight:normal;fill:#000000"
         transform="matrix(1,0,0,-1,201.51937,73.487875)"><tspan
           id="tspan532"
           sodipodi:role="line"
           y="0"
           x="0 5.0799999 12.992 19.896 24.496">SWMFa</tspan></text>
<path
         inkscape:connector-curvature="0"
         id="path534"
         style="fill:none;stroke:#ff7f0e;stroke-width:1;stroke-linecap:butt;stroke-linejoin:miter;stroke-miterlimit:10;stroke-dasharray:none;stroke-opacity:1"
         d="m 184.11937,61.537875 6,0 0,6 -6,0 0,-6 z" /><text
         id="text536"
         style="font-size:8px;-inkscape-font-specification:DejaVu Sans;writing-mode:lr-tb;font-family:DejaVu Sans;fill-opacity:1;fill-rule:nonzero;stroke:none;font-variant:normal;font-weight:normal;fill:#000000"
         transform="matrix(1,0,0,-1,201.51937,61.737875)"><tspan
           id="tspan538"
           sodipodi:role="line"
           y="0"
           x="0 5.0799999 12.992 19.896 24.496">SWMFb</tspan></text>
<path
         inkscape:connector-curvature="0"
         id="path540"
         style="fill:none;stroke:#2ca02c;stroke-width:1;stroke-linecap:butt;stroke-linejoin:miter;stroke-miterlimit:10;stroke-dasharray:none;stroke-opacity:1"
         d="m 187.11937,55.787875 -3,-6 6,0 -3,6 z" /><text
         id="text542"
         style="font-size:8px;-inkscape-font-specification:DejaVu Sans;writing-mode:lr-tb;font-family:DejaVu Sans;fill-opacity:1;fill-rule:nonzero;stroke:none;font-variant:normal;font-weight:normal;fill:#000000"
         transform="matrix(1,0,0,-1,201.51937,49.987875)"><tspan
           id="tspan544"
           sodipodi:role="line"
           y="0"
           x="0 5.0799999 12.992 19.896 24.496">SWMFc</tspan></text>
</g></g></svg>