<?xml version="1.0" encoding="UTF-8" standalone="no"?>
<!-- Created with Inkscape (http://www.inkscape.org/) -->

<svg
   xmlns:dc="http://purl.org/dc/elements/1.1/"
   xmlns:cc="http://creativecommons.org/ns#"
   xmlns:rdf="http://www.w3.org/1999/02/22-rdf-syntax-ns#"
   xmlns:svg="http://www.w3.org/2000/svg"
   xmlns="http://www.w3.org/2000/svg"
   xmlns:sodipodi="http://sodipodi.sourceforge.net/DTD/sodipodi-0.dtd"
   xmlns:inkscape="http://www.inkscape.org/namespaces/inkscape"
   width="82.499992mm"
   height="41.441166mm"
   viewBox="0 0 292.32281 146.83877"
   id="svg6410"
   version="1.1"
   inkscape:version="0.91 r13725"
   sodipodi:docname="noaa_counts.svg">
  <defs
     id="defs6412">
    <clipPath
       clipPathUnits="userSpaceOnUse"
       id="clipPath416">
      <path
         d="m 8.568,120.96 525.812,0 0,265.14 -525.812,0 0,-265.14 z"
         id="path418"
         inkscape:connector-curvature="0" />
    </clipPath>
  </defs>
  <sodipodi:namedview
     id="base"
     pagecolor="#ffffff"
     bordercolor="#666666"
     borderopacity="1.0"
     inkscape:pageopacity="0.0"
     inkscape:pageshadow="2"
     inkscape:zoom="1.979899"
     inkscape:cx="90.341996"
     inkscape:cy="54.074968"
     inkscape:document-units="px"
     inkscape:current-layer="g414"
     showgrid="false"
     inkscape:window-width="1366"
     inkscape:window-height="723"
     inkscape:window-x="0"
     inkscape:window-y="1"
     inkscape:window-maximized="1"
     fit-margin-top="0.2"
     fit-margin-left="0"
     fit-margin-right="0"
     fit-margin-bottom="0" />
  <metadata
     id="metadata6415">
    <rdf:RDF>
      <cc:Work
         rdf:about="">
        <dc:format>image/svg+xml</dc:format>
        <dc:type
           rdf:resource="http://purl.org/dc/dcmitype/StillImage" />
        <dc:title></dc:title>
      </cc:Work>
    </rdf:RDF>
  </metadata>
  <g
     inkscape:label="Layer 1"
     inkscape:groupmode="layer"
     id="layer1"
     transform="translate(-244.2519,-39.598377)">
    <g
       transform="matrix(0.559325,0,0,-0.559325,243.18211,187.85141)"
       id="g408">
      <g
         transform="translate(-8.57,-120.96)"
         id="g410">
        <g
           id="g412">
          <g
             clip-path="url(#clipPath416)"
             id="g414">
            <path
               inkscape:connector-curvature="0"
               id="path420"
               style="fill:none;stroke:#000000;stroke-width:0.86299998;stroke-linecap:round;stroke-linejoin:round;stroke-miterlimit:10;stroke-dasharray:none;stroke-opacity:1"
               d="m 99.48,205.1 432.12,0 m -321,0 0,-14.52 m 123.42,14.52 0,-14.52 m 123.42,14.52 0,-14.52 m -349.68,14.52 0,-7.14 m 20.64,7.14 0,-7.14 m 20.52,7.14 0,-7.14 m 20.58,7.14 0,-7.14 m 20.58,7.14 0,-7.14 m 41.1,7.14 0,-7.14 m 20.64,7.14 0,-7.14 m 20.52,7.14 0,-7.14 m 20.58,7.14 0,-7.14 m 20.58,7.14 0,-7.14 m 41.1,7.14 0,-7.14 m 20.58,7.14 0,-7.14 m 20.64,7.14 0,-7.14 m 20.52,7.14 0,-7.14 m 20.58,7.14 0,-7.14 m 41.1,7.14 0,-7.14 m 20.58,7.14 0,-7.14 m 20.58,7.14 0,-7.14" />
            <text
               id="text422"
               style="font-variant:normal;font-weight:normal;font-size:17.99900055px;font-family:'Times New Roman';-inkscape-font-specification:TimesNewRoman;writing-mode:lr-tb;fill:#000000;fill-opacity:1;fill-rule:nonzero;stroke:none"
               transform="matrix(0.99788322,0,0,-1,199.38,167.6003)">
              <tspan
                 id="tspan424"
                 sodipodi:role="line"
                 y="0"
                 x="0 9.0228987 13.546047 123.63873 132.65804 137.18118 247.33505 256.35797 260.8811">3.63.73.8</tspan>
            </text>
            <path
               inkscape:connector-curvature="0"
               id="path426"
               style="fill:none;stroke:#000000;stroke-width:0.86299998;stroke-linecap:round;stroke-linejoin:round;stroke-miterlimit:10;stroke-dasharray:none;stroke-opacity:1"
               d="m 99.48,205.1 0,148.62 m 0,-148.62 -14.46,0 m 14.46,37.14 -14.46,0 m 14.46,37.08 -14.46,0 m 14.46,37.2 -14.46,0 m 14.46,37.14 -14.46,0 m 14.46,-137.4 -7.26,0 m 7.26,6.54 -7.26,0 m 7.26,4.62 -7.26,0 m 7.26,3.6 -7.26,0 m 7.26,2.94 -7.26,0 m 7.26,2.52 -7.26,0 m 7.26,2.16 -7.26,0 m 7.26,1.92 -7.26,0 m 7.26,12.84 -7.26,0 m 7.26,6.6 -7.26,0 m 7.26,4.56 -7.26,0 m 7.26,3.6 -7.26,0 m 7.26,3 -7.26,0 m 7.26,2.52 -7.26,0 m 7.26,2.16 -7.26,0 m 7.26,1.86 -7.26,0 m 7.26,12.9 -7.26,0 m 7.26,6.54 -7.26,0 m 7.26,4.62 -7.26,0 m 7.26,3.6 -7.26,0 m 7.26,2.94 -7.26,0 m 7.26,2.46 -7.26,0 m 7.26,2.16 -7.26,0 m 7.26,1.92 -7.26,0 m 7.26,12.9 -7.26,0 m 7.26,6.48 -7.26,0 m 7.26,4.68 -7.26,0 m 7.26,3.6 -7.26,0 m 7.26,2.94 -7.26,0 m 7.26,2.46 -7.26,0 m 7.26,2.16 -7.26,0 m 7.26,1.86 -7.26,0" />
            <text
               id="text428"
               style="font-variant:normal;font-weight:normal;font-size:17.99900055px;font-family:'Times New Roman';-inkscape-font-specification:TimesNewRoman;writing-mode:lr-tb;fill:#000000;fill-opacity:1;fill-rule:nonzero;stroke:none"
               transform="matrix(0.99788322,0,0,-1,69.06,199.0403)">
              <tspan
                 id="tspan430"
                 y="0"
                 x="0">1</tspan>
              <tspan
                 id="tspan432"
                 sodipodi:role="line"
                 y="-37.079739"
                 x="-9.0192986 0">10</tspan>
              <tspan
                 id="tspan434"
                 sodipodi:role="line"
                 y="-74.280075"
                 x="-18.038597 -9.0192986 0">100</tspan>
              <tspan
                 id="tspan436"
                 sodipodi:role="line"
                 y="-111.41921"
                 x="-27.057898 -18.038597 -9.0192986 0">1000</tspan>
              <tspan
                 id="tspan438"
                 sodipodi:role="line"
                 y="-148.55835"
                 x="-36.077194 -27.057898 -18.038597 -9.0192986 0">10000</tspan>
            </text>
            <text
               id="text440"
               style="font-variant:normal;font-weight:normal;font-size:17.99900055px;font-family:'Times New Roman';-inkscape-font-specification:TimesNewRoman;writing-mode:lr-tb;fill:#000000;fill-opacity:1;fill-rule:nonzero;stroke:none"
               transform="matrix(0,0.99788322,1,0,22.98,242.5403)">
              <tspan
                 id="tspan442"
                 sodipodi:role="line"
                 y="0"
                 x="0 8.0041552 17.016254 26.028355 35.040455 40.056774 47.070984 52.087307 59.101517 67.105675">counts/sec</tspan>
            </text>
            <path
               inkscape:connector-curvature="0"
               id="path444"
               style="fill:none;stroke:#000000;stroke-width:1.43900001;stroke-linecap:round;stroke-linejoin:round;stroke-miterlimit:10;stroke-dasharray:none;stroke-opacity:1"
               d="m 104.34,231.02 0.66,-8.22 0.72,8.22 0.6,-14.76 0.72,0 0.66,14.76 0.72,5.46 0.66,-20.22 0.72,11.16 0.66,3.6 0.72,2.94 0.66,-2.94 0.72,5.46 0.6,-5.46 0.72,7.62 0.72,-4.68 0.66,2.52 0.72,2.16 0.66,3.6 0.72,-1.68 0.66,-6.6 0.72,9.84 0.66,-5.16 0.72,1.92 0.6,1.68 0.72,-8.28 0.66,-2.94 0.72,7.62 0.66,5.16 0.72,-1.56 0.66,-3.6 0.72,13.08 0.66,0.84 0.72,-6.06 0.6,3.3 0.72,-6 0.72,3.84 0.66,-1.14 0.72,-1.26 0.66,1.26 0.72,-1.26 0.66,0 0.72,5.58 0.66,-1.98 0.72,-3.6 0.6,6.48 0.72,-1.92 0.66,7.86 0.72,0.6 0.66,2.22 0.72,-8.76 0.66,3.24 0.72,-0.72 0.66,8.7 0.72,-4.14 0.6,6.6 0.72,-0.84 0.72,-6.3 0.66,5.52 0.72,1.62 0.66,5.16 0.72,-1.74 0.66,4.14 0.72,0 0.66,-1.8 0.72,0.54 0.6,3.9 0.72,2.94 0.66,-2.16 0.72,2.16 0.66,1.32 0.72,2.88 0.66,-1.08 0.72,0.48 0.66,0 0.72,1.8 0.6,1.02 0.72,0.84 0.72,0 0.66,2.4 0.72,-0.72 0.66,0.72 0.72,-1.5 0.66,5.46 0.72,-3.18 0.66,-1.5 0.72,2.82 0.6,0 0.72,1.26 0.66,0 0.72,1.74 0.66,-0.54 0.72,1.08 0.66,3.06 0.72,-0.84 0.66,2.52 0.72,-0.78 0.6,1.56 0.72,0.72 0.72,-2.28 0.66,2.28 0.72,0.72 0.66,-0.72 0.72,0.72 0.66,0 0.72,1.32 0.66,-1.32 0.72,0.66 0.6,0.66 0.72,-0.66 0.66,1.26 1.38,0 0.72,0.6 0.66,-1.2 0.72,1.2 1.38,0 0.6,0.6 0.72,-1.2 0.72,-1.26 0.66,2.46 0.72,-0.6 0.66,0 0.72,0.6 0.66,-0.6 0.72,-0.6 0.66,0.6 0.72,-0.6 0.6,-1.26 0.72,-0.66 0.66,-2.22 0.72,0 0.66,-1.68 0.72,1.68 0.66,-1.68 0.72,-0.84 0.66,-0.96 0.72,0.96 0.6,-1.68 0.72,0.72 0.72,-2.34 0.66,2.34 0.72,-1.8 0.66,-1.14 0.72,-3.96 0.66,3.96 0.72,-4.68 0.66,0 0.72,-1.68 0.66,0.9 0.72,-0.9 0.6,0 0.72,-4.14 0.66,2.28 1.38,0 0.72,-2.28 0.66,0 0.72,-0.6 0.66,-1.2 0.72,-0.66 0.72,1.32 0.6,0.54 0.72,1.08 0.66,-1.08 0.72,-3.18 0.66,0.66 0.72,0.66 0.66,2.94 0.72,0 0.66,1.08 0.72,-2.16 0.6,0 0.72,-0.54 0.66,-1.98 0.72,3.12 0.66,2.28 0.72,0 0.66,2.76 0.72,0 0.66,0.78 0.72,-1.68 0.72,3.18 0.6,6.12 0.72,0 0.66,-1.8 0.72,0.54 0.66,0.54 0.72,0 0.66,-0.54 0.72,-1.08 0.66,-1.2 0.72,0.6 0.6,-0.6 0.72,1.2 0.66,-1.2 0.72,-1.26 0.66,0.66 0.72,3.42 0.66,3.42 0.72,4.32 0.66,5.94 0.72,5.22 0.72,4.14 0.6,3.48 0.72,-1.68 0.66,1.68 0.72,0.78 0.66,-0.78 0.72,0 0.66,-0.78 0.72,-0.9 0.66,-0.84 0.72,-0.96 0.6,-1.8 0.72,-0.54 0.66,-1.8 0.72,-2.76 0.66,-2.46 0.72,-6.6 0.66,-3.66 0.72,2.28 0.66,-0.72 0.72,-4.26 0.72,-0.72 0.6,0 0.72,-4.08 0.66,-2.82 0.72,-2.52 0.66,-1.74 0.72,-5.34 0.66,-1.5 0.72,-0.78 0.66,0 0.72,1.5 0.6,-7.62 0.72,-1.32 0.66,-0.6 0.72,5.4 0.66,-12 0.72,1.98 0.66,-1.98 0.72,3.6 0.66,-2.58 0.72,-3.72 0.72,0 0.6,-0.6 0.72,6.12 0.66,-6.12 0.72,2.34 0.66,-4.32 0.72,6.3 0.66,-5.58 0.72,-2.16 0.66,-0.84 0.72,-4.56 0.6,2.88 0.72,-0.9 0.66,6.18 0.72,-6.18 0.66,0.9 0.72,-6.48 0.66,-1.44 0.72,-3.24 0.66,4.68 0.72,-1.44 0.72,0 0.6,3.84 0.72,0 0.66,1.2 0.72,-10.2 0.66,10.2 0.72,-6.6 0.66,6.6 0.72,-6.6 0.66,9.48 0.72,-4.08 0.6,-9 0.72,-4.68 0.66,13.68 0.72,-3.84 0.66,-3.24 0.72,0 0.66,7.08 0.72,-1.14 0.66,-5.94 0.72,0 0.72,1.68 0.6,-3.6 0.72,6.6 0.66,-3 0.72,-1.68 0.66,7.08 0.72,-11.16 0.66,10.02 0.72,-7.86 0.66,-2.16 0.72,12.36 0.6,-10.2 0.72,5.16 0.66,-3.24 0.72,-4.08 0.66,-2.52 0.72,9.84 0.66,-12.78 0.72,5.46 0.66,2.16 0.72,0 0.72,1.92 2.7,0 0.66,-4.08 0.72,4.08 0.66,-9.54 0.72,7.62 0.66,3.6 0.72,0 0.6,4.26 0.72,-10.02 0.66,5.76 0.72,-1.68 0.66,7.08 0.72,-9 0.66,7.86 0.72,0 0.66,1.14 0.72,1.2 0.72,-1.2 0.6,0 0.72,-1.14 0.66,-7.86 0.72,3.6 0.66,-1.68 0.72,3.24 0.66,-5.16 0.72,6.6 0.66,-6.6 0.72,1.92 0.6,0 0.72,3.24 0.66,2.7 0.72,-12.54 0.66,6.6 0.72,-9.54 0.66,2.94 0.72,11.28 0.66,-6.6 0.72,-4.68 0.72,9.84 0.6,0 0.72,2.7 0.66,-12.54 0.72,4.68 0.66,-4.68 0.72,11.28 0.66,-1.44 0.72,-7.32 0.66,-9.06 0.72,16.38 0.6,-9.84 0.72,2.52 0.66,7.32 0.72,1.44 0.66,-4.68 0.72,-1.92 0.66,11.16 0.72,-13.32 0.66,10.02 0.72,4.32 0.72,1.74 0.6,0.84 0.72,-2.58 0.66,0 0.72,-1.98 0.66,-2.34 0.72,-1.26 0.66,-8.76 0.72,5.76 0.66,0 0.72,4.26 0.6,0 0.72,-2.7 0.66,-1.56 0.72,-1.68 0.66,9.24 0.72,-7.56 0.66,-5.76 0.72,14.34 0.66,-10.26 0.72,16.44 0.72,-5.28 0.6,3.24 0.72,-8.46 0.66,3.3 0.72,-9.24 0.66,4.68 0.72,-4.68 0.66,-4.08 0.72,-9.06 0.66,6.54 0.72,11.28 0.6,-11.28 0.72,9.84 0.66,-9.84 0.72,6.6 0.66,3.24 0.72,0 0.66,-1.56 0.72,1.56 0.66,5.04 0.72,-5.04 0.72,12.6 0.6,-2.16 0.72,-7.74 0.66,5.22 0.72,3.96 0.66,-11.88 0.72,5.04 0.66,-3.6 0.72,13.56 0.66,-3.84 0.72,7.02 0.6,-3.18 0.72,3.18 0.66,0 0.72,0.96 0.66,3.24 0.72,2.64 0.66,-5.88 0.72,0.84 0.66,7.92 0.72,12.24 1.32,16.14 0.72,3.84 0.66,4.14 0.72,3.18 0.66,1.38 0.72,3 0.66,0.54 0.72,2.22 0.66,1.74 0.72,2.28 0.6,2.64 0.72,0.6 0.66,1.14 0.72,1.8 0.66,0.96 0.72,0 0.66,-3.3 0.72,-3.12 0.66,-2.22 0.72,-0.78 0.72,-2.7 0.6,-4.8 0.72,-3.66 0.66,-3.96 0.72,-3.54 0.66,-0.66 0.72,0.66 0.66,-1.38 0.72,-3.18 0.66,-2.52 0.72,-2.82 0.6,-3.36 0.72,0 0.66,-3.24 0.72,0 0.66,-2.82 0.72,2.82 0.66,-2.22 0.72,2.22 0.66,-2.82 0.72,-1.62 0.72,0 0.6,1.14 0.72,-3.12 0.66,-4.68 0.72,4.02 0.66,-4.02 0.72,1.74 0.66,-6.12 0.72,0 0.66,-3.3 0.72,3.3 0.6,-1.92 0.72,1.26 0.66,-4.26 0.72,-2.58 0.66,0.96 0.72,1.62 0.66,-1.62 0.72,-1.98 0.66,-1.56 0.72,1.08 0.72,0.48 0.6,-6.72 0.72,4.56 0.66,-5.4 0.72,6 0.66,-6.84 0.72,2.4 0.66,-0.72 0.72,1.44 0.66,4.32 0.72,-6.6 0.6,-1.68 0.72,3.24 0.66,-2.4 0.72,0 0.66,5.1 0.72,-11.16 0.66,6.9 0.72,-6.9 0.66,4.32 0.72,7.98 0.72,-5.4 0.6,0 0.72,-5.76 0.66,8.04 0.72,-3.96 0.66,0 0.72,3.96 0.66,-8.04 0.72,-2.4 0.66,8.16 0.72,-0.84 0.6,-3.72 0.72,5.4 0.66,-2.52 0.72,4.68 0.66,-8.76 0.72,-1.14 0.66,10.5 0.72,-5.28 0.66,-11.16 0.72,12.84 0.72,-2.58 0.6,-1.98 0.72,7.56 0.66,-9.9 0.72,2.34 0.66,1.98 0.72,-5.58 0.66,5.58 0.72,-10.26 0.66,3.24 0.72,-5.16 0.6,-2.16 0.72,7.32 0.66,2.7 0.72,-12.54 0.66,4.68 0.72,11.16 0.66,-18.78 0.72,9.54 0.66,-4.08 0.72,7.32 0.72,-7.32 0.6,-9.06 0.72,9.06 0.66,-2.52 0.72,4.68 0.66,-7.62 0.72,0 0.66,5.46 0.72,-9.06 0.66,-4.62 0.72,15.84 0.6,-11.22 2.1,0 0.66,-4.62 0.72,15.84 0.66,-11.22 0.72,-4.62 0.66,0 0.72,-6.54 0.72,-11.16 0.6,11.16 0.72,0 0.66,-11.16 0.72,22.32 0.66,-4.62 1.38,8.22 0.72,-14.76 0.66,6.54 0.72,0 0.6,-17.7 0.72,17.7 0.66,-6.54 1.38,6.54 0.72,0 0.66,8.22 0.72,-25.92" />
            <path
               inkscape:connector-curvature="0"
               id="path446"
               style="fill:none;stroke:#000000;stroke-width:1.43900001;stroke-linecap:round;stroke-linejoin:round;stroke-miterlimit:10;stroke-dasharray:none;stroke-opacity:1"
               d="m 515.76,205.1 1.38,22.38" />
            <path
               inkscape:connector-curvature="0"
               id="path448"
               style="fill:none;stroke:#000000;stroke-width:0.86299998;stroke-linecap:round;stroke-linejoin:round;stroke-miterlimit:10;stroke-dasharray:none;stroke-opacity:1"
               d="m 104.34,233.96 0.66,6.6 0.72,-13.14 0.6,3.6 0.72,2.94 0.66,-2.94 0.72,0 0.66,-8.22 0.72,4.62 1.38,-11.16 0.66,-11.16 0.72,17.7 0.6,-17.7 0.72,11.16 0.72,14.76 0.66,11.22 0.72,-19.44 0.66,8.22 0.72,-3.6 0.66,14.82 0.72,-19.44 0.66,4.62 0.72,-4.62 0.6,0 0.72,-6.54 1.38,0 0.66,6.54 0.72,4.62 0.66,-22.32 0.72,17.7 0.66,-6.54 0.72,6.54 0.6,4.62 0.72,9.06 0.72,-20.22 0.66,22.38 0.72,-4.68 0.66,-2.94 1.38,0 0.72,-8.22 0.66,0 0.72,-6.54 0.6,6.54 0.72,11.16 0.66,-11.16 0.72,-17.7 1.38,11.16 0.66,6.54 0.72,4.62 0.66,-4.62 0.72,8.22 0.6,-14.76 0.72,6.54 0.72,22.44 0.66,-6.6 0.72,0 0.66,-15.84 0.72,13.68 0.66,-5.46 0.72,-8.22 0.66,8.22 0.72,-25.92 0.6,22.32 0.72,-22.32 0.66,25.92 0.72,0 0.66,-14.76 0.72,17.7 0.66,-2.94 0.72,-8.22 0.66,15.84 0.72,-15.84 0.6,11.16 1.44,-2.94 0.66,0 0.72,5.46 0.66,-13.68 0.72,-6.54 1.38,0 0.66,6.54 0.72,8.22 0.6,-3.6 0.72,-11.16 0.66,14.76 0.72,7.62 0.66,-7.62 0.72,12.78 0.66,-12.78 0.72,-8.22 0.66,4.62 0.72,3.6 0.6,7.62 0.72,1.92 0.72,-9.54 0.66,-3.6 0.72,-11.16 0.66,6.54 0.72,8.22 0.66,-25.92 0.72,0 0.66,28.86 0.72,-2.94 0.6,7.62 0.72,-7.62 0.66,-25.92 0.72,17.7 0.66,11.16 0.72,4.68 0.66,-2.16 0.72,-9.06 0.66,-4.62 0.72,8.22 0.6,5.46 0.72,-13.68 0.72,8.22 0.66,-14.76 0.72,0 0.66,-11.16 0.72,22.32 0.66,0 1.38,3.6 0.72,-8.22 0.6,11.16 0.72,0 0.66,-17.7 0.72,17.7 0.66,-11.16 1.38,0 0.72,8.22 0.66,-14.76 0.72,20.22 1.32,-31.38 0.72,11.16 0.66,0 0.72,22.38 0.66,-7.62 0.72,-14.76 0.66,11.16 0.72,0 0.66,6.54 0.72,2.52 0.66,-2.52 0.72,-6.54 0.6,6.54 0.72,0 0.66,-6.54 0.72,6.54 0.66,2.52 0.72,-2.52 0.66,-17.7 0.72,17.7 0.66,4.68 0.72,-11.22 0.72,11.22 0.6,0 0.72,-2.16 0.66,7.32 0.72,1.44 0.66,0 0.72,2.4 0.66,4.08 0.72,0.84 0.66,5.7 0.72,-4.02 0.6,3.42 0.72,0 0.66,-4.26 0.72,2.28 0.66,7.26 0.72,-4.68 0.66,6.3 0.72,-4.08 0.66,-0.48 0.72,-1.2 0.72,2.16 0.6,7.86 0.72,-1.26 0.66,3 0.72,-2.4 0.66,3.96 0.72,0 0.66,1.74 0.72,0 0.66,-0.9 0.72,-2.88 0.6,0.48 0.72,3.3 0.66,0 0.72,2.52 0.66,-3.42 0.72,4.14 0.66,8.7 0.72,5.76 0.66,9.24 1.44,20.88 0.6,5.1 0.72,1.8 0.66,-0.78 0.72,1.74 0.66,-0.96 1.38,0 0.72,-1.26 0.66,0 0.72,-2.28 0.6,-1.26 0.72,-0.66 0.66,-1.44 0.72,-2.46 0.66,-2.58 0.72,-5.4 0.66,-4.98 0.72,0.96 0.66,0.84 0.72,-4.74 0.72,-2.52 0.6,-0.72 0.72,0 0.66,-3.18 0.72,-5.34 0.66,-2.58 0.72,-3.18 0.66,1.68 0.72,-4.74 0.66,-2.22 0.72,0 0.6,-0.66 0.72,-2.76 0.66,-1.5 0.72,-1.74 0.66,-3.78 0.72,-2.52 0.66,-3 0.72,-0.78 0.66,-0.84 0.72,1.62 0.72,-4.08 0.6,4.92 0.72,-0.84 0.66,-0.78 0.72,0 0.66,-9.54 0.72,10.32 0.66,-0.78 0.72,-1.8 0.66,-10.26 0.72,5.28 0.6,-1.32 0.72,4.32 0.66,-12.36 0.72,8.76 0.66,-9.9 0.72,10.5 0.66,-6.18 0.72,0 0.66,-8.58 0.72,4.26 0.72,2.34 0.6,2.88 0.72,-11.16 0.66,7.08 0.72,-1.14 0.66,4.32 0.72,-4.32 0.66,5.22 0.72,-4.08 0.66,-3.84 0.72,12.6 0.6,-14.16 0.72,12.72 0.66,-11.16 0.72,5.04 0.66,-5.04 0.72,1.44 0.66,5.58 0.72,-10.26 0.66,1.68 0.72,-1.68 0.72,4.68 0.6,0 0.72,-14.22 0.66,16.62 0.72,-9 0.66,9 0.72,-3.84 0.66,-3.24 0.72,7.08 0.66,-1.14 0.72,-4.26 0.6,0 0.72,3 0.66,-1.44 0.72,5.04 0.66,-5.04 0.72,7.92 0.66,-7.92 0.72,-12.78 0.66,11.22 0.72,6.6 0.72,-1.2 0.6,4.08 0.72,-2.88 0.66,-5.04 0.72,7.92 0.66,-6.48 0.72,1.26 0.66,-2.7 0.72,7.02 0.66,-10.26 0.72,3.24 0.6,7.02 0.72,-4.32 0.66,-7.86 0.72,5.16 0.66,-16.38 0.72,25.14 0.66,-8.76 0.72,0 0.66,-5.16 0.72,-11.22 0.72,19.08 0.6,-1.26 0.72,3.6 0.66,0.96 0.72,-0.96 0.66,-3.6 0.72,-14.22 0.66,12.78 0.72,0 0.66,-3.24 0.72,-4.08 0.6,0 0.72,13.32 0.66,-11.16 0.72,11.16 0.66,-13.32 0.72,5.76 0.66,6.6 0.72,-2.34 0.66,1.14 0.72,6.6 0.72,-7.74 0.6,0 0.72,-7.86 0.66,5.16 0.72,-3.24 0.66,5.94 0.72,1.14 0.66,-2.4 0.72,-3 0.66,-3.6 0.72,1.92 0.6,0 0.72,1.68 0.66,3 0.72,-1.44 0.66,-9.84 0.72,6.6 0.66,4.68 0.72,10.44 0.66,-3.96 0.72,6.54 0.72,-3.3 0.6,1.44 0.72,-2.16 0.66,4.02 0.72,-4.02 0.66,-4.44 0.72,4.44 0.66,-5.4 0.72,-5.04 0.66,3.84 0.72,1.2 0.6,3.72 0.72,-10.32 0.66,3 0.72,6.48 0.66,-5.22 0.72,-2.7 0.66,6 0.72,0 0.66,-4.56 0.72,14.16 0.72,-3 0.6,4.56 0.72,-4.56 0.66,-6.6 0.72,-7.56 0.66,3 0.72,-6.6 0.66,11.16 0.72,-13.32 0.66,-5.46 0.72,5.46 0.6,5.76 0.72,0 0.66,3 0.72,-6.6 0.66,3.6 0.72,6.6 0.66,-3.6 0.72,-1.44 0.66,6 0.72,-3.3 0.72,4.32 0.6,2.58 0.72,-11.16 0.66,6.6 0.72,8.16 0.66,-6.18 0.72,-1.98 0.66,8.82 0.72,-3.42 0.66,1.44 0.72,-0.72 0.6,7.98 0.72,-0.96 0.66,2.58 0.72,-0.78 0.66,3.78 0.72,0 0.66,1.26 0.72,-0.66 0.66,-7.2 0.72,18.9 0.72,11.1 0.6,12.96 0.72,5.82 0.66,3.54 0.72,3.36 0.66,1.74 0.72,3.3 0.66,1.44 0.72,2.52 0.66,0.6 0.72,1.56 0.6,2.58 0.72,2.46 0.66,1.44 0.72,1.92 0.66,1.2 0.72,1.08 0.66,-2.28 0.72,-8.4 0.66,-4.02 0.72,-2.1 0.72,-4.26 0.6,-5.46 0.72,-11.16 0.66,-12.6 0.72,-4.26 0.66,-1.2 0.72,2.22 0.66,-3.3 0.72,-6.06 0.66,-1.74 0.72,-4.38 0.6,-4.08 0.72,-7.74 0.66,-2.7 0.72,0.72 0.66,0.72 0.72,-9.9 0.66,-4.26 0.72,1.56 0.66,-12.78 0.72,18.78 0.72,-33.54 0.6,25.98 0.72,-25.98 0.66,11.16 0.72,6.54 0.66,-6.54 0.72,3.6 0.66,-8.22 0.72,-6.54 0.66,20.22 0.72,-20.22 1.32,-11.16 0.66,28.86 1.38,-6.54 0.72,-22.32 1.38,11.16 1.38,-11.16 1.32,0 0.72,17.7 0.66,-17.7 0.72,0 0.66,11.16 0.72,11.16 0.66,-11.16 0.72,0 0.66,-11.16 2.7,0 1.38,22.32 0.72,-22.32 0.66,11.16 1.38,0 0.72,-11.16 1.32,0 0.72,11.16 1.38,-11.16 1.38,0 0.66,11.16 0.72,-11.16 0.66,17.7 0.72,-6.54 0.6,0 0.72,6.54 0.66,-6.54 1.38,-11.16 0.72,0 0.66,11.16 0.72,-11.16 1.38,0 0.72,17.7 0.6,-17.7 0.72,0 0.66,17.7 0.72,0 0.66,-6.54 0.72,6.54 0.66,0 0.72,4.62 0.66,0 0.72,-22.32 0.6,0 0.72,11.16 0.66,-11.16 0.72,0 0.66,11.16 0.72,0 0.66,-11.16 0.72,11.16 1.38,-11.16 2.04,0 0.66,11.16 0.72,6.54 0.66,-17.7 4.08,0 0.72,17.7 0.66,-6.54 1.38,0 1.38,-11.16 1.38,0 0.72,11.16 0.72,-11.16 0.6,0 0.72,11.16 0.66,-11.16 2.76,0 1.38,17.7 1.32,-6.54 0.72,-11.16 1.38,0 0.66,11.16 1.38,-11.16 1.38,0" />
            <path
               inkscape:connector-curvature="0"
               id="path450"
               style="fill:none;stroke:#000000;stroke-width:0.86299998;stroke-linecap:round;stroke-linejoin:round;stroke-miterlimit:10;stroke-dasharray:none;stroke-opacity:1"
               d="m 516.42,205.1 0.78,0" />
            <text
               id="text452"
               style="font-variant:normal;font-weight:normal;font-size:17.99900055px;line-height:125%;font-family:'Times New Roman';-inkscape-font-specification:TimesNewRoman;writing-mode:lr-tb;fill:#000000;fill-opacity:1;fill-rule:nonzero;stroke:none"
               transform="matrix(0.99788322,0,0,-1,184.2,148.1603)"
               sodipodi:linespacing="125%">
              <tspan
                 id="tspan454"
                 sodipodi:role="line"
                 y="0"
                 x="0 6.0116658 15.029165 24.046663 28.564413 37.581913">-63.81</tspan>
              <tspan
                 id="tspan456"
                 sodipodi:role="line"
                 y="19.98069"
                 x="0 13.526249 22.540148 27.054296 36.068195"
                 dx="9.0396776 4.5198383 -4.1575685e-09 3.6158707">3.38</tspan>
              <tspan
                 id="tspan458"
                 sodipodi:role="line"
                 y="-1.4399199"
                 x="121.93783 127.93869 136.94539 145.95209 150.45905 159.46574">-68.32</tspan>
              <tspan
                 id="tspan460"
                 sodipodi:role="line"
                 y="18.54077"
                 x="121.93783 135.40648 144.42038 148.93452 157.94843"
                 dx="9.0396776 3.6158705 -0.90396762 1.8079352">0.56</tspan>
              <tspan
                 id="tspan462"
                 sodipodi:role="line"
                 y="-0.77935672"
                 x="250.1897 256.18518 265.18646 274.18777 278.68933">-61.4</tspan>
              <tspan
                 id="tspan464"
                 sodipodi:role="line"
                 y="19.201332"
                 x="250.1897 254.69846 263.71414 272.72986 277.24579 286.26151"
                 dx="4.5198383 7.2317419 5.4238062 0 3.6158707">21.79</tspan>
              <tspan
                 id="tspan466"
                 sodipodi:role="line"
                 y="-19.919493"
                 x="-101.55576 -88.511879">UT</tspan>
              <tspan
                 id="tspan468"
                 sodipodi:role="line"
                 y="0.061196599"
                 x="-101.55576 -89.485626 -76.425552 -65.480362 -57.479805">CGLat</tspan>
              <tspan
                 id="tspan470"
                 sodipodi:role="line"
                 y="20.101282"
                 x="-101.55576 -85.444855 -74.499664">MLT</tspan>
            </text>
            <path
               inkscape:connector-curvature="0"
               id="path472"
               style="fill:none;stroke:#000000;stroke-width:0.86299998;stroke-linecap:round;stroke-linejoin:round;stroke-miterlimit:10;stroke-dasharray:none;stroke-opacity:1"
               d="m 99,353.36 433.68,0 m -0.3,-147.6 0,148.08 m -117.3,-1.44 0,-170.4" />
            <text
               id="text474"
               style="font-variant:normal;font-weight:normal;font-size:17.99900055px;font-family:'Times New Roman';-inkscape-font-specification:TimesNewRoman;writing-mode:lr-tb;fill:#000000;fill-opacity:1;fill-rule:nonzero;stroke:none"
               transform="matrix(0.99788322,0,0,-1,360.66,169.0403)">
              <tspan
                 id="tspan476"
                 sodipodi:role="line"
                 y="0"
                 x="0 9.0120993 18.024199 23.04052 32.05262 41.06472 46.081039 55.09314 64.10524">03:45:58</tspan>
              <tspan
                 id="tspan478"
                 sodipodi:role="line"
                 y="20.040087"
                 x="4.4493527 10.459219 19.474918 28.490618 33.006565">-64.7</tspan>
              <tspan
                 id="tspan480"
                 sodipodi:role="line"
                 y="40.020775"
                 x="0 9.0192986 18.020599 27.021898 31.523449">22.8</tspan>
            </text>
            <path
               inkscape:connector-curvature="0"
               id="path482"
               style="fill:none;stroke:#000000;stroke-width:0.86299998;stroke-linecap:round;stroke-linejoin:round;stroke-miterlimit:10;stroke-dasharray:none;stroke-opacity:1"
               d="m 358.14,188.6 73.32,0 0,-64.68 -73.32,0 0,64.68 z m -114.06,166.26 0,-158.52" />
            <text
               id="text484"
               style="font-variant:normal;font-weight:normal;font-size:17.99900055px;font-family:'Times New Roman';-inkscape-font-specification:TimesNewRoman;writing-mode:lr-tb;fill:#000000;fill-opacity:1;fill-rule:nonzero;stroke:none"
               transform="matrix(0.99788322,0,0,-1,98.22,372.5603)">
              <tspan
                 id="tspan486"
                 sodipodi:role="line"
                 y="0"
                 x="0 16.024509 24.039465 33.062363 37.527916 46.550816 51.073963 55.539513 64.562416 73.585312 82.608208 91.631111 96.154259 100.61981 113.63849 126.65717 139.67584 152.69452 157.16006 166.18297">May 1, 1997, NOAA 12</tspan>
            </text>
            <text
               id="text488"
               style="font-variant:normal;font-weight:normal;font-size:15.98509979px;font-family:'Times New Roman';-inkscape-font-specification:TimesNewRoman;writing-mode:lr-tb;fill:#000000;fill-opacity:1;fill-rule:nonzero;stroke:none"
               transform="matrix(1,0,0,-0.99988114,201,248.8403)">
              <tspan
                 id="tspan490"
                 y="0"
                 x="0">j</tspan>
            </text>
            <text
               id="text492"
               style="font-variant:normal;font-weight:normal;font-size:9.69869995px;font-family:'Times New Roman';-inkscape-font-specification:TimesNewRoman;writing-mode:lr-tb;fill:#000000;fill-opacity:1;fill-rule:nonzero;stroke:none"
               transform="matrix(1,0,0,-0.99473125,205.5,244.8803)">
              <tspan
                 id="tspan494"
                 y="0"
                 x="0">P</tspan>
            </text>
            <text
               id="text496"
               style="font-variant:normal;font-weight:normal;font-size:15.98509979px;font-family:'Times New Roman';-inkscape-font-specification:TimesNewRoman;writing-mode:lr-tb;fill:#000000;fill-opacity:1;fill-rule:nonzero;stroke:none"
               transform="matrix(1,0,0,-0.99988114,119.1,266.7203)">
              <tspan
                 id="tspan498"
                 y="0"
                 x="0">j</tspan>
            </text>
            <text
               id="text500"
               style="font-variant:normal;font-weight:normal;font-size:9.69869995px;font-family:'Times New Roman';-inkscape-font-specification:TimesNewRoman;writing-mode:lr-tb;fill:#000000;fill-opacity:1;fill-rule:nonzero;stroke:none"
               transform="matrix(1,0,0,-0.99473125,123.54,262.7603)">
              <tspan
                 id="tspan502"
                 y="0"
                 x="0">T</tspan>
            </text>
            <text
               id="text504"
               style="font-variant:normal;font-weight:normal;font-size:14.00930023px;font-family:'Times New Roman';-inkscape-font-specification:TimesNewRoman;writing-mode:lr-tb;fill:#000000;fill-opacity:1;fill-rule:nonzero;stroke:none"
               transform="matrix(1,0,0,-0.99700199,106.8,333.6804)">
              <tspan
                 id="tspan506"
                 sodipodi:role="line"
                 y="0"
                 x="0 6.248148 17.175402 24.208071 28.050821 35.083488">empty</tspan>
              <tspan
                 id="tspan508"
                 sodipodi:role="line"
                 y="14.984347"
                 x="0 3.9520235 10.911843 16.309628 21.767651 25.3078 31.490105 38.510166 45.469986">loss cone</tspan>
              <tspan
                 id="tspan510"
                 sodipodi:role="line"
                 y="102.36596"
                 x="122.51974 127.18763 131.08502 134.98241 138.87979 142.77718 149.78464 156.79208">filling</tspan>
              <tspan
                 id="tspan512"
                 sodipodi:role="line"
                 y="117.41054"
                 x="122.51974 126.44514 133.48061 138.87839 144.33641 147.87657 154.05887 161.01869 168.05417">loss cone</tspan>
            </text>
            <path
               inkscape:connector-curvature="0"
               id="path514"
               style="fill:#000000;fill-opacity:1;fill-rule:evenodd;stroke:none"
               d="m 241.38,262.28 -2.04,-0.12 0.06,-0.12 -2.52,0 0,0.12 -0.06,0.12 -0.72,9.42" />
            <path
               inkscape:connector-curvature="0"
               id="path516"
               style="fill:#000000;fill-opacity:1;fill-rule:evenodd;stroke:none"
               d="m 238.92,262.04 -2.04,-0.18 0,0.18" />
            <path
               inkscape:connector-curvature="0"
               id="path518"
               style="fill:#000000;fill-opacity:1;fill-rule:evenodd;stroke:none"
               d="m 239.4,262.04 5.76,-18.36 -0.42,-0.06 0,0.06 -5.82,18.36" />
            <path
               inkscape:connector-curvature="0"
               id="path520"
               style="fill:none;stroke:#000000;stroke-width:0.06;stroke-linecap:round;stroke-linejoin:round;stroke-miterlimit:10;stroke-dasharray:none;stroke-opacity:1"
               d="m 236.04,271.76 5.28,-9.42 -2.04,-0.12 5.88,-18.48 -0.48,-0.06 -5.82,18.42 -1.98,-0.18 -0.84,9.9" />
            <text
               id="text522"
               style="font-variant:normal;font-weight:normal;font-size:14.00930023px;font-family:'Times New Roman';-inkscape-font-specification:TimesNewRoman;writing-mode:lr-tb;fill:#000000;fill-opacity:1;fill-rule:nonzero;stroke:none"
               transform="matrix(1,0,0,-0.99700199,310.26,279.8604)">
              <tspan
                 id="tspan524"
                 sodipodi:role="line"
                 y="0"
                 x="0 7.0803003 14.04012 17.919296 24.124014 28.773701 32.31385 38.51857 44.723289">polar cap</tspan>
              <tspan
                 id="tspan526"
                 sodipodi:role="line"
                 y="-41.704285"
                 x="-85.319435 -80.638931">IB</tspan>
              <tspan
                 id="tspan528"
                 sodipodi:role="line"
                 y="-41.583805"
                 x="115.32036 120.00086">IB</tspan>
            </text>
          </g>
        </g>
      </g>
    </g>
  </g>
</svg>
