<?xml version="1.0" encoding="UTF-8" standalone="no"?>
<!-- Created with Inkscape (http://www.inkscape.org/) -->

<svg
   xmlns:dc="http://purl.org/dc/elements/1.1/"
   xmlns:cc="http://creativecommons.org/ns#"
   xmlns:rdf="http://www.w3.org/1999/02/22-rdf-syntax-ns#"
   xmlns:svg="http://www.w3.org/2000/svg"
   xmlns="http://www.w3.org/2000/svg"
   xmlns:sodipodi="http://sodipodi.sourceforge.net/DTD/sodipodi-0.dtd"
   xmlns:inkscape="http://www.inkscape.org/namespaces/inkscape"
   id="svg2"
   version="1.1"
   inkscape:version="0.91 r13725"
   xml:space="preserve"
   width="213.20596"
   height="480.16873"
   viewBox="0 0 213.20596 480.16873"
   sodipodi:docname="kappa_kde.svg"><metadata
     id="metadata8"><rdf:RDF><cc:Work
         rdf:about=""><dc:format>image/svg+xml</dc:format><dc:type
           rdf:resource="http://purl.org/dc/dcmitype/StillImage" /><dc:title></dc:title></cc:Work></rdf:RDF></metadata><defs
     id="defs6"><clipPath
       clipPathUnits="userSpaceOnUse"
       id="clipPath86"><path
         d="m 51.48,287.86154 112.2,0 0,88.33846 -112.2,0 0,-88.33846 z"
         id="path88"
         inkscape:connector-curvature="0" /></clipPath><clipPath
       clipPathUnits="userSpaceOnUse"
       id="clipPath96"><path
         d="m 51.48,287.86154 112.2,0 0,88.33846 -112.2,0 0,-88.33846 z"
         id="path98"
         inkscape:connector-curvature="0" /></clipPath><clipPath
       clipPathUnits="userSpaceOnUse"
       id="clipPath196"><path
         d="m 51.48,159.77077 112.2,0 0,88.33846 -112.2,0 0,-88.33846 z"
         id="path198"
         inkscape:connector-curvature="0" /></clipPath><clipPath
       clipPathUnits="userSpaceOnUse"
       id="clipPath206"><path
         d="m 51.48,159.77077 112.2,0 0,88.33846 -112.2,0 0,-88.33846 z"
         id="path208"
         inkscape:connector-curvature="0" /></clipPath><clipPath
       clipPathUnits="userSpaceOnUse"
       id="clipPath302"><path
         d="m 51.48,31.68 112.2,0 0,88.33846 -112.2,0 0,-88.33846 z"
         id="path304"
         inkscape:connector-curvature="0" /></clipPath><clipPath
       clipPathUnits="userSpaceOnUse"
       id="clipPath312"><path
         d="m 51.48,31.68 112.2,0 0,88.33846 -112.2,0 0,-88.33846 z"
         id="path314"
         inkscape:connector-curvature="0" /></clipPath><clipPath
       clipPathUnits="userSpaceOnUse"
       id="clipPath380"><path
         d="m 163.68,287.86154 112.2,0 0,88.33846 -112.2,0 0,-88.33846 z"
         id="path382"
         inkscape:connector-curvature="0" /></clipPath><clipPath
       clipPathUnits="userSpaceOnUse"
       id="clipPath390"><path
         d="m 163.68,287.86154 112.2,0 0,88.33846 -112.2,0 0,-88.33846 z"
         id="path392"
         inkscape:connector-curvature="0" /></clipPath><clipPath
       clipPathUnits="userSpaceOnUse"
       id="clipPath466"><path
         d="m 163.68,159.77077 112.2,0 0,88.33846 -112.2,0 0,-88.33846 z"
         id="path468"
         inkscape:connector-curvature="0" /></clipPath><clipPath
       clipPathUnits="userSpaceOnUse"
       id="clipPath476"><path
         d="m 163.68,159.77077 112.2,0 0,88.33846 -112.2,0 0,-88.33846 z"
         id="path478"
         inkscape:connector-curvature="0" /></clipPath><clipPath
       clipPathUnits="userSpaceOnUse"
       id="clipPath548"><path
         d="m 163.68,31.68 112.2,0 0,88.33846 -112.2,0 0,-88.33846 z"
         id="path550"
         inkscape:connector-curvature="0" /></clipPath><clipPath
       clipPathUnits="userSpaceOnUse"
       id="clipPath558"><path
         d="m 163.68,31.68 112.2,0 0,88.33846 -112.2,0 0,-88.33846 z"
         id="path560"
         inkscape:connector-curvature="0" /></clipPath><clipPath
       clipPathUnits="userSpaceOnUse"
       id="clipPath626"><path
         d="m 275.88,287.86154 112.2,0 0,88.33846 -112.2,0 0,-88.33846 z"
         id="path628"
         inkscape:connector-curvature="0" /></clipPath><clipPath
       clipPathUnits="userSpaceOnUse"
       id="clipPath636"><path
         d="m 275.88,287.86154 112.2,0 0,88.33846 -112.2,0 0,-88.33846 z"
         id="path638"
         inkscape:connector-curvature="0" /></clipPath><clipPath
       clipPathUnits="userSpaceOnUse"
       id="clipPath712"><path
         d="m 275.88,159.77077 112.2,0 0,88.33846 -112.2,0 0,-88.33846 z"
         id="path714"
         inkscape:connector-curvature="0" /></clipPath><clipPath
       clipPathUnits="userSpaceOnUse"
       id="clipPath722"><path
         d="m 275.88,159.77077 112.2,0 0,88.33846 -112.2,0 0,-88.33846 z"
         id="path724"
         inkscape:connector-curvature="0" /></clipPath><clipPath
       clipPathUnits="userSpaceOnUse"
       id="clipPath794"><path
         d="m 275.88,31.68 112.2,0 0,88.33846 -112.2,0 0,-88.33846 z"
         id="path796"
         inkscape:connector-curvature="0" /></clipPath><clipPath
       clipPathUnits="userSpaceOnUse"
       id="clipPath804"><path
         d="m 275.88,31.68 112.2,0 0,88.33846 -112.2,0 0,-88.33846 z"
         id="path806"
         inkscape:connector-curvature="0" /></clipPath></defs><sodipodi:namedview
     pagecolor="#ffffff"
     bordercolor="#666666"
     borderopacity="1"
     objecttolerance="10"
     gridtolerance="10"
     guidetolerance="10"
     inkscape:pageopacity="0"
     inkscape:pageshadow="2"
     inkscape:window-width="1023"
     inkscape:window-height="681"
     id="namedview4"
     showgrid="false"
     fit-margin-top="0"
     fit-margin-left="0"
     fit-margin-right="0"
     fit-margin-bottom="0"
     inkscape:zoom="1.3485026"
     inkscape:cx="247.5"
     inkscape:cy="44.507848"
     inkscape:window-x="138"
     inkscape:window-y="0"
     inkscape:window-maximized="0"
     inkscape:current-layer="g10" /><g
     id="g10"
     inkscape:groupmode="layer"
     inkscape:label="kappa_kde"
     transform="matrix(1.25,0,0,-1.25,0,480.16874)"><path
       d="m 0,0 170.56477,0 0,384.13499 L 0,384.13499 0,0 Z"
       style="fill:#ffffff;fill-opacity:1;fill-rule:nonzero;stroke:none"
       id="path12"
       inkscape:connector-curvature="0" /><path
       d="m 51.48,287.86154 112.2,0 0,88.33846 -112.2,0 0,-88.33846 z"
       style="fill:#ffffff;fill-opacity:1;fill-rule:nonzero;stroke:none"
       id="path14"
       inkscape:connector-curvature="0" /><path
       d="m 51.48,287.86154 0,-3.5"
       style="fill:#000000;fill-opacity:1;fill-rule:nonzero;stroke:#000000;stroke-width:0.80000001;stroke-linecap:butt;stroke-linejoin:round;stroke-miterlimit:10;stroke-dasharray:none;stroke-opacity:1"
       id="path16"
       inkscape:connector-curvature="0" /><path
       d="m 73.92,287.86154 0,-3.5"
       style="fill:#000000;fill-opacity:1;fill-rule:nonzero;stroke:#000000;stroke-width:0.80000001;stroke-linecap:butt;stroke-linejoin:round;stroke-miterlimit:10;stroke-dasharray:none;stroke-opacity:1"
       id="path18"
       inkscape:connector-curvature="0" /><text
       transform="matrix(1,0,0,-1,68.82625,274.78341)"
       style="font-variant:normal;font-weight:normal;font-size:8px;font-family:'DejaVu Sans';-inkscape-font-specification:DejaVuSans;writing-mode:lr-tb;fill:#000000;fill-opacity:1;fill-rule:nonzero;stroke:none"
       id="text20"><tspan
         x="0 5.0879998"
         y="0"
         sodipodi:role="line"
         id="tspan22">15</tspan></text>
<path
       d="m 96.36,287.86154 0,-3.5"
       style="fill:#000000;fill-opacity:1;fill-rule:nonzero;stroke:#000000;stroke-width:0.80000001;stroke-linecap:butt;stroke-linejoin:round;stroke-miterlimit:10;stroke-dasharray:none;stroke-opacity:1"
       id="path24"
       inkscape:connector-curvature="0" /><text
       transform="matrix(1,0,0,-1,91.26625,274.78341)"
       style="font-variant:normal;font-weight:normal;font-size:8px;font-family:'DejaVu Sans';-inkscape-font-specification:DejaVuSans;writing-mode:lr-tb;fill:#000000;fill-opacity:1;fill-rule:nonzero;stroke:none"
       id="text26"><tspan
         x="0 5.0879998"
         y="0"
         sodipodi:role="line"
         id="tspan28">30</tspan></text>
<path
       d="m 118.8,287.86154 0,-3.5"
       style="fill:#000000;fill-opacity:1;fill-rule:nonzero;stroke:#000000;stroke-width:0.80000001;stroke-linecap:butt;stroke-linejoin:round;stroke-miterlimit:10;stroke-dasharray:none;stroke-opacity:1"
       id="path30"
       inkscape:connector-curvature="0" /><text
       transform="matrix(1,0,0,-1,113.70625,274.78341)"
       style="font-variant:normal;font-weight:normal;font-size:8px;font-family:'DejaVu Sans';-inkscape-font-specification:DejaVuSans;writing-mode:lr-tb;fill:#000000;fill-opacity:1;fill-rule:nonzero;stroke:none"
       id="text32"><tspan
         x="0 5.0879998"
         y="0"
         sodipodi:role="line"
         id="tspan34">45</tspan></text>
<path
       d="m 141.24,287.86154 0,-3.5"
       style="fill:#000000;fill-opacity:1;fill-rule:nonzero;stroke:#000000;stroke-width:0.80000001;stroke-linecap:butt;stroke-linejoin:round;stroke-miterlimit:10;stroke-dasharray:none;stroke-opacity:1"
       id="path36"
       inkscape:connector-curvature="0" /><text
       transform="matrix(1,0,0,-1,136.14625,274.78341)"
       style="font-variant:normal;font-weight:normal;font-size:8px;font-family:'DejaVu Sans';-inkscape-font-specification:DejaVuSans;writing-mode:lr-tb;fill:#000000;fill-opacity:1;fill-rule:nonzero;stroke:none"
       id="text38"><tspan
         x="0 5.0879998"
         y="0"
         sodipodi:role="line"
         id="tspan40">60</tspan></text>
<path
       d="m 163.68,287.86154 0,-3.5"
       style="fill:#000000;fill-opacity:1;fill-rule:nonzero;stroke:#000000;stroke-width:0.80000001;stroke-linecap:butt;stroke-linejoin:round;stroke-miterlimit:10;stroke-dasharray:none;stroke-opacity:1"
       id="path42"
       inkscape:connector-curvature="0" /><g
       id="g44"
       transform="translate(104.58,263.03341)"><text
         transform="matrix(1,0,0,-1,0,0.171875)"
         style="font-variant:normal;font-weight:normal;font-size:8px;font-family:'DejaVu Sans';-inkscape-font-specification:DejaVuSans;writing-mode:lr-tb;fill:#000000;fill-opacity:1;fill-rule:nonzero;stroke:none"
         id="text46"><tspan
           x="0"
           y="0"
           id="tspan48">K</tspan></text>
</g><path
       d="m 51.48,291.87692 -3.5,0"
       style="fill:#000000;fill-opacity:1;fill-rule:nonzero;stroke:#000000;stroke-width:0.80000001;stroke-linecap:butt;stroke-linejoin:round;stroke-miterlimit:10;stroke-dasharray:none;stroke-opacity:1"
       id="path50"
       inkscape:connector-curvature="0" /><text
       transform="matrix(1,0,0,-1,26.651875,288.83786)"
       style="font-variant:normal;font-weight:normal;font-size:8px;font-family:'DejaVu Sans';-inkscape-font-specification:DejaVuSans;writing-mode:lr-tb;fill:#000000;fill-opacity:1;fill-rule:nonzero;stroke:none"
       id="text52"><tspan
         x="0 5.0879998 7.632 12.72"
         y="0"
         sodipodi:role="line"
         id="tspan54">0.00</tspan></text>
<path
       d="m 51.48,316.24063 -3.5,0"
       style="fill:#000000;fill-opacity:1;fill-rule:nonzero;stroke:#000000;stroke-width:0.80000001;stroke-linecap:butt;stroke-linejoin:round;stroke-miterlimit:10;stroke-dasharray:none;stroke-opacity:1"
       id="path56"
       inkscape:connector-curvature="0" /><text
       transform="matrix(1,0,0,-1,26.651875,313.20156)"
       style="font-variant:normal;font-weight:normal;font-size:8px;font-family:'DejaVu Sans';-inkscape-font-specification:DejaVuSans;writing-mode:lr-tb;fill:#000000;fill-opacity:1;fill-rule:nonzero;stroke:none"
       id="text58"><tspan
         x="0 5.0879998 7.632 12.72"
         y="0"
         sodipodi:role="line"
         id="tspan60">0.02</tspan></text>
<path
       d="m 51.48,340.60433 -3.5,0"
       style="fill:#000000;fill-opacity:1;fill-rule:nonzero;stroke:#000000;stroke-width:0.80000001;stroke-linecap:butt;stroke-linejoin:round;stroke-miterlimit:10;stroke-dasharray:none;stroke-opacity:1"
       id="path62"
       inkscape:connector-curvature="0" /><text
       transform="matrix(1,0,0,-1,26.651875,337.56527)"
       style="font-variant:normal;font-weight:normal;font-size:8px;font-family:'DejaVu Sans';-inkscape-font-specification:DejaVuSans;writing-mode:lr-tb;fill:#000000;fill-opacity:1;fill-rule:nonzero;stroke:none"
       id="text64"><tspan
         x="0 5.0879998 7.632 12.72"
         y="0"
         sodipodi:role="line"
         id="tspan66">0.04</tspan></text>
<path
       d="m 51.48,364.96803 -3.5,0"
       style="fill:#000000;fill-opacity:1;fill-rule:nonzero;stroke:#000000;stroke-width:0.80000001;stroke-linecap:butt;stroke-linejoin:round;stroke-miterlimit:10;stroke-dasharray:none;stroke-opacity:1"
       id="path68"
       inkscape:connector-curvature="0" /><text
       transform="matrix(1,0,0,-1,26.651875,361.92897)"
       style="font-variant:normal;font-weight:normal;font-size:8px;font-family:'DejaVu Sans';-inkscape-font-specification:DejaVuSans;writing-mode:lr-tb;fill:#000000;fill-opacity:1;fill-rule:nonzero;stroke:none"
       id="text70"><tspan
         x="0 5.0879998 7.632 12.72"
         y="0"
         sodipodi:role="line"
         id="tspan72">0.06</tspan></text>
<text
       transform="matrix(0,1,1,0,12.014375,310.72608)"
       style="font-variant:normal;font-weight:normal;font-size:8px;font-family:'DejaVu Sans';-inkscape-font-specification:DejaVuSans;writing-mode:lr-tb;fill:#000000;fill-opacity:1;fill-rule:nonzero;stroke:none"
       id="text74"><tspan
         x="0 4.8239999 8.1120005 13.008 18.087999 22.992001 28.072001 30.296 32.52 34.743999 37.880001"
         y="0"
         sodipodi:role="line"
         id="tspan76">Probability</tspan></text>
<text
       transform="matrix(0,1,1,0,20.98,317.35889)"
       style="font-variant:normal;font-weight:normal;font-size:8px;font-family:'DejaVu Sans';-inkscape-font-specification:DejaVuSans;writing-mode:lr-tb;fill:#000000;fill-opacity:1;fill-rule:nonzero;stroke:none"
       id="text78"><tspan
         x="0 5.0799999 10 15.072 19.24 21.464001 24.6"
         y="0"
         sodipodi:role="line"
         id="tspan80">density</tspan></text>
<g
       id="g82"><g
         id="g84"
         clip-path="url(#clipPath86)"><path
           d="m 51.48,321.87083 3.093233,6.11404 1.968421,3.43311 1.687218,2.52822 1.406015,1.7585 1.406015,1.40675 1.124812,0.85601 1.124812,0.60765 1.124812,0.35485 1.124812,0.10099 1.124812,-0.15067 1.124812,-0.39709 1.124812,-0.63536 1.124812,-0.86272 1.406016,-1.37739 1.406015,-1.67993 1.687218,-2.36329 1.968421,-3.14492 2.81203,-4.97906 7.030075,-12.72555 2.530827,-4.00625 2.249624,-3.12531 1.968421,-2.36759 1.968421,-2.02185 1.968421,-1.68931 1.968421,-1.38135 1.968422,-1.10526 1.96842,-0.8649 2.24962,-0.74117 2.53083,-0.58107 2.81203,-0.40921 3.37444,-0.26086 4.21804,-0.0914 4.78045,0.12957 4.49925,0.34428 4.78045,0.60124 10.12331,1.37884 3.09323,0.14075 3.09324,-0.0805 3.37443,-0.31683 5.06166,-0.73539 6.46767,-0.90062 0.2812,-0.0312 0,0"
           style="fill:none;stroke:#1f77b4;stroke-width:1.5;stroke-linecap:square;stroke-linejoin:round;stroke-miterlimit:10;stroke-dasharray:none;stroke-opacity:1"
           id="path90"
           inkscape:connector-curvature="0" /></g></g><g
       id="g92"><g
         id="g94"
         clip-path="url(#clipPath96)"><path
           d="m 51.48,315.96105 3.093233,4.51744 2.249624,2.92006 1.968421,2.19661 1.687218,1.56791 1.687218,1.24762 1.406015,0.78105 1.406015,0.53826 1.406015,0.29174 1.406015,0.0444 1.406015,-0.20071 1.406016,-0.44073 1.406015,-0.6723 1.687218,-1.09503 1.687218,-1.38191 1.968421,-1.92363 2.249624,-2.51533 3.936842,-4.81794 3.655639,-4.37875 2.530827,-2.70054 2.249624,-2.07842 2.249624,-1.75494 2.249624,-1.45295 2.530827,-1.33647 2.812032,-1.22168 4.21804,-1.55491 7.31128,-2.42801 5.34286,-1.57426 4.21804,-1.02881 3.93685,-0.73908 3.65564,-0.46728 3.65563,-0.25067 4.49925,-0.0655 10.68572,-0.0396 4.49924,-0.31325 8.9985,-0.93608 0.84361,-0.0801 0,0"
           style="fill:none;stroke:#ff7f0e;stroke-width:1.5;stroke-linecap:square;stroke-linejoin:round;stroke-miterlimit:10;stroke-dasharray:none;stroke-opacity:1"
           id="path100"
           inkscape:connector-curvature="0" /></g></g><g
       id="g102"><path
         d="m 51.48,287.86154 0,88.33846"
         style="fill:none;stroke:#000000;stroke-width:0.80000001;stroke-linecap:square;stroke-linejoin:miter;stroke-miterlimit:10;stroke-dasharray:none;stroke-opacity:1"
         id="path104"
         inkscape:connector-curvature="0" /><path
         d="m 163.68,287.86154 0,88.33846"
         style="fill:none;stroke:#000000;stroke-width:0.80000001;stroke-linecap:square;stroke-linejoin:miter;stroke-miterlimit:10;stroke-dasharray:none;stroke-opacity:1"
         id="path106"
         inkscape:connector-curvature="0" /><path
         d="m 51.48,287.86154 112.2,0"
         style="fill:none;stroke:#000000;stroke-width:0.80000001;stroke-linecap:square;stroke-linejoin:miter;stroke-miterlimit:10;stroke-dasharray:none;stroke-opacity:1"
         id="path108"
         inkscape:connector-curvature="0" /><path
         d="m 51.48,376.2 112.2,0"
         style="fill:none;stroke:#000000;stroke-width:0.80000001;stroke-linecap:square;stroke-linejoin:miter;stroke-miterlimit:10;stroke-dasharray:none;stroke-opacity:1"
         id="path110"
         inkscape:connector-curvature="0" /><path
         d="m 51.48,159.77077 112.2,0 0,88.33846 -112.2,0 0,-88.33846 z"
         style="fill:#ffffff;fill-opacity:1;fill-rule:nonzero;stroke:none"
         id="path120"
         inkscape:connector-curvature="0" /><path
         d="m 51.48,159.77077 0,-3.5"
         style="fill:#000000;fill-opacity:1;fill-rule:nonzero;stroke:#000000;stroke-width:0.80000001;stroke-linecap:butt;stroke-linejoin:round;stroke-miterlimit:10;stroke-dasharray:none;stroke-opacity:1"
         id="path122"
         inkscape:connector-curvature="0" /><path
         d="m 73.92,159.77077 0,-3.5"
         style="fill:#000000;fill-opacity:1;fill-rule:nonzero;stroke:#000000;stroke-width:0.80000001;stroke-linecap:butt;stroke-linejoin:round;stroke-miterlimit:10;stroke-dasharray:none;stroke-opacity:1"
         id="path124"
         inkscape:connector-curvature="0" /><text
         transform="matrix(1,0,0,-1,68.82625,146.69264)"
         style="font-variant:normal;font-weight:normal;font-size:8px;font-family:'DejaVu Sans';-inkscape-font-specification:DejaVuSans;writing-mode:lr-tb;fill:#000000;fill-opacity:1;fill-rule:nonzero;stroke:none"
         id="text126"><tspan
           x="0 5.0879998"
           y="0"
           sodipodi:role="line"
           id="tspan128">15</tspan></text>
<path
         d="m 96.36,159.77077 0,-3.5"
         style="fill:#000000;fill-opacity:1;fill-rule:nonzero;stroke:#000000;stroke-width:0.80000001;stroke-linecap:butt;stroke-linejoin:round;stroke-miterlimit:10;stroke-dasharray:none;stroke-opacity:1"
         id="path130"
         inkscape:connector-curvature="0" /><text
         transform="matrix(1,0,0,-1,91.26625,146.69264)"
         style="font-variant:normal;font-weight:normal;font-size:8px;font-family:'DejaVu Sans';-inkscape-font-specification:DejaVuSans;writing-mode:lr-tb;fill:#000000;fill-opacity:1;fill-rule:nonzero;stroke:none"
         id="text132"><tspan
           x="0 5.0879998"
           y="0"
           sodipodi:role="line"
           id="tspan134">30</tspan></text>
<path
         d="m 118.8,159.77077 0,-3.5"
         style="fill:#000000;fill-opacity:1;fill-rule:nonzero;stroke:#000000;stroke-width:0.80000001;stroke-linecap:butt;stroke-linejoin:round;stroke-miterlimit:10;stroke-dasharray:none;stroke-opacity:1"
         id="path136"
         inkscape:connector-curvature="0" /><text
         transform="matrix(1,0,0,-1,113.70625,146.69264)"
         style="font-variant:normal;font-weight:normal;font-size:8px;font-family:'DejaVu Sans';-inkscape-font-specification:DejaVuSans;writing-mode:lr-tb;fill:#000000;fill-opacity:1;fill-rule:nonzero;stroke:none"
         id="text138"><tspan
           x="0 5.0879998"
           y="0"
           sodipodi:role="line"
           id="tspan140">45</tspan></text>
<path
         d="m 141.24,159.77077 0,-3.5"
         style="fill:#000000;fill-opacity:1;fill-rule:nonzero;stroke:#000000;stroke-width:0.80000001;stroke-linecap:butt;stroke-linejoin:round;stroke-miterlimit:10;stroke-dasharray:none;stroke-opacity:1"
         id="path142"
         inkscape:connector-curvature="0" /><text
         transform="matrix(1,0,0,-1,136.14625,146.69264)"
         style="font-variant:normal;font-weight:normal;font-size:8px;font-family:'DejaVu Sans';-inkscape-font-specification:DejaVuSans;writing-mode:lr-tb;fill:#000000;fill-opacity:1;fill-rule:nonzero;stroke:none"
         id="text144"><tspan
           x="0 5.0879998"
           y="0"
           sodipodi:role="line"
           id="tspan146">60</tspan></text>
<path
         d="m 163.68,159.77077 0,-3.5"
         style="fill:#000000;fill-opacity:1;fill-rule:nonzero;stroke:#000000;stroke-width:0.80000001;stroke-linecap:butt;stroke-linejoin:round;stroke-miterlimit:10;stroke-dasharray:none;stroke-opacity:1"
         id="path148"
         inkscape:connector-curvature="0" /><g
         id="g150"
         transform="translate(102.08,134.69264)"><text
           transform="matrix(1,0,0,-1,0,0.78125)"
           style="font-variant:normal;font-weight:normal;font-size:8px;font-family:'DejaVu Sans';-inkscape-font-specification:DejaVuSans;writing-mode:lr-tb;fill:#000000;fill-opacity:1;fill-rule:nonzero;stroke:none"
           id="text152"><tspan
             x="0"
             y="0"
             id="tspan154">K</tspan></text>
<text
           transform="matrix(1,0,0,-1,6.4136719,3.84375)"
           style="font-variant:normal;font-weight:normal;font-size:5.5999999px;font-family:'DejaVu Sans';-inkscape-font-specification:DejaVuSans;writing-mode:lr-tb;fill:#000000;fill-opacity:1;fill-rule:nonzero;stroke:none"
           id="text156"><tspan
             x="0"
             y="0"
             id="tspan158">*</tspan></text>
</g><path
         d="m 51.48,163.78615 -3.5,0"
         style="fill:#000000;fill-opacity:1;fill-rule:nonzero;stroke:#000000;stroke-width:0.80000001;stroke-linecap:butt;stroke-linejoin:round;stroke-miterlimit:10;stroke-dasharray:none;stroke-opacity:1"
         id="path160"
         inkscape:connector-curvature="0" /><text
         transform="matrix(1,0,0,-1,21.558125,160.74709)"
         style="font-variant:normal;font-weight:normal;font-size:8px;font-family:'DejaVu Sans';-inkscape-font-specification:DejaVuSans;writing-mode:lr-tb;fill:#000000;fill-opacity:1;fill-rule:nonzero;stroke:none"
         id="text162"><tspan
           x="0 5.0879998 7.632 12.72 17.808001"
           y="0"
           sodipodi:role="line"
           id="tspan164">0.000</tspan></text>
<path
         d="m 51.48,189.07738 -3.5,0"
         style="fill:#000000;fill-opacity:1;fill-rule:nonzero;stroke:#000000;stroke-width:0.80000001;stroke-linecap:butt;stroke-linejoin:round;stroke-miterlimit:10;stroke-dasharray:none;stroke-opacity:1"
         id="path166"
         inkscape:connector-curvature="0" /><text
         transform="matrix(1,0,0,-1,21.558125,186.03832)"
         style="font-variant:normal;font-weight:normal;font-size:8px;font-family:'DejaVu Sans';-inkscape-font-specification:DejaVuSans;writing-mode:lr-tb;fill:#000000;fill-opacity:1;fill-rule:nonzero;stroke:none"
         id="text168"><tspan
           x="0 5.0879998 7.632 12.72 17.808001"
           y="0"
           sodipodi:role="line"
           id="tspan170">0.025</tspan></text>
<path
         d="m 51.48,214.36862 -3.5,0"
         style="fill:#000000;fill-opacity:1;fill-rule:nonzero;stroke:#000000;stroke-width:0.80000001;stroke-linecap:butt;stroke-linejoin:round;stroke-miterlimit:10;stroke-dasharray:none;stroke-opacity:1"
         id="path172"
         inkscape:connector-curvature="0" /><text
         transform="matrix(1,0,0,-1,21.558125,211.32955)"
         style="font-variant:normal;font-weight:normal;font-size:8px;font-family:'DejaVu Sans';-inkscape-font-specification:DejaVuSans;writing-mode:lr-tb;fill:#000000;fill-opacity:1;fill-rule:nonzero;stroke:none"
         id="text174"><tspan
           x="0 5.0879998 7.632 12.72 17.808001"
           y="0"
           sodipodi:role="line"
           id="tspan176">0.050</tspan></text>
<path
         d="m 51.48,239.65985 -3.5,0"
         style="fill:#000000;fill-opacity:1;fill-rule:nonzero;stroke:#000000;stroke-width:0.80000001;stroke-linecap:butt;stroke-linejoin:round;stroke-miterlimit:10;stroke-dasharray:none;stroke-opacity:1"
         id="path178"
         inkscape:connector-curvature="0" /><text
         transform="matrix(1,0,0,-1,21.558125,236.62078)"
         style="font-variant:normal;font-weight:normal;font-size:8px;font-family:'DejaVu Sans';-inkscape-font-specification:DejaVuSans;writing-mode:lr-tb;fill:#000000;fill-opacity:1;fill-rule:nonzero;stroke:none"
         id="text180"><tspan
           x="0 5.0879998 7.632 12.72 17.808001"
           y="0"
           sodipodi:role="line"
           id="tspan182">0.075</tspan></text>
<text
         transform="matrix(0,1,1,0,6.920625,182.63531)"
         style="font-variant:normal;font-weight:normal;font-size:8px;font-family:'DejaVu Sans';-inkscape-font-specification:DejaVuSans;writing-mode:lr-tb;fill:#000000;fill-opacity:1;fill-rule:nonzero;stroke:none"
         id="text184"><tspan
           x="0 4.8239999 8.1120005 13.008 18.087999 22.992001 28.072001 30.296 32.52 34.743999 37.880001"
           y="0"
           sodipodi:role="line"
           id="tspan186">Probability</tspan></text>
<text
         transform="matrix(0,1,1,0,15.88625,189.26812)"
         style="font-variant:normal;font-weight:normal;font-size:8px;font-family:'DejaVu Sans';-inkscape-font-specification:DejaVuSans;writing-mode:lr-tb;fill:#000000;fill-opacity:1;fill-rule:nonzero;stroke:none"
         id="text188"><tspan
           x="0 5.0799999 10 15.072 19.24 21.464001 24.6"
           y="0"
           sodipodi:role="line"
           id="tspan190">density</tspan></text>
</g><g
       id="g192"><g
         id="g194"
         clip-path="url(#clipPath196)"><path
           d="m 51.48,187.74366 4.499248,23.81214 1.406015,5.86968 1.406015,4.92443 1.406015,4.20653 1.406015,3.58883 1.124812,2.27585 0.843609,1.17914 0.562406,0.45092 0.562406,0.12987 0.562406,-0.23121 0.562406,-0.62332 0.562406,-1.03426 0.562406,-1.44959 0.843609,-2.92435 0.843609,-3.72815 1.406015,-7.52386 3.65564,-20.6919 1.124812,-5.11255 1.124812,-4.19788 1.124812,-3.30253 1.124812,-2.51077 1.124812,-1.87253 1.124812,-1.41048 1.406015,-1.38186 3.374436,-3.11787 2.249624,-2.51747 2.81203,-3.13535 1.406015,-1.25196 1.406015,-0.94117 1.406015,-0.63865 1.406015,-0.39137 1.687218,-0.24527 2.530827,-0.12925 7.03007,-0.0312 56.52181,-7e-5 0,0"
           style="fill:none;stroke:#1f77b4;stroke-width:1.5;stroke-linecap:square;stroke-linejoin:round;stroke-miterlimit:10;stroke-dasharray:none;stroke-opacity:1"
           id="path200"
           inkscape:connector-curvature="0" /></g></g><g
       id="g202"><g
         id="g204"
         clip-path="url(#clipPath206)"><path
           d="m 51.48,184.19775 4.499248,5.8086 2.249624,2.57083 1.968421,1.93103 1.687218,1.3566 1.406015,0.88774 1.406015,0.64593 1.406015,0.38935 1.406015,0.12334 1.406015,-0.14634 1.406016,-0.41376 1.406015,-0.67292 1.406015,-0.91799 1.687218,-1.39721 1.968421,-1.98246 2.249624,-2.62887 3.093233,-4.00132 5.62406,-7.31866 2.530827,-2.90328 2.249624,-2.23936 1.968421,-1.65973 1.968421,-1.36894 1.968421,-1.08361 1.968418,-0.81684 1.96842,-0.57885 2.24963,-0.41648 2.53082,-0.2279 3.37444,-0.0511 13.21654,0.0621 17.43459,-0.4658 7.31128,-0.19409 5.62406,-0.37856 7.31128,-0.74647 2.24962,-0.24604 0,0"
           style="fill:none;stroke:#ff7f0e;stroke-width:1.5;stroke-linecap:square;stroke-linejoin:round;stroke-miterlimit:10;stroke-dasharray:none;stroke-opacity:1"
           id="path210"
           inkscape:connector-curvature="0" /></g></g><g
       id="g212"><path
         d="m 51.48,159.77077 0,88.33846"
         style="fill:none;stroke:#000000;stroke-width:0.80000001;stroke-linecap:square;stroke-linejoin:miter;stroke-miterlimit:10;stroke-dasharray:none;stroke-opacity:1"
         id="path214"
         inkscape:connector-curvature="0" /><path
         d="m 163.68,159.77077 0,88.33846"
         style="fill:none;stroke:#000000;stroke-width:0.80000001;stroke-linecap:square;stroke-linejoin:miter;stroke-miterlimit:10;stroke-dasharray:none;stroke-opacity:1"
         id="path216"
         inkscape:connector-curvature="0" /><path
         d="m 51.48,159.77077 112.2,0"
         style="fill:none;stroke:#000000;stroke-width:0.80000001;stroke-linecap:square;stroke-linejoin:miter;stroke-miterlimit:10;stroke-dasharray:none;stroke-opacity:1"
         id="path218"
         inkscape:connector-curvature="0" /><path
         d="m 51.48,248.10923 112.2,0"
         style="fill:none;stroke:#000000;stroke-width:0.80000001;stroke-linecap:square;stroke-linejoin:miter;stroke-miterlimit:10;stroke-dasharray:none;stroke-opacity:1"
         id="path220"
         inkscape:connector-curvature="0" /><path
         d="m 51.48,31.68 112.2,0 0,88.33846 -112.2,0 0,-88.33846 z"
         style="fill:#ffffff;fill-opacity:1;fill-rule:nonzero;stroke:none"
         id="path226"
         inkscape:connector-curvature="0" /><path
         d="m 51.48,31.68 0,-3.5"
         style="fill:#000000;fill-opacity:1;fill-rule:nonzero;stroke:#000000;stroke-width:0.80000001;stroke-linecap:butt;stroke-linejoin:round;stroke-miterlimit:10;stroke-dasharray:none;stroke-opacity:1"
         id="path228"
         inkscape:connector-curvature="0" /><path
         d="m 73.92,31.68 0,-3.5"
         style="fill:#000000;fill-opacity:1;fill-rule:nonzero;stroke:#000000;stroke-width:0.80000001;stroke-linecap:butt;stroke-linejoin:round;stroke-miterlimit:10;stroke-dasharray:none;stroke-opacity:1"
         id="path230"
         inkscape:connector-curvature="0" /><text
         transform="matrix(1,0,0,-1,68.82625,18.601875)"
         style="font-variant:normal;font-weight:normal;font-size:8px;font-family:'DejaVu Sans';-inkscape-font-specification:DejaVuSans;writing-mode:lr-tb;fill:#000000;fill-opacity:1;fill-rule:nonzero;stroke:none"
         id="text232"><tspan
           x="0 5.0879998"
           y="0"
           sodipodi:role="line"
           id="tspan234">15</tspan></text>
<path
         d="m 96.36,31.68 0,-3.5"
         style="fill:#000000;fill-opacity:1;fill-rule:nonzero;stroke:#000000;stroke-width:0.80000001;stroke-linecap:butt;stroke-linejoin:round;stroke-miterlimit:10;stroke-dasharray:none;stroke-opacity:1"
         id="path236"
         inkscape:connector-curvature="0" /><text
         transform="matrix(1,0,0,-1,91.26625,18.601875)"
         style="font-variant:normal;font-weight:normal;font-size:8px;font-family:'DejaVu Sans';-inkscape-font-specification:DejaVuSans;writing-mode:lr-tb;fill:#000000;fill-opacity:1;fill-rule:nonzero;stroke:none"
         id="text238"><tspan
           x="0 5.0879998"
           y="0"
           sodipodi:role="line"
           id="tspan240">30</tspan></text>
<path
         d="m 118.8,31.68 0,-3.5"
         style="fill:#000000;fill-opacity:1;fill-rule:nonzero;stroke:#000000;stroke-width:0.80000001;stroke-linecap:butt;stroke-linejoin:round;stroke-miterlimit:10;stroke-dasharray:none;stroke-opacity:1"
         id="path242"
         inkscape:connector-curvature="0" /><text
         transform="matrix(1,0,0,-1,113.70625,18.601875)"
         style="font-variant:normal;font-weight:normal;font-size:8px;font-family:'DejaVu Sans';-inkscape-font-specification:DejaVuSans;writing-mode:lr-tb;fill:#000000;fill-opacity:1;fill-rule:nonzero;stroke:none"
         id="text244"><tspan
           x="0 5.0879998"
           y="0"
           sodipodi:role="line"
           id="tspan246">45</tspan></text>
<path
         d="m 141.24,31.68 0,-3.5"
         style="fill:#000000;fill-opacity:1;fill-rule:nonzero;stroke:#000000;stroke-width:0.80000001;stroke-linecap:butt;stroke-linejoin:round;stroke-miterlimit:10;stroke-dasharray:none;stroke-opacity:1"
         id="path248"
         inkscape:connector-curvature="0" /><text
         transform="matrix(1,0,0,-1,136.14625,18.601875)"
         style="font-variant:normal;font-weight:normal;font-size:8px;font-family:'DejaVu Sans';-inkscape-font-specification:DejaVuSans;writing-mode:lr-tb;fill:#000000;fill-opacity:1;fill-rule:nonzero;stroke:none"
         id="text250"><tspan
           x="0 5.0879998"
           y="0"
           sodipodi:role="line"
           id="tspan252">60</tspan></text>
<path
         d="m 163.68,31.68 0,-3.5"
         style="fill:#000000;fill-opacity:1;fill-rule:nonzero;stroke:#000000;stroke-width:0.80000001;stroke-linecap:butt;stroke-linejoin:round;stroke-miterlimit:10;stroke-dasharray:none;stroke-opacity:1"
         id="path254"
         inkscape:connector-curvature="0" /><g
         id="g256"
         transform="translate(100.58,6.601875)"><text
           transform="matrix(1,0,0,-1,0,0.78125)"
           style="font-variant:normal;font-weight:normal;font-size:8px;font-family:'DejaVu Sans';-inkscape-font-specification:DejaVuSans;writing-mode:lr-tb;fill:#000000;fill-opacity:1;fill-rule:nonzero;stroke:none"
           id="text258"><tspan
             x="0"
             y="0"
             id="tspan260">K</tspan></text>
<text
           transform="matrix(1,0,0,-1,5.3226562,3.84375)"
           style="font-variant:normal;font-weight:normal;font-size:5.5999999px;font-family:'DejaVu Sans';-inkscape-font-specification:DejaVuSans;writing-mode:lr-tb;fill:#000000;fill-opacity:1;fill-rule:nonzero;stroke:none"
           id="text262"><tspan
             x="0 3.8910155"
             y="0"
             sodipodi:role="line"
             id="tspan264">**</tspan></text>
</g><path
         d="m 51.48,35.695385 -3.5,0"
         style="fill:#000000;fill-opacity:1;fill-rule:nonzero;stroke:#000000;stroke-width:0.80000001;stroke-linecap:butt;stroke-linejoin:round;stroke-miterlimit:10;stroke-dasharray:none;stroke-opacity:1"
         id="path266"
         inkscape:connector-curvature="0" /><text
         transform="matrix(1,0,0,-1,21.558125,32.656322)"
         style="font-variant:normal;font-weight:normal;font-size:8px;font-family:'DejaVu Sans';-inkscape-font-specification:DejaVuSans;writing-mode:lr-tb;fill:#000000;fill-opacity:1;fill-rule:nonzero;stroke:none"
         id="text268"><tspan
           x="0 5.0879998 7.632 12.72 17.808001"
           y="0"
           sodipodi:role="line"
           id="tspan270">0.000</tspan></text>
<path
         d="m 51.48,58.047943 -3.5,0"
         style="fill:#000000;fill-opacity:1;fill-rule:nonzero;stroke:#000000;stroke-width:0.80000001;stroke-linecap:butt;stroke-linejoin:round;stroke-miterlimit:10;stroke-dasharray:none;stroke-opacity:1"
         id="path272"
         inkscape:connector-curvature="0" /><text
         transform="matrix(1,0,0,-1,21.558125,55.008881)"
         style="font-variant:normal;font-weight:normal;font-size:8px;font-family:'DejaVu Sans';-inkscape-font-specification:DejaVuSans;writing-mode:lr-tb;fill:#000000;fill-opacity:1;fill-rule:nonzero;stroke:none"
         id="text274"><tspan
           x="0 5.0879998 7.632 12.72 17.808001"
           y="0"
           sodipodi:role="line"
           id="tspan276">0.025</tspan></text>
<path
         d="m 51.48,80.400502 -3.5,0"
         style="fill:#000000;fill-opacity:1;fill-rule:nonzero;stroke:#000000;stroke-width:0.80000001;stroke-linecap:butt;stroke-linejoin:round;stroke-miterlimit:10;stroke-dasharray:none;stroke-opacity:1"
         id="path278"
         inkscape:connector-curvature="0" /><text
         transform="matrix(1,0,0,-1,21.558125,77.36144)"
         style="font-variant:normal;font-weight:normal;font-size:8px;font-family:'DejaVu Sans';-inkscape-font-specification:DejaVuSans;writing-mode:lr-tb;fill:#000000;fill-opacity:1;fill-rule:nonzero;stroke:none"
         id="text280"><tspan
           x="0 5.0879998 7.632 12.72 17.808001"
           y="0"
           sodipodi:role="line"
           id="tspan282">0.050</tspan></text>
<path
         d="m 51.48,102.75306 -3.5,0"
         style="fill:#000000;fill-opacity:1;fill-rule:nonzero;stroke:#000000;stroke-width:0.80000001;stroke-linecap:butt;stroke-linejoin:round;stroke-miterlimit:10;stroke-dasharray:none;stroke-opacity:1"
         id="path284"
         inkscape:connector-curvature="0" /><text
         transform="matrix(1,0,0,-1,21.558125,99.713999)"
         style="font-variant:normal;font-weight:normal;font-size:8px;font-family:'DejaVu Sans';-inkscape-font-specification:DejaVuSans;writing-mode:lr-tb;fill:#000000;fill-opacity:1;fill-rule:nonzero;stroke:none"
         id="text286"><tspan
           x="0 5.0879998 7.632 12.72 17.808001"
           y="0"
           sodipodi:role="line"
           id="tspan288">0.075</tspan></text>
<text
         transform="matrix(0,1,1,0,6.920625,54.544543)"
         style="font-variant:normal;font-weight:normal;font-size:8px;font-family:'DejaVu Sans';-inkscape-font-specification:DejaVuSans;writing-mode:lr-tb;fill:#000000;fill-opacity:1;fill-rule:nonzero;stroke:none"
         id="text290"><tspan
           x="0 4.8239999 8.1120005 13.008 18.087999 22.992001 28.072001 30.296 32.52 34.743999 37.880001"
           y="0"
           sodipodi:role="line"
           id="tspan292">Probability</tspan></text>
<text
         transform="matrix(0,1,1,0,15.88625,61.177356)"
         style="font-variant:normal;font-weight:normal;font-size:8px;font-family:'DejaVu Sans';-inkscape-font-specification:DejaVuSans;writing-mode:lr-tb;fill:#000000;fill-opacity:1;fill-rule:nonzero;stroke:none"
         id="text294"><tspan
           x="0 5.0799999 10 15.072 19.24 21.464001 24.6"
           y="0"
           sodipodi:role="line"
           id="tspan296">density</tspan></text>
</g><g
       id="g298"><g
         id="g300"
         clip-path="url(#clipPath302)"><path
           d="m 51.48,56.216608 4.499248,20.425354 1.406015,5.020255 1.406015,4.275542 1.968421,5.210509 1.406015,3.26044 1.124812,2.098486 0.843609,1.069003 0.562406,0.386591 0.562406,0.07596 0.562406,-0.269406 0.562406,-0.638956 0.562406,-1.019795 0.843609,-2.233386 0.843609,-3.010359 1.124812,-4.984294 1.968422,-10.12698 1.968421,-9.82838 1.406015,-5.871685 1.124812,-3.798174 1.124812,-3.005513 1.124812,-2.306349 1.124812,-1.749504 1.124812,-1.355509 1.687218,-1.638372 3.374436,-3.194062 4.499248,-4.499875 1.406015,-1.02864 1.406015,-0.743876 1.406015,-0.484565 1.687218,-0.323185 2.249624,-0.173306 4.499248,-0.05733 60.73985,-0.0019 0,0"
           style="fill:none;stroke:#1f77b4;stroke-width:1.5;stroke-linecap:square;stroke-linejoin:round;stroke-miterlimit:10;stroke-dasharray:none;stroke-opacity:1"
           id="path306"
           inkscape:connector-curvature="0" /></g></g><g
       id="g308"><g
         id="g310"
         clip-path="url(#clipPath312)"><path
           d="m 51.48,51.763489 8.717293,11.845304 2.249624,2.552727 1.687218,1.607162 1.406015,1.08061 1.406015,0.801214 1.124812,0.414078 1.124812,0.194478 1.124813,-0.03734 1.124812,-0.276136 1.124812,-0.515828 1.124812,-0.749787 1.406015,-1.246569 1.406015,-1.55368 1.687218,-2.196095 2.249624,-3.312279 6.186466,-9.346172 2.249624,-2.892031 1.968421,-2.180008 1.968421,-1.842803 1.968421,-1.518908 1.968421,-1.218445 1.968421,-0.943247 1.968425,-0.691407 1.96842,-0.461423 2.24962,-0.275784 2.24962,-0.04872 2.81204,0.174021 10.1233,0.890593 2.81203,-0.08795 3.09324,-0.322169 3.65564,-0.616955 13.49774,-2.52146 4.21805,-0.411325 4.78045,-0.236589 7.31127,-0.109193 4.21805,-0.01218 0,0"
           style="fill:none;stroke:#ff7f0e;stroke-width:1.5;stroke-linecap:square;stroke-linejoin:round;stroke-miterlimit:10;stroke-dasharray:none;stroke-opacity:1"
           id="path316"
           inkscape:connector-curvature="0" /></g></g><g
       id="g318"><path
         d="m 51.48,31.68 0,88.33846"
         style="fill:none;stroke:#000000;stroke-width:0.80000001;stroke-linecap:square;stroke-linejoin:miter;stroke-miterlimit:10;stroke-dasharray:none;stroke-opacity:1"
         id="path320"
         inkscape:connector-curvature="0" /><path
         d="m 163.68,31.68 0,88.33846"
         style="fill:none;stroke:#000000;stroke-width:0.80000001;stroke-linecap:square;stroke-linejoin:miter;stroke-miterlimit:10;stroke-dasharray:none;stroke-opacity:1"
         id="path322"
         inkscape:connector-curvature="0" /><path
         d="m 51.48,31.68 112.2,0"
         style="fill:none;stroke:#000000;stroke-width:0.80000001;stroke-linecap:square;stroke-linejoin:miter;stroke-miterlimit:10;stroke-dasharray:none;stroke-opacity:1"
         id="path324"
         inkscape:connector-curvature="0" /><path
         d="m 51.48,120.01846 112.2,0"
         style="fill:none;stroke:#000000;stroke-width:0.80000001;stroke-linecap:square;stroke-linejoin:miter;stroke-miterlimit:10;stroke-dasharray:none;stroke-opacity:1"
         id="path326"
         inkscape:connector-curvature="0" /><path
         d="m 163.68,287.86154 0,-3.5"
         style="fill:#000000;fill-opacity:1;fill-rule:nonzero;stroke:#000000;stroke-width:0.80000001;stroke-linecap:butt;stroke-linejoin:round;stroke-miterlimit:10;stroke-dasharray:none;stroke-opacity:1"
         id="path334"
         inkscape:connector-curvature="0" /><path
         d="m 163.68,291.87692 -3.5,0"
         style="fill:#000000;fill-opacity:1;fill-rule:nonzero;stroke:#000000;stroke-width:0.80000001;stroke-linecap:butt;stroke-linejoin:round;stroke-miterlimit:10;stroke-dasharray:none;stroke-opacity:1"
         id="path368"
         inkscape:connector-curvature="0" /><path
         d="m 163.68,316.24063 -3.5,0"
         style="fill:#000000;fill-opacity:1;fill-rule:nonzero;stroke:#000000;stroke-width:0.80000001;stroke-linecap:butt;stroke-linejoin:round;stroke-miterlimit:10;stroke-dasharray:none;stroke-opacity:1"
         id="path370"
         inkscape:connector-curvature="0" /><path
         d="m 163.68,340.60433 -3.5,0"
         style="fill:#000000;fill-opacity:1;fill-rule:nonzero;stroke:#000000;stroke-width:0.80000001;stroke-linecap:butt;stroke-linejoin:round;stroke-miterlimit:10;stroke-dasharray:none;stroke-opacity:1"
         id="path372"
         inkscape:connector-curvature="0" /><path
         d="m 163.68,364.96803 -3.5,0"
         style="fill:#000000;fill-opacity:1;fill-rule:nonzero;stroke:#000000;stroke-width:0.80000001;stroke-linecap:butt;stroke-linejoin:round;stroke-miterlimit:10;stroke-dasharray:none;stroke-opacity:1"
         id="path374"
         inkscape:connector-curvature="0" /></g><g
       id="g642" /><g
       id="g5033"
       transform="translate(-132.88814,110.93786)"><path
         inkscape:connector-curvature="0"
         id="path4986"
         style="fill:#ffffff;fill-opacity:0.8;fill-rule:nonzero;stroke:#cccccc;stroke-width:1;stroke-linecap:butt;stroke-linejoin:miter;stroke-miterlimit:10;stroke-dasharray:none;stroke-opacity:0.8"
         d="m 249.52165,229.6895 36.06875,0 c 1.06667,0 1.6,0.53333 1.6,1.6 l 0,22.7 c 0,1.06667 -0.53333,1.6 -1.6,1.6 l -36.06875,0 c -1.06667,0 -1.6,-0.53333 -1.6,-1.6 l 0,-22.7 c 0,-1.06667 0.53333,-1.6 1.6,-1.6 z" /><path
         inkscape:connector-curvature="0"
         id="path4988"
         style="fill:none;stroke:#1f77b4;stroke-width:1.5;stroke-linecap:square;stroke-linejoin:round;stroke-miterlimit:10;stroke-dasharray:none;stroke-opacity:1"
         d="m 251.12165,249.11137 16,0" /><text
         transform="scale(1,-1)"
         id="text4990"
         style="font-variant:normal;font-weight:normal;font-size:8px;font-family:'DejaVu Sans';-inkscape-font-specification:DejaVuSans;writing-mode:lr-tb;fill:#000000;fill-opacity:1;fill-rule:nonzero;stroke:none"
         x="273.52164"
         y="-246.31136"><tspan
           id="tspan4992"
           sodipodi:role="line"
           y="-246.31136"
           x="273.52164 279.53766">HL</tspan></text>
<path
         inkscape:connector-curvature="0"
         id="path4994"
         style="fill:none;stroke:#ff7f0e;stroke-width:1.5;stroke-linecap:square;stroke-linejoin:round;stroke-miterlimit:10;stroke-dasharray:none;stroke-opacity:1"
         d="m 251.12165,237.36138 16,0" /><text
         transform="scale(1,-1)"
         id="text4996"
         style="font-variant:normal;font-weight:normal;font-size:8px;font-family:'DejaVu Sans';-inkscape-font-specification:DejaVuSans;writing-mode:lr-tb;fill:#000000;fill-opacity:1;fill-rule:nonzero;stroke:none"
         x="273.52164"
         y="-234.56136"><tspan
           id="tspan4998"
           sodipodi:role="line"
           y="-234.56136"
           x="273.52164 277.97763">LL</tspan></text>
</g></g></svg>