<?xml version="1.0" encoding="utf-8" standalone="no"?>
<!DOCTYPE svg PUBLIC "-//W3C//DTD SVG 1.1//EN"
  "http://www.w3.org/Graphics/SVG/1.1/DTD/svg11.dtd">
<!-- Created with matplotlib (http://matplotlib.org/) -->
<svg height="216pt" version="1.1" viewBox="0 0 396 216" width="396pt" xmlns="http://www.w3.org/2000/svg" xmlns:xlink="http://www.w3.org/1999/xlink">
 <defs>
  <style type="text/css">
*{stroke-linecap:butt;stroke-linejoin:round;}
  </style>
 </defs>
 <g id="figure_1">
  <g id="patch_1">
   <path d="M 0 216 
L 396 216 
L 396 0 
L 0 0 
z
" style="fill:#ffffff;"/>
  </g>
  <g id="axes_1">
   <g id="patch_2">
    <path d="M 39.6 105.84 
L 213.84 105.84 
L 213.84 21.6 
L 39.6 21.6 
z
" style="fill:#ffffff;"/>
   </g>
   <g id="PolyCollection_1">
    <path clip-path="url(#pc3155f11ee)" d="M 47.52 57.750067 
L 47.52 76.751557 
L 49.12 73.679778 
L 50.72 70.901113 
L 52.32 68.216453 
L 53.92 65.976741 
L 55.52 63.650914 
L 57.12 61.722847 
L 58.72 60.0047 
L 60.32 58.619221 
L 61.92 57.23511 
L 63.52 55.98877 
L 65.12 54.977289 
L 66.72 54.001662 
L 68.32 53.350703 
L 69.92 52.916775 
L 71.52 52.766558 
L 73.12 52.903445 
L 74.72 53.430374 
L 76.32 53.955335 
L 77.92 54.697111 
L 79.52 55.565196 
L 81.12 56.707072 
L 82.72 57.982062 
L 84.32 59.538618 
L 85.92 61.140319 
L 87.52 62.759559 
L 89.12 64.75759 
L 90.72 66.866547 
L 92.32 69.049728 
L 93.92 71.416532 
L 95.52 73.633522 
L 97.12 76.013745 
L 98.72 78.843794 
L 100.32 81.116654 
L 101.92 83.667595 
L 103.52 86.171564 
L 105.12 88.283056 
L 106.72 90.339425 
L 108.32 92.533697 
L 109.92 94.521331 
L 111.52 96.398342 
L 113.12 98.202016 
L 114.72 99.608976 
L 116.32 101.197078 
L 117.92 102.25394 
L 119.52 103.204455 
L 121.12 104.075535 
L 122.72 104.704346 
L 124.32 105.176714 
L 125.92 105.438517 
L 127.52 105.642402 
L 129.12 105.749905 
L 130.72 105.798871 
L 132.32 105.822822 
L 133.92 105.833327 
L 135.52 105.837559 
L 137.12 105.839123 
L 138.72 105.83964 
L 140.32 105.839787 
L 141.92 105.839864 
L 143.52 105.839894 
L 145.12 105.839893 
L 146.72 105.839874 
L 148.32 105.839855 
L 149.92 105.839693 
L 151.52 105.839126 
L 153.12 105.838103 
L 154.72 105.83575 
L 156.32 105.831566 
L 157.92 105.823566 
L 159.52 105.809546 
L 161.12 105.783737 
L 162.72 105.736659 
L 164.32 105.672603 
L 165.92 105.576896 
L 167.52 105.474044 
L 169.12 105.373337 
L 170.72 105.277773 
L 172.32 105.188527 
L 173.92 105.21782 
L 175.52 105.30332 
L 177.12 105.339264 
L 178.72 105.357862 
L 180.32 105.270986 
L 181.92 105.309346 
L 183.52 105.387796 
L 185.12 105.427582 
L 186.72 105.528665 
L 188.32 105.601366 
L 189.92 105.639815 
L 191.52 105.662959 
L 193.12 105.703092 
L 194.72 105.68636 
L 196.32 105.69376 
L 197.92 105.63783 
L 199.52 105.61901 
L 201.12 105.624473 
L 202.72 105.589 
L 204.32 105.660629 
L 205.92 105.72756 
L 205.92 100.333498 
L 205.92 100.333498 
L 204.32 100.436721 
L 202.72 100.483716 
L 201.12 100.534751 
L 199.52 100.579301 
L 197.92 100.587387 
L 196.32 100.538282 
L 194.72 100.46338 
L 193.12 100.473691 
L 191.52 100.49356 
L 189.92 100.485773 
L 188.32 100.423911 
L 186.72 100.31559 
L 185.12 100.083732 
L 183.52 99.867657 
L 181.92 99.490687 
L 180.32 99.090705 
L 178.72 98.649697 
L 177.12 98.359029 
L 175.52 98.257343 
L 173.92 98.213292 
L 172.32 98.531165 
L 170.72 98.955619 
L 169.12 99.263501 
L 167.52 99.75312 
L 165.92 100.198174 
L 164.32 100.612793 
L 162.72 101.114965 
L 161.12 101.675046 
L 159.52 102.186313 
L 157.92 102.685159 
L 156.32 102.995616 
L 154.72 103.312998 
L 153.12 103.56036 
L 151.52 103.762519 
L 149.92 103.866723 
L 148.32 103.899975 
L 146.72 103.887796 
L 145.12 103.849349 
L 143.52 103.724616 
L 141.92 103.558518 
L 140.32 103.314886 
L 138.72 102.939065 
L 137.12 102.559559 
L 135.52 102.106862 
L 133.92 101.563911 
L 132.32 100.960056 
L 130.72 100.296044 
L 129.12 99.488254 
L 127.52 98.654092 
L 125.92 97.684879 
L 124.32 96.543907 
L 122.72 95.336553 
L 121.12 93.983697 
L 119.52 92.534956 
L 117.92 90.958656 
L 116.32 89.26583 
L 114.72 87.416504 
L 113.12 85.50246 
L 111.52 83.477945 
L 109.92 81.357731 
L 108.32 78.936403 
L 106.72 76.510656 
L 105.12 74.048816 
L 103.52 71.438663 
L 101.92 68.718482 
L 100.32 65.850507 
L 98.72 62.605457 
L 97.12 59.160422 
L 95.52 55.819432 
L 93.92 52.468775 
L 92.32 49.606736 
L 90.72 47.312557 
L 89.12 45.059735 
L 87.52 42.554067 
L 85.92 41.542417 
L 84.32 39.911102 
L 82.72 38.302634 
L 81.12 36.452162 
L 79.52 34.484646 
L 77.92 32.609699 
L 76.32 30.847805 
L 74.72 28.255249 
L 73.12 26.652596 
L 71.52 25.961256 
L 69.92 25.611424 
L 68.32 27.463955 
L 66.72 29.76173 
L 65.12 31.547948 
L 63.52 33.537222 
L 61.92 35.13645 
L 60.32 35.688909 
L 58.72 34.977655 
L 57.12 33.96029 
L 55.52 33.011279 
L 53.92 31.983325 
L 52.32 34.052817 
L 50.72 39.841754 
L 49.12 48.052431 
L 47.52 57.750067 
z
" style="fill:#b0c4de;fill-opacity:0.5;"/>
   </g>
   <g id="PolyCollection_2"/>
   <g id="matplotlib.axis_1">
    <g id="xtick_1">
     <g id="line2d_1">
      <defs>
       <path d="M 0 1.75 
L 0 -1.75 
" id="m36e7c232e7" style="stroke:#000000;stroke-width:0.8;"/>
      </defs>
      <g>
       <use style="stroke:#000000;stroke-width:0.8;" x="47.52" xlink:href="#m36e7c232e7" y="105.84"/>
      </g>
     </g>
     <g id="line2d_2">
      <g>
       <use style="stroke:#000000;stroke-width:0.8;" x="47.52" xlink:href="#m36e7c232e7" y="21.6"/>
      </g>
     </g>
    </g>
    <g id="xtick_2">
     <g id="line2d_3">
      <g>
       <use style="stroke:#000000;stroke-width:0.8;" x="87.12" xlink:href="#m36e7c232e7" y="105.84"/>
      </g>
     </g>
     <g id="line2d_4">
      <g>
       <use style="stroke:#000000;stroke-width:0.8;" x="87.12" xlink:href="#m36e7c232e7" y="21.6"/>
      </g>
     </g>
    </g>
    <g id="xtick_3">
     <g id="line2d_5">
      <g>
       <use style="stroke:#000000;stroke-width:0.8;" x="126.72" xlink:href="#m36e7c232e7" y="105.84"/>
      </g>
     </g>
     <g id="line2d_6">
      <g>
       <use style="stroke:#000000;stroke-width:0.8;" x="126.72" xlink:href="#m36e7c232e7" y="21.6"/>
      </g>
     </g>
    </g>
    <g id="xtick_4">
     <g id="line2d_7">
      <g>
       <use style="stroke:#000000;stroke-width:0.8;" x="166.32" xlink:href="#m36e7c232e7" y="105.84"/>
      </g>
     </g>
     <g id="line2d_8">
      <g>
       <use style="stroke:#000000;stroke-width:0.8;" x="166.32" xlink:href="#m36e7c232e7" y="21.6"/>
      </g>
     </g>
    </g>
    <g id="xtick_5">
     <g id="line2d_9">
      <g>
       <use style="stroke:#000000;stroke-width:0.8;" x="205.92" xlink:href="#m36e7c232e7" y="105.84"/>
      </g>
     </g>
     <g id="line2d_10">
      <g>
       <use style="stroke:#000000;stroke-width:0.8;" x="205.92" xlink:href="#m36e7c232e7" y="21.6"/>
      </g>
     </g>
    </g>
   </g>
   <g id="matplotlib.axis_2">
    <g id="ytick_1">
     <g id="line2d_11">
      <defs>
       <path d="M 1.75 0 
L -1.75 -0 
" id="m912ab654b1" style="stroke:#000000;stroke-width:0.8;"/>
      </defs>
      <g>
       <use style="stroke:#000000;stroke-width:0.8;" x="39.6" xlink:href="#m912ab654b1" y="105.84"/>
      </g>
     </g>
    </g>
    <g id="ytick_2">
     <g id="line2d_12">
      <g>
       <use style="stroke:#000000;stroke-width:0.8;" x="39.6" xlink:href="#m912ab654b1" y="81.954551"/>
      </g>
     </g>
     <g id="text_1">
      <!-- 0.05 -->
      <defs>
       <path d="M 31.78125 66.40625 
Q 24.171875 66.40625 20.328125 58.90625 
Q 16.5 51.421875 16.5 36.375 
Q 16.5 21.390625 20.328125 13.890625 
Q 24.171875 6.390625 31.78125 6.390625 
Q 39.453125 6.390625 43.28125 13.890625 
Q 47.125 21.390625 47.125 36.375 
Q 47.125 51.421875 43.28125 58.90625 
Q 39.453125 66.40625 31.78125 66.40625 
z
M 31.78125 74.21875 
Q 44.046875 74.21875 50.515625 64.515625 
Q 56.984375 54.828125 56.984375 36.375 
Q 56.984375 17.96875 50.515625 8.265625 
Q 44.046875 -1.421875 31.78125 -1.421875 
Q 19.53125 -1.421875 13.0625 8.265625 
Q 6.59375 17.96875 6.59375 36.375 
Q 6.59375 54.828125 13.0625 64.515625 
Q 19.53125 74.21875 31.78125 74.21875 
z
" id="DejaVuSans-30"/>
       <path d="M 10.6875 12.40625 
L 21 12.40625 
L 21 0 
L 10.6875 0 
z
" id="DejaVuSans-2e"/>
       <path d="M 10.796875 72.90625 
L 49.515625 72.90625 
L 49.515625 64.59375 
L 19.828125 64.59375 
L 19.828125 46.734375 
Q 21.96875 47.46875 24.109375 47.828125 
Q 26.265625 48.1875 28.421875 48.1875 
Q 40.625 48.1875 47.75 41.5 
Q 54.890625 34.8125 54.890625 23.390625 
Q 54.890625 11.625 47.5625 5.09375 
Q 40.234375 -1.421875 26.90625 -1.421875 
Q 22.3125 -1.421875 17.546875 -0.640625 
Q 12.796875 0.140625 7.71875 1.703125 
L 7.71875 11.625 
Q 12.109375 9.234375 16.796875 8.0625 
Q 21.484375 6.890625 26.703125 6.890625 
Q 35.15625 6.890625 40.078125 11.328125 
Q 45.015625 15.765625 45.015625 23.390625 
Q 45.015625 31 40.078125 35.4375 
Q 35.15625 39.890625 26.703125 39.890625 
Q 22.75 39.890625 18.8125 39.015625 
Q 14.890625 38.140625 10.796875 36.28125 
z
" id="DejaVuSans-35"/>
      </defs>
      <g transform="translate(16.5375 84.993926)scale(0.08 -0.08)">
       <use xlink:href="#DejaVuSans-30"/>
       <use x="63.623047" xlink:href="#DejaVuSans-2e"/>
       <use x="95.410156" xlink:href="#DejaVuSans-30"/>
       <use x="159.033203" xlink:href="#DejaVuSans-35"/>
      </g>
     </g>
    </g>
    <g id="ytick_3">
     <g id="line2d_13">
      <g>
       <use style="stroke:#000000;stroke-width:0.8;" x="39.6" xlink:href="#m912ab654b1" y="58.069101"/>
      </g>
     </g>
     <g id="text_2">
      <!-- 0.10 -->
      <defs>
       <path d="M 12.40625 8.296875 
L 28.515625 8.296875 
L 28.515625 63.921875 
L 10.984375 60.40625 
L 10.984375 69.390625 
L 28.421875 72.90625 
L 38.28125 72.90625 
L 38.28125 8.296875 
L 54.390625 8.296875 
L 54.390625 0 
L 12.40625 0 
z
" id="DejaVuSans-31"/>
      </defs>
      <g transform="translate(16.5375 61.108476)scale(0.08 -0.08)">
       <use xlink:href="#DejaVuSans-30"/>
       <use x="63.623047" xlink:href="#DejaVuSans-2e"/>
       <use x="95.410156" xlink:href="#DejaVuSans-31"/>
       <use x="159.033203" xlink:href="#DejaVuSans-30"/>
      </g>
     </g>
    </g>
    <g id="ytick_4">
     <g id="line2d_14">
      <g>
       <use style="stroke:#000000;stroke-width:0.8;" x="39.6" xlink:href="#m912ab654b1" y="34.183652"/>
      </g>
     </g>
     <g id="text_3">
      <!-- 0.15 -->
      <g transform="translate(16.5375 37.223027)scale(0.08 -0.08)">
       <use xlink:href="#DejaVuSans-30"/>
       <use x="63.623047" xlink:href="#DejaVuSans-2e"/>
       <use x="95.410156" xlink:href="#DejaVuSans-31"/>
       <use x="159.033203" xlink:href="#DejaVuSans-35"/>
      </g>
     </g>
    </g>
    <g id="text_4">
     <!-- Probability density -->
     <defs>
      <path d="M 19.671875 64.796875 
L 19.671875 37.40625 
L 32.078125 37.40625 
Q 38.96875 37.40625 42.71875 40.96875 
Q 46.484375 44.53125 46.484375 51.125 
Q 46.484375 57.671875 42.71875 61.234375 
Q 38.96875 64.796875 32.078125 64.796875 
z
M 9.8125 72.90625 
L 32.078125 72.90625 
Q 44.34375 72.90625 50.609375 67.359375 
Q 56.890625 61.8125 56.890625 51.125 
Q 56.890625 40.328125 50.609375 34.8125 
Q 44.34375 29.296875 32.078125 29.296875 
L 19.671875 29.296875 
L 19.671875 0 
L 9.8125 0 
z
" id="DejaVuSans-50"/>
      <path d="M 41.109375 46.296875 
Q 39.59375 47.171875 37.8125 47.578125 
Q 36.03125 48 33.890625 48 
Q 26.265625 48 22.1875 43.046875 
Q 18.109375 38.09375 18.109375 28.8125 
L 18.109375 0 
L 9.078125 0 
L 9.078125 54.6875 
L 18.109375 54.6875 
L 18.109375 46.1875 
Q 20.953125 51.171875 25.484375 53.578125 
Q 30.03125 56 36.53125 56 
Q 37.453125 56 38.578125 55.875 
Q 39.703125 55.765625 41.0625 55.515625 
z
" id="DejaVuSans-72"/>
      <path d="M 30.609375 48.390625 
Q 23.390625 48.390625 19.1875 42.75 
Q 14.984375 37.109375 14.984375 27.296875 
Q 14.984375 17.484375 19.15625 11.84375 
Q 23.34375 6.203125 30.609375 6.203125 
Q 37.796875 6.203125 41.984375 11.859375 
Q 46.1875 17.53125 46.1875 27.296875 
Q 46.1875 37.015625 41.984375 42.703125 
Q 37.796875 48.390625 30.609375 48.390625 
z
M 30.609375 56 
Q 42.328125 56 49.015625 48.375 
Q 55.71875 40.765625 55.71875 27.296875 
Q 55.71875 13.875 49.015625 6.21875 
Q 42.328125 -1.421875 30.609375 -1.421875 
Q 18.84375 -1.421875 12.171875 6.21875 
Q 5.515625 13.875 5.515625 27.296875 
Q 5.515625 40.765625 12.171875 48.375 
Q 18.84375 56 30.609375 56 
z
" id="DejaVuSans-6f"/>
      <path d="M 48.6875 27.296875 
Q 48.6875 37.203125 44.609375 42.84375 
Q 40.53125 48.484375 33.40625 48.484375 
Q 26.265625 48.484375 22.1875 42.84375 
Q 18.109375 37.203125 18.109375 27.296875 
Q 18.109375 17.390625 22.1875 11.75 
Q 26.265625 6.109375 33.40625 6.109375 
Q 40.53125 6.109375 44.609375 11.75 
Q 48.6875 17.390625 48.6875 27.296875 
z
M 18.109375 46.390625 
Q 20.953125 51.265625 25.265625 53.625 
Q 29.59375 56 35.59375 56 
Q 45.5625 56 51.78125 48.09375 
Q 58.015625 40.1875 58.015625 27.296875 
Q 58.015625 14.40625 51.78125 6.484375 
Q 45.5625 -1.421875 35.59375 -1.421875 
Q 29.59375 -1.421875 25.265625 0.953125 
Q 20.953125 3.328125 18.109375 8.203125 
L 18.109375 0 
L 9.078125 0 
L 9.078125 75.984375 
L 18.109375 75.984375 
z
" id="DejaVuSans-62"/>
      <path d="M 34.28125 27.484375 
Q 23.390625 27.484375 19.1875 25 
Q 14.984375 22.515625 14.984375 16.5 
Q 14.984375 11.71875 18.140625 8.90625 
Q 21.296875 6.109375 26.703125 6.109375 
Q 34.1875 6.109375 38.703125 11.40625 
Q 43.21875 16.703125 43.21875 25.484375 
L 43.21875 27.484375 
z
M 52.203125 31.203125 
L 52.203125 0 
L 43.21875 0 
L 43.21875 8.296875 
Q 40.140625 3.328125 35.546875 0.953125 
Q 30.953125 -1.421875 24.3125 -1.421875 
Q 15.921875 -1.421875 10.953125 3.296875 
Q 6 8.015625 6 15.921875 
Q 6 25.140625 12.171875 29.828125 
Q 18.359375 34.515625 30.609375 34.515625 
L 43.21875 34.515625 
L 43.21875 35.40625 
Q 43.21875 41.609375 39.140625 45 
Q 35.0625 48.390625 27.6875 48.390625 
Q 23 48.390625 18.546875 47.265625 
Q 14.109375 46.140625 10.015625 43.890625 
L 10.015625 52.203125 
Q 14.9375 54.109375 19.578125 55.046875 
Q 24.21875 56 28.609375 56 
Q 40.484375 56 46.34375 49.84375 
Q 52.203125 43.703125 52.203125 31.203125 
z
" id="DejaVuSans-61"/>
      <path d="M 9.421875 54.6875 
L 18.40625 54.6875 
L 18.40625 0 
L 9.421875 0 
z
M 9.421875 75.984375 
L 18.40625 75.984375 
L 18.40625 64.59375 
L 9.421875 64.59375 
z
" id="DejaVuSans-69"/>
      <path d="M 9.421875 75.984375 
L 18.40625 75.984375 
L 18.40625 0 
L 9.421875 0 
z
" id="DejaVuSans-6c"/>
      <path d="M 18.3125 70.21875 
L 18.3125 54.6875 
L 36.8125 54.6875 
L 36.8125 47.703125 
L 18.3125 47.703125 
L 18.3125 18.015625 
Q 18.3125 11.328125 20.140625 9.421875 
Q 21.96875 7.515625 27.59375 7.515625 
L 36.8125 7.515625 
L 36.8125 0 
L 27.59375 0 
Q 17.1875 0 13.234375 3.875 
Q 9.28125 7.765625 9.28125 18.015625 
L 9.28125 47.703125 
L 2.6875 47.703125 
L 2.6875 54.6875 
L 9.28125 54.6875 
L 9.28125 70.21875 
z
" id="DejaVuSans-74"/>
      <path d="M 32.171875 -5.078125 
Q 28.375 -14.84375 24.75 -17.8125 
Q 21.140625 -20.796875 15.09375 -20.796875 
L 7.90625 -20.796875 
L 7.90625 -13.28125 
L 13.1875 -13.28125 
Q 16.890625 -13.28125 18.9375 -11.515625 
Q 21 -9.765625 23.484375 -3.21875 
L 25.09375 0.875 
L 2.984375 54.6875 
L 12.5 54.6875 
L 29.59375 11.921875 
L 46.6875 54.6875 
L 56.203125 54.6875 
z
" id="DejaVuSans-79"/>
      <path id="DejaVuSans-20"/>
      <path d="M 45.40625 46.390625 
L 45.40625 75.984375 
L 54.390625 75.984375 
L 54.390625 0 
L 45.40625 0 
L 45.40625 8.203125 
Q 42.578125 3.328125 38.25 0.953125 
Q 33.9375 -1.421875 27.875 -1.421875 
Q 17.96875 -1.421875 11.734375 6.484375 
Q 5.515625 14.40625 5.515625 27.296875 
Q 5.515625 40.1875 11.734375 48.09375 
Q 17.96875 56 27.875 56 
Q 33.9375 56 38.25 53.625 
Q 42.578125 51.265625 45.40625 46.390625 
z
M 14.796875 27.296875 
Q 14.796875 17.390625 18.875 11.75 
Q 22.953125 6.109375 30.078125 6.109375 
Q 37.203125 6.109375 41.296875 11.75 
Q 45.40625 17.390625 45.40625 27.296875 
Q 45.40625 37.203125 41.296875 42.84375 
Q 37.203125 48.484375 30.078125 48.484375 
Q 22.953125 48.484375 18.875 42.84375 
Q 14.796875 37.203125 14.796875 27.296875 
z
" id="DejaVuSans-64"/>
      <path d="M 56.203125 29.59375 
L 56.203125 25.203125 
L 14.890625 25.203125 
Q 15.484375 15.921875 20.484375 11.0625 
Q 25.484375 6.203125 34.421875 6.203125 
Q 39.59375 6.203125 44.453125 7.46875 
Q 49.3125 8.734375 54.109375 11.28125 
L 54.109375 2.78125 
Q 49.265625 0.734375 44.1875 -0.34375 
Q 39.109375 -1.421875 33.890625 -1.421875 
Q 20.796875 -1.421875 13.15625 6.1875 
Q 5.515625 13.8125 5.515625 26.8125 
Q 5.515625 40.234375 12.765625 48.109375 
Q 20.015625 56 32.328125 56 
Q 43.359375 56 49.78125 48.890625 
Q 56.203125 41.796875 56.203125 29.59375 
z
M 47.21875 32.234375 
Q 47.125 39.59375 43.09375 43.984375 
Q 39.0625 48.390625 32.421875 48.390625 
Q 24.90625 48.390625 20.390625 44.140625 
Q 15.875 39.890625 15.1875 32.171875 
z
" id="DejaVuSans-65"/>
      <path d="M 54.890625 33.015625 
L 54.890625 0 
L 45.90625 0 
L 45.90625 32.71875 
Q 45.90625 40.484375 42.875 44.328125 
Q 39.84375 48.1875 33.796875 48.1875 
Q 26.515625 48.1875 22.3125 43.546875 
Q 18.109375 38.921875 18.109375 30.90625 
L 18.109375 0 
L 9.078125 0 
L 9.078125 54.6875 
L 18.109375 54.6875 
L 18.109375 46.1875 
Q 21.34375 51.125 25.703125 53.5625 
Q 30.078125 56 35.796875 56 
Q 45.21875 56 50.046875 50.171875 
Q 54.890625 44.34375 54.890625 33.015625 
z
" id="DejaVuSans-6e"/>
      <path d="M 44.28125 53.078125 
L 44.28125 44.578125 
Q 40.484375 46.53125 36.375 47.5 
Q 32.28125 48.484375 27.875 48.484375 
Q 21.1875 48.484375 17.84375 46.4375 
Q 14.5 44.390625 14.5 40.28125 
Q 14.5 37.15625 16.890625 35.375 
Q 19.28125 33.59375 26.515625 31.984375 
L 29.59375 31.296875 
Q 39.15625 29.25 43.1875 25.515625 
Q 47.21875 21.78125 47.21875 15.09375 
Q 47.21875 7.46875 41.1875 3.015625 
Q 35.15625 -1.421875 24.609375 -1.421875 
Q 20.21875 -1.421875 15.453125 -0.5625 
Q 10.6875 0.296875 5.421875 2 
L 5.421875 11.28125 
Q 10.40625 8.6875 15.234375 7.390625 
Q 20.0625 6.109375 24.8125 6.109375 
Q 31.15625 6.109375 34.5625 8.28125 
Q 37.984375 10.453125 37.984375 14.40625 
Q 37.984375 18.0625 35.515625 20.015625 
Q 33.0625 21.96875 24.703125 23.78125 
L 21.578125 24.515625 
Q 13.234375 26.265625 9.515625 29.90625 
Q 5.8125 33.546875 5.8125 39.890625 
Q 5.8125 47.609375 11.28125 51.796875 
Q 16.75 56 26.8125 56 
Q 31.78125 56 36.171875 55.265625 
Q 40.578125 54.546875 44.28125 53.078125 
z
" id="DejaVuSans-73"/>
     </defs>
     <g transform="translate(10.87375 100.95875)rotate(-90)scale(0.08 -0.08)">
      <use xlink:href="#DejaVuSans-50"/>
      <use x="60.287109" xlink:href="#DejaVuSans-72"/>
      <use x="101.369141" xlink:href="#DejaVuSans-6f"/>
      <use x="162.550781" xlink:href="#DejaVuSans-62"/>
      <use x="226.027344" xlink:href="#DejaVuSans-61"/>
      <use x="287.306641" xlink:href="#DejaVuSans-62"/>
      <use x="350.783203" xlink:href="#DejaVuSans-69"/>
      <use x="378.566406" xlink:href="#DejaVuSans-6c"/>
      <use x="406.349609" xlink:href="#DejaVuSans-69"/>
      <use x="434.132812" xlink:href="#DejaVuSans-74"/>
      <use x="473.341797" xlink:href="#DejaVuSans-79"/>
      <use x="532.521484" xlink:href="#DejaVuSans-20"/>
      <use x="564.308594" xlink:href="#DejaVuSans-64"/>
      <use x="627.785156" xlink:href="#DejaVuSans-65"/>
      <use x="689.308594" xlink:href="#DejaVuSans-6e"/>
      <use x="752.6875" xlink:href="#DejaVuSans-73"/>
      <use x="804.787109" xlink:href="#DejaVuSans-69"/>
      <use x="832.570312" xlink:href="#DejaVuSans-74"/>
      <use x="871.779297" xlink:href="#DejaVuSans-79"/>
     </g>
    </g>
   </g>
   <g id="line2d_15">
    <path clip-path="url(#pc3155f11ee)" d="M 47.52 69.864012 
L 49.12 66.257901 
L 50.72 62.797445 
L 52.32 59.542302 
L 53.92 56.540015 
L 55.52 53.824599 
L 57.12 51.416591 
L 58.72 49.324389 
L 60.32 47.546556 
L 61.92 46.074644 
L 63.52 44.896074 
L 65.12 43.996665 
L 66.72 43.362525 
L 68.32 42.981176 
L 69.92 42.841934 
L 71.52 42.935705 
L 73.12 43.254406 
L 74.72 43.790273 
L 76.32 44.535236 
L 77.92 45.480505 
L 79.52 46.616414 
L 81.12 47.932482 
L 82.72 49.417613 
L 84.32 51.060329 
L 85.92 52.84893 
L 87.52 54.771532 
L 89.12 56.815955 
L 90.72 58.969487 
L 92.32 61.218594 
L 93.92 63.548638 
L 95.52 65.943689 
L 97.12 68.386471 
L 98.72 70.858487 
L 100.32 73.340296 
L 101.92 75.81194 
L 103.52 78.253449 
L 105.12 80.64539 
L 106.72 82.9694 
L 108.32 85.20866 
L 109.92 87.348291 
L 111.52 89.375647 
L 113.12 91.280512 
L 114.72 93.055194 
L 116.32 94.694539 
L 117.92 96.195861 
L 119.52 97.558812 
L 121.12 98.785192 
L 122.72 99.878711 
L 124.32 100.844714 
L 125.92 101.689884 
L 127.52 102.421919 
L 129.12 103.049216 
L 130.72 103.580555 
L 132.32 104.024797 
L 133.92 104.390621 
L 135.52 104.686288 
L 137.12 104.919443 
L 138.72 105.096976 
L 140.32 105.224929 
L 141.92 105.308452 
L 143.52 105.351831 
L 145.12 105.358557 
L 146.72 105.331453 
L 148.32 105.272848 
L 149.92 105.184778 
L 151.52 105.069215 
L 153.12 104.92829 
L 154.72 104.764507 
L 156.32 104.580917 
L 157.92 104.38124 
L 159.52 104.169917 
L 161.12 103.952086 
L 162.72 103.733466 
L 164.32 103.520167 
L 165.92 103.318419 
L 167.52 103.13425 
L 169.12 102.973128 
L 170.72 102.839616 
L 172.32 102.737048 
L 173.92 102.667282 
L 175.52 102.630552 
L 177.12 102.625435 
L 178.72 102.648955 
L 180.32 102.69681 
L 181.92 102.763704 
L 183.52 102.843762 
L 185.12 102.930988 
L 186.72 103.019716 
L 188.32 103.105018 
L 189.92 103.183049 
L 191.52 103.251268 
L 193.12 103.308568 
L 194.72 103.355267 
L 196.32 103.392998 
L 197.92 103.424496 
L 199.52 103.453317 
L 201.12 103.483489 
L 202.72 103.519157 
L 204.32 103.564212 
L 205.92 103.621962 
" style="fill:none;stroke:#b0c4de;stroke-linecap:square;stroke-width:0.75;"/>
   </g>
   <g id="line2d_16">
    <path clip-path="url(#pc3155f11ee)" d="M 47.52 71.118739 
L 49.12 68.785206 
L 50.72 66.60486 
L 52.32 64.610487 
L 53.92 62.830115 
L 55.52 61.286261 
L 57.12 59.995493 
L 58.72 58.968288 
L 60.32 58.209185 
L 61.92 57.717182 
L 63.52 57.486328 
L 65.12 57.506453 
L 66.72 57.763956 
L 68.32 58.242612 
L 69.92 58.924319 
L 71.52 59.789771 
L 73.12 60.819022 
L 74.72 61.991919 
L 76.32 63.288434 
L 77.92 64.688879 
L 79.52 66.174047 
L 81.12 67.725291 
L 82.72 69.324567 
L 84.32 70.954469 
L 85.92 72.598266 
L 87.52 74.23996 
L 89.12 75.864365 
L 90.72 77.457219 
L 92.32 79.00531 
L 93.92 80.496619 
L 95.52 81.920473 
L 97.12 83.267686 
L 98.72 84.53069 
L 100.32 85.703639 
L 101.92 86.78248 
L 103.52 87.764989 
L 105.12 88.65076 
L 106.72 89.441158 
L 108.32 90.139221 
L 109.92 90.74953 
L 111.52 91.278042 
L 113.12 91.731881 
L 114.72 92.119124 
L 116.32 92.448553 
L 117.92 92.729407 
L 119.52 92.971128 
L 121.12 93.183116 
L 122.72 93.374491 
L 124.32 93.553879 
L 125.92 93.729218 
L 127.52 93.907584 
L 129.12 94.09506 
L 130.72 94.296618 
L 132.32 94.516043 
L 133.92 94.75588 
L 135.52 95.01742 
L 137.12 95.300708 
L 138.72 95.604593 
L 140.32 95.926802 
L 141.92 96.264055 
L 143.52 96.612211 
L 145.12 96.96644 
L 146.72 97.321433 
L 148.32 97.671626 
L 149.92 98.011446 
L 151.52 98.335554 
L 153.12 98.639089 
L 154.72 98.917887 
L 156.32 99.168667 
L 157.92 99.389179 
L 159.52 99.578294 
L 161.12 99.736043 
L 162.72 99.863586 
L 164.32 99.963135 
L 165.92 100.03782 
L 167.52 100.091514 
L 169.12 100.12863 
L 170.72 100.153905 
L 172.32 100.172174 
L 173.92 100.188161 
L 175.52 100.206287 
L 177.12 100.230509 
L 178.72 100.264187 
L 180.32 100.30999 
L 181.92 100.36984 
L 183.52 100.444883 
L 185.12 100.535498 
L 186.72 100.641317 
L 188.32 100.761284 
L 189.92 100.893719 
L 191.52 101.036396 
L 193.12 101.186633 
L 194.72 101.341393 
L 196.32 101.497382 
L 197.92 101.651162 
L 199.52 101.799256 
L 201.12 101.938268 
L 202.72 102.06499 
L 204.32 102.176516 
L 205.92 102.270348 
" style="fill:none;stroke:#1f77b4;stroke-linecap:square;stroke-width:0.75;"/>
   </g>
   <g id="patch_3">
    <path d="M 39.6 105.84 
L 39.6 21.6 
" style="fill:none;stroke:#000000;stroke-linecap:square;stroke-linejoin:miter;stroke-width:0.8;"/>
   </g>
   <g id="patch_4">
    <path d="M 213.84 105.84 
L 213.84 21.6 
" style="fill:none;stroke:#000000;stroke-linecap:square;stroke-linejoin:miter;stroke-width:0.8;"/>
   </g>
   <g id="patch_5">
    <path d="M 39.6 105.84 
L 213.84 105.84 
" style="fill:none;stroke:#000000;stroke-linecap:square;stroke-linejoin:miter;stroke-width:0.8;"/>
   </g>
   <g id="patch_6">
    <path d="M 39.6 21.6 
L 213.84 21.6 
" style="fill:none;stroke:#000000;stroke-linecap:square;stroke-linejoin:miter;stroke-width:0.8;"/>
   </g>
   <g id="text_5">
    <!-- a -->
    <defs>
     <path d="M 32.90625 24.609375 
Q 27.4375 24.609375 24.671875 22.75 
Q 21.921875 20.90625 21.921875 17.28125 
Q 21.921875 13.96875 24.140625 12.078125 
Q 26.375 10.203125 30.328125 10.203125 
Q 35.25 10.203125 38.625 13.734375 
Q 42 17.28125 42 22.609375 
L 42 24.609375 
z
M 59.625 31.203125 
L 59.625 0 
L 42 0 
L 42 8.109375 
Q 38.484375 3.125 34.078125 0.84375 
Q 29.6875 -1.421875 23.390625 -1.421875 
Q 14.890625 -1.421875 9.59375 3.53125 
Q 4.296875 8.5 4.296875 16.40625 
Q 4.296875 26.03125 10.90625 30.515625 
Q 17.53125 35.015625 31.6875 35.015625 
L 42 35.015625 
L 42 36.375 
Q 42 40.53125 38.71875 42.453125 
Q 35.453125 44.390625 28.515625 44.390625 
Q 22.90625 44.390625 18.0625 43.265625 
Q 13.234375 42.140625 9.078125 39.890625 
L 9.078125 53.21875 
Q 14.703125 54.59375 20.359375 55.296875 
Q 26.03125 56 31.6875 56 
Q 46.484375 56 53.046875 50.171875 
Q 59.625 44.34375 59.625 31.203125 
z
" id="DejaVuSans-Bold-61"/>
    </defs>
    <g transform="translate(197.704719 34.170281)scale(0.11 -0.11)">
     <use xlink:href="#DejaVuSans-Bold-61"/>
    </g>
   </g>
   <g id="text_6">
    <!-- AL -->
    <defs>
     <path d="M 34.1875 63.1875 
L 20.796875 26.90625 
L 47.609375 26.90625 
z
M 28.609375 72.90625 
L 39.796875 72.90625 
L 67.578125 0 
L 57.328125 0 
L 50.6875 18.703125 
L 17.828125 18.703125 
L 11.1875 0 
L 0.78125 0 
z
" id="DejaVuSans-41"/>
     <path d="M 9.8125 72.90625 
L 19.671875 72.90625 
L 19.671875 8.296875 
L 55.171875 8.296875 
L 55.171875 0 
L 9.8125 0 
z
" id="DejaVuSans-4c"/>
    </defs>
    <g transform="translate(120.51375 33.410438)scale(0.1 -0.1)">
     <use xlink:href="#DejaVuSans-41"/>
     <use x="68.408203" xlink:href="#DejaVuSans-4c"/>
    </g>
   </g>
  </g>
  <g id="axes_2">
   <g id="patch_7">
    <path d="M 213.84 105.84 
L 388.08 105.84 
L 388.08 21.6 
L 213.84 21.6 
z
" style="fill:#ffffff;"/>
   </g>
   <g id="PolyCollection_3">
    <path clip-path="url(#p474ce68a9e)" d="M 221.76 42.417404 
L 221.76 76.10095 
L 223.36 75.753774 
L 224.96 75.393156 
L 226.56 75.112494 
L 228.16 74.895801 
L 229.76 74.728009 
L 231.36 74.624302 
L 232.96 74.608323 
L 234.56 74.633145 
L 236.16 74.746576 
L 237.76 74.921635 
L 239.36 75.114057 
L 240.96 75.347552 
L 242.56 75.633405 
L 244.16 75.971974 
L 245.76 76.402771 
L 247.36 76.963511 
L 248.96 77.475559 
L 250.56 78.099807 
L 252.16 78.944229 
L 253.76 79.944378 
L 255.36 81.004985 
L 256.96 82.462243 
L 258.56 84.397545 
L 260.16 86.281753 
L 261.76 88.114547 
L 263.36 89.717073 
L 264.96 91.101663 
L 266.56 92.349881 
L 268.16 93.513873 
L 269.76 94.569737 
L 271.36 95.685182 
L 272.96 96.516494 
L 274.56 97.253556 
L 276.16 97.986478 
L 277.76 98.618363 
L 279.36 99.023198 
L 280.96 99.382636 
L 282.56 99.905118 
L 284.16 100.189094 
L 285.76 100.561525 
L 287.36 100.903444 
L 288.96 101.194773 
L 290.56 101.467743 
L 292.16 101.650465 
L 293.76 101.847212 
L 295.36 102.028717 
L 296.96 102.244205 
L 298.56 102.423889 
L 300.16 102.650867 
L 301.76 102.782997 
L 303.36 102.884818 
L 304.96 102.975462 
L 306.56 103.13173 
L 308.16 103.278067 
L 309.76 103.365745 
L 311.36 103.456699 
L 312.96 103.582822 
L 314.56 103.710361 
L 316.16 103.805935 
L 317.76 103.862776 
L 319.36 103.962231 
L 320.96 104.048107 
L 322.56 104.116716 
L 324.16 104.205713 
L 325.76 104.280897 
L 327.36 104.344258 
L 328.96 104.394609 
L 330.56 104.447553 
L 332.16 104.498587 
L 333.76 104.549399 
L 335.36 104.581808 
L 336.96 104.618146 
L 338.56 104.668889 
L 340.16 104.745599 
L 341.76 104.847188 
L 343.36 104.908235 
L 344.96 104.918683 
L 346.56 104.921926 
L 348.16 104.936434 
L 349.76 104.92421 
L 351.36 104.934613 
L 352.96 104.978609 
L 354.56 104.960511 
L 356.16 104.981156 
L 357.76 104.965565 
L 359.36 104.969157 
L 360.96 104.938873 
L 362.56 104.903154 
L 364.16 104.912195 
L 365.76 104.887403 
L 367.36 104.86857 
L 368.96 104.872753 
L 370.56 104.846894 
L 372.16 104.83422 
L 373.76 104.838225 
L 375.36 104.843012 
L 376.96 104.882461 
L 378.56 104.889155 
L 380.16 104.885038 
L 380.16 100.126719 
L 380.16 100.126719 
L 378.56 100.246723 
L 376.96 100.44244 
L 375.36 100.575715 
L 373.76 100.684733 
L 372.16 100.878885 
L 370.56 100.964918 
L 368.96 101.049692 
L 367.36 101.121583 
L 365.76 101.184412 
L 364.16 101.220907 
L 362.56 101.186496 
L 360.96 101.228158 
L 359.36 101.236 
L 357.76 101.24594 
L 356.16 101.213133 
L 354.56 101.185542 
L 352.96 101.118277 
L 351.36 101.025277 
L 349.76 100.940431 
L 348.16 100.818028 
L 346.56 100.700772 
L 344.96 100.58815 
L 343.36 100.472637 
L 341.76 100.381931 
L 340.16 100.285335 
L 338.56 100.225598 
L 336.96 100.167705 
L 335.36 100.111065 
L 333.76 99.998713 
L 332.16 99.887674 
L 330.56 99.795803 
L 328.96 99.670106 
L 327.36 99.547554 
L 325.76 99.456169 
L 324.16 99.335161 
L 322.56 99.168917 
L 320.96 99.016629 
L 319.36 98.823411 
L 317.76 98.639152 
L 316.16 98.470633 
L 314.56 98.247984 
L 312.96 98.05392 
L 311.36 97.879153 
L 309.76 97.690425 
L 308.16 97.433339 
L 306.56 97.246556 
L 304.96 97.034939 
L 303.36 96.7566 
L 301.76 96.418066 
L 300.16 96.065133 
L 298.56 95.711743 
L 296.96 95.324899 
L 295.36 94.916991 
L 293.76 94.449965 
L 292.16 93.92941 
L 290.56 93.41988 
L 288.96 92.917495 
L 287.36 92.387291 
L 285.76 91.811654 
L 284.16 91.170322 
L 282.56 90.564654 
L 280.96 89.863759 
L 279.36 89.190083 
L 277.76 88.462511 
L 276.16 87.684359 
L 274.56 86.848829 
L 272.96 86.009762 
L 271.36 85.110982 
L 269.76 84.201859 
L 268.16 83.208126 
L 266.56 82.114784 
L 264.96 80.994294 
L 263.36 79.828392 
L 261.76 78.48872 
L 260.16 77.087825 
L 258.56 75.746403 
L 256.96 74.144663 
L 255.36 72.410482 
L 253.76 70.636509 
L 252.16 68.59644 
L 250.56 66.341198 
L 248.96 63.854952 
L 247.36 61.399099 
L 245.76 58.76271 
L 244.16 56.01136 
L 242.56 52.931874 
L 240.96 49.617052 
L 239.36 46.740394 
L 237.76 43.813845 
L 236.16 41.422193 
L 234.56 38.972723 
L 232.96 37.49208 
L 231.36 36.262484 
L 229.76 35.908681 
L 228.16 36.033492 
L 226.56 36.93421 
L 224.96 38.203649 
L 223.36 39.926937 
L 221.76 42.417404 
z
" style="fill:#b0c4de;fill-opacity:0.5;"/>
   </g>
   <g id="PolyCollection_4"/>
   <g id="matplotlib.axis_3">
    <g id="xtick_6">
     <g id="line2d_17">
      <g>
       <use style="stroke:#000000;stroke-width:0.8;" x="221.76" xlink:href="#m36e7c232e7" y="105.84"/>
      </g>
     </g>
     <g id="line2d_18">
      <g>
       <use style="stroke:#000000;stroke-width:0.8;" x="221.76" xlink:href="#m36e7c232e7" y="21.6"/>
      </g>
     </g>
    </g>
    <g id="xtick_7">
     <g id="line2d_19">
      <g>
       <use style="stroke:#000000;stroke-width:0.8;" x="261.36" xlink:href="#m36e7c232e7" y="105.84"/>
      </g>
     </g>
     <g id="line2d_20">
      <g>
       <use style="stroke:#000000;stroke-width:0.8;" x="261.36" xlink:href="#m36e7c232e7" y="21.6"/>
      </g>
     </g>
    </g>
    <g id="xtick_8">
     <g id="line2d_21">
      <g>
       <use style="stroke:#000000;stroke-width:0.8;" x="300.96" xlink:href="#m36e7c232e7" y="105.84"/>
      </g>
     </g>
     <g id="line2d_22">
      <g>
       <use style="stroke:#000000;stroke-width:0.8;" x="300.96" xlink:href="#m36e7c232e7" y="21.6"/>
      </g>
     </g>
    </g>
    <g id="xtick_9">
     <g id="line2d_23">
      <g>
       <use style="stroke:#000000;stroke-width:0.8;" x="340.56" xlink:href="#m36e7c232e7" y="105.84"/>
      </g>
     </g>
     <g id="line2d_24">
      <g>
       <use style="stroke:#000000;stroke-width:0.8;" x="340.56" xlink:href="#m36e7c232e7" y="21.6"/>
      </g>
     </g>
    </g>
    <g id="xtick_10">
     <g id="line2d_25">
      <g>
       <use style="stroke:#000000;stroke-width:0.8;" x="380.16" xlink:href="#m36e7c232e7" y="105.84"/>
      </g>
     </g>
     <g id="line2d_26">
      <g>
       <use style="stroke:#000000;stroke-width:0.8;" x="380.16" xlink:href="#m36e7c232e7" y="21.6"/>
      </g>
     </g>
    </g>
   </g>
   <g id="matplotlib.axis_4">
    <g id="ytick_5">
     <g id="line2d_27">
      <g>
       <use style="stroke:#000000;stroke-width:0.8;" x="213.84" xlink:href="#m912ab654b1" y="105.84"/>
      </g>
     </g>
    </g>
    <g id="ytick_6">
     <g id="line2d_28">
      <g>
       <use style="stroke:#000000;stroke-width:0.8;" x="213.84" xlink:href="#m912ab654b1" y="81.954551"/>
      </g>
     </g>
    </g>
    <g id="ytick_7">
     <g id="line2d_29">
      <g>
       <use style="stroke:#000000;stroke-width:0.8;" x="213.84" xlink:href="#m912ab654b1" y="58.069101"/>
      </g>
     </g>
    </g>
    <g id="ytick_8">
     <g id="line2d_30">
      <g>
       <use style="stroke:#000000;stroke-width:0.8;" x="213.84" xlink:href="#m912ab654b1" y="34.183652"/>
      </g>
     </g>
    </g>
   </g>
   <g id="line2d_31">
    <path clip-path="url(#p474ce68a9e)" d="M 221.76 65.602154 
L 223.36 64.877973 
L 224.96 64.280913 
L 226.56 63.815876 
L 228.16 63.486389 
L 229.76 63.294554 
L 231.36 63.241025 
L 232.96 63.325003 
L 234.56 63.544263 
L 236.16 63.895205 
L 237.76 64.372929 
L 239.36 64.971323 
L 240.96 65.683188 
L 242.56 66.500355 
L 244.16 67.413838 
L 245.76 68.413981 
L 247.36 69.490617 
L 248.96 70.633226 
L 250.56 71.831099 
L 252.16 73.073492 
L 253.76 74.349771 
L 255.36 75.649551 
L 256.96 76.962827 
L 258.56 78.28008 
L 260.16 79.592376 
L 261.76 80.891448 
L 263.36 82.169759 
L 264.96 83.420548 
L 266.56 84.637862 
L 268.16 85.81657 
L 269.76 86.952364 
L 271.36 88.041742 
L 272.96 89.081987 
L 274.56 90.07113 
L 276.16 91.0079 
L 277.76 91.891681 
L 279.36 92.722446 
L 280.96 93.500702 
L 282.56 94.227422 
L 284.16 94.903987 
L 285.76 95.532117 
L 287.36 96.113814 
L 288.96 96.651298 
L 290.56 97.146959 
L 292.16 97.603297 
L 293.76 98.022883 
L 295.36 98.40831 
L 296.96 98.762163 
L 298.56 99.086979 
L 300.16 99.385227 
L 301.76 99.659278 
L 303.36 99.911394 
L 304.96 100.143707 
L 306.56 100.358215 
L 308.16 100.556769 
L 309.76 100.74107 
L 311.36 100.912671 
L 312.96 101.072973 
L 314.56 101.223231 
L 316.16 101.364553 
L 317.76 101.49791 
L 319.36 101.62414 
L 320.96 101.743954 
L 322.56 101.857943 
L 324.16 101.966588 
L 325.76 102.070263 
L 327.36 102.169252 
L 328.96 102.263746 
L 330.56 102.353859 
L 332.16 102.439637 
L 333.76 102.521062 
L 335.36 102.598063 
L 336.96 102.670525 
L 338.56 102.7383 
L 340.16 102.801212 
L 341.76 102.859073 
L 343.36 102.911683 
L 344.96 102.95885 
L 346.56 103.000393 
L 348.16 103.036151 
L 349.76 103.065997 
L 351.36 103.089843 
L 352.96 103.107648 
L 354.56 103.119428 
L 356.16 103.125262 
L 357.76 103.125293 
L 359.36 103.11974 
L 360.96 103.108894 
L 362.56 103.093122 
L 364.16 103.072868 
L 365.76 103.048649 
L 367.36 103.021052 
L 368.96 102.990728 
L 370.56 102.958386 
L 372.16 102.924784 
L 373.76 102.890718 
L 375.36 102.857011 
L 376.96 102.824503 
L 378.56 102.794036 
L 380.16 102.766438 
" style="fill:none;stroke:#b0c4de;stroke-linecap:square;stroke-width:0.75;"/>
   </g>
   <g id="line2d_32">
    <path clip-path="url(#p474ce68a9e)" d="M 221.76 48.644688 
L 223.36 45.092783 
L 224.96 42.004845 
L 226.56 39.450042 
L 228.16 37.480231 
L 229.76 36.128234 
L 231.36 35.407242 
L 232.96 35.311284 
L 234.56 35.816651 
L 236.16 36.884052 
L 237.76 38.461317 
L 239.36 40.4864 
L 240.96 42.890478 
L 242.56 45.600984 
L 244.16 48.544431 
L 245.76 51.648937 
L 247.36 54.846387 
L 248.96 58.074199 
L 250.56 61.276683 
L 252.16 64.405982 
L 253.76 67.422609 
L 255.36 70.2956 
L 256.96 73.002307 
L 258.56 75.527883 
L 260.16 77.864515 
L 261.76 80.010466 
L 263.36 81.969014 
L 264.96 83.747351 
L 266.56 85.355521 
L 268.16 86.805451 
L 269.76 88.110107 
L 271.36 89.282811 
L 272.96 90.336707 
L 274.56 91.28437 
L 276.16 92.137547 
L 277.76 92.906986 
L 279.36 93.602355 
L 280.96 94.232219 
L 282.56 94.804068 
L 284.16 95.324399 
L 285.76 95.798828 
L 287.36 96.232253 
L 288.96 96.629032 
L 290.56 96.993185 
L 292.16 97.328579 
L 293.76 97.639093 
L 295.36 97.928719 
L 296.96 98.201598 
L 298.56 98.461974 
L 300.16 98.714061 
L 301.76 98.961857 
L 303.36 99.208905 
L 304.96 99.458054 
L 306.56 99.711246 
L 308.16 99.969363 
L 309.76 100.232164 
L 311.36 100.498324 
L 312.96 100.765577 
L 314.56 101.030941 
L 316.16 101.291021 
L 317.76 101.542327 
L 319.36 101.7816 
L 320.96 102.006087 
L 322.56 102.21375 
L 324.16 102.403388 
L 325.76 102.574656 
L 327.36 102.728 
L 328.96 102.86451 
L 330.56 102.985718 
L 332.16 103.09338 
L 333.76 103.189251 
L 335.36 103.274897 
L 336.96 103.351552 
L 338.56 103.420046 
L 340.16 103.480792 
L 341.76 103.533846 
L 343.36 103.579014 
L 344.96 103.615998 
L 346.56 103.644562 
L 348.16 103.664685 
L 349.76 103.676699 
L 351.36 103.681378 
L 352.96 103.679983 
L 354.56 103.674246 
L 356.16 103.666296 
L 357.76 103.658544 
L 359.36 103.653523 
L 360.96 103.653713 
L 362.56 103.661362 
L 364.16 103.678321 
L 365.76 103.7059 
L 367.36 103.744783 
L 368.96 103.794972 
L 370.56 103.855796 
L 372.16 103.92597 
L 373.76 104.003692 
L 375.36 104.086783 
L 376.96 104.172851 
L 378.56 104.259465 
L 380.16 104.344328 
" style="fill:none;stroke:#1f77b4;stroke-linecap:square;stroke-width:0.75;"/>
   </g>
   <g id="patch_8">
    <path d="M 213.84 105.84 
L 213.84 21.6 
" style="fill:none;stroke:#000000;stroke-linecap:square;stroke-linejoin:miter;stroke-width:0.8;"/>
   </g>
   <g id="patch_9">
    <path d="M 388.08 105.84 
L 388.08 21.6 
" style="fill:none;stroke:#000000;stroke-linecap:square;stroke-linejoin:miter;stroke-width:0.8;"/>
   </g>
   <g id="patch_10">
    <path d="M 213.84 105.84 
L 388.08 105.84 
" style="fill:none;stroke:#000000;stroke-linecap:square;stroke-linejoin:miter;stroke-width:0.8;"/>
   </g>
   <g id="patch_11">
    <path d="M 213.84 21.6 
L 388.08 21.6 
" style="fill:none;stroke:#000000;stroke-linecap:square;stroke-linejoin:miter;stroke-width:0.8;"/>
   </g>
   <g id="text_7">
    <!-- b -->
    <defs>
     <path d="M 37.5 11.28125 
Q 43.109375 11.28125 46.0625 15.375 
Q 49.03125 19.484375 49.03125 27.296875 
Q 49.03125 35.109375 46.0625 39.203125 
Q 43.109375 43.3125 37.5 43.3125 
Q 31.890625 43.3125 28.875 39.1875 
Q 25.875 35.0625 25.875 27.296875 
Q 25.875 19.53125 28.875 15.40625 
Q 31.890625 11.28125 37.5 11.28125 
z
M 25.875 46.6875 
Q 29.5 51.46875 33.890625 53.734375 
Q 38.28125 56 44 56 
Q 54.109375 56 60.59375 47.96875 
Q 67.09375 39.9375 67.09375 27.296875 
Q 67.09375 14.65625 60.59375 6.609375 
Q 54.109375 -1.421875 44 -1.421875 
Q 38.28125 -1.421875 33.890625 0.84375 
Q 29.5 3.125 25.875 7.90625 
L 25.875 0 
L 8.40625 0 
L 8.40625 75.984375 
L 25.875 75.984375 
z
" id="DejaVuSans-Bold-62"/>
    </defs>
    <g transform="translate(371.494406 34.170281)scale(0.11 -0.11)">
     <use xlink:href="#DejaVuSans-Bold-62"/>
    </g>
   </g>
   <g id="text_8">
    <!-- Dipolarizations -->
    <defs>
     <path d="M 19.671875 64.796875 
L 19.671875 8.109375 
L 31.59375 8.109375 
Q 46.6875 8.109375 53.6875 14.9375 
Q 60.6875 21.78125 60.6875 36.53125 
Q 60.6875 51.171875 53.6875 57.984375 
Q 46.6875 64.796875 31.59375 64.796875 
z
M 9.8125 72.90625 
L 30.078125 72.90625 
Q 51.265625 72.90625 61.171875 64.09375 
Q 71.09375 55.28125 71.09375 36.53125 
Q 71.09375 17.671875 61.125 8.828125 
Q 51.171875 0 30.078125 0 
L 9.8125 0 
z
" id="DejaVuSans-44"/>
     <path d="M 18.109375 8.203125 
L 18.109375 -20.796875 
L 9.078125 -20.796875 
L 9.078125 54.6875 
L 18.109375 54.6875 
L 18.109375 46.390625 
Q 20.953125 51.265625 25.265625 53.625 
Q 29.59375 56 35.59375 56 
Q 45.5625 56 51.78125 48.09375 
Q 58.015625 40.1875 58.015625 27.296875 
Q 58.015625 14.40625 51.78125 6.484375 
Q 45.5625 -1.421875 35.59375 -1.421875 
Q 29.59375 -1.421875 25.265625 0.953125 
Q 20.953125 3.328125 18.109375 8.203125 
z
M 48.6875 27.296875 
Q 48.6875 37.203125 44.609375 42.84375 
Q 40.53125 48.484375 33.40625 48.484375 
Q 26.265625 48.484375 22.1875 42.84375 
Q 18.109375 37.203125 18.109375 27.296875 
Q 18.109375 17.390625 22.1875 11.75 
Q 26.265625 6.109375 33.40625 6.109375 
Q 40.53125 6.109375 44.609375 11.75 
Q 48.6875 17.390625 48.6875 27.296875 
z
" id="DejaVuSans-70"/>
     <path d="M 5.515625 54.6875 
L 48.1875 54.6875 
L 48.1875 46.484375 
L 14.40625 7.171875 
L 48.1875 7.171875 
L 48.1875 0 
L 4.296875 0 
L 4.296875 8.203125 
L 38.09375 47.515625 
L 5.515625 47.515625 
z
" id="DejaVuSans-7a"/>
    </defs>
    <g transform="translate(263.719375 33.410438)scale(0.1 -0.1)">
     <use xlink:href="#DejaVuSans-44"/>
     <use x="77.001953" xlink:href="#DejaVuSans-69"/>
     <use x="104.785156" xlink:href="#DejaVuSans-70"/>
     <use x="168.261719" xlink:href="#DejaVuSans-6f"/>
     <use x="229.443359" xlink:href="#DejaVuSans-6c"/>
     <use x="257.226562" xlink:href="#DejaVuSans-61"/>
     <use x="318.505859" xlink:href="#DejaVuSans-72"/>
     <use x="359.619141" xlink:href="#DejaVuSans-69"/>
     <use x="387.402344" xlink:href="#DejaVuSans-7a"/>
     <use x="439.892578" xlink:href="#DejaVuSans-61"/>
     <use x="501.171875" xlink:href="#DejaVuSans-74"/>
     <use x="540.380859" xlink:href="#DejaVuSans-69"/>
     <use x="568.164062" xlink:href="#DejaVuSans-6f"/>
     <use x="629.345703" xlink:href="#DejaVuSans-6e"/>
     <use x="692.724609" xlink:href="#DejaVuSans-73"/>
    </g>
   </g>
   <g id="legend_1">
    <g id="patch_12">
     <path d="M 323.19625 74.0625 
L 384.88 74.0625 
Q 386.48 74.0625 386.48 72.4625 
L 386.48 54.9775 
Q 386.48 53.3775 384.88 53.3775 
L 323.19625 53.3775 
Q 321.59625 53.3775 321.59625 54.9775 
L 321.59625 72.4625 
Q 321.59625 74.0625 323.19625 74.0625 
z
" style="fill:#ffffff;opacity:0.8;stroke:#cccccc;stroke-linejoin:miter;"/>
    </g>
    <g id="line2d_33">
     <path d="M 323.19625 58.25625 
L 328.79625 58.25625 
" style="fill:none;stroke:#b0c4de;stroke-linecap:square;stroke-width:0.75;"/>
    </g>
    <g id="line2d_34"/>
    <g id="patch_13">
     <path d="M 323.19625 61.05625 
L 328.79625 61.05625 
L 328.79625 55.45625 
L 323.19625 55.45625 
z
" style="fill:#b0c4de;opacity:0.5;"/>
    </g>
    <g id="text_9">
     <!-- Observations -->
     <defs>
      <path d="M 39.40625 66.21875 
Q 28.65625 66.21875 22.328125 58.203125 
Q 16.015625 50.203125 16.015625 36.375 
Q 16.015625 22.609375 22.328125 14.59375 
Q 28.65625 6.59375 39.40625 6.59375 
Q 50.140625 6.59375 56.421875 14.59375 
Q 62.703125 22.609375 62.703125 36.375 
Q 62.703125 50.203125 56.421875 58.203125 
Q 50.140625 66.21875 39.40625 66.21875 
z
M 39.40625 74.21875 
Q 54.734375 74.21875 63.90625 63.9375 
Q 73.09375 53.65625 73.09375 36.375 
Q 73.09375 19.140625 63.90625 8.859375 
Q 54.734375 -1.421875 39.40625 -1.421875 
Q 24.03125 -1.421875 14.8125 8.828125 
Q 5.609375 19.09375 5.609375 36.375 
Q 5.609375 53.65625 14.8125 63.9375 
Q 24.03125 74.21875 39.40625 74.21875 
z
" id="DejaVuSans-4f"/>
      <path d="M 2.984375 54.6875 
L 12.5 54.6875 
L 29.59375 8.796875 
L 46.6875 54.6875 
L 56.203125 54.6875 
L 35.6875 0 
L 23.484375 0 
z
" id="DejaVuSans-76"/>
     </defs>
     <g transform="translate(331.99625 61.05625)scale(0.08 -0.08)">
      <use xlink:href="#DejaVuSans-4f"/>
      <use x="78.710938" xlink:href="#DejaVuSans-62"/>
      <use x="142.1875" xlink:href="#DejaVuSans-73"/>
      <use x="194.287109" xlink:href="#DejaVuSans-65"/>
      <use x="255.810547" xlink:href="#DejaVuSans-72"/>
      <use x="296.923828" xlink:href="#DejaVuSans-76"/>
      <use x="356.103516" xlink:href="#DejaVuSans-61"/>
      <use x="417.382812" xlink:href="#DejaVuSans-74"/>
      <use x="456.591797" xlink:href="#DejaVuSans-69"/>
      <use x="484.375" xlink:href="#DejaVuSans-6f"/>
      <use x="545.556641" xlink:href="#DejaVuSans-6e"/>
      <use x="608.935547" xlink:href="#DejaVuSans-73"/>
     </g>
    </g>
    <g id="line2d_35">
     <path d="M 323.19625 67.99875 
L 328.79625 67.99875 
" style="fill:none;stroke:#1f77b4;stroke-linecap:square;stroke-width:0.75;"/>
    </g>
    <g id="line2d_36"/>
    <g id="patch_14">
     <path d="M 323.19625 70.79875 
L 328.79625 70.79875 
L 328.79625 65.19875 
L 323.19625 65.19875 
z
" style="fill:none;opacity:0.5;"/>
    </g>
    <g id="text_10">
     <!-- MHD -->
     <defs>
      <path d="M 9.8125 72.90625 
L 24.515625 72.90625 
L 43.109375 23.296875 
L 61.8125 72.90625 
L 76.515625 72.90625 
L 76.515625 0 
L 66.890625 0 
L 66.890625 64.015625 
L 48.09375 14.015625 
L 38.1875 14.015625 
L 19.390625 64.015625 
L 19.390625 0 
L 9.8125 0 
z
" id="DejaVuSans-4d"/>
      <path d="M 9.8125 72.90625 
L 19.671875 72.90625 
L 19.671875 43.015625 
L 55.515625 43.015625 
L 55.515625 72.90625 
L 65.375 72.90625 
L 65.375 0 
L 55.515625 0 
L 55.515625 34.71875 
L 19.671875 34.71875 
L 19.671875 0 
L 9.8125 0 
z
" id="DejaVuSans-48"/>
     </defs>
     <g transform="translate(331.99625 70.79875)scale(0.08 -0.08)">
      <use xlink:href="#DejaVuSans-4d"/>
      <use x="86.279297" xlink:href="#DejaVuSans-48"/>
      <use x="161.474609" xlink:href="#DejaVuSans-44"/>
     </g>
    </g>
   </g>
  </g>
  <g id="axes_3">
   <g id="patch_15">
    <path d="M 39.6 190.08 
L 213.84 190.08 
L 213.84 105.84 
L 39.6 105.84 
z
" style="fill:#ffffff;"/>
   </g>
   <g id="PolyCollection_5">
    <path clip-path="url(#p21debfa402)" d="M 47.52 156.457856 
L 47.52 170.282016 
L 49.12 163.983636 
L 50.72 158.329486 
L 52.32 153.536209 
L 53.92 149.866271 
L 55.52 146.557506 
L 57.12 143.60972 
L 58.72 141.218923 
L 60.32 139.371185 
L 61.92 137.89116 
L 63.52 136.834983 
L 65.12 136.492845 
L 66.72 136.729615 
L 68.32 137.467445 
L 69.92 138.525334 
L 71.52 140.11919 
L 73.12 142.267349 
L 74.72 144.780416 
L 76.32 147.377972 
L 77.92 150.518738 
L 79.52 153.408807 
L 81.12 156.00991 
L 82.72 158.738783 
L 84.32 161.268056 
L 85.92 163.638988 
L 87.52 165.659186 
L 89.12 167.652926 
L 90.72 169.557207 
L 92.32 171.372003 
L 93.92 172.927453 
L 95.52 174.496299 
L 97.12 176.012534 
L 98.72 177.498225 
L 100.32 178.799886 
L 101.92 180.046765 
L 103.52 181.121743 
L 105.12 182.119551 
L 106.72 183.255812 
L 108.32 184.13808 
L 109.92 184.783734 
L 111.52 185.482831 
L 113.12 186.13441 
L 114.72 186.668618 
L 116.32 187.180474 
L 117.92 187.655898 
L 119.52 188.00059 
L 121.12 188.363118 
L 122.72 188.644221 
L 124.32 188.963806 
L 125.92 189.164653 
L 127.52 189.400079 
L 129.12 189.594809 
L 130.72 189.729496 
L 132.32 189.817271 
L 133.92 189.884411 
L 135.52 189.934884 
L 137.12 189.980279 
L 138.72 190.021222 
L 140.32 190.044127 
L 141.92 190.058363 
L 143.52 190.066241 
L 145.12 190.068324 
L 146.72 190.069391 
L 148.32 190.070919 
L 149.92 190.067853 
L 151.52 190.063902 
L 153.12 190.064805 
L 154.72 190.057387 
L 156.32 190.04933 
L 157.92 190.041521 
L 159.52 190.02444 
L 161.12 189.998991 
L 162.72 189.980044 
L 164.32 190.004003 
L 165.92 190.023822 
L 167.52 190.04464 
L 169.12 190.059755 
L 170.72 190.068738 
L 172.32 190.072827 
L 173.92 190.075732 
L 175.52 190.076181 
L 177.12 190.075451 
L 178.72 190.074402 
L 180.32 190.0729 
L 181.92 190.069006 
L 183.52 190.063219 
L 185.12 190.053422 
L 186.72 190.052841 
L 188.32 190.054927 
L 189.92 190.057544 
L 191.52 190.059576 
L 193.12 190.064785 
L 194.72 190.065025 
L 196.32 190.065504 
L 197.92 190.064295 
L 199.52 190.061522 
L 201.12 190.055491 
L 202.72 190.036841 
L 204.32 190.005355 
L 205.92 189.958481 
L 205.92 185.84053 
L 205.92 185.84053 
L 204.32 186.158192 
L 202.72 186.495931 
L 201.12 186.832563 
L 199.52 187.162848 
L 197.92 187.51109 
L 196.32 187.824438 
L 194.72 188.047578 
L 193.12 188.186198 
L 191.52 188.272803 
L 189.92 188.256923 
L 188.32 188.172485 
L 186.72 187.927067 
L 185.12 187.582983 
L 183.52 187.23311 
L 181.92 186.851232 
L 180.32 186.437737 
L 178.72 186.011303 
L 177.12 185.632488 
L 175.52 185.364046 
L 173.92 185.18263 
L 172.32 185.050853 
L 170.72 185.093848 
L 169.12 185.30398 
L 167.52 185.533337 
L 165.92 185.847902 
L 164.32 186.249196 
L 162.72 186.645637 
L 161.12 187.059781 
L 159.52 187.244622 
L 157.92 187.459827 
L 156.32 187.491656 
L 154.72 187.491762 
L 153.12 187.417301 
L 151.52 187.24911 
L 149.92 187.121881 
L 148.32 187.033997 
L 146.72 187.01334 
L 145.12 187.132372 
L 143.52 187.271886 
L 141.92 187.32787 
L 140.32 187.386078 
L 138.72 187.287285 
L 137.12 187.132802 
L 135.52 186.86779 
L 133.92 186.567712 
L 132.32 186.185948 
L 130.72 185.816382 
L 129.12 185.443089 
L 127.52 185.041194 
L 125.92 184.536142 
L 124.32 183.805708 
L 122.72 183.118774 
L 121.12 182.432809 
L 119.52 181.747023 
L 117.92 180.996402 
L 116.32 180.244308 
L 114.72 179.327897 
L 113.12 178.380175 
L 111.52 177.27845 
L 109.92 176.246985 
L 108.32 175.215442 
L 106.72 174.050414 
L 105.12 172.805727 
L 103.52 171.244148 
L 101.92 169.552397 
L 100.32 167.816071 
L 98.72 166.169842 
L 97.12 164.181992 
L 95.52 162.36617 
L 93.92 160.429764 
L 92.32 158.621989 
L 90.72 156.855351 
L 89.12 155.048912 
L 87.52 153.021007 
L 85.92 150.704352 
L 84.32 148.109316 
L 82.72 145.430676 
L 81.12 142.335052 
L 79.52 139.125302 
L 77.92 135.517602 
L 76.32 132.152069 
L 74.72 129.092407 
L 73.12 125.556477 
L 71.52 122.449661 
L 69.92 119.656023 
L 68.32 117.108189 
L 66.72 114.901928 
L 65.12 112.547746 
L 63.52 110.80184 
L 61.92 109.851247 
L 60.32 109.985916 
L 58.72 111.035893 
L 57.12 113.660984 
L 55.52 118.963583 
L 53.92 125.99499 
L 52.32 134.668358 
L 50.72 143.252207 
L 49.12 150.696329 
L 47.52 156.457856 
z
" style="fill:#b0c4de;fill-opacity:0.5;"/>
   </g>
   <g id="PolyCollection_6"/>
   <g id="matplotlib.axis_5">
    <g id="xtick_11">
     <g id="line2d_37">
      <g>
       <use style="stroke:#000000;stroke-width:0.8;" x="47.52" xlink:href="#m36e7c232e7" y="190.08"/>
      </g>
     </g>
     <g id="line2d_38">
      <g>
       <use style="stroke:#000000;stroke-width:0.8;" x="47.52" xlink:href="#m36e7c232e7" y="105.84"/>
      </g>
     </g>
     <g id="text_11">
      <!-- 0 -->
      <g transform="translate(44.975 201.40875)scale(0.08 -0.08)">
       <use xlink:href="#DejaVuSans-30"/>
      </g>
     </g>
    </g>
    <g id="xtick_12">
     <g id="line2d_39">
      <g>
       <use style="stroke:#000000;stroke-width:0.8;" x="87.12" xlink:href="#m36e7c232e7" y="190.08"/>
      </g>
     </g>
     <g id="line2d_40">
      <g>
       <use style="stroke:#000000;stroke-width:0.8;" x="87.12" xlink:href="#m36e7c232e7" y="105.84"/>
      </g>
     </g>
     <g id="text_12">
      <!-- 5 -->
      <g transform="translate(84.575 201.40875)scale(0.08 -0.08)">
       <use xlink:href="#DejaVuSans-35"/>
      </g>
     </g>
    </g>
    <g id="xtick_13">
     <g id="line2d_41">
      <g>
       <use style="stroke:#000000;stroke-width:0.8;" x="126.72" xlink:href="#m36e7c232e7" y="190.08"/>
      </g>
     </g>
     <g id="line2d_42">
      <g>
       <use style="stroke:#000000;stroke-width:0.8;" x="126.72" xlink:href="#m36e7c232e7" y="105.84"/>
      </g>
     </g>
     <g id="text_13">
      <!-- 10 -->
      <g transform="translate(121.63 201.40875)scale(0.08 -0.08)">
       <use xlink:href="#DejaVuSans-31"/>
       <use x="63.623047" xlink:href="#DejaVuSans-30"/>
      </g>
     </g>
    </g>
    <g id="xtick_14">
     <g id="line2d_43">
      <g>
       <use style="stroke:#000000;stroke-width:0.8;" x="166.32" xlink:href="#m36e7c232e7" y="190.08"/>
      </g>
     </g>
     <g id="line2d_44">
      <g>
       <use style="stroke:#000000;stroke-width:0.8;" x="166.32" xlink:href="#m36e7c232e7" y="105.84"/>
      </g>
     </g>
     <g id="text_14">
      <!-- 15 -->
      <g transform="translate(161.23 201.40875)scale(0.08 -0.08)">
       <use xlink:href="#DejaVuSans-31"/>
       <use x="63.623047" xlink:href="#DejaVuSans-35"/>
      </g>
     </g>
    </g>
    <g id="xtick_15">
     <g id="line2d_45">
      <g>
       <use style="stroke:#000000;stroke-width:0.8;" x="205.92" xlink:href="#m36e7c232e7" y="190.08"/>
      </g>
     </g>
     <g id="line2d_46">
      <g>
       <use style="stroke:#000000;stroke-width:0.8;" x="205.92" xlink:href="#m36e7c232e7" y="105.84"/>
      </g>
     </g>
     <g id="text_15">
      <!-- 20 -->
      <defs>
       <path d="M 19.1875 8.296875 
L 53.609375 8.296875 
L 53.609375 0 
L 7.328125 0 
L 7.328125 8.296875 
Q 12.9375 14.109375 22.625 23.890625 
Q 32.328125 33.6875 34.8125 36.53125 
Q 39.546875 41.84375 41.421875 45.53125 
Q 43.3125 49.21875 43.3125 52.78125 
Q 43.3125 58.59375 39.234375 62.25 
Q 35.15625 65.921875 28.609375 65.921875 
Q 23.96875 65.921875 18.8125 64.3125 
Q 13.671875 62.703125 7.8125 59.421875 
L 7.8125 69.390625 
Q 13.765625 71.78125 18.9375 73 
Q 24.125 74.21875 28.421875 74.21875 
Q 39.75 74.21875 46.484375 68.546875 
Q 53.21875 62.890625 53.21875 53.421875 
Q 53.21875 48.921875 51.53125 44.890625 
Q 49.859375 40.875 45.40625 35.40625 
Q 44.1875 33.984375 37.640625 27.21875 
Q 31.109375 20.453125 19.1875 8.296875 
z
" id="DejaVuSans-32"/>
      </defs>
      <g transform="translate(200.83 201.40875)scale(0.08 -0.08)">
       <use xlink:href="#DejaVuSans-32"/>
       <use x="63.623047" xlink:href="#DejaVuSans-30"/>
      </g>
     </g>
    </g>
    <g id="text_16">
     <!-- Waiting time (h) -->
     <defs>
      <path d="M 3.328125 72.90625 
L 13.28125 72.90625 
L 28.609375 11.28125 
L 43.890625 72.90625 
L 54.984375 72.90625 
L 70.3125 11.28125 
L 85.59375 72.90625 
L 95.609375 72.90625 
L 77.296875 0 
L 64.890625 0 
L 49.515625 63.28125 
L 33.984375 0 
L 21.578125 0 
z
" id="DejaVuSans-57"/>
      <path d="M 45.40625 27.984375 
Q 45.40625 37.75 41.375 43.109375 
Q 37.359375 48.484375 30.078125 48.484375 
Q 22.859375 48.484375 18.828125 43.109375 
Q 14.796875 37.75 14.796875 27.984375 
Q 14.796875 18.265625 18.828125 12.890625 
Q 22.859375 7.515625 30.078125 7.515625 
Q 37.359375 7.515625 41.375 12.890625 
Q 45.40625 18.265625 45.40625 27.984375 
z
M 54.390625 6.78125 
Q 54.390625 -7.171875 48.1875 -13.984375 
Q 42 -20.796875 29.203125 -20.796875 
Q 24.46875 -20.796875 20.265625 -20.09375 
Q 16.0625 -19.390625 12.109375 -17.921875 
L 12.109375 -9.1875 
Q 16.0625 -11.328125 19.921875 -12.34375 
Q 23.78125 -13.375 27.78125 -13.375 
Q 36.625 -13.375 41.015625 -8.765625 
Q 45.40625 -4.15625 45.40625 5.171875 
L 45.40625 9.625 
Q 42.625 4.78125 38.28125 2.390625 
Q 33.9375 0 27.875 0 
Q 17.828125 0 11.671875 7.65625 
Q 5.515625 15.328125 5.515625 27.984375 
Q 5.515625 40.671875 11.671875 48.328125 
Q 17.828125 56 27.875 56 
Q 33.9375 56 38.28125 53.609375 
Q 42.625 51.21875 45.40625 46.390625 
L 45.40625 54.6875 
L 54.390625 54.6875 
z
" id="DejaVuSans-67"/>
      <path d="M 52 44.1875 
Q 55.375 50.25 60.0625 53.125 
Q 64.75 56 71.09375 56 
Q 79.640625 56 84.28125 50.015625 
Q 88.921875 44.046875 88.921875 33.015625 
L 88.921875 0 
L 79.890625 0 
L 79.890625 32.71875 
Q 79.890625 40.578125 77.09375 44.375 
Q 74.3125 48.1875 68.609375 48.1875 
Q 61.625 48.1875 57.5625 43.546875 
Q 53.515625 38.921875 53.515625 30.90625 
L 53.515625 0 
L 44.484375 0 
L 44.484375 32.71875 
Q 44.484375 40.625 41.703125 44.40625 
Q 38.921875 48.1875 33.109375 48.1875 
Q 26.21875 48.1875 22.15625 43.53125 
Q 18.109375 38.875 18.109375 30.90625 
L 18.109375 0 
L 9.078125 0 
L 9.078125 54.6875 
L 18.109375 54.6875 
L 18.109375 46.1875 
Q 21.1875 51.21875 25.484375 53.609375 
Q 29.78125 56 35.6875 56 
Q 41.65625 56 45.828125 52.96875 
Q 50 49.953125 52 44.1875 
z
" id="DejaVuSans-6d"/>
      <path d="M 31 75.875 
Q 24.46875 64.65625 21.28125 53.65625 
Q 18.109375 42.671875 18.109375 31.390625 
Q 18.109375 20.125 21.3125 9.0625 
Q 24.515625 -2 31 -13.1875 
L 23.1875 -13.1875 
Q 15.875 -1.703125 12.234375 9.375 
Q 8.59375 20.453125 8.59375 31.390625 
Q 8.59375 42.28125 12.203125 53.3125 
Q 15.828125 64.359375 23.1875 75.875 
z
" id="DejaVuSans-28"/>
      <path d="M 54.890625 33.015625 
L 54.890625 0 
L 45.90625 0 
L 45.90625 32.71875 
Q 45.90625 40.484375 42.875 44.328125 
Q 39.84375 48.1875 33.796875 48.1875 
Q 26.515625 48.1875 22.3125 43.546875 
Q 18.109375 38.921875 18.109375 30.90625 
L 18.109375 0 
L 9.078125 0 
L 9.078125 75.984375 
L 18.109375 75.984375 
L 18.109375 46.1875 
Q 21.34375 51.125 25.703125 53.5625 
Q 30.078125 56 35.796875 56 
Q 45.21875 56 50.046875 50.171875 
Q 54.890625 44.34375 54.890625 33.015625 
z
" id="DejaVuSans-68"/>
      <path d="M 8.015625 75.875 
L 15.828125 75.875 
Q 23.140625 64.359375 26.78125 53.3125 
Q 30.421875 42.28125 30.421875 31.390625 
Q 30.421875 20.453125 26.78125 9.375 
Q 23.140625 -1.703125 15.828125 -13.1875 
L 8.015625 -13.1875 
Q 14.5 -2 17.703125 9.0625 
Q 20.90625 20.125 20.90625 31.390625 
Q 20.90625 42.671875 17.703125 53.65625 
Q 14.5 64.65625 8.015625 75.875 
z
" id="DejaVuSans-29"/>
     </defs>
     <g transform="translate(94.216875 213.15125)scale(0.08 -0.08)">
      <use xlink:href="#DejaVuSans-57"/>
      <use x="98.783203" xlink:href="#DejaVuSans-61"/>
      <use x="160.0625" xlink:href="#DejaVuSans-69"/>
      <use x="187.845703" xlink:href="#DejaVuSans-74"/>
      <use x="227.054688" xlink:href="#DejaVuSans-69"/>
      <use x="254.837891" xlink:href="#DejaVuSans-6e"/>
      <use x="318.216797" xlink:href="#DejaVuSans-67"/>
      <use x="381.693359" xlink:href="#DejaVuSans-20"/>
      <use x="413.480469" xlink:href="#DejaVuSans-74"/>
      <use x="452.689453" xlink:href="#DejaVuSans-69"/>
      <use x="480.472656" xlink:href="#DejaVuSans-6d"/>
      <use x="577.884766" xlink:href="#DejaVuSans-65"/>
      <use x="639.408203" xlink:href="#DejaVuSans-20"/>
      <use x="671.195312" xlink:href="#DejaVuSans-28"/>
      <use x="710.208984" xlink:href="#DejaVuSans-68"/>
      <use x="773.587891" xlink:href="#DejaVuSans-29"/>
     </g>
    </g>
   </g>
   <g id="matplotlib.axis_6">
    <g id="ytick_9">
     <g id="line2d_47">
      <g>
       <use style="stroke:#000000;stroke-width:0.8;" x="39.6" xlink:href="#m912ab654b1" y="190.08"/>
      </g>
     </g>
    </g>
    <g id="ytick_10">
     <g id="line2d_48">
      <g>
       <use style="stroke:#000000;stroke-width:0.8;" x="39.6" xlink:href="#m912ab654b1" y="171.535642"/>
      </g>
     </g>
     <g id="text_17">
      <!-- 0.05 -->
      <g transform="translate(16.5375 174.575017)scale(0.08 -0.08)">
       <use xlink:href="#DejaVuSans-30"/>
       <use x="63.623047" xlink:href="#DejaVuSans-2e"/>
       <use x="95.410156" xlink:href="#DejaVuSans-30"/>
       <use x="159.033203" xlink:href="#DejaVuSans-35"/>
      </g>
     </g>
    </g>
    <g id="ytick_11">
     <g id="line2d_49">
      <g>
       <use style="stroke:#000000;stroke-width:0.8;" x="39.6" xlink:href="#m912ab654b1" y="152.991284"/>
      </g>
     </g>
     <g id="text_18">
      <!-- 0.10 -->
      <g transform="translate(16.5375 156.030659)scale(0.08 -0.08)">
       <use xlink:href="#DejaVuSans-30"/>
       <use x="63.623047" xlink:href="#DejaVuSans-2e"/>
       <use x="95.410156" xlink:href="#DejaVuSans-31"/>
       <use x="159.033203" xlink:href="#DejaVuSans-30"/>
      </g>
     </g>
    </g>
    <g id="ytick_12">
     <g id="line2d_50">
      <g>
       <use style="stroke:#000000;stroke-width:0.8;" x="39.6" xlink:href="#m912ab654b1" y="134.446927"/>
      </g>
     </g>
     <g id="text_19">
      <!-- 0.15 -->
      <g transform="translate(16.5375 137.486302)scale(0.08 -0.08)">
       <use xlink:href="#DejaVuSans-30"/>
       <use x="63.623047" xlink:href="#DejaVuSans-2e"/>
       <use x="95.410156" xlink:href="#DejaVuSans-31"/>
       <use x="159.033203" xlink:href="#DejaVuSans-35"/>
      </g>
     </g>
    </g>
    <g id="ytick_13">
     <g id="line2d_51">
      <g>
       <use style="stroke:#000000;stroke-width:0.8;" x="39.6" xlink:href="#m912ab654b1" y="115.902569"/>
      </g>
     </g>
     <g id="text_20">
      <!-- 0.20 -->
      <g transform="translate(16.5375 118.941944)scale(0.08 -0.08)">
       <use xlink:href="#DejaVuSans-30"/>
       <use x="63.623047" xlink:href="#DejaVuSans-2e"/>
       <use x="95.410156" xlink:href="#DejaVuSans-32"/>
       <use x="159.033203" xlink:href="#DejaVuSans-30"/>
      </g>
     </g>
    </g>
    <g id="text_21">
     <!-- Probability density -->
     <g transform="translate(10.87375 185.19875)rotate(-90)scale(0.08 -0.08)">
      <use xlink:href="#DejaVuSans-50"/>
      <use x="60.287109" xlink:href="#DejaVuSans-72"/>
      <use x="101.369141" xlink:href="#DejaVuSans-6f"/>
      <use x="162.550781" xlink:href="#DejaVuSans-62"/>
      <use x="226.027344" xlink:href="#DejaVuSans-61"/>
      <use x="287.306641" xlink:href="#DejaVuSans-62"/>
      <use x="350.783203" xlink:href="#DejaVuSans-69"/>
      <use x="378.566406" xlink:href="#DejaVuSans-6c"/>
      <use x="406.349609" xlink:href="#DejaVuSans-69"/>
      <use x="434.132812" xlink:href="#DejaVuSans-74"/>
      <use x="473.341797" xlink:href="#DejaVuSans-79"/>
      <use x="532.521484" xlink:href="#DejaVuSans-20"/>
      <use x="564.308594" xlink:href="#DejaVuSans-64"/>
      <use x="627.785156" xlink:href="#DejaVuSans-65"/>
      <use x="689.308594" xlink:href="#DejaVuSans-6e"/>
      <use x="752.6875" xlink:href="#DejaVuSans-73"/>
      <use x="804.787109" xlink:href="#DejaVuSans-69"/>
      <use x="832.570312" xlink:href="#DejaVuSans-74"/>
      <use x="871.779297" xlink:href="#DejaVuSans-79"/>
     </g>
    </g>
   </g>
   <g id="line2d_52">
    <path clip-path="url(#p21debfa402)" d="M 47.52 161.747625 
L 49.12 156.482009 
L 50.72 151.112332 
L 52.32 145.839116 
L 53.92 140.867155 
L 55.52 136.387276 
L 57.12 132.559798 
L 58.72 129.502075 
L 60.32 127.281723 
L 61.92 125.916014 
L 63.52 125.376858 
L 65.12 125.599874 
L 66.72 126.495582 
L 68.32 127.960751 
L 69.92 129.888271 
L 71.52 132.174577 
L 73.12 134.724328 
L 74.72 137.452641 
L 76.32 140.285549 
L 77.92 143.15952 
L 79.52 146.020748 
L 81.12 148.824698 
L 82.72 151.536064 
L 84.32 154.129021 
L 85.92 156.587436 
L 87.52 158.904662 
L 89.12 161.082612 
L 90.72 163.129986 
L 92.32 165.059789 
L 93.92 166.886481 
L 95.52 168.623244 
L 97.12 170.279864 
L 98.72 171.861599 
L 100.32 173.369181 
L 101.92 174.799814 
L 103.52 176.148845 
L 105.12 177.411612 
L 106.72 178.585038 
L 108.32 179.668603 
L 109.92 180.664603 
L 111.52 181.577739 
L 113.12 182.414271 
L 114.72 183.181039 
L 116.32 183.884578 
L 117.92 184.530535 
L 119.52 185.123402 
L 121.12 185.666551 
L 122.72 186.162441 
L 124.32 186.612892 
L 125.92 187.01933 
L 127.52 187.38296 
L 129.12 187.704874 
L 130.72 187.986132 
L 132.32 188.227867 
L 133.92 188.431443 
L 135.52 188.598673 
L 137.12 188.732051 
L 138.72 188.83491 
L 140.32 188.911445 
L 141.92 188.96651 
L 143.52 189.005185 
L 145.12 189.032155 
L 146.72 189.051018 
L 148.32 189.063673 
L 149.92 189.069953 
L 151.52 189.067629 
L 153.12 189.052845 
L 154.72 189.020947 
L 156.32 188.967583 
L 157.92 188.889872 
L 159.52 188.787446 
L 161.12 188.663126 
L 162.72 188.523117 
L 164.32 188.376644 
L 165.92 188.235072 
L 167.52 188.110651 
L 169.12 188.015057 
L 170.72 187.957987 
L 172.32 187.945988 
L 173.92 187.9817 
L 175.52 188.063586 
L 177.12 188.186171 
L 178.72 188.340702 
L 180.32 188.516109 
L 181.92 188.700117 
L 183.52 188.880349 
L 185.12 189.045309 
L 186.72 189.185147 
L 188.32 189.292175 
L 189.92 189.361143 
L 191.52 189.389284 
L 193.12 189.376185 
L 194.72 189.323517 
L 196.32 189.234654 
L 197.92 189.11423 
L 199.52 188.967657 
L 201.12 188.80066 
L 202.72 188.618886 
L 204.32 188.427646 
L 205.92 188.231853 
" style="fill:none;stroke:#b0c4de;stroke-linecap:square;stroke-width:0.75;"/>
   </g>
   <g id="line2d_53">
    <path clip-path="url(#p21debfa402)" d="M 47.52 142.720963 
L 49.12 137.995104 
L 50.72 133.592898 
L 52.32 129.656307 
L 53.92 126.314181 
L 55.52 123.674326 
L 57.12 121.816924 
L 58.72 120.789893 
L 60.32 120.606611 
L 61.92 121.246163 
L 63.52 122.656016 
L 65.12 124.756777 
L 66.72 127.448507 
L 68.32 130.617932 
L 69.92 134.145856 
L 71.52 137.914128 
L 73.12 141.811625 
L 74.72 145.738876 
L 76.32 149.611141 
L 77.92 153.359948 
L 79.52 156.93322 
L 81.12 160.294285 
L 82.72 163.420083 
L 84.32 166.298915 
L 85.92 168.928063 
L 87.52 171.311511 
L 89.12 173.457961 
L 90.72 175.379222 
L 92.32 177.088987 
L 93.92 178.601986 
L 95.52 179.933411 
L 97.12 181.09856 
L 98.72 182.112613 
L 100.32 182.990466 
L 101.92 183.746606 
L 103.52 184.394983 
L 105.12 184.948891 
L 106.72 185.420847 
L 108.32 185.822496 
L 109.92 186.164529 
L 111.52 186.456635 
L 113.12 186.707473 
L 114.72 186.924675 
L 116.32 187.114854 
L 117.92 187.283631 
L 119.52 187.435669 
L 121.12 187.574709 
L 122.72 187.703622 
L 124.32 187.824469 
L 125.92 187.938581 
L 127.52 188.046652 
L 129.12 188.14886 
L 130.72 188.244992 
L 132.32 188.334591 
L 133.92 188.417086 
L 135.52 188.491924 
L 137.12 188.558675 
L 138.72 188.617101 
L 140.32 188.667202 
L 141.92 188.709218 
L 143.52 188.743596 
L 145.12 188.770945 
L 146.72 188.791969 
L 148.32 188.807403 
L 149.92 188.817964 
L 151.52 188.824315 
L 153.12 188.827068 
L 154.72 188.826806 
L 156.32 188.824128 
L 157.92 188.819708 
L 159.52 188.814355 
L 161.12 188.809052 
L 162.72 188.804971 
L 164.32 188.803451 
L 165.92 188.80592 
L 167.52 188.813797 
L 169.12 188.828342 
L 170.72 188.850503 
L 172.32 188.880761 
L 173.92 188.919 
L 175.52 188.964421 
L 177.12 189.015507 
L 178.72 189.070066 
L 180.32 189.125326 
L 181.92 189.178106 
L 183.52 189.22502 
L 185.12 189.262724 
L 186.72 189.288163 
L 188.32 189.298817 
L 189.92 189.292907 
L 191.52 189.269562 
L 193.12 189.228918 
L 194.72 189.172156 
L 196.32 189.101456 
L 197.92 189.019887 
L 199.52 188.931223 
L 201.12 188.839714 
L 202.72 188.749816 
L 204.32 188.665899 
L 205.92 188.591979 
" style="fill:none;stroke:#1f77b4;stroke-linecap:square;stroke-width:0.75;"/>
   </g>
   <g id="patch_16">
    <path d="M 39.6 190.08 
L 39.6 105.84 
" style="fill:none;stroke:#000000;stroke-linecap:square;stroke-linejoin:miter;stroke-width:0.8;"/>
   </g>
   <g id="patch_17">
    <path d="M 213.84 190.08 
L 213.84 105.84 
" style="fill:none;stroke:#000000;stroke-linecap:square;stroke-linejoin:miter;stroke-width:0.8;"/>
   </g>
   <g id="patch_18">
    <path d="M 39.6 190.08 
L 213.84 190.08 
" style="fill:none;stroke:#000000;stroke-linecap:square;stroke-linejoin:miter;stroke-width:0.8;"/>
   </g>
   <g id="patch_19">
    <path d="M 39.6 105.84 
L 213.84 105.84 
" style="fill:none;stroke:#000000;stroke-linecap:square;stroke-linejoin:miter;stroke-width:0.8;"/>
   </g>
   <g id="text_22">
    <!-- c -->
    <defs>
     <path d="M 52.59375 52.984375 
L 52.59375 38.71875 
Q 49.03125 41.15625 45.4375 42.328125 
Q 41.84375 43.5 37.984375 43.5 
Q 30.671875 43.5 26.59375 39.234375 
Q 22.515625 34.96875 22.515625 27.296875 
Q 22.515625 19.625 26.59375 15.34375 
Q 30.671875 11.078125 37.984375 11.078125 
Q 42.09375 11.078125 45.78125 12.296875 
Q 49.46875 13.53125 52.59375 15.921875 
L 52.59375 1.609375 
Q 48.484375 0.09375 44.265625 -0.65625 
Q 40.046875 -1.421875 35.796875 -1.421875 
Q 21 -1.421875 12.640625 6.171875 
Q 4.296875 13.765625 4.296875 27.296875 
Q 4.296875 40.828125 12.640625 48.40625 
Q 21 56 35.796875 56 
Q 40.09375 56 44.265625 55.25 
Q 48.4375 54.5 52.59375 52.984375 
z
" id="DejaVuSans-Bold-63"/>
    </defs>
    <g transform="translate(198.607062 118.410281)scale(0.11 -0.11)">
     <use xlink:href="#DejaVuSans-Bold-63"/>
    </g>
   </g>
   <g id="text_23">
    <!-- MPB -->
    <defs>
     <path d="M 19.671875 34.8125 
L 19.671875 8.109375 
L 35.5 8.109375 
Q 43.453125 8.109375 47.28125 11.40625 
Q 51.125 14.703125 51.125 21.484375 
Q 51.125 28.328125 47.28125 31.5625 
Q 43.453125 34.8125 35.5 34.8125 
z
M 19.671875 64.796875 
L 19.671875 42.828125 
L 34.28125 42.828125 
Q 41.5 42.828125 45.03125 45.53125 
Q 48.578125 48.25 48.578125 53.8125 
Q 48.578125 59.328125 45.03125 62.0625 
Q 41.5 64.796875 34.28125 64.796875 
z
M 9.8125 72.90625 
L 35.015625 72.90625 
Q 46.296875 72.90625 52.390625 68.21875 
Q 58.5 63.53125 58.5 54.890625 
Q 58.5 48.1875 55.375 44.234375 
Q 52.25 40.28125 46.1875 39.3125 
Q 53.46875 37.75 57.5 32.78125 
Q 61.53125 27.828125 61.53125 20.40625 
Q 61.53125 10.640625 54.890625 5.3125 
Q 48.25 0 35.984375 0 
L 9.8125 0 
z
" id="DejaVuSans-42"/>
    </defs>
    <g transform="translate(115.960625 117.650438)scale(0.1 -0.1)">
     <use xlink:href="#DejaVuSans-4d"/>
     <use x="86.279297" xlink:href="#DejaVuSans-50"/>
     <use x="146.582031" xlink:href="#DejaVuSans-42"/>
    </g>
   </g>
  </g>
  <g id="axes_4">
   <g id="patch_20">
    <path d="M 213.84 190.08 
L 388.08 190.08 
L 388.08 105.84 
L 213.84 105.84 
z
" style="fill:#ffffff;"/>
   </g>
   <g id="PolyCollection_7">
    <path clip-path="url(#pf3d688ef4e)" d="M 221.76 176.341816 
L 221.76 184.578467 
L 223.36 183.698683 
L 224.96 182.774811 
L 226.56 182.111865 
L 228.16 181.279598 
L 229.76 180.704353 
L 231.36 179.966346 
L 232.96 179.350649 
L 234.56 178.780548 
L 236.16 178.277197 
L 237.76 177.831895 
L 239.36 177.387678 
L 240.96 177.027153 
L 242.56 176.57079 
L 244.16 176.25051 
L 245.76 175.865837 
L 247.36 175.469236 
L 248.96 175.102525 
L 250.56 174.775701 
L 252.16 174.489071 
L 253.76 174.235416 
L 255.36 173.965884 
L 256.96 173.835765 
L 258.56 173.616236 
L 260.16 173.511142 
L 261.76 173.454261 
L 263.36 173.446602 
L 264.96 173.340821 
L 266.56 173.205863 
L 268.16 173.285297 
L 269.76 173.261464 
L 271.36 173.330369 
L 272.96 173.498225 
L 274.56 173.763523 
L 276.16 173.946187 
L 277.76 174.227368 
L 279.36 174.500858 
L 280.96 174.73316 
L 282.56 174.974942 
L 284.16 175.201469 
L 285.76 175.446977 
L 287.36 175.757362 
L 288.96 176.029227 
L 290.56 176.4713 
L 292.16 176.831616 
L 293.76 177.179702 
L 295.36 177.516123 
L 296.96 177.87804 
L 298.56 178.232412 
L 300.16 178.575273 
L 301.76 178.795087 
L 303.36 179.071556 
L 304.96 179.387791 
L 306.56 179.704659 
L 308.16 179.925566 
L 309.76 180.211025 
L 311.36 180.445211 
L 312.96 180.584062 
L 314.56 180.855375 
L 316.16 181.132176 
L 317.76 181.280247 
L 319.36 181.580804 
L 320.96 181.716093 
L 322.56 181.901545 
L 324.16 182.059667 
L 325.76 182.288648 
L 327.36 182.517985 
L 328.96 182.700827 
L 330.56 182.870323 
L 332.16 183.020785 
L 333.76 183.240694 
L 335.36 183.509607 
L 336.96 183.690066 
L 338.56 183.920933 
L 340.16 184.142455 
L 341.76 184.369465 
L 343.36 184.583933 
L 344.96 184.787538 
L 346.56 184.979559 
L 348.16 185.225661 
L 349.76 185.42841 
L 351.36 185.612147 
L 352.96 185.868519 
L 354.56 186.061024 
L 356.16 186.28847 
L 357.76 186.553994 
L 359.36 186.735208 
L 360.96 186.928419 
L 362.56 187.112639 
L 364.16 187.34715 
L 365.76 187.496573 
L 367.36 187.674761 
L 368.96 187.854699 
L 370.56 187.99751 
L 372.16 188.170689 
L 373.76 188.307945 
L 375.36 188.421281 
L 376.96 188.522353 
L 378.56 188.654587 
L 380.16 188.742632 
L 380.16 182.981595 
L 380.16 182.981595 
L 378.56 182.765424 
L 376.96 182.522645 
L 375.36 182.244829 
L 373.76 181.983769 
L 372.16 181.714015 
L 370.56 181.414958 
L 368.96 181.00345 
L 367.36 180.681685 
L 365.76 180.322634 
L 364.16 180.045015 
L 362.56 179.695703 
L 360.96 179.346614 
L 359.36 179.076976 
L 357.76 178.686857 
L 356.16 178.353109 
L 354.56 177.996187 
L 352.96 177.639628 
L 351.36 177.235315 
L 349.76 176.849501 
L 348.16 176.534679 
L 346.56 176.186852 
L 344.96 175.868398 
L 343.36 175.421527 
L 341.76 174.933341 
L 340.16 174.417734 
L 338.56 174.00685 
L 336.96 173.61905 
L 335.36 173.430592 
L 333.76 173.116506 
L 332.16 172.870556 
L 330.56 172.814108 
L 328.96 172.75116 
L 327.36 172.729198 
L 325.76 172.719851 
L 324.16 172.795871 
L 322.56 172.751781 
L 320.96 172.802362 
L 319.36 172.729207 
L 317.76 172.618451 
L 316.16 172.535769 
L 314.56 172.304027 
L 312.96 172.052565 
L 311.36 171.767281 
L 309.76 171.51616 
L 308.16 171.11744 
L 306.56 170.738794 
L 304.96 170.395183 
L 303.36 169.914735 
L 301.76 169.32581 
L 300.16 168.782533 
L 298.56 168.176029 
L 296.96 167.533749 
L 295.36 166.800325 
L 293.76 166.169906 
L 292.16 165.347725 
L 290.56 164.559093 
L 288.96 163.785265 
L 287.36 163.373549 
L 285.76 163.180828 
L 284.16 162.923874 
L 282.56 162.672929 
L 280.96 162.475115 
L 279.36 162.503952 
L 277.76 162.719612 
L 276.16 162.744585 
L 274.56 162.555275 
L 272.96 162.680324 
L 271.36 162.661545 
L 269.76 162.563837 
L 268.16 162.395127 
L 266.56 162.165064 
L 264.96 161.792588 
L 263.36 161.468467 
L 261.76 161.0939 
L 260.16 160.566206 
L 258.56 159.917507 
L 256.96 159.208388 
L 255.36 158.411949 
L 253.76 157.923902 
L 252.16 157.293595 
L 250.56 156.896363 
L 248.96 156.800566 
L 247.36 157.030719 
L 245.76 157.479364 
L 244.16 158.413804 
L 242.56 159.394777 
L 240.96 160.53244 
L 239.36 161.878164 
L 237.76 163.314468 
L 236.16 164.843146 
L 234.56 166.422998 
L 232.96 167.87579 
L 231.36 169.327807 
L 229.76 170.811365 
L 228.16 172.041422 
L 226.56 173.1714 
L 224.96 174.241618 
L 223.36 175.286794 
L 221.76 176.341816 
z
" style="fill:#b0c4de;fill-opacity:0.5;"/>
   </g>
   <g id="PolyCollection_8"/>
   <g id="matplotlib.axis_7">
    <g id="xtick_16">
     <g id="line2d_54">
      <g>
       <use style="stroke:#000000;stroke-width:0.8;" x="221.76" xlink:href="#m36e7c232e7" y="190.08"/>
      </g>
     </g>
     <g id="line2d_55">
      <g>
       <use style="stroke:#000000;stroke-width:0.8;" x="221.76" xlink:href="#m36e7c232e7" y="105.84"/>
      </g>
     </g>
     <g id="text_24">
      <!-- 0 -->
      <g transform="translate(219.215 201.40875)scale(0.08 -0.08)">
       <use xlink:href="#DejaVuSans-30"/>
      </g>
     </g>
    </g>
    <g id="xtick_17">
     <g id="line2d_56">
      <g>
       <use style="stroke:#000000;stroke-width:0.8;" x="261.36" xlink:href="#m36e7c232e7" y="190.08"/>
      </g>
     </g>
     <g id="line2d_57">
      <g>
       <use style="stroke:#000000;stroke-width:0.8;" x="261.36" xlink:href="#m36e7c232e7" y="105.84"/>
      </g>
     </g>
     <g id="text_25">
      <!-- 5 -->
      <g transform="translate(258.815 201.40875)scale(0.08 -0.08)">
       <use xlink:href="#DejaVuSans-35"/>
      </g>
     </g>
    </g>
    <g id="xtick_18">
     <g id="line2d_58">
      <g>
       <use style="stroke:#000000;stroke-width:0.8;" x="300.96" xlink:href="#m36e7c232e7" y="190.08"/>
      </g>
     </g>
     <g id="line2d_59">
      <g>
       <use style="stroke:#000000;stroke-width:0.8;" x="300.96" xlink:href="#m36e7c232e7" y="105.84"/>
      </g>
     </g>
     <g id="text_26">
      <!-- 10 -->
      <g transform="translate(295.87 201.40875)scale(0.08 -0.08)">
       <use xlink:href="#DejaVuSans-31"/>
       <use x="63.623047" xlink:href="#DejaVuSans-30"/>
      </g>
     </g>
    </g>
    <g id="xtick_19">
     <g id="line2d_60">
      <g>
       <use style="stroke:#000000;stroke-width:0.8;" x="340.56" xlink:href="#m36e7c232e7" y="190.08"/>
      </g>
     </g>
     <g id="line2d_61">
      <g>
       <use style="stroke:#000000;stroke-width:0.8;" x="340.56" xlink:href="#m36e7c232e7" y="105.84"/>
      </g>
     </g>
     <g id="text_27">
      <!-- 15 -->
      <g transform="translate(335.47 201.40875)scale(0.08 -0.08)">
       <use xlink:href="#DejaVuSans-31"/>
       <use x="63.623047" xlink:href="#DejaVuSans-35"/>
      </g>
     </g>
    </g>
    <g id="xtick_20">
     <g id="line2d_62">
      <g>
       <use style="stroke:#000000;stroke-width:0.8;" x="380.16" xlink:href="#m36e7c232e7" y="190.08"/>
      </g>
     </g>
     <g id="line2d_63">
      <g>
       <use style="stroke:#000000;stroke-width:0.8;" x="380.16" xlink:href="#m36e7c232e7" y="105.84"/>
      </g>
     </g>
     <g id="text_28">
      <!-- 20 -->
      <g transform="translate(375.07 201.40875)scale(0.08 -0.08)">
       <use xlink:href="#DejaVuSans-32"/>
       <use x="63.623047" xlink:href="#DejaVuSans-30"/>
      </g>
     </g>
    </g>
    <g id="text_29">
     <!-- Waiting time (h) -->
     <g transform="translate(268.456875 213.15125)scale(0.08 -0.08)">
      <use xlink:href="#DejaVuSans-57"/>
      <use x="98.783203" xlink:href="#DejaVuSans-61"/>
      <use x="160.0625" xlink:href="#DejaVuSans-69"/>
      <use x="187.845703" xlink:href="#DejaVuSans-74"/>
      <use x="227.054688" xlink:href="#DejaVuSans-69"/>
      <use x="254.837891" xlink:href="#DejaVuSans-6e"/>
      <use x="318.216797" xlink:href="#DejaVuSans-67"/>
      <use x="381.693359" xlink:href="#DejaVuSans-20"/>
      <use x="413.480469" xlink:href="#DejaVuSans-74"/>
      <use x="452.689453" xlink:href="#DejaVuSans-69"/>
      <use x="480.472656" xlink:href="#DejaVuSans-6d"/>
      <use x="577.884766" xlink:href="#DejaVuSans-65"/>
      <use x="639.408203" xlink:href="#DejaVuSans-20"/>
      <use x="671.195312" xlink:href="#DejaVuSans-28"/>
      <use x="710.208984" xlink:href="#DejaVuSans-68"/>
      <use x="773.587891" xlink:href="#DejaVuSans-29"/>
     </g>
    </g>
   </g>
   <g id="matplotlib.axis_8">
    <g id="ytick_14">
     <g id="line2d_64">
      <g>
       <use style="stroke:#000000;stroke-width:0.8;" x="213.84" xlink:href="#m912ab654b1" y="190.08"/>
      </g>
     </g>
    </g>
    <g id="ytick_15">
     <g id="line2d_65">
      <g>
       <use style="stroke:#000000;stroke-width:0.8;" x="213.84" xlink:href="#m912ab654b1" y="171.535642"/>
      </g>
     </g>
    </g>
    <g id="ytick_16">
     <g id="line2d_66">
      <g>
       <use style="stroke:#000000;stroke-width:0.8;" x="213.84" xlink:href="#m912ab654b1" y="152.991284"/>
      </g>
     </g>
    </g>
    <g id="ytick_17">
     <g id="line2d_67">
      <g>
       <use style="stroke:#000000;stroke-width:0.8;" x="213.84" xlink:href="#m912ab654b1" y="134.446927"/>
      </g>
     </g>
    </g>
    <g id="ytick_18">
     <g id="line2d_68">
      <g>
       <use style="stroke:#000000;stroke-width:0.8;" x="213.84" xlink:href="#m912ab654b1" y="115.902569"/>
      </g>
     </g>
    </g>
   </g>
   <g id="line2d_69">
    <path clip-path="url(#pf3d688ef4e)" d="M 221.76 179.670083 
L 223.36 178.933173 
L 224.96 178.187245 
L 226.56 177.436733 
L 228.16 176.686269 
L 229.76 175.940613 
L 231.36 175.20458 
L 232.96 174.482965 
L 234.56 173.780463 
L 236.16 173.101597 
L 237.76 172.450639 
L 239.36 171.831549 
L 240.96 171.24791 
L 242.56 170.70288 
L 244.16 170.199148 
L 245.76 169.738903 
L 247.36 169.323822 
L 248.96 168.955057 
L 250.56 168.633248 
L 252.16 168.358537 
L 253.76 168.130595 
L 255.36 167.948666 
L 256.96 167.811605 
L 258.56 167.717931 
L 260.16 167.665883 
L 261.76 167.653474 
L 263.36 167.678543 
L 264.96 167.738816 
L 266.56 167.831945 
L 268.16 167.955559 
L 269.76 168.107298 
L 271.36 168.284845 
L 272.96 168.485945 
L 274.56 168.708428 
L 276.16 168.950208 
L 277.76 169.209295 
L 279.36 169.483789 
L 280.96 169.77187 
L 282.56 170.071799 
L 284.16 170.381897 
L 285.76 170.700544 
L 287.36 171.026164 
L 288.96 171.357224 
L 290.56 171.692227 
L 292.16 172.029711 
L 293.76 172.368257 
L 295.36 172.706493 
L 296.96 173.043108 
L 298.56 173.376862 
L 300.16 173.706606 
L 301.76 174.031295 
L 303.36 174.35001 
L 304.96 174.66197 
L 306.56 174.966551 
L 308.16 175.263293 
L 309.76 175.551914 
L 311.36 175.832308 
L 312.96 176.104551 
L 314.56 176.36889 
L 316.16 176.625737 
L 317.76 176.875649 
L 319.36 177.119317 
L 320.96 177.357534 
L 322.56 177.591179 
L 324.16 177.821183 
L 325.76 178.048506 
L 327.36 178.274107 
L 328.96 178.498916 
L 330.56 178.723811 
L 332.16 178.949597 
L 333.76 179.176984 
L 335.36 179.406572 
L 336.96 179.638842 
L 338.56 179.874145 
L 340.16 180.112704 
L 341.76 180.354608 
L 343.36 180.599822 
L 344.96 180.848191 
L 346.56 181.099449 
L 348.16 181.353233 
L 349.76 181.609094 
L 351.36 181.866511 
L 352.96 182.124905 
L 354.56 182.383651 
L 356.16 182.642091 
L 357.76 182.899546 
L 359.36 183.155322 
L 360.96 183.408724 
L 362.56 183.659056 
L 364.16 183.905629 
L 365.76 184.147764 
L 367.36 184.384794 
L 368.96 184.616062 
L 370.56 184.840926 
L 372.16 185.058755 
L 373.76 185.268931 
L 375.36 185.470849 
L 376.96 185.663917 
L 378.56 185.847557 
L 380.16 186.021214 
" style="fill:none;stroke:#b0c4de;stroke-linecap:square;stroke-width:0.75;"/>
   </g>
   <g id="line2d_70">
    <path clip-path="url(#pf3d688ef4e)" d="M 221.76 175.336068 
L 223.36 174.711301 
L 224.96 174.09544 
L 226.56 173.49114 
L 228.16 172.901014 
L 229.76 172.327612 
L 231.36 171.773402 
L 232.96 171.240744 
L 234.56 170.731873 
L 236.16 170.24888 
L 237.76 169.793698 
L 239.36 169.368085 
L 240.96 168.97362 
L 242.56 168.611684 
L 244.16 168.283463 
L 245.76 167.98994 
L 247.36 167.731896 
L 248.96 167.509907 
L 250.56 167.324354 
L 252.16 167.17542 
L 253.76 167.063106 
L 255.36 166.987231 
L 256.96 166.947447 
L 258.56 166.943251 
L 260.16 166.973988 
L 261.76 167.038874 
L 263.36 167.136999 
L 264.96 167.267345 
L 266.56 167.428794 
L 268.16 167.620141 
L 269.76 167.840103 
L 271.36 168.087334 
L 272.96 168.360428 
L 274.56 168.657933 
L 276.16 168.978353 
L 277.76 169.320161 
L 279.36 169.681803 
L 280.96 170.0617 
L 282.56 170.45826 
L 284.16 170.869876 
L 285.76 171.294934 
L 287.36 171.731815 
L 288.96 172.178901 
L 290.56 172.634577 
L 292.16 173.097234 
L 293.76 173.565275 
L 295.36 174.037119 
L 296.96 174.511205 
L 298.56 174.985997 
L 300.16 175.45999 
L 301.76 175.931714 
L 303.36 176.399744 
L 304.96 176.862701 
L 306.56 177.319262 
L 308.16 177.768166 
L 309.76 178.20822 
L 311.36 178.638306 
L 312.96 179.057389 
L 314.56 179.464521 
L 316.16 179.858847 
L 317.76 180.23961 
L 319.36 180.606159 
L 320.96 180.957947 
L 322.56 181.294538 
L 324.16 181.615608 
L 325.76 181.920944 
L 327.36 182.210445 
L 328.96 182.484123 
L 330.56 182.742096 
L 332.16 182.984587 
L 333.76 183.211919 
L 335.36 183.424508 
L 336.96 183.622857 
L 338.56 183.807548 
L 340.16 183.979234 
L 341.76 184.138628 
L 343.36 184.286495 
L 344.96 184.423641 
L 346.56 184.550901 
L 348.16 184.669128 
L 349.76 184.779188 
L 351.36 184.881941 
L 352.96 184.978236 
L 354.56 185.068901 
L 356.16 185.154733 
L 357.76 185.236489 
L 359.36 185.31488 
L 360.96 185.390564 
L 362.56 185.464143 
L 364.16 185.536153 
L 365.76 185.607067 
L 367.36 185.67729 
L 368.96 185.74716 
L 370.56 185.816946 
L 372.16 185.886854 
L 373.76 185.957023 
L 375.36 186.027536 
L 376.96 186.098418 
L 378.56 186.169647 
L 380.16 186.241154 
" style="fill:none;stroke:#1f77b4;stroke-linecap:square;stroke-width:0.75;"/>
   </g>
   <g id="patch_21">
    <path d="M 213.84 190.08 
L 213.84 105.84 
" style="fill:none;stroke:#000000;stroke-linecap:square;stroke-linejoin:miter;stroke-width:0.8;"/>
   </g>
   <g id="patch_22">
    <path d="M 388.08 190.08 
L 388.08 105.84 
" style="fill:none;stroke:#000000;stroke-linecap:square;stroke-linejoin:miter;stroke-width:0.8;"/>
   </g>
   <g id="patch_23">
    <path d="M 213.84 190.08 
L 388.08 190.08 
" style="fill:none;stroke:#000000;stroke-linecap:square;stroke-linejoin:miter;stroke-width:0.8;"/>
   </g>
   <g id="patch_24">
    <path d="M 213.84 105.84 
L 388.08 105.84 
" style="fill:none;stroke:#000000;stroke-linecap:square;stroke-linejoin:miter;stroke-width:0.8;"/>
   </g>
   <g id="text_30">
    <!-- d -->
    <defs>
     <path d="M 45.609375 46.6875 
L 45.609375 75.984375 
L 63.1875 75.984375 
L 63.1875 0 
L 45.609375 0 
L 45.609375 7.90625 
Q 42 3.078125 37.640625 0.828125 
Q 33.296875 -1.421875 27.59375 -1.421875 
Q 17.484375 -1.421875 10.984375 6.609375 
Q 4.5 14.65625 4.5 27.296875 
Q 4.5 39.9375 10.984375 47.96875 
Q 17.484375 56 27.59375 56 
Q 33.25 56 37.625 53.734375 
Q 42 51.46875 45.609375 46.6875 
z
M 34.078125 11.28125 
Q 39.703125 11.28125 42.65625 15.375 
Q 45.609375 19.484375 45.609375 27.296875 
Q 45.609375 35.109375 42.65625 39.203125 
Q 39.703125 43.3125 34.078125 43.3125 
Q 28.515625 43.3125 25.5625 39.203125 
Q 22.609375 35.109375 22.609375 27.296875 
Q 22.609375 19.484375 25.5625 15.375 
Q 28.515625 11.28125 34.078125 11.28125 
z
" id="DejaVuSans-Bold-64"/>
    </defs>
    <g transform="translate(371.494406 118.410281)scale(0.11 -0.11)">
     <use xlink:href="#DejaVuSans-Bold-64"/>
    </g>
   </g>
   <g id="text_31">
    <!-- All signatures -->
    <defs>
     <path d="M 8.5 21.578125 
L 8.5 54.6875 
L 17.484375 54.6875 
L 17.484375 21.921875 
Q 17.484375 14.15625 20.5 10.265625 
Q 23.53125 6.390625 29.59375 6.390625 
Q 36.859375 6.390625 41.078125 11.03125 
Q 45.3125 15.671875 45.3125 23.6875 
L 45.3125 54.6875 
L 54.296875 54.6875 
L 54.296875 0 
L 45.3125 0 
L 45.3125 8.40625 
Q 42.046875 3.421875 37.71875 1 
Q 33.40625 -1.421875 27.6875 -1.421875 
Q 18.265625 -1.421875 13.375 4.4375 
Q 8.5 10.296875 8.5 21.578125 
z
M 31.109375 56 
z
" id="DejaVuSans-75"/>
    </defs>
    <g transform="translate(266.907656 117.650438)scale(0.1 -0.1)">
     <use xlink:href="#DejaVuSans-41"/>
     <use x="68.408203" xlink:href="#DejaVuSans-6c"/>
     <use x="96.191406" xlink:href="#DejaVuSans-6c"/>
     <use x="123.974609" xlink:href="#DejaVuSans-20"/>
     <use x="155.761719" xlink:href="#DejaVuSans-73"/>
     <use x="207.861328" xlink:href="#DejaVuSans-69"/>
     <use x="235.644531" xlink:href="#DejaVuSans-67"/>
     <use x="299.121094" xlink:href="#DejaVuSans-6e"/>
     <use x="362.5" xlink:href="#DejaVuSans-61"/>
     <use x="423.779297" xlink:href="#DejaVuSans-74"/>
     <use x="462.988281" xlink:href="#DejaVuSans-75"/>
     <use x="526.367188" xlink:href="#DejaVuSans-72"/>
     <use x="567.449219" xlink:href="#DejaVuSans-65"/>
     <use x="628.972656" xlink:href="#DejaVuSans-73"/>
    </g>
   </g>
  </g>
 </g>
 <defs>
  <clipPath id="pc3155f11ee">
   <rect height="84.24" width="174.24" x="39.6" y="21.6"/>
  </clipPath>
  <clipPath id="p474ce68a9e">
   <rect height="84.24" width="174.24" x="213.84" y="21.6"/>
  </clipPath>
  <clipPath id="p21debfa402">
   <rect height="84.24" width="174.24" x="39.6" y="105.84"/>
  </clipPath>
  <clipPath id="pf3d688ef4e">
   <rect height="84.24" width="174.24" x="213.84" y="105.84"/>
  </clipPath>
 </defs>
</svg>
