<?xml version="1.0" encoding="utf-8" standalone="no"?>
<!DOCTYPE svg PUBLIC "-//W3C//DTD SVG 1.1//EN"
  "http://www.w3.org/Graphics/SVG/1.1/DTD/svg11.dtd">
<!-- Created with matplotlib (http://matplotlib.org/) -->
<svg height="252pt" version="1.1" viewBox="0 0 324 252" width="324pt" xmlns="http://www.w3.org/2000/svg" xmlns:xlink="http://www.w3.org/1999/xlink">
 <defs>
  <style type="text/css">
*{stroke-linecap:butt;stroke-linejoin:round;}
  </style>
 </defs>
 <g id="figure_1">
  <g id="patch_1">
   <path d="M 0 252 
L 324 252 
L 324 0 
L 0 0 
z
" style="fill:#ffffff;"/>
  </g>
  <g id="axes_1">
   <g id="patch_2">
    <path d="M 39.62 217.96 
L 309.015 217.96 
L 309.015 11.52 
L 39.62 11.52 
z
" style="fill:#ffffff;"/>
   </g>
   <g id="matplotlib.axis_1">
    <g id="xtick_1">
     <g id="line2d_1">
      <defs>
       <path d="M 0 0 
L 0 3.5 
" id="m52a42e1ac5" style="stroke:#000000;stroke-width:0.8;"/>
      </defs>
      <g>
       <use style="stroke:#000000;stroke-width:0.8;" x="39.62" xlink:href="#m52a42e1ac5" y="217.96"/>
      </g>
     </g>
     <g id="text_1">
      <!-- 0.0 -->
      <defs>
       <path d="M 31.78125 66.40625 
Q 24.171875 66.40625 20.328125 58.90625 
Q 16.5 51.421875 16.5 36.375 
Q 16.5 21.390625 20.328125 13.890625 
Q 24.171875 6.390625 31.78125 6.390625 
Q 39.453125 6.390625 43.28125 13.890625 
Q 47.125 21.390625 47.125 36.375 
Q 47.125 51.421875 43.28125 58.90625 
Q 39.453125 66.40625 31.78125 66.40625 
z
M 31.78125 74.21875 
Q 44.046875 74.21875 50.515625 64.515625 
Q 56.984375 54.828125 56.984375 36.375 
Q 56.984375 17.96875 50.515625 8.265625 
Q 44.046875 -1.421875 31.78125 -1.421875 
Q 19.53125 -1.421875 13.0625 8.265625 
Q 6.59375 17.96875 6.59375 36.375 
Q 6.59375 54.828125 13.0625 64.515625 
Q 19.53125 74.21875 31.78125 74.21875 
z
" id="DejaVuSans-30"/>
       <path d="M 10.6875 12.40625 
L 21 12.40625 
L 21 0 
L 10.6875 0 
z
" id="DejaVuSans-2e"/>
      </defs>
      <g transform="translate(33.25875 231.03875)scale(0.08 -0.08)">
       <use xlink:href="#DejaVuSans-30"/>
       <use x="63.623047" xlink:href="#DejaVuSans-2e"/>
       <use x="95.410156" xlink:href="#DejaVuSans-30"/>
      </g>
     </g>
    </g>
    <g id="xtick_2">
     <g id="line2d_2">
      <g>
       <use style="stroke:#000000;stroke-width:0.8;" x="93.499" xlink:href="#m52a42e1ac5" y="217.96"/>
      </g>
     </g>
     <g id="text_2">
      <!-- 0.2 -->
      <defs>
       <path d="M 19.1875 8.296875 
L 53.609375 8.296875 
L 53.609375 0 
L 7.328125 0 
L 7.328125 8.296875 
Q 12.9375 14.109375 22.625 23.890625 
Q 32.328125 33.6875 34.8125 36.53125 
Q 39.546875 41.84375 41.421875 45.53125 
Q 43.3125 49.21875 43.3125 52.78125 
Q 43.3125 58.59375 39.234375 62.25 
Q 35.15625 65.921875 28.609375 65.921875 
Q 23.96875 65.921875 18.8125 64.3125 
Q 13.671875 62.703125 7.8125 59.421875 
L 7.8125 69.390625 
Q 13.765625 71.78125 18.9375 73 
Q 24.125 74.21875 28.421875 74.21875 
Q 39.75 74.21875 46.484375 68.546875 
Q 53.21875 62.890625 53.21875 53.421875 
Q 53.21875 48.921875 51.53125 44.890625 
Q 49.859375 40.875 45.40625 35.40625 
Q 44.1875 33.984375 37.640625 27.21875 
Q 31.109375 20.453125 19.1875 8.296875 
z
" id="DejaVuSans-32"/>
      </defs>
      <g transform="translate(87.13775 231.03875)scale(0.08 -0.08)">
       <use xlink:href="#DejaVuSans-30"/>
       <use x="63.623047" xlink:href="#DejaVuSans-2e"/>
       <use x="95.410156" xlink:href="#DejaVuSans-32"/>
      </g>
     </g>
    </g>
    <g id="xtick_3">
     <g id="line2d_3">
      <g>
       <use style="stroke:#000000;stroke-width:0.8;" x="147.378" xlink:href="#m52a42e1ac5" y="217.96"/>
      </g>
     </g>
     <g id="text_3">
      <!-- 0.4 -->
      <defs>
       <path d="M 37.796875 64.3125 
L 12.890625 25.390625 
L 37.796875 25.390625 
z
M 35.203125 72.90625 
L 47.609375 72.90625 
L 47.609375 25.390625 
L 58.015625 25.390625 
L 58.015625 17.1875 
L 47.609375 17.1875 
L 47.609375 0 
L 37.796875 0 
L 37.796875 17.1875 
L 4.890625 17.1875 
L 4.890625 26.703125 
z
" id="DejaVuSans-34"/>
      </defs>
      <g transform="translate(141.01675 231.03875)scale(0.08 -0.08)">
       <use xlink:href="#DejaVuSans-30"/>
       <use x="63.623047" xlink:href="#DejaVuSans-2e"/>
       <use x="95.410156" xlink:href="#DejaVuSans-34"/>
      </g>
     </g>
    </g>
    <g id="xtick_4">
     <g id="line2d_4">
      <g>
       <use style="stroke:#000000;stroke-width:0.8;" x="201.257" xlink:href="#m52a42e1ac5" y="217.96"/>
      </g>
     </g>
     <g id="text_4">
      <!-- 0.6 -->
      <defs>
       <path d="M 33.015625 40.375 
Q 26.375 40.375 22.484375 35.828125 
Q 18.609375 31.296875 18.609375 23.390625 
Q 18.609375 15.53125 22.484375 10.953125 
Q 26.375 6.390625 33.015625 6.390625 
Q 39.65625 6.390625 43.53125 10.953125 
Q 47.40625 15.53125 47.40625 23.390625 
Q 47.40625 31.296875 43.53125 35.828125 
Q 39.65625 40.375 33.015625 40.375 
z
M 52.59375 71.296875 
L 52.59375 62.3125 
Q 48.875 64.0625 45.09375 64.984375 
Q 41.3125 65.921875 37.59375 65.921875 
Q 27.828125 65.921875 22.671875 59.328125 
Q 17.53125 52.734375 16.796875 39.40625 
Q 19.671875 43.65625 24.015625 45.921875 
Q 28.375 48.1875 33.59375 48.1875 
Q 44.578125 48.1875 50.953125 41.515625 
Q 57.328125 34.859375 57.328125 23.390625 
Q 57.328125 12.15625 50.6875 5.359375 
Q 44.046875 -1.421875 33.015625 -1.421875 
Q 20.359375 -1.421875 13.671875 8.265625 
Q 6.984375 17.96875 6.984375 36.375 
Q 6.984375 53.65625 15.1875 63.9375 
Q 23.390625 74.21875 37.203125 74.21875 
Q 40.921875 74.21875 44.703125 73.484375 
Q 48.484375 72.75 52.59375 71.296875 
z
" id="DejaVuSans-36"/>
      </defs>
      <g transform="translate(194.89575 231.03875)scale(0.08 -0.08)">
       <use xlink:href="#DejaVuSans-30"/>
       <use x="63.623047" xlink:href="#DejaVuSans-2e"/>
       <use x="95.410156" xlink:href="#DejaVuSans-36"/>
      </g>
     </g>
    </g>
    <g id="xtick_5">
     <g id="line2d_5">
      <g>
       <use style="stroke:#000000;stroke-width:0.8;" x="255.136" xlink:href="#m52a42e1ac5" y="217.96"/>
      </g>
     </g>
     <g id="text_5">
      <!-- 0.8 -->
      <defs>
       <path d="M 31.78125 34.625 
Q 24.75 34.625 20.71875 30.859375 
Q 16.703125 27.09375 16.703125 20.515625 
Q 16.703125 13.921875 20.71875 10.15625 
Q 24.75 6.390625 31.78125 6.390625 
Q 38.8125 6.390625 42.859375 10.171875 
Q 46.921875 13.96875 46.921875 20.515625 
Q 46.921875 27.09375 42.890625 30.859375 
Q 38.875 34.625 31.78125 34.625 
z
M 21.921875 38.8125 
Q 15.578125 40.375 12.03125 44.71875 
Q 8.5 49.078125 8.5 55.328125 
Q 8.5 64.0625 14.71875 69.140625 
Q 20.953125 74.21875 31.78125 74.21875 
Q 42.671875 74.21875 48.875 69.140625 
Q 55.078125 64.0625 55.078125 55.328125 
Q 55.078125 49.078125 51.53125 44.71875 
Q 48 40.375 41.703125 38.8125 
Q 48.828125 37.15625 52.796875 32.3125 
Q 56.78125 27.484375 56.78125 20.515625 
Q 56.78125 9.90625 50.3125 4.234375 
Q 43.84375 -1.421875 31.78125 -1.421875 
Q 19.734375 -1.421875 13.25 4.234375 
Q 6.78125 9.90625 6.78125 20.515625 
Q 6.78125 27.484375 10.78125 32.3125 
Q 14.796875 37.15625 21.921875 38.8125 
z
M 18.3125 54.390625 
Q 18.3125 48.734375 21.84375 45.5625 
Q 25.390625 42.390625 31.78125 42.390625 
Q 38.140625 42.390625 41.71875 45.5625 
Q 45.3125 48.734375 45.3125 54.390625 
Q 45.3125 60.0625 41.71875 63.234375 
Q 38.140625 66.40625 31.78125 66.40625 
Q 25.390625 66.40625 21.84375 63.234375 
Q 18.3125 60.0625 18.3125 54.390625 
z
" id="DejaVuSans-38"/>
      </defs>
      <g transform="translate(248.77475 231.03875)scale(0.08 -0.08)">
       <use xlink:href="#DejaVuSans-30"/>
       <use x="63.623047" xlink:href="#DejaVuSans-2e"/>
       <use x="95.410156" xlink:href="#DejaVuSans-38"/>
      </g>
     </g>
    </g>
    <g id="xtick_6">
     <g id="line2d_6">
      <g>
       <use style="stroke:#000000;stroke-width:0.8;" x="309.015" xlink:href="#m52a42e1ac5" y="217.96"/>
      </g>
     </g>
     <g id="text_6">
      <!-- 1.0 -->
      <defs>
       <path d="M 12.40625 8.296875 
L 28.515625 8.296875 
L 28.515625 63.921875 
L 10.984375 60.40625 
L 10.984375 69.390625 
L 28.421875 72.90625 
L 38.28125 72.90625 
L 38.28125 8.296875 
L 54.390625 8.296875 
L 54.390625 0 
L 12.40625 0 
z
" id="DejaVuSans-31"/>
      </defs>
      <g transform="translate(302.65375 231.03875)scale(0.08 -0.08)">
       <use xlink:href="#DejaVuSans-31"/>
       <use x="63.623047" xlink:href="#DejaVuSans-2e"/>
       <use x="95.410156" xlink:href="#DejaVuSans-30"/>
      </g>
     </g>
    </g>
    <g id="text_7">
     <!-- Probability of False Detection -->
     <defs>
      <path d="M 19.671875 64.796875 
L 19.671875 37.40625 
L 32.078125 37.40625 
Q 38.96875 37.40625 42.71875 40.96875 
Q 46.484375 44.53125 46.484375 51.125 
Q 46.484375 57.671875 42.71875 61.234375 
Q 38.96875 64.796875 32.078125 64.796875 
z
M 9.8125 72.90625 
L 32.078125 72.90625 
Q 44.34375 72.90625 50.609375 67.359375 
Q 56.890625 61.8125 56.890625 51.125 
Q 56.890625 40.328125 50.609375 34.8125 
Q 44.34375 29.296875 32.078125 29.296875 
L 19.671875 29.296875 
L 19.671875 0 
L 9.8125 0 
z
" id="DejaVuSans-50"/>
      <path d="M 41.109375 46.296875 
Q 39.59375 47.171875 37.8125 47.578125 
Q 36.03125 48 33.890625 48 
Q 26.265625 48 22.1875 43.046875 
Q 18.109375 38.09375 18.109375 28.8125 
L 18.109375 0 
L 9.078125 0 
L 9.078125 54.6875 
L 18.109375 54.6875 
L 18.109375 46.1875 
Q 20.953125 51.171875 25.484375 53.578125 
Q 30.03125 56 36.53125 56 
Q 37.453125 56 38.578125 55.875 
Q 39.703125 55.765625 41.0625 55.515625 
z
" id="DejaVuSans-72"/>
      <path d="M 30.609375 48.390625 
Q 23.390625 48.390625 19.1875 42.75 
Q 14.984375 37.109375 14.984375 27.296875 
Q 14.984375 17.484375 19.15625 11.84375 
Q 23.34375 6.203125 30.609375 6.203125 
Q 37.796875 6.203125 41.984375 11.859375 
Q 46.1875 17.53125 46.1875 27.296875 
Q 46.1875 37.015625 41.984375 42.703125 
Q 37.796875 48.390625 30.609375 48.390625 
z
M 30.609375 56 
Q 42.328125 56 49.015625 48.375 
Q 55.71875 40.765625 55.71875 27.296875 
Q 55.71875 13.875 49.015625 6.21875 
Q 42.328125 -1.421875 30.609375 -1.421875 
Q 18.84375 -1.421875 12.171875 6.21875 
Q 5.515625 13.875 5.515625 27.296875 
Q 5.515625 40.765625 12.171875 48.375 
Q 18.84375 56 30.609375 56 
z
" id="DejaVuSans-6f"/>
      <path d="M 48.6875 27.296875 
Q 48.6875 37.203125 44.609375 42.84375 
Q 40.53125 48.484375 33.40625 48.484375 
Q 26.265625 48.484375 22.1875 42.84375 
Q 18.109375 37.203125 18.109375 27.296875 
Q 18.109375 17.390625 22.1875 11.75 
Q 26.265625 6.109375 33.40625 6.109375 
Q 40.53125 6.109375 44.609375 11.75 
Q 48.6875 17.390625 48.6875 27.296875 
z
M 18.109375 46.390625 
Q 20.953125 51.265625 25.265625 53.625 
Q 29.59375 56 35.59375 56 
Q 45.5625 56 51.78125 48.09375 
Q 58.015625 40.1875 58.015625 27.296875 
Q 58.015625 14.40625 51.78125 6.484375 
Q 45.5625 -1.421875 35.59375 -1.421875 
Q 29.59375 -1.421875 25.265625 0.953125 
Q 20.953125 3.328125 18.109375 8.203125 
L 18.109375 0 
L 9.078125 0 
L 9.078125 75.984375 
L 18.109375 75.984375 
z
" id="DejaVuSans-62"/>
      <path d="M 34.28125 27.484375 
Q 23.390625 27.484375 19.1875 25 
Q 14.984375 22.515625 14.984375 16.5 
Q 14.984375 11.71875 18.140625 8.90625 
Q 21.296875 6.109375 26.703125 6.109375 
Q 34.1875 6.109375 38.703125 11.40625 
Q 43.21875 16.703125 43.21875 25.484375 
L 43.21875 27.484375 
z
M 52.203125 31.203125 
L 52.203125 0 
L 43.21875 0 
L 43.21875 8.296875 
Q 40.140625 3.328125 35.546875 0.953125 
Q 30.953125 -1.421875 24.3125 -1.421875 
Q 15.921875 -1.421875 10.953125 3.296875 
Q 6 8.015625 6 15.921875 
Q 6 25.140625 12.171875 29.828125 
Q 18.359375 34.515625 30.609375 34.515625 
L 43.21875 34.515625 
L 43.21875 35.40625 
Q 43.21875 41.609375 39.140625 45 
Q 35.0625 48.390625 27.6875 48.390625 
Q 23 48.390625 18.546875 47.265625 
Q 14.109375 46.140625 10.015625 43.890625 
L 10.015625 52.203125 
Q 14.9375 54.109375 19.578125 55.046875 
Q 24.21875 56 28.609375 56 
Q 40.484375 56 46.34375 49.84375 
Q 52.203125 43.703125 52.203125 31.203125 
z
" id="DejaVuSans-61"/>
      <path d="M 9.421875 54.6875 
L 18.40625 54.6875 
L 18.40625 0 
L 9.421875 0 
z
M 9.421875 75.984375 
L 18.40625 75.984375 
L 18.40625 64.59375 
L 9.421875 64.59375 
z
" id="DejaVuSans-69"/>
      <path d="M 9.421875 75.984375 
L 18.40625 75.984375 
L 18.40625 0 
L 9.421875 0 
z
" id="DejaVuSans-6c"/>
      <path d="M 18.3125 70.21875 
L 18.3125 54.6875 
L 36.8125 54.6875 
L 36.8125 47.703125 
L 18.3125 47.703125 
L 18.3125 18.015625 
Q 18.3125 11.328125 20.140625 9.421875 
Q 21.96875 7.515625 27.59375 7.515625 
L 36.8125 7.515625 
L 36.8125 0 
L 27.59375 0 
Q 17.1875 0 13.234375 3.875 
Q 9.28125 7.765625 9.28125 18.015625 
L 9.28125 47.703125 
L 2.6875 47.703125 
L 2.6875 54.6875 
L 9.28125 54.6875 
L 9.28125 70.21875 
z
" id="DejaVuSans-74"/>
      <path d="M 32.171875 -5.078125 
Q 28.375 -14.84375 24.75 -17.8125 
Q 21.140625 -20.796875 15.09375 -20.796875 
L 7.90625 -20.796875 
L 7.90625 -13.28125 
L 13.1875 -13.28125 
Q 16.890625 -13.28125 18.9375 -11.515625 
Q 21 -9.765625 23.484375 -3.21875 
L 25.09375 0.875 
L 2.984375 54.6875 
L 12.5 54.6875 
L 29.59375 11.921875 
L 46.6875 54.6875 
L 56.203125 54.6875 
z
" id="DejaVuSans-79"/>
      <path id="DejaVuSans-20"/>
      <path d="M 37.109375 75.984375 
L 37.109375 68.5 
L 28.515625 68.5 
Q 23.6875 68.5 21.796875 66.546875 
Q 19.921875 64.59375 19.921875 59.515625 
L 19.921875 54.6875 
L 34.71875 54.6875 
L 34.71875 47.703125 
L 19.921875 47.703125 
L 19.921875 0 
L 10.890625 0 
L 10.890625 47.703125 
L 2.296875 47.703125 
L 2.296875 54.6875 
L 10.890625 54.6875 
L 10.890625 58.5 
Q 10.890625 67.625 15.140625 71.796875 
Q 19.390625 75.984375 28.609375 75.984375 
z
" id="DejaVuSans-66"/>
      <path d="M 9.8125 72.90625 
L 51.703125 72.90625 
L 51.703125 64.59375 
L 19.671875 64.59375 
L 19.671875 43.109375 
L 48.578125 43.109375 
L 48.578125 34.8125 
L 19.671875 34.8125 
L 19.671875 0 
L 9.8125 0 
z
" id="DejaVuSans-46"/>
      <path d="M 44.28125 53.078125 
L 44.28125 44.578125 
Q 40.484375 46.53125 36.375 47.5 
Q 32.28125 48.484375 27.875 48.484375 
Q 21.1875 48.484375 17.84375 46.4375 
Q 14.5 44.390625 14.5 40.28125 
Q 14.5 37.15625 16.890625 35.375 
Q 19.28125 33.59375 26.515625 31.984375 
L 29.59375 31.296875 
Q 39.15625 29.25 43.1875 25.515625 
Q 47.21875 21.78125 47.21875 15.09375 
Q 47.21875 7.46875 41.1875 3.015625 
Q 35.15625 -1.421875 24.609375 -1.421875 
Q 20.21875 -1.421875 15.453125 -0.5625 
Q 10.6875 0.296875 5.421875 2 
L 5.421875 11.28125 
Q 10.40625 8.6875 15.234375 7.390625 
Q 20.0625 6.109375 24.8125 6.109375 
Q 31.15625 6.109375 34.5625 8.28125 
Q 37.984375 10.453125 37.984375 14.40625 
Q 37.984375 18.0625 35.515625 20.015625 
Q 33.0625 21.96875 24.703125 23.78125 
L 21.578125 24.515625 
Q 13.234375 26.265625 9.515625 29.90625 
Q 5.8125 33.546875 5.8125 39.890625 
Q 5.8125 47.609375 11.28125 51.796875 
Q 16.75 56 26.8125 56 
Q 31.78125 56 36.171875 55.265625 
Q 40.578125 54.546875 44.28125 53.078125 
z
" id="DejaVuSans-73"/>
      <path d="M 56.203125 29.59375 
L 56.203125 25.203125 
L 14.890625 25.203125 
Q 15.484375 15.921875 20.484375 11.0625 
Q 25.484375 6.203125 34.421875 6.203125 
Q 39.59375 6.203125 44.453125 7.46875 
Q 49.3125 8.734375 54.109375 11.28125 
L 54.109375 2.78125 
Q 49.265625 0.734375 44.1875 -0.34375 
Q 39.109375 -1.421875 33.890625 -1.421875 
Q 20.796875 -1.421875 13.15625 6.1875 
Q 5.515625 13.8125 5.515625 26.8125 
Q 5.515625 40.234375 12.765625 48.109375 
Q 20.015625 56 32.328125 56 
Q 43.359375 56 49.78125 48.890625 
Q 56.203125 41.796875 56.203125 29.59375 
z
M 47.21875 32.234375 
Q 47.125 39.59375 43.09375 43.984375 
Q 39.0625 48.390625 32.421875 48.390625 
Q 24.90625 48.390625 20.390625 44.140625 
Q 15.875 39.890625 15.1875 32.171875 
z
" id="DejaVuSans-65"/>
      <path d="M 19.671875 64.796875 
L 19.671875 8.109375 
L 31.59375 8.109375 
Q 46.6875 8.109375 53.6875 14.9375 
Q 60.6875 21.78125 60.6875 36.53125 
Q 60.6875 51.171875 53.6875 57.984375 
Q 46.6875 64.796875 31.59375 64.796875 
z
M 9.8125 72.90625 
L 30.078125 72.90625 
Q 51.265625 72.90625 61.171875 64.09375 
Q 71.09375 55.28125 71.09375 36.53125 
Q 71.09375 17.671875 61.125 8.828125 
Q 51.171875 0 30.078125 0 
L 9.8125 0 
z
" id="DejaVuSans-44"/>
      <path d="M 48.78125 52.59375 
L 48.78125 44.1875 
Q 44.96875 46.296875 41.140625 47.34375 
Q 37.3125 48.390625 33.40625 48.390625 
Q 24.65625 48.390625 19.8125 42.84375 
Q 14.984375 37.3125 14.984375 27.296875 
Q 14.984375 17.28125 19.8125 11.734375 
Q 24.65625 6.203125 33.40625 6.203125 
Q 37.3125 6.203125 41.140625 7.25 
Q 44.96875 8.296875 48.78125 10.40625 
L 48.78125 2.09375 
Q 45.015625 0.34375 40.984375 -0.53125 
Q 36.96875 -1.421875 32.421875 -1.421875 
Q 20.0625 -1.421875 12.78125 6.34375 
Q 5.515625 14.109375 5.515625 27.296875 
Q 5.515625 40.671875 12.859375 48.328125 
Q 20.21875 56 33.015625 56 
Q 37.15625 56 41.109375 55.140625 
Q 45.0625 54.296875 48.78125 52.59375 
z
" id="DejaVuSans-63"/>
      <path d="M 54.890625 33.015625 
L 54.890625 0 
L 45.90625 0 
L 45.90625 32.71875 
Q 45.90625 40.484375 42.875 44.328125 
Q 39.84375 48.1875 33.796875 48.1875 
Q 26.515625 48.1875 22.3125 43.546875 
Q 18.109375 38.921875 18.109375 30.90625 
L 18.109375 0 
L 9.078125 0 
L 9.078125 54.6875 
L 18.109375 54.6875 
L 18.109375 46.1875 
Q 21.34375 51.125 25.703125 53.5625 
Q 30.078125 56 35.796875 56 
Q 45.21875 56 50.046875 50.171875 
Q 54.890625 44.34375 54.890625 33.015625 
z
" id="DejaVuSans-6e"/>
     </defs>
     <g transform="translate(115.5125 242.78125)scale(0.08 -0.08)">
      <use xlink:href="#DejaVuSans-50"/>
      <use x="60.287109" xlink:href="#DejaVuSans-72"/>
      <use x="101.369141" xlink:href="#DejaVuSans-6f"/>
      <use x="162.550781" xlink:href="#DejaVuSans-62"/>
      <use x="226.027344" xlink:href="#DejaVuSans-61"/>
      <use x="287.306641" xlink:href="#DejaVuSans-62"/>
      <use x="350.783203" xlink:href="#DejaVuSans-69"/>
      <use x="378.566406" xlink:href="#DejaVuSans-6c"/>
      <use x="406.349609" xlink:href="#DejaVuSans-69"/>
      <use x="434.132812" xlink:href="#DejaVuSans-74"/>
      <use x="473.341797" xlink:href="#DejaVuSans-79"/>
      <use x="532.521484" xlink:href="#DejaVuSans-20"/>
      <use x="564.308594" xlink:href="#DejaVuSans-6f"/>
      <use x="625.490234" xlink:href="#DejaVuSans-66"/>
      <use x="660.695312" xlink:href="#DejaVuSans-20"/>
      <use x="692.482422" xlink:href="#DejaVuSans-46"/>
      <use x="749.861328" xlink:href="#DejaVuSans-61"/>
      <use x="811.140625" xlink:href="#DejaVuSans-6c"/>
      <use x="838.923828" xlink:href="#DejaVuSans-73"/>
      <use x="891.023438" xlink:href="#DejaVuSans-65"/>
      <use x="952.546875" xlink:href="#DejaVuSans-20"/>
      <use x="984.333984" xlink:href="#DejaVuSans-44"/>
      <use x="1061.335938" xlink:href="#DejaVuSans-65"/>
      <use x="1122.859375" xlink:href="#DejaVuSans-74"/>
      <use x="1162.068359" xlink:href="#DejaVuSans-65"/>
      <use x="1223.591797" xlink:href="#DejaVuSans-63"/>
      <use x="1278.572266" xlink:href="#DejaVuSans-74"/>
      <use x="1317.78125" xlink:href="#DejaVuSans-69"/>
      <use x="1345.564453" xlink:href="#DejaVuSans-6f"/>
      <use x="1406.746094" xlink:href="#DejaVuSans-6e"/>
     </g>
    </g>
   </g>
   <g id="matplotlib.axis_2">
    <g id="ytick_1">
     <g id="line2d_7">
      <defs>
       <path d="M 0 0 
L -3.5 0 
" id="mccfc80ad6b" style="stroke:#000000;stroke-width:0.8;"/>
      </defs>
      <g>
       <use style="stroke:#000000;stroke-width:0.8;" x="39.62" xlink:href="#mccfc80ad6b" y="217.96"/>
      </g>
     </g>
     <g id="text_8">
      <!-- 0.0 -->
      <g transform="translate(19.8975 220.999375)scale(0.08 -0.08)">
       <use xlink:href="#DejaVuSans-30"/>
       <use x="63.623047" xlink:href="#DejaVuSans-2e"/>
       <use x="95.410156" xlink:href="#DejaVuSans-30"/>
      </g>
     </g>
    </g>
    <g id="ytick_2">
     <g id="line2d_8">
      <g>
       <use style="stroke:#000000;stroke-width:0.8;" x="39.62" xlink:href="#mccfc80ad6b" y="176.672"/>
      </g>
     </g>
     <g id="text_9">
      <!-- 0.2 -->
      <g transform="translate(19.8975 179.711375)scale(0.08 -0.08)">
       <use xlink:href="#DejaVuSans-30"/>
       <use x="63.623047" xlink:href="#DejaVuSans-2e"/>
       <use x="95.410156" xlink:href="#DejaVuSans-32"/>
      </g>
     </g>
    </g>
    <g id="ytick_3">
     <g id="line2d_9">
      <g>
       <use style="stroke:#000000;stroke-width:0.8;" x="39.62" xlink:href="#mccfc80ad6b" y="135.384"/>
      </g>
     </g>
     <g id="text_10">
      <!-- 0.4 -->
      <g transform="translate(19.8975 138.423375)scale(0.08 -0.08)">
       <use xlink:href="#DejaVuSans-30"/>
       <use x="63.623047" xlink:href="#DejaVuSans-2e"/>
       <use x="95.410156" xlink:href="#DejaVuSans-34"/>
      </g>
     </g>
    </g>
    <g id="ytick_4">
     <g id="line2d_10">
      <g>
       <use style="stroke:#000000;stroke-width:0.8;" x="39.62" xlink:href="#mccfc80ad6b" y="94.096"/>
      </g>
     </g>
     <g id="text_11">
      <!-- 0.6 -->
      <g transform="translate(19.8975 97.135375)scale(0.08 -0.08)">
       <use xlink:href="#DejaVuSans-30"/>
       <use x="63.623047" xlink:href="#DejaVuSans-2e"/>
       <use x="95.410156" xlink:href="#DejaVuSans-36"/>
      </g>
     </g>
    </g>
    <g id="ytick_5">
     <g id="line2d_11">
      <g>
       <use style="stroke:#000000;stroke-width:0.8;" x="39.62" xlink:href="#mccfc80ad6b" y="52.808"/>
      </g>
     </g>
     <g id="text_12">
      <!-- 0.8 -->
      <g transform="translate(19.8975 55.847375)scale(0.08 -0.08)">
       <use xlink:href="#DejaVuSans-30"/>
       <use x="63.623047" xlink:href="#DejaVuSans-2e"/>
       <use x="95.410156" xlink:href="#DejaVuSans-38"/>
      </g>
     </g>
    </g>
    <g id="ytick_6">
     <g id="line2d_12">
      <g>
       <use style="stroke:#000000;stroke-width:0.8;" x="39.62" xlink:href="#mccfc80ad6b" y="11.52"/>
      </g>
     </g>
     <g id="text_13">
      <!-- 1.0 -->
      <g transform="translate(19.8975 14.559375)scale(0.08 -0.08)">
       <use xlink:href="#DejaVuSans-31"/>
       <use x="63.623047" xlink:href="#DejaVuSans-2e"/>
       <use x="95.410156" xlink:href="#DejaVuSans-30"/>
      </g>
     </g>
    </g>
    <g id="text_14">
     <!-- Probability of Detection -->
     <g transform="translate(14.23375 161.87125)rotate(-90)scale(0.08 -0.08)">
      <use xlink:href="#DejaVuSans-50"/>
      <use x="60.287109" xlink:href="#DejaVuSans-72"/>
      <use x="101.369141" xlink:href="#DejaVuSans-6f"/>
      <use x="162.550781" xlink:href="#DejaVuSans-62"/>
      <use x="226.027344" xlink:href="#DejaVuSans-61"/>
      <use x="287.306641" xlink:href="#DejaVuSans-62"/>
      <use x="350.783203" xlink:href="#DejaVuSans-69"/>
      <use x="378.566406" xlink:href="#DejaVuSans-6c"/>
      <use x="406.349609" xlink:href="#DejaVuSans-69"/>
      <use x="434.132812" xlink:href="#DejaVuSans-74"/>
      <use x="473.341797" xlink:href="#DejaVuSans-79"/>
      <use x="532.521484" xlink:href="#DejaVuSans-20"/>
      <use x="564.308594" xlink:href="#DejaVuSans-6f"/>
      <use x="625.490234" xlink:href="#DejaVuSans-66"/>
      <use x="660.695312" xlink:href="#DejaVuSans-20"/>
      <use x="692.482422" xlink:href="#DejaVuSans-44"/>
      <use x="769.484375" xlink:href="#DejaVuSans-65"/>
      <use x="831.007812" xlink:href="#DejaVuSans-74"/>
      <use x="870.216797" xlink:href="#DejaVuSans-65"/>
      <use x="931.740234" xlink:href="#DejaVuSans-63"/>
      <use x="986.720703" xlink:href="#DejaVuSans-74"/>
      <use x="1025.929688" xlink:href="#DejaVuSans-69"/>
      <use x="1053.712891" xlink:href="#DejaVuSans-6f"/>
      <use x="1114.894531" xlink:href="#DejaVuSans-6e"/>
     </g>
    </g>
   </g>
   <g id="line2d_13">
    <path clip-path="url(#p0cb2f530d3)" d="M 39.62 217.96 
L 309.015 11.52 
" style="fill:none;opacity:0.6;stroke:#000000;stroke-linecap:square;"/>
   </g>
   <g id="line2d_14">
    <path d="M 302.691174 11.52 
L 176.973507 57.883593 
L 135.236254 90.09409 
L 83.127925 143.290213 
L 62.891681 179.89305 
L 50.749934 192.093995 
L 44.679061 205.271017 
L 41.137718 211.12747 
L 40.125906 216.495887 
L 39.872953 216.983924 
L 39.62 216.983924 
L 39.62 217.96 
L 39.62 217.96 
L 39.62 217.96 
L 39.62 217.96 
" style="fill:none;stroke:#1f77b4;stroke-linecap:square;"/>
    <defs>
     <path d="M 0 2 
C 0.530406 2 1.03916 1.789267 1.414214 1.414214 
C 1.789267 1.03916 2 0.530406 2 0 
C 2 -0.530406 1.789267 -1.03916 1.414214 -1.414214 
C 1.03916 -1.789267 0.530406 -2 0 -2 
C -0.530406 -2 -1.03916 -1.789267 -1.414214 -1.414214 
C -1.789267 -1.03916 -2 -0.530406 -2 0 
C -2 0.530406 -1.789267 1.03916 -1.414214 1.414214 
C -1.03916 1.789267 -0.530406 2 0 2 
z
" id="m4c2029bb6b" style="stroke:#1f77b4;"/>
    </defs>
    <g>
     <use style="fill:#1f77b4;stroke:#1f77b4;" x="302.691174" xlink:href="#m4c2029bb6b" y="11.52"/>
     <use style="fill:#1f77b4;stroke:#1f77b4;" x="176.973507" xlink:href="#m4c2029bb6b" y="57.883593"/>
     <use style="fill:#1f77b4;stroke:#1f77b4;" x="135.236254" xlink:href="#m4c2029bb6b" y="90.09409"/>
     <use style="fill:#1f77b4;stroke:#1f77b4;" x="83.127925" xlink:href="#m4c2029bb6b" y="143.290213"/>
     <use style="fill:#1f77b4;stroke:#1f77b4;" x="62.891681" xlink:href="#m4c2029bb6b" y="179.89305"/>
     <use style="fill:#1f77b4;stroke:#1f77b4;" x="50.749934" xlink:href="#m4c2029bb6b" y="192.093995"/>
     <use style="fill:#1f77b4;stroke:#1f77b4;" x="44.679061" xlink:href="#m4c2029bb6b" y="205.271017"/>
     <use style="fill:#1f77b4;stroke:#1f77b4;" x="41.137718" xlink:href="#m4c2029bb6b" y="211.12747"/>
     <use style="fill:#1f77b4;stroke:#1f77b4;" x="40.125906" xlink:href="#m4c2029bb6b" y="216.495887"/>
     <use style="fill:#1f77b4;stroke:#1f77b4;" x="39.872953" xlink:href="#m4c2029bb6b" y="216.983924"/>
     <use style="fill:#1f77b4;stroke:#1f77b4;" x="39.62" xlink:href="#m4c2029bb6b" y="216.983924"/>
     <use style="fill:#1f77b4;stroke:#1f77b4;" x="39.62" xlink:href="#m4c2029bb6b" y="217.96"/>
     <use style="fill:#1f77b4;stroke:#1f77b4;" x="39.62" xlink:href="#m4c2029bb6b" y="217.96"/>
     <use style="fill:#1f77b4;stroke:#1f77b4;" x="39.62" xlink:href="#m4c2029bb6b" y="217.96"/>
     <use style="fill:#1f77b4;stroke:#1f77b4;" x="39.62" xlink:href="#m4c2029bb6b" y="217.96"/>
    </g>
   </g>
   <g id="line2d_15">
    <path d="M 303.988974 11.52 
L 190.601825 50.576216 
L 149.187369 85.447838 
L 92.493795 131.478378 
L 67.162623 171.929459 
L 55.10016 190.062703 
L 46.455396 201.221622 
L 41.831451 205.406216 
L 40.022082 213.775405 
L 39.821041 215.17027 
L 39.62 215.17027 
L 39.62 217.96 
L 39.62 217.96 
L 39.62 217.96 
L 39.62 217.96 
" style="fill:none;stroke:#ff7f0e;stroke-linecap:square;"/>
    <defs>
     <path d="M -2 2 
L 2 2 
L 2 -2 
L -2 -2 
z
" id="m936f3cd3b7" style="stroke:#ff7f0e;stroke-linejoin:miter;"/>
    </defs>
    <g>
     <use style="fill:#ff7f0e;stroke:#ff7f0e;stroke-linejoin:miter;" x="303.988974" xlink:href="#m936f3cd3b7" y="11.52"/>
     <use style="fill:#ff7f0e;stroke:#ff7f0e;stroke-linejoin:miter;" x="190.601825" xlink:href="#m936f3cd3b7" y="50.576216"/>
     <use style="fill:#ff7f0e;stroke:#ff7f0e;stroke-linejoin:miter;" x="149.187369" xlink:href="#m936f3cd3b7" y="85.447838"/>
     <use style="fill:#ff7f0e;stroke:#ff7f0e;stroke-linejoin:miter;" x="92.493795" xlink:href="#m936f3cd3b7" y="131.478378"/>
     <use style="fill:#ff7f0e;stroke:#ff7f0e;stroke-linejoin:miter;" x="67.162623" xlink:href="#m936f3cd3b7" y="171.929459"/>
     <use style="fill:#ff7f0e;stroke:#ff7f0e;stroke-linejoin:miter;" x="55.10016" xlink:href="#m936f3cd3b7" y="190.062703"/>
     <use style="fill:#ff7f0e;stroke:#ff7f0e;stroke-linejoin:miter;" x="46.455396" xlink:href="#m936f3cd3b7" y="201.221622"/>
     <use style="fill:#ff7f0e;stroke:#ff7f0e;stroke-linejoin:miter;" x="41.831451" xlink:href="#m936f3cd3b7" y="205.406216"/>
     <use style="fill:#ff7f0e;stroke:#ff7f0e;stroke-linejoin:miter;" x="40.022082" xlink:href="#m936f3cd3b7" y="213.775405"/>
     <use style="fill:#ff7f0e;stroke:#ff7f0e;stroke-linejoin:miter;" x="39.821041" xlink:href="#m936f3cd3b7" y="215.17027"/>
     <use style="fill:#ff7f0e;stroke:#ff7f0e;stroke-linejoin:miter;" x="39.62" xlink:href="#m936f3cd3b7" y="215.17027"/>
     <use style="fill:#ff7f0e;stroke:#ff7f0e;stroke-linejoin:miter;" x="39.62" xlink:href="#m936f3cd3b7" y="217.96"/>
     <use style="fill:#ff7f0e;stroke:#ff7f0e;stroke-linejoin:miter;" x="39.62" xlink:href="#m936f3cd3b7" y="217.96"/>
     <use style="fill:#ff7f0e;stroke:#ff7f0e;stroke-linejoin:miter;" x="39.62" xlink:href="#m936f3cd3b7" y="217.96"/>
     <use style="fill:#ff7f0e;stroke:#ff7f0e;stroke-linejoin:miter;" x="39.62" xlink:href="#m936f3cd3b7" y="217.96"/>
    </g>
   </g>
   <g id="line2d_16">
    <path d="M 304.321707 11.52 
L 194.123195 30.995472 
L 151.695829 50.470943 
L 94.62539 93.316981 
L 68.342951 151.743396 
L 55.952659 179.009057 
L 47.129268 194.589434 
L 42.623707 202.379623 
L 40.558659 217.96 
L 40.183195 217.96 
L 39.995463 217.96 
L 39.62 217.96 
L 39.62 217.96 
L 39.62 217.96 
L 39.62 217.96 
" style="fill:none;stroke:#d62728;stroke-linecap:square;"/>
    <defs>
     <path d="M -0 2.828427 
L 1.697056 0 
L 0 -2.828427 
L -1.697056 -0 
z
" id="mdd510c0343" style="stroke:#d62728;stroke-linejoin:miter;"/>
    </defs>
    <g>
     <use style="fill:#d62728;stroke:#d62728;stroke-linejoin:miter;" x="304.321707" xlink:href="#mdd510c0343" y="11.52"/>
     <use style="fill:#d62728;stroke:#d62728;stroke-linejoin:miter;" x="194.123195" xlink:href="#mdd510c0343" y="30.995472"/>
     <use style="fill:#d62728;stroke:#d62728;stroke-linejoin:miter;" x="151.695829" xlink:href="#mdd510c0343" y="50.470943"/>
     <use style="fill:#d62728;stroke:#d62728;stroke-linejoin:miter;" x="94.62539" xlink:href="#mdd510c0343" y="93.316981"/>
     <use style="fill:#d62728;stroke:#d62728;stroke-linejoin:miter;" x="68.342951" xlink:href="#mdd510c0343" y="151.743396"/>
     <use style="fill:#d62728;stroke:#d62728;stroke-linejoin:miter;" x="55.952659" xlink:href="#mdd510c0343" y="179.009057"/>
     <use style="fill:#d62728;stroke:#d62728;stroke-linejoin:miter;" x="47.129268" xlink:href="#mdd510c0343" y="194.589434"/>
     <use style="fill:#d62728;stroke:#d62728;stroke-linejoin:miter;" x="42.623707" xlink:href="#mdd510c0343" y="202.379623"/>
     <use style="fill:#d62728;stroke:#d62728;stroke-linejoin:miter;" x="40.558659" xlink:href="#mdd510c0343" y="217.96"/>
     <use style="fill:#d62728;stroke:#d62728;stroke-linejoin:miter;" x="40.183195" xlink:href="#mdd510c0343" y="217.96"/>
     <use style="fill:#d62728;stroke:#d62728;stroke-linejoin:miter;" x="39.995463" xlink:href="#mdd510c0343" y="217.96"/>
     <use style="fill:#d62728;stroke:#d62728;stroke-linejoin:miter;" x="39.62" xlink:href="#mdd510c0343" y="217.96"/>
     <use style="fill:#d62728;stroke:#d62728;stroke-linejoin:miter;" x="39.62" xlink:href="#mdd510c0343" y="217.96"/>
     <use style="fill:#d62728;stroke:#d62728;stroke-linejoin:miter;" x="39.62" xlink:href="#mdd510c0343" y="217.96"/>
     <use style="fill:#d62728;stroke:#d62728;stroke-linejoin:miter;" x="39.62" xlink:href="#mdd510c0343" y="217.96"/>
    </g>
   </g>
   <g id="patch_3">
    <path d="M 39.62 217.96 
L 39.62 11.52 
" style="fill:none;stroke:#000000;stroke-linecap:square;stroke-linejoin:miter;stroke-width:0.8;"/>
   </g>
   <g id="patch_4">
    <path d="M 309.015 217.96 
L 309.015 11.52 
" style="fill:none;stroke:#000000;stroke-linecap:square;stroke-linejoin:miter;stroke-width:0.8;"/>
   </g>
   <g id="patch_5">
    <path d="M 39.62 217.96 
L 309.015 217.96 
" style="fill:none;stroke:#000000;stroke-linecap:square;stroke-linejoin:miter;stroke-width:0.8;"/>
   </g>
   <g id="patch_6">
    <path d="M 39.62 11.52 
L 309.015 11.52 
" style="fill:none;stroke:#000000;stroke-linecap:square;stroke-linejoin:miter;stroke-width:0.8;"/>
   </g>
   <g id="legend_1">
    <g id="patch_7">
     <path d="M 175.85625 213.96 
L 303.415 213.96 
Q 305.015 213.96 305.015 212.36 
L 305.015 166.19 
Q 305.015 164.59 303.415 164.59 
L 175.85625 164.59 
Q 174.25625 164.59 174.25625 166.19 
L 174.25625 212.36 
Q 174.25625 213.96 175.85625 213.96 
z
" style="fill:#ffffff;opacity:0.8;stroke:#cccccc;stroke-linejoin:miter;"/>
    </g>
    <g id="line2d_17">
     <path d="M 177.45625 171.06875 
L 193.45625 171.06875 
" style="fill:none;stroke:#1f77b4;stroke-linecap:square;"/>
    </g>
    <g id="line2d_18">
     <g>
      <use style="fill:#1f77b4;stroke:#1f77b4;" x="185.45625" xlink:href="#m4c2029bb6b" y="171.06875"/>
     </g>
    </g>
    <g id="text_15">
     <!-- Obs. threshold=1.0 (423) -->
     <defs>
      <path d="M 39.40625 66.21875 
Q 28.65625 66.21875 22.328125 58.203125 
Q 16.015625 50.203125 16.015625 36.375 
Q 16.015625 22.609375 22.328125 14.59375 
Q 28.65625 6.59375 39.40625 6.59375 
Q 50.140625 6.59375 56.421875 14.59375 
Q 62.703125 22.609375 62.703125 36.375 
Q 62.703125 50.203125 56.421875 58.203125 
Q 50.140625 66.21875 39.40625 66.21875 
z
M 39.40625 74.21875 
Q 54.734375 74.21875 63.90625 63.9375 
Q 73.09375 53.65625 73.09375 36.375 
Q 73.09375 19.140625 63.90625 8.859375 
Q 54.734375 -1.421875 39.40625 -1.421875 
Q 24.03125 -1.421875 14.8125 8.828125 
Q 5.609375 19.09375 5.609375 36.375 
Q 5.609375 53.65625 14.8125 63.9375 
Q 24.03125 74.21875 39.40625 74.21875 
z
" id="DejaVuSans-4f"/>
      <path d="M 54.890625 33.015625 
L 54.890625 0 
L 45.90625 0 
L 45.90625 32.71875 
Q 45.90625 40.484375 42.875 44.328125 
Q 39.84375 48.1875 33.796875 48.1875 
Q 26.515625 48.1875 22.3125 43.546875 
Q 18.109375 38.921875 18.109375 30.90625 
L 18.109375 0 
L 9.078125 0 
L 9.078125 75.984375 
L 18.109375 75.984375 
L 18.109375 46.1875 
Q 21.34375 51.125 25.703125 53.5625 
Q 30.078125 56 35.796875 56 
Q 45.21875 56 50.046875 50.171875 
Q 54.890625 44.34375 54.890625 33.015625 
z
" id="DejaVuSans-68"/>
      <path d="M 45.40625 46.390625 
L 45.40625 75.984375 
L 54.390625 75.984375 
L 54.390625 0 
L 45.40625 0 
L 45.40625 8.203125 
Q 42.578125 3.328125 38.25 0.953125 
Q 33.9375 -1.421875 27.875 -1.421875 
Q 17.96875 -1.421875 11.734375 6.484375 
Q 5.515625 14.40625 5.515625 27.296875 
Q 5.515625 40.1875 11.734375 48.09375 
Q 17.96875 56 27.875 56 
Q 33.9375 56 38.25 53.625 
Q 42.578125 51.265625 45.40625 46.390625 
z
M 14.796875 27.296875 
Q 14.796875 17.390625 18.875 11.75 
Q 22.953125 6.109375 30.078125 6.109375 
Q 37.203125 6.109375 41.296875 11.75 
Q 45.40625 17.390625 45.40625 27.296875 
Q 45.40625 37.203125 41.296875 42.84375 
Q 37.203125 48.484375 30.078125 48.484375 
Q 22.953125 48.484375 18.875 42.84375 
Q 14.796875 37.203125 14.796875 27.296875 
z
" id="DejaVuSans-64"/>
      <path d="M 10.59375 45.40625 
L 73.1875 45.40625 
L 73.1875 37.203125 
L 10.59375 37.203125 
z
M 10.59375 25.484375 
L 73.1875 25.484375 
L 73.1875 17.1875 
L 10.59375 17.1875 
z
" id="DejaVuSans-3d"/>
      <path d="M 31 75.875 
Q 24.46875 64.65625 21.28125 53.65625 
Q 18.109375 42.671875 18.109375 31.390625 
Q 18.109375 20.125 21.3125 9.0625 
Q 24.515625 -2 31 -13.1875 
L 23.1875 -13.1875 
Q 15.875 -1.703125 12.234375 9.375 
Q 8.59375 20.453125 8.59375 31.390625 
Q 8.59375 42.28125 12.203125 53.3125 
Q 15.828125 64.359375 23.1875 75.875 
z
" id="DejaVuSans-28"/>
      <path d="M 40.578125 39.3125 
Q 47.65625 37.796875 51.625 33 
Q 55.609375 28.21875 55.609375 21.1875 
Q 55.609375 10.40625 48.1875 4.484375 
Q 40.765625 -1.421875 27.09375 -1.421875 
Q 22.515625 -1.421875 17.65625 -0.515625 
Q 12.796875 0.390625 7.625 2.203125 
L 7.625 11.71875 
Q 11.71875 9.328125 16.59375 8.109375 
Q 21.484375 6.890625 26.8125 6.890625 
Q 36.078125 6.890625 40.9375 10.546875 
Q 45.796875 14.203125 45.796875 21.1875 
Q 45.796875 27.640625 41.28125 31.265625 
Q 36.765625 34.90625 28.71875 34.90625 
L 20.21875 34.90625 
L 20.21875 43.015625 
L 29.109375 43.015625 
Q 36.375 43.015625 40.234375 45.921875 
Q 44.09375 48.828125 44.09375 54.296875 
Q 44.09375 59.90625 40.109375 62.90625 
Q 36.140625 65.921875 28.71875 65.921875 
Q 24.65625 65.921875 20.015625 65.03125 
Q 15.375 64.15625 9.8125 62.3125 
L 9.8125 71.09375 
Q 15.4375 72.65625 20.34375 73.4375 
Q 25.25 74.21875 29.59375 74.21875 
Q 40.828125 74.21875 47.359375 69.109375 
Q 53.90625 64.015625 53.90625 55.328125 
Q 53.90625 49.265625 50.4375 45.09375 
Q 46.96875 40.921875 40.578125 39.3125 
z
" id="DejaVuSans-33"/>
      <path d="M 8.015625 75.875 
L 15.828125 75.875 
Q 23.140625 64.359375 26.78125 53.3125 
Q 30.421875 42.28125 30.421875 31.390625 
Q 30.421875 20.453125 26.78125 9.375 
Q 23.140625 -1.703125 15.828125 -13.1875 
L 8.015625 -13.1875 
Q 14.5 -2 17.703125 9.0625 
Q 20.90625 20.125 20.90625 31.390625 
Q 20.90625 42.671875 17.703125 53.65625 
Q 14.5 64.65625 8.015625 75.875 
z
" id="DejaVuSans-29"/>
     </defs>
     <g transform="translate(199.85625 173.86875)scale(0.08 -0.08)">
      <use xlink:href="#DejaVuSans-4f"/>
      <use x="78.710938" xlink:href="#DejaVuSans-62"/>
      <use x="142.1875" xlink:href="#DejaVuSans-73"/>
      <use x="194.287109" xlink:href="#DejaVuSans-2e"/>
      <use x="226.074219" xlink:href="#DejaVuSans-20"/>
      <use x="257.861328" xlink:href="#DejaVuSans-74"/>
      <use x="297.070312" xlink:href="#DejaVuSans-68"/>
      <use x="360.449219" xlink:href="#DejaVuSans-72"/>
      <use x="401.53125" xlink:href="#DejaVuSans-65"/>
      <use x="463.054688" xlink:href="#DejaVuSans-73"/>
      <use x="515.154297" xlink:href="#DejaVuSans-68"/>
      <use x="578.533203" xlink:href="#DejaVuSans-6f"/>
      <use x="639.714844" xlink:href="#DejaVuSans-6c"/>
      <use x="667.498047" xlink:href="#DejaVuSans-64"/>
      <use x="730.974609" xlink:href="#DejaVuSans-3d"/>
      <use x="814.763672" xlink:href="#DejaVuSans-31"/>
      <use x="878.386719" xlink:href="#DejaVuSans-2e"/>
      <use x="910.173828" xlink:href="#DejaVuSans-30"/>
      <use x="973.796875" xlink:href="#DejaVuSans-20"/>
      <use x="1005.583984" xlink:href="#DejaVuSans-28"/>
      <use x="1044.597656" xlink:href="#DejaVuSans-34"/>
      <use x="1108.220703" xlink:href="#DejaVuSans-32"/>
      <use x="1171.84375" xlink:href="#DejaVuSans-33"/>
      <use x="1235.466797" xlink:href="#DejaVuSans-29"/>
     </g>
    </g>
    <g id="line2d_19">
     <path d="M 177.45625 182.81125 
L 193.45625 182.81125 
" style="fill:none;stroke:#ff7f0e;stroke-linecap:square;"/>
    </g>
    <g id="line2d_20">
     <g>
      <use style="fill:#ff7f0e;stroke:#ff7f0e;stroke-linejoin:miter;" x="185.45625" xlink:href="#m936f3cd3b7" y="182.81125"/>
     </g>
    </g>
    <g id="text_16">
     <!-- Obs. threshold=2.0 (148) -->
     <g transform="translate(199.85625 185.61125)scale(0.08 -0.08)">
      <use xlink:href="#DejaVuSans-4f"/>
      <use x="78.710938" xlink:href="#DejaVuSans-62"/>
      <use x="142.1875" xlink:href="#DejaVuSans-73"/>
      <use x="194.287109" xlink:href="#DejaVuSans-2e"/>
      <use x="226.074219" xlink:href="#DejaVuSans-20"/>
      <use x="257.861328" xlink:href="#DejaVuSans-74"/>
      <use x="297.070312" xlink:href="#DejaVuSans-68"/>
      <use x="360.449219" xlink:href="#DejaVuSans-72"/>
      <use x="401.53125" xlink:href="#DejaVuSans-65"/>
      <use x="463.054688" xlink:href="#DejaVuSans-73"/>
      <use x="515.154297" xlink:href="#DejaVuSans-68"/>
      <use x="578.533203" xlink:href="#DejaVuSans-6f"/>
      <use x="639.714844" xlink:href="#DejaVuSans-6c"/>
      <use x="667.498047" xlink:href="#DejaVuSans-64"/>
      <use x="730.974609" xlink:href="#DejaVuSans-3d"/>
      <use x="814.763672" xlink:href="#DejaVuSans-32"/>
      <use x="878.386719" xlink:href="#DejaVuSans-2e"/>
      <use x="910.173828" xlink:href="#DejaVuSans-30"/>
      <use x="973.796875" xlink:href="#DejaVuSans-20"/>
      <use x="1005.583984" xlink:href="#DejaVuSans-28"/>
      <use x="1044.597656" xlink:href="#DejaVuSans-31"/>
      <use x="1108.220703" xlink:href="#DejaVuSans-34"/>
      <use x="1171.84375" xlink:href="#DejaVuSans-38"/>
      <use x="1235.466797" xlink:href="#DejaVuSans-29"/>
     </g>
    </g>
    <g id="line2d_21">
     <path d="M 177.45625 194.55375 
L 193.45625 194.55375 
" style="fill:none;stroke:#2ca02c;stroke-linecap:square;stroke-width:2.5;"/>
    </g>
    <g id="line2d_22">
     <defs>
      <path d="M -0 4 
L 4 -4 
L -4 -4 
z
" id="m4d26c9b95e" style="stroke:#2ca02c;stroke-linejoin:miter;"/>
     </defs>
     <g>
      <use style="fill:#2ca02c;stroke:#2ca02c;stroke-linejoin:miter;" x="185.45625" xlink:href="#m4d26c9b95e" y="194.55375"/>
     </g>
    </g>
    <g id="text_17">
     <!-- Obs. threshold=2.5 (102) -->
     <defs>
      <path d="M 10.796875 72.90625 
L 49.515625 72.90625 
L 49.515625 64.59375 
L 19.828125 64.59375 
L 19.828125 46.734375 
Q 21.96875 47.46875 24.109375 47.828125 
Q 26.265625 48.1875 28.421875 48.1875 
Q 40.625 48.1875 47.75 41.5 
Q 54.890625 34.8125 54.890625 23.390625 
Q 54.890625 11.625 47.5625 5.09375 
Q 40.234375 -1.421875 26.90625 -1.421875 
Q 22.3125 -1.421875 17.546875 -0.640625 
Q 12.796875 0.140625 7.71875 1.703125 
L 7.71875 11.625 
Q 12.109375 9.234375 16.796875 8.0625 
Q 21.484375 6.890625 26.703125 6.890625 
Q 35.15625 6.890625 40.078125 11.328125 
Q 45.015625 15.765625 45.015625 23.390625 
Q 45.015625 31 40.078125 35.4375 
Q 35.15625 39.890625 26.703125 39.890625 
Q 22.75 39.890625 18.8125 39.015625 
Q 14.890625 38.140625 10.796875 36.28125 
z
" id="DejaVuSans-35"/>
     </defs>
     <g transform="translate(199.85625 197.35375)scale(0.08 -0.08)">
      <use xlink:href="#DejaVuSans-4f"/>
      <use x="78.710938" xlink:href="#DejaVuSans-62"/>
      <use x="142.1875" xlink:href="#DejaVuSans-73"/>
      <use x="194.287109" xlink:href="#DejaVuSans-2e"/>
      <use x="226.074219" xlink:href="#DejaVuSans-20"/>
      <use x="257.861328" xlink:href="#DejaVuSans-74"/>
      <use x="297.070312" xlink:href="#DejaVuSans-68"/>
      <use x="360.449219" xlink:href="#DejaVuSans-72"/>
      <use x="401.53125" xlink:href="#DejaVuSans-65"/>
      <use x="463.054688" xlink:href="#DejaVuSans-73"/>
      <use x="515.154297" xlink:href="#DejaVuSans-68"/>
      <use x="578.533203" xlink:href="#DejaVuSans-6f"/>
      <use x="639.714844" xlink:href="#DejaVuSans-6c"/>
      <use x="667.498047" xlink:href="#DejaVuSans-64"/>
      <use x="730.974609" xlink:href="#DejaVuSans-3d"/>
      <use x="814.763672" xlink:href="#DejaVuSans-32"/>
      <use x="878.386719" xlink:href="#DejaVuSans-2e"/>
      <use x="910.173828" xlink:href="#DejaVuSans-35"/>
      <use x="973.796875" xlink:href="#DejaVuSans-20"/>
      <use x="1005.583984" xlink:href="#DejaVuSans-28"/>
      <use x="1044.597656" xlink:href="#DejaVuSans-31"/>
      <use x="1108.220703" xlink:href="#DejaVuSans-30"/>
      <use x="1171.84375" xlink:href="#DejaVuSans-32"/>
      <use x="1235.466797" xlink:href="#DejaVuSans-29"/>
     </g>
    </g>
    <g id="line2d_23">
     <path d="M 177.45625 206.29625 
L 193.45625 206.29625 
" style="fill:none;stroke:#d62728;stroke-linecap:square;"/>
    </g>
    <g id="line2d_24">
     <g>
      <use style="fill:#d62728;stroke:#d62728;stroke-linejoin:miter;" x="185.45625" xlink:href="#mdd510c0343" y="206.29625"/>
     </g>
    </g>
    <g id="text_18">
     <!-- Obs. threshold=3.0 (53) -->
     <g transform="translate(199.85625 209.09625)scale(0.08 -0.08)">
      <use xlink:href="#DejaVuSans-4f"/>
      <use x="78.710938" xlink:href="#DejaVuSans-62"/>
      <use x="142.1875" xlink:href="#DejaVuSans-73"/>
      <use x="194.287109" xlink:href="#DejaVuSans-2e"/>
      <use x="226.074219" xlink:href="#DejaVuSans-20"/>
      <use x="257.861328" xlink:href="#DejaVuSans-74"/>
      <use x="297.070312" xlink:href="#DejaVuSans-68"/>
      <use x="360.449219" xlink:href="#DejaVuSans-72"/>
      <use x="401.53125" xlink:href="#DejaVuSans-65"/>
      <use x="463.054688" xlink:href="#DejaVuSans-73"/>
      <use x="515.154297" xlink:href="#DejaVuSans-68"/>
      <use x="578.533203" xlink:href="#DejaVuSans-6f"/>
      <use x="639.714844" xlink:href="#DejaVuSans-6c"/>
      <use x="667.498047" xlink:href="#DejaVuSans-64"/>
      <use x="730.974609" xlink:href="#DejaVuSans-3d"/>
      <use x="814.763672" xlink:href="#DejaVuSans-33"/>
      <use x="878.386719" xlink:href="#DejaVuSans-2e"/>
      <use x="910.173828" xlink:href="#DejaVuSans-30"/>
      <use x="973.796875" xlink:href="#DejaVuSans-20"/>
      <use x="1005.583984" xlink:href="#DejaVuSans-28"/>
      <use x="1044.597656" xlink:href="#DejaVuSans-35"/>
      <use x="1108.220703" xlink:href="#DejaVuSans-33"/>
      <use x="1171.84375" xlink:href="#DejaVuSans-29"/>
     </g>
    </g>
   </g>
   <g id="line2d_25">
    <path d="M 304.155783 11.52 
L 192.782525 49.97451 
L 150.798889 80.333333 
L 94.043232 126.883529 
L 67.414722 163.314118 
L 55.169495 183.553333 
L 46.811641 199.744706 
L 42.341162 205.816471 
L 40.591843 217.96 
L 40.203106 217.96 
L 40.008737 217.96 
L 39.62 217.96 
L 39.62 217.96 
L 39.62 217.96 
L 39.62 217.96 
" style="fill:none;stroke:#2ca02c;stroke-linecap:square;stroke-width:2.5;"/>
    <g>
     <use style="fill:#2ca02c;stroke:#2ca02c;stroke-linejoin:miter;" x="304.155783" xlink:href="#m4d26c9b95e" y="11.52"/>
     <use style="fill:#2ca02c;stroke:#2ca02c;stroke-linejoin:miter;" x="192.782525" xlink:href="#m4d26c9b95e" y="49.97451"/>
     <use style="fill:#2ca02c;stroke:#2ca02c;stroke-linejoin:miter;" x="150.798889" xlink:href="#m4d26c9b95e" y="80.333333"/>
     <use style="fill:#2ca02c;stroke:#2ca02c;stroke-linejoin:miter;" x="94.043232" xlink:href="#m4d26c9b95e" y="126.883529"/>
     <use style="fill:#2ca02c;stroke:#2ca02c;stroke-linejoin:miter;" x="67.414722" xlink:href="#m4d26c9b95e" y="163.314118"/>
     <use style="fill:#2ca02c;stroke:#2ca02c;stroke-linejoin:miter;" x="55.169495" xlink:href="#m4d26c9b95e" y="183.553333"/>
     <use style="fill:#2ca02c;stroke:#2ca02c;stroke-linejoin:miter;" x="46.811641" xlink:href="#m4d26c9b95e" y="199.744706"/>
     <use style="fill:#2ca02c;stroke:#2ca02c;stroke-linejoin:miter;" x="42.341162" xlink:href="#m4d26c9b95e" y="205.816471"/>
     <use style="fill:#2ca02c;stroke:#2ca02c;stroke-linejoin:miter;" x="40.591843" xlink:href="#m4d26c9b95e" y="217.96"/>
     <use style="fill:#2ca02c;stroke:#2ca02c;stroke-linejoin:miter;" x="40.203106" xlink:href="#m4d26c9b95e" y="217.96"/>
     <use style="fill:#2ca02c;stroke:#2ca02c;stroke-linejoin:miter;" x="40.008737" xlink:href="#m4d26c9b95e" y="217.96"/>
     <use style="fill:#2ca02c;stroke:#2ca02c;stroke-linejoin:miter;" x="39.62" xlink:href="#m4d26c9b95e" y="217.96"/>
     <use style="fill:#2ca02c;stroke:#2ca02c;stroke-linejoin:miter;" x="39.62" xlink:href="#m4d26c9b95e" y="217.96"/>
     <use style="fill:#2ca02c;stroke:#2ca02c;stroke-linejoin:miter;" x="39.62" xlink:href="#m4d26c9b95e" y="217.96"/>
     <use style="fill:#2ca02c;stroke:#2ca02c;stroke-linejoin:miter;" x="39.62" xlink:href="#m4d26c9b95e" y="217.96"/>
    </g>
   </g>
   <g id="line2d_26">
    <path clip-path="url(#p0cb2f530d3)" d="M 55.169495 183.553333 
" style="fill:none;stroke:#9467bd;stroke-linecap:square;"/>
    <defs>
     <path d="M 0 7 
C 1.856422 7 3.637059 6.262436 4.949747 4.949747 
C 6.262436 3.637059 7 1.856422 7 0 
C 7 -1.856422 6.262436 -3.637059 4.949747 -4.949747 
C 3.637059 -6.262436 1.856422 -7 0 -7 
C -1.856422 -7 -3.637059 -6.262436 -4.949747 -4.949747 
C -6.262436 -3.637059 -7 -1.856422 -7 0 
C -7 1.856422 -6.262436 3.637059 -4.949747 4.949747 
C -3.637059 6.262436 -1.856422 7 0 7 
z
" id="m27b0e3fa5e" style="stroke:#000000;stroke-width:2;"/>
    </defs>
    <g clip-path="url(#p0cb2f530d3)">
     <use style="fill-opacity:0;stroke:#000000;stroke-width:2;" x="55.169495" xlink:href="#m27b0e3fa5e" y="183.553333"/>
    </g>
   </g>
  </g>
 </g>
 <defs>
  <clipPath id="p0cb2f530d3">
   <rect height="206.44" width="269.395" x="39.62" y="11.52"/>
  </clipPath>
 </defs>
</svg>
